<?xml version="1.0" standalone="no"?>
<!DOCTYPE svg PUBLIC "-//W3C//DTD SVG 20010904//EN"
 "http://www.w3.org/TR/2001/REC-SVG-20010904/DTD/svg10.dtd">
<svg version="1.0" xmlns="http://www.w3.org/2000/svg"
 width="600.000000pt" height="600.000000pt" viewBox="0 0 600.000000 600.000000"
 preserveAspectRatio="xMidYMid meet">
<metadata>
Created by potrace 1.14, written by Peter Selinger 2001-2017
</metadata>
<g transform="translate(0.000000,600.000000) scale(0.100000,-0.100000)"
fill="#000000" stroke="none">
<path d="M2848 5535 c-2 -1 -41 -5 -88 -9 -82 -6 -104 -9 -180 -22 -19 -3 -48
-8 -65 -11 -16 -2 -74 -15 -128 -29 -378 -95 -668 -237 -987 -482 -103 -80
-323 -297 -410 -406 -109 -135 -228 -324 -305 -481 -137 -281 -197 -483 -250
-840 -10 -66 -14 -464 -5 -545 9 -87 19 -159 25 -180 2 -8 7 -35 10 -59 14
-95 97 -395 116 -416 5 -5 9 -15 9 -22 0 -25 110 -258 171 -363 287 -495 697
-857 1240 -1098 135 -60 397 -136 559 -162 41 -7 84 -14 94 -16 138 -26 528
-25 701 1 107 17 150 25 240 47 44 10 89 21 100 23 11 3 61 18 110 34 450 145
894 447 1185 806 35 44 68 85 73 90 20 25 116 166 153 225 169 273 310 675
348 990 26 215 27 530 1 680 -2 14 -6 41 -9 60 -87 551 -338 1043 -729 1432
-428 426 -968 683 -1567 744 -53 6 -407 14 -412 9z m367 -159 c44 -3 89 -8
100 -10 11 -2 43 -7 70 -10 98 -13 272 -57 403 -102 359 -121 663 -313 943
-593 96 -97 234 -263 279 -336 13 -22 27 -42 30 -45 10 -8 75 -119 119 -203
106 -202 198 -470 235 -687 3 -19 8 -45 10 -57 3 -12 8 -53 11 -90 4 -37 9
-77 12 -88 6 -28 6 -353 -1 -390 -2 -16 -7 -61 -11 -100 -8 -83 -38 -246 -65
-345 -108 -404 -325 -775 -629 -1081 -232 -232 -462 -386 -793 -533 -119 -53
-422 -138 -543 -152 -23 -2 -54 -7 -66 -9 -138 -27 -473 -24 -670 6 -41 6 -83
12 -94 14 -11 2 -60 13 -110 25 -49 12 -97 23 -105 25 -83 18 -297 103 -432
170 -185 93 -325 188 -517 350 -43 36 -235 234 -245 252 -5 10 -15 23 -21 28
-28 24 -195 256 -195 271 0 3 -8 18 -19 32 -33 47 -117 214 -158 317 -89 217
-148 459 -170 690 -10 103 -10 357 0 460 38 399 170 773 395 1114 194 295 483
568 796 754 180 106 480 228 642 261 10 3 42 10 69 16 68 16 73 17 125 24 25
3 55 8 68 11 13 2 67 7 120 11 53 3 98 7 99 8 5 4 239 -2 318 -8z"/>
<path d="M2999 4816 c-2 -2 -53 -6 -114 -9 -60 -3 -119 -8 -130 -10 -11 -3
-40 -8 -65 -12 -167 -27 -347 -86 -517 -170 -382 -188 -686 -506 -866 -903
-38 -85 -101 -265 -111 -318 -2 -16 -12 -64 -20 -107 -31 -156 -39 -443 -15
-571 4 -23 10 -57 13 -76 28 -176 81 -338 167 -514 217 -437 607 -776 1073
-931 59 -20 116 -38 125 -40 9 -2 50 -10 91 -18 41 -9 98 -19 125 -22 28 -3
66 -8 85 -11 19 -3 87 -5 151 -5 603 -1 1144 270 1507 756 41 55 77 107 80
115 3 8 11 22 18 30 24 29 122 236 153 323 49 139 82 279 98 409 10 81 10 354
1 439 -37 326 -165 640 -372 914 -65 86 -236 263 -301 311 -22 16 -47 35 -55
43 -28 27 -176 120 -261 164 -133 69 -322 139 -442 163 -127 25 -242 41 -325
43 -42 1 -79 4 -83 6 -3 3 -8 3 -10 1z"/>
</g>
</svg>
