<svg width="896" height="581" viewBox="0 0 896 581" fill="none" xmlns="http://www.w3.org/2000/svg">
<rect width="896" height="581" fill="#A69B9B"/>
<rect x="330" y="54" width="235" height="210" fill="#5D585C"/>
<rect x="44" y="54" width="235" height="210" fill="#14130F"/>
<rect x="602" y="54" width="235" height="210" fill="#F1F1F1"/>
<rect x="330" y="317" width="235" height="210" fill="#F7EEFC"/>
<rect x="44" y="317" width="235" height="210" fill="#320C18"/>
<rect x="74" y="370" width="58" height="52" fill="#F7EEFC"/>
<rect x="132" y="370" width="58" height="52" fill="#320C18"/>
<rect x="190" y="370" width="58" height="52" fill="#F1F1F1"/>
<rect x="74" y="422" width="58" height="52" fill="#14130F"/>
<rect x="190" y="422" width="58" height="52" fill="#5D585C"/>
<rect x="361" y="370" width="58" height="52" fill="#F7EEFC"/>
<rect x="633" y="107" width="58" height="52" fill="#F7EEFC"/>
<rect x="360" y="107" width="58" height="52" fill="#F7EEFC"/>
<rect x="74" y="107" width="58" height="52" fill="#F7EEFC"/>
<rect x="419" y="370" width="58" height="52" fill="#320C18"/>
<rect x="691" y="107" width="58" height="52" fill="#320C18"/>
<rect x="418" y="107" width="58" height="52" fill="#320C18"/>
<rect x="132" y="107" width="58" height="52" fill="#320C18"/>
<rect x="477" y="370" width="58" height="52" fill="#F1F1F1"/>
<rect x="749" y="107" width="58" height="52" fill="#F1F1F1"/>
<rect x="476" y="107" width="58" height="52" fill="#F1F1F1"/>
<rect x="190" y="107" width="58" height="52" fill="#F1F1F1"/>
<rect x="361" y="422" width="58" height="52" fill="#14130F"/>
<rect x="633" y="159" width="58" height="52" fill="#14130F"/>
<rect x="360" y="159" width="58" height="52" fill="#14130F"/>
<rect x="74" y="159" width="58" height="52" fill="#14130F"/>
<rect x="477" y="422" width="58" height="52" fill="#5D585C"/>
<rect x="749" y="159" width="58" height="52" fill="#5D585C"/>
<rect x="476" y="159" width="58" height="52" fill="#5D585C"/>
<rect x="190" y="159" width="58" height="52" fill="#5D585C"/>
<path d="M119.996 382.976C118.695 381.675 116.584 381.675 115.283 382.976L96.4281 401.83L91.6898 397.062C90.3905 395.755 88.2811 395.753 86.9788 397.057C85.6768 398.362 85.6748 400.478 86.9739 401.786L94.0257 408.883C94.3932 409.253 94.826 409.517 95.2864 409.678C96.4656 410.106 97.8379 409.849 98.7835 408.904L119.996 387.69C121.298 386.388 121.298 384.278 119.996 382.976Z" fill="#320C18"/>
<path d="M235.997 119.976C234.695 118.675 232.583 118.675 231.282 119.976L212.428 138.83L207.689 134.062C206.39 132.755 204.281 132.753 202.979 134.057C201.677 135.362 201.674 137.478 202.973 138.786L210.026 145.884C210.394 146.254 210.827 146.518 211.288 146.678C212.466 147.106 213.837 146.849 214.783 145.904L235.997 124.69C237.298 123.388 237.298 121.278 235.997 119.976Z" fill="#14130F"/>
<path d="M404.996 119.976C403.695 118.675 401.584 118.675 400.283 119.976L381.428 138.83L376.69 134.062C375.39 132.755 373.281 132.753 371.979 134.057C370.677 135.362 370.675 137.478 371.974 138.786L379.026 145.883C379.394 146.254 379.827 146.517 380.288 146.678C381.467 147.106 382.838 146.849 383.784 145.904L404.996 124.69C406.298 123.388 406.298 121.278 404.996 119.976Z" fill="#14130F"/>
<path d="M523.996 119.976C522.695 118.675 520.584 118.675 519.282 119.976L500.429 138.83L495.69 134.062C494.39 132.755 492.282 132.753 490.98 134.057C489.677 135.362 489.675 137.478 490.974 138.786L498.027 145.883C498.394 146.253 498.827 146.517 499.288 146.678C500.467 147.106 501.838 146.849 502.783 145.904L523.996 124.69C525.298 123.388 525.298 121.278 523.996 119.976Z" fill="#14130F"/>
<path d="M736.996 119.976C735.695 118.675 733.584 118.675 732.283 119.976L713.428 138.83L708.69 134.062C707.39 132.755 705.281 132.753 703.979 134.057C702.677 135.362 702.675 137.478 703.974 138.786L711.026 145.883C711.394 146.254 711.827 146.517 712.288 146.678C713.467 147.106 714.838 146.849 715.784 145.904L736.996 124.69C738.298 123.388 738.298 121.278 736.996 119.976Z" fill="#F1F1F1"/>
<path d="M463.996 382.976C462.695 381.675 460.584 381.675 459.282 382.976L440.429 401.83L435.69 397.062C434.39 395.755 432.282 395.753 430.98 397.057C429.677 398.362 429.675 400.478 430.974 401.786L438.027 408.883C438.394 409.253 438.827 409.517 439.288 409.678C440.467 410.106 441.838 409.849 442.783 408.904L463.996 387.69C465.298 386.388 465.298 384.278 463.996 382.976Z" fill="#F1F1F1"/>
<path d="M406.997 434.976C405.695 433.675 403.583 433.675 402.282 434.976L383.428 453.83L378.689 449.062C377.39 447.755 375.281 447.753 373.979 449.057C372.677 450.362 372.674 452.478 373.973 453.786L381.026 460.884C381.394 461.254 381.827 461.518 382.288 461.678C383.466 462.106 384.837 461.849 385.783 460.904L406.997 439.69C408.298 438.388 408.298 436.278 406.997 434.976Z" fill="#F1F1F1"/>
<path d="M521.996 434.976C520.695 433.675 518.584 433.675 517.283 434.976L498.428 453.83L493.69 449.062C492.39 447.755 490.281 447.753 488.979 449.057C487.677 450.362 487.675 452.478 488.974 453.786L496.026 460.883C496.394 461.254 496.827 461.517 497.288 461.678C498.467 462.106 499.838 461.849 500.784 460.904L521.996 439.69C523.298 438.388 523.298 436.278 521.996 434.976Z" fill="#F1F1F1"/>
<path d="M794.996 171.976C793.695 170.675 791.584 170.675 790.282 171.976L771.429 190.83L766.69 186.062C765.39 184.755 763.282 184.753 761.98 186.057C760.677 187.362 760.675 189.478 761.974 190.786L769.027 197.883C769.394 198.253 769.827 198.517 770.288 198.678C771.467 199.106 772.838 198.849 773.783 197.904L794.996 176.69C796.298 175.388 796.298 173.278 794.996 171.976Z" fill="#F1F1F1"/>
<path d="M678.997 171.976C677.695 170.675 675.583 170.675 674.282 171.976L655.428 190.83L650.689 186.062C649.39 184.755 647.281 184.753 645.979 186.057C644.677 187.362 644.674 189.478 645.973 190.786L653.026 197.884C653.394 198.253 653.827 198.518 654.288 198.678C655.466 199.106 656.837 198.849 657.783 197.904L678.997 176.69C680.298 175.388 680.298 173.278 678.997 171.976Z" fill="#F1F1F1"/>
<path d="M119.996 119.976C118.695 118.675 116.584 118.675 115.283 119.976L96.4281 138.83L91.6898 134.062C90.3905 132.755 88.2811 132.753 86.9788 134.057C85.6768 135.362 85.6748 137.478 86.9739 138.786L94.0257 145.883C94.3932 146.253 94.826 146.517 95.2864 146.678C96.4656 147.106 97.8379 146.849 98.7835 145.904L119.996 124.69C121.298 123.388 121.298 121.278 119.996 119.976Z" fill="#14130F"/>
<path d="M235.996 382.976C234.695 381.675 232.584 381.675 231.282 382.976L212.429 401.83L207.69 397.062C206.39 395.755 204.282 395.753 202.98 397.057C201.677 398.362 201.675 400.478 202.974 401.786L210.027 408.883C210.394 409.253 210.827 409.517 211.288 409.678C212.467 410.106 213.838 409.849 214.783 408.904L235.996 387.69C237.298 386.388 237.298 384.278 235.996 382.976Z" fill="#320C18"/>
<path d="M227.135 434.981C228.434 433.675 230.543 433.673 231.844 434.977C233.146 436.28 233.149 438.396 231.85 439.703L223.872 447.73L232.366 456.278C233.664 457.585 233.662 459.701 232.36 461.005C231.058 462.309 228.951 462.307 227.652 461L219.169 452.463L210.686 461C209.387 462.307 207.28 462.309 205.978 461.005C204.676 459.701 204.674 457.585 205.972 456.278L214.465 447.73L206.488 439.703C205.189 438.396 205.192 436.28 206.494 434.977C207.795 433.673 209.904 433.675 211.203 434.981L219.169 442.998L227.135 434.981Z" fill="#F1F1F1"/>
<path d="M169.135 382.981C170.434 381.675 172.543 381.673 173.844 382.977C175.146 384.28 175.149 386.396 173.85 387.703L165.872 395.73L174.366 404.278C175.664 405.585 175.662 407.701 174.36 409.005C173.058 410.309 170.951 410.307 169.652 409L161.169 400.463L152.686 409C151.387 410.307 149.28 410.309 147.978 409.005C146.676 407.701 146.674 405.585 147.972 404.278L156.465 395.73L148.488 387.703C147.189 386.396 147.192 384.28 148.494 382.977C149.795 381.673 151.904 381.675 153.203 382.981L161.169 390.998L169.135 382.981Z" fill="#F1F1F1"/>
<path d="M111.135 434.981C112.434 433.675 114.543 433.673 115.844 434.977C117.146 436.28 117.149 438.396 115.85 439.703L107.872 447.73L116.366 456.278C117.664 457.585 117.662 459.701 116.36 461.005C115.058 462.309 112.951 462.307 111.652 461L103.169 452.463L94.6861 461C93.3874 462.307 91.2798 462.309 89.9781 461.005C88.6764 459.701 88.6735 457.585 89.9722 456.278L98.4654 447.73L90.4879 439.703C89.1895 438.396 89.1923 436.28 90.4937 434.977C91.7955 433.673 93.904 433.675 95.2027 434.981L103.169 442.998L111.135 434.981Z" fill="#F1F1F1"/>
<path d="M108.135 171.981C109.434 170.675 111.543 170.673 112.844 171.977C114.146 173.28 114.149 175.396 112.85 176.703L104.872 184.73L113.366 193.278C114.664 194.585 114.662 196.701 113.36 198.005C112.058 199.309 109.951 199.307 108.652 198L100.169 189.463L91.6861 198C90.3874 199.307 88.2798 199.309 86.9781 198.005C85.6764 196.701 85.6735 194.585 86.9722 193.278L95.4654 184.73L87.4879 176.703C86.1895 175.396 86.1923 173.28 87.4937 171.977C88.7955 170.673 90.904 170.675 92.2027 171.981L100.169 179.998L108.135 171.981Z" fill="#F1F1F1"/>
<path d="M227.135 171.981C228.434 170.675 230.543 170.673 231.844 171.977C233.146 173.28 233.149 175.396 231.85 176.703L223.872 184.73L232.366 193.278C233.664 194.585 233.662 196.701 232.36 198.005C231.058 199.309 228.951 199.307 227.652 198L219.169 189.463L210.686 198C209.387 199.307 207.28 199.309 205.978 198.005C204.676 196.701 204.674 194.585 205.972 193.278L214.465 184.73L206.488 176.703C205.189 175.396 205.192 173.28 206.494 171.977C207.795 170.673 209.904 170.675 211.203 171.981L219.169 179.998L227.135 171.981Z" fill="#F1F1F1"/>
<path d="M513.136 171.981C514.435 170.675 516.542 170.673 517.844 171.976C519.146 173.28 519.148 175.396 517.85 176.703L509.872 184.73L518.366 193.278C519.665 194.585 519.662 196.702 518.36 198.006C517.059 199.309 514.95 199.307 513.651 198L505.169 189.464L496.687 198C495.388 199.307 493.279 199.309 491.978 198.006C490.676 196.702 490.674 194.585 491.973 193.278L500.466 184.73L492.488 176.703C491.19 175.396 491.193 173.28 492.494 171.976C493.796 170.673 495.904 170.675 497.202 171.981L505.169 179.998L513.136 171.981Z" fill="#F1F1F1"/>
<path d="M396.135 171.981C397.434 170.675 399.543 170.673 400.844 171.977C402.146 173.28 402.149 175.396 400.85 176.703L392.872 184.73L401.366 193.278C402.664 194.585 402.662 196.701 401.36 198.005C400.058 199.309 397.951 199.307 396.652 198L388.169 189.463L379.686 198C378.387 199.307 376.28 199.309 374.978 198.005C373.676 196.701 373.674 194.585 374.972 193.278L383.465 184.73L375.488 176.703C374.189 175.396 374.192 173.28 375.494 171.977C376.795 170.673 378.904 170.675 380.203 171.981L388.169 179.998L396.135 171.981Z" fill="#F1F1F1"/>
<path d="M454.136 119.981C455.435 118.675 457.542 118.673 458.844 119.976C460.146 121.28 460.149 123.396 458.85 124.703L450.873 132.73L459.367 141.278C460.665 142.585 460.663 144.702 459.361 146.006C458.059 147.309 455.95 147.307 454.652 146L446.169 137.464L437.687 146C436.388 147.307 434.28 147.309 432.978 146.006C431.676 144.702 431.674 142.585 432.972 141.278L441.465 132.73L433.489 124.703C432.19 123.396 432.193 121.28 433.495 119.976C434.796 118.673 436.904 118.675 438.203 119.981L446.169 127.998L454.136 119.981Z" fill="#F1F1F1"/>
<path d="M670.136 119.981C671.435 118.675 673.542 118.673 674.844 119.976C676.146 121.28 676.149 123.396 674.85 124.703L666.873 132.73L675.367 141.278C676.665 142.585 676.663 144.702 675.361 146.006C674.059 147.309 671.95 147.307 670.652 146L662.169 137.464L653.687 146C652.388 147.307 650.28 147.309 648.978 146.006C647.676 144.702 647.674 142.585 648.972 141.278L657.465 132.73L649.489 124.703C648.19 123.396 648.193 121.28 649.495 119.976C650.796 118.673 652.904 118.675 654.203 119.981L662.169 127.998L670.136 119.981Z" fill="#14130F"/>
<path d="M787.135 119.981C788.434 118.675 790.543 118.673 791.844 119.977C793.146 121.28 793.149 123.396 791.85 124.703L783.872 132.73L792.366 141.278C793.664 142.585 793.662 144.701 792.36 146.005C791.058 147.309 788.951 147.307 787.652 146L779.169 137.463L770.686 146C769.387 147.307 767.28 147.309 765.978 146.005C764.676 144.701 764.674 142.585 765.972 141.278L774.465 132.73L766.488 124.703C765.189 123.396 765.192 121.28 766.494 119.977C767.795 118.673 769.904 118.675 771.203 119.981L779.169 127.998L787.135 119.981Z" fill="#14130F"/>
<path d="M398.135 382.981C399.434 381.675 401.543 381.673 402.844 382.977C404.146 384.28 404.149 386.396 402.85 387.703L394.872 395.73L403.366 404.278C404.664 405.585 404.662 407.701 403.36 409.005C402.058 410.309 399.951 410.307 398.652 409L390.169 400.463L381.686 409C380.387 410.307 378.28 410.309 376.978 409.005C375.676 407.701 375.674 405.585 376.972 404.278L385.465 395.73L377.488 387.703C376.189 386.396 376.192 384.28 377.494 382.977C378.795 381.673 380.904 381.675 382.203 382.981L390.169 390.998L398.135 382.981Z" fill="#14130F"/>
<path d="M515.136 382.981C516.435 381.675 518.542 381.673 519.844 382.976C521.146 384.28 521.148 386.396 519.85 387.703L511.872 395.73L520.366 404.278C521.665 405.585 521.662 407.702 520.36 409.006C519.059 410.309 516.95 410.307 515.651 409L507.169 400.464L498.687 409C497.388 410.307 495.279 410.309 493.978 409.006C492.676 407.702 492.674 405.585 493.973 404.278L502.466 395.73L494.488 387.703C493.19 386.396 493.193 384.28 494.494 382.976C495.796 381.673 497.904 381.675 499.202 382.981L507.169 390.998L515.136 382.981Z" fill="#14130F"/>
<path d="M169.135 119.981C170.434 118.675 172.543 118.673 173.844 119.977C175.146 121.28 175.149 123.396 173.85 124.703L165.872 132.73L174.366 141.278C175.664 142.585 175.662 144.701 174.36 146.005C173.058 147.309 170.951 147.307 169.652 146L161.169 137.463L152.686 146C151.387 147.307 149.28 147.309 147.978 146.005C146.676 144.701 146.674 142.585 147.972 141.278L156.465 132.73L148.488 124.703C147.189 123.396 147.192 121.28 148.494 119.977C149.795 118.673 151.904 118.675 153.203 119.981L161.169 127.998L169.135 119.981Z" fill="#F1F1F1"/>
</svg>
