<svg width="1241" height="527" viewBox="0 0 1241 527" fill="none" xmlns="http://www.w3.org/2000/svg">
<rect width="1240.88" height="526.213" transform="translate(0 0.374023)" fill="white"/>
<rect x="90.8623" y="152.572" width="105.878" height="95.5749" fill="#1C1C1E"/>
<rect x="347.578" y="329.551" width="105.878" height="95.5749" fill="#E5D9CF"/>
<rect x="219.221" y="329.551" width="105.878" height="95.5749" fill="#A8613C"/>
<rect x="90.8623" y="329.551" width="105.878" height="95.5749" fill="#50351A"/>
<rect x="347.97" y="152.965" width="105.093" height="94.7903" fill="#FFFCFA" stroke="black" stroke-width="0.78458"/>
<rect x="219.221" y="152.572" width="105.878" height="95.5749" fill="#4E6F9A"/>
<path d="M92.2371 94.5207C93.6062 94.4511 94.3894 94.3873 94.5866 94.3293C94.7142 94.2829 94.8186 94.2075 94.8999 94.103C94.9927 93.9986 95.0681 93.784 95.1261 93.4591C95.1957 93.0182 95.2769 91.9508 95.3698 90.2569C95.4162 89.2939 95.4394 88.0408 95.4394 86.4977V80.9113L95.3698 75.8469C95.3582 74.9999 95.3233 74.4488 95.2653 74.1935C95.2073 73.9383 95.1203 73.7527 95.0043 73.6366C94.8999 73.509 94.72 73.4104 94.4648 73.3408C94.2095 73.2712 93.467 73.1958 92.2371 73.1145V71.6527C93.7106 71.7223 94.7954 71.7571 95.4916 71.7571L98.0151 71.7049L99.6162 71.6527C102.006 74.7737 104.901 78.3704 108.3 82.4428C110.749 85.3781 112.779 87.6754 114.392 89.3345V85.3143C114.392 79.0723 114.322 75.4002 114.183 74.298C114.136 73.8687 114.032 73.5902 113.87 73.4626C113.603 73.2538 112.698 73.1377 111.155 73.1145V71.6527C112.57 71.7223 113.87 71.7571 115.053 71.7571C116.202 71.7571 117.681 71.7223 119.491 71.6527V73.1145C118.075 73.1493 117.234 73.2538 116.967 73.4278C116.875 73.4858 116.811 73.5728 116.776 73.6888C116.602 74.269 116.486 75.5974 116.428 77.6742C116.381 79.7394 116.358 81.2651 116.358 82.2513C116.358 89.9668 116.434 94.6483 116.584 96.2959L116.358 96.4525C115.384 96.2901 114.392 96.1392 113.382 96C109.635 91.8116 104.321 85.5232 97.4408 77.1347V85.8016C97.4408 87.6 97.4756 89.4737 97.5452 91.4229C97.5916 92.7688 97.6612 93.5867 97.754 93.8768C97.8004 94.016 97.8758 94.132 97.9803 94.2249C98.0963 94.3061 98.2935 94.3641 98.572 94.3989C99.3261 94.4917 99.8772 94.5381 100.225 94.5381C100.295 94.5381 100.411 94.5323 100.573 94.5207V95.9304C98.3689 95.9072 97.1159 95.8956 96.8142 95.8956C95.6888 95.8956 94.1631 95.9304 92.2371 96V94.5207ZM122.693 96V95.0602C123.389 94.7354 123.958 94.3989 124.399 94.0508C124.468 93.5635 124.526 92.7746 124.573 91.684C124.665 89.6884 124.712 88.2381 124.712 87.3331V79.5016C124.712 79.1999 124.694 78.0687 124.66 76.1079C124.625 74.7969 124.544 73.9963 124.416 73.7063C124.358 73.5902 124.271 73.5032 124.155 73.4452C123.842 73.306 123.006 73.2016 121.649 73.1319V71.6527L125.686 71.7397C126.487 71.7513 127.253 71.7571 127.984 71.7571C129.573 71.7571 131.343 71.7397 133.292 71.7049L136.825 71.6178C137.242 71.6178 138.089 71.641 139.366 71.6875C139.482 71.6875 139.673 71.7223 139.94 71.7919L140.062 72.0181L139.731 74.5242C139.719 74.6982 139.661 75.5336 139.557 77.0303H138.2C138.176 75.6612 138.124 74.8201 138.043 74.5068C137.996 74.3444 137.927 74.2284 137.834 74.1587C137.683 74.0543 137.219 73.9615 136.442 73.8803C135.293 73.7527 134.168 73.6888 133.066 73.6888C132.033 73.6888 130.977 73.7295 129.898 73.8107C129.736 75.1217 129.654 76.7867 129.654 78.8054V82.3731C130.443 82.4312 131.267 82.4602 132.126 82.4602C132.393 82.4602 133.356 82.437 135.015 82.3905C135.641 82.3789 136.007 82.3383 136.111 82.2687C136.227 82.1991 136.314 82.0773 136.372 81.9033C136.511 81.4624 136.593 80.7256 136.616 79.693H138.025L137.956 83.5218L138.025 87.3331H136.529C136.54 85.9872 136.453 85.1577 136.268 84.8444C136.129 84.6124 135.879 84.4674 135.519 84.4093C134.719 84.2817 133.692 84.2179 132.439 84.2179C131.314 84.2179 130.385 84.2527 129.654 84.3223V91.7014C129.654 92.5251 129.672 93.2329 129.707 93.8246C130.646 93.8942 131.76 93.929 133.048 93.929C134.301 93.929 135.456 93.8884 136.511 93.8072C137.579 93.726 138.234 93.6099 138.478 93.4591C138.559 93.4127 138.635 93.3083 138.704 93.1458C138.913 92.5889 139.133 91.5331 139.366 89.9784H140.793C140.537 92.2757 140.41 94.1668 140.41 95.6519L140.183 95.8782C139.441 95.9594 138.385 96 137.016 96L134.214 95.9478C131.453 95.913 129.55 95.8956 128.506 95.8956C128.227 95.8956 126.29 95.9304 122.693 96ZM143.299 73.0971V71.6527L148.955 71.7571L151.304 71.7223L153.654 71.6701L154.298 71.6527V73.0971C153.045 73.0971 152.25 73.2074 151.913 73.4278C151.739 73.5322 151.623 73.7353 151.565 74.0369C151.403 74.7563 151.322 76.34 151.322 78.788V82.8256L151.339 84.8618C151.339 86.985 151.362 88.2961 151.409 88.795C151.513 89.8856 151.786 90.7674 152.227 91.4403C152.668 92.1016 153.34 92.6411 154.245 93.0588C155.162 93.4649 156.322 93.6679 157.726 93.6679C159.339 93.6679 160.621 93.3953 161.572 92.85C162.535 92.2931 163.22 91.5737 163.626 90.692C164.032 89.8102 164.235 88.1337 164.235 85.6624V82.1121C164.235 79.0491 164.229 77.1811 164.218 76.5082C164.183 75.0463 164.102 74.1645 163.974 73.8629C163.893 73.6772 163.759 73.538 163.574 73.4452C163.191 73.248 162.355 73.1319 161.068 73.0971V71.6527C163.168 71.7339 164.415 71.7745 164.809 71.7745C164.914 71.7745 165.07 71.7687 165.279 71.7571L169.143 71.6527V73.0971C168.064 73.0971 167.385 73.1842 167.107 73.3582C166.967 73.451 166.851 73.6308 166.758 73.8977C166.677 74.1529 166.596 75.3248 166.515 77.4132C166.434 79.5016 166.393 81.1491 166.393 82.3557V86.4455C166.393 87.4897 166.318 88.5688 166.167 89.6826C166.016 90.7964 165.708 91.7478 165.244 92.5367C164.792 93.3257 164.148 94.0392 163.313 94.6773C162.477 95.3155 161.485 95.797 160.337 96.1218C159.188 96.4467 157.86 96.6091 156.351 96.6091C154.588 96.6091 152.94 96.3713 151.409 95.8956C150.295 95.5475 149.384 95.0834 148.676 94.5033C147.969 93.9116 147.429 93.2561 147.058 92.5367C146.687 91.8058 146.46 91.1038 146.379 90.4309C146.321 90.0132 146.292 88.8878 146.292 87.0547L146.309 83.7132V79.2927C146.309 77.6684 146.275 76.2065 146.205 74.9071C146.17 74.3966 146.101 74.0253 145.996 73.7933C145.938 73.6656 145.793 73.5148 145.561 73.3408L143.299 73.0971ZM176.348 96V94.5729C177.74 94.5265 178.564 94.4337 178.819 94.2945C179.086 94.1552 179.266 93.9232 179.359 93.5983C179.486 93.0994 179.55 91.5969 179.55 89.0909V78.6662C179.55 75.8237 179.533 74.2342 179.498 73.8977H177.009C175.756 73.8977 174.654 73.9383 173.702 74.0195C173.32 74.0543 173.099 74.1007 173.041 74.1587C172.96 74.2284 172.89 74.4314 172.832 74.7679C172.681 75.58 172.594 76.4908 172.571 77.5002H171.127C171.08 75.1217 171.051 73.7817 171.04 73.48C171.005 72.9695 170.947 72.4184 170.866 71.8267L171.022 71.6527C171.568 71.7107 172.148 71.7513 172.763 71.7745C173.76 71.8093 175.681 71.8267 178.523 71.8267H185.554C188.478 71.8267 190.433 71.8093 191.419 71.7745C191.953 71.7513 192.492 71.7107 193.038 71.6527L193.212 71.8267C193.107 72.5344 193.043 73.1551 193.02 73.6888C193.009 73.7817 192.985 75.0521 192.951 77.5002H191.506C191.483 76.5952 191.407 75.7308 191.28 74.9071C191.21 74.4894 191.135 74.24 191.054 74.1587C190.984 74.1007 190.798 74.0601 190.497 74.0369C189.545 73.9441 188.402 73.8977 187.068 73.8977H184.58C184.545 74.3038 184.527 75.8933 184.527 78.6662V89.0909C184.527 91.5969 184.591 93.1052 184.719 93.6157C184.8 93.9174 184.974 94.1436 185.241 94.2945C185.508 94.4337 186.337 94.5265 187.73 94.5729V96C185.479 95.8956 183.582 95.8434 182.039 95.8434C180.391 95.8434 178.494 95.8956 176.348 96ZM195.283 73.0971V71.6701C195.549 71.6701 196.478 71.6933 198.067 71.7397C198.845 71.7629 199.947 71.7745 201.374 71.7745C202.592 71.7745 203.636 71.7513 204.506 71.7049C205.945 71.6469 207.134 71.6178 208.074 71.6178C209.896 71.6178 211.259 71.7513 212.164 72.0181C213.069 72.2734 213.84 72.8129 214.479 73.6366C215.117 74.4604 215.436 75.464 215.436 76.6474C215.436 78.0513 215.001 79.3275 214.131 80.4762C213.26 81.6248 211.92 82.5356 210.11 83.2085C210.4 83.7306 210.731 84.2643 211.102 84.8096C211.474 85.3549 211.688 85.6856 211.746 85.8016C211.816 85.9176 211.885 86.0279 211.955 86.1323L214.653 90.1873C215.372 91.2663 215.761 91.8464 215.819 91.9276C216.689 93.0878 217.223 93.7724 217.42 93.9812C217.617 94.19 217.808 94.3351 217.994 94.4163C218.18 94.4975 218.545 94.5439 219.09 94.5555V96C217.304 95.9536 216.01 95.9304 215.21 95.9304C214.281 95.9304 213.359 95.9536 212.442 96C212.384 95.7448 212.245 95.4141 212.025 95.008L208.3 88.8646C207.233 87.1011 206.328 85.7146 205.585 84.7052C205.214 84.1947 204.855 83.8118 204.506 83.5566L204.698 82.9823C206.09 83.0287 207.14 82.8894 207.848 82.5646C208.556 82.2281 209.153 81.6364 209.64 80.7894C210.128 79.9309 210.371 78.9737 210.371 77.9179C210.371 76.8505 210.116 75.9629 209.606 75.2552C209.095 74.5474 208.463 74.0543 207.709 73.7759C207.221 73.6018 206.351 73.5148 205.098 73.5148C204.541 73.5148 203.99 73.5612 203.445 73.654C203.41 74.0717 203.375 75.0115 203.34 76.4734C203.271 79.7568 203.236 81.9497 203.236 83.0519C203.236 84.7922 203.253 86.637 203.288 88.5862C203.335 90.9762 203.369 92.3337 203.393 92.6585C203.427 93.3083 203.491 93.7318 203.584 93.929C203.63 94.0218 203.706 94.1088 203.81 94.19C203.915 94.2597 204.083 94.3177 204.315 94.3641C204.547 94.4105 205.22 94.4453 206.334 94.4685V96C204.35 95.9304 202.343 95.8956 200.312 95.8956C198.502 95.8956 196.826 95.9304 195.283 96V94.4685C196.605 94.4221 197.388 94.3583 197.632 94.2771C197.771 94.2423 197.87 94.1842 197.928 94.103C197.998 94.0218 198.05 93.8594 198.085 93.6157C198.166 93.1632 198.224 92.4787 198.259 91.5621L198.398 86.4803V80.0237L198.328 76.3516C198.305 74.9013 198.235 74.0311 198.119 73.7411C198.061 73.6134 197.974 73.5148 197.858 73.4452C197.58 73.306 196.721 73.19 195.283 73.0971ZM220.465 96V94.5555C221.405 94.4859 221.962 94.4279 222.136 94.3815C222.322 94.3235 222.478 94.2423 222.606 94.1378C222.734 94.0218 222.861 93.8478 222.989 93.6157C223.128 93.3721 223.528 92.4845 224.19 90.953C224.491 90.2337 225.071 88.8124 225.93 86.6892L230.472 75.4814L232.004 71.5308H234.475L242.254 89.7L243.333 92.0842L244.03 93.6853C244.146 93.8942 244.256 94.045 244.36 94.1378C244.465 94.2307 244.581 94.3003 244.708 94.3467C244.848 94.3931 245.19 94.4337 245.735 94.4685C245.909 94.4917 246.164 94.5207 246.501 94.5555V96L241.663 95.8956L235.554 96V94.5555C236.958 94.4975 237.747 94.4221 237.921 94.3293C238.107 94.2249 238.199 94.0566 238.199 93.8246C238.199 93.5345 238.066 93.0588 237.799 92.3975L236.302 88.5688H227.357L226.591 90.6572C226.011 92.2583 225.721 93.2561 225.721 93.6505C225.721 93.929 225.814 94.1262 226 94.2423C226.278 94.4047 227.108 94.5091 228.488 94.5555V96L224.468 95.8956L220.465 96ZM228.158 86.5848C229.248 86.6196 230.484 86.637 231.865 86.637C233.199 86.637 234.394 86.6196 235.45 86.5848L231.725 77.6046L228.158 86.5848ZM249.738 96V95.1124C250.04 94.9848 250.463 94.7586 251.008 94.4337C251.252 94.2945 251.409 94.1784 251.478 94.0856C251.525 94.0276 251.554 93.9638 251.565 93.8942C251.623 93.6041 251.675 92.5715 251.722 90.7964C251.768 89.0096 251.791 86.869 251.791 84.3745C251.791 80.7082 251.78 78.4458 251.757 77.5872C251.71 75.406 251.635 74.1587 251.53 73.8455C251.484 73.7063 251.397 73.6018 251.269 73.5322C251.003 73.3582 250.115 73.2422 248.607 73.1842V71.6527C250.08 71.7223 251.762 71.7571 253.654 71.7571C255.765 71.7571 257.767 71.7223 259.658 71.6527V73.1842C258.347 73.2422 257.546 73.3466 257.256 73.4974C257.128 73.567 257.036 73.683 256.978 73.8455C256.92 73.9963 256.862 74.7098 256.804 75.9861C256.757 77.2623 256.734 78.8751 256.734 80.8242C256.734 81.0331 256.74 82.7096 256.751 85.8538C256.763 87.5129 256.769 89.1605 256.769 90.7964C256.78 92.4207 256.792 93.4069 256.804 93.755C258.405 93.8246 259.495 93.8594 260.075 93.8594C261.839 93.8594 263.376 93.755 264.687 93.5461C265.163 93.4765 265.447 93.4011 265.54 93.3199C265.633 93.2387 265.732 93.024 265.836 92.676C266.068 91.7942 266.294 90.7848 266.515 89.6478H267.959C267.924 89.9726 267.907 90.1641 267.907 90.2221L267.472 93.7376C267.379 94.8398 267.327 95.5011 267.315 95.7215C266.979 95.8144 266.642 95.8782 266.306 95.913C265.598 95.971 264.502 96 263.017 96C262.808 96 261.445 95.971 258.927 95.913C257.012 95.8666 255.678 95.8434 254.924 95.8434C253.787 95.8434 252.058 95.8956 249.738 96ZM287.086 78.0223H285.624C285.6 76.6764 285.542 75.725 285.45 75.1681C285.09 74.6576 284.463 74.2051 283.57 73.8107C282.688 73.4162 281.696 73.219 280.594 73.219C279.016 73.219 277.792 73.6192 276.922 74.4198C276.063 75.2087 275.634 76.1369 275.634 77.2043C275.646 77.9701 275.773 78.5908 276.017 79.0665C276.261 79.5422 276.609 79.9193 277.061 80.1977C277.514 80.4762 278.181 80.7314 279.063 80.9635C279.736 81.1027 280.669 81.2767 281.865 81.4856C283.071 81.6944 283.854 81.8394 284.214 81.9207C285.154 82.1643 285.914 82.4602 286.494 82.8082C287.074 83.1447 287.532 83.5392 287.869 83.9917C288.217 84.4325 288.501 84.9953 288.721 85.6798C288.942 86.3527 289.052 87.1127 289.052 87.9596C289.052 89.4447 288.745 90.75 288.13 91.8754C287.666 92.7224 287.022 93.4997 286.198 94.2075C285.374 94.9036 284.527 95.4257 283.657 95.7738C282.265 96.3307 280.594 96.6091 278.645 96.6091C277.218 96.6091 275.947 96.4757 274.834 96.2088C273.72 95.942 272.496 95.4837 271.161 94.834C271.521 93.5113 271.707 91.4983 271.718 88.795H273.18C273.157 89.6304 273.221 90.6688 273.372 91.9102C273.813 92.6295 274.567 93.2619 275.634 93.8072C276.702 94.3525 277.868 94.6251 279.132 94.6251C280.234 94.6251 281.215 94.4337 282.073 94.0508C282.944 93.6563 283.57 93.1168 283.953 92.4323C284.347 91.7478 284.545 90.9704 284.545 90.1002C284.545 89.3693 284.405 88.7428 284.127 88.2207C283.86 87.6986 283.437 87.2809 282.857 86.9676C282.276 86.6544 281.255 86.3295 279.794 85.993C277.694 85.5522 276.313 85.2331 275.652 85.0359C274.654 84.7342 273.847 84.2991 273.232 83.7306C272.629 83.1621 272.177 82.4776 271.875 81.677C271.573 80.8648 271.422 79.9947 271.422 79.0665C271.422 77.767 271.695 76.572 272.24 75.4814C272.786 74.3792 273.505 73.5264 274.398 72.9231C275.292 72.3198 276.301 71.8905 277.427 71.6352C278.552 71.3684 279.706 71.235 280.89 71.235C282.12 71.235 283.309 71.3452 284.458 71.5656C285.618 71.7861 286.621 72.1051 287.468 72.5228L287.608 72.9405C287.445 73.6947 287.323 74.4372 287.242 75.1681C287.173 75.8875 287.12 76.8389 287.086 78.0223Z" fill="black"/>
<path d="M124.194 261.478V276.647H121.665V261.478H124.194ZM131.545 272.174C131.545 273.16 131.344 274.003 130.942 274.703C130.54 275.403 130.009 275.934 129.347 276.297C128.699 276.66 127.999 276.842 127.247 276.842C126.508 276.842 125.847 276.654 125.263 276.278C124.693 275.902 124.239 275.364 123.902 274.664C123.565 273.964 123.396 273.134 123.396 272.174C123.396 271.202 123.565 270.372 123.902 269.685C124.239 268.985 124.693 268.447 125.263 268.071C125.847 267.695 126.508 267.507 127.247 267.507C127.999 267.507 128.699 267.688 129.347 268.051C130.009 268.414 130.54 268.946 130.942 269.646C131.344 270.333 131.545 271.176 131.545 272.174ZM128.939 272.174C128.939 271.643 128.829 271.183 128.608 270.794C128.388 270.405 128.09 270.106 127.714 269.899C127.351 269.691 126.949 269.588 126.508 269.588C126.132 269.588 125.762 269.691 125.399 269.899C125.049 270.093 124.758 270.385 124.524 270.774C124.304 271.163 124.194 271.63 124.194 272.174C124.194 272.719 124.304 273.186 124.524 273.575C124.758 273.964 125.049 274.262 125.399 274.469C125.762 274.664 126.132 274.761 126.508 274.761C126.949 274.761 127.351 274.657 127.714 274.45C128.09 274.242 128.388 273.944 128.608 273.555C128.829 273.166 128.939 272.706 128.939 272.174ZM133.423 261.478H135.951V276.647H133.423V261.478ZM140.226 273.866C140.226 274.126 140.291 274.353 140.421 274.547C140.55 274.729 140.725 274.871 140.946 274.975C141.179 275.066 141.432 275.111 141.704 275.111C142.093 275.111 142.443 275.033 142.754 274.878C143.066 274.709 143.318 274.476 143.513 274.178C143.707 273.866 143.805 273.497 143.805 273.069L144.116 274.236C144.116 274.806 143.954 275.286 143.63 275.675C143.318 276.064 142.91 276.356 142.404 276.55C141.912 276.745 141.393 276.842 140.849 276.842C140.291 276.842 139.772 276.732 139.293 276.511C138.813 276.291 138.424 275.973 138.126 275.558C137.841 275.131 137.698 274.612 137.698 274.003C137.698 273.134 138.003 272.447 138.612 271.941C139.221 271.435 140.084 271.183 141.199 271.183C141.769 271.183 142.268 271.241 142.696 271.358C143.137 271.474 143.506 271.617 143.805 271.785C144.103 271.954 144.317 272.116 144.446 272.272V273.439C144.096 273.179 143.701 272.985 143.26 272.855C142.832 272.725 142.378 272.661 141.899 272.661C141.51 272.661 141.192 272.712 140.946 272.816C140.699 272.907 140.518 273.043 140.401 273.225C140.285 273.393 140.226 273.607 140.226 273.866ZM139.254 270.23L138.32 268.518C138.787 268.272 139.358 268.038 140.032 267.818C140.706 267.585 141.458 267.468 142.288 267.468C143.053 267.468 143.733 267.578 144.33 267.799C144.926 268.019 145.393 268.343 145.73 268.771C146.067 269.186 146.236 269.698 146.236 270.307V276.647H143.805V270.832C143.805 270.586 143.766 270.379 143.688 270.21C143.61 270.029 143.487 269.879 143.318 269.763C143.163 269.646 142.975 269.562 142.754 269.51C142.534 269.458 142.288 269.432 142.015 269.432C141.601 269.432 141.205 269.478 140.829 269.568C140.453 269.659 140.129 269.769 139.857 269.899C139.584 270.029 139.383 270.139 139.254 270.23ZM150.485 272.174C150.485 272.693 150.602 273.147 150.835 273.536C151.068 273.925 151.379 274.229 151.768 274.45C152.17 274.67 152.611 274.78 153.091 274.78C153.48 274.78 153.856 274.722 154.219 274.605C154.582 274.476 154.906 274.307 155.191 274.1C155.489 273.879 155.716 273.627 155.872 273.341V275.928C155.561 276.213 155.152 276.44 154.647 276.609C154.154 276.764 153.577 276.842 152.916 276.842C151.969 276.842 151.114 276.647 150.349 276.258C149.597 275.87 149 275.325 148.559 274.625C148.132 273.912 147.918 273.095 147.918 272.174C147.918 271.241 148.132 270.424 148.559 269.724C149 269.024 149.597 268.479 150.349 268.09C151.114 267.701 151.969 267.507 152.916 267.507C153.577 267.507 154.154 267.591 154.647 267.76C155.152 267.915 155.561 268.129 155.872 268.401V270.988C155.716 270.703 155.483 270.456 155.172 270.249C154.874 270.029 154.543 269.86 154.18 269.743C153.817 269.627 153.454 269.568 153.091 269.568C152.611 269.568 152.17 269.685 151.768 269.918C151.379 270.139 151.068 270.443 150.835 270.832C150.602 271.221 150.485 271.669 150.485 272.174ZM158.036 261.478H160.467V276.647H158.036V261.478ZM163.754 267.701H166.768L162.917 271.396L167.157 276.647H164.162L159.903 271.396L163.754 267.701Z" fill="black"/>
<path d="M253.042 263.423H255.57V278.593H253.042V263.423ZM245.69 274.12C245.69 273.121 245.891 272.279 246.293 271.591C246.695 270.891 247.227 270.36 247.888 269.997C248.549 269.634 249.249 269.452 249.988 269.452C250.74 269.452 251.402 269.64 251.972 270.016C252.556 270.392 253.009 270.93 253.333 271.63C253.671 272.317 253.839 273.147 253.839 274.12C253.839 275.079 253.671 275.909 253.333 276.609C253.009 277.309 252.556 277.847 251.972 278.223C251.402 278.599 250.74 278.787 249.988 278.787C249.249 278.787 248.549 278.606 247.888 278.243C247.227 277.88 246.695 277.348 246.293 276.648C245.891 275.948 245.69 275.105 245.69 274.12ZM248.296 274.12C248.296 274.651 248.407 275.112 248.627 275.501C248.847 275.889 249.146 276.188 249.522 276.395C249.898 276.603 250.3 276.706 250.727 276.706C251.103 276.706 251.466 276.609 251.817 276.415C252.18 276.207 252.471 275.909 252.692 275.52C252.925 275.131 253.042 274.664 253.042 274.12C253.042 273.575 252.925 273.108 252.692 272.719C252.471 272.33 252.18 272.039 251.817 271.844C251.466 271.637 251.103 271.533 250.727 271.533C250.3 271.533 249.898 271.637 249.522 271.844C249.146 272.052 248.847 272.35 248.627 272.739C248.407 273.128 248.296 273.588 248.296 274.12ZM262.213 278.787C261.24 278.787 260.391 278.593 259.665 278.204C258.939 277.815 258.375 277.277 257.973 276.59C257.584 275.889 257.39 275.066 257.39 274.12C257.39 273.16 257.584 272.337 257.973 271.65C258.375 270.95 258.939 270.412 259.665 270.036C260.391 269.647 261.247 269.452 262.232 269.452C263.218 269.452 264.054 269.634 264.741 269.997C265.441 270.347 265.973 270.865 266.336 271.553C266.699 272.227 266.88 273.044 266.88 274.003C266.88 274.12 266.874 274.243 266.861 274.373C266.861 274.502 266.854 274.606 266.841 274.684H258.829V273.128H264.644L263.963 274.022C264.015 273.945 264.06 273.841 264.099 273.711C264.151 273.569 264.177 273.452 264.177 273.361C264.177 272.92 264.093 272.544 263.924 272.233C263.769 271.922 263.542 271.676 263.244 271.494C262.945 271.313 262.595 271.222 262.193 271.222C261.701 271.222 261.286 271.332 260.949 271.553C260.625 271.76 260.372 272.078 260.19 272.505C260.022 272.92 259.931 273.439 259.918 274.061C259.918 274.658 260.002 275.163 260.171 275.578C260.352 275.993 260.618 276.311 260.968 276.531C261.318 276.752 261.74 276.862 262.232 276.862C262.79 276.862 263.263 276.758 263.652 276.551C264.054 276.33 264.385 276.006 264.644 275.578L266.841 276.259C266.375 277.102 265.752 277.737 264.974 278.165C264.209 278.58 263.289 278.787 262.213 278.787ZM274.556 273.147C274.556 272.551 274.44 272.097 274.206 271.786C273.973 271.475 273.597 271.319 273.078 271.319C272.728 271.319 272.417 271.397 272.145 271.553C271.872 271.695 271.665 271.903 271.522 272.175C271.38 272.447 271.308 272.771 271.308 273.147V278.593H268.78V269.647H271.308V271.008C271.581 270.502 271.937 270.12 272.378 269.861C272.832 269.588 273.376 269.452 274.012 269.452C275.075 269.452 275.866 269.757 276.384 270.366C276.903 270.963 277.162 271.799 277.162 272.875V278.593H274.556V273.147ZM279.527 266.185C279.527 265.77 279.676 265.433 279.974 265.174C280.273 264.901 280.629 264.765 281.044 264.765C281.459 264.765 281.809 264.901 282.094 265.174C282.393 265.433 282.542 265.77 282.542 266.185C282.542 266.587 282.393 266.924 282.094 267.196C281.809 267.468 281.459 267.605 281.044 267.605C280.629 267.605 280.273 267.468 279.974 267.196C279.676 266.924 279.527 266.587 279.527 266.185ZM279.799 269.647H282.25V278.593H279.799V269.647ZM298.148 272.875V278.593H295.62V273.147C295.62 272.538 295.517 272.084 295.309 271.786C295.102 271.475 294.765 271.319 294.298 271.319C293.987 271.319 293.714 271.39 293.481 271.533C293.248 271.663 293.066 271.87 292.936 272.155C292.807 272.428 292.742 272.758 292.742 273.147V278.593H290.233V273.147C290.233 272.538 290.129 272.084 289.922 271.786C289.714 271.475 289.377 271.319 288.911 271.319C288.599 271.319 288.327 271.39 288.094 271.533C287.86 271.663 287.679 271.87 287.549 272.155C287.42 272.428 287.355 272.758 287.355 273.147V278.593H284.924V269.647H287.355V270.969C287.614 270.476 287.958 270.1 288.385 269.841C288.813 269.582 289.325 269.452 289.922 269.452C290.583 269.452 291.128 269.582 291.556 269.841C291.983 270.1 292.295 270.483 292.489 270.989C292.813 270.483 293.209 270.1 293.675 269.841C294.155 269.582 294.7 269.452 295.309 269.452C295.97 269.452 296.508 269.588 296.923 269.861C297.338 270.12 297.643 270.509 297.837 271.027C298.045 271.533 298.148 272.149 298.148 272.875Z" fill="black"/>
<path d="M377.05 269.647H379.734L381.698 274.606L384.227 268.966L386.852 274.625L388.836 269.647H391.5L387.124 279.196L384.246 273.497L381.446 279.196L377.05 269.647ZM395.221 263.423V278.593H392.693V263.423H395.221ZM398.469 273.147C398.469 272.551 398.352 272.097 398.119 271.786C397.899 271.475 397.523 271.319 396.991 271.319C396.641 271.319 396.33 271.397 396.058 271.553C395.785 271.695 395.578 271.903 395.435 272.175C395.293 272.447 395.221 272.771 395.221 273.147H394.716C394.716 272.434 394.832 271.792 395.066 271.222C395.312 270.651 395.675 270.198 396.155 269.861C396.635 269.523 397.224 269.355 397.925 269.355C398.625 269.355 399.202 269.485 399.656 269.744C400.109 270.003 400.446 270.392 400.667 270.911C400.887 271.416 400.997 272.039 400.997 272.778V278.593H398.469V273.147ZM403.364 266.185C403.364 265.77 403.513 265.433 403.811 265.174C404.11 264.901 404.466 264.765 404.881 264.765C405.296 264.765 405.646 264.901 405.931 265.174C406.229 265.433 406.379 265.77 406.379 266.185C406.379 266.587 406.229 266.924 405.931 267.196C405.646 267.468 405.296 267.605 404.881 267.605C404.466 267.605 404.11 267.468 403.811 267.196C403.513 266.924 403.364 266.587 403.364 266.185ZM403.636 269.647H406.087V278.593H403.636V269.647ZM407.613 269.647H413.136V271.766H407.613V269.647ZM409.15 266.535H411.581V278.593H409.15V266.535ZM418.698 278.787C417.725 278.787 416.876 278.593 416.15 278.204C415.424 277.815 414.86 277.277 414.458 276.59C414.069 275.889 413.874 275.066 413.874 274.12C413.874 273.16 414.069 272.337 414.458 271.65C414.86 270.95 415.424 270.412 416.15 270.036C416.876 269.647 417.732 269.452 418.717 269.452C419.702 269.452 420.539 269.634 421.226 269.997C421.926 270.347 422.458 270.865 422.821 271.553C423.184 272.227 423.365 273.044 423.365 274.003C423.365 274.12 423.359 274.243 423.346 274.373C423.346 274.502 423.339 274.606 423.326 274.684H415.314V273.128H421.129L420.448 274.022C420.5 273.945 420.545 273.841 420.584 273.711C420.636 273.569 420.662 273.452 420.662 273.361C420.662 272.92 420.578 272.544 420.409 272.233C420.253 271.922 420.027 271.676 419.728 271.494C419.43 271.313 419.08 271.222 418.678 271.222C418.185 271.222 417.771 271.332 417.433 271.553C417.109 271.76 416.856 272.078 416.675 272.505C416.506 272.92 416.416 273.439 416.403 274.061C416.403 274.658 416.487 275.163 416.656 275.578C416.837 275.993 417.103 276.311 417.453 276.531C417.803 276.752 418.224 276.862 418.717 276.862C419.275 276.862 419.748 276.758 420.137 276.551C420.539 276.33 420.869 276.006 421.129 275.578L423.326 276.259C422.859 277.102 422.237 277.737 421.459 278.165C420.694 278.58 419.774 278.787 418.698 278.787Z" fill="black"/>
<path d="M100.202 449.154C100.202 449.672 100.319 450.126 100.552 450.515C100.786 450.904 101.097 451.209 101.486 451.429C101.888 451.65 102.329 451.76 102.808 451.76C103.197 451.76 103.573 451.702 103.936 451.585C104.299 451.455 104.623 451.287 104.909 451.079C105.207 450.859 105.434 450.606 105.589 450.321V452.907C105.278 453.193 104.87 453.42 104.364 453.588C103.872 453.744 103.295 453.821 102.633 453.821C101.687 453.821 100.831 453.627 100.066 453.238C99.3141 452.849 98.7177 452.304 98.2769 451.604C97.849 450.891 97.6351 450.074 97.6351 449.154C97.6351 448.22 97.849 447.404 98.2769 446.703C98.7177 446.003 99.3141 445.459 100.066 445.07C100.831 444.681 101.687 444.486 102.633 444.486C103.295 444.486 103.872 444.571 104.364 444.739C104.87 444.895 105.278 445.109 105.589 445.381V447.968C105.434 447.682 105.2 447.436 104.889 447.228C104.591 447.008 104.26 446.84 103.897 446.723C103.534 446.606 103.171 446.548 102.808 446.548C102.329 446.548 101.888 446.664 101.486 446.898C101.097 447.118 100.786 447.423 100.552 447.812C100.319 448.201 100.202 448.648 100.202 449.154ZM110.34 438.457V453.627H107.812V438.457H110.34ZM113.588 448.181C113.588 447.585 113.471 447.131 113.238 446.82C113.017 446.509 112.641 446.353 112.11 446.353C111.76 446.353 111.448 446.431 111.176 446.587C110.904 446.729 110.696 446.937 110.554 447.209C110.411 447.481 110.34 447.805 110.34 448.181H109.834C109.834 447.468 109.951 446.827 110.184 446.256C110.431 445.686 110.794 445.232 111.273 444.895C111.753 444.558 112.343 444.389 113.043 444.389C113.743 444.389 114.32 444.519 114.774 444.778C115.228 445.037 115.565 445.426 115.785 445.945C116.006 446.451 116.116 447.073 116.116 447.812V453.627H113.588V448.181ZM117.996 449.154C117.996 448.22 118.21 447.404 118.638 446.703C119.079 446.003 119.669 445.459 120.408 445.07C121.16 444.681 122.009 444.486 122.956 444.486C123.902 444.486 124.745 444.681 125.484 445.07C126.236 445.459 126.826 446.003 127.254 446.703C127.694 447.404 127.915 448.22 127.915 449.154C127.915 450.074 127.694 450.891 127.254 451.604C126.826 452.304 126.236 452.849 125.484 453.238C124.745 453.627 123.902 453.821 122.956 453.821C122.009 453.821 121.16 453.627 120.408 453.238C119.669 452.849 119.079 452.304 118.638 451.604C118.21 450.891 117.996 450.074 117.996 449.154ZM120.563 449.154C120.563 449.66 120.667 450.107 120.875 450.496C121.095 450.872 121.387 451.17 121.75 451.39C122.113 451.598 122.515 451.702 122.956 451.702C123.396 451.702 123.798 451.598 124.161 451.39C124.524 451.17 124.81 450.872 125.017 450.496C125.238 450.107 125.348 449.66 125.348 449.154C125.348 448.648 125.238 448.201 125.017 447.812C124.81 447.423 124.524 447.125 124.161 446.917C123.798 446.71 123.396 446.606 122.956 446.606C122.515 446.606 122.113 446.71 121.75 446.917C121.387 447.125 121.095 447.423 120.875 447.812C120.667 448.201 120.563 448.648 120.563 449.154ZM131.711 449.154C131.711 449.672 131.827 450.126 132.061 450.515C132.294 450.904 132.605 451.209 132.994 451.429C133.396 451.65 133.837 451.76 134.317 451.76C134.706 451.76 135.082 451.702 135.445 451.585C135.808 451.455 136.132 451.287 136.417 451.079C136.715 450.859 136.942 450.606 137.098 450.321V452.907C136.787 453.193 136.378 453.42 135.873 453.588C135.38 453.744 134.803 453.821 134.142 453.821C133.195 453.821 132.339 453.627 131.574 453.238C130.822 452.849 130.226 452.304 129.785 451.604C129.357 450.891 129.143 450.074 129.143 449.154C129.143 448.22 129.357 447.404 129.785 446.703C130.226 446.003 130.822 445.459 131.574 445.07C132.339 444.681 133.195 444.486 134.142 444.486C134.803 444.486 135.38 444.571 135.873 444.739C136.378 444.895 136.787 445.109 137.098 445.381V447.968C136.942 447.682 136.709 447.436 136.398 447.228C136.099 447.008 135.769 446.84 135.406 446.723C135.043 446.606 134.68 446.548 134.317 446.548C133.837 446.548 133.396 446.664 132.994 446.898C132.605 447.118 132.294 447.423 132.061 447.812C131.827 448.201 131.711 448.648 131.711 449.154ZM138.717 449.154C138.717 448.22 138.931 447.404 139.359 446.703C139.8 446.003 140.39 445.459 141.129 445.07C141.881 444.681 142.73 444.486 143.676 444.486C144.623 444.486 145.466 444.681 146.205 445.07C146.957 445.459 147.546 446.003 147.974 446.703C148.415 447.404 148.636 448.22 148.636 449.154C148.636 450.074 148.415 450.891 147.974 451.604C147.546 452.304 146.957 452.849 146.205 453.238C145.466 453.627 144.623 453.821 143.676 453.821C142.73 453.821 141.881 453.627 141.129 453.238C140.39 452.849 139.8 452.304 139.359 451.604C138.931 450.891 138.717 450.074 138.717 449.154ZM141.284 449.154C141.284 449.66 141.388 450.107 141.595 450.496C141.816 450.872 142.107 451.17 142.47 451.39C142.834 451.598 143.235 451.702 143.676 451.702C144.117 451.702 144.519 451.598 144.882 451.39C145.245 451.17 145.53 450.872 145.738 450.496C145.958 450.107 146.068 449.66 146.068 449.154C146.068 448.648 145.958 448.201 145.738 447.812C145.53 447.423 145.245 447.125 144.882 446.917C144.519 446.71 144.117 446.606 143.676 446.606C143.235 446.606 142.834 446.71 142.47 446.917C142.107 447.125 141.816 447.423 141.595 447.812C141.388 448.201 141.284 448.648 141.284 449.154ZM150.525 438.457H153.054V453.627H150.525V438.457ZM157.329 450.846C157.329 451.105 157.393 451.332 157.523 451.527C157.653 451.708 157.828 451.851 158.048 451.954C158.282 452.045 158.534 452.091 158.807 452.091C159.196 452.091 159.546 452.013 159.857 451.857C160.168 451.689 160.421 451.455 160.615 451.157C160.81 450.846 160.907 450.476 160.907 450.048L161.218 451.215C161.218 451.786 161.056 452.266 160.732 452.655C160.421 453.044 160.012 453.335 159.507 453.53C159.014 453.724 158.496 453.821 157.951 453.821C157.393 453.821 156.875 453.711 156.395 453.491C155.915 453.27 155.526 452.953 155.228 452.538C154.943 452.11 154.8 451.591 154.8 450.982C154.8 450.113 155.105 449.426 155.714 448.92C156.324 448.415 157.186 448.162 158.301 448.162C158.872 448.162 159.371 448.22 159.799 448.337C160.239 448.454 160.609 448.596 160.907 448.765C161.205 448.933 161.419 449.096 161.549 449.251V450.418C161.199 450.159 160.803 449.964 160.363 449.835C159.935 449.705 159.481 449.64 159.001 449.64C158.612 449.64 158.295 449.692 158.048 449.796C157.802 449.886 157.62 450.023 157.504 450.204C157.387 450.373 157.329 450.587 157.329 450.846ZM156.356 447.209L155.423 445.498C155.889 445.251 156.46 445.018 157.134 444.797C157.808 444.564 158.56 444.447 159.39 444.447C160.155 444.447 160.836 444.558 161.432 444.778C162.029 444.998 162.495 445.323 162.832 445.75C163.17 446.165 163.338 446.677 163.338 447.287V453.627H160.907V447.812C160.907 447.566 160.868 447.358 160.79 447.19C160.713 447.008 160.589 446.859 160.421 446.742C160.265 446.626 160.077 446.541 159.857 446.489C159.636 446.438 159.39 446.412 159.118 446.412C158.703 446.412 158.308 446.457 157.932 446.548C157.556 446.639 157.231 446.749 156.959 446.878C156.687 447.008 156.486 447.118 156.356 447.209ZM164.534 444.681H170.057V446.801H164.534V444.681ZM166.07 441.569H168.501V453.627H166.07V441.569ZM175.618 453.821C174.646 453.821 173.797 453.627 173.071 453.238C172.344 452.849 171.781 452.311 171.379 451.624C170.99 450.924 170.795 450.1 170.795 449.154C170.795 448.194 170.99 447.371 171.379 446.684C171.781 445.984 172.344 445.446 173.071 445.07C173.797 444.681 174.652 444.486 175.638 444.486C176.623 444.486 177.459 444.668 178.147 445.031C178.847 445.381 179.378 445.9 179.741 446.587C180.104 447.261 180.286 448.078 180.286 449.037C180.286 449.154 180.279 449.277 180.266 449.407C180.266 449.536 180.26 449.64 180.247 449.718H172.234V448.162H178.049L177.369 449.057C177.42 448.979 177.466 448.875 177.505 448.745C177.557 448.603 177.583 448.486 177.583 448.395C177.583 447.955 177.498 447.579 177.33 447.267C177.174 446.956 176.947 446.71 176.649 446.528C176.351 446.347 176.001 446.256 175.599 446.256C175.106 446.256 174.691 446.366 174.354 446.587C174.03 446.794 173.777 447.112 173.596 447.54C173.427 447.955 173.336 448.473 173.323 449.096C173.323 449.692 173.408 450.198 173.576 450.612C173.758 451.027 174.024 451.345 174.374 451.565C174.724 451.786 175.145 451.896 175.638 451.896C176.195 451.896 176.668 451.792 177.057 451.585C177.459 451.364 177.79 451.04 178.049 450.612L180.247 451.293C179.78 452.136 179.158 452.771 178.38 453.199C177.615 453.614 176.694 453.821 175.618 453.821Z" fill="black"/>
<path d="M254.091 446.625H259.614V448.745H254.091V446.625ZM255.627 443.513H258.058V455.571H255.627V443.513ZM262.744 452.79C262.744 453.05 262.809 453.276 262.939 453.471C263.069 453.652 263.244 453.795 263.464 453.899C263.697 453.99 263.95 454.035 264.222 454.035C264.611 454.035 264.961 453.957 265.273 453.802C265.584 453.633 265.837 453.4 266.031 453.101C266.226 452.79 266.323 452.421 266.323 451.993L266.634 453.16C266.634 453.73 266.472 454.21 266.148 454.599C265.837 454.988 265.428 455.28 264.923 455.474C264.43 455.669 263.911 455.766 263.367 455.766C262.809 455.766 262.291 455.656 261.811 455.435C261.331 455.215 260.942 454.897 260.644 454.482C260.359 454.054 260.216 453.536 260.216 452.926C260.216 452.058 260.521 451.37 261.13 450.865C261.74 450.359 262.602 450.106 263.717 450.106C264.287 450.106 264.786 450.165 265.214 450.281C265.655 450.398 266.025 450.541 266.323 450.709C266.621 450.878 266.835 451.04 266.965 451.195V452.362C266.615 452.103 266.219 451.909 265.778 451.779C265.35 451.649 264.897 451.584 264.417 451.584C264.028 451.584 263.71 451.636 263.464 451.74C263.218 451.831 263.036 451.967 262.919 452.148C262.803 452.317 262.744 452.531 262.744 452.79ZM261.772 449.153L260.838 447.442C261.305 447.196 261.876 446.962 262.55 446.742C263.224 446.508 263.976 446.392 264.806 446.392C265.571 446.392 266.252 446.502 266.848 446.722C267.444 446.943 267.911 447.267 268.248 447.695C268.585 448.11 268.754 448.622 268.754 449.231V455.571H266.323V449.756C266.323 449.51 266.284 449.302 266.206 449.134C266.128 448.952 266.005 448.803 265.837 448.687C265.681 448.57 265.493 448.486 265.273 448.434C265.052 448.382 264.806 448.356 264.534 448.356C264.119 448.356 263.723 448.401 263.347 448.492C262.971 448.583 262.647 448.693 262.375 448.823C262.103 448.952 261.902 449.063 261.772 449.153ZM276.873 450.126C276.873 449.529 276.757 449.076 276.523 448.764C276.29 448.453 275.914 448.298 275.395 448.298C275.045 448.298 274.734 448.375 274.462 448.531C274.189 448.674 273.982 448.881 273.839 449.153C273.697 449.426 273.625 449.75 273.625 450.126V455.571H271.097V446.625H273.625V447.986C273.898 447.481 274.254 447.098 274.695 446.839C275.149 446.567 275.693 446.431 276.329 446.431C277.392 446.431 278.183 446.735 278.701 447.345C279.22 447.941 279.479 448.777 279.479 449.854V455.571H276.873V450.126Z" fill="black"/>
<path d="M372.14 451.098C372.14 451.617 372.257 452.071 372.49 452.46C372.724 452.849 373.035 453.153 373.424 453.374C373.826 453.594 374.267 453.704 374.746 453.704C375.135 453.704 375.511 453.646 375.874 453.529C376.237 453.4 376.561 453.231 376.847 453.024C377.145 452.803 377.372 452.55 377.527 452.265V454.852C377.216 455.137 376.808 455.364 376.302 455.532C375.809 455.688 375.233 455.766 374.571 455.766C373.625 455.766 372.769 455.571 372.004 455.182C371.252 454.793 370.656 454.249 370.215 453.549C369.787 452.836 369.573 452.019 369.573 451.098C369.573 450.165 369.787 449.348 370.215 448.648C370.656 447.948 371.252 447.403 372.004 447.014C372.769 446.625 373.625 446.431 374.571 446.431C375.233 446.431 375.809 446.515 376.302 446.683C376.808 446.839 377.216 447.053 377.527 447.325V449.912C377.372 449.627 377.138 449.38 376.827 449.173C376.529 448.952 376.198 448.784 375.835 448.667C375.472 448.55 375.109 448.492 374.746 448.492C374.267 448.492 373.826 448.609 373.424 448.842C373.035 449.063 372.724 449.367 372.49 449.756C372.257 450.145 372.14 450.593 372.14 451.098ZM382.219 446.625V455.571H379.75V446.625H382.219ZM384.845 449.251C384.676 449.095 384.501 448.978 384.32 448.901C384.151 448.81 383.937 448.764 383.678 448.764C383.367 448.764 383.101 448.849 382.881 449.017C382.66 449.186 382.492 449.426 382.375 449.737C382.271 450.035 382.219 450.398 382.219 450.826L381.519 450.126C381.519 449.413 381.655 448.784 381.928 448.239C382.2 447.682 382.557 447.241 382.997 446.917C383.438 446.58 383.892 446.411 384.359 446.411C384.683 446.411 384.988 446.47 385.273 446.586C385.571 446.703 385.811 446.878 385.992 447.111L384.845 449.251ZM391.263 455.766C390.29 455.766 389.441 455.571 388.715 455.182C387.989 454.793 387.425 454.255 387.023 453.568C386.634 452.868 386.44 452.045 386.44 451.098C386.44 450.139 386.634 449.315 387.023 448.628C387.425 447.928 387.989 447.39 388.715 447.014C389.441 446.625 390.297 446.431 391.282 446.431C392.268 446.431 393.104 446.612 393.791 446.975C394.491 447.325 395.023 447.844 395.386 448.531C395.749 449.205 395.93 450.022 395.93 450.982C395.93 451.098 395.924 451.221 395.911 451.351C395.911 451.481 395.905 451.584 395.892 451.662H387.879V450.106H393.694L393.013 451.001C393.065 450.923 393.11 450.819 393.149 450.69C393.201 450.547 393.227 450.43 393.227 450.34C393.227 449.899 393.143 449.523 392.974 449.212C392.819 448.901 392.592 448.654 392.294 448.473C391.995 448.291 391.645 448.2 391.243 448.2C390.751 448.2 390.336 448.311 389.999 448.531C389.675 448.738 389.422 449.056 389.24 449.484C389.072 449.899 388.981 450.418 388.968 451.04C388.968 451.636 389.052 452.142 389.221 452.557C389.402 452.972 389.668 453.289 390.018 453.51C390.368 453.73 390.79 453.84 391.282 453.84C391.84 453.84 392.313 453.737 392.702 453.529C393.104 453.309 393.435 452.985 393.694 452.557L395.892 453.238C395.425 454.08 394.802 454.716 394.025 455.143C393.26 455.558 392.339 455.766 391.263 455.766ZM399.62 452.79C399.62 453.05 399.684 453.276 399.814 453.471C399.944 453.652 400.119 453.795 400.339 453.899C400.572 453.99 400.825 454.035 401.098 454.035C401.487 454.035 401.837 453.957 402.148 453.802C402.459 453.633 402.712 453.4 402.906 453.101C403.101 452.79 403.198 452.421 403.198 451.993L403.509 453.16C403.509 453.73 403.347 454.21 403.023 454.599C402.712 454.988 402.303 455.28 401.798 455.474C401.305 455.669 400.786 455.766 400.242 455.766C399.684 455.766 399.166 455.656 398.686 455.435C398.206 455.215 397.817 454.897 397.519 454.482C397.234 454.054 397.091 453.536 397.091 452.926C397.091 452.058 397.396 451.37 398.005 450.865C398.615 450.359 399.477 450.106 400.592 450.106C401.162 450.106 401.662 450.165 402.089 450.281C402.53 450.398 402.9 450.541 403.198 450.709C403.496 450.878 403.71 451.04 403.84 451.195V452.362C403.49 452.103 403.094 451.909 402.653 451.779C402.226 451.649 401.772 451.584 401.292 451.584C400.903 451.584 400.585 451.636 400.339 451.74C400.093 451.831 399.911 451.967 399.795 452.148C399.678 452.317 399.62 452.531 399.62 452.79ZM398.647 449.153L397.714 447.442C398.18 447.196 398.751 446.962 399.425 446.742C400.099 446.508 400.851 446.392 401.681 446.392C402.446 446.392 403.127 446.502 403.723 446.722C404.319 446.943 404.786 447.267 405.123 447.695C405.46 448.11 405.629 448.622 405.629 449.231V455.571H403.198V449.756C403.198 449.51 403.159 449.302 403.081 449.134C403.003 448.952 402.88 448.803 402.712 448.687C402.556 448.57 402.368 448.486 402.148 448.434C401.927 448.382 401.681 448.356 401.409 448.356C400.994 448.356 400.598 448.401 400.222 448.492C399.846 448.583 399.522 448.693 399.25 448.823C398.978 448.952 398.777 449.063 398.647 449.153ZM421.197 449.854V455.571H418.669V450.126C418.669 449.516 418.565 449.063 418.358 448.764C418.15 448.453 417.813 448.298 417.346 448.298C417.035 448.298 416.763 448.369 416.529 448.512C416.296 448.641 416.115 448.849 415.985 449.134C415.855 449.406 415.79 449.737 415.79 450.126V455.571H413.282V450.126C413.282 449.516 413.178 449.063 412.97 448.764C412.763 448.453 412.426 448.298 411.959 448.298C411.648 448.298 411.376 448.369 411.142 448.512C410.909 448.641 410.727 448.849 410.598 449.134C410.468 449.406 410.403 449.737 410.403 450.126V455.571H407.972V446.625H410.403V447.948C410.663 447.455 411.006 447.079 411.434 446.82C411.862 446.56 412.374 446.431 412.97 446.431C413.632 446.431 414.176 446.56 414.604 446.82C415.032 447.079 415.343 447.461 415.538 447.967C415.862 447.461 416.257 447.079 416.724 446.82C417.204 446.56 417.748 446.431 418.358 446.431C419.019 446.431 419.557 446.567 419.972 446.839C420.387 447.098 420.691 447.487 420.886 448.006C421.093 448.512 421.197 449.127 421.197 449.854Z" fill="black"/>
<rect x="689.572" y="329.551" width="105.878" height="95.5749" fill="#CC3F2D"/>
<rect x="561.214" y="329.551" width="105.878" height="95.5749" fill="#B80A23"/>
<path d="M586.29 93.6342L585.49 95.3919C584.04 96.1577 582.734 96.6798 581.574 96.9582C580.425 97.2483 578.987 97.3933 577.258 97.3933C574.798 97.3933 572.623 97.0046 570.732 96.2273C569.247 95.6007 567.988 94.7712 566.955 93.7386C565.923 92.706 565.128 91.5864 564.571 90.3797C563.724 88.5582 563.3 86.58 563.3 84.4452C563.3 80.7905 564.548 77.8087 567.042 75.4998C569.548 73.1794 573.081 72.0192 577.641 72.0192C579.207 72.0192 580.611 72.1352 581.852 72.3672C583.106 72.5993 584.556 73.0111 586.203 73.6029L586.29 73.8291C586.105 74.3744 585.96 75.0589 585.855 75.8827C585.681 77.1938 585.571 78.4062 585.525 79.52H584.167C584.144 78.2438 584.086 77.2228 583.993 76.457C583.216 75.6449 582.34 75.0415 581.365 74.6471C580.402 74.241 579.167 74.0379 577.658 74.0379C574.932 74.0379 572.751 74.9023 571.115 76.631C569.479 78.3482 568.661 80.7499 568.661 83.8361C568.661 85.704 568.933 87.3341 569.479 88.7264C570.036 90.1187 570.772 91.2731 571.689 92.1897C572.605 93.0947 573.528 93.756 574.456 94.1737C575.721 94.7306 577.252 95.009 579.051 95.009C580.234 95.009 581.354 94.8756 582.409 94.6088C583.465 94.3419 584.614 93.8836 585.855 93.2339L586.29 93.6342ZM589.092 84.8977C589.092 82.7744 589.411 80.9239 590.049 79.346C590.699 77.7681 591.622 76.428 592.817 75.3258C594.012 74.2236 595.311 73.4288 596.715 72.9415C598.513 72.3266 600.474 72.0192 602.597 72.0192C604.709 72.0192 606.623 72.315 608.34 72.9067C609.617 73.3592 610.742 74.0147 611.717 74.8733C612.703 75.7203 613.451 76.5904 613.962 77.4838C614.472 78.3772 614.855 79.3576 615.11 80.425C615.377 81.4924 615.511 82.67 615.511 83.9579C615.511 86.1391 615.134 88.1637 614.379 90.0317C613.823 91.4239 613.005 92.6596 611.926 93.7386C610.858 94.8176 609.64 95.6472 608.271 96.2273C606.391 97.0046 604.245 97.3933 601.832 97.3933C599.221 97.3933 596.976 96.9234 595.096 95.9836C593.229 95.0322 591.761 93.6342 590.693 91.7894C589.626 89.9446 589.092 87.6474 589.092 84.8977ZM594.453 83.8709C594.453 86.5742 594.824 88.8134 595.566 90.5886C596.309 92.3521 597.26 93.5994 598.421 94.3303C599.581 95.0612 600.95 95.4267 602.528 95.4267C603.99 95.4267 605.295 95.0786 606.443 94.3825C607.604 93.6864 608.509 92.5087 609.158 90.8496C609.82 89.1905 610.15 87.1775 610.15 84.8106C610.15 83.1863 609.971 81.7012 609.611 80.3554C609.263 79.0095 608.758 77.8667 608.097 76.9269C607.435 75.9755 606.652 75.2504 605.747 74.7515C604.854 74.2526 603.665 74.0031 602.18 74.0031C600.486 74.0031 599.041 74.4034 597.846 75.204C596.663 75.9929 595.798 77.1648 595.253 78.7195C594.719 80.2742 594.453 81.9913 594.453 83.8709ZM618.156 96.7842V95.3049C619.467 95.2121 620.244 95.1193 620.488 95.0264C620.627 94.98 620.737 94.8988 620.819 94.7828C620.923 94.632 620.993 94.4115 621.028 94.1215C621.109 93.4601 621.178 92.0156 621.236 89.788C621.271 88.709 621.289 86.8526 621.289 84.2189C621.289 81.8637 621.271 79.7811 621.236 77.9711C621.202 76.1496 621.126 75.0647 621.01 74.7167C620.964 74.5542 620.888 74.4324 620.784 74.3512C620.691 74.2584 620.505 74.1888 620.227 74.1424C619.461 74.0147 618.771 73.9393 618.156 73.9161V72.4368C620.546 72.5064 622.194 72.5413 623.099 72.5413C624.294 72.5413 625.494 72.5064 626.701 72.4368L628.233 75.8827L629.451 78.4932L634.985 89.9098C636.168 87.6242 637.056 85.849 637.648 84.5844L639.945 79.7637C641.221 77.0719 641.999 75.4186 642.277 74.8037C642.567 74.1772 642.892 73.3882 643.252 72.4368C644.772 72.518 645.746 72.5587 646.175 72.5587L651.362 72.4368V73.9161H651.118C649.946 73.9045 649.204 74.0437 648.89 74.3338C648.577 74.6123 648.42 75.1576 648.42 75.9697C648.42 76.9327 648.415 77.6637 648.403 78.1625L648.316 83.0529V89.1615C648.316 90.6466 648.322 91.5168 648.333 91.772C648.426 93.2455 648.507 94.1505 648.577 94.4869C648.612 94.6494 648.676 94.7828 648.769 94.8872C648.861 94.98 648.995 95.0554 649.169 95.1135C649.343 95.1599 650.074 95.2237 651.362 95.3049V96.7842L645.81 96.6798L640.38 96.7842V95.3049C641.819 95.2585 642.637 95.1773 642.834 95.0612C643.043 94.9336 643.188 94.6552 643.269 94.2259C643.362 93.7966 643.408 92.3579 643.408 89.9098V77.2402L639.371 85.4024L637.439 89.4574C636.928 90.5248 636.209 92.0737 635.281 94.1041C634.712 95.3339 634.266 96.3259 633.941 97.08H632.757C632.34 96.1054 631.736 94.7712 630.947 93.0773C629.602 90.1767 628.581 88.0129 627.884 86.5858L623.307 77.2402V85.7852C623.307 87.2123 623.325 88.912 623.36 90.8844C623.406 92.8452 623.452 93.959 623.499 94.2259C623.545 94.4811 623.615 94.6668 623.708 94.7828C623.812 94.8988 623.986 94.9974 624.23 95.0786C624.485 95.1599 625.199 95.2353 626.37 95.3049V96.7842C625.071 96.7146 623.742 96.6798 622.385 96.6798C620.61 96.6798 619.2 96.7146 618.156 96.7842ZM653.659 73.8813V72.4368L658.81 72.5587L666.59 72.402C668.11 72.402 669.31 72.5587 670.192 72.8719C671.074 73.1852 671.828 73.7537 672.455 74.5774C673.093 75.4012 673.412 76.4686 673.412 77.7797C673.412 79.0907 673.104 80.309 672.489 81.4344C671.886 82.5598 670.935 83.488 669.635 84.2189C668.347 84.9383 666.967 85.2979 665.493 85.2979C665.122 85.2979 664.756 85.2805 664.397 85.2457C664.049 85.1993 663.701 85.1355 663.353 85.0543C663.237 84.7294 663.028 84.3175 662.726 83.8187L663.092 83.4358C663.347 83.517 663.585 83.5808 663.805 83.6272C664.037 83.662 664.246 83.6794 664.432 83.6794C665.557 83.6794 666.485 83.2849 667.216 82.496C667.947 81.6954 668.313 80.5352 668.313 79.0153C668.313 77.4258 667.93 76.2308 667.164 75.4302C666.398 74.6297 665.331 74.2294 663.962 74.2294C663.312 74.2294 662.587 74.3048 661.786 74.4556C661.728 75.175 661.693 76.2308 661.682 77.623L661.63 81.0341V87.63C661.63 89.2543 661.653 90.9366 661.699 92.677C661.734 93.6864 661.798 94.3245 661.891 94.5914C661.937 94.7074 662.013 94.8118 662.117 94.9046C662.233 94.9858 662.436 95.0496 662.726 95.0961L665.076 95.2527V96.7842C662.105 96.7146 659.872 96.6798 658.375 96.6798C656.728 96.6798 655.156 96.7146 653.659 96.7842V95.2527C654.947 95.2295 655.759 95.1309 656.095 94.9568C656.2 94.8988 656.281 94.8118 656.339 94.6958C656.42 94.5333 656.484 94.1099 656.53 93.4253C656.658 91.569 656.722 89.5038 656.722 87.2297V81.0863L656.652 77.8145C656.629 76.4106 656.6 75.5346 656.565 75.1866C656.542 74.8385 656.49 74.5891 656.409 74.4382C656.362 74.3454 656.281 74.2642 656.165 74.1946C656.061 74.125 655.863 74.0611 655.573 74.0031L653.659 73.8813Z" fill="black"/>
<path d="M593.352 272.732H596.035L598 277.691L600.528 272.051L603.154 277.71L605.137 272.732H607.802L603.426 282.281L600.547 276.582L597.747 282.281L593.352 272.732ZM608.878 269.27C608.878 268.855 609.027 268.518 609.325 268.258C609.623 267.986 609.98 267.85 610.395 267.85C610.81 267.85 611.16 267.986 611.445 268.258C611.743 268.518 611.892 268.855 611.892 269.27C611.892 269.672 611.743 270.009 611.445 270.281C611.16 270.553 610.81 270.69 610.395 270.69C609.98 270.69 609.623 270.553 609.325 270.281C609.027 270.009 608.878 269.672 608.878 269.27ZM609.15 272.732H611.6V281.678H609.15V272.732ZM620.05 276.232C620.05 275.636 619.934 275.182 619.7 274.871C619.467 274.56 619.091 274.404 618.572 274.404C618.222 274.404 617.911 274.482 617.639 274.637C617.367 274.78 617.159 274.988 617.016 275.26C616.874 275.532 616.803 275.856 616.803 276.232V281.678H614.274V272.732H616.803V274.093C617.075 273.587 617.431 273.205 617.872 272.945C618.326 272.673 618.871 272.537 619.506 272.537C620.569 272.537 621.36 272.842 621.878 273.451C622.397 274.048 622.656 274.884 622.656 275.96V281.678H620.05V276.232ZM629.358 281.872C628.386 281.872 627.537 281.678 626.81 281.289C626.084 280.9 625.52 280.362 625.118 279.675C624.729 278.974 624.535 278.151 624.535 277.205C624.535 276.245 624.729 275.422 625.118 274.735C625.52 274.035 626.084 273.497 626.81 273.121C627.537 272.732 628.392 272.537 629.378 272.537C630.363 272.537 631.199 272.719 631.886 273.082C632.587 273.432 633.118 273.95 633.481 274.637C633.844 275.312 634.026 276.129 634.026 277.088C634.026 277.205 634.019 277.328 634.006 277.457C634.006 277.587 634 277.691 633.987 277.769H625.974V276.213H631.789L631.108 277.107C631.16 277.03 631.206 276.926 631.245 276.796C631.296 276.654 631.322 276.537 631.322 276.446C631.322 276.005 631.238 275.629 631.07 275.318C630.914 275.007 630.687 274.761 630.389 274.579C630.091 274.398 629.741 274.307 629.339 274.307C628.846 274.307 628.431 274.417 628.094 274.637C627.77 274.845 627.517 275.163 627.336 275.59C627.167 276.005 627.076 276.524 627.063 277.146C627.063 277.743 627.148 278.248 627.316 278.663C627.498 279.078 627.763 279.396 628.113 279.616C628.464 279.837 628.885 279.947 629.378 279.947C629.935 279.947 630.408 279.843 630.797 279.636C631.199 279.415 631.53 279.091 631.789 278.663L633.987 279.344C633.52 280.187 632.898 280.822 632.12 281.25C631.355 281.665 630.434 281.872 629.358 281.872Z" fill="black"/>
<path d="M724.486 285.956H721.958V272.732H724.486V285.956ZM731.838 277.205C731.838 278.216 731.637 279.078 731.235 279.791C730.833 280.504 730.301 281.042 729.64 281.405C728.992 281.768 728.292 281.95 727.54 281.95C726.775 281.95 726.107 281.756 725.537 281.367C724.979 280.978 724.545 280.427 724.234 279.713C723.935 279 723.786 278.164 723.786 277.205C723.786 276.232 723.935 275.396 724.234 274.696C724.545 273.983 724.979 273.432 725.537 273.043C726.107 272.654 726.775 272.459 727.54 272.459C728.292 272.459 728.992 272.641 729.64 273.004C730.301 273.367 730.833 273.905 731.235 274.618C731.637 275.318 731.838 276.18 731.838 277.205ZM729.232 277.205C729.232 276.673 729.122 276.219 728.901 275.843C728.681 275.467 728.383 275.182 728.007 274.988C727.644 274.793 727.242 274.696 726.801 274.696C726.425 274.696 726.055 274.793 725.692 274.988C725.342 275.169 725.05 275.448 724.817 275.824C724.597 276.2 724.486 276.66 724.486 277.205C724.486 277.749 724.597 278.209 724.817 278.585C725.05 278.961 725.342 279.247 725.692 279.441C726.055 279.623 726.425 279.713 726.801 279.713C727.242 279.713 727.644 279.616 728.007 279.422C728.383 279.227 728.681 278.942 728.901 278.566C729.122 278.19 729.232 277.736 729.232 277.205ZM733.716 266.508H736.244V281.678H733.716V266.508ZM741.336 278.177C741.336 278.761 741.453 279.214 741.686 279.538C741.919 279.85 742.295 280.005 742.814 280.005C743.177 280.005 743.488 279.934 743.747 279.791C744.02 279.636 744.227 279.422 744.37 279.149C744.525 278.877 744.603 278.553 744.603 278.177V272.732H747.112V281.678H744.603V280.316C744.318 280.822 743.955 281.211 743.514 281.483C743.073 281.743 742.535 281.872 741.9 281.872C740.837 281.872 740.039 281.568 739.508 280.958C738.989 280.349 738.73 279.513 738.73 278.449V272.732H741.336V278.177ZM762.818 275.96V281.678H760.29V276.232C760.29 275.623 760.186 275.169 759.979 274.871C759.771 274.56 759.434 274.404 758.968 274.404C758.656 274.404 758.384 274.475 758.151 274.618C757.917 274.748 757.736 274.955 757.606 275.24C757.477 275.513 757.412 275.843 757.412 276.232V281.678H754.903V276.232C754.903 275.623 754.799 275.169 754.592 274.871C754.384 274.56 754.047 274.404 753.58 274.404C753.269 274.404 752.997 274.475 752.764 274.618C752.53 274.748 752.349 274.955 752.219 275.24C752.089 275.513 752.025 275.843 752.025 276.232V281.678H749.594V272.732H752.025V274.054C752.284 273.561 752.627 273.185 753.055 272.926C753.483 272.667 753.995 272.537 754.592 272.537C755.253 272.537 755.797 272.667 756.225 272.926C756.653 273.185 756.964 273.568 757.159 274.073C757.483 273.568 757.878 273.185 758.345 272.926C758.825 272.667 759.369 272.537 759.979 272.537C760.64 272.537 761.178 272.673 761.593 272.945C762.008 273.205 762.313 273.594 762.507 274.112C762.715 274.618 762.818 275.234 762.818 275.96Z" fill="black"/>
<path d="M584.257 449.153C584.257 449.672 584.373 450.125 584.607 450.514C584.84 450.903 585.151 451.208 585.54 451.428C585.942 451.649 586.383 451.759 586.863 451.759C587.252 451.759 587.628 451.701 587.991 451.584C588.354 451.454 588.678 451.286 588.963 451.078C589.261 450.858 589.488 450.605 589.644 450.32V452.906C589.333 453.192 588.924 453.419 588.419 453.587C587.926 453.743 587.349 453.82 586.688 453.82C585.741 453.82 584.885 453.626 584.12 453.237C583.368 452.848 582.772 452.303 582.331 451.603C581.903 450.89 581.689 450.073 581.689 449.153C581.689 448.219 581.903 447.403 582.331 446.702C582.772 446.002 583.368 445.458 584.12 445.069C584.885 444.68 585.741 444.485 586.688 444.485C587.349 444.485 587.926 444.57 588.419 444.738C588.924 444.894 589.333 445.108 589.644 445.38V447.967C589.488 447.681 589.255 447.435 588.944 447.228C588.645 447.007 588.315 446.839 587.952 446.722C587.589 446.605 587.226 446.547 586.863 446.547C586.383 446.547 585.942 446.664 585.54 446.897C585.151 447.117 584.84 447.422 584.607 447.811C584.373 448.2 584.257 448.647 584.257 449.153ZM594.394 438.456V453.626H591.866V438.456H594.394ZM597.642 448.18C597.642 447.584 597.525 447.13 597.292 446.819C597.072 446.508 596.696 446.352 596.164 446.352C595.814 446.352 595.503 446.43 595.23 446.586C594.958 446.728 594.751 446.936 594.608 447.208C594.465 447.48 594.394 447.804 594.394 448.18H593.888C593.888 447.467 594.005 446.826 594.239 446.255C594.485 445.685 594.848 445.231 595.328 444.894C595.807 444.557 596.397 444.388 597.097 444.388C597.798 444.388 598.375 444.518 598.828 444.777C599.282 445.036 599.619 445.425 599.84 445.944C600.06 446.45 600.17 447.072 600.17 447.811V453.626H597.642V448.18ZM606.874 453.82C605.901 453.82 605.052 453.626 604.326 453.237C603.6 452.848 603.036 452.31 602.634 451.623C602.245 450.923 602.051 450.099 602.051 449.153C602.051 448.193 602.245 447.37 602.634 446.683C603.036 445.983 603.6 445.445 604.326 445.069C605.052 444.68 605.908 444.485 606.893 444.485C607.879 444.485 608.715 444.667 609.402 445.03C610.102 445.38 610.634 445.899 610.997 446.586C611.36 447.26 611.541 448.077 611.541 449.036C611.541 449.153 611.535 449.276 611.522 449.406C611.522 449.535 611.515 449.639 611.502 449.717H603.49V448.161H609.305L608.624 449.056C608.676 448.978 608.721 448.874 608.76 448.744C608.812 448.602 608.838 448.485 608.838 448.394C608.838 447.954 608.754 447.578 608.585 447.266C608.43 446.955 608.203 446.709 607.905 446.527C607.606 446.346 607.256 446.255 606.854 446.255C606.362 446.255 605.947 446.365 605.61 446.586C605.286 446.793 605.033 447.111 604.851 447.539C604.683 447.954 604.592 448.472 604.579 449.095C604.579 449.691 604.663 450.197 604.832 450.612C605.013 451.026 605.279 451.344 605.629 451.564C605.979 451.785 606.401 451.895 606.893 451.895C607.451 451.895 607.924 451.791 608.313 451.584C608.715 451.364 609.046 451.039 609.305 450.612L611.502 451.292C611.036 452.135 610.413 452.77 609.635 453.198C608.87 453.613 607.95 453.82 606.874 453.82ZM615.911 444.68V453.626H613.441V444.68H615.911ZM618.537 447.305C618.368 447.15 618.193 447.033 618.012 446.955C617.843 446.864 617.629 446.819 617.37 446.819C617.059 446.819 616.793 446.903 616.572 447.072C616.352 447.24 616.183 447.48 616.067 447.792C615.963 448.09 615.911 448.453 615.911 448.881L615.211 448.18C615.211 447.467 615.347 446.839 615.619 446.294C615.892 445.736 616.248 445.296 616.689 444.972C617.13 444.634 617.584 444.466 618.05 444.466C618.375 444.466 618.679 444.524 618.965 444.641C619.263 444.758 619.503 444.933 619.684 445.166L618.537 447.305ZM623.489 444.68V453.626H621.019V444.68H623.489ZM626.115 447.305C625.946 447.15 625.771 447.033 625.59 446.955C625.421 446.864 625.207 446.819 624.948 446.819C624.637 446.819 624.371 446.903 624.15 447.072C623.93 447.24 623.761 447.48 623.645 447.792C623.541 448.09 623.489 448.453 623.489 448.881L622.789 448.18C622.789 447.467 622.925 446.839 623.197 446.294C623.47 445.736 623.826 445.296 624.267 444.972C624.708 444.634 625.162 444.466 625.628 444.466C625.953 444.466 626.257 444.524 626.542 444.641C626.841 444.758 627.081 444.933 627.262 445.166L626.115 447.305ZM637.704 444.68L631.87 457.905H629.283L631.539 452.731L627.825 444.68H630.625L633.503 451.798L632.259 451.759L635.079 444.68H637.704Z" fill="black"/>
<path d="M725.068 446.624V455.57H722.598V446.624H725.068ZM727.694 449.25C727.525 449.094 727.35 448.977 727.169 448.9C727 448.809 726.786 448.763 726.527 448.763C726.216 448.763 725.95 448.848 725.73 449.016C725.509 449.185 725.341 449.425 725.224 449.736C725.12 450.034 725.068 450.397 725.068 450.825L724.368 450.125C724.368 449.412 724.504 448.783 724.777 448.238C725.049 447.681 725.406 447.24 725.846 446.916C726.287 446.579 726.741 446.41 727.208 446.41C727.532 446.41 727.837 446.469 728.122 446.585C728.42 446.702 728.66 446.877 728.841 447.11L727.694 449.25ZM732.783 452.07C732.783 452.653 732.899 453.107 733.133 453.431C733.366 453.742 733.742 453.898 734.261 453.898C734.624 453.898 734.935 453.826 735.194 453.684C735.466 453.528 735.674 453.314 735.816 453.042C735.972 452.77 736.05 452.446 736.05 452.07V446.624H738.559V455.57H736.05V454.209C735.765 454.715 735.402 455.104 734.961 455.376C734.52 455.635 733.982 455.765 733.347 455.765C732.283 455.765 731.486 455.46 730.954 454.851C730.436 454.241 730.176 453.405 730.176 452.342V446.624H732.783V452.07ZM741.487 452.478C741.863 452.828 742.213 453.113 742.538 453.334C742.862 453.541 743.166 453.697 743.452 453.801C743.75 453.904 744.029 453.956 744.288 453.956C744.625 453.956 744.884 453.885 745.066 453.742C745.247 453.587 745.338 453.379 745.338 453.12C745.338 452.886 745.26 452.692 745.105 452.536C744.962 452.368 744.748 452.219 744.463 452.089C744.178 451.959 743.815 451.823 743.374 451.681C742.959 451.525 742.557 451.344 742.168 451.136C741.779 450.916 741.455 450.63 741.196 450.28C740.949 449.917 740.826 449.457 740.826 448.9C740.826 448.368 740.969 447.921 741.254 447.558C741.539 447.182 741.922 446.903 742.401 446.721C742.894 446.527 743.439 446.43 744.035 446.43C744.541 446.43 745.014 446.494 745.455 446.624C745.896 446.754 746.304 446.929 746.68 447.149C747.056 447.357 747.387 447.603 747.672 447.888L746.563 449.444C746.239 449.094 745.85 448.809 745.396 448.588C744.956 448.368 744.521 448.258 744.093 448.258C743.808 448.258 743.581 448.316 743.413 448.433C743.257 448.537 743.179 448.699 743.179 448.919C743.179 449.114 743.257 449.289 743.413 449.444C743.581 449.587 743.815 449.716 744.113 449.833C744.424 449.95 744.774 450.092 745.163 450.261C745.643 450.442 746.084 450.65 746.486 450.883C746.9 451.104 747.231 451.382 747.477 451.72C747.724 452.057 747.847 452.497 747.847 453.042C747.847 453.937 747.555 454.637 746.972 455.142C746.388 455.635 745.584 455.881 744.56 455.881C743.925 455.881 743.341 455.797 742.81 455.629C742.291 455.46 741.818 455.24 741.39 454.967C740.975 454.682 740.599 454.377 740.262 454.053L741.487 452.478ZM748.439 446.624H753.963V448.744H748.439V446.624ZM749.976 443.512H752.407V455.57H749.976V443.512Z" fill="black"/>
<rect x="561.059" y="155.657" width="105.878" height="95.5749" fill="#6E1E30"/>
<rect x="689.417" y="155.657" width="105.878" height="95.5749" fill="#451223"/>
<rect x="919.845" y="332.188" width="105.878" height="95.5749" fill="#E31955"/>
<path d="M956.603 262.262H959.132V277.432H956.603V262.262ZM961.501 265.024C961.501 264.609 961.65 264.272 961.948 264.012C962.246 263.74 962.603 263.604 963.018 263.604C963.433 263.604 963.783 263.74 964.068 264.012C964.366 264.272 964.515 264.609 964.515 265.024C964.515 265.426 964.366 265.763 964.068 266.035C963.783 266.307 963.433 266.443 963.018 266.443C962.603 266.443 962.246 266.307 961.948 266.035C961.65 265.763 961.501 265.426 961.501 265.024ZM961.773 268.485H964.223V277.432H961.773V268.485ZM966.897 262.262H969.426V277.432H966.897V262.262ZM973.701 274.651C973.701 274.91 973.765 275.137 973.895 275.331C974.025 275.513 974.2 275.655 974.42 275.759C974.653 275.85 974.906 275.895 975.179 275.895C975.568 275.895 975.918 275.817 976.229 275.662C976.54 275.493 976.793 275.26 976.987 274.962C977.182 274.651 977.279 274.281 977.279 273.853L977.59 275.02C977.59 275.591 977.428 276.07 977.104 276.459C976.793 276.848 976.384 277.14 975.879 277.334C975.386 277.529 974.867 277.626 974.323 277.626C973.765 277.626 973.247 277.516 972.767 277.296C972.287 277.075 971.898 276.757 971.6 276.343C971.315 275.915 971.172 275.396 971.172 274.787C971.172 273.918 971.477 273.231 972.086 272.725C972.696 272.22 973.558 271.967 974.673 271.967C975.243 271.967 975.743 272.025 976.17 272.142C976.611 272.258 976.981 272.401 977.279 272.57C977.577 272.738 977.791 272.9 977.921 273.056V274.223C977.571 273.963 977.175 273.769 976.734 273.639C976.307 273.51 975.853 273.445 975.373 273.445C974.984 273.445 974.666 273.497 974.42 273.6C974.174 273.691 973.992 273.827 973.876 274.009C973.759 274.177 973.701 274.391 973.701 274.651ZM972.728 271.014L971.795 269.302C972.261 269.056 972.832 268.823 973.506 268.602C974.18 268.369 974.932 268.252 975.762 268.252C976.527 268.252 977.208 268.362 977.804 268.583C978.4 268.803 978.867 269.127 979.204 269.555C979.541 269.97 979.71 270.482 979.71 271.092V277.432H977.279V271.617C977.279 271.37 977.24 271.163 977.162 270.994C977.084 270.813 976.961 270.664 976.793 270.547C976.637 270.43 976.449 270.346 976.229 270.294C976.008 270.242 975.762 270.216 975.49 270.216C975.075 270.216 974.679 270.262 974.303 270.352C973.927 270.443 973.603 270.553 973.331 270.683C973.059 270.813 972.858 270.923 972.728 271.014ZM983.959 272.959C983.959 273.477 984.076 273.931 984.309 274.32C984.543 274.709 984.854 275.014 985.243 275.234C985.645 275.454 986.085 275.565 986.565 275.565C986.954 275.565 987.33 275.506 987.693 275.39C988.056 275.26 988.38 275.091 988.666 274.884C988.964 274.664 989.191 274.411 989.346 274.125V276.712C989.035 276.997 988.627 277.224 988.121 277.393C987.628 277.548 987.051 277.626 986.39 277.626C985.444 277.626 984.588 277.432 983.823 277.043C983.071 276.654 982.475 276.109 982.034 275.409C981.606 274.696 981.392 273.879 981.392 272.959C981.392 272.025 981.606 271.208 982.034 270.508C982.475 269.808 983.071 269.263 983.823 268.874C984.588 268.485 985.444 268.291 986.39 268.291C987.051 268.291 987.628 268.375 988.121 268.544C988.627 268.699 989.035 268.913 989.346 269.186V271.772C989.191 271.487 988.957 271.241 988.646 271.033C988.348 270.813 988.017 270.644 987.654 270.528C987.291 270.411 986.928 270.352 986.565 270.352C986.085 270.352 985.645 270.469 985.243 270.703C984.854 270.923 984.543 271.228 984.309 271.617C984.076 272.006 983.959 272.453 983.959 272.959Z" fill="black"/>
<path d="M1060.64 268.138H1066.16V270.258H1060.64V268.138ZM1062.17 265.026H1064.6V277.084H1062.17V265.026ZM1070.11 273.583C1070.11 274.167 1070.22 274.621 1070.46 274.945C1070.69 275.256 1071.07 275.411 1071.58 275.411C1071.95 275.411 1072.26 275.34 1072.52 275.198C1072.79 275.042 1073 274.828 1073.14 274.556C1073.3 274.283 1073.37 273.959 1073.37 273.583V268.138H1075.88V277.084H1073.37V275.723C1073.09 276.228 1072.73 276.617 1072.28 276.89C1071.84 277.149 1071.31 277.278 1070.67 277.278C1069.61 277.278 1068.81 276.974 1068.28 276.364C1067.76 275.755 1067.5 274.919 1067.5 273.856V268.138H1070.11V273.583ZM1080.83 268.138V277.084H1078.36V268.138H1080.83ZM1083.46 270.763C1083.29 270.608 1083.12 270.491 1082.93 270.413C1082.77 270.322 1082.55 270.277 1082.29 270.277C1081.98 270.277 1081.72 270.361 1081.5 270.53C1081.27 270.698 1081.11 270.938 1080.99 271.25C1080.89 271.548 1080.83 271.911 1080.83 272.339L1080.13 271.638C1080.13 270.925 1080.27 270.297 1080.54 269.752C1080.81 269.194 1081.17 268.754 1081.61 268.43C1082.05 268.092 1082.51 267.924 1082.97 267.924C1083.3 267.924 1083.6 267.982 1083.89 268.099C1084.19 268.216 1084.43 268.391 1084.61 268.624L1083.46 270.763ZM1092.41 281.363V268.138H1094.93V281.363H1092.41ZM1085.05 272.611C1085.05 271.587 1085.26 270.724 1085.66 270.024C1086.06 269.311 1086.59 268.773 1087.25 268.41C1087.91 268.047 1088.61 267.866 1089.35 267.866C1090.14 267.866 1090.82 268.06 1091.38 268.449C1091.93 268.838 1092.36 269.389 1092.66 270.102C1092.96 270.802 1093.11 271.638 1093.11 272.611C1093.11 273.57 1092.96 274.407 1092.66 275.12C1092.36 275.833 1091.93 276.384 1091.38 276.773C1090.82 277.162 1090.14 277.356 1089.35 277.356C1088.61 277.356 1087.91 277.175 1087.25 276.812C1086.59 276.449 1086.06 275.911 1085.66 275.198C1085.26 274.484 1085.05 273.622 1085.05 272.611ZM1087.66 272.611C1087.66 273.142 1087.77 273.596 1087.99 273.972C1088.21 274.348 1088.51 274.634 1088.89 274.828C1089.26 275.022 1089.66 275.12 1090.09 275.12C1090.47 275.12 1090.83 275.029 1091.18 274.847C1091.54 274.653 1091.84 274.368 1092.06 273.992C1092.29 273.616 1092.41 273.155 1092.41 272.611C1092.41 272.066 1092.29 271.606 1092.06 271.23C1091.84 270.854 1091.54 270.575 1091.18 270.394C1090.83 270.199 1090.47 270.102 1090.09 270.102C1089.66 270.102 1089.26 270.199 1088.89 270.394C1088.51 270.588 1088.21 270.874 1087.99 271.25C1087.77 271.626 1087.66 272.079 1087.66 272.611ZM1099.96 273.583C1099.96 274.167 1100.08 274.621 1100.31 274.945C1100.55 275.256 1100.92 275.411 1101.44 275.411C1101.8 275.411 1102.11 275.34 1102.37 275.198C1102.65 275.042 1102.85 274.828 1103 274.556C1103.15 274.283 1103.23 273.959 1103.23 273.583V268.138H1105.74V277.084H1103.23V275.723C1102.94 276.228 1102.58 276.617 1102.14 276.89C1101.7 277.149 1101.16 277.278 1100.53 277.278C1099.46 277.278 1098.67 276.974 1098.13 276.364C1097.62 275.755 1097.36 274.919 1097.36 273.856V268.138H1099.96V273.583ZM1107.62 272.611C1107.62 271.677 1107.83 270.861 1108.26 270.16C1108.7 269.46 1109.29 268.916 1110.03 268.527C1110.78 268.138 1111.63 267.943 1112.58 267.943C1113.52 267.943 1114.37 268.138 1115.1 268.527C1115.86 268.916 1116.45 269.46 1116.87 270.16C1117.32 270.861 1117.54 271.677 1117.54 272.611C1117.54 273.531 1117.32 274.348 1116.87 275.061C1116.45 275.762 1115.86 276.306 1115.1 276.695C1114.37 277.084 1113.52 277.278 1112.58 277.278C1111.63 277.278 1110.78 277.084 1110.03 276.695C1109.29 276.306 1108.7 275.762 1108.26 275.061C1107.83 274.348 1107.62 273.531 1107.62 272.611ZM1110.18 272.611C1110.18 273.117 1110.29 273.564 1110.5 273.953C1110.72 274.329 1111.01 274.627 1111.37 274.847C1111.73 275.055 1112.14 275.159 1112.58 275.159C1113.02 275.159 1113.42 275.055 1113.78 274.847C1114.15 274.627 1114.43 274.329 1114.64 273.953C1114.86 273.564 1114.97 273.117 1114.97 272.611C1114.97 272.105 1114.86 271.658 1114.64 271.269C1114.43 270.88 1114.15 270.582 1113.78 270.374C1113.42 270.167 1113.02 270.063 1112.58 270.063C1112.14 270.063 1111.73 270.167 1111.37 270.374C1111.01 270.582 1110.72 270.88 1110.5 271.269C1110.29 271.658 1110.18 272.105 1110.18 272.611ZM1119.31 264.676C1119.31 264.261 1119.46 263.924 1119.76 263.665C1120.05 263.392 1120.41 263.256 1120.83 263.256C1121.24 263.256 1121.59 263.392 1121.88 263.665C1122.17 263.924 1122.32 264.261 1122.32 264.676C1122.32 265.078 1122.17 265.415 1121.88 265.687C1121.59 265.96 1121.24 266.096 1120.83 266.096C1120.41 266.096 1120.05 265.96 1119.76 265.687C1119.46 265.415 1119.31 265.078 1119.31 264.676ZM1119.58 268.138H1122.03V277.084H1119.58V268.138ZM1125.15 273.992C1125.53 274.342 1125.88 274.627 1126.2 274.847C1126.53 275.055 1126.83 275.21 1127.12 275.314C1127.42 275.418 1127.69 275.47 1127.95 275.47C1128.29 275.47 1128.55 275.398 1128.73 275.256C1128.91 275.1 1129 274.893 1129 274.634C1129 274.4 1128.93 274.206 1128.77 274.05C1128.63 273.882 1128.41 273.732 1128.13 273.603C1127.84 273.473 1127.48 273.337 1127.04 273.194C1126.62 273.039 1126.22 272.857 1125.83 272.65C1125.44 272.429 1125.12 272.144 1124.86 271.794C1124.61 271.431 1124.49 270.971 1124.49 270.413C1124.49 269.882 1124.63 269.434 1124.92 269.071C1125.2 268.695 1125.59 268.417 1126.07 268.235C1126.56 268.041 1127.1 267.943 1127.7 267.943C1128.21 267.943 1128.68 268.008 1129.12 268.138C1129.56 268.267 1129.97 268.443 1130.35 268.663C1130.72 268.87 1131.05 269.117 1131.34 269.402L1130.23 270.958C1129.9 270.608 1129.52 270.322 1129.06 270.102C1128.62 269.882 1128.19 269.771 1127.76 269.771C1127.47 269.771 1127.25 269.83 1127.08 269.946C1126.92 270.05 1126.84 270.212 1126.84 270.433C1126.84 270.627 1126.92 270.802 1127.08 270.958C1127.25 271.1 1127.48 271.23 1127.78 271.347C1128.09 271.463 1128.44 271.606 1128.83 271.775C1129.31 271.956 1129.75 272.164 1130.15 272.397C1130.57 272.617 1130.9 272.896 1131.14 273.233C1131.39 273.57 1131.51 274.011 1131.51 274.556C1131.51 275.45 1131.22 276.15 1130.64 276.656C1130.05 277.149 1129.25 277.395 1128.23 277.395C1127.59 277.395 1127.01 277.311 1126.48 277.142C1125.96 276.974 1125.48 276.753 1125.06 276.481C1124.64 276.196 1124.26 275.891 1123.93 275.567L1125.15 273.992ZM1137.47 277.278C1136.5 277.278 1135.65 277.084 1134.92 276.695C1134.2 276.306 1133.63 275.768 1133.23 275.081C1132.84 274.381 1132.65 273.557 1132.65 272.611C1132.65 271.651 1132.84 270.828 1133.23 270.141C1133.63 269.441 1134.2 268.903 1134.92 268.527C1135.65 268.138 1136.51 267.943 1137.49 267.943C1138.48 267.943 1139.31 268.125 1140 268.488C1140.7 268.838 1141.23 269.357 1141.6 270.044C1141.96 270.718 1142.14 271.535 1142.14 272.494C1142.14 272.611 1142.13 272.734 1142.12 272.864C1142.12 272.993 1142.11 273.097 1142.1 273.175H1134.09V271.619H1139.9L1139.22 272.514C1139.27 272.436 1139.32 272.332 1139.36 272.202C1139.41 272.06 1139.44 271.943 1139.44 271.852C1139.44 271.412 1139.35 271.036 1139.18 270.724C1139.03 270.413 1138.8 270.167 1138.5 269.985C1138.2 269.804 1137.85 269.713 1137.45 269.713C1136.96 269.713 1136.55 269.823 1136.21 270.044C1135.88 270.251 1135.63 270.569 1135.45 270.997C1135.28 271.412 1135.19 271.93 1135.18 272.553C1135.18 273.149 1135.26 273.655 1135.43 274.07C1135.61 274.484 1135.88 274.802 1136.23 275.022C1136.58 275.243 1137 275.353 1137.49 275.353C1138.05 275.353 1138.52 275.249 1138.91 275.042C1139.31 274.822 1139.64 274.497 1139.9 274.07L1142.1 274.75C1141.63 275.593 1141.01 276.228 1140.23 276.656C1139.47 277.071 1138.55 277.278 1137.47 277.278Z" fill="black"/>
<path d="M952.593 452.491V458.209H950.064V452.763C950.064 452.154 949.961 451.7 949.753 451.402C949.546 451.091 949.209 450.935 948.742 450.935C948.431 450.935 948.158 451.007 947.925 451.149C947.692 451.279 947.51 451.486 947.38 451.772C947.251 452.044 947.186 452.375 947.186 452.763V458.209H944.677V452.763C944.677 452.154 944.573 451.7 944.366 451.402C944.159 451.091 943.821 450.935 943.355 450.935C943.044 450.935 942.771 451.007 942.538 451.149C942.305 451.279 942.123 451.486 941.993 451.772C941.864 452.044 941.799 452.375 941.799 452.763V458.209H939.368V449.263H941.799V450.585C942.058 450.093 942.402 449.717 942.83 449.457C943.257 449.198 943.77 449.068 944.366 449.068C945.027 449.068 945.572 449.198 946 449.457C946.428 449.717 946.739 450.099 946.933 450.605C947.257 450.099 947.653 449.717 948.12 449.457C948.599 449.198 949.144 449.068 949.753 449.068C950.414 449.068 950.952 449.204 951.367 449.477C951.782 449.736 952.087 450.125 952.281 450.644C952.489 451.149 952.593 451.765 952.593 452.491ZM960.52 449.263H963.301L959.995 453.6L963.496 458.209H960.715L958.692 455.37L956.708 458.209H953.83L957.369 453.6L954.024 449.263H956.903L958.692 451.849L960.52 449.263ZM973.042 462.488H970.514V449.263H973.042V462.488ZM980.394 453.736C980.394 454.747 980.193 455.609 979.791 456.323C979.389 457.036 978.857 457.574 978.196 457.937C977.548 458.3 976.848 458.481 976.096 458.481C975.331 458.481 974.663 458.287 974.092 457.898C973.535 457.509 973.101 456.958 972.789 456.245C972.491 455.532 972.342 454.695 972.342 453.736C972.342 452.763 972.491 451.927 972.789 451.227C973.101 450.514 973.535 449.963 974.092 449.574C974.663 449.185 975.331 448.991 976.096 448.991C976.848 448.991 977.548 449.172 978.196 449.535C978.857 449.898 979.389 450.436 979.791 451.149C980.193 451.849 980.394 452.712 980.394 453.736ZM977.788 453.736C977.788 453.204 977.677 452.751 977.457 452.375C977.237 451.999 976.938 451.713 976.562 451.519C976.199 451.324 975.797 451.227 975.357 451.227C974.981 451.227 974.611 451.324 974.248 451.519C973.898 451.7 973.606 451.979 973.373 452.355C973.152 452.731 973.042 453.191 973.042 453.736C973.042 454.28 973.152 454.741 973.373 455.117C973.606 455.493 973.898 455.778 974.248 455.972C974.611 456.154 974.981 456.245 975.357 456.245C975.797 456.245 976.199 456.147 976.562 455.953C976.938 455.759 977.237 455.473 977.457 455.097C977.677 454.721 977.788 454.267 977.788 453.736ZM982.155 445.801C982.155 445.386 982.304 445.049 982.602 444.79C982.9 444.517 983.257 444.381 983.672 444.381C984.087 444.381 984.437 444.517 984.722 444.79C985.02 445.049 985.169 445.386 985.169 445.801C985.169 446.203 985.02 446.54 984.722 446.812C984.437 447.085 984.087 447.221 983.672 447.221C983.257 447.221 982.9 447.085 982.602 446.812C982.304 446.54 982.155 446.203 982.155 445.801ZM982.427 449.263H984.878V458.209H982.427V449.263ZM993.328 452.763C993.328 452.167 993.211 451.713 992.978 451.402C992.744 451.091 992.368 450.935 991.85 450.935C991.499 450.935 991.188 451.013 990.916 451.169C990.644 451.311 990.436 451.519 990.294 451.791C990.151 452.063 990.08 452.387 990.08 452.763V458.209H987.552V449.263H990.08V450.624C990.352 450.119 990.709 449.736 991.149 449.477C991.603 449.204 992.148 449.068 992.783 449.068C993.846 449.068 994.637 449.373 995.156 449.982C995.674 450.579 995.934 451.415 995.934 452.491V458.209H993.328V452.763ZM998.357 443.039H1000.79V458.209H998.357V443.039ZM1004.07 449.263H1007.09L1003.24 452.958L1007.48 458.209H1004.48L1000.22 452.958L1004.07 449.263Z" fill="black"/>
<path d="M1082.91 453.849C1082.91 452.916 1083.12 452.099 1083.55 451.399C1083.99 450.699 1084.58 450.154 1085.32 449.765C1086.07 449.376 1086.92 449.182 1087.87 449.182C1088.81 449.182 1089.66 449.376 1090.4 449.765C1091.15 450.154 1091.74 450.699 1092.17 451.399C1092.61 452.099 1092.83 452.916 1092.83 453.849C1092.83 454.77 1092.61 455.587 1092.17 456.3C1091.74 457 1091.15 457.544 1090.4 457.933C1089.66 458.322 1088.81 458.517 1087.87 458.517C1086.92 458.517 1086.07 458.322 1085.32 457.933C1084.58 457.544 1083.99 457 1083.55 456.3C1083.12 455.587 1082.91 454.77 1082.91 453.849ZM1085.48 453.849C1085.48 454.355 1085.58 454.802 1085.79 455.191C1086.01 455.567 1086.3 455.865 1086.66 456.086C1087.02 456.293 1087.43 456.397 1087.87 456.397C1088.31 456.397 1088.71 456.293 1089.07 456.086C1089.44 455.865 1089.72 455.567 1089.93 455.191C1090.15 454.802 1090.26 454.355 1090.26 453.849C1090.26 453.344 1090.15 452.896 1089.93 452.507C1089.72 452.118 1089.44 451.82 1089.07 451.613C1088.71 451.405 1088.31 451.301 1087.87 451.301C1087.43 451.301 1087.02 451.405 1086.66 451.613C1086.3 451.82 1086.01 452.118 1085.79 452.507C1085.58 452.896 1085.48 453.344 1085.48 453.849ZM1096.62 453.849C1096.62 454.368 1096.74 454.822 1096.97 455.211C1097.21 455.6 1097.52 455.904 1097.91 456.125C1098.31 456.345 1098.75 456.455 1099.23 456.455C1099.62 456.455 1099.99 456.397 1100.36 456.28C1100.72 456.151 1101.04 455.982 1101.33 455.775C1101.63 455.554 1101.85 455.301 1102.01 455.016V457.603C1101.7 457.888 1101.29 458.115 1100.78 458.283C1100.29 458.439 1099.71 458.517 1099.05 458.517C1098.11 458.517 1097.25 458.322 1096.49 457.933C1095.73 457.544 1095.14 457 1094.7 456.3C1094.27 455.587 1094.06 454.77 1094.06 453.849C1094.06 452.916 1094.27 452.099 1094.7 451.399C1095.14 450.699 1095.73 450.154 1096.49 449.765C1097.25 449.376 1098.11 449.182 1099.05 449.182C1099.71 449.182 1100.29 449.266 1100.78 449.434C1101.29 449.59 1101.7 449.804 1102.01 450.076V452.663C1101.85 452.378 1101.62 452.131 1101.31 451.924C1101.01 451.703 1100.68 451.535 1100.32 451.418C1099.95 451.301 1099.59 451.243 1099.23 451.243C1098.75 451.243 1098.31 451.36 1097.91 451.593C1097.52 451.814 1097.21 452.118 1096.97 452.507C1096.74 452.896 1096.62 453.344 1096.62 453.849ZM1106.7 449.376V458.322H1104.23V449.376H1106.7ZM1109.33 452.002C1109.16 451.846 1108.98 451.729 1108.8 451.652C1108.63 451.561 1108.42 451.515 1108.16 451.515C1107.85 451.515 1107.58 451.6 1107.36 451.768C1107.14 451.937 1106.97 452.177 1106.86 452.488C1106.75 452.786 1106.7 453.149 1106.7 453.577L1106 452.877C1106 452.164 1106.14 451.535 1106.41 450.99C1106.68 450.433 1107.04 449.992 1107.48 449.668C1107.92 449.331 1108.37 449.162 1108.84 449.162C1109.17 449.162 1109.47 449.221 1109.76 449.337C1110.05 449.454 1110.29 449.629 1110.47 449.862L1109.33 452.002ZM1115.75 458.517C1114.77 458.517 1113.92 458.322 1113.2 457.933C1112.47 457.544 1111.91 457.006 1111.51 456.319C1111.12 455.619 1110.92 454.796 1110.92 453.849C1110.92 452.89 1111.12 452.066 1111.51 451.379C1111.91 450.679 1112.47 450.141 1113.2 449.765C1113.92 449.376 1114.78 449.182 1115.76 449.182C1116.75 449.182 1117.59 449.363 1118.27 449.726C1118.97 450.076 1119.51 450.595 1119.87 451.282C1120.23 451.956 1120.41 452.773 1120.41 453.732C1120.41 453.849 1120.41 453.972 1120.39 454.102C1120.39 454.232 1120.39 454.335 1120.37 454.413H1112.36V452.857H1118.18L1117.5 453.752C1117.55 453.674 1117.59 453.57 1117.63 453.441C1117.68 453.298 1117.71 453.181 1117.71 453.091C1117.71 452.65 1117.63 452.274 1117.46 451.963C1117.3 451.652 1117.07 451.405 1116.78 451.224C1116.48 451.042 1116.13 450.951 1115.73 450.951C1115.23 450.951 1114.82 451.062 1114.48 451.282C1114.16 451.489 1113.9 451.807 1113.72 452.235C1113.55 452.65 1113.46 453.168 1113.45 453.791C1113.45 454.387 1113.53 454.893 1113.7 455.308C1113.88 455.723 1114.15 456.04 1114.5 456.261C1114.85 456.481 1115.27 456.591 1115.76 456.591C1116.32 456.591 1116.8 456.488 1117.18 456.28C1117.59 456.06 1117.92 455.736 1118.18 455.308L1120.37 455.988C1119.91 456.831 1119.28 457.467 1118.51 457.894C1117.74 458.309 1116.82 458.517 1115.75 458.517Z" fill="black"/>
<rect x="919.845" y="153.356" width="105.878" height="95.5749" fill="#E4B9D4"/>
<rect x="1048.67" y="153.304" width="105.878" height="95.5749" fill="#187885"/>
<rect x="1048.67" y="332.188" width="105.878" height="95.5749" fill="#D08D22"/>
<path d="M920.852 96.7842V95.3397C921.792 95.2701 922.349 95.2121 922.523 95.1657C922.709 95.1077 922.865 95.0264 922.993 94.922C923.121 94.806 923.248 94.632 923.376 94.3999C923.515 94.1563 923.915 93.2687 924.577 91.7372C924.878 91.0179 925.458 89.5966 926.317 87.4734L930.859 76.2656L932.391 72.315H934.862L942.641 90.4842L943.72 92.8684L944.417 94.4695C944.533 94.6784 944.643 94.8292 944.747 94.922C944.852 95.0148 944.968 95.0844 945.095 95.1309C945.235 95.1773 945.577 95.2179 946.122 95.2527C946.296 95.2759 946.551 95.3049 946.888 95.3397V96.7842L942.05 96.6798L935.941 96.7842V95.3397C937.345 95.2817 938.134 95.2063 938.308 95.1135C938.494 95.009 938.586 94.8408 938.586 94.6088C938.586 94.3187 938.453 93.843 938.186 93.1817L936.689 89.3529H927.744L926.978 91.4413C926.398 93.0424 926.108 94.0402 926.108 94.4347C926.108 94.7132 926.201 94.9104 926.387 95.0264C926.665 95.1889 927.495 95.2933 928.875 95.3397V96.7842L924.855 96.6798L920.852 96.7842ZM928.545 87.3689C929.635 87.4038 930.871 87.4212 932.252 87.4212C933.586 87.4212 934.781 87.4038 935.837 87.3689L932.112 78.3888L928.545 87.3689ZM972.575 93.6342L971.775 95.3919C970.324 96.1577 969.019 96.6798 967.859 96.9582C966.71 97.2483 965.272 97.3933 963.543 97.3933C961.083 97.3933 958.908 97.0046 957.017 96.2273C955.532 95.6007 954.273 94.7712 953.24 93.7386C952.208 92.706 951.413 91.5864 950.856 90.3797C950.009 88.5582 949.585 86.58 949.585 84.4452C949.585 80.7905 950.833 77.8087 953.327 75.4998C955.833 73.1794 959.366 72.0192 963.926 72.0192C965.492 72.0192 966.896 72.1352 968.137 72.3672C969.39 72.5993 970.841 73.0111 972.488 73.6029L972.575 73.8291C972.39 74.3744 972.245 75.0589 972.14 75.8827C971.966 77.1938 971.856 78.4062 971.81 79.52H970.452C970.429 78.2438 970.371 77.2228 970.278 76.457C969.501 75.6449 968.625 75.0415 967.65 74.6471C966.687 74.241 965.451 74.0379 963.943 74.0379C961.217 74.0379 959.035 74.9023 957.4 76.631C955.764 78.3482 954.946 80.7499 954.946 83.8361C954.946 85.704 955.218 87.3341 955.764 88.7264C956.321 90.1187 957.057 91.2731 957.974 92.1897C958.89 93.0947 959.813 93.756 960.741 94.1737C962.006 94.7306 963.537 95.009 965.335 95.009C966.519 95.009 967.639 94.8756 968.694 94.6088C969.75 94.3419 970.899 93.8836 972.14 93.2339L972.575 93.6342ZM998.332 93.6342L997.532 95.3919C996.081 96.1577 994.776 96.6798 993.616 96.9582C992.467 97.2483 991.029 97.3933 989.3 97.3933C986.84 97.3933 984.665 97.0046 982.774 96.2273C981.289 95.6007 980.03 94.7712 978.997 93.7386C977.965 92.706 977.17 91.5864 976.613 90.3797C975.766 88.5582 975.342 86.58 975.342 84.4452C975.342 80.7905 976.59 77.8087 979.084 75.4998C981.59 73.1794 985.123 72.0192 989.683 72.0192C991.249 72.0192 992.653 72.1352 993.894 72.3672C995.147 72.5993 996.598 73.0111 998.245 73.6029L998.332 73.8291C998.147 74.3744 998.002 75.0589 997.897 75.8827C997.723 77.1938 997.613 78.4062 997.567 79.52H996.209C996.186 78.2438 996.128 77.2228 996.035 76.457C995.258 75.6449 994.382 75.0415 993.407 74.6471C992.444 74.241 991.209 74.0379 989.7 74.0379C986.974 74.0379 984.792 74.9023 983.157 76.631C981.521 78.3482 980.703 80.7499 980.703 83.8361C980.703 85.704 980.975 87.3341 981.521 88.7264C982.078 90.1187 982.814 91.2731 983.731 92.1897C984.647 93.0947 985.57 93.756 986.498 94.1737C987.763 94.7306 989.294 95.009 991.092 95.009C992.276 95.009 993.396 94.8756 994.451 94.6088C995.507 94.3419 996.656 93.8836 997.897 93.2339L998.332 93.6342ZM1001.4 96.7842V95.8444C1002.09 95.5195 1002.66 95.1831 1003.1 94.835C1003.17 94.3477 1003.23 93.5588 1003.27 92.4681C1003.37 90.4725 1003.41 89.0223 1003.41 88.1173V80.2858C1003.41 79.9841 1003.4 78.8529 1003.36 76.8921C1003.33 75.581 1003.25 74.7805 1003.12 74.4904C1003.06 74.3744 1002.97 74.2874 1002.86 74.2294C1002.54 74.0902 1001.71 73.9857 1000.35 73.9161V72.4368L1004.39 72.5238C1005.19 72.5355 1005.95 72.5413 1006.69 72.5413C1008.28 72.5413 1010.04 72.5238 1011.99 72.489L1015.53 72.402C1015.94 72.402 1016.79 72.4252 1018.07 72.4716C1018.18 72.4716 1018.38 72.5064 1018.64 72.5761L1018.76 72.8023L1018.43 75.3084C1018.42 75.4824 1018.36 76.3178 1018.26 77.8145H1016.9C1016.88 76.4454 1016.83 75.6042 1016.75 75.291C1016.7 75.1286 1016.63 75.0125 1016.54 74.9429C1016.39 74.8385 1015.92 74.7457 1015.14 74.6645C1014 74.5368 1012.87 74.473 1011.77 74.473C1010.74 74.473 1009.68 74.5136 1008.6 74.5949C1008.44 75.9059 1008.36 77.5708 1008.36 79.5896V83.1573C1009.15 83.2153 1009.97 83.2443 1010.83 83.2443C1011.09 83.2443 1012.06 83.2211 1013.72 83.1747C1014.34 83.1631 1014.71 83.1225 1014.81 83.0529C1014.93 82.9833 1015.02 82.8615 1015.07 82.6874C1015.21 82.2465 1015.29 81.5098 1015.32 80.4772H1016.73L1016.66 84.3059L1016.73 88.1173H1015.23C1015.24 86.7714 1015.16 85.9419 1014.97 85.6286C1014.83 85.3966 1014.58 85.2515 1014.22 85.1935C1013.42 85.0659 1012.39 85.0021 1011.14 85.0021C1010.02 85.0021 1009.09 85.0369 1008.36 85.1065V92.4855C1008.36 93.3093 1008.37 94.017 1008.41 94.6088C1009.35 94.6784 1010.46 94.7132 1011.75 94.7132C1013 94.7132 1014.16 94.6726 1015.21 94.5914C1016.28 94.5101 1016.94 94.3941 1017.18 94.2433C1017.26 94.1969 1017.34 94.0925 1017.41 93.93C1017.62 93.3731 1017.84 92.3173 1018.07 90.7626H1019.49C1019.24 93.0599 1019.11 94.951 1019.11 96.4361L1018.89 96.6624C1018.14 96.7436 1017.09 96.7842 1015.72 96.7842L1012.92 96.732C1010.16 96.6972 1008.25 96.6798 1007.21 96.6798C1006.93 96.6798 1004.99 96.7146 1001.4 96.7842ZM1022.42 95.3049C1023.79 95.2353 1024.57 95.1715 1024.77 95.1135C1024.9 95.067 1025 94.9916 1025.08 94.8872C1025.17 94.7828 1025.25 94.5681 1025.31 94.2433C1025.38 93.8024 1025.46 92.735 1025.55 91.0411C1025.6 90.0781 1025.62 88.825 1025.62 87.2819V81.6954L1025.55 76.631C1025.54 75.7841 1025.5 75.233 1025.45 74.9777C1025.39 74.7225 1025.3 74.5368 1025.19 74.4208C1025.08 74.2932 1024.9 74.1946 1024.65 74.125C1024.39 74.0553 1023.65 73.9799 1022.42 73.8987V72.4368C1023.89 72.5064 1024.98 72.5413 1025.67 72.5413L1028.2 72.489L1029.8 72.4368C1032.19 75.5578 1035.08 79.1545 1038.48 83.2269C1040.93 86.1623 1042.96 88.4596 1044.57 90.1187V86.0985C1044.57 79.8565 1044.5 76.1844 1044.36 75.0821C1044.32 74.6529 1044.21 74.3744 1044.05 74.2468C1043.78 74.0379 1042.88 73.9219 1041.34 73.8987V72.4368C1042.75 72.5064 1044.05 72.5413 1045.23 72.5413C1046.38 72.5413 1047.86 72.5064 1049.67 72.4368V73.8987C1048.26 73.9335 1047.42 74.0379 1047.15 74.212C1047.06 74.27 1046.99 74.357 1046.96 74.473C1046.78 75.0531 1046.67 76.3816 1046.61 78.4584C1046.56 80.5236 1046.54 82.0493 1046.54 83.0355C1046.54 90.751 1046.62 95.4325 1046.77 97.08L1046.54 97.2367C1045.57 97.0742 1044.57 96.9234 1043.56 96.7842C1039.82 92.5958 1034.5 86.3073 1027.62 77.9189V86.5858C1027.62 88.3841 1027.66 90.2579 1027.73 92.2071C1027.77 93.5529 1027.84 94.3709 1027.94 94.661C1027.98 94.8002 1028.06 94.9162 1028.16 95.009C1028.28 95.0902 1028.47 95.1483 1028.75 95.1831C1029.51 95.2759 1030.06 95.3223 1030.41 95.3223C1030.48 95.3223 1030.59 95.3165 1030.75 95.3049V96.7146C1028.55 96.6914 1027.3 96.6798 1027 96.6798C1025.87 96.6798 1024.34 96.7146 1022.42 96.7842V95.3049ZM1057 96.7842V95.3571C1058.39 95.3107 1059.22 95.2179 1059.47 95.0786C1059.74 94.9394 1059.92 94.7074 1060.01 94.3825C1060.14 93.8836 1060.2 92.3811 1060.2 89.875V79.4504C1060.2 76.6078 1060.18 75.0183 1060.15 74.6819H1057.66C1056.41 74.6819 1055.31 74.7225 1054.35 74.8037C1053.97 74.8385 1053.75 74.8849 1053.69 74.9429C1053.61 75.0125 1053.54 75.2156 1053.48 75.552C1053.33 76.3642 1053.25 77.275 1053.22 78.2844H1051.78C1051.73 75.9059 1051.7 74.5658 1051.69 74.2642C1051.66 73.7537 1051.6 73.2026 1051.52 72.6109L1051.67 72.4368C1052.22 72.4948 1052.8 72.5355 1053.41 72.5587C1054.41 72.5935 1056.33 72.6109 1059.17 72.6109H1066.21C1069.13 72.6109 1071.08 72.5935 1072.07 72.5587C1072.6 72.5355 1073.14 72.4948 1073.69 72.4368L1073.86 72.6109C1073.76 73.3186 1073.69 73.9393 1073.67 74.473C1073.66 74.5658 1073.64 75.8363 1073.6 78.2844H1072.16C1072.13 77.3794 1072.06 76.515 1071.93 75.6913C1071.86 75.2736 1071.79 75.0241 1071.71 74.9429C1071.64 74.8849 1071.45 74.8443 1071.15 74.8211C1070.2 74.7283 1069.05 74.6819 1067.72 74.6819H1065.23C1065.2 75.0879 1065.18 76.6775 1065.18 79.4504V89.875C1065.18 92.3811 1065.24 93.8894 1065.37 94.3999C1065.45 94.7016 1065.63 94.9278 1065.89 95.0786C1066.16 95.2179 1066.99 95.3107 1068.38 95.3571V96.7842C1066.13 96.6798 1064.23 96.6275 1062.69 96.6275C1061.04 96.6275 1059.15 96.6798 1057 96.7842ZM1092.45 78.8065H1090.99C1090.96 77.4606 1090.91 76.5092 1090.81 75.9523C1090.45 75.4418 1089.83 74.9893 1088.93 74.5949C1088.05 74.2004 1087.06 74.0031 1085.96 74.0031C1084.38 74.0031 1083.16 74.4034 1082.29 75.204C1081.43 75.9929 1081 76.9211 1081 77.9885C1081.01 78.7543 1081.14 79.375 1081.38 79.8507C1081.62 80.3264 1081.97 80.7034 1082.43 80.9819C1082.88 81.2604 1083.55 81.5156 1084.43 81.7476C1085.1 81.8869 1086.03 82.0609 1087.23 82.2697C1088.44 82.4786 1089.22 82.6236 1089.58 82.7048C1090.52 82.9485 1091.28 83.2443 1091.86 83.5924C1092.44 83.9289 1092.9 84.3233 1093.23 84.7758C1093.58 85.2167 1093.87 85.7794 1094.09 86.464C1094.31 87.1369 1094.42 87.8968 1094.42 88.7438C1094.42 90.2289 1094.11 91.5342 1093.49 92.6596C1093.03 93.5065 1092.39 94.2839 1091.56 94.9916C1090.74 95.6878 1089.89 96.2099 1089.02 96.5579C1087.63 97.1148 1085.96 97.3933 1084.01 97.3933C1082.58 97.3933 1081.31 97.2599 1080.2 96.993C1079.08 96.7262 1077.86 96.2679 1076.53 95.6182C1076.89 94.2955 1077.07 92.2825 1077.08 89.5792H1078.54C1078.52 90.4145 1078.59 91.4529 1078.74 92.6944C1079.18 93.4137 1079.93 94.046 1081 94.5914C1082.07 95.1367 1083.23 95.4093 1084.5 95.4093C1085.6 95.4093 1086.58 95.2179 1087.44 94.835C1088.31 94.4405 1088.93 93.901 1089.32 93.2165C1089.71 92.532 1089.91 91.7546 1089.91 90.8844C1089.91 90.1535 1089.77 89.527 1089.49 89.0049C1089.22 88.4828 1088.8 88.0651 1088.22 87.7518C1087.64 87.4386 1086.62 87.1137 1085.16 86.7772C1083.06 86.3363 1081.68 86.0173 1081.02 85.82C1080.02 85.5184 1079.21 85.0833 1078.6 84.5148C1077.99 83.9463 1077.54 83.2617 1077.24 82.4612C1076.94 81.649 1076.79 80.7789 1076.79 79.8507C1076.79 78.5512 1077.06 77.3562 1077.6 76.2656C1078.15 75.1634 1078.87 74.3106 1079.76 73.7073C1080.66 73.104 1081.67 72.6747 1082.79 72.4194C1083.92 72.1526 1085.07 72.0192 1086.25 72.0192C1087.48 72.0192 1088.67 72.1294 1089.82 72.3498C1090.98 72.5703 1091.99 72.8893 1092.83 73.307L1092.97 73.7247C1092.81 74.4788 1092.69 75.2214 1092.61 75.9523C1092.54 76.6717 1092.48 77.623 1092.45 78.8065Z" fill="black"/>
</svg>
