<svg width="674" height="467" viewBox="0 0 674 467" fill="none" xmlns="http://www.w3.org/2000/svg">
<g clip-path="url(#clip0_2610_21325)">
<g filter="url(#filter0_d_2610_21325)">
<g clip-path="url(#clip1_2610_21325)">
<rect x="647" width="438.306" height="619.827" rx="10" transform="rotate(90 647 0)" fill="#FFEAF3"/>
<ellipse cx="395.311" cy="281.12" rx="2.21367" ry="2.95156" transform="rotate(42.0279 395.311 281.12)" fill="#F59500"/>
<ellipse cx="98.6781" cy="245.698" rx="2.21367" ry="2.95156" transform="rotate(42.0279 98.6781 245.698)" fill="#F59500"/>
<ellipse cx="156.233" cy="167.487" rx="2.21367" ry="2.95156" transform="rotate(42.0279 156.233 167.487)" fill="#F59500"/>
<ellipse cx="438.145" cy="183.687" rx="2.21367" ry="2.95156" transform="rotate(134.182 438.145 183.687)" fill="#F59500"/>
<ellipse cx="566.466" cy="296.878" rx="2.21367" ry="2.95156" transform="rotate(113.223 566.466 296.878)" fill="#F59500"/>
<ellipse cx="324.118" cy="343.049" rx="2.21367" ry="2.95156" transform="rotate(-154.623 324.118 343.049)" fill="#F59500"/>
<ellipse cx="232.94" cy="288.011" rx="2.21367" ry="2.95156" transform="rotate(113.223 232.94 288.011)" fill="#F59500"/>
<ellipse cx="225.561" cy="224.566" rx="2.21367" ry="2.95156" transform="rotate(113.223 225.561 224.566)" fill="#F59500"/>
<ellipse cx="46.9928" cy="51.9017" rx="2.21367" ry="2.95156" transform="rotate(113.223 46.9928 51.9017)" fill="#F59500"/>
<ellipse cx="437.753" cy="396.174" rx="2.21367" ry="2.95156" transform="rotate(-154.623 437.753 396.174)" fill="#F59500"/>
<ellipse cx="73.5553" cy="119.785" rx="2.21367" ry="2.95156" transform="rotate(113.223 73.5553 119.785)" fill="#F59500"/>
<ellipse cx="29.2839" cy="175.855" rx="2.21367" ry="2.95156" transform="rotate(113.223 29.2839 175.855)" fill="#F59500"/>
<ellipse cx="592.71" cy="154.142" rx="2.21367" ry="2.95156" transform="rotate(-154.623 592.71 154.142)" fill="#F59500"/>
<ellipse cx="520.719" cy="379.527" rx="2.21367" ry="2.95156" transform="rotate(113.223 520.719 379.527)" fill="#F59500"/>
<ellipse cx="474.943" cy="193.521" rx="2.21367" ry="2.95156" transform="rotate(-111.777 474.943 193.521)" fill="#F59500"/>
<ellipse cx="278.692" cy="206.863" rx="2.21367" ry="2.95156" transform="rotate(113.223 278.692 206.863)" fill="#F59500"/>
<ellipse cx="537.998" cy="240.701" rx="2.21367" ry="2.95156" transform="rotate(-111.777 537.998 240.701)" fill="#F59500"/>
<ellipse cx="443.975" cy="319.011" rx="2.21367" ry="2.95156" transform="rotate(113.223 443.975 319.011)" fill="#F59500"/>
<ellipse cx="302.277" cy="274.685" rx="2.21367" ry="2.95156" transform="rotate(-111.777 302.277 274.685)" fill="#F59500"/>
<ellipse cx="362.785" cy="372.091" rx="2.21367" ry="2.95156" transform="rotate(-111.777 362.785 372.091)" fill="#F59500"/>
<ellipse cx="235.893" cy="363.292" rx="2.21367" ry="2.95156" transform="rotate(113.223 235.893 363.292)" fill="#F59500"/>
<ellipse cx="528.609" cy="120.701" rx="2.21367" ry="2.95156" transform="rotate(-111.777 528.609 120.701)" fill="#F59500"/>
<ellipse cx="222.61" cy="426.738" rx="2.21367" ry="2.95156" transform="rotate(113.223 222.61 426.738)" fill="#F59500"/>
<ellipse cx="471.992" cy="57.7477" rx="2.21367" ry="2.95156" transform="rotate(-111.777 471.992 57.7477)" fill="#F59500"/>
<ellipse cx="522.17" cy="10.5212" rx="2.21367" ry="2.95156" transform="rotate(-111.777 522.17 10.5212)" fill="#F59500"/>
<ellipse cx="147.344" cy="321.964" rx="2.21367" ry="2.95156" transform="rotate(113.223 147.344 321.964)" fill="#F59500"/>
<ellipse cx="163.581" cy="389.847" rx="2.21367" ry="2.95156" transform="rotate(113.223 163.581 389.847)" fill="#F59500"/>
<ellipse cx="604.781" cy="69.5602" rx="2.21367" ry="2.95156" transform="rotate(-111.777 604.781 69.5602)" fill="#F59500"/>
<ellipse cx="193.127" cy="59.7526" rx="2.21367" ry="2.95156" transform="rotate(42.0279 193.127 59.7526)" fill="#F59500"/>
<ellipse cx="274.298" cy="43.0502" rx="2.21367" ry="2.95156" transform="rotate(113.223 274.298 43.0502)" fill="#F59500"/>
<ellipse cx="340.674" cy="110.925" rx="2.21367" ry="2.95156" transform="rotate(113.223 340.674 110.925)" fill="#F59500"/>
<ellipse cx="213.755" cy="10.5814" rx="2.21367" ry="2.95156" transform="rotate(113.223 213.755 10.5814)" fill="#F59500"/>
<ellipse cx="393.801" cy="147.824" rx="2.21367" ry="2.95156" transform="rotate(113.223 393.801 147.824)" fill="#F59500"/>
<ellipse cx="274.262" cy="127.167" rx="2.21367" ry="2.95156" transform="rotate(113.223 274.262 127.167)" fill="#F59500"/>
<ellipse cx="198.999" cy="104.558" rx="2.21367" ry="2.95156" transform="rotate(113.223 198.999 104.558)" fill="#F59500"/>
<ellipse cx="61.7507" cy="288.019" rx="2.21367" ry="2.95156" transform="rotate(113.223 61.7507 288.019)" fill="#F59500"/>
<ellipse cx="300.827" cy="429.706" rx="2.21367" ry="2.95156" transform="rotate(113.223 300.827 429.706)" fill="#F59500"/>
<ellipse cx="88.3151" cy="426.753" rx="2.21367" ry="2.95156" transform="rotate(113.223 88.3151 426.753)" fill="#F59500"/>
<ellipse cx="635.804" cy="425.216" rx="2.21367" ry="2.95156" transform="rotate(-111.777 635.804 425.216)" fill="#F59500"/>
<ellipse cx="387.897" cy="9.10485" rx="2.21367" ry="2.95156" transform="rotate(113.223 387.897 9.10485)" fill="#F59500"/>
<ellipse cx="637.305" cy="221.62" rx="2.21367" ry="2.95156" transform="rotate(113.223 637.305 221.62)" fill="#F59500"/>
<ellipse cx="498.581" cy="431.175" rx="2.21367" ry="2.95156" transform="rotate(113.223 498.581 431.175)" fill="#F59500"/>
<path d="M289.861 307.704C278.469 286.342 291.827 269.089 297.977 259.004C301.664 248.675 295.764 241.292 289.861 236.127C283.957 230.962 278.311 224.321 281.745 213.253C289.76 187.427 313.477 202.923 328.972 198.496C344.468 194.069 328.232 166.768 346.679 159.39C365.126 152.011 378.411 165.291 388.004 167.505C397.596 169.718 416.778 162.339 433.012 167.504C442.247 170.442 456.624 188.903 448.507 207.35C452.935 225.059 472.123 219.793 472.12 244.244C472.117 267.119 450.72 274.499 441.128 281.14C431.535 287.781 443.345 299.586 438.918 313.606C434.696 326.975 416.044 334.267 401.285 335.005C385.897 335.774 377.67 325.412 360.699 322.46C343.727 319.509 342.251 329.841 325.279 329.841L325.278 329.841C315.481 329.841 301.666 329.841 289.861 307.704Z" fill="#FDFDFD" stroke="#FDFDFD" stroke-width="2.95156" stroke-linecap="round"/>
<ellipse cx="373.983" cy="241.286" rx="35.4187" ry="31.7292" transform="rotate(-15 373.983 241.286)" fill="#F59500"/>
<path d="M375.457 217.686C384.558 215.719 405.71 223.59 402.759 248.68" stroke="#FDC368" stroke-width="2.95156" stroke-linecap="round"/>
<path d="M596.826 79.8565C595.072 82.5129 593.57 92.0105 593.038 96.4273C591.615 99.3019 583.021 102.21 583.911 103.753C585.246 106.064 586.668 103.189 591.855 103.276C597.042 103.363 597.319 109.287 601.491 111.069C605.582 112.816 609.879 111.362 612.962 109.583C616.044 107.803 622.772 107.001 626.95 103.561C631.129 100.121 631.039 98.1867 636.729 93.8059C645.975 86.687 643.6 75.4557 643.036 72.6992C642.472 69.9427 634.083 69.649 632.097 69.7682C630.111 69.8874 626.465 68.9104 623.589 67.4885C620.714 66.0667 620.062 68.4964 614.874 68.4091C609.687 68.3218 599.019 76.5359 596.826 79.8565Z" fill="#0B5A0B"/>
<path fill-rule="evenodd" clip-rule="evenodd" d="M634.545 77.5716C634.806 77.9877 634.68 78.5369 634.264 78.7982C630.867 80.9313 625.632 84.1595 620.967 86.9124C618.636 88.2884 616.441 89.5497 614.686 90.4971C613.809 90.9704 613.034 91.3699 612.402 91.6673C611.799 91.9514 611.247 92.1818 610.854 92.2624C610.622 92.3097 610.26 92.4451 609.756 92.6914C609.265 92.9314 608.69 93.2515 608.045 93.6314C607.177 94.1433 606.218 94.7436 605.203 95.3781C604.704 95.6903 604.192 96.0107 603.671 96.333C602.107 97.3004 600.479 98.274 598.983 99.0222C597.518 99.7551 596.062 100.334 594.873 100.406C594.516 100.427 593.78 100.615 592.663 101.005C591.581 101.383 590.232 101.916 588.697 102.563C585.628 103.856 581.86 105.584 578.086 107.378C570.528 110.97 563.015 114.798 561.123 115.89C560.697 116.136 560.153 115.99 559.907 115.565C559.661 115.139 559.807 114.595 560.233 114.349C562.193 113.217 569.765 109.363 577.322 105.77C581.106 103.972 584.902 102.231 588.006 100.923C589.557 100.27 590.945 99.7203 592.077 99.3251C593.175 98.9421 594.13 98.6676 594.766 98.6294C595.563 98.5816 596.738 98.1558 598.187 97.4307C599.606 96.7209 601.177 95.7835 602.735 94.8195C603.236 94.5095 603.738 94.1956 604.233 93.8864C605.259 93.244 606.253 92.6222 607.142 92.0985C607.803 91.7087 608.423 91.3622 608.975 91.0927C609.513 90.8296 610.039 90.6127 610.497 90.519C610.654 90.4868 611.026 90.3486 611.644 90.0575C612.234 89.7798 612.977 89.3974 613.84 88.9312C615.566 87.9997 617.739 86.7515 620.063 85.38C624.709 82.6379 629.929 79.4187 633.318 77.2911C633.734 77.0298 634.284 77.1554 634.545 77.5716Z" fill="#5F9631"/>
<path d="M82.3495 354.538C85.1967 353.115 91.2469 345.641 93.9161 342.082C96.5854 340.304 105.483 342.082 105.483 340.301C105.483 337.632 102.813 339.411 98.3646 336.742C93.9159 334.073 96.6382 328.805 93.9161 325.176C91.2467 321.617 86.798 320.727 83.2391 320.727C79.6802 320.727 73.452 318.058 68.1136 318.947C62.7751 319.837 61.8854 321.557 54.7675 322.506C43.2009 324.049 39.6421 334.963 38.7524 337.632C37.8627 340.301 44.9805 344.75 46.76 345.64C48.5395 346.529 51.2087 349.198 52.9882 351.868C54.7677 354.537 56.5471 352.759 60.9958 355.428C65.4445 358.097 78.7906 356.318 82.3495 354.538Z" fill="#0B5A0B"/>
<path fill-rule="evenodd" clip-rule="evenodd" d="M48.5397 337.663C48.5215 337.172 48.9048 336.759 49.3959 336.741C53.4048 336.593 59.5526 336.414 64.9684 336.362C67.6753 336.337 70.2074 336.342 72.2009 336.399C73.1969 336.427 74.0679 336.469 74.7634 336.527C75.4277 336.583 76.0208 336.659 76.4023 336.786C76.6262 336.861 77.0076 336.925 77.5672 336.963C78.1125 337.001 78.7709 337.012 79.5188 337.005C80.5266 336.996 81.6578 336.955 82.8534 336.913C83.4416 336.892 84.0454 336.871 84.6577 336.852C86.496 336.797 88.393 336.767 90.0623 336.867C91.6976 336.965 93.2484 337.192 94.3136 337.724C94.6331 337.884 95.3646 338.089 96.5268 338.31C97.6529 338.524 99.0885 338.737 100.741 338.944C104.045 339.359 108.172 339.747 112.337 340.08C120.679 340.747 129.1 341.189 131.285 341.189C131.776 341.189 132.174 341.588 132.174 342.079C132.174 342.57 131.776 342.969 131.285 342.969C129.021 342.969 120.537 342.521 112.196 341.854C108.019 341.52 103.861 341.129 100.52 340.71C98.8497 340.5 97.3728 340.282 96.1946 340.058C95.0526 339.841 94.088 339.601 93.5178 339.316C92.8035 338.959 91.5739 338.74 89.956 338.644C88.3722 338.549 86.5434 338.575 84.7116 338.631C84.1224 338.649 83.5309 338.67 82.9483 338.69C81.7378 338.733 80.566 338.775 79.5351 338.784C78.7676 338.791 78.0567 338.781 77.4446 338.739C76.8469 338.697 76.283 338.622 75.8396 338.474C75.6872 338.424 75.296 338.357 74.6153 338.3C73.9658 338.246 73.131 338.206 72.1501 338.178C70.1898 338.122 67.6838 338.116 64.9855 338.142C59.591 338.194 53.4604 338.371 49.4617 338.519C48.9707 338.538 48.5579 338.154 48.5397 337.663Z" fill="#5F9631"/>
<path d="M369.558 448.728C372.577 449.735 382.14 448.728 386.544 448.099C389.689 448.729 394.723 456.277 395.982 455.018C397.87 453.131 394.724 452.502 393.466 447.469C392.207 442.435 397.857 440.635 398.499 436.144C399.128 431.74 396.611 427.965 394.095 425.449C391.578 422.932 389.062 416.641 384.658 413.495C380.254 410.349 378.408 410.937 372.704 406.575C363.435 399.486 353.201 404.687 350.684 405.946C348.168 407.204 350.055 415.383 350.684 417.27C351.313 419.157 351.313 422.932 350.684 426.078C350.055 429.224 352.571 429.225 353.829 434.258C355.087 439.291 365.783 447.47 369.558 448.728Z" fill="#0B5A0B"/>
<path fill-rule="evenodd" clip-rule="evenodd" d="M357.582 412.882C357.916 412.522 358.479 412.501 358.839 412.835C361.779 415.565 366.252 419.786 370.119 423.579C372.051 425.474 373.838 427.269 375.207 428.719C375.891 429.443 376.478 430.088 376.928 430.621C377.359 431.13 377.724 431.604 377.904 431.963C378.01 432.175 378.234 432.489 378.603 432.912C378.961 433.325 379.42 433.798 379.953 434.322C380.672 435.028 381.501 435.799 382.376 436.615C382.807 437.016 383.249 437.428 383.695 437.848C385.034 439.108 386.396 440.429 387.506 441.68C388.593 442.905 389.529 444.162 389.906 445.292C390.019 445.631 390.391 446.293 391.057 447.271C391.702 448.218 392.567 449.384 393.588 450.699C395.631 453.329 398.276 456.522 400.985 459.702C406.412 466.073 412.053 472.339 413.598 473.884C413.946 474.232 413.946 474.795 413.598 475.143C413.251 475.49 412.687 475.49 412.34 475.143C410.739 473.542 405.057 467.226 399.63 460.856C396.914 457.667 394.25 454.451 392.183 451.791C391.151 450.462 390.261 449.264 389.586 448.272C388.932 447.311 388.419 446.459 388.218 445.855C387.965 445.097 387.25 444.073 386.175 442.861C385.122 441.674 383.81 440.399 382.475 439.143C382.046 438.739 381.613 438.336 381.186 437.938C380.3 437.113 379.442 436.314 378.707 435.591C378.159 435.054 377.663 434.544 377.261 434.081C376.867 433.629 376.521 433.177 376.312 432.759C376.241 432.616 376.011 432.292 375.57 431.77C375.149 431.273 374.587 430.654 373.913 429.941C372.567 428.515 370.799 426.739 368.873 424.849C365.021 421.071 360.561 416.862 357.629 414.139C357.269 413.805 357.248 413.242 357.582 412.882Z" fill="#5F9631"/>
<path d="M455.694 158.72C458.714 159.727 468.277 158.72 472.681 158.091C475.826 158.721 480.86 166.27 482.119 165.01C484.006 163.123 480.861 162.494 479.602 157.461C478.344 152.428 483.994 150.628 484.636 146.136C485.265 141.732 482.748 137.957 480.232 135.441C477.715 132.924 475.198 126.633 470.794 123.487C466.39 120.342 464.545 120.929 458.841 116.567C449.571 109.478 439.338 114.679 436.821 115.938C434.304 117.196 436.192 125.375 436.821 127.262C437.45 129.15 437.45 132.924 436.821 136.07C436.192 139.216 438.708 139.217 439.966 144.25C441.224 149.283 451.919 157.462 455.694 158.72Z" fill="#0B5A0B"/>
<path fill-rule="evenodd" clip-rule="evenodd" d="M443.719 122.874C444.053 122.514 444.616 122.493 444.976 122.827C447.916 125.557 452.389 129.778 456.255 133.571C458.188 135.467 459.974 137.261 461.344 138.711C462.028 139.435 462.614 140.081 463.065 140.614C463.496 141.123 463.861 141.596 464.041 141.956C464.146 142.167 464.371 142.482 464.739 142.905C465.098 143.317 465.556 143.79 466.09 144.314C466.809 145.02 467.637 145.791 468.513 146.607C468.943 147.008 469.385 147.42 469.832 147.84C471.171 149.1 472.533 150.421 473.643 151.672C474.73 152.897 475.666 154.154 476.043 155.284C476.156 155.623 476.528 156.285 477.194 157.263C477.839 158.211 478.703 159.376 479.725 160.692C481.768 163.321 484.412 166.514 487.122 169.695C492.548 176.065 498.19 182.332 499.735 183.877C500.083 184.224 500.083 184.788 499.735 185.135C499.388 185.482 498.824 185.482 498.477 185.135C496.876 183.534 491.193 177.218 485.767 170.849C483.05 167.659 480.386 164.443 478.32 161.783C477.287 160.454 476.397 159.256 475.723 158.264C475.068 157.303 474.556 156.452 474.355 155.847C474.102 155.089 473.387 154.065 472.311 152.853C471.258 151.666 469.947 150.392 468.612 149.136C468.183 148.732 467.75 148.328 467.323 147.931C466.437 147.105 465.579 146.306 464.843 145.584C464.296 145.046 463.8 144.536 463.397 144.073C463.004 143.621 462.658 143.169 462.449 142.751C462.377 142.608 462.148 142.284 461.706 141.763C461.286 141.265 460.724 140.646 460.05 139.933C458.704 138.507 456.936 136.731 455.009 134.841C451.158 131.063 446.698 126.854 443.765 124.131C443.405 123.797 443.384 123.234 443.719 122.874Z" fill="#5F9631"/>
<path d="M524.23 47.8972C526.366 37.2203 534.914 32.1785 539.362 30.9922C557.975 34.5511 556.195 58.574 557.975 61.2433C559.754 63.9125 560.644 71.0304 558.937 76.3688C557.04 82.3011 549.142 84.3764 546.473 86.1559C543.804 87.9354 544.694 102.171 543.805 102.171C541.136 102.171 541.135 91.4943 539.356 89.7148C537.367 87.7251 531.346 86.1559 526.009 85.2662C521.621 84.5345 521.561 69.2509 521.561 66.5817C521.561 63.9125 521.561 61.2433 524.23 47.8972Z" fill="#0B5A0B"/>
<path fill-rule="evenodd" clip-rule="evenodd" d="M539.354 39C539.845 39 540.243 39.3983 540.243 39.8897C540.243 43.9171 540.02 49.2758 539.798 54.1659C539.765 54.8822 539.733 55.5879 539.701 56.2778C539.515 60.3187 539.354 63.8148 539.354 65.6921C539.354 67.3756 540.003 71.738 540.786 76.1006C541.567 80.4561 542.447 84.6134 542.867 85.8747C543.001 86.2766 543.117 86.9067 543.221 87.6488C543.328 88.4116 543.432 89.3563 543.529 90.4248C543.723 92.563 543.892 95.2235 544.007 97.9678C544.234 103.419 544.253 109.329 543.79 112.105C543.709 112.589 543.251 112.917 542.766 112.836C542.282 112.755 541.954 112.297 542.035 111.812C542.462 109.249 542.458 103.525 542.229 98.042C542.115 95.3196 541.948 92.6888 541.757 90.5857C541.662 89.5336 541.561 88.6203 541.459 87.8969C541.354 87.1528 541.256 86.6686 541.179 86.4374C540.71 85.0295 539.809 80.7344 539.034 76.4149C538.26 72.1025 537.574 67.5676 537.574 65.6921C537.574 63.7698 537.738 60.2209 537.924 56.1891C537.955 55.5 537.988 54.7967 538.02 54.0851C538.243 49.1882 538.464 43.87 538.464 39.8897C538.464 39.3983 538.862 39 539.354 39Z" fill="#5F9631"/>
<path d="M129.236 418.525C122.048 426.704 112.125 426.796 107.679 425.599C93.3397 413.211 106.892 393.296 106.686 390.095C106.479 386.893 109.268 380.284 113.415 376.515C118.024 372.325 125.901 374.477 129.103 374.27C132.304 374.064 138.651 361.29 139.421 361.735C141.733 363.07 136.394 372.316 137.046 374.747C137.774 377.465 142.203 381.834 146.38 385.273C149.814 388.101 142.225 401.367 140.89 403.679C139.556 405.99 138.221 408.302 129.236 418.525Z" fill="#0B5A0B"/>
<path fill-rule="evenodd" clip-rule="evenodd" d="M111.687 418.665C111.262 418.419 111.116 417.875 111.362 417.45C113.375 413.962 116.248 409.433 118.886 405.309C119.272 404.705 119.653 404.11 120.026 403.528C122.207 400.122 124.095 397.175 125.034 395.549C125.875 394.091 127.495 389.989 128.998 385.819C130.498 381.656 131.816 377.616 132.082 376.314C132.167 375.899 132.382 375.295 132.663 374.6C132.951 373.886 133.333 373.016 133.784 372.042C134.685 370.093 135.869 367.705 137.142 365.271C139.67 360.436 142.609 355.309 144.398 353.136C144.71 352.757 145.271 352.702 145.65 353.015C146.029 353.327 146.084 353.888 145.771 354.267C144.12 356.273 141.262 361.233 138.718 366.095C137.456 368.51 136.285 370.872 135.399 372.789C134.956 373.748 134.586 374.589 134.313 375.266C134.031 375.963 133.874 376.432 133.826 376.67C133.528 378.124 132.16 382.294 130.672 386.422C129.186 390.544 127.512 394.814 126.575 396.439C125.613 398.103 123.697 401.095 121.521 404.494C121.149 405.075 120.769 405.668 120.385 406.268C117.744 410.397 114.893 414.892 112.903 418.339C112.657 418.765 112.113 418.911 111.687 418.665Z" fill="#5F9631"/>
<path d="M157.889 232.92C165.077 224.742 175 224.649 179.446 225.846C193.785 238.234 180.233 258.149 180.439 261.351C180.646 264.552 177.857 271.161 173.71 274.931C169.101 279.12 161.224 276.968 158.022 277.175C154.821 277.381 148.474 290.155 147.704 289.71C145.392 288.376 150.731 279.129 150.079 276.698C149.351 273.981 144.922 269.611 140.745 266.172C137.311 263.345 144.9 250.078 146.235 247.767C147.569 245.455 148.904 243.144 157.889 232.92Z" fill="#0B5A0B"/>
<path fill-rule="evenodd" clip-rule="evenodd" d="M175.438 232.78C175.863 233.026 176.009 233.57 175.763 233.996C173.75 237.484 170.877 242.013 168.239 246.136C167.853 246.74 167.472 247.335 167.099 247.917C164.918 251.323 163.03 254.271 162.091 255.896C161.25 257.354 159.63 261.457 158.127 265.626C156.627 269.789 155.309 273.829 155.043 275.132C154.958 275.547 154.743 276.15 154.462 276.845C154.174 277.559 153.792 278.43 153.341 279.403C152.44 281.352 151.256 283.741 149.983 286.175C147.455 291.009 144.516 296.137 142.727 298.309C142.415 298.689 141.854 298.743 141.475 298.431C141.096 298.118 141.041 297.558 141.354 297.178C143.005 295.172 145.863 290.212 148.407 285.35C149.669 282.935 150.84 280.573 151.726 278.657C152.169 277.698 152.539 276.856 152.812 276.179C153.094 275.482 153.251 275.014 153.299 274.775C153.597 273.321 154.965 269.151 156.453 265.023C157.939 260.901 159.613 256.631 160.55 255.007C161.512 253.342 163.428 250.35 165.604 246.951C165.976 246.371 166.356 245.778 166.74 245.178C169.381 241.048 172.232 236.553 174.222 233.106C174.468 232.68 175.012 232.535 175.438 232.78Z" fill="#5F9631"/>
<path d="M571.886 46.2096C571.973 51.3984 577.603 59.4437 578.758 64.5622C579.932 69.3482 573.95 78.2246 575.491 79.1144C577.821 80.4594 583.829 66.5537 589.014 66.3721C597.402 66.0784 604.814 62.1385 607.809 58.7307C609.666 56.6172 612.787 55.4405 616.79 48.5055C621.261 40.7616 623.685 28.8586 620.327 22.8063C619.106 20.6058 614.965 12.519 601.508 10.9141C588.052 9.3091 583.33 17.9583 578.059 23.0604C573.405 27.5665 571.781 39.9213 571.886 46.2096Z" fill="#0B5A0B"/>
<path fill-rule="evenodd" clip-rule="evenodd" d="M604.492 20.9682C604.983 20.9976 605.357 21.4191 605.327 21.9096C605.079 26.048 603.003 33.2722 598.563 39.1386C590.398 49.9247 583.215 63.9657 580.788 71.6761C580.258 73.3585 579.13 75.435 577.7 77.6535C576.261 79.8868 574.48 82.3203 572.599 84.728C568.838 89.5439 564.65 94.2961 561.938 97.2049C561.602 97.5644 561.039 97.5841 560.68 97.249C560.321 96.9139 560.301 96.3509 560.636 95.9915C563.321 93.1121 567.474 88.3995 571.197 83.6327C573.058 81.2491 574.805 78.8618 576.205 76.6896C577.614 74.5027 578.635 72.5892 579.091 71.1418C581.589 63.203 588.879 48.9823 597.144 38.0646C601.362 32.4921 603.322 25.6084 603.551 21.803C603.58 21.3125 604.002 20.9387 604.492 20.9682Z" fill="#5F9631"/>
<path d="M87.1216 396.158C89.6408 391.621 88.7871 381.838 90.3466 376.828C91.7225 372.096 101.341 367.4 100.452 365.859C99.1066 363.529 86.9508 372.568 82.3698 370.133C74.9582 366.193 66.5695 365.899 62.272 367.353C59.6068 368.254 56.3157 367.713 49.3811 371.717C41.6375 376.188 33.5865 385.284 33.4689 392.205C33.4262 394.721 32.9687 403.795 43.8201 411.913C54.6715 420.032 63.0854 414.902 70.2005 413.119C76.4844 411.544 84.0687 401.656 87.1216 396.158Z" fill="#0B5A0B"/>
<path fill-rule="evenodd" clip-rule="evenodd" d="M46.2613 401.714C45.8512 401.444 45.7383 400.892 46.009 400.482C48.2933 397.022 53.7028 391.803 60.4818 388.943C72.9458 383.684 86.187 375.116 92.1438 369.652C93.4436 368.46 95.4591 367.226 97.8064 366.019C100.169 364.805 102.929 363.588 105.762 362.443C111.427 360.153 117.43 358.132 121.233 356.969C121.703 356.825 122.201 357.089 122.344 357.559C122.488 358.029 122.224 358.527 121.754 358.67C117.989 359.822 112.036 361.826 106.428 364.093C103.624 365.226 100.918 366.421 98.6199 367.602C96.306 368.791 94.4649 369.938 93.3466 370.964C87.2133 376.589 73.7896 385.26 61.1735 390.583C54.7341 393.299 49.5945 398.281 47.494 401.462C47.2233 401.872 46.6714 401.985 46.2613 401.714Z" fill="#5F9631"/>
<path d="M625.331 371.309C630.366 372.568 639.594 369.211 644.837 369.421C649.764 369.525 656.79 377.601 658.048 376.342C659.95 374.44 648.073 365.038 649.24 359.983C651.127 351.804 649.24 343.625 646.723 339.85C645.163 337.509 644.834 334.19 639.171 328.528C632.848 322.206 621.978 316.784 615.263 318.461C612.821 319.071 603.938 320.978 598.905 333.56C593.872 346.143 601.005 352.943 604.569 359.354C607.717 365.016 619.23 369.783 625.331 371.309Z" fill="#0B5A0B"/>
<path fill-rule="evenodd" clip-rule="evenodd" d="M609.389 333.273C609.544 332.807 610.048 332.555 610.515 332.711C614.448 334.022 620.889 337.896 625.406 343.704C633.711 354.382 645.415 364.954 652.234 369.294C653.722 370.241 655.436 371.868 657.209 373.824C658.993 375.792 660.883 378.142 662.722 380.582C666.4 385.462 669.906 390.737 672.014 394.11C672.275 394.526 672.148 395.075 671.731 395.336C671.315 395.596 670.766 395.469 670.505 395.053C668.419 391.714 664.942 386.483 661.301 381.653C659.48 379.238 657.626 376.933 655.891 375.019C654.143 373.092 652.559 371.61 651.279 370.795C644.257 366.327 632.408 355.605 624.001 344.796C619.71 339.28 613.568 335.604 609.952 334.399C609.486 334.243 609.234 333.739 609.389 333.273Z" fill="#5F9631"/>
<path d="M200.862 -1.76428C200.775 -6.95312 195.145 -14.9984 193.99 -20.1169C192.816 -24.9028 198.798 -33.7793 197.257 -34.669C194.927 -36.014 188.919 -22.1084 183.734 -21.9268C175.346 -21.6331 167.934 -17.6932 164.939 -14.2854C163.082 -12.1719 159.961 -10.9952 155.958 -4.06022C151.487 3.68373 149.063 15.5867 152.421 21.639C153.642 23.8395 157.783 31.9263 171.24 33.5313C184.697 35.1362 189.418 26.487 194.689 21.3849C199.343 16.8788 200.968 4.52401 200.862 -1.76428Z" fill="#0B5A0B"/>
<path fill-rule="evenodd" clip-rule="evenodd" d="M168.256 23.4772C167.765 23.4477 167.391 23.0262 167.421 22.5357C167.669 18.3973 169.745 11.1731 174.185 5.3067C182.35 -5.4794 189.533 -19.5204 191.96 -27.2308C192.49 -28.9132 193.618 -30.9897 195.048 -33.2082C196.487 -35.4415 198.268 -37.8749 200.149 -40.2827C203.91 -45.0986 208.099 -49.8508 210.811 -52.7596C211.146 -53.119 211.709 -53.1388 212.068 -52.8037C212.427 -52.4686 212.447 -51.9056 212.112 -51.5462C209.427 -48.6668 205.274 -43.9542 201.551 -39.1874C199.69 -36.8038 197.943 -34.4165 196.543 -32.2443C195.134 -30.0574 194.113 -28.1439 193.657 -26.6965C191.159 -18.7577 183.869 -4.53703 175.604 6.38071C171.386 11.9532 169.426 18.8369 169.197 22.6423C169.168 23.1328 168.746 23.5066 168.256 23.4772Z" fill="#5F9631"/>
<path d="M403.984 99.1679C401.033 104.28 392.923 96.1899 363.06 81.5045C342.71 68.0513 326.167 62.7607 329.857 56.3704C339.434 39.7828 363.791 35.9165 384.261 47.7347C404.731 59.5529 413.561 82.5804 403.984 99.1679Z" fill="#F53800"/>
<path d="M380.029 52.1013C359.062 39.996 339.328 52.7446 332.852 61.5018C332.925 65.8037 392.993 100.485 397.493 97.1174C402.809 93.1386 408.146 68.3352 380.029 52.1013Z" fill="#FEA27E"/>
<path d="M380.03 52.1085C358.675 40.6572 341.436 52.5456 334.501 61.6058C333.665 64.5298 348.092 72.0071 353.328 67.3668C355.797 65.1779 352.889 63.6997 357.019 60.9723C361.15 58.245 371.717 69.4581 373.265 71.2039C374.813 72.9498 379.017 74.5244 382.212 76.3692C385.407 78.2139 385.947 80.2298 384.471 82.786C382.995 85.3421 381.176 82.5897 382.257 86.6216C383.121 89.8472 393.152 92.3473 398.06 93.1929C402.757 86.5325 400.85 63.2726 380.03 52.1085Z" fill="#F53800"/>
<path fill-rule="evenodd" clip-rule="evenodd" d="M397.206 74.773C394.814 67.0526 389.361 58.7822 379.335 53.4057C369.031 47.8807 359.809 48.0127 352.336 50.5588C345.089 53.0277 339.429 57.7907 336.054 62.0148C336.061 62.0252 336.068 62.036 336.076 62.0472C336.284 62.3516 336.673 62.759 337.27 63.2304C338.452 64.1636 340.209 65.1618 342.185 65.9484C344.162 66.7351 346.264 67.2732 348.129 67.3578C350.018 67.4434 351.449 67.0586 352.351 66.259C352.777 65.8816 352.893 65.6153 352.948 65.4205C353.007 65.2123 353.018 65.0587 353.037 64.7882C353.048 64.6424 353.06 64.4626 353.084 64.222C353.145 63.6081 353.285 62.8508 353.797 62.0301C354.292 61.2361 355.066 60.4918 356.208 59.7374C357.908 58.615 359.99 59.0848 361.674 59.8185C363.446 60.5903 365.322 61.8846 367.035 63.2548C370.477 66.0077 373.568 69.315 374.372 70.2214C374.932 70.8534 376.112 71.5698 377.796 72.4328C378.28 72.6805 378.8 72.9385 379.337 73.2046C380.538 73.7993 381.821 74.4347 382.952 75.0877C384.68 76.0854 385.98 77.2875 386.496 78.8424C387.029 80.4484 386.604 82.0436 385.752 83.5205C385.246 84.3955 384.636 84.9309 383.964 85.2364C383.794 85.3138 383.632 85.3709 383.486 85.4142C383.53 85.63 383.594 85.8997 383.684 86.2363C383.744 86.4585 384.09 86.9609 385.176 87.6303C386.187 88.2524 387.564 88.8528 389.133 89.4039C391.858 90.3607 394.977 91.1053 397.323 91.5548C398.036 90.1531 398.556 88.0698 398.68 85.4601C398.828 82.3488 398.404 78.6394 397.206 74.773ZM382.79 85.5723C382.792 85.5718 382.793 85.5714 382.795 85.571C382.787 85.5735 382.785 85.5737 382.79 85.5723ZM335.938 61.7957C335.939 61.7957 335.939 61.7988 335.941 61.8046C335.939 61.7986 335.938 61.7956 335.938 61.7957ZM401.628 85.6002C401.465 89.0316 400.67 92.0527 399.268 94.0401L398.73 94.8022L397.811 94.6439C395.304 94.212 391.485 93.358 388.155 92.1888C386.495 91.606 384.896 90.9237 383.629 90.1435C382.438 89.4104 381.206 88.3908 380.833 87.0002C380.571 86.0199 380.396 85.1727 380.476 84.5024C380.524 84.104 380.673 83.646 381.047 83.2681C381.398 82.914 381.802 82.7815 382.025 82.7217C382.158 82.6861 382.402 82.6384 382.494 82.6206C382.512 82.617 382.525 82.6146 382.528 82.6138C382.635 82.5908 382.695 82.5713 382.741 82.5501C382.793 82.5268 382.963 82.4477 383.195 82.0447C383.819 80.9654 383.861 80.2746 383.695 79.7724C383.511 79.2191 382.943 78.4908 381.476 77.6438C380.427 77.038 379.293 76.4768 378.138 75.905C377.578 75.6277 377.013 75.348 376.45 75.0594C374.846 74.2375 373.151 73.2936 372.163 72.1797C371.419 71.3403 368.452 68.168 365.191 65.5598C363.553 64.2494 361.915 63.1427 360.496 62.5245C358.989 61.8683 358.2 61.9593 357.835 62.2005C356.912 62.8097 356.5 63.273 356.302 63.5916C356.12 63.8836 356.058 64.144 356.021 64.5142C356.015 64.5737 356.01 64.6516 356.004 64.7436C355.978 65.1111 355.937 65.7023 355.787 66.2283C355.564 67.0115 355.118 67.7507 354.309 68.4678C352.593 69.9884 350.258 70.4089 347.995 70.3063C345.708 70.2026 343.274 69.5587 341.094 68.6906C338.913 67.8225 336.893 66.693 335.441 65.5469C334.721 64.9786 334.08 64.3584 333.639 63.7123C333.227 63.1104 332.798 62.1977 333.084 61.1966L333.161 60.9276L333.331 60.7054C336.945 55.9843 343.217 50.5477 351.384 47.765C359.603 44.9647 369.678 44.8782 380.729 50.8045C391.523 56.5921 397.433 65.5337 400.026 73.8994C401.32 78.076 401.793 82.1281 401.628 85.6002Z" fill="#FEA27E"/>
<ellipse cx="371.677" cy="56.2176" rx="2.21367" ry="2.95156" transform="rotate(19.1542 371.677 56.2176)" fill="#F59500"/>
<ellipse cx="362.533" cy="53.3873" rx="2.21367" ry="2.95156" transform="rotate(6.5316 362.533 53.3873)" fill="#F59500"/>
<ellipse cx="352.455" cy="56.0905" rx="2.21367" ry="2.95156" transform="rotate(-27.996 352.455 56.0905)" fill="#F59500"/>
<ellipse cx="347.281" cy="62.5397" rx="2.21367" ry="2.95156" transform="rotate(-75 347.281 62.5397)" fill="#F59500"/>
<ellipse cx="379.395" cy="60.7698" rx="2.21367" ry="2.95156" transform="rotate(31.9808 379.395 60.7698)" fill="#F59500"/>
<ellipse cx="385.049" cy="65.7375" rx="2.21367" ry="2.95156" transform="rotate(63.4327 385.049 65.7375)" fill="#F59500"/>
<ellipse cx="391.381" cy="75.2041" rx="2.21367" ry="2.95156" transform="rotate(77.7384 391.381 75.2041)" fill="#F59500"/>
<ellipse cx="391.408" cy="85.5077" rx="2.21367" ry="2.95156" transform="rotate(109.246 391.408 85.5077)" fill="#F59500"/>
<path d="M544.645 163.311C548.819 159.137 554.558 169.051 579.603 190.965C595.778 209.227 610.387 218.619 605.17 223.836C591.626 237.38 567.098 234.81 550.384 218.097C533.671 201.383 531.101 176.855 544.645 163.311Z" fill="#F53800"/>
<path d="M555.602 214.965C572.721 232.085 595.082 224.878 603.604 218.095C604.647 213.921 555.601 164.875 550.384 166.963C544.219 169.43 532.644 192.007 555.602 214.965Z" fill="#FEA27E"/>
<path d="M555.605 214.954C573.269 231.543 592.997 224.521 602.041 217.565C603.605 214.957 591.604 204 585.347 207.127C582.395 208.602 584.821 210.783 580.126 212.348C575.43 213.913 568.125 200.347 567.081 198.26C566.038 196.173 562.385 193.565 559.777 190.956C557.168 188.347 557.168 186.26 559.255 184.173C561.342 182.086 562.387 185.215 562.387 181.041C562.387 177.702 553.345 172.69 548.823 170.603C542.562 175.821 538.384 198.782 555.605 214.954Z" fill="#F53800"/>
<path fill-rule="evenodd" clip-rule="evenodd" d="M544.884 188.619C545.196 196.696 548.323 206.096 556.616 213.884C565.138 221.888 574.081 224.147 581.958 223.622C589.596 223.113 596.297 219.977 600.65 216.77C600.646 216.758 600.642 216.746 600.638 216.733C600.516 216.385 600.245 215.891 599.79 215.281C598.89 214.074 597.451 212.655 595.746 211.384C594.04 210.112 592.149 209.048 590.37 208.484C588.567 207.912 587.085 207.914 586.007 208.453C585.498 208.707 585.317 208.934 585.213 209.108C585.102 209.294 585.052 209.439 584.963 209.696C584.916 209.834 584.857 210.004 584.771 210.23C584.554 210.808 584.222 211.503 583.516 212.163C582.832 212.802 581.892 213.321 580.593 213.754C578.66 214.398 576.772 213.405 575.334 212.261C573.822 211.057 572.346 209.321 571.046 207.554C568.434 204.004 566.304 200.009 565.762 198.926C565.384 198.17 564.43 197.173 563.027 195.904C562.624 195.539 562.188 195.155 561.738 194.759C560.732 193.874 559.657 192.928 558.734 192.005C557.323 190.594 556.379 189.096 556.282 187.461C556.183 185.771 557.006 184.34 558.212 183.135C558.927 182.42 559.655 182.061 560.383 181.94C560.567 181.909 560.738 181.896 560.89 181.892C560.904 181.672 560.912 181.395 560.912 181.046C560.912 180.816 560.708 180.242 559.831 179.314C559.016 178.451 557.842 177.515 556.469 176.576C554.085 174.947 551.264 173.42 549.114 172.379C548.063 173.549 547.021 175.426 546.226 177.915C545.278 180.882 544.727 184.575 544.884 188.619ZM561.603 181.919C561.602 181.919 561.6 181.919 561.599 181.919C561.607 181.919 561.609 181.919 561.603 181.919ZM600.705 217.012C600.705 217.012 600.705 217.008 600.705 217.003C600.706 217.009 600.705 217.012 600.705 217.012ZM543.415 177.017C544.46 173.744 546.011 171.032 547.879 169.475L548.595 168.878L549.442 169.269C551.752 170.335 555.22 172.148 558.134 174.14C559.586 175.132 560.955 176.205 561.977 177.287C562.937 178.303 563.863 179.607 563.863 181.046C563.863 182.061 563.813 182.925 563.562 183.552C563.413 183.924 563.15 184.328 562.691 184.596C562.26 184.847 561.836 184.871 561.605 184.871C561.468 184.871 561.219 184.854 561.126 184.847C561.107 184.846 561.095 184.845 561.091 184.845C560.982 184.839 560.919 184.843 560.868 184.851C560.813 184.86 560.628 184.893 560.299 185.222C559.418 186.103 559.198 186.759 559.229 187.287C559.263 187.869 559.623 188.72 560.821 189.918C561.678 190.774 562.627 191.61 563.595 192.461C564.064 192.874 564.538 193.29 565.007 193.715C566.343 194.924 567.736 196.274 568.402 197.606C568.904 198.609 570.948 202.441 573.423 205.805C574.667 207.495 575.962 208.987 577.173 209.952C578.459 210.976 579.244 211.092 579.66 210.954C580.709 210.604 581.226 210.263 581.5 210.007C581.752 209.772 581.879 209.536 582.01 209.188C582.031 209.132 582.057 209.058 582.087 208.971C582.207 208.623 582.399 208.062 582.68 207.593C583.098 206.894 583.721 206.296 584.688 205.812C586.738 204.788 589.103 204.986 591.262 205.671C593.444 206.363 595.628 207.615 597.51 209.017C599.392 210.421 601.051 212.034 602.156 213.517C602.705 214.252 603.163 215.017 603.423 215.756C603.664 216.444 603.843 217.436 603.307 218.329L603.163 218.569L602.941 218.74C598.229 222.365 590.764 225.993 582.155 226.567C573.491 227.144 563.737 224.62 554.596 216.036C545.668 207.652 542.273 197.485 541.934 188.733C541.765 184.364 542.356 180.328 543.415 177.017Z" fill="#FEA27E"/>
<ellipse cx="564.731" cy="213.127" rx="2.21367" ry="2.95156" transform="rotate(-145.846 564.731 213.127)" fill="#F59500"/>
<ellipse cx="572.831" cy="218.231" rx="2.21367" ry="2.95156" transform="rotate(-158.468 572.831 218.231)" fill="#F59500"/>
<ellipse cx="583.265" cy="218.239" rx="2.21367" ry="2.95156" transform="rotate(167.004 583.265 218.239)" fill="#F59500"/>
<ellipse cx="589.927" cy="213.355" rx="2.21367" ry="2.95156" transform="rotate(120 589.927 213.355)" fill="#F59500"/>
<ellipse cx="558.45" cy="206.743" rx="2.21367" ry="2.95156" transform="rotate(-133.019 558.45 206.743)" fill="#F59500"/>
<ellipse cx="554.28" cy="200.482" rx="2.21367" ry="2.95156" transform="rotate(-101.567 554.28 200.482)" fill="#F59500"/>
<ellipse cx="550.607" cy="189.711" rx="2.21367" ry="2.95156" transform="rotate(-87.2616 550.607 189.711)" fill="#F59500"/>
<ellipse cx="553.252" cy="179.737" rx="2.21367" ry="2.95156" transform="rotate(-55.7544 553.252 179.737)" fill="#F59500"/>
<path d="M269.36 336.025C270.888 341.727 259.432 341.741 227.932 352.473C204.029 357.35 188.591 365.306 186.681 358.179C181.724 339.678 196.213 319.72 219.044 313.603C241.875 307.485 264.402 317.524 269.36 336.025Z" fill="#F53800"/>
<path d="M219.146 319.689C195.761 325.955 190.822 348.924 192.435 359.695C195.528 362.686 262.526 344.734 263.327 339.171C264.273 332.598 250.507 311.286 219.146 319.689Z" fill="#FEA27E"/>
<path d="M219.147 319.693C195.949 326.696 192.166 347.292 193.669 358.602C195.145 361.261 210.634 356.346 211.055 349.363C211.253 346.069 208.152 347.08 209.144 342.231C210.136 337.382 225.537 337.839 227.866 337.978C230.196 338.118 234.281 336.26 237.845 335.305C241.408 334.35 243.216 335.393 243.98 338.244C244.744 341.095 241.511 340.435 245.126 342.522C248.018 344.192 256.879 338.867 260.947 335.995C259.559 327.963 241.763 312.865 219.147 319.693Z" fill="#F53800"/>
<path fill-rule="evenodd" clip-rule="evenodd" d="M247.322 323.591C240.171 319.824 230.468 317.831 219.576 321.119C208.383 324.498 201.956 331.113 198.472 338.197C195.094 345.067 194.459 352.438 195.059 357.811C195.071 357.814 195.084 357.816 195.098 357.819C195.46 357.887 196.023 357.899 196.779 357.811C198.275 357.635 200.223 357.098 202.176 356.257C204.13 355.416 205.997 354.31 207.376 353.051C208.772 351.776 209.512 350.492 209.584 349.288C209.618 348.72 209.512 348.45 209.414 348.273C209.308 348.084 209.207 347.968 209.029 347.763C208.934 347.653 208.816 347.516 208.662 347.329C208.271 346.852 207.835 346.218 207.616 345.276C207.405 344.364 207.426 343.291 207.7 341.949C208.109 339.953 209.913 338.814 211.623 338.142C213.421 337.434 215.663 337.023 217.843 336.781C222.223 336.294 226.748 336.447 227.957 336.519C228.8 336.57 230.141 336.242 231.942 335.661C232.459 335.495 233.01 335.309 233.578 335.117C234.847 334.689 236.204 334.231 237.465 333.893C239.393 333.377 241.162 333.308 242.626 334.042C244.139 334.801 244.966 336.229 245.408 337.876C245.669 338.852 245.616 339.663 245.357 340.353C245.292 340.528 245.218 340.683 245.145 340.817C245.329 340.939 245.565 341.084 245.866 341.258C246.066 341.373 246.665 341.484 247.907 341.189C249.061 340.915 250.459 340.366 251.959 339.645C254.562 338.395 257.295 336.716 259.271 335.375C258.784 333.88 257.679 332.039 255.921 330.106C253.826 327.801 250.903 325.478 247.322 323.591ZM244.765 341.421C244.766 341.42 244.766 341.418 244.767 341.417C244.763 341.424 244.762 341.426 244.765 341.421ZM194.823 357.738C194.823 357.738 194.826 357.739 194.831 357.742C194.825 357.74 194.823 357.738 194.823 357.738ZM258.105 328.12C260.416 330.662 261.99 333.361 262.404 335.757L262.563 336.676L261.801 337.214C259.723 338.681 256.418 340.778 253.237 342.306C251.651 343.068 250.037 343.716 248.59 344.06C247.23 344.384 245.637 344.534 244.391 343.814C243.512 343.307 242.789 342.831 242.372 342.301C242.124 341.985 241.905 341.556 241.903 341.024C241.901 340.526 242.093 340.146 242.208 339.947C242.276 339.828 242.416 339.621 242.468 339.543C242.478 339.528 242.485 339.518 242.487 339.514C242.547 339.423 242.575 339.366 242.593 339.319C242.613 339.266 242.677 339.09 242.557 338.64C242.234 337.436 241.776 336.918 241.303 336.68C240.782 336.419 239.865 336.306 238.229 336.744C237.059 337.058 235.86 337.462 234.639 337.875C234.047 338.075 233.45 338.277 232.848 338.471C231.132 339.023 229.266 339.555 227.78 339.465C226.66 339.398 222.32 339.253 218.169 339.714C216.084 339.946 214.144 340.322 212.703 340.888C211.173 341.49 210.68 342.112 210.592 342.541C210.37 343.624 210.407 344.243 210.492 344.609C210.569 344.944 210.71 345.171 210.946 345.459C210.984 345.505 211.035 345.564 211.095 345.634C211.337 345.912 211.726 346.359 211.992 346.837C212.388 347.548 212.595 348.387 212.53 349.466C212.393 351.754 211.039 353.703 209.366 355.23C207.676 356.774 205.499 358.04 203.344 358.968C201.188 359.896 198.961 360.526 197.124 360.742C196.213 360.849 195.321 360.864 194.552 360.719C193.835 360.584 192.886 360.243 192.381 359.333L192.245 359.088L192.208 358.81C191.425 352.917 192.016 344.638 195.823 336.895C199.655 329.103 206.717 321.918 218.723 318.294C230.447 314.754 240.949 316.897 248.698 320.98C252.566 323.018 255.766 325.548 258.105 328.12Z" fill="#FEA27E"/>
<ellipse cx="216.158" cy="328.496" rx="2.21367" ry="2.95156" transform="rotate(-25.8458 216.158 328.496)" fill="#F59500"/>
<ellipse cx="207.685" cy="332.949" rx="2.21367" ry="2.95156" transform="rotate(-38.4684 207.685 332.949)" fill="#F59500"/>
<ellipse cx="202.468" cy="341.996" rx="2.21367" ry="2.95156" transform="rotate(-72.996 202.468 341.996)" fill="#F59500"/>
<ellipse cx="203.367" cy="350.209" rx="2.21367" ry="2.95156" transform="rotate(-120 203.367 350.209)" fill="#F59500"/>
<ellipse cx="224.828" cy="326.26" rx="2.21367" ry="2.95156" transform="rotate(-13.0192 224.828 326.26)" fill="#F59500"/>
<ellipse cx="232.339" cy="325.766" rx="2.21367" ry="2.95156" transform="rotate(18.4327 232.339 325.766)" fill="#F59500"/>
<ellipse cx="243.506" cy="327.977" rx="2.21367" ry="2.95156" transform="rotate(32.7384 243.506 327.977)" fill="#F59500"/>
<ellipse cx="250.817" cy="335.253" rx="2.21367" ry="2.95156" transform="rotate(64.2456 250.817 335.253)" fill="#F59500"/>
<path d="M69.4044 145.601C73.5785 141.426 79.3179 151.34 104.363 173.254C120.537 191.516 135.147 200.908 129.929 206.125C116.386 219.669 91.8573 217.099 75.1438 200.386C58.4303 183.673 55.8607 159.144 69.4044 145.601Z" fill="#F53800"/>
<path d="M80.3617 197.254C97.4808 214.374 119.842 207.167 128.364 200.384C129.407 196.21 80.3612 147.164 75.1439 149.252C68.9785 151.719 57.4042 174.296 80.3617 197.254Z" fill="#FEA27E"/>
<path d="M80.3648 197.243C98.0286 213.832 117.757 206.81 126.801 199.854C128.365 197.246 116.364 186.289 110.106 189.416C107.154 190.891 109.581 193.072 104.885 194.637C100.189 196.202 92.8847 182.637 91.8411 180.549C90.7976 178.462 87.1452 175.854 84.5364 173.245C81.9276 170.636 81.9276 168.549 84.0146 166.462C86.1017 164.375 87.1465 167.504 87.1465 163.33C87.1465 159.991 78.1047 154.98 73.5827 152.892C67.3215 158.11 63.144 181.071 80.3648 197.243Z" fill="#F53800"/>
<path fill-rule="evenodd" clip-rule="evenodd" d="M69.6434 170.908C69.9559 178.985 73.0824 188.385 81.3758 196.173C89.8982 204.177 98.8405 206.436 106.718 205.911C114.356 205.402 121.057 202.266 125.41 199.059C125.406 199.047 125.402 199.035 125.397 199.022C125.275 198.674 125.004 198.18 124.55 197.57C123.65 196.363 122.211 194.944 120.506 193.673C118.8 192.401 116.909 191.337 115.129 190.773C113.327 190.202 111.845 190.203 110.767 190.742C110.258 190.996 110.077 191.223 109.973 191.397C109.862 191.583 109.812 191.728 109.723 191.985C109.675 192.123 109.617 192.293 109.531 192.52C109.313 193.097 108.982 193.792 108.275 194.452C107.592 195.091 106.652 195.61 105.353 196.043C103.42 196.687 101.532 195.694 100.094 194.55C98.5822 193.346 97.1058 191.61 95.8057 189.843C93.1934 186.293 91.0637 182.299 90.5219 181.215C90.1442 180.459 89.1894 179.462 87.7864 178.193C87.3836 177.828 86.9474 177.444 86.4974 177.048C85.4917 176.163 84.4171 175.217 83.4936 174.294C82.0827 172.883 81.1383 171.385 81.0421 169.75C80.9427 168.06 81.7661 166.63 82.9719 165.424C83.6864 164.709 84.4149 164.35 85.1423 164.229C85.3265 164.198 85.4976 164.185 85.6502 164.181C85.6637 163.961 85.6714 163.684 85.6714 163.335C85.6714 163.105 85.4676 162.531 84.5911 161.603C83.7762 160.74 82.6017 159.804 81.2284 158.866C78.8443 157.236 76.0236 155.71 73.8737 154.668C72.8224 155.838 71.781 157.715 70.9858 160.204C70.0377 163.171 69.4869 166.864 69.6434 170.908ZM86.3631 164.208C86.3615 164.208 86.3599 164.208 86.3584 164.208C86.3667 164.208 86.3686 164.208 86.3631 164.208ZM125.465 199.301C125.465 199.301 125.465 199.298 125.465 199.292C125.465 199.298 125.465 199.301 125.465 199.301ZM68.1743 159.306C69.2199 156.033 70.7704 153.321 72.6387 151.764L73.3551 151.167L74.2019 151.558C76.5117 152.624 79.9801 154.437 82.8937 156.429C84.3461 157.421 85.7147 158.494 86.7365 159.576C87.6966 160.592 88.623 161.896 88.623 163.335C88.623 164.35 88.5723 165.214 88.3215 165.841C88.1724 166.213 87.9099 166.617 87.4505 166.885C87.0199 167.136 86.5955 167.16 86.3648 167.16C86.2274 167.16 85.9788 167.143 85.8856 167.136C85.8669 167.135 85.8544 167.134 85.8505 167.134C85.7415 167.128 85.6786 167.132 85.6282 167.14C85.5727 167.149 85.388 167.182 85.0589 167.511C84.1777 168.392 83.9575 169.048 83.9886 169.576C84.0228 170.158 84.3828 171.009 85.5807 172.207C86.4374 173.063 87.3872 173.899 88.3548 174.75C88.8241 175.163 89.2975 175.579 89.7666 176.004C91.1029 177.213 92.4961 178.563 93.1619 179.895C93.6636 180.898 95.708 184.73 98.183 188.094C99.4264 189.784 100.722 191.276 101.933 192.241C103.219 193.265 104.004 193.381 104.419 193.243C105.468 192.893 105.986 192.552 106.26 192.296C106.512 192.061 106.639 191.825 106.77 191.477C106.791 191.421 106.816 191.347 106.846 191.26C106.966 190.912 107.159 190.351 107.44 189.882C107.858 189.183 108.48 188.585 109.447 188.101C111.498 187.077 113.863 187.275 116.022 187.96C118.204 188.652 120.388 189.904 122.27 191.306C124.152 192.71 125.811 194.323 126.916 195.806C127.464 196.541 127.923 197.306 128.182 198.045C128.424 198.733 128.603 199.725 128.067 200.618L127.923 200.858L127.701 201.029C122.989 204.654 115.524 208.282 106.914 208.856C98.2506 209.433 88.4967 206.909 79.3553 198.325C70.4279 189.941 67.0327 179.774 66.6941 171.023C66.525 166.653 67.1163 162.617 68.1743 159.306Z" fill="#FEA27E"/>
<ellipse cx="89.4932" cy="195.416" rx="2.21367" ry="2.95156" transform="rotate(-145.846 89.4932 195.416)" fill="#F59500"/>
<ellipse cx="97.5924" cy="200.52" rx="2.21367" ry="2.95156" transform="rotate(-158.468 97.5924 200.52)" fill="#F59500"/>
<ellipse cx="108.027" cy="200.528" rx="2.21367" ry="2.95156" transform="rotate(167.004 108.027 200.528)" fill="#F59500"/>
<ellipse cx="114.689" cy="195.644" rx="2.21367" ry="2.95156" transform="rotate(120 114.689 195.644)" fill="#F59500"/>
<ellipse cx="83.2122" cy="189.032" rx="2.21367" ry="2.95156" transform="rotate(-133.019 83.2122 189.032)" fill="#F59500"/>
<ellipse cx="79.0415" cy="182.771" rx="2.21367" ry="2.95156" transform="rotate(-101.567 79.0415 182.771)" fill="#F59500"/>
<ellipse cx="75.3684" cy="172" rx="2.21367" ry="2.95156" transform="rotate(-87.2616 75.3684 172)" fill="#F59500"/>
<ellipse cx="78.0137" cy="162.026" rx="2.21367" ry="2.95156" transform="rotate(-55.7544 78.0137 162.026)" fill="#F59500"/>
<path d="M17.8193 27.5566C13.6451 23.3824 23.5587 17.643 45.4729 -7.40178C63.7347 -23.5765 73.1265 -38.186 78.3442 -32.9683C91.8879 -19.4246 89.3182 5.10365 72.6047 21.8171C55.8913 38.5306 31.363 41.1003 17.8193 27.5566Z" fill="#F53800"/>
<path d="M69.475 16.5973C86.5944 -0.521805 79.3878 -22.883 72.6051 -31.4047C68.4309 -32.4482 19.3849 16.5978 21.4728 21.8151C23.94 27.9805 46.517 39.5548 69.475 16.5973Z" fill="#FEA27E"/>
<path d="M69.472 16.602C86.0602 -1.06182 79.0387 -20.7904 72.0821 -29.8339C69.4741 -31.3984 58.5174 -19.3973 61.6446 -13.1395C63.1198 -10.1877 65.3004 -12.6144 66.8657 -7.91848C68.431 -3.22258 54.865 4.08213 52.778 5.12566C50.6909 6.1692 48.0821 9.82156 45.4733 12.4304C42.8644 15.0392 40.7774 15.0392 38.6903 12.9522C36.6032 10.8651 39.7326 9.82035 35.5585 9.82035C32.2192 9.82034 27.2081 18.8621 25.121 23.3841C30.3387 29.6453 53.2997 33.8228 69.472 16.602Z" fill="#F53800"/>
<path fill-rule="evenodd" clip-rule="evenodd" d="M43.1311 27.3175C51.2076 27.005 60.6074 23.8785 68.3958 15.5851C76.3993 7.06271 78.6587 -1.87959 78.1335 -9.75702C77.6242 -17.3953 74.4886 -24.0959 71.282 -28.4492C71.2701 -28.4452 71.2578 -28.441 71.245 -28.4366C70.8971 -28.3144 70.4028 -28.0436 69.793 -27.5889C68.5856 -26.6887 67.1666 -25.2496 65.8954 -23.5446C64.624 -21.8393 63.5601 -19.9478 62.9958 -18.1685C62.4242 -16.3663 62.4255 -14.8841 62.9644 -13.8059C63.2187 -13.2969 63.446 -13.1159 63.6198 -13.0119C63.8055 -12.9008 63.951 -12.8506 64.2074 -12.7622C64.3456 -12.7145 64.516 -12.6557 64.7422 -12.5703C65.3194 -12.3524 66.0146 -12.021 66.6748 -11.3145C67.3138 -10.6308 67.8324 -9.69077 68.2653 -8.39178C68.9095 -6.4592 67.9171 -4.57061 66.7724 -3.13324C65.5682 -1.6213 63.8326 -0.144879 62.0657 1.15526C58.5158 3.76751 54.5212 5.89722 53.4376 6.43902C52.6821 6.81674 51.6846 7.77152 50.4152 9.17454C50.0508 9.57729 49.6669 10.0135 49.2708 10.4636C48.3856 11.4693 47.4399 12.5438 46.5164 13.4673C45.1054 14.8783 43.6079 15.8226 41.9724 15.9188C40.2831 16.0182 38.8522 15.1949 37.6464 13.9891C36.9319 13.2746 36.5728 12.5461 36.4514 11.8187C36.4207 11.6344 36.4075 11.4633 36.4035 11.3107C36.1837 11.2973 35.9065 11.2895 35.5581 11.2895C35.3281 11.2895 34.7533 11.4933 33.8255 12.3699C32.963 13.1847 32.0267 14.3592 31.0882 15.7325C29.4589 18.1167 27.9322 20.9374 26.8907 23.0872C28.0602 24.1385 29.938 25.1799 32.4266 25.9752C35.3936 26.9232 39.0863 27.474 43.1311 27.3175ZM36.4309 10.5978C36.4309 10.5995 36.4309 10.601 36.4309 10.6026C36.4306 10.5943 36.4309 10.5923 36.4309 10.5978ZM71.5235 -28.504C71.5234 -28.5038 71.5202 -28.5037 71.5142 -28.5041C71.5206 -28.5044 71.5236 -28.5042 71.5235 -28.504ZM31.5282 28.7867C28.256 27.741 25.5438 26.1905 23.9869 24.3223L23.3899 23.6058L23.7807 22.7591C24.8467 20.4493 26.6602 16.9808 28.6513 14.0672C29.6439 12.6148 30.7169 11.2463 31.7985 10.2244C32.8146 9.26438 34.1185 8.33795 35.5581 8.33795C36.573 8.33795 37.4364 8.3886 38.0632 8.63945C38.4357 8.78853 38.8395 9.05106 39.1076 9.51046C39.3589 9.94101 39.3823 10.3655 39.3824 10.5961C39.3825 10.7336 39.3652 10.9822 39.3588 11.0753C39.3574 11.0941 39.3566 11.1065 39.3564 11.1105C39.351 11.2195 39.3543 11.2823 39.3627 11.3328C39.372 11.3882 39.4044 11.573 39.7334 11.902C40.6147 12.7833 41.2708 13.0035 41.7991 12.9724C42.381 12.9381 43.2315 12.5781 44.4293 11.3802C45.286 10.5235 46.1216 9.57376 46.9728 8.6061C47.3856 8.13685 47.8021 7.66339 48.2265 7.1943C49.4355 5.85805 50.786 4.46488 52.1176 3.79907C53.1211 3.29733 56.953 1.25292 60.3164 -1.22204C62.0063 -2.46551 63.4991 -3.76098 64.4635 -4.972C65.4874 -6.25759 65.6037 -7.04305 65.4653 -7.45842C65.1156 -8.50738 64.7746 -9.02498 64.5183 -9.29924C64.2834 -9.55067 64.0478 -9.67757 63.6997 -9.80897C63.6439 -9.83006 63.5699 -9.85549 63.4828 -9.88549C63.1344 -10.0054 62.5741 -10.1982 62.1047 -10.4789C61.4059 -10.8969 60.8074 -11.5195 60.3241 -12.4864C59.2994 -14.5371 59.4976 -16.9017 60.1823 -19.0608C60.8744 -21.2429 62.1263 -23.4272 63.5292 -25.3088C64.9322 -27.1907 66.546 -28.8496 68.0287 -29.9552C68.764 -30.5034 69.5291 -30.9623 70.2674 -31.2215C70.9553 -31.463 71.948 -31.6417 72.8409 -31.1061L73.0809 -30.9621L73.2515 -30.7403C76.8764 -26.0279 80.5045 -18.5626 81.0785 -9.95337C81.6561 -1.28968 79.1322 8.46422 70.5474 17.6056C62.1635 26.533 51.9967 29.9282 43.2452 30.2669C38.8759 30.4359 34.8393 29.8447 31.5282 28.7867Z" fill="#FEA27E"/>
<ellipse cx="67.6545" cy="7.44824" rx="2.21367" ry="2.95156" transform="rotate(124.154 67.6545 7.44824)" fill="#F59500"/>
<ellipse cx="72.7584" cy="-0.649076" rx="2.21367" ry="2.95156" transform="rotate(111.532 72.7584 -0.649076)" fill="#F59500"/>
<ellipse cx="61.2682" cy="13.7351" rx="2.21367" ry="2.95156" transform="rotate(136.981 61.2682 13.7351)" fill="#F59500"/>
<ellipse cx="55.007" cy="17.9038" rx="2.21367" ry="2.95156" transform="rotate(168.433 55.007 17.9038)" fill="#F59500"/>
<ellipse cx="44.2307" cy="21.5711" rx="2.21367" ry="2.95156" transform="rotate(-177.262 44.2307 21.5711)" fill="#F59500"/>
<ellipse cx="34.2588" cy="18.9316" rx="2.21367" ry="2.95156" transform="rotate(-145.754 34.2588 18.9316)" fill="#F59500"/>
<path d="M457.601 454.049C453.426 449.875 463.34 444.135 485.254 419.09C503.516 402.916 512.908 388.306 518.125 393.524C531.669 407.068 529.099 431.596 512.386 448.309C495.673 465.023 471.144 467.592 457.601 454.049Z" fill="#F53800"/>
<path d="M509.256 443.089C526.376 425.97 519.169 403.609 512.386 395.087C508.212 394.044 459.166 443.09 461.254 448.307C463.721 454.473 486.298 466.047 509.256 443.089Z" fill="#FEA27E"/>
<path d="M509.253 443.094C525.841 425.43 518.82 405.702 511.863 396.658C509.255 395.094 498.299 407.095 501.426 413.353C502.901 416.305 505.082 413.878 506.647 418.574C508.212 423.27 494.646 430.574 492.559 431.618C490.472 432.661 487.863 436.314 485.255 438.923C482.646 441.531 480.559 441.531 478.472 439.444C476.384 437.357 479.514 436.313 475.34 436.313C472 436.313 466.989 445.354 464.902 449.876C470.12 456.138 493.081 460.315 509.253 443.094Z" fill="#F53800"/>
<path fill-rule="evenodd" clip-rule="evenodd" d="M482.912 453.81C490.989 453.497 500.389 450.371 508.177 442.077C516.181 433.555 518.44 424.613 517.915 416.735C517.405 409.097 514.27 402.396 511.063 398.043C511.051 398.047 511.039 398.051 511.026 398.056C510.678 398.178 510.184 398.449 509.574 398.903C508.367 399.803 506.948 401.243 505.677 402.948C504.405 404.653 503.341 406.544 502.777 408.324C502.205 410.126 502.207 411.608 502.746 412.686C503 413.195 503.227 413.376 503.401 413.48C503.587 413.591 503.732 413.642 503.989 413.73C504.127 413.778 504.297 413.836 504.523 413.922C505.101 414.14 505.796 414.471 506.456 415.178C507.095 415.861 507.614 416.801 508.047 418.1C508.691 420.033 507.698 421.922 506.554 423.359C505.349 424.871 503.614 426.347 501.847 427.647C498.297 430.26 494.302 432.389 493.219 432.931C492.463 433.309 491.466 434.264 490.196 435.667C489.832 436.069 489.448 436.506 489.052 436.956C488.167 437.961 487.221 439.036 486.298 439.959C484.887 441.37 483.389 442.315 481.754 442.411C480.064 442.51 478.633 441.687 477.428 440.481C476.713 439.767 476.354 439.038 476.233 438.311C476.202 438.127 476.189 437.956 476.185 437.803C475.965 437.789 475.688 437.782 475.339 437.782C475.109 437.782 474.535 437.985 473.607 438.862C472.744 439.677 471.808 440.851 470.869 442.225C469.24 444.609 467.713 447.43 466.672 449.579C467.841 450.631 469.719 451.672 472.208 452.467C475.175 453.415 478.868 453.966 482.912 453.81ZM476.212 437.09C476.212 437.092 476.212 437.093 476.212 437.095C476.212 437.086 476.212 437.085 476.212 437.09ZM511.305 397.988C511.305 397.988 511.301 397.989 511.295 397.988C511.302 397.988 511.305 397.988 511.305 397.988ZM471.309 455.279C468.037 454.233 465.325 452.683 463.768 450.814L463.171 450.098L463.562 449.251C464.628 446.941 466.441 443.473 468.433 440.559C469.425 439.107 470.498 437.738 471.58 436.717C472.596 435.757 473.9 434.83 475.339 434.83C476.354 434.83 477.218 434.881 477.844 435.132C478.217 435.281 478.621 435.543 478.889 436.003C479.14 436.433 479.164 436.858 479.164 437.088C479.164 437.226 479.146 437.474 479.14 437.567C479.139 437.586 479.138 437.599 479.138 437.603C479.132 437.712 479.136 437.774 479.144 437.825C479.153 437.88 479.186 438.065 479.515 438.394C480.396 439.275 481.052 439.496 481.58 439.465C482.162 439.43 483.013 439.07 484.211 437.872C485.067 437.016 485.903 436.066 486.754 435.098C487.167 434.629 487.583 434.156 488.008 433.686C489.217 432.35 490.567 430.957 491.899 430.291C492.902 429.79 496.734 427.745 500.098 425.27C501.788 424.027 503.28 422.731 504.245 421.52C505.269 420.235 505.385 419.449 505.247 419.034C504.897 417.985 504.556 417.467 504.3 417.193C504.065 416.942 503.829 416.815 503.481 416.683C503.425 416.662 503.351 416.637 503.264 416.607C502.916 416.487 502.355 416.294 501.886 416.013C501.187 415.595 500.589 414.973 500.105 414.006C499.081 411.955 499.279 409.59 499.964 407.431C500.656 405.249 501.908 403.065 503.31 401.183C504.713 399.302 506.327 397.643 507.81 396.537C508.545 395.989 509.31 395.53 510.049 395.271C510.737 395.029 511.729 394.851 512.622 395.386L512.862 395.53L513.033 395.752C516.658 400.464 520.286 407.93 520.86 416.539C521.437 425.203 518.913 434.956 510.329 444.098C501.945 453.025 491.778 456.42 483.026 456.759C478.657 456.928 474.621 456.337 471.309 455.279Z" fill="#FEA27E"/>
<ellipse cx="507.438" cy="433.933" rx="2.21367" ry="2.95156" transform="rotate(124.154 507.438 433.933)" fill="#F59500"/>
<ellipse cx="512.542" cy="425.835" rx="2.21367" ry="2.95156" transform="rotate(111.532 512.542 425.835)" fill="#F59500"/>
<ellipse cx="512.544" cy="415.399" rx="2.21367" ry="2.95156" transform="rotate(77.004 512.544 415.399)" fill="#F59500"/>
<ellipse cx="507.656" cy="408.733" rx="2.21367" ry="2.95156" transform="rotate(30 507.656 408.733)" fill="#F59500"/>
<ellipse cx="501.051" cy="440.219" rx="2.21367" ry="2.95156" transform="rotate(136.981 501.051 440.219)" fill="#F59500"/>
<path d="M127.212 93.886L127.56 85.6932L148.391 85.6932L148.681 93.886L127.212 93.886ZM137.83 76.6982L132.492 88.7297L133.188 91.1933L128.488 100.36L115.723 100.36L137.83 57.5625L159.996 100.36L147.23 100.36L142.588 91.5943L143.227 88.7297L137.83 76.6982Z" fill="#100B5A"/>
<path d="M239.372 169.152L239.72 160.959L260.551 160.959L260.841 169.152L239.372 169.152ZM249.99 151.964L244.652 163.995L245.348 166.459L240.648 175.626L227.883 175.626L249.99 132.828L272.156 175.626L259.391 175.626L254.749 166.86L255.387 163.995L249.99 151.964Z" fill="#100B5A"/>
<path d="M184.347 122.931L182.115 141.68L170.326 141.68L177.251 98.8828L194.648 122.349L212.102 98.8828L219.027 141.68L207.238 141.68L205.006 122.931L194.648 137.896L184.347 122.931Z" fill="#100B5A"/>
<path d="M306.925 197.747L306.925 189.178L328.136 189.178C328.408 192.589 328.116 195.803 327.259 198.818C326.402 201.833 325.058 204.471 323.227 206.732C321.396 208.993 319.098 210.779 316.332 212.088C313.566 213.357 310.392 213.992 306.808 213.992C303.497 213.992 300.439 213.457 297.634 212.385C294.868 211.314 292.453 209.807 290.388 207.863C288.363 205.879 286.785 203.519 285.655 200.782C284.526 198.005 283.961 194.95 283.961 191.617C283.961 188.285 284.545 185.27 285.714 182.572C286.883 179.875 288.519 177.574 290.622 175.669C292.726 173.726 295.199 172.258 298.043 171.266C300.887 170.234 303.964 169.719 307.275 169.719C310.275 169.719 312.943 170.175 315.281 171.087C317.657 171.96 319.741 173.17 321.533 174.717C323.325 176.225 324.883 177.951 326.207 179.894L315.865 184.953C315.047 183.445 313.956 182.176 312.593 181.144C311.229 180.113 309.457 179.597 307.275 179.597C305.211 179.597 303.302 180.053 301.549 180.966C299.796 181.878 298.394 183.227 297.342 185.012C296.329 186.797 295.823 188.999 295.823 191.617C295.823 194.196 296.31 196.437 297.283 198.342C298.257 200.206 299.601 201.634 301.315 202.626C303.029 203.618 305.016 204.114 307.275 204.114C308.639 204.114 309.846 203.975 310.898 203.697C311.95 203.38 312.865 202.944 313.644 202.388C314.424 201.793 315.086 201.099 315.631 200.305C316.215 199.512 316.683 198.659 317.033 197.747L306.925 197.747Z" fill="#100B5A"/>
<path d="M497.634 344.769L497.982 336.576L518.813 336.576L519.103 344.769L497.634 344.769ZM508.252 327.581L502.914 339.612L503.61 342.076L498.91 351.243L486.145 351.243L508.252 308.445L530.418 351.243L517.652 351.243L513.01 342.477L513.649 339.612L508.252 327.581Z" fill="#100B5A"/>
<path d="M462.494 278.922L475.812 278.922L461.067 302.829L461.067 318.768L449.295 318.768L449.295 302.943L434.49 278.922L447.808 278.922L455.181 292.868L462.494 278.922Z" fill="#100B5A"/>
<path d="M552.553 351.242L564.121 351.242L564.121 391.088L552.553 391.088L552.553 351.242ZM577.121 351.242L590.064 351.242L574.143 369.913L590.923 391.088L577.465 391.088L560.914 370.254L577.121 351.242Z" fill="#100B5A"/>
<rect x="614.537" y="234.656" width="10.3304" height="181.521" fill="#100B5A"/>
<path d="M98.0137 32.4707L98.0137 185.952L87.6836 185.952L87.6836 32.4707L49.3135 32.4707L49.3135 22.1406L134.908 22.1406L134.908 32.4707L98.0137 32.4707Z" fill="#100B5A"/>
</g>
</g>
</g>
<defs>
<filter id="filter0_d_2610_21325" x="27.1738" y="0" width="649.826" height="468.305" filterUnits="userSpaceOnUse" color-interpolation-filters="sRGB">
<feFlood flood-opacity="0" result="BackgroundImageFix"/>
<feColorMatrix in="SourceAlpha" type="matrix" values="0 0 0 0 0 0 0 0 0 0 0 0 0 0 0 0 0 0 127 0" result="hardAlpha"/>
<feOffset dx="15" dy="15"/>
<feGaussianBlur stdDeviation="7.5"/>
<feComposite in2="hardAlpha" operator="out"/>
<feColorMatrix type="matrix" values="0 0 0 0 0 0 0 0 0 0 0 0 0 0 0 0 0 0 0.15 0"/>
<feBlend mode="normal" in2="BackgroundImageFix" result="effect1_dropShadow_2610_21325"/>
<feBlend mode="normal" in="SourceGraphic" in2="effect1_dropShadow_2610_21325" result="shape"/>
</filter>
<clipPath id="clip0_2610_21325">
<rect width="674" height="467" fill="white"/>
</clipPath>
<clipPath id="clip1_2610_21325">
<rect x="647" width="438.306" height="619.827" rx="10" transform="rotate(90 647 0)" fill="white"/>
</clipPath>
</defs>
</svg>
