<svg width="445" height="780" viewBox="0 0 445 780" fill="none" xmlns="http://www.w3.org/2000/svg">
<g clip-path="url(#clip0_2462_17882)">
<g filter="url(#filter0_d_2462_17882)">
<mask id="mask0_2462_17882" style="mask-type:alpha" maskUnits="userSpaceOnUse" x="76" y="73" width="290" height="631">
<rect x="76" y="73" width="289.444" height="630.241" rx="15.5615" fill="#D9D9D9"/>
<rect x="76" y="73" width="289.444" height="630.241" rx="15.5615" fill="#D9D9D9"/>
</mask>
<g mask="url(#mask0_2462_17882)">
<rect width="288.591" height="624.895" transform="translate(76.4199 76.0078)" fill="#FFEAF3"/>
<rect width="288.591" height="90.8099" transform="translate(76.4199 76.0078)" fill="#FDFDFD"/>
<rect width="288.591" height="239.338" transform="translate(76.4199 166.82)" fill="#FDFDFD"/>
<mask id="mask1_2462_17882" style="mask-type:alpha" maskUnits="userSpaceOnUse" x="101" y="166" width="240" height="241">
<circle cx="220.716" cy="286.489" r="119.669" fill="#FDFDFD"/>
</mask>
<g mask="url(#mask1_2462_17882)">
<circle cx="220.716" cy="286.489" r="119.669" fill="#F53800"/>
<mask id="mask2_2462_17882" style="mask-type:alpha" maskUnits="userSpaceOnUse" x="101" y="166" width="240" height="241">
<circle cx="220.716" cy="286.489" r="119.669" fill="#D9D9D9"/>
</mask>
<g mask="url(#mask2_2462_17882)">
<path d="M590.848 559.77C599.025 562.833 633.178 564.405 638.428 558.434C643.678 552.463 628.312 529.186 622.34 523.938C616.368 518.69 577.903 503.513 550.621 473.529C498.852 416.635 497.376 407.269 367.148 329.799C233.138 250.079 145.425 264.794 143.866 267.496C142.306 270.197 157.309 287.865 157.309 287.865C146.865 287.243 136.929 284.166 136.429 286.61C135.44 291.441 143.906 301.728 171.42 332.027C207.241 371.474 307.268 442.867 377.124 477.789C423.231 500.838 507.911 510.086 540.317 528.796C551.204 535.081 581.967 556.443 590.848 559.77Z" fill="#FFEAF3"/>
<path d="M612.05 532.403C619.612 536.769 637.023 547.188 632.727 537.133C628.43 527.078 622.34 523.941 615.024 517.917C607.708 511.893 583.891 502.726 552.87 469.486C501.758 414.718 508.839 411.804 367.838 328.454C232.332 248.353 145.337 264.8 143.777 267.501C142.217 270.203 157.22 287.871 157.22 287.871C146.777 287.249 136.84 284.172 136.34 286.616C135.352 291.447 170.131 318.67 210.181 314.787C253.3 310.606 349.734 375.554 415.897 413.753C460.538 439.527 507.234 473.688 539.641 492.398C550.527 498.683 603.948 527.725 612.05 532.403Z" fill="#100B5A"/>
<path d="M340.225 382.672L330.676 355.555" stroke="#100B5A" stroke-width="6.23668" stroke-linecap="round"/>
<path d="M307.815 363.953L298.266 336.836" stroke="#100B5A" stroke-width="6.23668" stroke-linecap="round"/>
<path d="M275.411 345.254L267.575 324.526" stroke="#100B5A" stroke-width="6.23668" stroke-linecap="round"/>
<path d="M243.002 326.54L238.799 315.112" stroke="#100B5A" stroke-width="6.23668" stroke-linecap="round"/>
<path d="M217.082 327.787L206.392 296.409" stroke="#100B5A" stroke-width="6.23668" stroke-linecap="round"/>
<path d="M190.801 323.404L178.76 291.247" stroke="#100B5A" stroke-width="6.23668" stroke-linecap="round"/>
<path d="M356.428 392.031L346.879 364.914" stroke="#100B5A" stroke-width="6.23668" stroke-linecap="round"/>
<path d="M324.022 373.321L314.473 346.203" stroke="#100B5A" stroke-width="6.23668" stroke-linecap="round"/>
<path d="M291.612 354.604L289.51 348.89L283.205 331.747" stroke="#100B5A" stroke-width="6.23668" stroke-linecap="round"/>
<path d="M259.208 335.901L257.106 330.187L250.801 313.043" stroke="#100B5A" stroke-width="6.23668" stroke-linecap="round"/>
<path d="M231.003 328.628L222.595 305.77" stroke="#100B5A" stroke-width="6.23668" stroke-linecap="round"/>
<path d="M203.37 323.464L190.188 287.047" stroke="#100B5A" stroke-width="6.23668" stroke-linecap="round"/>
<path d="M175.169 316.181L166.19 291.194" stroke="#100B5A" stroke-width="6.23668" stroke-linecap="round"/>
<path d="M159.535 308.961L154.761 295.402" stroke="#100B5A" stroke-width="6.23668" stroke-linecap="round"/>
<path d="M348.327 387.345L339.349 362.358" stroke="#FFEAF3" stroke-width="6.23668" stroke-linecap="round"/>
<path d="M315.923 368.634L306.944 343.647" stroke="#FFEAF3" stroke-width="6.23668" stroke-linecap="round"/>
<path d="M283.515 349.925L275.107 327.067" stroke="#FFEAF3" stroke-width="6.23668" stroke-linecap="round"/>
<path d="M251.107 331.208L243.841 312.61" stroke="#FFEAF3" stroke-width="6.23668" stroke-linecap="round"/>
<path d="M224.045 328.194L218.7 312.506" stroke="#FFEAF3" stroke-width="6.23668" stroke-linecap="round"/>
<path d="M198.335 325.949L190.498 305.221" stroke="#FFEAF3" stroke-width="6.23668" stroke-linecap="round"/>
<path d="M167.639 313.625L162.864 300.066" stroke="#FFEAF3" stroke-width="6.23668" stroke-linecap="round"/>
<path d="M332.123 377.991L322.004 348.744" stroke="#FFEAF3" stroke-width="6.23668" stroke-linecap="round"/>
<path d="M299.718 359.285L293.232 339.337" stroke="#FFEAF3" stroke-width="6.23668" stroke-linecap="round"/>
<path d="M268.452 344.832L261.966 324.884" stroke="#FFEAF3" stroke-width="6.23668" stroke-linecap="round"/>
<path d="M239.106 333.284L230.699 310.426" stroke="#FFEAF3" stroke-width="6.23668" stroke-linecap="round"/>
<path d="M209.552 325.232L203.637 307.413" stroke="#FFEAF3" stroke-width="6.23668" stroke-linecap="round"/>
<path d="M186.335 328.028L178.498 307.3" stroke="#FFEAF3" stroke-width="6.23668" stroke-linecap="round"/>
<mask id="mask3_2462_17882" style="mask-type:alpha" maskUnits="userSpaceOnUse" x="136" y="264" width="496" height="274">
<path d="M612.041 532.413C619.603 536.779 633.865 541.413 630.8 534.242C627.735 527.071 622.184 524.227 615.015 517.927C607.846 511.627 580.143 499.48 552.861 469.496C501.091 412.601 498.057 405.935 367.83 328.465C233.819 248.744 145.328 264.81 143.769 267.512C142.209 270.213 157.212 287.881 157.212 287.881C146.768 287.259 136.832 284.183 136.332 286.627C135.343 291.457 170.122 318.68 210.172 314.797C253.291 310.616 349.725 375.564 415.889 413.763C460.53 439.537 507.225 473.698 539.632 492.408C550.518 498.693 603.939 527.736 612.041 532.413Z" fill="#100B5A"/>
</mask>
<g mask="url(#mask3_2462_17882)">
<path d="M333.903 325.017L324.925 300.029" stroke="#0F7689" stroke-width="6.23668" stroke-linecap="round"/>
<path d="M301.493 306.307L293.086 283.45" stroke="#0F7689" stroke-width="6.23668" stroke-linecap="round"/>
<path d="M271.374 296.125L261.825 269.008" stroke="#0F7689" stroke-width="6.23668" stroke-linecap="round"/>
<path d="M242.027 284.577L236.682 268.888" stroke="#0F7689" stroke-width="6.23668" stroke-linecap="round"/>
<path d="M214.964 281.559L208.478 261.61" stroke="#0F7689" stroke-width="6.23668" stroke-linecap="round"/>
<path d="M350.108 334.374L339.988 305.127" stroke="#0F7689" stroke-width="6.23668" stroke-linecap="round"/>
<path d="M317.701 315.668L311.214 295.72" stroke="#0F7689" stroke-width="6.23668" stroke-linecap="round"/>
<path d="M286.435 301.223L279.948 281.274" stroke="#0F7689" stroke-width="6.23668" stroke-linecap="round"/>
<path d="M257.089 289.675L248.681 266.817" stroke="#0F7689" stroke-width="6.23668" stroke-linecap="round"/>
<path d="M227.539 281.615L221.623 263.796" stroke="#0F7689" stroke-width="6.23668" stroke-linecap="round"/>
</g>
<path d="M262.627 395.476C268.028 398.595 284.143 397.702 292.593 396.579C297.562 395.248 309.351 394.378 309.061 389.89C308.699 384.28 301.611 390.473 269.485 374.236C244.401 361.559 236.991 360.871 235.672 367.317C234.683 372.147 255.876 391.578 262.627 395.476Z" fill="#FDC368"/>
<path d="M275.821 385.106C283.543 388.364 300.377 394.963 305.945 395.297" stroke="#F59500" stroke-width="6.23668" stroke-linecap="round"/>
<path d="M263.041 388.521C268.633 392.349 281.052 400.359 285.996 401.773" stroke="#F59500" stroke-width="6.23668" stroke-linecap="round"/>
<path d="M137.777 287.394C143.395 287.037 161.768 289.554 160.797 288.082C158.877 285.173 149.425 279.716 145.221 268.287" stroke="#FFEAF3" stroke-width="6.23668" stroke-linecap="round"/>
<circle cx="9.35501" cy="9.35501" r="9.35501" transform="matrix(-0.866025 -0.5 -0.5 0.866025 199.131 277.812)" fill="#FDFDFD"/>
<circle cx="6.68215" cy="6.68215" r="6.68215" transform="matrix(-0.866025 -0.5 -0.5 0.866025 195.479 278.805)" fill="#100B5A"/>
<circle cx="2.67286" cy="2.67286" r="2.67286" transform="matrix(-0.866025 -0.5 -0.5 0.866025 195.479 278.805)" fill="#FDFDFD"/>
<path d="M256.689 198.745C266.486 201.932 272.393 211.551 271.257 221.405C271.393 221.445 271.53 221.489 271.666 221.534C280.61 224.444 285.502 234.053 282.592 242.997C279.905 251.258 271.503 256.06 263.189 254.454C263.176 254.494 263.166 254.535 263.153 254.576L255.25 278.868C253.795 283.34 248.99 285.786 244.518 284.331L212.128 273.793C207.656 272.338 205.211 267.534 206.665 263.062L214.569 238.769C214.579 238.739 214.59 238.71 214.6 238.68C204.702 234.335 199.521 223.107 202.936 212.61C206.573 201.43 218.586 195.316 229.766 198.953C232.293 199.775 234.561 201.026 236.516 202.598C241.947 198.105 249.49 196.403 256.689 198.745Z" fill="#FDFDFD"/>
</g>
</g>
<mask id="mask4_2462_17882" style="mask-type:alpha" maskUnits="userSpaceOnUse" x="76" y="406" width="290" height="45">
<rect x="364.627" y="449.639" width="287.821" height="43.0962" transform="rotate(-180 364.627 449.639)" fill="#FDFDFD" stroke="#FDFDFD" stroke-width="0.769576"/>
</mask>
<g mask="url(#mask4_2462_17882)">
<path d="M64.1079 417.699C90.2869 406.238 145.484 332.425 189.55 316.884C216.942 307.224 188.401 323.52 163.384 349.206C120.03 393.719 161.005 434.738 211.097 389.224C246.682 356.892 232.37 338.406 270.739 371.139C274.041 373.956 247.554 408.916 279.588 417.699C327.302 430.782 374.885 362.459 388.099 340.741" stroke="#FDFDFD" stroke-width="57.7182"/>
</g>
<path d="M144.239 470.06C144.735 470.06 145.09 470.168 145.306 470.383C145.543 470.599 145.661 470.879 145.661 471.224C145.661 471.784 145.489 472.28 145.144 472.711C144.821 473.142 144.304 473.368 143.593 473.389C141.89 473.411 140.36 473.282 139.003 473.002C137.494 476.212 135.674 478.884 133.54 481.017C131.429 483.129 129.338 484.185 127.27 484.185C125.374 484.185 123.951 483.183 123.003 481.179C122.055 479.154 121.516 476.449 121.387 473.066C120.094 476.816 118.629 479.606 116.991 481.438C115.375 483.269 113.651 484.185 111.82 484.185C109.751 484.185 108.189 482.903 107.133 480.339C106.077 477.753 105.549 474.284 105.549 469.931C105.549 466.763 105.829 463.283 106.39 459.491C106.541 458.413 106.81 457.67 107.198 457.261C107.607 456.83 108.243 456.614 109.105 456.614C109.751 456.614 110.247 456.754 110.592 457.034C110.958 457.315 111.141 457.832 111.141 458.586C111.141 458.737 111.12 459.028 111.076 459.459C110.43 463.876 110.107 467.636 110.107 470.739C110.107 473.626 110.355 475.857 110.85 477.43C111.346 479.003 112.014 479.789 112.854 479.789C113.608 479.789 114.513 479.003 115.569 477.43C116.647 475.835 117.713 473.486 118.769 470.383C119.825 467.259 120.719 463.542 121.452 459.232C121.624 458.241 121.937 457.562 122.389 457.196C122.863 456.808 123.499 456.614 124.296 456.614C124.964 456.614 125.449 456.765 125.751 457.067C126.074 457.347 126.236 457.778 126.236 458.36C126.236 458.704 126.214 458.974 126.171 459.168C125.568 462.68 125.266 466.192 125.266 469.705C125.266 472.097 125.341 474.004 125.492 475.426C125.665 476.848 125.977 477.936 126.429 478.69C126.904 479.423 127.582 479.789 128.466 479.789C129.5 479.789 130.653 479.013 131.924 477.462C133.196 475.889 134.359 473.939 135.415 471.612C134.101 470.793 133.109 469.737 132.441 468.444C131.773 467.13 131.439 465.621 131.439 463.919C131.439 462.217 131.698 460.784 132.215 459.62C132.754 458.435 133.476 457.552 134.381 456.97C135.307 456.388 136.331 456.097 137.451 456.097C138.83 456.097 139.919 456.593 140.716 457.584C141.535 458.575 141.944 459.933 141.944 461.656C141.944 464.091 141.416 466.796 140.36 469.769C141.459 469.963 142.752 470.06 144.239 470.06ZM134.704 463.693C134.704 465.805 135.383 467.367 136.74 468.38C137.581 465.966 138.001 463.973 138.001 462.4C138.001 461.495 137.882 460.838 137.645 460.428C137.408 459.997 137.085 459.782 136.676 459.782C136.094 459.782 135.62 460.127 135.253 460.816C134.887 461.484 134.704 462.443 134.704 463.693ZM156.935 476.816C157.215 476.816 157.431 476.945 157.581 477.203C157.754 477.462 157.84 477.818 157.84 478.27C157.84 479.132 157.635 479.8 157.226 480.274C156.429 481.244 155.297 482.138 153.832 482.957C152.388 483.776 150.837 484.185 149.178 484.185C146.915 484.185 145.159 483.571 143.909 482.343C142.659 481.114 142.035 479.434 142.035 477.3C142.035 475.814 142.347 474.435 142.972 473.163C143.597 471.87 144.459 470.847 145.558 470.093C146.678 469.338 147.939 468.961 149.339 468.961C150.589 468.961 151.591 469.338 152.345 470.093C153.099 470.825 153.477 471.827 153.477 473.099C153.477 474.585 152.938 475.867 151.86 476.945C150.805 478.001 149.005 478.841 146.463 479.466C147.001 480.457 148.025 480.953 149.533 480.953C150.503 480.953 151.602 480.619 152.83 479.951C154.08 479.261 155.157 478.367 156.062 477.268C156.321 476.966 156.612 476.816 156.935 476.816ZM148.79 472.129C147.993 472.129 147.314 472.592 146.754 473.519C146.215 474.445 145.945 475.566 145.945 476.88V476.945C147.217 476.643 148.219 476.191 148.951 475.587C149.684 474.984 150.05 474.284 150.05 473.486C150.05 473.077 149.932 472.754 149.695 472.517C149.479 472.258 149.178 472.129 148.79 472.129ZM167.458 476.816C167.739 476.816 167.954 476.945 168.105 477.203C168.277 477.462 168.363 477.818 168.363 478.27C168.363 479.132 168.159 479.8 167.749 480.274C166.823 481.416 165.81 482.353 164.711 483.086C163.634 483.819 162.405 484.185 161.026 484.185C159.13 484.185 157.719 483.323 156.792 481.599C155.887 479.875 155.435 477.645 155.435 474.909C155.435 472.28 155.769 469.285 156.437 465.923C157.126 462.562 158.128 459.674 159.443 457.261C160.779 454.847 162.362 453.641 164.194 453.641C165.228 453.641 166.036 454.125 166.618 455.095C167.221 456.043 167.523 457.412 167.523 459.2C167.523 461.764 166.812 464.738 165.39 468.121C163.968 471.504 162.039 474.855 159.604 478.173C159.755 479.057 160.003 479.692 160.348 480.08C160.692 480.446 161.145 480.63 161.705 480.63C162.589 480.63 163.364 480.382 164.032 479.886C164.7 479.369 165.551 478.496 166.586 477.268C166.844 476.966 167.135 476.816 167.458 476.816ZM163.483 456.84C162.987 456.84 162.427 457.735 161.802 459.523C161.177 461.312 160.628 463.531 160.154 466.182C159.68 468.832 159.421 471.375 159.378 473.81C160.908 471.288 162.125 468.767 163.03 466.246C163.935 463.704 164.388 461.387 164.388 459.297C164.388 457.659 164.086 456.84 163.483 456.84ZM175.092 479.466C175.329 479.251 175.566 479.143 175.803 479.143C176.062 479.143 176.266 479.294 176.417 479.595C176.59 479.875 176.676 480.22 176.676 480.63C176.676 481.535 176.353 482.256 175.706 482.795C174.586 483.722 173.314 484.185 171.892 484.185C169.845 484.185 168.347 483.334 167.399 481.632C166.451 479.908 165.977 477.667 165.977 474.909C165.977 472.28 166.311 469.285 166.979 465.923C167.669 462.562 168.671 459.674 169.985 457.261C171.321 454.847 172.905 453.641 174.736 453.641C175.771 453.641 176.579 454.125 177.161 455.095C177.764 456.043 178.066 457.412 178.066 459.2C178.066 461.764 177.355 464.738 175.932 468.121C174.532 471.504 172.614 474.844 170.179 478.141C170.33 479.024 170.599 479.66 170.987 480.048C171.375 480.436 171.903 480.63 172.571 480.63C172.937 480.63 173.347 480.522 173.799 480.306C174.273 480.091 174.704 479.811 175.092 479.466ZM174.025 456.84C173.53 456.84 172.97 457.735 172.345 459.523C171.72 461.312 171.17 463.531 170.696 466.182C170.222 468.832 169.964 471.375 169.92 473.81C171.45 471.288 172.668 468.767 173.573 466.246C174.478 463.704 174.93 461.387 174.93 459.297C174.93 457.659 174.629 456.84 174.025 456.84ZM179.462 489.13C178.988 489.13 178.611 489.023 178.331 488.807C178.051 488.592 177.911 488.247 177.911 487.773C177.911 487.579 177.943 487.353 178.008 487.094C178.245 486.103 178.417 485.187 178.525 484.347C178.654 483.506 178.719 482.569 178.719 481.535C178.719 480.457 178.966 479.628 179.462 479.046C179.979 478.464 180.636 478.173 181.434 478.173C182.209 478.173 182.791 478.389 183.179 478.82C183.589 479.229 183.793 479.789 183.793 480.5C183.793 481.255 183.567 482.256 183.114 483.506C182.662 484.756 182.113 485.974 181.466 487.159C181.035 487.956 180.69 488.484 180.432 488.742C180.195 489.001 179.871 489.13 179.462 489.13ZM214.159 476.816C214.44 476.816 214.655 476.945 214.806 477.203C214.978 477.462 215.064 477.818 215.064 478.27C215.064 479.132 214.86 479.8 214.45 480.274C213.567 481.351 212.597 482.278 211.541 483.054C210.485 483.808 209.44 484.185 208.406 484.185C206.768 484.185 205.519 483.226 204.657 481.308C203.752 482.45 202.954 483.215 202.265 483.603C201.597 483.991 200.81 484.185 199.905 484.185C198.591 484.185 197.503 483.7 196.641 482.731C195.8 481.739 195.38 480.457 195.38 478.884C195.38 477.16 195.747 475.566 196.479 474.101C197.212 472.614 198.214 471.407 199.485 470.48C200.778 469.532 202.222 468.972 203.816 468.8C204.226 464.619 205.001 461.053 206.144 458.101C207.307 455.127 208.826 453.641 210.701 453.641C211.628 453.641 212.392 454.061 212.996 454.901C213.621 455.742 213.933 457.013 213.933 458.715C213.933 461.129 213.341 463.951 212.155 467.184C210.97 470.416 209.387 473.734 207.404 477.139C207.49 478.389 207.673 479.283 207.954 479.822C208.255 480.36 208.632 480.63 209.085 480.63C209.667 480.63 210.259 480.371 210.863 479.854C211.466 479.337 212.274 478.475 213.287 477.268C213.545 476.966 213.836 476.816 214.159 476.816ZM210.345 456.808C209.936 456.808 209.527 457.541 209.117 459.006C208.708 460.45 208.352 462.346 208.051 464.695C207.77 467.044 207.566 469.5 207.436 472.064C209.85 466.806 211.057 462.583 211.057 459.394C211.057 458.575 210.981 457.939 210.83 457.487C210.701 457.034 210.539 456.808 210.345 456.808ZM201.037 480.921C201.446 480.921 201.855 480.759 202.265 480.436C202.674 480.091 203.191 479.466 203.816 478.561C203.601 477.397 203.493 476.094 203.493 474.65C203.493 474.133 203.515 473.292 203.558 472.129C202.373 472.495 201.381 473.292 200.584 474.521C199.808 475.727 199.421 477.074 199.421 478.561C199.421 480.134 199.959 480.921 201.037 480.921ZM228.919 474.101C229.199 474.101 229.415 474.241 229.566 474.521C229.717 474.801 229.792 475.156 229.792 475.587C229.792 476.622 229.48 477.236 228.855 477.43C227.562 477.882 226.14 478.141 224.588 478.205C224.179 480.015 223.371 481.47 222.164 482.569C220.957 483.646 219.589 484.185 218.059 484.185C216.766 484.185 215.656 483.873 214.73 483.248C213.825 482.623 213.135 481.793 212.661 480.759C212.187 479.725 211.95 478.604 211.95 477.397C211.95 475.76 212.263 474.305 212.888 473.034C213.512 471.741 214.374 470.739 215.473 470.028C216.572 469.295 217.79 468.929 219.126 468.929C220.763 468.929 222.078 469.5 223.069 470.642C224.082 471.763 224.674 473.152 224.847 474.812C225.859 474.747 227.066 474.531 228.467 474.165C228.639 474.122 228.79 474.101 228.919 474.101ZM218.318 480.759C219.007 480.759 219.6 480.479 220.095 479.919C220.613 479.358 220.957 478.55 221.13 477.494C220.462 477.042 219.945 476.449 219.578 475.717C219.233 474.984 219.061 474.208 219.061 473.389C219.061 473.045 219.093 472.7 219.158 472.355H218.996C218.134 472.355 217.413 472.775 216.831 473.616C216.271 474.435 215.99 475.598 215.99 477.106C215.99 478.292 216.217 479.197 216.669 479.822C217.143 480.446 217.693 480.759 218.318 480.759ZM229.313 484.185C228.494 484.185 227.912 483.754 227.567 482.892C227.244 482.03 227.083 480.651 227.083 478.755C227.083 475.954 227.481 473.292 228.278 470.771C228.472 470.146 228.785 469.694 229.216 469.414C229.668 469.112 230.293 468.961 231.09 468.961C231.521 468.961 231.823 469.015 231.995 469.123C232.168 469.231 232.254 469.435 232.254 469.737C232.254 470.082 232.092 470.858 231.769 472.064C231.554 472.926 231.381 473.68 231.252 474.327C231.123 474.973 231.015 475.771 230.929 476.719C231.64 474.865 232.437 473.357 233.321 472.194C234.204 471.03 235.066 470.2 235.906 469.705C236.768 469.209 237.555 468.961 238.266 468.961C239.667 468.961 240.367 469.662 240.367 471.062C240.367 471.903 240.13 473.422 239.656 475.62C239.246 477.494 239.042 478.733 239.042 479.337C239.042 480.199 239.354 480.63 239.979 480.63C240.41 480.63 240.916 480.371 241.498 479.854C242.102 479.315 242.899 478.453 243.89 477.268C244.149 476.966 244.44 476.816 244.763 476.816C245.043 476.816 245.258 476.945 245.409 477.203C245.582 477.462 245.668 477.818 245.668 478.27C245.668 479.132 245.463 479.8 245.054 480.274C244.127 481.416 243.125 482.353 242.048 483.086C240.992 483.819 239.785 484.185 238.428 484.185C237.329 484.185 236.499 483.873 235.939 483.248C235.379 482.601 235.098 481.675 235.098 480.468C235.098 479.865 235.249 478.787 235.551 477.236C235.831 475.878 235.971 474.941 235.971 474.424C235.971 474.079 235.853 473.907 235.616 473.907C235.335 473.907 234.937 474.273 234.42 475.006C233.924 475.717 233.407 476.665 232.868 477.85C232.351 479.035 231.931 480.285 231.608 481.599C231.371 482.612 231.09 483.302 230.767 483.668C230.466 484.013 229.981 484.185 229.313 484.185ZM254.624 477.785C254.904 477.785 255.12 477.915 255.27 478.173C255.443 478.432 255.529 478.787 255.529 479.24C255.529 480.015 255.346 480.683 254.98 481.244C254.376 482.17 253.579 482.892 252.588 483.409C251.618 483.926 250.454 484.185 249.097 484.185C247.028 484.185 245.423 483.571 244.281 482.343C243.139 481.093 242.568 479.412 242.568 477.3C242.568 475.814 242.88 474.435 243.505 473.163C244.13 471.87 244.992 470.847 246.091 470.093C247.211 469.338 248.472 468.961 249.873 468.961C251.122 468.961 252.124 469.338 252.879 470.093C253.633 470.825 254.01 471.827 254.01 473.099C254.01 474.585 253.471 475.867 252.394 476.945C251.338 478.001 249.528 478.841 246.964 479.466C247.481 480.457 248.354 480.953 249.582 480.953C250.465 480.953 251.187 480.748 251.747 480.339C252.329 479.929 252.997 479.24 253.751 478.27C254.01 477.947 254.301 477.785 254.624 477.785ZM249.323 472.129C248.526 472.129 247.847 472.592 247.287 473.519C246.748 474.445 246.479 475.566 246.479 476.88V476.945C247.75 476.643 248.752 476.191 249.485 475.587C250.217 474.984 250.584 474.284 250.584 473.486C250.584 473.077 250.465 472.754 250.228 472.517C250.013 472.258 249.711 472.129 249.323 472.129ZM258.311 489.13C257.836 489.13 257.459 489.023 257.179 488.807C256.899 488.592 256.759 488.247 256.759 487.773C256.759 487.579 256.791 487.353 256.856 487.094C257.093 486.103 257.265 485.187 257.373 484.347C257.502 483.506 257.567 482.569 257.567 481.535C257.567 480.457 257.815 479.628 258.311 479.046C258.828 478.464 259.485 478.173 260.282 478.173C261.058 478.173 261.64 478.389 262.028 478.82C262.437 479.229 262.642 479.789 262.642 480.5C262.642 481.255 262.415 482.256 261.963 483.506C261.51 484.756 260.961 485.974 260.315 487.159C259.884 487.956 259.539 488.484 259.28 488.742C259.043 489.001 258.72 489.13 258.311 489.13ZM280.822 484.185C278.711 484.185 277.062 483.592 275.877 482.407C274.714 481.201 274.132 479.617 274.132 477.656C274.132 475.911 274.476 474.381 275.166 473.066C275.856 471.752 276.75 470.739 277.849 470.028C278.948 469.317 280.101 468.961 281.307 468.961C282.492 468.961 283.408 469.317 284.055 470.028C284.723 470.717 285.057 471.612 285.057 472.711C285.057 473.616 284.852 474.381 284.442 475.006C284.055 475.63 283.537 475.943 282.891 475.943C282.482 475.943 282.148 475.846 281.889 475.652C281.652 475.458 281.534 475.189 281.534 474.844C281.534 474.693 281.555 474.521 281.598 474.327C281.641 474.133 281.674 473.993 281.695 473.907C281.803 473.583 281.857 473.282 281.857 473.002C281.857 472.721 281.781 472.506 281.63 472.355C281.501 472.204 281.307 472.129 281.049 472.129C280.553 472.129 280.09 472.355 279.659 472.808C279.228 473.239 278.883 473.831 278.625 474.585C278.366 475.34 278.237 476.169 278.237 477.074C278.237 479.574 279.325 480.824 281.501 480.824C282.385 480.824 283.333 480.533 284.346 479.951C285.38 479.347 286.393 478.453 287.384 477.268C287.642 476.966 287.933 476.816 288.257 476.816C288.537 476.816 288.752 476.945 288.903 477.203C289.075 477.462 289.162 477.818 289.162 478.27C289.162 479.089 288.957 479.757 288.547 480.274C287.535 481.524 286.317 482.494 284.895 483.183C283.494 483.851 282.137 484.185 280.822 484.185ZM304.488 476.816C304.768 476.816 304.983 476.945 305.134 477.203C305.306 477.462 305.393 477.818 305.393 478.27C305.393 479.132 305.188 479.8 304.778 480.274C303.787 481.416 302.764 482.353 301.708 483.086C300.674 483.819 299.488 484.185 298.152 484.185C297.053 484.185 296.224 483.873 295.664 483.248C295.103 482.601 294.823 481.675 294.823 480.468C294.823 479.865 294.974 478.787 295.276 477.236C295.556 475.878 295.696 474.941 295.696 474.424C295.696 474.079 295.577 473.907 295.34 473.907C295.06 473.907 294.662 474.273 294.144 475.006C293.627 475.717 293.11 476.665 292.593 477.85C292.076 479.035 291.656 480.285 291.332 481.599C290.923 483.323 289.91 484.185 288.294 484.185C287.648 484.185 287.217 483.959 287.001 483.506C286.807 483.032 286.71 482.192 286.71 480.985C286.71 480.296 286.721 479.746 286.743 479.337L286.775 476.751C286.775 473.433 287.109 469.974 287.777 466.376C288.467 462.777 289.469 459.76 290.783 457.325C292.119 454.869 293.713 453.641 295.567 453.641C296.558 453.641 297.355 454.072 297.958 454.933C298.583 455.774 298.896 456.873 298.896 458.23C298.896 460.407 298.26 462.669 296.989 465.018C295.717 467.345 293.649 470.071 290.783 473.196C290.718 474.316 290.686 475.469 290.686 476.654C291.397 474.822 292.184 473.336 293.046 472.194C293.929 471.03 294.791 470.2 295.631 469.705C296.493 469.209 297.28 468.961 297.991 468.961C299.391 468.961 300.092 469.662 300.092 471.062C300.092 471.903 299.855 473.422 299.381 475.62C298.971 477.494 298.767 478.733 298.767 479.337C298.767 480.199 299.079 480.63 299.704 480.63C300.135 480.63 300.641 480.371 301.223 479.854C301.826 479.315 302.624 478.453 303.615 477.268C303.873 476.966 304.164 476.816 304.488 476.816ZM294.888 456.84C294.5 456.84 294.069 457.401 293.595 458.521C293.121 459.62 292.658 461.118 292.205 463.014C291.774 464.889 291.419 466.936 291.138 469.155C292.474 467.582 293.573 465.869 294.435 464.016C295.319 462.163 295.761 460.482 295.761 458.974C295.761 458.284 295.685 457.756 295.534 457.39C295.383 457.024 295.168 456.84 294.888 456.84ZM317.189 476.816C317.469 476.816 317.684 476.945 317.835 477.203C318.007 477.462 318.094 477.818 318.094 478.27C318.094 479.132 317.889 479.8 317.48 480.274C316.682 481.244 315.551 482.138 314.086 482.957C312.642 483.776 311.091 484.185 309.431 484.185C307.169 484.185 305.413 483.571 304.163 482.343C302.913 481.114 302.288 479.434 302.288 477.3C302.288 475.814 302.601 474.435 303.225 473.163C303.85 471.87 304.712 470.847 305.811 470.093C306.932 469.338 308.192 468.961 309.593 468.961C310.843 468.961 311.845 469.338 312.599 470.093C313.353 470.825 313.73 471.827 313.73 473.099C313.73 474.585 313.191 475.867 312.114 476.945C311.058 478.001 309.259 478.841 306.716 479.466C307.255 480.457 308.279 480.953 309.787 480.953C310.757 480.953 311.855 480.619 313.084 479.951C314.334 479.261 315.411 478.367 316.316 477.268C316.575 476.966 316.865 476.816 317.189 476.816ZM309.043 472.129C308.246 472.129 307.567 472.592 307.007 473.519C306.468 474.445 306.199 475.566 306.199 476.88V476.945C307.47 476.643 308.472 476.191 309.205 475.587C309.938 474.984 310.304 474.284 310.304 473.486C310.304 473.077 310.186 472.754 309.948 472.517C309.733 472.258 309.431 472.129 309.043 472.129ZM328.043 474.973C328.646 474.973 328.948 475.426 328.948 476.331C328.948 478.033 327.612 478.884 324.94 478.884C324.423 478.884 323.679 478.787 322.71 478.593C322.99 479.929 323.216 481.416 323.388 483.054C323.582 484.67 323.679 486.006 323.679 487.062C323.679 489.389 323.302 491.167 322.548 492.395C321.794 493.623 320.803 494.237 319.574 494.237C318.023 494.237 316.913 493.138 316.245 490.94C315.599 488.742 315.276 485.424 315.276 480.985C315.276 476.848 315.717 472.657 316.601 468.412C317.506 464.145 318.734 460.622 320.286 457.842C321.859 455.041 323.582 453.641 325.457 453.641C326.47 453.641 327.256 454.093 327.817 454.998C328.398 455.903 328.689 457.121 328.689 458.651C328.689 463.714 325.662 469.231 319.607 475.199C319.391 477.311 319.284 479.164 319.284 480.759C319.284 482.978 319.359 485.252 319.51 487.579C319.661 489.928 319.908 491.102 320.253 491.102C320.9 491.102 321.223 489.981 321.223 487.74C321.223 486.06 321.104 484.433 320.867 482.86C320.652 481.287 320.35 479.628 319.962 477.882C319.941 477.602 320.027 477.247 320.221 476.816C320.436 476.385 320.695 476.008 320.997 475.684C321.298 475.361 321.568 475.199 321.805 475.199C322.236 475.199 322.753 475.221 323.356 475.264C323.55 475.286 323.776 475.296 324.035 475.296C324.897 475.296 325.856 475.221 326.912 475.07C327.084 475.049 327.267 475.027 327.461 475.006C327.655 474.984 327.849 474.973 328.043 474.973ZM324.778 456.84C324.39 456.84 323.906 457.498 323.324 458.812C322.764 460.127 322.203 461.872 321.643 464.048C321.083 466.203 320.598 468.487 320.189 470.901C321.912 468.94 323.238 466.903 324.164 464.792C325.091 462.658 325.565 460.665 325.586 458.812C325.586 457.498 325.317 456.84 324.778 456.84ZM333.981 476.46C333.55 476.46 333.194 476.363 332.914 476.169C332.634 475.975 332.494 475.674 332.494 475.264L332.526 475.006C332.892 472.592 333.388 469.845 334.013 466.763C334.638 463.682 335.22 461.021 335.758 458.78C336.103 457.401 337.04 456.711 338.57 456.711C339.949 456.711 340.639 457.153 340.639 458.036C340.639 458.23 340.607 458.446 340.542 458.683C339.982 460.967 339.238 463.736 338.312 466.99C337.385 470.222 336.502 473.034 335.661 475.426C335.424 476.115 334.864 476.46 333.981 476.46ZM332.752 484.185C331.804 484.185 331.082 483.926 330.587 483.409C330.113 482.892 329.876 482.213 329.876 481.373C329.876 480.403 330.145 479.628 330.684 479.046C331.244 478.464 332.02 478.173 333.011 478.173C333.959 478.173 334.67 478.41 335.144 478.884C335.64 479.337 335.888 480.015 335.888 480.921C335.888 481.912 335.607 482.709 335.047 483.312C334.487 483.894 333.722 484.185 332.752 484.185Z" fill="#100B5A"/>
<path d="M125.245 512.796H126.561L123.333 518.309V522.492H122.156V518.323L118.928 512.796H120.244L122.738 517.284L125.245 512.796ZM125.729 519.306C125.729 518.66 125.872 518.087 126.158 517.588C126.454 517.09 126.851 516.697 127.35 516.411C127.848 516.125 128.407 515.982 129.026 515.982C129.654 515.982 130.213 516.125 130.702 516.411C131.201 516.697 131.593 517.09 131.879 517.588C132.175 518.087 132.323 518.66 132.323 519.306C132.323 519.943 132.175 520.516 131.879 521.024C131.593 521.523 131.201 521.915 130.702 522.201C130.213 522.488 129.654 522.631 129.026 522.631C128.407 522.631 127.848 522.488 127.35 522.201C126.851 521.915 126.454 521.523 126.158 521.024C125.872 520.516 125.729 519.943 125.729 519.306ZM126.851 519.306C126.851 519.749 126.943 520.142 127.128 520.484C127.322 520.825 127.581 521.098 127.904 521.301C128.236 521.495 128.61 521.592 129.026 521.592C129.441 521.592 129.811 521.495 130.134 521.301C130.467 521.098 130.725 520.825 130.91 520.484C131.104 520.142 131.201 519.749 131.201 519.306C131.201 518.863 131.104 518.47 130.91 518.129C130.725 517.778 130.467 517.505 130.134 517.311C129.811 517.117 129.441 517.021 129.026 517.021C128.61 517.021 128.236 517.117 127.904 517.311C127.581 517.505 127.322 517.778 127.128 518.129C126.943 518.47 126.851 518.863 126.851 519.306ZM134.953 519.999C134.953 520.507 135.069 520.899 135.3 521.176C135.53 521.453 135.868 521.592 136.311 521.592C136.634 521.592 136.916 521.527 137.156 521.398C137.405 521.259 137.594 521.07 137.724 520.83C137.862 520.59 137.932 520.313 137.932 519.999V516.12H139.04V522.492H137.932V521.495C137.719 521.873 137.456 522.16 137.142 522.354C136.828 522.538 136.459 522.631 136.034 522.631C135.369 522.631 134.838 522.404 134.441 521.952C134.044 521.499 133.845 520.895 133.845 520.137V516.12H134.953V519.999ZM145.096 513.488C145.096 513.276 145.17 513.1 145.318 512.962C145.465 512.814 145.641 512.74 145.844 512.74C146.056 512.74 146.232 512.814 146.37 512.962C146.518 513.1 146.592 513.276 146.592 513.488C146.592 513.691 146.518 513.867 146.37 514.015C146.232 514.162 146.056 514.236 145.844 514.236C145.641 514.236 145.465 514.162 145.318 514.015C145.17 513.867 145.096 513.691 145.096 513.488ZM144.002 524.071C144.075 524.182 144.168 524.27 144.279 524.335C144.399 524.399 144.533 524.432 144.68 524.432C144.837 524.432 144.962 524.39 145.054 524.307C145.156 524.224 145.23 524.09 145.276 523.905C145.322 523.72 145.345 523.48 145.345 523.185V516.12H146.453V523.323C146.453 523.785 146.38 524.182 146.232 524.515C146.093 524.847 145.886 525.101 145.608 525.277C145.331 525.452 144.999 525.54 144.611 525.54C144.426 525.54 144.26 525.517 144.112 525.47C143.965 525.434 143.831 525.373 143.711 525.29C143.591 525.207 143.484 525.106 143.392 524.986L144.002 524.071ZM149.847 519.999C149.847 520.507 149.963 520.899 150.194 521.176C150.424 521.453 150.762 521.592 151.205 521.592C151.528 521.592 151.81 521.527 152.05 521.398C152.299 521.259 152.488 521.07 152.618 520.83C152.756 520.59 152.826 520.313 152.826 519.999V516.12H153.934V522.492H152.826V521.495C152.613 521.873 152.35 522.16 152.036 522.354C151.722 522.538 151.353 522.631 150.928 522.631C150.263 522.631 149.732 522.404 149.335 521.952C148.938 521.499 148.739 520.895 148.739 520.137V516.12H149.847V519.999ZM156.28 520.539C156.409 520.733 156.557 520.913 156.723 521.079C156.89 521.245 157.079 521.379 157.291 521.481C157.513 521.573 157.753 521.619 158.012 521.619C158.326 521.619 158.57 521.55 158.746 521.412C158.931 521.264 159.023 521.065 159.023 520.816C159.023 520.594 158.949 520.41 158.801 520.262C158.663 520.105 158.483 519.976 158.261 519.874C158.039 519.763 157.804 519.662 157.555 519.569C157.278 519.459 156.996 519.329 156.71 519.181C156.433 519.024 156.197 518.826 156.003 518.586C155.818 518.336 155.726 518.027 155.726 517.658C155.726 517.279 155.823 516.965 156.017 516.716C156.22 516.466 156.479 516.282 156.793 516.162C157.116 516.042 157.448 515.982 157.79 515.982C158.132 515.982 158.45 516.037 158.746 516.148C159.051 516.259 159.318 516.406 159.549 516.591C159.78 516.776 159.96 516.988 160.09 517.228L159.203 517.796C159.028 517.556 158.806 517.358 158.538 517.201C158.28 517.044 157.984 516.965 157.652 516.965C157.421 516.965 157.222 517.016 157.056 517.117C156.89 517.219 156.807 517.376 156.807 517.588C156.807 517.755 156.871 517.902 157.001 518.032C157.13 518.161 157.296 518.276 157.499 518.378C157.702 518.48 157.915 518.577 158.136 518.669C158.506 518.817 158.843 518.978 159.148 519.154C159.452 519.32 159.692 519.523 159.868 519.763C160.053 520.003 160.145 520.313 160.145 520.691C160.145 521.245 159.942 521.707 159.536 522.077C159.138 522.446 158.612 522.631 157.956 522.631C157.532 522.631 157.148 522.557 156.807 522.409C156.465 522.252 156.174 522.054 155.934 521.813C155.703 521.573 155.528 521.329 155.407 521.079L156.28 520.539ZM160.634 516.12H163.82V517.159H160.634V516.12ZM161.673 513.904H162.781V522.492H161.673V513.904ZM169.583 519.306C169.583 519.749 169.676 520.142 169.86 520.484C170.054 520.825 170.313 521.098 170.636 521.301C170.969 521.495 171.343 521.592 171.758 521.592C172.1 521.592 172.419 521.541 172.714 521.439C173.019 521.329 173.282 521.185 173.504 521.01C173.725 520.825 173.882 520.631 173.975 520.428V521.813C173.753 522.072 173.434 522.275 173.019 522.423C172.612 522.561 172.192 522.631 171.758 522.631C171.14 522.631 170.581 522.488 170.082 522.201C169.583 521.915 169.186 521.523 168.891 521.024C168.605 520.516 168.461 519.943 168.461 519.306C168.461 518.66 168.605 518.087 168.891 517.588C169.186 517.09 169.583 516.697 170.082 516.411C170.581 516.125 171.14 515.982 171.758 515.982C172.192 515.982 172.612 516.055 173.019 516.203C173.434 516.342 173.753 516.54 173.975 516.799V518.184C173.882 517.972 173.725 517.778 173.504 517.602C173.282 517.427 173.019 517.288 172.714 517.187C172.419 517.076 172.1 517.021 171.758 517.021C171.343 517.021 170.969 517.117 170.636 517.311C170.313 517.505 170.054 517.778 169.86 518.129C169.676 518.47 169.583 518.863 169.583 519.306ZM175.146 519.306C175.146 518.66 175.289 518.087 175.575 517.588C175.871 517.09 176.268 516.697 176.766 516.411C177.265 516.125 177.824 515.982 178.443 515.982C179.071 515.982 179.629 516.125 180.119 516.411C180.617 516.697 181.01 517.09 181.296 517.588C181.592 518.087 181.739 518.66 181.739 519.306C181.739 519.943 181.592 520.516 181.296 521.024C181.01 521.523 180.617 521.915 180.119 522.201C179.629 522.488 179.071 522.631 178.443 522.631C177.824 522.631 177.265 522.488 176.766 522.201C176.268 521.915 175.871 521.523 175.575 521.024C175.289 520.516 175.146 519.943 175.146 519.306ZM176.268 519.306C176.268 519.749 176.36 520.142 176.545 520.484C176.739 520.825 176.997 521.098 177.321 521.301C177.653 521.495 178.027 521.592 178.443 521.592C178.858 521.592 179.228 521.495 179.551 521.301C179.883 521.098 180.142 520.825 180.326 520.484C180.52 520.142 180.617 519.749 180.617 519.306C180.617 518.863 180.52 518.47 180.326 518.129C180.142 517.778 179.883 517.505 179.551 517.311C179.228 517.117 178.858 517.021 178.443 517.021C178.027 517.021 177.653 517.117 177.321 517.311C176.997 517.505 176.739 517.778 176.545 518.129C176.36 518.47 176.268 518.863 176.268 519.306ZM182.708 519.306C182.708 518.66 182.851 518.087 183.137 517.588C183.433 517.09 183.83 516.697 184.328 516.411C184.827 516.125 185.386 515.982 186.005 515.982C186.633 515.982 187.191 516.125 187.681 516.411C188.179 516.697 188.572 517.09 188.858 517.588C189.154 518.087 189.301 518.66 189.301 519.306C189.301 519.943 189.154 520.516 188.858 521.024C188.572 521.523 188.179 521.915 187.681 522.201C187.191 522.488 186.633 522.631 186.005 522.631C185.386 522.631 184.827 522.488 184.328 522.201C183.83 521.915 183.433 521.523 183.137 521.024C182.851 520.516 182.708 519.943 182.708 519.306ZM183.83 519.306C183.83 519.749 183.922 520.142 184.107 520.484C184.301 520.825 184.559 521.098 184.883 521.301C185.215 521.495 185.589 521.592 186.005 521.592C186.42 521.592 186.79 521.495 187.113 521.301C187.445 521.098 187.704 520.825 187.888 520.484C188.082 520.142 188.179 519.749 188.179 519.306C188.179 518.863 188.082 518.47 187.888 518.129C187.704 517.778 187.445 517.505 187.113 517.311C186.79 517.117 186.42 517.021 186.005 517.021C185.589 517.021 185.215 517.117 184.883 517.311C184.559 517.505 184.301 517.778 184.107 518.129C183.922 518.47 183.83 518.863 183.83 519.306ZM190.755 511.687H191.863V522.492H190.755V511.687ZM194.218 516.12H195.603L192.832 518.752L195.88 522.492H194.495L191.447 518.752L194.218 516.12ZM199.188 522.631C198.597 522.631 198.07 522.492 197.608 522.215C197.156 521.929 196.8 521.536 196.542 521.038C196.292 520.539 196.168 519.962 196.168 519.306C196.168 518.641 196.297 518.059 196.556 517.561C196.823 517.062 197.193 516.674 197.664 516.397C198.144 516.12 198.698 515.982 199.326 515.982C199.954 515.982 200.49 516.115 200.933 516.383C201.385 516.642 201.732 517.016 201.972 517.505C202.212 517.995 202.332 518.577 202.332 519.251C202.332 519.315 202.327 519.385 202.318 519.459C202.318 519.523 202.318 519.565 202.318 519.583H196.874V518.641H201.445L201.002 519.278C201.03 519.232 201.058 519.163 201.085 519.071C201.113 518.969 201.127 518.886 201.127 518.821C201.127 518.443 201.048 518.115 200.891 517.838C200.744 517.561 200.536 517.344 200.268 517.187C200 517.03 199.686 516.951 199.326 516.951C198.901 516.951 198.536 517.044 198.232 517.228C197.936 517.404 197.705 517.662 197.539 518.004C197.382 518.336 197.299 518.747 197.29 519.237C197.29 519.736 197.368 520.16 197.525 520.511C197.682 520.862 197.913 521.13 198.218 521.315C198.523 521.499 198.892 521.592 199.326 521.592C199.76 521.592 200.143 521.499 200.476 521.315C200.808 521.121 201.09 520.83 201.321 520.442L202.221 521.01C201.889 521.546 201.469 521.952 200.961 522.229C200.462 522.497 199.871 522.631 199.188 522.631ZM208.63 511.687H209.738V522.492H208.63V511.687ZM203.297 519.306C203.297 518.614 203.44 518.022 203.726 517.533C204.013 517.034 204.396 516.651 204.876 516.383C205.356 516.115 205.883 515.982 206.455 515.982C206.991 515.982 207.457 516.115 207.854 516.383C208.251 516.651 208.561 517.034 208.782 517.533C209.013 518.022 209.129 518.614 209.129 519.306C209.129 519.99 209.013 520.581 208.782 521.079C208.561 521.578 208.251 521.961 207.854 522.229C207.457 522.497 206.991 522.631 206.455 522.631C205.883 522.631 205.356 522.497 204.876 522.229C204.396 521.961 204.013 521.578 203.726 521.079C203.44 520.581 203.297 519.99 203.297 519.306ZM204.419 519.306C204.419 519.796 204.516 520.211 204.71 520.553C204.913 520.895 205.181 521.153 205.513 521.329C205.846 521.504 206.206 521.592 206.594 521.592C206.917 521.592 207.236 521.504 207.55 521.329C207.863 521.153 208.122 520.895 208.325 520.553C208.528 520.211 208.63 519.796 208.63 519.306C208.63 518.817 208.528 518.401 208.325 518.059C208.122 517.718 207.863 517.459 207.55 517.284C207.236 517.108 206.917 517.021 206.594 517.021C206.206 517.021 205.846 517.108 205.513 517.284C205.181 517.459 204.913 517.718 204.71 518.059C204.516 518.401 204.419 518.817 204.419 519.306ZM220.96 516.12L216.805 525.54H215.558L217.303 521.592L214.865 516.12H216.181L218.204 521.107L217.746 521.052L219.714 516.12H220.96ZM221.248 519.306C221.248 518.66 221.391 518.087 221.678 517.588C221.973 517.09 222.37 516.697 222.869 516.411C223.368 516.125 223.926 515.982 224.545 515.982C225.173 515.982 225.732 516.125 226.221 516.411C226.72 516.697 227.112 517.09 227.399 517.588C227.694 518.087 227.842 518.66 227.842 519.306C227.842 519.943 227.694 520.516 227.399 521.024C227.112 521.523 226.72 521.915 226.221 522.201C225.732 522.488 225.173 522.631 224.545 522.631C223.926 522.631 223.368 522.488 222.869 522.201C222.37 521.915 221.973 521.523 221.678 521.024C221.391 520.516 221.248 519.943 221.248 519.306ZM222.37 519.306C222.37 519.749 222.462 520.142 222.647 520.484C222.841 520.825 223.1 521.098 223.423 521.301C223.755 521.495 224.129 521.592 224.545 521.592C224.961 521.592 225.33 521.495 225.653 521.301C225.986 521.098 226.244 520.825 226.429 520.484C226.623 520.142 226.72 519.749 226.72 519.306C226.72 518.863 226.623 518.47 226.429 518.129C226.244 517.778 225.986 517.505 225.653 517.311C225.33 517.117 224.961 517.021 224.545 517.021C224.129 517.021 223.755 517.117 223.423 517.311C223.1 517.505 222.841 517.778 222.647 518.129C222.462 518.47 222.37 518.863 222.37 519.306ZM230.472 519.999C230.472 520.507 230.588 520.899 230.819 521.176C231.05 521.453 231.387 521.592 231.83 521.592C232.153 521.592 232.435 521.527 232.675 521.398C232.924 521.259 233.114 521.07 233.243 520.83C233.381 520.59 233.451 520.313 233.451 519.999V516.12H234.559V522.492H233.451V521.495C233.238 521.873 232.975 522.16 232.661 522.354C232.347 522.538 231.978 522.631 231.553 522.631C230.888 522.631 230.357 522.404 229.96 521.952C229.563 521.499 229.364 520.895 229.364 520.137V516.12H230.472V519.999ZM237.75 516.12V522.492H236.642V516.12H237.75ZM239.676 517.339C239.528 517.228 239.394 517.15 239.274 517.104C239.154 517.048 239.002 517.021 238.817 517.021C238.54 517.021 238.323 517.09 238.166 517.228C238.009 517.367 237.898 517.556 237.833 517.796C237.778 518.036 237.75 518.309 237.75 518.614H237.252C237.252 518.106 237.339 517.658 237.515 517.27C237.699 516.873 237.935 516.559 238.221 516.328C238.508 516.097 238.798 515.982 239.094 515.982C239.325 515.982 239.537 516.014 239.731 516.079C239.934 516.134 240.119 516.249 240.285 516.425L239.676 517.339ZM244.754 516.12H249.103V517.852H244.754V516.12ZM248.868 513.696C248.776 513.576 248.674 513.488 248.563 513.433C248.462 513.377 248.351 513.35 248.231 513.35C248.092 513.35 247.972 513.382 247.87 513.447C247.778 513.511 247.704 513.613 247.649 513.751C247.593 513.89 247.566 514.07 247.566 514.292V522.492H245.557V513.765C245.557 513.285 245.645 512.874 245.82 512.532C246.005 512.191 246.273 511.927 246.624 511.743C246.984 511.558 247.427 511.466 247.954 511.466C248.277 511.466 248.549 511.507 248.771 511.59C248.993 511.664 249.182 511.757 249.339 511.867C249.496 511.969 249.621 512.066 249.713 512.158L248.868 513.696ZM249.959 513.724C249.959 513.391 250.079 513.123 250.319 512.92C250.559 512.708 250.845 512.602 251.178 512.602C251.519 512.602 251.806 512.708 252.037 512.92C252.277 513.123 252.397 513.391 252.397 513.724C252.397 514.056 252.277 514.329 252.037 514.541C251.806 514.753 251.519 514.86 251.178 514.86C250.845 514.86 250.559 514.753 250.319 514.541C250.079 514.329 249.959 514.056 249.959 513.724ZM250.167 516.12H252.189V522.492H250.167V516.12ZM255.976 516.12V522.492H253.912V516.12H255.976ZM257.818 518.281C257.707 518.17 257.587 518.083 257.458 518.018C257.338 517.953 257.186 517.921 257.001 517.921C256.798 517.921 256.618 517.976 256.461 518.087C256.304 518.198 256.184 518.36 256.1 518.572C256.017 518.784 255.976 519.043 255.976 519.348L255.477 518.614C255.477 518.106 255.574 517.653 255.768 517.256C255.971 516.859 256.234 516.545 256.558 516.314C256.881 516.083 257.218 515.968 257.569 515.968C257.8 515.968 258.021 516.014 258.234 516.106C258.446 516.199 258.608 516.328 258.719 516.494L257.818 518.281ZM259.953 520.179C260.276 520.447 260.567 520.659 260.826 520.816C261.094 520.964 261.329 521.07 261.532 521.135C261.736 521.19 261.911 521.218 262.059 521.218C262.271 521.218 262.428 521.172 262.53 521.079C262.631 520.987 262.682 520.867 262.682 520.719C262.682 520.581 262.641 520.465 262.557 520.373C262.474 520.271 262.331 520.174 262.128 520.082C261.934 519.99 261.666 519.893 261.325 519.791C261.02 519.68 260.729 519.551 260.452 519.403C260.184 519.246 259.962 519.038 259.787 518.78C259.612 518.521 259.524 518.189 259.524 517.782C259.524 517.395 259.625 517.067 259.829 516.799C260.041 516.531 260.323 516.328 260.674 516.189C261.034 516.051 261.445 515.982 261.906 515.982C262.276 515.982 262.617 516.023 262.931 516.106C263.255 516.189 263.555 516.3 263.832 516.439C264.118 516.577 264.386 516.739 264.635 516.924L263.887 518.281C263.619 518.032 263.315 517.829 262.973 517.672C262.631 517.505 262.317 517.422 262.031 517.422C261.837 517.422 261.689 517.459 261.588 517.533C261.495 517.607 261.449 517.704 261.449 517.824C261.449 517.962 261.505 518.078 261.615 518.17C261.736 518.263 261.902 518.35 262.114 518.433C262.336 518.507 262.604 518.604 262.918 518.724C263.25 518.844 263.555 518.983 263.832 519.14C264.118 519.297 264.344 519.495 264.511 519.736C264.686 519.976 264.774 520.294 264.774 520.691C264.774 521.375 264.561 521.892 264.137 522.243C263.721 522.585 263.135 522.755 262.377 522.755C261.916 522.755 261.486 522.7 261.089 522.589C260.701 522.488 260.341 522.349 260.009 522.174C259.676 521.989 259.367 521.786 259.081 521.564L259.953 520.179ZM265.176 516.12H269.443V517.852H265.176V516.12ZM266.298 513.904H268.307V522.492H266.298V513.904ZM276.551 516.12V522.492H274.487V516.12H276.551ZM278.394 518.281C278.283 518.17 278.163 518.083 278.034 518.018C277.914 517.953 277.761 517.921 277.576 517.921C277.373 517.921 277.193 517.976 277.036 518.087C276.879 518.198 276.759 518.36 276.676 518.572C276.593 518.784 276.551 519.043 276.551 519.348L276.053 518.614C276.053 518.106 276.15 517.653 276.344 517.256C276.547 516.859 276.81 516.545 277.133 516.314C277.456 516.083 277.793 515.968 278.144 515.968C278.375 515.968 278.597 516.014 278.809 516.106C279.022 516.199 279.183 516.328 279.294 516.494L278.394 518.281ZM283.221 522.631C282.482 522.631 281.84 522.497 281.296 522.229C280.76 521.952 280.344 521.564 280.049 521.065C279.753 520.567 279.606 519.98 279.606 519.306C279.606 518.623 279.749 518.032 280.035 517.533C280.321 517.034 280.732 516.651 281.268 516.383C281.813 516.115 282.455 515.982 283.193 515.982C283.932 515.982 284.556 516.111 285.063 516.369C285.571 516.619 285.959 516.984 286.227 517.464C286.495 517.944 286.629 518.526 286.629 519.209C286.629 519.311 286.629 519.412 286.629 519.514C286.629 519.606 286.62 519.685 286.601 519.749H280.783V518.586H284.717L284.218 519.223C284.265 519.158 284.302 519.08 284.329 518.988C284.366 518.886 284.385 518.803 284.385 518.738C284.385 518.461 284.334 518.221 284.232 518.018C284.131 517.815 283.988 517.658 283.803 517.547C283.618 517.436 283.401 517.381 283.152 517.381C282.838 517.381 282.575 517.45 282.362 517.588C282.15 517.727 281.988 517.939 281.877 518.226C281.776 518.503 281.72 518.854 281.711 519.278C281.711 519.666 281.767 519.999 281.877 520.276C281.988 520.553 282.154 520.765 282.376 520.913C282.598 521.052 282.87 521.121 283.193 521.121C283.563 521.121 283.877 521.052 284.135 520.913C284.403 520.774 284.616 520.567 284.773 520.29L286.643 520.747C286.31 521.375 285.858 521.846 285.285 522.16C284.722 522.474 284.034 522.631 283.221 522.631ZM289.68 519.306C289.68 519.648 289.754 519.943 289.901 520.193C290.049 520.433 290.252 520.622 290.511 520.761C290.779 520.899 291.065 520.968 291.37 520.968C291.628 520.968 291.873 520.931 292.104 520.858C292.344 520.774 292.561 520.664 292.755 520.525C292.958 520.387 293.124 520.216 293.254 520.013V522.049C293.032 522.224 292.755 522.368 292.422 522.478C292.09 522.58 291.684 522.631 291.203 522.631C290.502 522.631 289.869 522.492 289.306 522.215C288.752 521.938 288.313 521.55 287.99 521.052C287.676 520.553 287.519 519.971 287.519 519.306C287.519 518.632 287.676 518.05 287.99 517.561C288.313 517.062 288.752 516.674 289.306 516.397C289.869 516.12 290.502 515.982 291.203 515.982C291.684 515.982 292.09 516.037 292.422 516.148C292.755 516.249 293.032 516.379 293.254 516.536V518.586C293.124 518.383 292.953 518.212 292.741 518.073C292.538 517.935 292.316 517.829 292.076 517.755C291.836 517.681 291.6 517.644 291.37 517.644C291.065 517.644 290.779 517.718 290.511 517.865C290.252 518.013 290.049 518.212 289.901 518.461C289.754 518.71 289.68 518.992 289.68 519.306ZM294.641 513.724C294.641 513.391 294.761 513.123 295.001 512.92C295.241 512.708 295.527 512.602 295.86 512.602C296.201 512.602 296.488 512.708 296.719 512.92C296.959 513.123 297.079 513.391 297.079 513.724C297.079 514.056 296.959 514.329 296.719 514.541C296.488 514.753 296.201 514.86 295.86 514.86C295.527 514.86 295.241 514.753 295.001 514.541C294.761 514.329 294.641 514.056 294.641 513.724ZM294.848 516.12H296.871V522.492H294.848V516.12ZM300.672 525.54H298.58V516.12H300.672V525.54ZM305.88 519.306C305.88 520.045 305.732 520.668 305.437 521.176C305.151 521.684 304.776 522.067 304.315 522.326C303.862 522.585 303.373 522.714 302.846 522.714C302.292 522.714 301.812 522.575 301.406 522.298C301.009 522.012 300.704 521.615 300.491 521.107C300.279 520.59 300.173 519.99 300.173 519.306C300.173 518.614 300.279 518.013 300.491 517.505C300.704 516.997 301.009 516.605 301.406 516.328C301.812 516.042 302.292 515.898 302.846 515.898C303.373 515.898 303.862 516.028 304.315 516.286C304.776 516.545 305.151 516.928 305.437 517.436C305.732 517.935 305.88 518.558 305.88 519.306ZM303.678 519.306C303.678 518.974 303.608 518.692 303.47 518.461C303.331 518.23 303.147 518.055 302.916 517.935C302.685 517.815 302.431 517.755 302.154 517.755C301.914 517.755 301.678 517.815 301.447 517.935C301.226 518.046 301.041 518.216 300.893 518.447C300.745 518.678 300.672 518.964 300.672 519.306C300.672 519.648 300.745 519.934 300.893 520.165C301.041 520.396 301.226 520.571 301.447 520.691C301.678 520.802 301.914 520.858 302.154 520.858C302.431 520.858 302.685 520.798 302.916 520.678C303.147 520.557 303.331 520.382 303.47 520.151C303.608 519.92 303.678 519.639 303.678 519.306ZM310.385 522.631C309.646 522.631 309.004 522.497 308.459 522.229C307.924 521.952 307.508 521.564 307.212 521.065C306.917 520.567 306.769 519.98 306.769 519.306C306.769 518.623 306.912 518.032 307.199 517.533C307.485 517.034 307.896 516.651 308.431 516.383C308.976 516.115 309.618 515.982 310.357 515.982C311.096 515.982 311.719 516.111 312.227 516.369C312.735 516.619 313.123 516.984 313.391 517.464C313.658 517.944 313.792 518.526 313.792 519.209C313.792 519.311 313.792 519.412 313.792 519.514C313.792 519.606 313.783 519.685 313.765 519.749H307.947V518.586H311.881L311.382 519.223C311.428 519.158 311.465 519.08 311.493 518.988C311.53 518.886 311.548 518.803 311.548 518.738C311.548 518.461 311.497 518.221 311.396 518.018C311.294 517.815 311.151 517.658 310.966 517.547C310.782 517.436 310.565 517.381 310.315 517.381C310.001 517.381 309.738 517.45 309.526 517.588C309.313 517.727 309.152 517.939 309.041 518.226C308.939 518.503 308.884 518.854 308.875 519.278C308.875 519.666 308.93 519.999 309.041 520.276C309.152 520.553 309.318 520.765 309.54 520.913C309.761 521.052 310.034 521.121 310.357 521.121C310.726 521.121 311.04 521.052 311.299 520.913C311.567 520.774 311.779 520.567 311.936 520.29L313.806 520.747C313.474 521.375 313.021 521.846 312.449 522.16C311.885 522.474 311.197 522.631 310.385 522.631ZM315.583 521.938C315.583 521.726 315.657 521.546 315.804 521.398C315.961 521.25 316.141 521.176 316.345 521.176C316.557 521.176 316.737 521.25 316.885 521.398C317.033 521.546 317.106 521.726 317.106 521.938C317.106 522.141 317.033 522.321 316.885 522.478C316.737 522.626 316.557 522.7 316.345 522.7C316.141 522.7 315.961 522.626 315.804 522.478C315.657 522.321 315.583 522.141 315.583 521.938ZM129.981 532.644C129.981 533.392 130.147 534.052 130.479 534.625C130.821 535.197 131.264 535.645 131.809 535.968C132.354 536.292 132.945 536.453 133.582 536.453C134.044 536.453 134.464 536.393 134.843 536.273C135.231 536.153 135.581 535.987 135.895 535.774C136.209 535.553 136.477 535.299 136.699 535.013V536.564C136.293 536.924 135.849 537.192 135.369 537.368C134.889 537.543 134.293 537.631 133.582 537.631C132.908 537.631 132.275 537.511 131.684 537.271C131.103 537.021 130.59 536.675 130.147 536.232C129.703 535.779 129.357 535.248 129.108 534.639C128.858 534.029 128.734 533.364 128.734 532.644C128.734 531.924 128.858 531.259 129.108 530.649C129.357 530.04 129.703 529.513 130.147 529.07C130.59 528.617 131.103 528.271 131.684 528.031C132.275 527.782 132.908 527.657 133.582 527.657C134.293 527.657 134.889 527.745 135.369 527.92C135.849 528.096 136.293 528.363 136.699 528.724V530.275C136.477 529.989 136.209 529.739 135.895 529.527C135.581 529.305 135.231 529.135 134.843 529.015C134.464 528.894 134.044 528.834 133.582 528.834C132.945 528.834 132.354 528.996 131.809 529.319C131.264 529.643 130.821 530.09 130.479 530.663C130.147 531.226 129.981 531.887 129.981 532.644ZM139.81 526.687V537.492H138.702V526.687H139.81ZM142.788 533.614C142.788 533.087 142.673 532.69 142.442 532.422C142.22 532.154 141.883 532.021 141.43 532.021C141.107 532.021 140.821 532.09 140.572 532.228C140.332 532.367 140.142 532.556 140.004 532.796C139.874 533.036 139.81 533.309 139.81 533.614H139.45C139.45 533.106 139.547 532.658 139.74 532.27C139.934 531.873 140.198 531.559 140.53 531.328C140.872 531.097 141.264 530.982 141.708 530.982C142.151 530.982 142.534 531.074 142.857 531.259C143.19 531.443 143.444 531.72 143.619 532.09C143.804 532.459 143.896 532.921 143.896 533.475V537.492H142.788V533.614ZM148.445 537.631C147.854 537.631 147.328 537.492 146.866 537.215C146.413 536.929 146.058 536.536 145.799 536.038C145.55 535.539 145.425 534.962 145.425 534.306C145.425 533.641 145.555 533.059 145.813 532.561C146.081 532.062 146.45 531.674 146.921 531.397C147.402 531.12 147.956 530.982 148.584 530.982C149.212 530.982 149.747 531.115 150.191 531.383C150.643 531.642 150.989 532.016 151.229 532.505C151.47 532.995 151.59 533.577 151.59 534.251C151.59 534.315 151.585 534.385 151.576 534.459C151.576 534.523 151.576 534.565 151.576 534.583H146.132V533.641H150.703L150.26 534.278C150.288 534.232 150.315 534.163 150.343 534.071C150.371 533.969 150.384 533.886 150.384 533.821C150.384 533.443 150.306 533.115 150.149 532.838C150.001 532.561 149.793 532.344 149.526 532.187C149.258 532.03 148.944 531.951 148.584 531.951C148.159 531.951 147.794 532.044 147.489 532.228C147.194 532.404 146.963 532.662 146.797 533.004C146.64 533.336 146.557 533.747 146.547 534.237C146.547 534.736 146.626 535.16 146.783 535.511C146.94 535.862 147.171 536.13 147.475 536.315C147.78 536.499 148.15 536.592 148.584 536.592C149.018 536.592 149.401 536.499 149.733 536.315C150.066 536.121 150.348 535.83 150.578 535.442L151.479 536.01C151.146 536.546 150.726 536.952 150.218 537.229C149.72 537.497 149.129 537.631 148.445 537.631ZM153.607 534.306C153.607 534.749 153.7 535.142 153.884 535.484C154.078 535.825 154.337 536.098 154.66 536.301C154.992 536.495 155.366 536.592 155.782 536.592C156.124 536.592 156.442 536.541 156.738 536.439C157.043 536.329 157.306 536.185 157.527 536.01C157.749 535.825 157.906 535.631 157.998 535.428V536.813C157.777 537.072 157.458 537.275 157.043 537.423C156.636 537.561 156.216 537.631 155.782 537.631C155.163 537.631 154.605 537.488 154.106 537.201C153.607 536.915 153.21 536.523 152.915 536.024C152.628 535.516 152.485 534.943 152.485 534.306C152.485 533.66 152.628 533.087 152.915 532.588C153.21 532.09 153.607 531.697 154.106 531.411C154.605 531.125 155.163 530.982 155.782 530.982C156.216 530.982 156.636 531.055 157.043 531.203C157.458 531.342 157.777 531.54 157.998 531.799V533.184C157.906 532.972 157.749 532.778 157.527 532.602C157.306 532.427 157.043 532.288 156.738 532.187C156.442 532.076 156.124 532.021 155.782 532.021C155.366 532.021 154.992 532.117 154.66 532.311C154.337 532.505 154.078 532.778 153.884 533.129C153.7 533.47 153.607 533.863 153.607 534.306ZM159.654 526.687H160.763V537.492H159.654V526.687ZM163.117 531.12H164.503L161.732 533.752L164.78 537.492H163.394L160.347 533.752L163.117 531.12ZM175.034 531.12L170.878 540.54H169.631L171.377 536.592L168.939 531.12H170.255L172.277 536.107L171.82 536.052L173.787 531.12H175.034ZM175.322 534.306C175.322 533.66 175.465 533.087 175.751 532.588C176.047 532.09 176.444 531.697 176.942 531.411C177.441 531.125 178 530.982 178.618 530.982C179.246 530.982 179.805 531.125 180.295 531.411C180.793 531.697 181.186 532.09 181.472 532.588C181.768 533.087 181.915 533.66 181.915 534.306C181.915 534.943 181.768 535.516 181.472 536.024C181.186 536.523 180.793 536.915 180.295 537.201C179.805 537.488 179.246 537.631 178.618 537.631C178 537.631 177.441 537.488 176.942 537.201C176.444 536.915 176.047 536.523 175.751 536.024C175.465 535.516 175.322 534.943 175.322 534.306ZM176.444 534.306C176.444 534.749 176.536 535.142 176.721 535.484C176.915 535.825 177.173 536.098 177.496 536.301C177.829 536.495 178.203 536.592 178.618 536.592C179.034 536.592 179.403 536.495 179.727 536.301C180.059 536.098 180.318 535.825 180.502 535.484C180.696 535.142 180.793 534.749 180.793 534.306C180.793 533.863 180.696 533.47 180.502 533.129C180.318 532.778 180.059 532.505 179.727 532.311C179.403 532.117 179.034 532.021 178.618 532.021C178.203 532.021 177.829 532.117 177.496 532.311C177.173 532.505 176.915 532.778 176.721 533.129C176.536 533.47 176.444 533.863 176.444 534.306ZM184.546 534.999C184.546 535.507 184.661 535.899 184.892 536.176C185.123 536.453 185.46 536.592 185.903 536.592C186.227 536.592 186.508 536.527 186.748 536.398C186.998 536.259 187.187 536.07 187.316 535.83C187.455 535.59 187.524 535.313 187.524 534.999V531.12H188.632V537.492H187.524V536.495C187.312 536.873 187.048 537.16 186.735 537.354C186.421 537.538 186.051 537.631 185.626 537.631C184.961 537.631 184.43 537.404 184.033 536.952C183.636 536.499 183.438 535.895 183.438 535.137V531.12H184.546V534.999ZM191.824 531.12V537.492H190.716V531.12H191.824ZM193.749 532.339C193.601 532.228 193.468 532.15 193.347 532.104C193.227 532.048 193.075 532.021 192.89 532.021C192.613 532.021 192.396 532.09 192.239 532.228C192.082 532.367 191.971 532.556 191.907 532.796C191.851 533.036 191.824 533.309 191.824 533.614H191.325C191.325 533.106 191.413 532.658 191.588 532.27C191.773 531.873 192.008 531.559 192.295 531.328C192.581 531.097 192.872 530.982 193.167 530.982C193.398 530.982 193.611 531.014 193.805 531.079C194.008 531.134 194.192 531.249 194.359 531.425L193.749 532.339ZM199.88 535.539C200.009 535.733 200.157 535.913 200.323 536.079C200.489 536.245 200.679 536.379 200.891 536.481C201.113 536.573 201.353 536.619 201.612 536.619C201.925 536.619 202.17 536.55 202.346 536.412C202.53 536.264 202.623 536.065 202.623 535.816C202.623 535.594 202.549 535.41 202.401 535.262C202.263 535.105 202.082 534.976 201.861 534.874C201.639 534.763 201.404 534.662 201.154 534.569C200.877 534.459 200.596 534.329 200.309 534.181C200.032 534.024 199.797 533.826 199.603 533.586C199.418 533.336 199.326 533.027 199.326 532.658C199.326 532.279 199.423 531.965 199.617 531.716C199.82 531.466 200.079 531.282 200.392 531.162C200.716 531.042 201.048 530.982 201.39 530.982C201.732 530.982 202.05 531.037 202.346 531.148C202.65 531.259 202.918 531.406 203.149 531.591C203.38 531.776 203.56 531.988 203.689 532.228L202.803 532.796C202.627 532.556 202.406 532.358 202.138 532.201C201.879 532.044 201.584 531.965 201.251 531.965C201.02 531.965 200.822 532.016 200.656 532.117C200.489 532.219 200.406 532.376 200.406 532.588C200.406 532.755 200.471 532.902 200.6 533.032C200.73 533.161 200.896 533.276 201.099 533.378C201.302 533.48 201.515 533.577 201.736 533.669C202.106 533.817 202.443 533.978 202.747 534.154C203.052 534.32 203.292 534.523 203.468 534.763C203.652 535.003 203.745 535.313 203.745 535.691C203.745 536.245 203.542 536.707 203.135 537.077C202.738 537.446 202.212 537.631 201.556 537.631C201.131 537.631 200.748 537.557 200.406 537.409C200.065 537.252 199.774 537.054 199.534 536.813C199.303 536.573 199.127 536.329 199.007 536.079L199.88 535.539ZM204.234 531.12H207.42V532.159H204.234V531.12ZM205.273 528.904H206.381V537.492H205.273V528.904ZM209.03 535.525C209.03 535.765 209.086 535.973 209.196 536.149C209.316 536.324 209.478 536.458 209.681 536.55C209.894 536.633 210.134 536.675 210.402 536.675C210.743 536.675 211.048 536.606 211.316 536.467C211.593 536.329 211.81 536.135 211.967 535.885C212.133 535.627 212.216 535.331 212.216 534.999L212.438 535.83C212.438 536.236 212.313 536.573 212.064 536.841C211.824 537.109 211.524 537.307 211.163 537.437C210.813 537.566 210.462 537.631 210.111 537.631C209.723 537.631 209.358 537.552 209.016 537.395C208.684 537.229 208.416 536.994 208.213 536.689C208.01 536.384 207.908 536.015 207.908 535.581C207.908 534.962 208.125 534.468 208.559 534.098C209.002 533.72 209.617 533.53 210.402 533.53C210.863 533.53 211.247 533.586 211.551 533.697C211.865 533.798 212.115 533.918 212.299 534.057C212.484 534.186 212.609 534.292 212.673 534.375V535.026C212.35 534.805 212.018 534.648 211.676 534.555C211.334 534.454 210.97 534.403 210.582 534.403C210.221 534.403 209.926 534.449 209.695 534.542C209.473 534.634 209.307 534.763 209.196 534.93C209.086 535.096 209.03 535.294 209.03 535.525ZM208.864 532.588L208.324 531.771C208.564 531.596 208.892 531.42 209.307 531.245C209.732 531.069 210.24 530.982 210.831 530.982C211.33 530.982 211.764 531.06 212.133 531.217C212.512 531.365 212.803 531.582 213.006 531.868C213.218 532.154 213.324 532.505 213.324 532.921V537.492H212.216V533.073C212.216 532.852 212.179 532.672 212.105 532.533C212.032 532.385 211.925 532.27 211.787 532.187C211.658 532.104 211.505 532.044 211.33 532.007C211.154 531.97 210.97 531.951 210.776 531.951C210.462 531.951 210.175 531.988 209.917 532.062C209.667 532.136 209.455 532.224 209.28 532.325C209.104 532.427 208.966 532.515 208.864 532.588ZM214.231 531.12H217.417V532.159H214.231V531.12ZM215.27 528.904H216.378V537.492H215.27V528.904ZM218.792 535.539C218.921 535.733 219.069 535.913 219.235 536.079C219.401 536.245 219.59 536.379 219.803 536.481C220.025 536.573 220.265 536.619 220.523 536.619C220.837 536.619 221.082 536.55 221.257 536.412C221.442 536.264 221.534 536.065 221.534 535.816C221.534 535.594 221.461 535.41 221.313 535.262C221.174 535.105 220.994 534.976 220.773 534.874C220.551 534.763 220.315 534.662 220.066 534.569C219.789 534.459 219.507 534.329 219.221 534.181C218.944 534.024 218.709 533.826 218.515 533.586C218.33 533.336 218.238 533.027 218.238 532.658C218.238 532.279 218.335 531.965 218.528 531.716C218.732 531.466 218.99 531.282 219.304 531.162C219.627 531.042 219.96 530.982 220.302 530.982C220.643 530.982 220.962 531.037 221.257 531.148C221.562 531.259 221.83 531.406 222.061 531.591C222.292 531.776 222.472 531.988 222.601 532.228L221.715 532.796C221.539 532.556 221.317 532.358 221.05 532.201C220.791 532.044 220.496 531.965 220.163 531.965C219.932 531.965 219.734 532.016 219.567 532.117C219.401 532.219 219.318 532.376 219.318 532.588C219.318 532.755 219.383 532.902 219.512 533.032C219.641 533.161 219.808 533.276 220.011 533.378C220.214 533.48 220.426 533.577 220.648 533.669C221.017 533.817 221.354 533.978 221.659 534.154C221.964 534.32 222.204 534.523 222.379 534.763C222.564 535.003 222.656 535.313 222.656 535.691C222.656 536.245 222.453 536.707 222.047 537.077C221.65 537.446 221.123 537.631 220.468 537.631C220.043 537.631 219.66 537.557 219.318 537.409C218.976 537.252 218.685 537.054 218.445 536.813C218.214 536.573 218.039 536.329 217.919 536.079L218.792 535.539ZM228.268 528.488C228.268 528.276 228.342 528.096 228.49 527.948C228.647 527.8 228.827 527.726 229.03 527.726C229.243 527.726 229.423 527.8 229.571 527.948C229.718 528.096 229.792 528.276 229.792 528.488C229.792 528.691 229.718 528.871 229.571 529.028C229.423 529.176 229.243 529.25 229.03 529.25C228.827 529.25 228.647 529.176 228.49 529.028C228.342 528.871 228.268 528.691 228.268 528.488ZM228.476 531.12H229.584V537.492H228.476V531.12ZM235.953 533.614C235.953 533.087 235.838 532.69 235.607 532.422C235.376 532.154 235.039 532.021 234.596 532.021C234.272 532.021 233.986 532.09 233.737 532.228C233.497 532.358 233.307 532.542 233.169 532.782C233.04 533.022 232.975 533.3 232.975 533.614V537.492H231.867V531.12H232.975V532.117C233.187 531.73 233.451 531.443 233.765 531.259C234.088 531.074 234.457 530.982 234.873 530.982C235.547 530.982 236.078 531.208 236.466 531.66C236.863 532.104 237.061 532.709 237.061 533.475V537.492H235.953V533.614ZM248.354 531.12L244.198 540.54H242.951L244.697 536.592L242.259 531.12H243.575L245.597 536.107L245.14 536.052L247.107 531.12H248.354ZM248.642 534.306C248.642 533.66 248.785 533.087 249.071 532.588C249.367 532.09 249.764 531.697 250.262 531.411C250.761 531.125 251.32 530.982 251.939 530.982C252.566 530.982 253.125 531.125 253.615 531.411C254.113 531.697 254.506 532.09 254.792 532.588C255.088 533.087 255.235 533.66 255.235 534.306C255.235 534.943 255.088 535.516 254.792 536.024C254.506 536.523 254.113 536.915 253.615 537.201C253.125 537.488 252.566 537.631 251.939 537.631C251.32 537.631 250.761 537.488 250.262 537.201C249.764 536.915 249.367 536.523 249.071 536.024C248.785 535.516 248.642 534.943 248.642 534.306ZM249.764 534.306C249.764 534.749 249.856 535.142 250.041 535.484C250.235 535.825 250.493 536.098 250.816 536.301C251.149 536.495 251.523 536.592 251.939 536.592C252.354 536.592 252.723 536.495 253.047 536.301C253.379 536.098 253.638 535.825 253.822 535.484C254.016 535.142 254.113 534.749 254.113 534.306C254.113 533.863 254.016 533.47 253.822 533.129C253.638 532.778 253.379 532.505 253.047 532.311C252.723 532.117 252.354 532.021 251.939 532.021C251.523 532.021 251.149 532.117 250.816 532.311C250.493 532.505 250.235 532.778 250.041 533.129C249.856 533.47 249.764 533.863 249.764 534.306ZM257.866 534.999C257.866 535.507 257.981 535.899 258.212 536.176C258.443 536.453 258.78 536.592 259.223 536.592C259.547 536.592 259.828 536.527 260.068 536.398C260.318 536.259 260.507 536.07 260.636 535.83C260.775 535.59 260.844 535.313 260.844 534.999V531.12H261.952V537.492H260.844V536.495C260.632 536.873 260.369 537.16 260.055 537.354C259.741 537.538 259.371 537.631 258.946 537.631C258.281 537.631 257.75 537.404 257.353 536.952C256.956 536.499 256.758 535.895 256.758 535.137V531.12H257.866V534.999ZM265.144 531.12V537.492H264.036V531.12H265.144ZM267.069 532.339C266.922 532.228 266.788 532.15 266.668 532.104C266.548 532.048 266.395 532.021 266.21 532.021C265.933 532.021 265.716 532.09 265.559 532.228C265.402 532.367 265.292 532.556 265.227 532.796C265.172 533.036 265.144 533.309 265.144 533.614H264.645C264.645 533.106 264.733 532.658 264.908 532.27C265.093 531.873 265.329 531.559 265.615 531.328C265.901 531.097 266.192 530.982 266.488 530.982C266.718 530.982 266.931 531.014 267.125 531.079C267.328 531.134 267.513 531.249 267.679 531.425L267.069 532.339ZM273.976 540.54H272.868V531.12H273.976V540.54ZM279.309 534.306C279.309 534.99 279.166 535.581 278.88 536.079C278.593 536.578 278.21 536.961 277.73 537.229C277.259 537.497 276.732 537.631 276.151 537.631C275.624 537.631 275.158 537.497 274.752 537.229C274.354 536.961 274.04 536.578 273.81 536.079C273.588 535.581 273.477 534.99 273.477 534.306C273.477 533.614 273.588 533.022 273.81 532.533C274.04 532.034 274.354 531.651 274.752 531.383C275.158 531.115 275.624 530.982 276.151 530.982C276.732 530.982 277.259 531.115 277.73 531.383C278.21 531.651 278.593 532.034 278.88 532.533C279.166 533.022 279.309 533.614 279.309 534.306ZM278.187 534.306C278.187 533.817 278.085 533.401 277.882 533.059C277.688 532.718 277.425 532.459 277.093 532.284C276.769 532.108 276.409 532.021 276.012 532.021C275.689 532.021 275.37 532.108 275.056 532.284C274.742 532.459 274.484 532.718 274.281 533.059C274.077 533.401 273.976 533.817 273.976 534.306C273.976 534.796 274.077 535.211 274.281 535.553C274.484 535.895 274.742 536.153 275.056 536.329C275.37 536.504 275.689 536.592 276.012 536.592C276.409 536.592 276.769 536.504 277.093 536.329C277.425 536.153 277.688 535.895 277.882 535.553C278.085 535.211 278.187 534.796 278.187 534.306ZM281.945 531.12V537.492H280.837V531.12H281.945ZM283.871 532.339C283.723 532.228 283.589 532.15 283.469 532.104C283.349 532.048 283.197 532.021 283.012 532.021C282.735 532.021 282.518 532.09 282.361 532.228C282.204 532.367 282.093 532.556 282.028 532.796C281.973 533.036 281.945 533.309 281.945 533.614H281.447C281.447 533.106 281.534 532.658 281.71 532.27C281.894 531.873 282.13 531.559 282.416 531.328C282.703 531.097 282.993 530.982 283.289 530.982C283.52 530.982 283.732 531.014 283.926 531.079C284.129 531.134 284.314 531.249 284.48 531.425L283.871 532.339ZM284.828 534.306C284.828 533.66 284.971 533.087 285.258 532.588C285.553 532.09 285.95 531.697 286.449 531.411C286.948 531.125 287.506 530.982 288.125 530.982C288.753 530.982 289.312 531.125 289.801 531.411C290.3 531.697 290.692 532.09 290.979 532.588C291.274 533.087 291.422 533.66 291.422 534.306C291.422 534.943 291.274 535.516 290.979 536.024C290.692 536.523 290.3 536.915 289.801 537.201C289.312 537.488 288.753 537.631 288.125 537.631C287.506 537.631 286.948 537.488 286.449 537.201C285.95 536.915 285.553 536.523 285.258 536.024C284.971 535.516 284.828 534.943 284.828 534.306ZM285.95 534.306C285.95 534.749 286.043 535.142 286.227 535.484C286.421 535.825 286.68 536.098 287.003 536.301C287.336 536.495 287.71 536.592 288.125 536.592C288.541 536.592 288.91 536.495 289.233 536.301C289.566 536.098 289.824 535.825 290.009 535.484C290.203 535.142 290.3 534.749 290.3 534.306C290.3 533.863 290.203 533.47 290.009 533.129C289.824 532.778 289.566 532.505 289.233 532.311C288.91 532.117 288.541 532.021 288.125 532.021C287.71 532.021 287.336 532.117 287.003 532.311C286.68 532.505 286.421 532.778 286.227 533.129C286.043 533.47 285.95 533.863 285.95 534.306ZM292.46 531.12H295.646V532.159H292.46V531.12ZM295.535 528.017C295.442 527.86 295.332 527.763 295.202 527.726C295.082 527.68 294.967 527.657 294.856 527.657C294.717 527.657 294.597 527.699 294.496 527.782C294.403 527.856 294.33 527.985 294.274 528.17C294.219 528.354 294.191 528.599 294.191 528.904V537.492H293.083V528.765C293.083 528.257 293.157 527.842 293.304 527.518C293.452 527.195 293.66 526.955 293.928 526.798C294.205 526.632 294.537 526.549 294.925 526.549C295.128 526.549 295.308 526.577 295.465 526.632C295.622 526.687 295.756 526.757 295.867 526.84C295.987 526.923 296.08 527.011 296.144 527.103L295.535 528.017ZM296.908 528.488C296.908 528.276 296.982 528.096 297.13 527.948C297.287 527.8 297.467 527.726 297.67 527.726C297.882 527.726 298.062 527.8 298.21 527.948C298.358 528.096 298.432 528.276 298.432 528.488C298.432 528.691 298.358 528.871 298.21 529.028C298.062 529.176 297.882 529.25 297.67 529.25C297.467 529.25 297.287 529.176 297.13 529.028C296.982 528.871 296.908 528.691 296.908 528.488ZM297.116 531.12H298.224V537.492H297.116V531.12ZM300.506 526.687H301.615V537.492H300.506V526.687ZM306.165 537.631C305.574 537.631 305.047 537.492 304.585 537.215C304.133 536.929 303.777 536.536 303.519 536.038C303.269 535.539 303.145 534.962 303.145 534.306C303.145 533.641 303.274 533.059 303.533 532.561C303.8 532.062 304.17 531.674 304.641 531.397C305.121 531.12 305.675 530.982 306.303 530.982C306.931 530.982 307.467 531.115 307.91 531.383C308.362 531.642 308.709 532.016 308.949 532.505C309.189 532.995 309.309 533.577 309.309 534.251C309.309 534.315 309.304 534.385 309.295 534.459C309.295 534.523 309.295 534.565 309.295 534.583H303.851V533.641H308.423L307.979 534.278C308.007 534.232 308.035 534.163 308.062 534.071C308.09 533.969 308.104 533.886 308.104 533.821C308.104 533.443 308.025 533.115 307.868 532.838C307.721 532.561 307.513 532.344 307.245 532.187C306.977 532.03 306.663 531.951 306.303 531.951C305.878 531.951 305.514 532.044 305.209 532.228C304.913 532.404 304.682 532.662 304.516 533.004C304.359 533.336 304.276 533.747 304.267 534.237C304.267 534.736 304.345 535.16 304.502 535.511C304.659 535.862 304.89 536.13 305.195 536.315C305.5 536.499 305.869 536.592 306.303 536.592C306.737 536.592 307.12 536.499 307.453 536.315C307.785 536.121 308.067 535.83 308.298 535.442L309.198 536.01C308.866 536.546 308.446 536.952 307.938 537.229C307.439 537.497 306.848 537.631 306.165 537.631ZM310.415 536.938C310.415 536.726 310.489 536.546 310.637 536.398C310.794 536.25 310.974 536.176 311.177 536.176C311.389 536.176 311.569 536.25 311.717 536.398C311.865 536.546 311.939 536.726 311.939 536.938C311.939 537.141 311.865 537.321 311.717 537.478C311.569 537.626 311.389 537.7 311.177 537.7C310.974 537.7 310.794 537.626 310.637 537.478C310.489 537.321 310.415 537.141 310.415 536.938Z" fill="#100B5A"/>
<rect x="100.662" y="626.5" width="240.108" height="43.6264" rx="6.15661" fill="#F53800"/>
<path d="M208.844 641.884H211.393V655.459L202.195 646.797V654.812H199.646V641.237L208.844 649.9V641.884ZM213.869 643.029C213.869 642.635 214.011 642.315 214.294 642.068C214.577 641.81 214.916 641.68 215.31 641.68C215.704 641.68 216.037 641.81 216.307 642.068C216.591 642.315 216.732 642.635 216.732 643.029C216.732 643.41 216.591 643.731 216.307 643.989C216.037 644.248 215.704 644.377 215.31 644.377C214.916 644.377 214.577 644.248 214.294 643.989C214.011 643.731 213.869 643.41 213.869 643.029ZM214.128 646.316H216.455V654.812H214.128V646.316ZM220.805 650.564C220.805 651.057 220.915 651.488 221.137 651.857C221.359 652.227 221.654 652.516 222.024 652.725C222.405 652.935 222.824 653.039 223.28 653.039C223.649 653.039 224.006 652.984 224.351 652.873C224.696 652.75 225.003 652.59 225.274 652.393C225.558 652.184 225.773 651.944 225.921 651.673V654.129C225.625 654.4 225.237 654.615 224.757 654.776C224.289 654.923 223.741 654.997 223.113 654.997C222.214 654.997 221.402 654.812 220.675 654.443C219.961 654.074 219.395 653.557 218.976 652.892C218.57 652.214 218.367 651.439 218.367 650.564C218.367 649.678 218.57 648.902 218.976 648.237C219.395 647.572 219.961 647.055 220.675 646.686C221.402 646.316 222.214 646.132 223.113 646.132C223.741 646.132 224.289 646.212 224.757 646.372C225.237 646.52 225.625 646.723 225.921 646.981V649.438C225.773 649.167 225.551 648.933 225.256 648.736C224.973 648.527 224.659 648.367 224.314 648.256C223.969 648.145 223.624 648.089 223.28 648.089C222.824 648.089 222.405 648.2 222.024 648.422C221.654 648.631 221.359 648.921 221.137 649.29C220.915 649.659 220.805 650.084 220.805 650.564ZM232.039 654.997C231.116 654.997 230.309 654.812 229.619 654.443C228.93 654.074 228.394 653.563 228.013 652.91C227.643 652.245 227.459 651.463 227.459 650.564C227.459 649.653 227.643 648.871 228.013 648.219C228.394 647.554 228.93 647.043 229.619 646.686C230.309 646.316 231.122 646.132 232.057 646.132C232.993 646.132 233.787 646.304 234.44 646.649C235.105 646.981 235.61 647.474 235.955 648.126C236.299 648.767 236.472 649.542 236.472 650.454C236.472 650.564 236.466 650.681 236.453 650.805C236.453 650.928 236.447 651.026 236.435 651.1H228.825V649.622H234.348L233.701 650.472C233.751 650.398 233.794 650.3 233.831 650.177C233.88 650.041 233.904 649.93 233.904 649.844C233.904 649.425 233.824 649.068 233.664 648.773C233.517 648.477 233.301 648.243 233.018 648.071C232.735 647.899 232.402 647.812 232.021 647.812C231.553 647.812 231.159 647.917 230.838 648.126C230.531 648.323 230.291 648.625 230.118 649.031C229.958 649.425 229.872 649.918 229.86 650.509C229.86 651.075 229.94 651.556 230.1 651.95C230.272 652.344 230.524 652.645 230.857 652.855C231.189 653.064 231.59 653.169 232.057 653.169C232.587 653.169 233.036 653.07 233.406 652.873C233.787 652.664 234.101 652.356 234.348 651.95L236.435 652.596C235.992 653.396 235.401 654 234.662 654.406C233.935 654.8 233.061 654.997 232.039 654.997ZM238.664 641.884H241.619L241.083 650.731H239.2L238.664 641.884ZM238.627 653.797C238.627 653.39 238.769 653.058 239.052 652.799C239.347 652.528 239.711 652.393 240.141 652.393C240.585 652.393 240.948 652.528 241.231 652.799C241.514 653.058 241.656 653.39 241.656 653.797C241.656 654.203 241.514 654.542 241.231 654.812C240.948 655.071 240.585 655.2 240.141 655.2C239.711 655.2 239.347 655.071 239.052 654.812C238.769 654.542 238.627 654.203 238.627 653.797Z" fill="#FDFDFD"/>
<g clip-path="url(#clip1_2462_17882)">
<rect width="288.591" height="36.9396" transform="translate(76.4199 76.0078)" fill="#FDFDFD"/>
<path d="M285.938 76.0078C286.037 76.6948 286.089 77.3972 286.089 78.1113C286.089 86.2529 279.488 92.8525 271.347 92.8525H169.657C161.516 92.8523 154.916 86.2527 154.916 78.1113C154.916 77.3972 154.968 76.6948 155.066 76.0078H285.938Z" fill="#161E21"/>
</g>
<path d="M76.4199 112.945H365.011V131.415C365.011 145.016 353.985 156.042 340.384 156.042H101.046C87.4456 156.042 76.4199 145.016 76.4199 131.415V112.945Z" fill="#FDFDFD"/>
<g clip-path="url(#clip2_2462_17882)">
<rect x="309.602" y="119.102" width="30.783" height="30.783" rx="15.3915" fill="#100B5A"/>
<path d="M328.286 128.789C328.886 128.186 329.859 128.185 330.46 128.786C331.061 129.387 331.061 130.363 330.462 130.965L326.778 134.666L330.701 138.607C331.3 139.209 331.3 140.185 330.699 140.786C330.098 141.387 329.124 141.386 328.524 140.784L324.607 136.847L320.69 140.784C320.091 141.386 319.117 141.387 318.516 140.786C317.915 140.185 317.914 139.209 318.514 138.607L322.435 134.666L318.753 130.965C318.153 130.363 318.154 129.387 318.755 128.786C319.356 128.185 320.329 128.186 320.929 128.789L324.607 132.484L328.286 128.789Z" fill="#D2D2FA"/>
</g>
</g>
<path d="M304.561 73.0156C304.687 73.9036 304.755 74.8113 304.755 75.7344C304.755 86.2623 296.22 94.7967 285.692 94.7969H154.197C143.669 94.7968 135.135 86.2623 135.135 75.7344C135.135 74.8113 135.202 73.9036 135.329 73.0156H304.561Z" fill="#161E21"/>
<rect x="77.5561" y="74.5561" width="287.888" height="627.128" rx="14.0053" stroke="#CFD8DC" stroke-width="3.1123"/>
</g>
</g>
<defs>
<filter id="filter0_d_2462_17882" x="76" y="73" width="320.854" height="660.096" filterUnits="userSpaceOnUse" color-interpolation-filters="sRGB">
<feFlood flood-opacity="0" result="BackgroundImageFix"/>
<feColorMatrix in="SourceAlpha" type="matrix" values="0 0 0 0 0 0 0 0 0 0 0 0 0 0 0 0 0 0 127 0" result="hardAlpha"/>
<feOffset dx="14.9271" dy="14.9271"/>
<feGaussianBlur stdDeviation="7.46356"/>
<feComposite in2="hardAlpha" operator="out"/>
<feColorMatrix type="matrix" values="0 0 0 0 0 0 0 0 0 0 0 0 0 0 0 0 0 0 0.15 0"/>
<feBlend mode="normal" in2="BackgroundImageFix" result="effect1_dropShadow_2462_17882"/>
<feBlend mode="normal" in="SourceGraphic" in2="effect1_dropShadow_2462_17882" result="shape"/>
</filter>
<clipPath id="clip0_2462_17882">
<rect width="780" height="445" fill="white" transform="translate(445) rotate(90)"/>
</clipPath>
<clipPath id="clip1_2462_17882">
<rect width="288.591" height="36.9396" fill="white" transform="translate(76.4199 76.0078)"/>
</clipPath>
<clipPath id="clip2_2462_17882">
<rect width="239.338" height="43.0962" fill="white" transform="translate(101.047 112.945)"/>
</clipPath>
</defs>
</svg>
