<svg width="1915" height="495" viewBox="0 0 1915 495" fill="none" xmlns="http://www.w3.org/2000/svg">
<path d="M1488.59 94.6709L1482.58 105.901V112.664H1478.82V105.901L1472.59 94.6709H1477.02L1480.76 102.508L1484.33 94.6709H1488.59Z" fill="#5D585C"/>
<rect x="68" y="63.0078" width="233" height="60" rx="30" stroke="#B8B3B7" stroke-width="4"/>
<rect x="65" y="223.008" width="233" height="60" rx="30" stroke="#B8B3B7" stroke-width="4"/>
<rect x="425" y="225.664" width="233" height="60" rx="30" stroke="#B8B3B7" stroke-width="4"/>
<rect x="65" y="383.008" width="233" height="60" rx="30" stroke="#B8B3B7" stroke-width="4"/>
<path d="M151.187 84.0757H159.256C160.851 84.0757 162.137 84.5273 163.113 85.4307C164.09 86.3258 164.578 87.5872 164.578 89.2148C164.578 90.6146 164.143 91.8353 163.272 92.877C162.401 93.9105 161.062 94.4272 159.256 94.4272H153.616V102.008H151.187V84.0757ZM162.125 89.2271C162.125 87.9087 161.636 87.0135 160.66 86.5415C160.123 86.2892 159.386 86.1631 158.45 86.1631H153.616V92.3765H158.45C159.541 92.3765 160.424 92.1445 161.099 91.6807C161.783 91.2168 162.125 90.3989 162.125 89.2271ZM167.398 88.9341H169.485V91.1924C169.656 90.7529 170.075 90.2199 170.743 89.5933C171.41 88.9585 172.179 88.6411 173.05 88.6411C173.09 88.6411 173.16 88.6452 173.257 88.6533C173.355 88.6615 173.522 88.6777 173.758 88.7021V91.0215C173.628 90.9971 173.506 90.9808 173.392 90.9727C173.286 90.9645 173.168 90.9604 173.038 90.9604C171.931 90.9604 171.08 91.3185 170.486 92.0347C169.892 92.7427 169.595 93.5605 169.595 94.4883V102.008H167.398V88.9341ZM180.85 100.592C182.307 100.592 183.304 100.042 183.841 98.9438C184.386 97.8371 184.659 96.6082 184.659 95.2573C184.659 94.0366 184.463 93.0438 184.073 92.2788C183.454 91.0744 182.388 90.4722 180.875 90.4722C179.532 90.4722 178.555 90.9849 177.945 92.0103C177.334 93.0356 177.029 94.2726 177.029 95.7212C177.029 97.1128 177.334 98.2725 177.945 99.2002C178.555 100.128 179.524 100.592 180.85 100.592ZM180.936 88.5557C182.62 88.5557 184.044 89.1172 185.208 90.2402C186.372 91.3633 186.954 93.0153 186.954 95.1963C186.954 97.304 186.441 99.0456 185.416 100.421C184.39 101.796 182.799 102.484 180.643 102.484C178.844 102.484 177.416 101.878 176.358 100.665C175.3 99.4443 174.771 97.8086 174.771 95.7578C174.771 93.5605 175.328 91.8109 176.443 90.5088C177.558 89.2067 179.056 88.5557 180.936 88.5557ZM190.127 86.9443C190.16 86.0329 190.319 85.3656 190.604 84.9424C191.116 84.1937 192.105 83.8193 193.57 83.8193C193.708 83.8193 193.851 83.8234 193.997 83.8315C194.144 83.8397 194.31 83.8519 194.498 83.8682V85.8701C194.27 85.8538 194.103 85.8457 193.997 85.8457C193.899 85.8376 193.806 85.8335 193.716 85.8335C193.049 85.8335 192.65 86.0085 192.52 86.3584C192.39 86.7002 192.325 87.5791 192.325 88.9951H194.498V90.7285H192.3V102.008H190.127V90.7285H188.309V88.9951H190.127V86.9443ZM196.609 86.5659V84.0757H198.807V86.5659H196.609ZM196.609 88.9951H198.807V102.008H196.609V88.9951ZM202.139 84.0757H204.336V102.008H202.139V84.0757ZM213.089 88.6411C214.017 88.6411 214.916 88.8608 215.787 89.3003C216.657 89.7316 217.321 90.2931 217.776 90.9849C218.216 91.644 218.509 92.4131 218.655 93.292C218.785 93.8942 218.851 94.8545 218.851 96.1729H209.268C209.309 97.4993 209.622 98.5654 210.208 99.3711C210.794 100.169 211.701 100.567 212.93 100.567C214.078 100.567 214.993 100.189 215.677 99.4321C216.067 98.9927 216.344 98.484 216.507 97.9062H218.667C218.611 98.3864 218.419 98.9235 218.094 99.5176C217.776 100.104 217.418 100.584 217.02 100.958C216.352 101.609 215.526 102.049 214.542 102.276C214.013 102.407 213.414 102.472 212.747 102.472C211.119 102.472 209.74 101.882 208.609 100.702C207.478 99.5135 206.912 97.8534 206.912 95.7212C206.912 93.6216 207.482 91.9167 208.621 90.6064C209.76 89.2962 211.25 88.6411 213.089 88.6411ZM216.592 94.4272C216.503 93.4751 216.295 92.7142 215.97 92.1445C215.368 91.0866 214.362 90.5576 212.955 90.5576C211.945 90.5576 211.099 90.9238 210.416 91.6562C209.732 92.3805 209.37 93.3042 209.329 94.4272H216.592Z" fill="#14130F"/>
<path d="M146.551 252.291C147.691 252.291 148.59 252.063 149.249 251.607C149.916 251.152 150.25 250.33 150.25 249.142C150.25 247.864 149.786 246.993 148.858 246.529C148.362 246.285 147.699 246.163 146.869 246.163H140.936V252.291H146.551ZM138.507 244.076H146.808C148.175 244.076 149.302 244.275 150.189 244.674C151.874 245.439 152.716 246.851 152.716 248.91C152.716 249.984 152.492 250.863 152.044 251.546C151.605 252.23 150.986 252.779 150.189 253.194C150.889 253.479 151.414 253.854 151.764 254.317C152.122 254.781 152.321 255.534 152.362 256.576L152.447 258.98C152.472 259.664 152.529 260.173 152.618 260.506C152.765 261.076 153.025 261.442 153.399 261.605V262.008H150.421C150.34 261.853 150.274 261.654 150.226 261.41C150.177 261.166 150.136 260.694 150.104 259.994L149.957 257.003C149.9 255.831 149.465 255.046 148.651 254.647C148.187 254.427 147.459 254.317 146.466 254.317H140.936V262.008H138.507V244.076ZM161.432 248.641C162.359 248.641 163.259 248.861 164.129 249.3C165 249.732 165.663 250.293 166.119 250.985C166.559 251.644 166.852 252.413 166.998 253.292C167.128 253.894 167.193 254.854 167.193 256.173H157.611C157.652 257.499 157.965 258.565 158.551 259.371C159.137 260.169 160.044 260.567 161.273 260.567C162.42 260.567 163.336 260.189 164.02 259.432C164.41 258.993 164.687 258.484 164.85 257.906H167.01C166.953 258.386 166.762 258.924 166.437 259.518C166.119 260.104 165.761 260.584 165.362 260.958C164.695 261.609 163.869 262.049 162.884 262.276C162.355 262.407 161.757 262.472 161.09 262.472C159.462 262.472 158.083 261.882 156.952 260.702C155.82 259.514 155.255 257.853 155.255 255.721C155.255 253.622 155.825 251.917 156.964 250.606C158.103 249.296 159.592 248.641 161.432 248.641ZM164.935 254.427C164.846 253.475 164.638 252.714 164.312 252.145C163.71 251.087 162.705 250.558 161.297 250.558C160.288 250.558 159.442 250.924 158.758 251.656C158.075 252.381 157.713 253.304 157.672 254.427H164.935ZM174.945 248.556C176.418 248.556 177.614 248.914 178.534 249.63C179.461 250.346 180.019 251.579 180.206 253.329H178.07C177.94 252.523 177.643 251.856 177.179 251.327C176.715 250.79 175.97 250.521 174.945 250.521C173.545 250.521 172.544 251.205 171.942 252.572C171.551 253.459 171.356 254.553 171.356 255.855C171.356 257.166 171.633 258.268 172.186 259.164C172.739 260.059 173.61 260.506 174.798 260.506C175.71 260.506 176.43 260.23 176.959 259.676C177.496 259.115 177.866 258.35 178.07 257.381H180.206C179.962 259.115 179.352 260.384 178.375 261.19C177.398 261.987 176.149 262.386 174.627 262.386C172.918 262.386 171.555 261.764 170.538 260.519C169.521 259.265 169.012 257.703 169.012 255.831C169.012 253.536 169.57 251.75 170.685 250.472C171.799 249.194 173.22 248.556 174.945 248.556ZM182.403 248.995H184.637V262.008H182.403V248.995ZM182.403 244.076H184.637V246.566H182.403V244.076ZM193.487 260.531C194.513 260.531 195.363 260.104 196.039 259.249C196.722 258.386 197.064 257.101 197.064 255.392C197.064 254.35 196.913 253.455 196.612 252.706C196.043 251.266 195.001 250.545 193.487 250.545C191.965 250.545 190.924 251.306 190.362 252.828C190.061 253.642 189.911 254.675 189.911 255.929C189.911 256.938 190.061 257.796 190.362 258.504C190.932 259.855 191.974 260.531 193.487 260.531ZM187.799 248.995H189.935V250.729C190.375 250.134 190.855 249.675 191.375 249.349C192.116 248.861 192.987 248.617 193.988 248.617C195.469 248.617 196.726 249.186 197.76 250.326C198.793 251.457 199.31 253.076 199.31 255.184C199.31 258.032 198.565 260.067 197.076 261.288C196.132 262.061 195.034 262.447 193.78 262.447C192.796 262.447 191.97 262.232 191.302 261.8C190.912 261.556 190.476 261.137 189.996 260.543V267.22H187.799V248.995ZM207.33 248.641C208.258 248.641 209.157 248.861 210.028 249.3C210.899 249.732 211.562 250.293 212.018 250.985C212.457 251.644 212.75 252.413 212.896 253.292C213.027 253.894 213.092 254.854 213.092 256.173H203.509C203.55 257.499 203.863 258.565 204.449 259.371C205.035 260.169 205.943 260.567 207.171 260.567C208.319 260.567 209.234 260.189 209.918 259.432C210.309 258.993 210.585 258.484 210.748 257.906H212.909C212.852 258.386 212.66 258.924 212.335 259.518C212.018 260.104 211.66 260.584 211.261 260.958C210.593 261.609 209.767 262.049 208.783 262.276C208.254 262.407 207.656 262.472 206.988 262.472C205.361 262.472 203.981 261.882 202.85 260.702C201.719 259.514 201.153 257.853 201.153 255.721C201.153 253.622 201.723 251.917 202.862 250.606C204.002 249.296 205.491 248.641 207.33 248.641ZM210.833 254.427C210.744 253.475 210.536 252.714 210.211 252.145C209.609 251.087 208.604 250.558 207.196 250.558C206.187 250.558 205.34 250.924 204.657 251.656C203.973 252.381 203.611 253.304 203.57 254.427H210.833ZM217.108 257.906C217.173 258.639 217.356 259.2 217.657 259.591C218.211 260.299 219.171 260.653 220.538 260.653C221.352 260.653 222.068 260.478 222.687 260.128C223.305 259.77 223.614 259.221 223.614 258.48C223.614 257.918 223.366 257.491 222.87 257.198C222.552 257.019 221.926 256.812 220.99 256.576L219.244 256.136C218.129 255.86 217.307 255.55 216.778 255.208C215.834 254.614 215.362 253.792 215.362 252.743C215.362 251.506 215.806 250.505 216.693 249.74C217.588 248.975 218.788 248.592 220.294 248.592C222.263 248.592 223.683 249.17 224.554 250.326C225.099 251.058 225.364 251.847 225.348 252.694H223.272C223.232 252.197 223.057 251.746 222.748 251.339C222.243 250.761 221.368 250.472 220.123 250.472C219.293 250.472 218.662 250.631 218.231 250.948C217.808 251.266 217.596 251.685 217.596 252.206C217.596 252.775 217.877 253.231 218.438 253.573C218.764 253.776 219.244 253.955 219.879 254.11L221.332 254.464C222.91 254.846 223.968 255.217 224.505 255.575C225.36 256.136 225.787 257.019 225.787 258.224C225.787 259.387 225.344 260.392 224.457 261.239C223.578 262.085 222.235 262.508 220.428 262.508C218.483 262.508 217.104 262.069 216.29 261.19C215.484 260.303 215.053 259.208 214.996 257.906H217.108Z" fill="#14130F"/>
<path d="M458.761 258.878C458.818 259.895 459.058 260.721 459.481 261.356C460.287 262.544 461.707 263.138 463.741 263.138C464.653 263.138 465.483 263.008 466.231 262.748C467.68 262.243 468.404 261.34 468.404 260.038C468.404 259.061 468.099 258.365 467.489 257.95C466.87 257.543 465.902 257.189 464.583 256.888L462.154 256.339C460.567 255.981 459.444 255.586 458.785 255.155C457.646 254.406 457.076 253.287 457.076 251.798C457.076 250.187 457.634 248.864 458.749 247.831C459.863 246.797 461.442 246.28 463.485 246.28C465.365 246.28 466.96 246.736 468.27 247.647C469.588 248.551 470.248 249.999 470.248 251.993H467.965C467.843 251.033 467.582 250.296 467.184 249.784C466.443 248.848 465.186 248.38 463.412 248.38C461.979 248.38 460.95 248.681 460.323 249.283C459.697 249.885 459.383 250.585 459.383 251.383C459.383 252.262 459.75 252.905 460.482 253.312C460.962 253.572 462.049 253.897 463.741 254.288L466.256 254.862C467.468 255.139 468.404 255.517 469.063 255.997C470.203 256.835 470.772 258.052 470.772 259.647C470.772 261.633 470.048 263.053 468.6 263.907C467.159 264.762 465.483 265.189 463.57 265.189C461.34 265.189 459.595 264.619 458.333 263.48C457.072 262.349 456.454 260.815 456.478 258.878H458.761ZM479 251.297C479.928 251.297 480.827 251.517 481.698 251.957C482.569 252.388 483.232 252.949 483.688 253.641C484.127 254.3 484.42 255.069 484.566 255.948C484.697 256.55 484.762 257.511 484.762 258.829H475.179C475.22 260.156 475.533 261.222 476.119 262.027C476.705 262.825 477.612 263.224 478.841 263.224C479.989 263.224 480.904 262.845 481.588 262.088C481.979 261.649 482.255 261.14 482.418 260.562H484.579C484.522 261.043 484.33 261.58 484.005 262.174C483.688 262.76 483.329 263.24 482.931 263.614C482.263 264.265 481.437 264.705 480.453 264.933C479.924 265.063 479.326 265.128 478.658 265.128C477.031 265.128 475.651 264.538 474.52 263.358C473.389 262.17 472.823 260.51 472.823 258.377C472.823 256.278 473.393 254.573 474.532 253.263C475.672 251.952 477.161 251.297 479 251.297ZM482.503 257.083C482.414 256.131 482.206 255.37 481.881 254.801C481.279 253.743 480.274 253.214 478.866 253.214C477.857 253.214 477.01 253.58 476.327 254.312C475.643 255.037 475.281 255.96 475.24 257.083H482.503ZM487.533 246.732H489.73V264.664H487.533V246.732ZM498.482 251.297C499.41 251.297 500.309 251.517 501.18 251.957C502.051 252.388 502.714 252.949 503.17 253.641C503.609 254.3 503.902 255.069 504.049 255.948C504.179 256.55 504.244 257.511 504.244 258.829H494.662C494.702 260.156 495.016 261.222 495.602 262.027C496.188 262.825 497.095 263.224 498.324 263.224C499.471 263.224 500.387 262.845 501.07 262.088C501.461 261.649 501.738 261.14 501.9 260.562H504.061C504.004 261.043 503.813 261.58 503.487 262.174C503.17 262.76 502.812 263.24 502.413 263.614C501.746 264.265 500.92 264.705 499.935 264.933C499.406 265.063 498.808 265.128 498.141 265.128C496.513 265.128 495.134 264.538 494.002 263.358C492.871 262.17 492.306 260.51 492.306 258.377C492.306 256.278 492.875 254.573 494.015 253.263C495.154 251.952 496.643 251.297 498.482 251.297ZM501.986 257.083C501.896 256.131 501.689 255.37 501.363 254.801C500.761 253.743 499.756 253.214 498.348 253.214C497.339 253.214 496.493 253.58 495.809 254.312C495.125 255.037 494.763 255.96 494.723 257.083H501.986ZM511.996 251.212C513.469 251.212 514.665 251.57 515.584 252.286C516.512 253.002 517.07 254.235 517.257 255.985H515.121C514.99 255.179 514.693 254.512 514.229 253.983C513.766 253.446 513.021 253.177 511.996 253.177C510.596 253.177 509.595 253.861 508.993 255.228C508.602 256.115 508.407 257.21 508.407 258.512C508.407 259.822 508.683 260.925 509.237 261.82C509.79 262.715 510.661 263.163 511.849 263.163C512.761 263.163 513.481 262.886 514.01 262.333C514.547 261.771 514.917 261.006 515.121 260.038H517.257C517.013 261.771 516.402 263.041 515.426 263.846C514.449 264.644 513.2 265.042 511.678 265.042C509.969 265.042 508.606 264.42 507.589 263.175C506.572 261.922 506.063 260.359 506.063 258.487C506.063 256.192 506.62 254.406 507.735 253.128C508.85 251.851 510.27 251.212 511.996 251.212ZM519.894 247.94H522.115V251.59H524.203V253.385H522.115V261.917C522.115 262.373 522.27 262.678 522.579 262.833C522.75 262.923 523.035 262.967 523.434 262.967C523.539 262.967 523.653 262.967 523.775 262.967C523.897 262.959 524.04 262.947 524.203 262.931V264.664C523.95 264.737 523.686 264.79 523.409 264.823C523.141 264.855 522.848 264.872 522.53 264.872C521.505 264.872 520.809 264.611 520.443 264.09C520.077 263.561 519.894 262.878 519.894 262.04V253.385H518.124V251.59H519.894V247.94ZM531.856 251.297C532.784 251.297 533.683 251.517 534.554 251.957C535.425 252.388 536.088 252.949 536.544 253.641C536.983 254.3 537.276 255.069 537.423 255.948C537.553 256.55 537.618 257.511 537.618 258.829H528.036C528.076 260.156 528.39 261.222 528.976 262.027C529.562 262.825 530.469 263.224 531.698 263.224C532.845 263.224 533.761 262.845 534.444 262.088C534.835 261.649 535.112 261.14 535.274 260.562H537.435C537.378 261.043 537.187 261.58 536.861 262.174C536.544 262.76 536.186 263.24 535.787 263.614C535.12 264.265 534.294 264.705 533.309 264.933C532.78 265.063 532.182 265.128 531.515 265.128C529.887 265.128 528.508 264.538 527.376 263.358C526.245 262.17 525.68 260.51 525.68 258.377C525.68 256.278 526.249 254.573 527.389 253.263C528.528 251.952 530.017 251.297 531.856 251.297ZM535.36 257.083C535.27 256.131 535.063 255.37 534.737 254.801C534.135 253.743 533.13 253.214 531.722 253.214C530.713 253.214 529.867 253.58 529.183 254.312C528.5 255.037 528.137 255.96 528.097 257.083H535.36ZM541.72 258.28C541.72 259.68 542.017 260.851 542.611 261.795C543.205 262.739 544.157 263.211 545.467 263.211C546.485 263.211 547.319 262.776 547.97 261.905C548.629 261.026 548.958 259.769 548.958 258.133C548.958 256.481 548.621 255.261 547.945 254.471C547.27 253.674 546.436 253.275 545.443 253.275C544.336 253.275 543.437 253.698 542.745 254.544C542.062 255.391 541.72 256.636 541.72 258.28ZM545.028 251.358C546.029 251.358 546.867 251.57 547.542 251.993C547.933 252.237 548.377 252.665 548.873 253.275V246.671H550.985V264.664H549.007V262.845C548.495 263.651 547.888 264.233 547.188 264.591C546.489 264.949 545.687 265.128 544.784 265.128C543.327 265.128 542.066 264.518 541 263.297C539.933 262.068 539.4 260.436 539.4 258.402C539.4 256.498 539.885 254.85 540.853 253.458C541.83 252.058 543.221 251.358 545.028 251.358ZM561.263 251.59H563.351V253.849C563.521 253.409 563.941 252.876 564.608 252.25C565.275 251.615 566.044 251.297 566.915 251.297C566.956 251.297 567.025 251.301 567.123 251.31C567.22 251.318 567.387 251.334 567.623 251.358V253.678C567.493 253.653 567.371 253.637 567.257 253.629C567.151 253.621 567.033 253.617 566.903 253.617C565.796 253.617 564.946 253.975 564.352 254.691C563.757 255.399 563.46 256.217 563.46 257.145V264.664H561.263V251.59ZM574.972 251.297C575.899 251.297 576.799 251.517 577.669 251.957C578.54 252.388 579.203 252.949 579.659 253.641C580.099 254.3 580.392 255.069 580.538 255.948C580.668 256.55 580.733 257.511 580.733 258.829H571.151C571.192 260.156 571.505 261.222 572.091 262.027C572.677 262.825 573.584 263.224 574.813 263.224C575.96 263.224 576.876 262.845 577.56 262.088C577.95 261.649 578.227 261.14 578.39 260.562H580.55C580.493 261.043 580.302 261.58 579.977 262.174C579.659 262.76 579.301 263.24 578.902 263.614C578.235 264.265 577.409 264.705 576.424 264.933C575.895 265.063 575.297 265.128 574.63 265.128C573.002 265.128 571.623 264.538 570.492 263.358C569.361 262.17 568.795 260.51 568.795 258.377C568.795 256.278 569.365 254.573 570.504 253.263C571.643 251.952 573.132 251.297 574.972 251.297ZM578.475 257.083C578.386 256.131 578.178 255.37 577.853 254.801C577.25 253.743 576.245 253.214 574.837 253.214C573.828 253.214 572.982 253.58 572.298 254.312C571.615 255.037 571.253 255.96 571.212 257.083H578.475ZM588.485 251.212C589.958 251.212 591.154 251.57 592.074 252.286C593.001 253.002 593.559 254.235 593.746 255.985H591.61C591.48 255.179 591.183 254.512 590.719 253.983C590.255 253.446 589.51 253.177 588.485 253.177C587.085 253.177 586.084 253.861 585.482 255.228C585.091 256.115 584.896 257.21 584.896 258.512C584.896 259.822 585.173 260.925 585.726 261.82C586.279 262.715 587.15 263.163 588.338 263.163C589.25 263.163 589.97 262.886 590.499 262.333C591.036 261.771 591.406 261.006 591.61 260.038H593.746C593.502 261.771 592.892 263.041 591.915 263.846C590.938 264.644 589.689 265.042 588.167 265.042C586.458 265.042 585.095 264.42 584.078 263.175C583.061 261.922 582.552 260.359 582.552 258.487C582.552 256.192 583.11 254.406 584.225 253.128C585.34 251.851 586.76 251.212 588.485 251.212ZM595.943 251.651H598.177V264.664H595.943V251.651ZM595.943 246.732H598.177V249.222H595.943V246.732ZM607.027 263.187C608.053 263.187 608.903 262.76 609.579 261.905C610.262 261.043 610.604 259.757 610.604 258.048C610.604 257.006 610.453 256.111 610.152 255.362C609.583 253.922 608.541 253.202 607.027 253.202C605.506 253.202 604.464 253.963 603.902 255.484C603.601 256.298 603.451 257.332 603.451 258.585C603.451 259.594 603.601 260.453 603.902 261.161C604.472 262.512 605.514 263.187 607.027 263.187ZM601.339 251.651H603.475V253.385C603.915 252.791 604.395 252.331 604.916 252.005C605.656 251.517 606.527 251.273 607.528 251.273C609.009 251.273 610.266 251.843 611.3 252.982C612.333 254.113 612.85 255.733 612.85 257.84C612.85 260.689 612.105 262.723 610.616 263.944C609.672 264.717 608.574 265.104 607.32 265.104C606.336 265.104 605.51 264.888 604.842 264.457C604.452 264.212 604.016 263.793 603.536 263.199V269.876H601.339V251.651ZM620.87 251.297C621.798 251.297 622.697 251.517 623.568 251.957C624.439 252.388 625.102 252.949 625.558 253.641C625.997 254.3 626.29 255.069 626.437 255.948C626.567 256.55 626.632 257.511 626.632 258.829H617.049C617.09 260.156 617.403 261.222 617.989 262.027C618.575 262.825 619.483 263.224 620.711 263.224C621.859 263.224 622.774 262.845 623.458 262.088C623.849 261.649 624.125 261.14 624.288 260.562H626.449C626.392 261.043 626.201 261.58 625.875 262.174C625.558 262.76 625.2 263.24 624.801 263.614C624.133 264.265 623.307 264.705 622.323 264.933C621.794 265.063 621.196 265.128 620.528 265.128C618.901 265.128 617.521 264.538 616.39 263.358C615.259 262.17 614.693 260.51 614.693 258.377C614.693 256.278 615.263 254.573 616.402 253.263C617.542 251.952 619.031 251.297 620.87 251.297ZM624.374 257.083C624.284 256.131 624.076 255.37 623.751 254.801C623.149 253.743 622.144 253.214 620.736 253.214C619.727 253.214 618.88 253.58 618.197 254.312C617.513 255.037 617.151 255.96 617.11 257.083H624.374Z" fill="#14130F"/>
<path d="M147.491 404.076H155.56C157.155 404.076 158.441 404.527 159.417 405.431C160.394 406.326 160.882 407.587 160.882 409.215C160.882 410.615 160.447 411.835 159.576 412.877C158.705 413.91 157.367 414.427 155.56 414.427H149.92V422.008H147.491V404.076ZM158.429 409.227C158.429 407.909 157.94 407.014 156.964 406.542C156.427 406.289 155.69 406.163 154.754 406.163H149.92V412.376H154.754C155.845 412.376 156.728 412.145 157.403 411.681C158.087 411.217 158.429 410.399 158.429 409.227ZM165.326 418.529C165.326 419.164 165.558 419.664 166.021 420.03C166.485 420.396 167.035 420.58 167.669 420.58C168.443 420.58 169.191 420.401 169.916 420.042C171.136 419.448 171.747 418.476 171.747 417.125V415.355C171.478 415.526 171.132 415.668 170.709 415.782C170.286 415.896 169.871 415.978 169.464 416.026L168.133 416.197C167.336 416.303 166.738 416.47 166.339 416.698C165.663 417.08 165.326 417.691 165.326 418.529ZM170.648 414.085C171.153 414.02 171.49 413.809 171.661 413.451C171.759 413.255 171.808 412.975 171.808 412.608C171.808 411.86 171.539 411.319 171.002 410.985C170.473 410.643 169.712 410.472 168.719 410.472C167.572 410.472 166.758 410.781 166.278 411.4C166.009 411.742 165.834 412.25 165.753 412.926H163.702C163.743 411.314 164.264 410.195 165.265 409.569C166.274 408.934 167.442 408.617 168.768 408.617C170.306 408.617 171.555 408.91 172.516 409.496C173.468 410.082 173.944 410.993 173.944 412.23V419.762C173.944 419.99 173.989 420.173 174.078 420.311C174.176 420.449 174.375 420.519 174.676 420.519C174.774 420.519 174.884 420.514 175.006 420.506C175.128 420.49 175.258 420.47 175.396 420.445V422.069C175.055 422.167 174.794 422.228 174.615 422.252C174.436 422.276 174.192 422.289 173.883 422.289C173.126 422.289 172.577 422.02 172.235 421.483C172.056 421.198 171.93 420.795 171.856 420.274C171.409 420.86 170.766 421.369 169.928 421.8C169.09 422.232 168.166 422.447 167.157 422.447C165.944 422.447 164.951 422.081 164.178 421.349C163.413 420.608 163.031 419.684 163.031 418.578C163.031 417.365 163.409 416.425 164.166 415.758C164.923 415.09 165.916 414.68 167.145 414.525L170.648 414.085ZM177.557 408.934H179.645V410.79C180.263 410.025 180.918 409.475 181.61 409.142C182.302 408.808 183.071 408.641 183.917 408.641C185.772 408.641 187.026 409.288 187.677 410.582C188.035 411.29 188.214 412.303 188.214 413.622V422.008H185.98V413.768C185.98 412.971 185.862 412.328 185.626 411.839C185.235 411.026 184.527 410.619 183.502 410.619C182.981 410.619 182.554 410.672 182.22 410.777C181.618 410.956 181.089 411.314 180.633 411.852C180.267 412.283 180.027 412.73 179.913 413.194C179.807 413.65 179.754 414.305 179.754 415.16V422.008H177.557V408.934ZM191.913 405.284H194.134V408.934H196.222V410.729H194.134V419.261C194.134 419.717 194.289 420.022 194.598 420.177C194.769 420.266 195.054 420.311 195.453 420.311C195.558 420.311 195.672 420.311 195.794 420.311C195.917 420.303 196.059 420.291 196.222 420.274V422.008C195.969 422.081 195.705 422.134 195.428 422.167C195.16 422.199 194.867 422.215 194.549 422.215C193.524 422.215 192.828 421.955 192.462 421.434C192.096 420.905 191.913 420.222 191.913 419.383V410.729H190.143V408.934H191.913V405.284ZM198.492 408.934H200.58V411.192C200.75 410.753 201.17 410.22 201.837 409.593C202.504 408.958 203.273 408.641 204.144 408.641C204.185 408.641 204.254 408.645 204.352 408.653C204.449 408.661 204.616 408.678 204.852 408.702V411.021C204.722 410.997 204.6 410.981 204.486 410.973C204.38 410.965 204.262 410.96 204.132 410.96C203.025 410.96 202.175 411.319 201.581 412.035C200.986 412.743 200.689 413.561 200.689 414.488V422.008H198.492V408.934ZM214.923 408.934H217.352C217.043 409.772 216.355 411.685 215.289 414.671C214.492 416.917 213.824 418.749 213.287 420.165C212.018 423.501 211.122 425.536 210.602 426.268C210.081 427 209.186 427.367 207.916 427.367C207.607 427.367 207.367 427.354 207.196 427.33C207.033 427.306 206.83 427.261 206.585 427.196V425.194C206.968 425.3 207.245 425.365 207.416 425.389C207.586 425.414 207.737 425.426 207.867 425.426C208.274 425.426 208.571 425.357 208.758 425.218C208.954 425.088 209.116 424.925 209.247 424.73C209.287 424.665 209.434 424.331 209.686 423.729C209.938 423.127 210.121 422.679 210.235 422.386L205.401 408.934H207.892L211.395 419.579L214.923 408.934Z" fill="#14130F"/>
<path d="M745.414 257.078C746.195 256.297 746.195 255.031 745.414 254.25L732.686 241.522C731.905 240.741 730.639 240.741 729.858 241.522C729.077 242.303 729.077 243.569 729.858 244.35L741.172 255.664L729.858 266.978C729.077 267.759 729.077 269.025 729.858 269.806C730.639 270.587 731.905 270.587 732.686 269.806L745.414 257.078ZM674 255.664V257.664H744V255.664V253.664H674V255.664Z" fill="#B8B3B7"/>
<path d="M395.414 254.422C396.195 253.641 396.195 252.375 395.414 251.594L382.686 238.866C381.905 238.085 380.639 238.085 379.858 238.866C379.077 239.647 379.077 240.913 379.858 241.694L391.172 253.008L379.858 264.322C379.077 265.103 379.077 266.369 379.858 267.15C380.639 267.931 381.905 267.931 382.686 267.15L395.414 254.422ZM324 253.008V255.008H394V253.008V251.008H324V253.008Z" fill="#B8B3B7"/>
<path d="M1592.4 145.099C1593.19 144.324 1593.2 143.058 1592.43 142.27L1579.81 129.436C1579.03 128.648 1577.76 128.638 1576.98 129.412C1576.19 130.186 1576.18 131.453 1576.95 132.24L1588.17 143.649L1576.76 154.867C1575.98 155.641 1575.96 156.908 1576.74 157.695C1577.51 158.483 1578.78 158.493 1579.57 157.719L1592.4 145.099ZM1471 142.664L1470.98 144.664L1590.98 145.672L1591 143.672L1591.02 141.673L1471.02 140.664L1471 142.664Z" fill="#B8B3B7"/>
<path d="M1848.86 106.664L1813.95 181.664H1611.14L1646.05 106.664H1848.86Z" stroke="#B8B3B7" stroke-width="4"/>
<path d="M1661.48 146.878C1661.54 147.895 1661.78 148.721 1662.2 149.356C1663.01 150.544 1664.43 151.138 1666.46 151.138C1667.37 151.138 1668.2 151.008 1668.95 150.748C1670.4 150.243 1671.12 149.34 1671.12 148.038C1671.12 147.061 1670.82 146.365 1670.21 145.95C1669.59 145.543 1668.62 145.189 1667.3 144.888L1664.87 144.339C1663.29 143.981 1662.16 143.586 1661.51 143.155C1660.37 142.406 1659.8 141.287 1659.8 139.798C1659.8 138.187 1660.35 136.864 1661.47 135.831C1662.58 134.797 1664.16 134.28 1666.21 134.28C1668.08 134.28 1669.68 134.736 1670.99 135.647C1672.31 136.551 1672.97 137.999 1672.97 139.993H1670.69C1670.56 139.033 1670.3 138.296 1669.9 137.784C1669.16 136.848 1667.91 136.38 1666.13 136.38C1664.7 136.38 1663.67 136.681 1663.04 137.283C1662.42 137.885 1662.1 138.585 1662.1 139.383C1662.1 140.262 1662.47 140.905 1663.2 141.312C1663.68 141.572 1664.77 141.897 1666.46 142.288L1668.98 142.862C1670.19 143.139 1671.12 143.517 1671.78 143.997C1672.92 144.835 1673.49 146.052 1673.49 147.647C1673.49 149.633 1672.77 151.053 1671.32 151.907C1669.88 152.762 1668.2 153.189 1666.29 153.189C1664.06 153.189 1662.32 152.619 1661.05 151.48C1659.79 150.349 1659.17 148.815 1659.2 146.878H1661.48ZM1676.72 135.94H1678.94V139.59H1681.02V141.385H1678.94V149.917C1678.94 150.373 1679.09 150.678 1679.4 150.833C1679.57 150.923 1679.86 150.967 1680.26 150.967C1680.36 150.967 1680.48 150.967 1680.6 150.967C1680.72 150.959 1680.86 150.947 1681.02 150.931V152.664C1680.77 152.737 1680.51 152.79 1680.23 152.823C1679.96 152.855 1679.67 152.872 1679.35 152.872C1678.33 152.872 1677.63 152.611 1677.26 152.09C1676.9 151.561 1676.72 150.878 1676.72 150.04V141.385H1674.95V139.59H1676.72V135.94ZM1684.92 149.185C1684.92 149.82 1685.15 150.32 1685.61 150.687C1686.08 151.053 1686.63 151.236 1687.26 151.236C1688.04 151.236 1688.78 151.057 1689.51 150.699C1690.73 150.105 1691.34 149.132 1691.34 147.781V146.011C1691.07 146.182 1690.72 146.325 1690.3 146.438C1689.88 146.552 1689.46 146.634 1689.06 146.683L1687.73 146.854C1686.93 146.959 1686.33 147.126 1685.93 147.354C1685.26 147.736 1684.92 148.347 1684.92 149.185ZM1690.24 144.742C1690.75 144.677 1691.08 144.465 1691.25 144.107C1691.35 143.912 1691.4 143.631 1691.4 143.265C1691.4 142.516 1691.13 141.975 1690.59 141.641C1690.07 141.299 1689.3 141.128 1688.31 141.128C1687.16 141.128 1686.35 141.438 1685.87 142.056C1685.6 142.398 1685.43 142.907 1685.35 143.582H1683.29C1683.34 141.971 1683.86 140.852 1684.86 140.225C1685.87 139.59 1687.03 139.273 1688.36 139.273C1689.9 139.273 1691.15 139.566 1692.11 140.152C1693.06 140.738 1693.54 141.649 1693.54 142.886V150.418C1693.54 150.646 1693.58 150.829 1693.67 150.967C1693.77 151.106 1693.97 151.175 1694.27 151.175C1694.37 151.175 1694.48 151.171 1694.6 151.163C1694.72 151.146 1694.85 151.126 1694.99 151.102V152.725C1694.65 152.823 1694.39 152.884 1694.21 152.908C1694.03 152.933 1693.78 152.945 1693.48 152.945C1692.72 152.945 1692.17 152.676 1691.83 152.139C1691.65 151.854 1691.52 151.451 1691.45 150.931C1691 151.517 1690.36 152.025 1689.52 152.457C1688.68 152.888 1687.76 153.104 1686.75 153.104C1685.54 153.104 1684.54 152.737 1683.77 152.005C1683.01 151.264 1682.62 150.341 1682.62 149.234C1682.62 148.021 1683 147.081 1683.76 146.414C1684.52 145.747 1685.51 145.336 1686.74 145.181L1690.24 144.742ZM1697.21 139.59H1699.3V141.849C1699.47 141.409 1699.89 140.876 1700.56 140.25C1701.22 139.615 1701.99 139.297 1702.86 139.297C1702.9 139.297 1702.97 139.301 1703.07 139.31C1703.17 139.318 1703.33 139.334 1703.57 139.358V141.678C1703.44 141.653 1703.32 141.637 1703.2 141.629C1703.1 141.621 1702.98 141.617 1702.85 141.617C1701.74 141.617 1700.89 141.975 1700.3 142.691C1699.71 143.399 1699.41 144.217 1699.41 145.145V152.664H1697.21V139.59ZM1705.91 135.94H1708.14V139.59H1710.22V141.385H1708.14V149.917C1708.14 150.373 1708.29 150.678 1708.6 150.833C1708.77 150.923 1709.06 150.967 1709.45 150.967C1709.56 150.967 1709.67 150.967 1709.8 150.967C1709.92 150.959 1710.06 150.947 1710.22 150.931V152.664C1709.97 152.737 1709.71 152.79 1709.43 152.823C1709.16 152.855 1708.87 152.872 1708.55 152.872C1707.53 152.872 1706.83 152.611 1706.46 152.09C1706.1 151.561 1705.91 150.878 1705.91 150.04V141.385H1704.14V139.59H1705.91V135.94ZM1724.43 139.212C1725.91 139.212 1727.1 139.57 1728.02 140.286C1728.95 141.002 1729.51 142.235 1729.69 143.985H1727.56C1727.43 143.179 1727.13 142.512 1726.67 141.983C1726.2 141.446 1725.46 141.177 1724.43 141.177C1723.03 141.177 1722.03 141.861 1721.43 143.228C1721.04 144.115 1720.84 145.21 1720.84 146.512C1720.84 147.822 1721.12 148.925 1721.67 149.82C1722.23 150.715 1723.1 151.163 1724.29 151.163C1725.2 151.163 1725.92 150.886 1726.45 150.333C1726.98 149.771 1727.35 149.006 1727.56 148.038H1729.69C1729.45 149.771 1728.84 151.041 1727.86 151.846C1726.89 152.644 1725.64 153.042 1724.12 153.042C1722.41 153.042 1721.04 152.42 1720.03 151.175C1719.01 149.922 1718.5 148.359 1718.5 146.487C1718.5 144.192 1719.06 142.406 1720.17 141.128C1721.29 139.851 1722.71 139.212 1724.43 139.212ZM1737.08 151.248C1738.54 151.248 1739.53 150.699 1740.07 149.6C1740.62 148.493 1740.89 147.264 1740.89 145.914C1740.89 144.693 1740.69 143.7 1740.3 142.935C1739.68 141.731 1738.62 141.128 1737.1 141.128C1735.76 141.128 1734.78 141.641 1734.17 142.667C1733.56 143.692 1733.26 144.929 1733.26 146.377C1733.26 147.769 1733.56 148.929 1734.17 149.856C1734.78 150.784 1735.75 151.248 1737.08 151.248ZM1737.16 139.212C1738.85 139.212 1740.27 139.773 1741.44 140.896C1742.6 142.02 1743.18 143.672 1743.18 145.853C1743.18 147.96 1742.67 149.702 1741.64 151.077C1740.62 152.452 1739.03 153.14 1736.87 153.14C1735.07 153.14 1733.64 152.534 1732.59 151.321C1731.53 150.101 1731 148.465 1731 146.414C1731 144.217 1731.56 142.467 1732.67 141.165C1733.79 139.863 1735.28 139.212 1737.16 139.212ZM1751 151.248C1752.45 151.248 1753.45 150.699 1753.99 149.6C1754.53 148.493 1754.8 147.264 1754.8 145.914C1754.8 144.693 1754.61 143.7 1754.22 142.935C1753.6 141.731 1752.53 141.128 1751.02 141.128C1749.68 141.128 1748.7 141.641 1748.09 142.667C1747.48 143.692 1747.17 144.929 1747.17 146.377C1747.17 147.769 1747.48 148.929 1748.09 149.856C1748.7 150.784 1749.67 151.248 1751 151.248ZM1751.08 139.212C1752.77 139.212 1754.19 139.773 1755.35 140.896C1756.52 142.02 1757.1 143.672 1757.1 145.853C1757.1 147.96 1756.59 149.702 1755.56 151.077C1754.54 152.452 1752.94 153.14 1750.79 153.14C1748.99 153.14 1747.56 152.534 1746.5 151.321C1745.44 150.101 1744.92 148.465 1744.92 146.414C1744.92 144.217 1745.47 142.467 1746.59 141.165C1747.7 139.863 1749.2 139.212 1751.08 139.212ZM1759.67 134.732H1761.79V145.145L1767.43 139.59H1770.23L1765.23 144.485L1770.51 152.664H1767.71L1763.63 146.072L1761.79 147.757V152.664H1759.67V134.732ZM1772.22 139.651H1774.46V152.664H1772.22V139.651ZM1772.22 134.732H1774.46V137.222H1772.22V134.732ZM1777.79 139.59H1779.88V141.446C1780.5 140.681 1781.15 140.132 1781.84 139.798C1782.53 139.464 1783.3 139.297 1784.15 139.297C1786 139.297 1787.26 139.944 1787.91 141.238C1788.27 141.946 1788.45 142.959 1788.45 144.278V152.664H1786.21V144.424C1786.21 143.627 1786.09 142.984 1785.86 142.496C1785.47 141.682 1784.76 141.275 1783.73 141.275C1783.21 141.275 1782.79 141.328 1782.45 141.434C1781.85 141.613 1781.32 141.971 1780.87 142.508C1780.5 142.939 1780.26 143.387 1780.15 143.851C1780.04 144.306 1779.99 144.961 1779.99 145.816V152.664H1777.79V139.59ZM1796.32 139.358C1797.35 139.358 1798.24 139.611 1799.01 140.115C1799.42 140.4 1799.84 140.815 1800.27 141.36V139.712H1802.3V151.602C1802.3 153.262 1802.06 154.572 1801.57 155.533C1800.66 157.307 1798.94 158.194 1796.41 158.194C1795 158.194 1793.81 157.876 1792.85 157.242C1791.89 156.615 1791.36 155.63 1791.24 154.288H1793.48C1793.58 154.874 1793.79 155.325 1794.11 155.643C1794.61 156.131 1795.39 156.375 1796.45 156.375C1798.14 156.375 1799.24 155.781 1799.76 154.593C1800.07 153.893 1800.21 152.644 1800.19 150.845C1799.75 151.513 1799.22 152.009 1798.6 152.334C1797.98 152.66 1797.17 152.823 1796.15 152.823C1794.73 152.823 1793.49 152.322 1792.43 151.321C1791.37 150.312 1790.84 148.648 1790.84 146.329C1790.84 144.139 1791.37 142.431 1792.44 141.202C1793.51 139.973 1794.81 139.358 1796.32 139.358ZM1800.27 146.072C1800.27 144.453 1799.94 143.252 1799.27 142.471C1798.61 141.69 1797.76 141.299 1796.72 141.299C1795.18 141.299 1794.12 142.024 1793.55 143.472C1793.25 144.245 1793.1 145.258 1793.1 146.512C1793.1 147.985 1793.39 149.108 1793.99 149.881C1794.59 150.646 1795.4 151.028 1796.41 151.028C1797.98 151.028 1799.09 150.316 1799.74 148.892C1800.1 148.086 1800.27 147.146 1800.27 146.072Z" fill="#14130F"/>
<path d="M1482.86 315.008L1447.95 390.008H1245.14L1280.05 315.008H1482.86Z" stroke="#B8B3B7" stroke-width="4"/>
<path d="M1302.79 353.659L1300.07 345.737L1297.18 353.659H1302.79ZM1298.8 343.076H1301.55L1308.06 361.008H1305.39L1303.58 355.637H1296.48L1294.54 361.008H1292.05L1298.8 343.076ZM1311.36 354.624C1311.36 356.023 1311.66 357.195 1312.25 358.139C1312.85 359.083 1313.8 359.555 1315.11 359.555C1316.13 359.555 1316.96 359.12 1317.61 358.249C1318.27 357.37 1318.6 356.113 1318.6 354.477C1318.6 352.825 1318.26 351.604 1317.59 350.815C1316.91 350.017 1316.08 349.619 1315.09 349.619C1313.98 349.619 1313.08 350.042 1312.39 350.888C1311.71 351.735 1311.36 352.98 1311.36 354.624ZM1314.67 347.702C1315.67 347.702 1316.51 347.914 1317.19 348.337C1317.58 348.581 1318.02 349.008 1318.52 349.619V343.015H1320.63V361.008H1318.65V359.189C1318.14 359.995 1317.53 360.576 1316.83 360.935C1316.13 361.293 1315.33 361.472 1314.43 361.472C1312.97 361.472 1311.71 360.861 1310.64 359.641C1309.58 358.412 1309.04 356.78 1309.04 354.746C1309.04 352.841 1309.53 351.193 1310.5 349.802C1311.47 348.402 1312.86 347.702 1314.67 347.702ZM1326.08 345.615H1323.89V343.076H1326.08V345.615ZM1321.81 364.316C1322.8 364.283 1323.39 364.194 1323.58 364.047C1323.79 363.909 1323.89 363.465 1323.89 362.717V347.995H1326.08V362.949C1326.08 363.901 1325.93 364.613 1325.62 365.085C1325.11 365.882 1324.14 366.281 1322.7 366.281C1322.6 366.281 1322.48 366.277 1322.36 366.269C1322.25 366.261 1322.06 366.245 1321.81 366.22V364.316ZM1331.65 347.934V356.613C1331.65 357.281 1331.76 357.826 1331.97 358.249C1332.36 359.03 1333.09 359.421 1334.15 359.421C1335.68 359.421 1336.73 358.737 1337.28 357.37C1337.58 356.638 1337.73 355.633 1337.73 354.355V347.934H1339.93V361.008H1337.85L1337.88 359.079C1337.59 359.576 1337.24 359.995 1336.81 360.336C1335.98 361.02 1334.96 361.362 1333.76 361.362C1331.9 361.362 1330.63 360.739 1329.95 359.494C1329.59 358.827 1329.41 357.936 1329.41 356.821V347.934H1331.65ZM1344.68 356.906C1344.74 357.639 1344.92 358.2 1345.23 358.591C1345.78 359.299 1346.74 359.653 1348.11 359.653C1348.92 359.653 1349.64 359.478 1350.25 359.128C1350.87 358.77 1351.18 358.221 1351.18 357.48C1351.18 356.918 1350.93 356.491 1350.44 356.198C1350.12 356.019 1349.49 355.812 1348.56 355.576L1346.81 355.136C1345.7 354.86 1344.88 354.55 1344.35 354.208C1343.4 353.614 1342.93 352.792 1342.93 351.743C1342.93 350.506 1343.37 349.505 1344.26 348.74C1345.16 347.975 1346.36 347.592 1347.86 347.592C1349.83 347.592 1351.25 348.17 1352.12 349.326C1352.67 350.058 1352.93 350.847 1352.92 351.694H1350.84C1350.8 351.197 1350.63 350.746 1350.32 350.339C1349.81 349.761 1348.94 349.472 1347.69 349.472C1346.86 349.472 1346.23 349.631 1345.8 349.948C1345.38 350.266 1345.16 350.685 1345.16 351.206C1345.16 351.775 1345.45 352.231 1346.01 352.573C1346.33 352.776 1346.81 352.955 1347.45 353.11L1348.9 353.464C1350.48 353.846 1351.54 354.217 1352.07 354.575C1352.93 355.136 1353.36 356.019 1353.36 357.224C1353.36 358.387 1352.91 359.392 1352.02 360.239C1351.15 361.085 1349.8 361.508 1348 361.508C1346.05 361.508 1344.67 361.069 1343.86 360.19C1343.05 359.303 1342.62 358.208 1342.56 356.906H1344.68ZM1356.31 344.284H1358.53V347.934H1360.62V349.729H1358.53V358.261C1358.53 358.717 1358.69 359.022 1359 359.177C1359.17 359.266 1359.45 359.311 1359.85 359.311C1359.96 359.311 1360.07 359.311 1360.19 359.311C1360.31 359.303 1360.46 359.291 1360.62 359.274V361.008C1360.37 361.081 1360.1 361.134 1359.83 361.167C1359.56 361.199 1359.26 361.215 1358.95 361.215C1357.92 361.215 1357.23 360.955 1356.86 360.434C1356.49 359.905 1356.31 359.222 1356.31 358.383V349.729H1354.54V347.934H1356.31V344.284ZM1369.85 347.934H1371.93V350.192C1372.11 349.753 1372.52 349.22 1373.19 348.593C1373.86 347.958 1374.63 347.641 1375.5 347.641C1375.54 347.641 1375.61 347.645 1375.71 347.653C1375.8 347.661 1375.97 347.678 1376.21 347.702V350.021C1376.08 349.997 1375.95 349.981 1375.84 349.973C1375.74 349.965 1375.62 349.96 1375.49 349.96C1374.38 349.96 1373.53 350.319 1372.94 351.035C1372.34 351.743 1372.04 352.561 1372.04 353.488V361.008H1369.85V347.934ZM1383.56 347.641C1384.48 347.641 1385.38 347.861 1386.25 348.3C1387.12 348.732 1387.79 349.293 1388.24 349.985C1388.68 350.644 1388.98 351.413 1389.12 352.292C1389.25 352.894 1389.32 353.854 1389.32 355.173H1379.73C1379.78 356.499 1380.09 357.565 1380.67 358.371C1381.26 359.169 1382.17 359.567 1383.4 359.567C1384.54 359.567 1385.46 359.189 1386.14 358.432C1386.53 357.993 1386.81 357.484 1386.97 356.906H1389.13C1389.08 357.386 1388.89 357.924 1388.56 358.518C1388.24 359.104 1387.89 359.584 1387.49 359.958C1386.82 360.609 1385.99 361.049 1385.01 361.276C1384.48 361.407 1383.88 361.472 1383.21 361.472C1381.59 361.472 1380.21 360.882 1379.08 359.702C1377.94 358.514 1377.38 356.853 1377.38 354.721C1377.38 352.622 1377.95 350.917 1379.09 349.606C1380.23 348.296 1381.72 347.641 1383.56 347.641ZM1387.06 353.427C1386.97 352.475 1386.76 351.714 1386.44 351.145C1385.83 350.087 1384.83 349.558 1383.42 349.558C1382.41 349.558 1381.57 349.924 1380.88 350.656C1380.2 351.381 1379.84 352.304 1379.8 353.427H1387.06ZM1397.07 347.556C1398.54 347.556 1399.74 347.914 1400.66 348.63C1401.59 349.346 1402.14 350.579 1402.33 352.329H1400.19C1400.06 351.523 1399.77 350.856 1399.3 350.327C1398.84 349.79 1398.09 349.521 1397.07 349.521C1395.67 349.521 1394.67 350.205 1394.07 351.572C1393.68 352.459 1393.48 353.553 1393.48 354.855C1393.48 356.166 1393.76 357.268 1394.31 358.164C1394.86 359.059 1395.73 359.506 1396.92 359.506C1397.83 359.506 1398.55 359.23 1399.08 358.676C1399.62 358.115 1399.99 357.35 1400.19 356.381H1402.33C1402.09 358.115 1401.48 359.384 1400.5 360.19C1399.52 360.987 1398.27 361.386 1396.75 361.386C1395.04 361.386 1393.68 360.764 1392.66 359.519C1391.64 358.265 1391.14 356.703 1391.14 354.831C1391.14 352.536 1391.69 350.75 1392.81 349.472C1393.92 348.194 1395.34 347.556 1397.07 347.556ZM1404.53 347.995H1406.76V361.008H1404.53V347.995ZM1404.53 343.076H1406.76V345.566H1404.53V343.076ZM1415.61 359.531C1416.64 359.531 1417.49 359.104 1418.16 358.249C1418.85 357.386 1419.19 356.101 1419.19 354.392C1419.19 353.35 1419.04 352.455 1418.74 351.706C1418.17 350.266 1417.12 349.545 1415.61 349.545C1414.09 349.545 1413.05 350.306 1412.49 351.828C1412.19 352.642 1412.03 353.675 1412.03 354.929C1412.03 355.938 1412.19 356.796 1412.49 357.504C1413.06 358.855 1414.1 359.531 1415.61 359.531ZM1409.92 347.995H1412.06V349.729C1412.5 349.134 1412.98 348.675 1413.5 348.349C1414.24 347.861 1415.11 347.617 1416.11 347.617C1417.59 347.617 1418.85 348.186 1419.88 349.326C1420.92 350.457 1421.43 352.076 1421.43 354.184C1421.43 357.032 1420.69 359.067 1419.2 360.288C1418.26 361.061 1417.16 361.447 1415.9 361.447C1414.92 361.447 1414.09 361.232 1413.43 360.8C1413.04 360.556 1412.6 360.137 1412.12 359.543V366.22H1409.92V347.995ZM1429.45 347.641C1430.38 347.641 1431.28 347.861 1432.15 348.3C1433.02 348.732 1433.69 349.293 1434.14 349.985C1434.58 350.644 1434.87 351.413 1435.02 352.292C1435.15 352.894 1435.22 353.854 1435.22 355.173H1425.63C1425.67 356.499 1425.99 357.565 1426.57 358.371C1427.16 359.169 1428.07 359.567 1429.3 359.567C1430.44 359.567 1431.36 359.189 1432.04 358.432C1432.43 357.993 1432.71 357.484 1432.87 356.906H1435.03C1434.98 357.386 1434.78 357.924 1434.46 358.518C1434.14 359.104 1433.78 359.584 1433.38 359.958C1432.72 360.609 1431.89 361.049 1430.91 361.276C1430.38 361.407 1429.78 361.472 1429.11 361.472C1427.48 361.472 1426.11 360.882 1424.97 359.702C1423.84 358.514 1423.28 356.853 1423.28 354.721C1423.28 352.622 1423.85 350.917 1424.99 349.606C1426.13 348.296 1427.61 347.641 1429.45 347.641ZM1432.96 353.427C1432.87 352.475 1432.66 351.714 1432.33 351.145C1431.73 350.087 1430.73 349.558 1429.32 349.558C1428.31 349.558 1427.46 349.924 1426.78 350.656C1426.1 351.381 1425.74 352.304 1425.69 353.427H1432.96Z" fill="#14130F"/>
<rect x="1259.83" y="148.664" width="135.524" height="135.972" transform="rotate(-45 1259.83 148.664)" stroke="#B8B3B7" stroke-width="4"/>
<path d="M1296.55 124.732H1299.01V142.664H1296.55V124.732ZM1302.67 129.59H1304.75V131.446C1305.37 130.681 1306.03 130.132 1306.72 129.798C1307.41 129.464 1308.18 129.297 1309.03 129.297C1310.88 129.297 1312.14 129.944 1312.79 131.238C1313.15 131.946 1313.32 132.959 1313.32 134.278V142.664H1311.09V134.424C1311.09 133.627 1310.97 132.984 1310.74 132.496C1310.35 131.682 1309.64 131.275 1308.61 131.275C1308.09 131.275 1307.66 131.328 1307.33 131.434C1306.73 131.613 1306.2 131.971 1305.74 132.508C1305.38 132.939 1305.14 133.387 1305.02 133.851C1304.92 134.306 1304.86 134.961 1304.86 135.816V142.664H1302.67V129.59ZM1321.2 129.358C1322.22 129.358 1323.12 129.611 1323.88 130.115C1324.3 130.4 1324.72 130.815 1325.15 131.36V129.712H1327.18V141.602C1327.18 143.262 1326.94 144.572 1326.45 145.533C1325.54 147.307 1323.81 148.194 1321.28 148.194C1319.88 148.194 1318.69 147.876 1317.73 147.242C1316.77 146.615 1316.23 145.63 1316.12 144.288H1318.35C1318.46 144.874 1318.67 145.325 1318.99 145.643C1319.48 146.131 1320.27 146.375 1321.33 146.375C1323.02 146.375 1324.12 145.781 1324.64 144.593C1324.95 143.893 1325.09 142.644 1325.07 140.845C1324.63 141.513 1324.1 142.009 1323.48 142.334C1322.86 142.66 1322.04 142.823 1321.03 142.823C1319.61 142.823 1318.37 142.322 1317.3 141.321C1316.25 140.312 1315.72 138.648 1315.72 136.329C1315.72 134.139 1316.25 132.431 1317.32 131.202C1318.39 129.973 1319.68 129.358 1321.2 129.358ZM1325.15 136.072C1325.15 134.453 1324.82 133.252 1324.15 132.471C1323.48 131.69 1322.63 131.299 1321.6 131.299C1320.05 131.299 1319 132.024 1318.43 133.472C1318.13 134.245 1317.98 135.258 1317.98 136.512C1317.98 137.985 1318.27 139.108 1318.87 139.881C1319.47 140.646 1320.27 141.028 1321.28 141.028C1322.86 141.028 1323.97 140.316 1324.62 138.892C1324.97 138.086 1325.15 137.146 1325.15 136.072ZM1330.56 129.59H1332.65V131.849C1332.82 131.409 1333.24 130.876 1333.91 130.25C1334.57 129.615 1335.34 129.297 1336.21 129.297C1336.25 129.297 1336.32 129.301 1336.42 129.31C1336.52 129.318 1336.68 129.334 1336.92 129.358V131.678C1336.79 131.653 1336.67 131.637 1336.55 131.629C1336.45 131.621 1336.33 131.617 1336.2 131.617C1335.09 131.617 1334.24 131.975 1333.65 132.691C1333.05 133.399 1332.76 134.217 1332.76 135.145V142.664H1330.56V129.59ZM1344.27 129.297C1345.2 129.297 1346.1 129.517 1346.97 129.957C1347.84 130.388 1348.5 130.949 1348.96 131.641C1349.4 132.3 1349.69 133.069 1349.84 133.948C1349.97 134.55 1350.03 135.511 1350.03 136.829H1340.45C1340.49 138.156 1340.8 139.222 1341.39 140.027C1341.97 140.825 1342.88 141.224 1344.11 141.224C1345.26 141.224 1346.17 140.845 1346.86 140.088C1347.25 139.649 1347.52 139.14 1347.69 138.562H1349.85C1349.79 139.043 1349.6 139.58 1349.27 140.174C1348.96 140.76 1348.6 141.24 1348.2 141.614C1347.53 142.265 1346.71 142.705 1345.72 142.933C1345.19 143.063 1344.59 143.128 1343.93 143.128C1342.3 143.128 1340.92 142.538 1339.79 141.358C1338.66 140.17 1338.09 138.51 1338.09 136.377C1338.09 134.278 1338.66 132.573 1339.8 131.263C1340.94 129.952 1342.43 129.297 1344.27 129.297ZM1347.77 135.083C1347.68 134.131 1347.48 133.37 1347.15 132.801C1346.55 131.743 1345.54 131.214 1344.13 131.214C1343.13 131.214 1342.28 131.58 1341.6 132.312C1340.91 133.037 1340.55 133.96 1340.51 135.083H1347.77ZM1354.13 136.28C1354.13 137.68 1354.43 138.851 1355.02 139.795C1355.62 140.739 1356.57 141.211 1357.88 141.211C1358.9 141.211 1359.73 140.776 1360.38 139.905C1361.04 139.026 1361.37 137.769 1361.37 136.133C1361.37 134.481 1361.03 133.261 1360.36 132.471C1359.68 131.674 1358.85 131.275 1357.86 131.275C1356.75 131.275 1355.85 131.698 1355.16 132.544C1354.47 133.391 1354.13 134.636 1354.13 136.28ZM1357.44 129.358C1358.44 129.358 1359.28 129.57 1359.96 129.993C1360.35 130.237 1360.79 130.665 1361.29 131.275V124.671H1363.4V142.664H1361.42V140.845C1360.91 141.651 1360.3 142.233 1359.6 142.591C1358.9 142.949 1358.1 143.128 1357.2 143.128C1355.74 143.128 1354.48 142.518 1353.41 141.297C1352.35 140.068 1351.81 138.436 1351.81 136.402C1351.81 134.498 1352.3 132.85 1353.27 131.458C1354.24 130.058 1355.63 129.358 1357.44 129.358ZM1366.66 129.651H1368.89V142.664H1366.66V129.651ZM1366.66 124.732H1368.89V127.222H1366.66V124.732ZM1377.67 129.297C1378.6 129.297 1379.49 129.517 1380.37 129.957C1381.24 130.388 1381.9 130.949 1382.35 131.641C1382.79 132.3 1383.09 133.069 1383.23 133.948C1383.36 134.55 1383.43 135.511 1383.43 136.829H1373.85C1373.89 138.156 1374.2 139.222 1374.79 140.027C1375.37 140.825 1376.28 141.224 1377.51 141.224C1378.66 141.224 1379.57 140.845 1380.26 140.088C1380.65 139.649 1380.92 139.14 1381.09 138.562H1383.25C1383.19 139.043 1383 139.58 1382.67 140.174C1382.35 140.76 1382 141.24 1381.6 141.614C1380.93 142.265 1380.1 142.705 1379.12 142.933C1378.59 143.063 1377.99 143.128 1377.33 143.128C1375.7 143.128 1374.32 142.538 1373.19 141.358C1372.06 140.17 1371.49 138.51 1371.49 136.377C1371.49 134.278 1372.06 132.573 1373.2 131.263C1374.34 129.952 1375.83 129.297 1377.67 129.297ZM1381.17 135.083C1381.08 134.131 1380.87 133.37 1380.55 132.801C1379.95 131.743 1378.94 131.214 1377.53 131.214C1376.52 131.214 1375.68 131.58 1374.99 132.312C1374.31 133.037 1373.95 133.96 1373.91 135.083H1381.17ZM1386.14 129.59H1388.23V131.446C1388.85 130.681 1389.5 130.132 1390.19 129.798C1390.88 129.464 1391.65 129.297 1392.5 129.297C1394.35 129.297 1395.61 129.944 1396.26 131.238C1396.62 131.946 1396.8 132.959 1396.8 134.278V142.664H1394.56V134.424C1394.56 133.627 1394.44 132.984 1394.21 132.496C1393.82 131.682 1393.11 131.275 1392.08 131.275C1391.56 131.275 1391.14 131.328 1390.8 131.434C1390.2 131.613 1389.67 131.971 1389.22 132.508C1388.85 132.939 1388.61 133.387 1388.5 133.851C1388.39 134.306 1388.34 134.961 1388.34 135.816V142.664H1386.14V129.59ZM1400.49 125.94H1402.72V129.59H1404.8V131.385H1402.72V139.917C1402.72 140.373 1402.87 140.678 1403.18 140.833C1403.35 140.923 1403.64 140.967 1404.03 140.967C1404.14 140.967 1404.25 140.967 1404.38 140.967C1404.5 140.959 1404.64 140.947 1404.8 140.931V142.664C1404.55 142.737 1404.29 142.79 1404.01 142.823C1403.74 142.855 1403.45 142.872 1403.13 142.872C1402.11 142.872 1401.41 142.611 1401.04 142.09C1400.68 141.561 1400.49 140.878 1400.49 140.04V131.385H1398.72V129.59H1400.49V125.94ZM1408.32 138.562C1408.38 139.295 1408.57 139.856 1408.87 140.247C1409.42 140.955 1410.38 141.309 1411.75 141.309C1412.56 141.309 1413.28 141.134 1413.9 140.784C1414.52 140.426 1414.83 139.877 1414.83 139.136C1414.83 138.575 1414.58 138.147 1414.08 137.854C1413.76 137.675 1413.14 137.468 1412.2 137.232L1410.46 136.792C1409.34 136.516 1408.52 136.207 1407.99 135.865C1407.05 135.271 1406.57 134.449 1406.57 133.399C1406.57 132.162 1407.02 131.161 1407.9 130.396C1408.8 129.631 1410 129.249 1411.51 129.249C1413.47 129.249 1414.89 129.826 1415.77 130.982C1416.31 131.714 1416.58 132.504 1416.56 133.35H1414.48C1414.44 132.854 1414.27 132.402 1413.96 131.995C1413.45 131.417 1412.58 131.128 1411.33 131.128C1410.5 131.128 1409.87 131.287 1409.44 131.604C1409.02 131.922 1408.81 132.341 1408.81 132.862C1408.81 133.431 1409.09 133.887 1409.65 134.229C1409.98 134.432 1410.46 134.611 1411.09 134.766L1412.54 135.12C1414.12 135.503 1415.18 135.873 1415.72 136.231C1416.57 136.792 1417 137.675 1417 138.88C1417 140.044 1416.56 141.049 1415.67 141.895C1414.79 142.741 1413.45 143.165 1411.64 143.165C1409.69 143.165 1408.32 142.725 1407.5 141.846C1406.7 140.959 1406.26 139.865 1406.21 138.562H1408.32ZM1319.43 159.59H1321.52V161.849C1321.69 161.409 1322.11 160.876 1322.77 160.25C1323.44 159.615 1324.21 159.297 1325.08 159.297C1325.12 159.297 1325.19 159.301 1325.29 159.31C1325.38 159.318 1325.55 159.334 1325.79 159.358V161.678C1325.66 161.653 1325.54 161.637 1325.42 161.629C1325.32 161.621 1325.2 161.617 1325.07 161.617C1323.96 161.617 1323.11 161.975 1322.52 162.691C1321.92 163.399 1321.62 164.217 1321.62 165.145V172.664H1319.43V159.59ZM1333.14 159.297C1334.06 159.297 1334.96 159.517 1335.83 159.957C1336.7 160.388 1337.37 160.949 1337.82 161.641C1338.26 162.3 1338.56 163.069 1338.7 163.948C1338.83 164.55 1338.9 165.511 1338.9 166.829H1329.32C1329.36 168.156 1329.67 169.222 1330.26 170.027C1330.84 170.825 1331.75 171.224 1332.98 171.224C1334.12 171.224 1335.04 170.845 1335.72 170.088C1336.11 169.649 1336.39 169.14 1336.55 168.562H1338.71C1338.66 169.043 1338.47 169.58 1338.14 170.174C1337.82 170.76 1337.47 171.24 1337.07 171.614C1336.4 172.265 1335.57 172.705 1334.59 172.933C1334.06 173.063 1333.46 173.128 1332.79 173.128C1331.17 173.128 1329.79 172.538 1328.66 171.358C1327.53 170.17 1326.96 168.51 1326.96 166.377C1326.96 164.278 1327.53 162.573 1328.67 161.263C1329.81 159.952 1331.3 159.297 1333.14 159.297ZM1336.64 165.083C1336.55 164.131 1336.34 163.37 1336.02 162.801C1335.41 161.743 1334.41 161.214 1333 161.214C1331.99 161.214 1331.15 161.58 1330.46 162.312C1329.78 163.037 1329.42 163.96 1329.38 165.083H1336.64ZM1343.29 169.185C1343.29 169.82 1343.52 170.32 1343.99 170.687C1344.45 171.053 1345 171.236 1345.64 171.236C1346.41 171.236 1347.16 171.057 1347.88 170.699C1349.1 170.105 1349.71 169.132 1349.71 167.781V166.011C1349.44 166.182 1349.1 166.325 1348.68 166.438C1348.25 166.552 1347.84 166.634 1347.43 166.683L1346.1 166.854C1345.3 166.959 1344.7 167.126 1344.31 167.354C1343.63 167.736 1343.29 168.347 1343.29 169.185ZM1348.61 164.742C1349.12 164.677 1349.46 164.465 1349.63 164.107C1349.73 163.912 1349.77 163.631 1349.77 163.265C1349.77 162.516 1349.51 161.975 1348.97 161.641C1348.44 161.299 1347.68 161.128 1346.69 161.128C1345.54 161.128 1344.72 161.438 1344.24 162.056C1343.98 162.398 1343.8 162.907 1343.72 163.582H1341.67C1341.71 161.971 1342.23 160.852 1343.23 160.225C1344.24 159.59 1345.41 159.273 1346.73 159.273C1348.27 159.273 1349.52 159.566 1350.48 160.152C1351.43 160.738 1351.91 161.649 1351.91 162.886V170.418C1351.91 170.646 1351.96 170.829 1352.04 170.967C1352.14 171.106 1352.34 171.175 1352.64 171.175C1352.74 171.175 1352.85 171.171 1352.97 171.163C1353.09 171.146 1353.22 171.126 1353.36 171.102V172.725C1353.02 172.823 1352.76 172.884 1352.58 172.908C1352.4 172.933 1352.16 172.945 1351.85 172.945C1351.09 172.945 1350.54 172.676 1350.2 172.139C1350.02 171.854 1349.9 171.451 1349.82 170.931C1349.38 171.517 1348.73 172.025 1347.89 172.457C1347.06 172.888 1346.13 173.104 1345.12 173.104C1343.91 173.104 1342.92 172.737 1342.15 172.005C1341.38 171.264 1341 170.341 1341 169.234C1341 168.021 1341.38 167.081 1342.13 166.414C1342.89 165.747 1343.88 165.336 1345.11 165.181L1348.61 164.742ZM1356.92 166.28C1356.92 167.68 1357.21 168.851 1357.81 169.795C1358.4 170.739 1359.35 171.211 1360.66 171.211C1361.68 171.211 1362.51 170.776 1363.17 169.905C1363.82 169.026 1364.15 167.769 1364.15 166.133C1364.15 164.481 1363.82 163.261 1363.14 162.471C1362.47 161.674 1361.63 161.275 1360.64 161.275C1359.53 161.275 1358.63 161.698 1357.94 162.544C1357.26 163.391 1356.92 164.636 1356.92 166.28ZM1360.22 159.358C1361.22 159.358 1362.06 159.57 1362.74 159.993C1363.13 160.237 1363.57 160.665 1364.07 161.275V154.671H1366.18V172.664H1364.2V170.845C1363.69 171.651 1363.08 172.233 1362.38 172.591C1361.68 172.949 1360.88 173.128 1359.98 173.128C1358.52 173.128 1357.26 172.518 1356.2 171.297C1355.13 170.068 1354.6 168.436 1354.6 166.402C1354.6 164.498 1355.08 162.85 1356.05 161.458C1357.03 160.058 1358.42 159.358 1360.22 159.358ZM1377.61 159.59H1380.04C1379.73 160.429 1379.04 162.341 1377.97 165.328C1377.18 167.574 1376.51 169.405 1375.97 170.821C1374.7 174.157 1373.81 176.192 1373.29 176.924C1372.76 177.657 1371.87 178.023 1370.6 178.023C1370.29 178.023 1370.05 178.011 1369.88 177.986C1369.72 177.962 1369.51 177.917 1369.27 177.852V175.85C1369.65 175.956 1369.93 176.021 1370.1 176.045C1370.27 176.07 1370.42 176.082 1370.55 176.082C1370.96 176.082 1371.25 176.013 1371.44 175.875C1371.64 175.744 1371.8 175.582 1371.93 175.386C1371.97 175.321 1372.12 174.987 1372.37 174.385C1372.62 173.783 1372.81 173.335 1372.92 173.042L1368.08 159.59H1370.58L1374.08 170.235L1377.61 159.59ZM1386.35 170.125H1388.78V172.664H1386.35V170.125ZM1382.23 160.347C1382.23 158.589 1382.73 157.177 1383.72 156.111C1384.72 155.037 1386.08 154.5 1387.81 154.5C1389.41 154.5 1390.7 154.96 1391.66 155.879C1392.63 156.791 1393.11 157.959 1393.11 159.383C1393.11 160.245 1392.93 160.945 1392.57 161.482C1392.22 162.02 1391.51 162.809 1390.44 163.851C1389.65 164.607 1389.15 165.25 1388.91 165.779C1388.68 166.3 1388.57 167.073 1388.57 168.099H1386.4C1386.4 166.935 1386.53 165.999 1386.81 165.291C1387.09 164.575 1387.69 163.757 1388.63 162.837L1389.61 161.873C1389.9 161.596 1390.13 161.307 1390.31 161.006C1390.64 160.477 1390.8 159.928 1390.8 159.358C1390.8 158.561 1390.56 157.869 1390.08 157.283C1389.61 156.697 1388.82 156.404 1387.73 156.404C1386.37 156.404 1385.43 156.909 1384.91 157.918C1384.61 158.479 1384.45 159.289 1384.41 160.347H1382.23Z" fill="#14130F"/>
<path d="M1487.92 202.664H1484.16L1476.81 189.883V202.664H1473.31V184.671H1477.25L1484.42 197.232V184.671H1487.92V202.664Z" fill="#5D585C"/>
<path d="M1379 271.664L1377 271.664L1377 269.664L1379 269.664L1379 271.664ZM1380.41 308.578C1379.63 309.359 1378.37 309.359 1377.59 308.578L1364.86 295.85C1364.08 295.069 1364.08 293.803 1364.86 293.022C1365.64 292.241 1366.91 292.241 1367.69 293.022L1379 304.336L1390.31 293.022C1391.09 292.241 1392.36 292.241 1393.14 293.022C1393.92 293.803 1393.92 295.069 1393.14 295.85L1380.41 308.578ZM1507 271.664L1509 271.664L1509 273.664L1507 273.664L1507 271.664ZM1379 271.664L1381 271.664L1381 307.164L1379 307.164L1377 307.164L1377 271.664L1379 271.664ZM1507 144.164L1509 144.164L1509 271.664L1507 271.664L1505 271.664L1505 144.164L1507 144.164ZM1507 271.664L1507 273.664L1379 273.664L1379 271.664L1379 269.664L1507 269.664L1507 271.664Z" fill="#B8B3B7"/>
<path d="M997.593 151.671L991.575 162.901V169.664H987.815V162.901L981.59 151.671H986.021L989.756 159.508L993.333 151.671H997.593Z" fill="#5D585C"/>
<rect x="768.828" y="258.664" width="135.524" height="135.972" transform="rotate(-45 768.828 258.664)" stroke="#B8B3B7" stroke-width="4"/>
<path d="M807.285 245.315L804.563 237.393L801.67 245.315H807.285ZM803.293 234.732H806.04L812.546 252.664H809.885L808.066 247.293H800.974L799.033 252.664H796.543L803.293 234.732ZM815.854 246.28C815.854 247.68 816.152 248.851 816.746 249.795C817.34 250.739 818.292 251.211 819.602 251.211C820.619 251.211 821.453 250.776 822.104 249.905C822.764 249.026 823.093 247.769 823.093 246.133C823.093 244.481 822.756 243.261 822.08 242.471C821.405 241.674 820.57 241.275 819.578 241.275C818.471 241.275 817.572 241.698 816.88 242.544C816.196 243.391 815.854 244.636 815.854 246.28ZM819.163 239.358C820.164 239.358 821.002 239.57 821.677 239.993C822.068 240.237 822.511 240.665 823.008 241.275V234.671H825.12V252.664H823.142V250.845C822.629 251.651 822.023 252.233 821.323 252.591C820.623 252.949 819.822 253.128 818.918 253.128C817.462 253.128 816.2 252.518 815.134 251.297C814.068 250.068 813.535 248.436 813.535 246.402C813.535 244.498 814.019 242.85 814.988 241.458C815.964 240.058 817.356 239.358 819.163 239.358ZM830.576 237.271H828.379V234.732H830.576V237.271ZM826.304 255.972C827.288 255.94 827.878 255.85 828.074 255.704C828.277 255.565 828.379 255.122 828.379 254.373V239.651H830.576V254.605C830.576 255.557 830.422 256.269 830.112 256.741C829.6 257.539 828.627 257.938 827.195 257.938C827.089 257.938 826.975 257.933 826.853 257.925C826.739 257.917 826.556 257.901 826.304 257.876V255.972ZM836.143 239.59V248.27C836.143 248.937 836.248 249.482 836.46 249.905C836.851 250.687 837.579 251.077 838.645 251.077C840.175 251.077 841.217 250.394 841.77 249.026C842.071 248.294 842.222 247.289 842.222 246.011V239.59H844.419V252.664H842.344L842.368 250.735C842.083 251.232 841.729 251.651 841.306 251.993C840.468 252.676 839.451 253.018 838.254 253.018C836.391 253.018 835.121 252.396 834.446 251.15C834.08 250.483 833.896 249.592 833.896 248.477V239.59H836.143ZM849.167 248.562C849.233 249.295 849.416 249.856 849.717 250.247C850.27 250.955 851.23 251.309 852.598 251.309C853.411 251.309 854.128 251.134 854.746 250.784C855.365 250.426 855.674 249.877 855.674 249.136C855.674 248.575 855.426 248.147 854.929 247.854C854.612 247.675 853.985 247.468 853.049 247.232L851.304 246.792C850.189 246.516 849.367 246.207 848.838 245.865C847.894 245.271 847.422 244.449 847.422 243.399C847.422 242.162 847.865 241.161 848.752 240.396C849.648 239.631 850.848 239.249 852.354 239.249C854.323 239.249 855.743 239.826 856.614 240.982C857.159 241.714 857.424 242.504 857.407 243.35H855.332C855.291 242.854 855.116 242.402 854.807 241.995C854.303 241.417 853.428 241.128 852.183 241.128C851.353 241.128 850.722 241.287 850.291 241.604C849.867 241.922 849.656 242.341 849.656 242.862C849.656 243.431 849.937 243.887 850.498 244.229C850.824 244.432 851.304 244.611 851.938 244.766L853.391 245.12C854.97 245.503 856.028 245.873 856.565 246.231C857.419 246.792 857.847 247.675 857.847 248.88C857.847 250.044 857.403 251.049 856.516 251.895C855.637 252.741 854.294 253.165 852.488 253.165C850.543 253.165 849.163 252.725 848.35 251.846C847.544 250.959 847.113 249.865 847.056 248.562H849.167ZM860.801 235.94H863.022V239.59H865.11V241.385H863.022V249.917C863.022 250.373 863.177 250.678 863.486 250.833C863.657 250.923 863.942 250.967 864.341 250.967C864.447 250.967 864.561 250.967 864.683 250.967C864.805 250.959 864.947 250.947 865.11 250.931V252.664C864.858 252.737 864.593 252.79 864.316 252.823C864.048 252.855 863.755 252.872 863.438 252.872C862.412 252.872 861.716 252.611 861.35 252.09C860.984 251.561 860.801 250.878 860.801 250.04V241.385H859.031V239.59H860.801V235.94ZM867.319 239.59H869.492V241.446C870.013 240.803 870.485 240.335 870.908 240.042C871.632 239.546 872.454 239.297 873.374 239.297C874.416 239.297 875.254 239.554 875.889 240.066C876.247 240.359 876.572 240.791 876.865 241.36C877.354 240.66 877.927 240.144 878.586 239.81C879.246 239.468 879.986 239.297 880.808 239.297C882.566 239.297 883.762 239.932 884.397 241.202C884.739 241.885 884.91 242.805 884.91 243.96V252.664H882.627V243.582C882.627 242.711 882.407 242.113 881.968 241.788C881.536 241.462 881.007 241.299 880.381 241.299C879.518 241.299 878.774 241.588 878.147 242.166C877.528 242.744 877.219 243.708 877.219 245.059V252.664H874.985V244.131C874.985 243.244 874.88 242.597 874.668 242.19C874.334 241.58 873.712 241.275 872.8 241.275C871.97 241.275 871.213 241.596 870.53 242.239C869.854 242.882 869.517 244.046 869.517 245.73V252.664H867.319V239.59ZM893.589 239.297C894.517 239.297 895.416 239.517 896.287 239.957C897.157 240.388 897.821 240.949 898.276 241.641C898.716 242.3 899.009 243.069 899.155 243.948C899.285 244.55 899.351 245.511 899.351 246.829H889.768C889.809 248.156 890.122 249.222 890.708 250.027C891.294 250.825 892.201 251.224 893.43 251.224C894.578 251.224 895.493 250.845 896.177 250.088C896.567 249.649 896.844 249.14 897.007 248.562H899.167C899.111 249.043 898.919 249.58 898.594 250.174C898.276 250.76 897.918 251.24 897.52 251.614C896.852 252.265 896.026 252.705 895.042 252.933C894.513 253.063 893.914 253.128 893.247 253.128C891.619 253.128 890.24 252.538 889.109 251.358C887.978 250.17 887.412 248.51 887.412 246.377C887.412 244.278 887.982 242.573 889.121 241.263C890.26 239.952 891.75 239.297 893.589 239.297ZM897.092 245.083C897.003 244.131 896.795 243.37 896.47 242.801C895.868 241.743 894.862 241.214 893.455 241.214C892.445 241.214 891.599 241.58 890.916 242.312C890.232 243.037 889.87 243.96 889.829 245.083H897.092ZM902.061 239.59H904.148V241.446C904.766 240.681 905.422 240.132 906.113 239.798C906.805 239.464 907.574 239.297 908.42 239.297C910.276 239.297 911.529 239.944 912.18 241.238C912.538 241.946 912.717 242.959 912.717 244.278V252.664H910.483V244.424C910.483 243.627 910.365 242.984 910.129 242.496C909.739 241.682 909.031 241.275 908.005 241.275C907.485 241.275 907.057 241.328 906.724 241.434C906.121 241.613 905.592 241.971 905.137 242.508C904.771 242.939 904.53 243.387 904.417 243.851C904.311 244.306 904.258 244.961 904.258 245.816V252.664H902.061V239.59ZM916.416 235.94H918.638V239.59H920.725V241.385H918.638V249.917C918.638 250.373 918.792 250.678 919.102 250.833C919.272 250.923 919.557 250.967 919.956 250.967C920.062 250.967 920.176 250.967 920.298 250.967C920.42 250.959 920.562 250.947 920.725 250.931V252.664C920.473 252.737 920.208 252.79 919.932 252.823C919.663 252.855 919.37 252.872 919.053 252.872C918.027 252.872 917.332 252.611 916.965 252.09C916.599 251.561 916.416 250.878 916.416 250.04V241.385H914.646V239.59H916.416V235.94ZM924.241 248.562C924.306 249.295 924.489 249.856 924.79 250.247C925.343 250.955 926.304 251.309 927.671 251.309C928.485 251.309 929.201 251.134 929.819 250.784C930.438 250.426 930.747 249.877 930.747 249.136C930.747 248.575 930.499 248.147 930.002 247.854C929.685 247.675 929.058 247.468 928.123 247.232L926.377 246.792C925.262 246.516 924.44 246.207 923.911 245.865C922.967 245.271 922.495 244.449 922.495 243.399C922.495 242.162 922.939 241.161 923.826 240.396C924.721 239.631 925.921 239.249 927.427 239.249C929.396 239.249 930.816 239.826 931.687 240.982C932.232 241.714 932.497 242.504 932.48 243.35H930.405C930.365 242.854 930.19 242.402 929.88 241.995C929.376 241.417 928.501 241.128 927.256 241.128C926.426 241.128 925.795 241.287 925.364 241.604C924.941 241.922 924.729 242.341 924.729 242.862C924.729 243.431 925.01 243.887 925.571 244.229C925.897 244.432 926.377 244.611 927.012 244.766L928.464 245.12C930.043 245.503 931.101 245.873 931.638 246.231C932.493 246.792 932.92 247.675 932.92 248.88C932.92 250.044 932.476 251.049 931.589 251.895C930.71 252.741 929.368 253.165 927.561 253.165C925.616 253.165 924.237 252.725 923.423 251.846C922.617 250.959 922.186 249.865 922.129 248.562H924.241ZM817.905 269.59H819.993V271.446C820.611 270.681 821.266 270.132 821.958 269.798C822.65 269.464 823.419 269.297 824.265 269.297C826.121 269.297 827.374 269.944 828.025 271.238C828.383 271.946 828.562 272.959 828.562 274.278V282.664H826.328V274.424C826.328 273.627 826.21 272.984 825.974 272.496C825.583 271.682 824.875 271.275 823.85 271.275C823.329 271.275 822.902 271.328 822.568 271.434C821.966 271.613 821.437 271.971 820.981 272.508C820.615 272.939 820.375 273.387 820.261 273.851C820.155 274.306 820.103 274.961 820.103 275.816V282.664H817.905V269.59ZM837.266 269.297C838.193 269.297 839.093 269.517 839.963 269.957C840.834 270.388 841.497 270.949 841.953 271.641C842.393 272.3 842.686 273.069 842.832 273.948C842.962 274.55 843.027 275.511 843.027 276.829H833.445C833.486 278.156 833.799 279.222 834.385 280.027C834.971 280.825 835.878 281.224 837.107 281.224C838.254 281.224 839.17 280.845 839.854 280.088C840.244 279.649 840.521 279.14 840.684 278.562H842.844C842.787 279.043 842.596 279.58 842.271 280.174C841.953 280.76 841.595 281.24 841.196 281.614C840.529 282.265 839.703 282.705 838.718 282.933C838.189 283.063 837.591 283.128 836.924 283.128C835.296 283.128 833.917 282.538 832.786 281.358C831.654 280.17 831.089 278.51 831.089 276.377C831.089 274.278 831.659 272.573 832.798 271.263C833.937 269.952 835.426 269.297 837.266 269.297ZM840.769 275.083C840.68 274.131 840.472 273.37 840.146 272.801C839.544 271.743 838.539 271.214 837.131 271.214C836.122 271.214 835.276 271.58 834.592 272.312C833.909 273.037 833.547 273.96 833.506 275.083H840.769ZM851.182 269.297C852.109 269.297 853.009 269.517 853.879 269.957C854.75 270.388 855.413 270.949 855.869 271.641C856.309 272.3 856.602 273.069 856.748 273.948C856.878 274.55 856.943 275.511 856.943 276.829H847.361C847.402 278.156 847.715 279.222 848.301 280.027C848.887 280.825 849.794 281.224 851.023 281.224C852.17 281.224 853.086 280.845 853.77 280.088C854.16 279.649 854.437 279.14 854.6 278.562H856.76C856.703 279.043 856.512 279.58 856.187 280.174C855.869 280.76 855.511 281.24 855.112 281.614C854.445 282.265 853.619 282.705 852.634 282.933C852.105 283.063 851.507 283.128 850.84 283.128C849.212 283.128 847.833 282.538 846.702 281.358C845.57 280.17 845.005 278.51 845.005 276.377C845.005 274.278 845.575 272.573 846.714 271.263C847.853 269.952 849.342 269.297 851.182 269.297ZM854.685 275.083C854.596 274.131 854.388 273.37 854.062 272.801C853.46 271.743 852.455 271.214 851.047 271.214C850.038 271.214 849.192 271.58 848.508 272.312C847.825 273.037 847.463 273.96 847.422 275.083H854.685ZM861.045 276.28C861.045 277.68 861.342 278.851 861.936 279.795C862.53 280.739 863.482 281.211 864.792 281.211C865.81 281.211 866.644 280.776 867.295 279.905C867.954 279.026 868.284 277.769 868.284 276.133C868.284 274.481 867.946 273.261 867.271 272.471C866.595 271.674 865.761 271.275 864.768 271.275C863.661 271.275 862.762 271.698 862.07 272.544C861.387 273.391 861.045 274.636 861.045 276.28ZM864.353 269.358C865.354 269.358 866.192 269.57 866.868 269.993C867.258 270.237 867.702 270.665 868.198 271.275V264.671H870.31V282.664H868.333V280.845C867.82 281.651 867.214 282.233 866.514 282.591C865.814 282.949 865.012 283.128 864.109 283.128C862.652 283.128 861.391 282.518 860.325 281.297C859.259 280.068 858.726 278.436 858.726 276.402C858.726 274.498 859.21 272.85 860.178 271.458C861.155 270.058 862.546 269.358 864.353 269.358ZM879.014 269.297C879.941 269.297 880.841 269.517 881.711 269.957C882.582 270.388 883.245 270.949 883.701 271.641C884.141 272.3 884.434 273.069 884.58 273.948C884.71 274.55 884.775 275.511 884.775 276.829H875.193C875.234 278.156 875.547 279.222 876.133 280.027C876.719 280.825 877.626 281.224 878.855 281.224C880.002 281.224 880.918 280.845 881.602 280.088C881.992 279.649 882.269 279.14 882.432 278.562H884.592C884.535 279.043 884.344 279.58 884.019 280.174C883.701 280.76 883.343 281.24 882.944 281.614C882.277 282.265 881.451 282.705 880.466 282.933C879.937 283.063 879.339 283.128 878.672 283.128C877.044 283.128 875.665 282.538 874.534 281.358C873.403 280.17 872.837 278.51 872.837 276.377C872.837 274.278 873.407 272.573 874.546 271.263C875.685 269.952 877.174 269.297 879.014 269.297ZM882.517 275.083C882.428 274.131 882.22 273.37 881.895 272.801C881.292 271.743 880.287 271.214 878.879 271.214C877.87 271.214 877.024 271.58 876.34 272.312C875.657 273.037 875.295 273.96 875.254 275.083H882.517ZM888.877 276.28C888.877 277.68 889.174 278.851 889.768 279.795C890.362 280.739 891.314 281.211 892.625 281.211C893.642 281.211 894.476 280.776 895.127 279.905C895.786 279.026 896.116 277.769 896.116 276.133C896.116 274.481 895.778 273.261 895.103 272.471C894.427 271.674 893.593 271.275 892.6 271.275C891.493 271.275 890.594 271.698 889.902 272.544C889.219 273.391 888.877 274.636 888.877 276.28ZM892.185 269.358C893.186 269.358 894.024 269.57 894.7 269.993C895.09 270.237 895.534 270.665 896.03 271.275V264.671H898.142V282.664H896.165V280.845C895.652 281.651 895.046 282.233 894.346 282.591C893.646 282.949 892.844 283.128 891.941 283.128C890.484 283.128 889.223 282.518 888.157 281.297C887.091 280.068 886.558 278.436 886.558 276.402C886.558 274.498 887.042 272.85 888.01 271.458C888.987 270.058 890.378 269.358 892.185 269.358ZM905.808 280.125H908.237V282.664H905.808V280.125ZM901.694 270.347C901.694 268.589 902.191 267.177 903.184 266.111C904.176 265.037 905.54 264.5 907.273 264.5C908.876 264.5 910.158 264.96 911.118 265.879C912.087 266.791 912.571 267.959 912.571 269.383C912.571 270.245 912.392 270.945 912.034 271.482C911.684 272.02 910.972 272.809 909.897 273.851C909.116 274.607 908.608 275.25 908.372 275.779C908.144 276.3 908.03 277.073 908.03 278.099H905.857C905.857 276.935 905.995 275.999 906.272 275.291C906.549 274.575 907.155 273.757 908.091 272.837L909.067 271.873C909.36 271.596 909.596 271.307 909.775 271.006C910.101 270.477 910.264 269.928 910.264 269.358C910.264 268.561 910.024 267.869 909.543 267.283C909.071 266.697 908.286 266.404 907.188 266.404C905.828 266.404 904.889 266.909 904.368 267.918C904.075 268.479 903.908 269.289 903.867 270.347H901.694Z" fill="#14130F"/>
<path d="M996.922 351.664H993.162L985.813 338.883V351.664H982.31V333.671H986.253L993.418 346.232V333.671H996.922V351.664Z" fill="#5D585C"/>
<path d="M1016 146.664L1016 144.664L1014 144.664L1014 146.664L1016 146.664ZM1243.41 148.078C1244.2 147.297 1244.2 146.031 1243.41 145.25L1230.69 132.522C1229.91 131.741 1228.64 131.741 1227.86 132.522C1227.08 133.303 1227.08 134.569 1227.86 135.35L1239.17 146.664L1227.86 157.978C1227.08 158.759 1227.08 160.025 1227.86 160.806C1228.64 161.587 1229.91 161.587 1230.69 160.806L1243.41 148.078ZM1016 258.164L1016 260.164L1018 260.164L1018 258.164L1016 258.164ZM1016 146.664L1016 148.664L1242 148.664V146.664L1242 144.664L1016 144.664L1016 146.664ZM981 258.164L981 260.164L1016 260.164L1016 258.164L1016 256.164L981 256.164L981 258.164ZM1016 258.164L1018 258.164L1018 146.664L1016 146.664L1014 146.664L1014 258.164L1016 258.164Z" fill="#B8B3B7"/>
<path d="M1016 357.656L1016 359.656L1014 359.656L1014 357.656L1016 357.656ZM1243.41 356.25C1244.2 357.031 1244.2 358.297 1243.41 359.078L1230.69 371.806C1229.9 372.587 1228.64 372.587 1227.86 371.806C1227.08 371.025 1227.08 369.758 1227.86 368.977L1239.17 357.664L1227.86 346.35C1227.08 345.569 1227.08 344.302 1227.86 343.521C1228.64 342.74 1229.91 342.74 1230.69 343.522L1243.41 356.25ZM1016 256.664L1018 256.664L1018 357.656L1016 357.656L1014 357.656L1014 256.664L1016 256.664ZM1016 357.656L1016 355.656L1242 355.664L1242 357.664L1242 359.664L1016 359.656L1016 357.656Z" fill="#B8B3B7"/>
<path d="M1719 358L1719 360L1721 360L1721 358L1719 358ZM1720.41 201.586C1719.63 200.805 1718.37 200.805 1717.59 201.586L1704.86 214.314C1704.08 215.095 1704.08 216.361 1704.86 217.142C1705.64 217.923 1706.91 217.923 1707.69 217.142L1719 205.828L1730.31 217.142C1731.09 217.923 1732.36 217.923 1733.14 217.142C1733.92 216.361 1733.92 215.095 1733.14 214.314L1720.41 201.586ZM1486 358L1486 360L1719 360L1719 358L1719 356L1486 356L1486 358ZM1719 358L1721 358L1721 203L1719 203L1717 203L1717 358L1719 358Z" fill="#B8B3B7"/>
</svg>
