<?xml version="1.0" encoding="utf-8"?>
<!-- Generator: Adobe Illustrator 25.2.3, SVG Export Plug-In . SVG Version: 6.00 Build 0)  -->
<svg version="1.1" id="Layer_1" xmlns="http://www.w3.org/2000/svg" xmlns:xlink="http://www.w3.org/1999/xlink" x="0px" y="0px"
	 viewBox="0 0 450 450" style="enable-background:new 0 0 450 450;" xml:space="preserve">
<style type="text/css">
	.st0{fill:#FFFFFF;}
	.st1{fill:none;stroke:#442856;stroke-width:4;stroke-miterlimit:10;}
	.st2{fill-rule:evenodd;clip-rule:evenodd;fill:#D695C0;}
</style>
<rect class="st0" width="450" height="450"/>
<g>
	<path class="st1" d="M128.2,144.7H40.8c-9.1,0-16.5-7.4-16.5-16.5V40.8c0-9.1,7.4-16.5,16.5-16.5h87.4c9.1,0,16.5,7.4,16.5,16.5
		v87.4C144.7,137.3,137.3,144.7,128.2,144.7z"/>
	<g>
		<path class="st1" d="M144.7,323.7c0-10.2-8.3-18.4-18.4-18.4H42.7c-10.2,0-18.4,8.3-18.4,18.4v81.9l120.4-30.1V323.7z"/>
		<path class="st1" d="M33.7,423.4c2.7,1.5,5.7,2.4,9,2.4h83.6c10.2,0,18.4-8.3,18.4-18.4v-11.7L33.7,423.4z"/>
	</g>
	<path class="st1" d="M268.7,144.7h-87.4c-9.1,0-16.5-7.4-16.5-16.5V40.8c0-9.1,7.4-16.5,16.5-16.5h87.4c9.1,0,16.5,7.4,16.5,16.5
		v87.4C285.2,137.3,277.8,144.7,268.7,144.7z"/>
	<path class="st1" d="M409.2,144.7h-87.4c-9.1,0-16.5-7.4-16.5-16.5V40.8c0-9.1,7.4-16.5,16.5-16.5h87.4c9.1,0,16.5,7.4,16.5,16.5
		v87.4C425.7,137.3,418.3,144.7,409.2,144.7z"/>
	<path class="st1" d="M268.7,285.2h-87.4c-9.1,0-16.5-7.4-16.5-16.5v-87.4c0-9.1,7.4-16.5,16.5-16.5h87.4c9.1,0,16.5,7.4,16.5,16.5
		v87.4C285.2,277.8,277.8,285.2,268.7,285.2z"/>
	<path class="st1" d="M409.2,285.2h-87.4c-9.1,0-16.5-7.4-16.5-16.5v-87.4c0-9.1,7.4-16.5,16.5-16.5h87.4c9.1,0,16.5,7.4,16.5,16.5
		v87.4C425.7,277.8,418.3,285.2,409.2,285.2z"/>
	<path class="st1" d="M128.2,285.2H40.8c-9.1,0-16.5-7.4-16.5-16.5v-87.4c0-9.1,7.4-16.5,16.5-16.5h87.4c9.1,0,16.5,7.4,16.5,16.5
		v87.4C144.7,277.8,137.3,285.2,128.2,285.2z"/>
	<g>
		<path class="st1" d="M164.8,390.4v16.9c0,10.2,8.3,18.4,18.4,18.4h83.6c10.2,0,18.4-8.3,18.4-18.4v-47L164.8,390.4z"/>
		<path class="st1" d="M285.2,340.2v-16.5c0-10.2-8.3-18.4-18.4-18.4h-83.6c-10.2,0-18.4,8.3-18.4,18.4v46.6L285.2,340.2z"/>
	</g>
	<g>
		<path class="st1" d="M416.1,307.5c-2.6-1.4-5.6-2.2-8.8-2.2h-83.6c-10.2,0-18.4,8.3-18.4,18.4v11.5L416.1,307.5z"/>
		<path class="st1" d="M305.3,407.3c0,10.2,8.3,18.4,18.4,18.4h83.6c10.2,0,18.4-8.3,18.4-18.4v-82.1l-120.4,30.1V407.3z"/>
	</g>
</g>
<path class="st2" d="M187.5,192c-15.2,0-27.5,12.3-27.5,27.5c0,4.4,2.3,10.7,5.7,17.2c7.4,14.3,19.8,30.3,19.8,30.3
	c0.5,0.6,1.3,1,2.1,1s1.6-0.4,2.1-1c0,0,12.4-15.9,19.8-30.3c3.4-6.5,5.7-12.7,5.7-17.2C215,204.3,202.7,192,187.5,192z
	 M187.5,207.7c-6.5,0-11.8,5.3-11.8,11.8s5.3,11.8,11.8,11.8s11.8-5.3,11.8-11.8S194,207.7,187.5,207.7z"/>
</svg>
