<?xml version="1.0" encoding="utf-8"?>
<!-- Generator: Adobe Illustrator 25.2.3, SVG Export Plug-In . SVG Version: 6.00 Build 0)  -->
<svg version="1.1" id="Layer_1" xmlns="http://www.w3.org/2000/svg" xmlns:xlink="http://www.w3.org/1999/xlink" x="0px" y="0px"
	 viewBox="0 0 450 450" style="enable-background:new 0 0 450 450;" xml:space="preserve">
<style type="text/css">
	.st0{fill:#FFFFFF;}
	.st1{fill:none;stroke:#442856;stroke-width:4;stroke-miterlimit:10;}
	.st2{fill-rule:evenodd;clip-rule:evenodd;fill:#D695C0;}
</style>
<path class="st0" d="M412,433H38c-11.6,0-21-9.4-21-21V38c0-11.6,9.4-21,21-21h374c11.6,0,21,9.4,21,21v374
	C433,423.6,423.6,433,412,433z"/>
<g>
	<g>
		<path class="st1" d="M141.3,157.9H73.7c-9.1,0-16.5-7.4-16.5-16.5V73.7c0-9.1,7.4-16.5,16.5-16.5h67.7c9.1,0,16.5,7.4,16.5,16.5
			v67.7C157.9,150.5,150.5,157.9,141.3,157.9z"/>
		<g>
			<path class="st1" d="M157.9,307.6c0-8.5-6.9-15.4-15.4-15.4H72.5c-8.5,0-15.4,6.9-15.4,15.4v68.5l100.7-25.2V307.6z"/>
			<path class="st1" d="M65,390.9c2.2,1.3,4.8,2,7.5,2h69.9c8.5,0,15.4-6.9,15.4-15.4v-9.8L65,390.9z"/>
		</g>
		<path class="st1" d="M258.8,157.9h-67.7c-9.1,0-16.5-7.4-16.5-16.5V73.7c0-9.1,7.4-16.5,16.5-16.5h67.7c9.1,0,16.5,7.4,16.5,16.5
			v67.7C275.4,150.5,268,157.9,258.8,157.9z"/>
		<path class="st1" d="M376.3,157.9h-67.7c-9.1,0-16.5-7.4-16.5-16.5V73.7c0-9.1,7.4-16.5,16.5-16.5h67.7c9.1,0,16.5,7.4,16.5,16.5
			v67.7C392.9,150.5,385.5,157.9,376.3,157.9z"/>
		<path class="st1" d="M258.8,275.4h-67.7c-9.1,0-16.5-7.4-16.5-16.5v-67.7c0-9.1,7.4-16.5,16.5-16.5h67.7c9.1,0,16.5,7.4,16.5,16.5
			v67.7C275.4,268,268,275.4,258.8,275.4z"/>
		<path class="st1" d="M376.3,275.4h-67.7c-9.1,0-16.5-7.4-16.5-16.5v-67.7c0-9.1,7.4-16.5,16.5-16.5h67.7c9.1,0,16.5,7.4,16.5,16.5
			v67.7C392.9,268,385.5,275.4,376.3,275.4z"/>
		<path class="st1" d="M141.3,275.4H73.7c-9.1,0-16.5-7.4-16.5-16.5v-67.7c0-9.1,7.4-16.5,16.5-16.5h67.7c9.1,0,16.5,7.4,16.5,16.5
			v67.7C157.9,268,150.5,275.4,141.3,275.4z"/>
		<g>
			<path class="st1" d="M174.6,363.3v14.1c0,8.5,6.9,15.4,15.4,15.4h69.9c8.5,0,15.4-6.9,15.4-15.4v-39.3L174.6,363.3z"/>
			<path class="st1" d="M275.4,321.4v-13.8c0-8.5-6.9-15.4-15.4-15.4h-69.9c-8.5,0-15.4,6.9-15.4,15.4v39L275.4,321.4z"/>
		</g>
		<g>
			<path class="st1" d="M384.8,294c-2.2-1.2-4.7-1.9-7.4-1.9h-69.9c-8.5,0-15.4,6.9-15.4,15.4v9.6L384.8,294z"/>
			<path class="st1" d="M292.1,377.5c0,8.5,6.9,15.4,15.4,15.4h69.9c8.5,0,15.4-6.9,15.4-15.4v-68.7L292.1,334V377.5z"/>
		</g>
	</g>
	<path class="st2" d="M193.6,197.4c-12.7,0-23,10.3-23,23c0,3.7,1.9,8.9,4.7,14.4c6.2,12,16.5,25.3,16.5,25.3
		c0.4,0.5,1.1,0.8,1.7,0.8s1.3-0.3,1.7-0.8c0,0,10.3-13.3,16.5-25.3c2.8-5.4,4.7-10.7,4.7-14.4C216.7,207.7,206.3,197.4,193.6,197.4
		z M193.6,210.5c-5.4,0-9.9,4.4-9.9,9.9s4.4,9.9,9.9,9.9s9.9-4.4,9.9-9.9S199.1,210.5,193.6,210.5z"/>
</g>
</svg>
