<?xml version="1.0" encoding="utf-8"?>
<!-- Generator: Adobe Illustrator 25.2.3, SVG Export Plug-In . SVG Version: 6.00 Build 0)  -->
<svg version="1.1" id="Layer_1" xmlns="http://www.w3.org/2000/svg" xmlns:xlink="http://www.w3.org/1999/xlink" x="0px" y="0px"
	 viewBox="0 0 680 600" style="enable-background:new 0 0 680 600;" xml:space="preserve">
<style type="text/css">
	.st0{fill:#D695C0;}
</style>
<path class="st0" d="M340,158.6c-78,0-141.4,63.4-141.4,141.4S262,441.4,340,441.4S481.4,378,481.4,300S418,158.6,340,158.6z
	 M383.6,326.2l6.6,40.5c1.1,6.9-5.8,12.1-11.7,8.9l-34.8-19.1c-2.3-1.3-5.2-1.3-7.5,0l-34.8,19.1c-5.9,3.3-12.8-2-11.7-8.9l6.6-40.5
	c0.4-2.7-0.4-5.5-2.3-7.5L265.8,290c-4.8-4.9-2.1-13.4,4.5-14.4l38.9-5.9c2.6-0.4,4.9-2.1,6.1-4.6l17.4-36.9c3-6.3,11.5-6.3,14.5,0
	l17.4,36.9c1.2,2.5,3.4,4.2,6.1,4.6l38.9,5.9c6.6,1,9.3,9.5,4.5,14.4l-28.2,28.7C384,320.6,383.1,323.4,383.6,326.2z"/>
</svg>
