<?xml version="1.0" encoding="utf-8"?>
<!-- Generator: Adobe Illustrator 25.2.3, SVG Export Plug-In . SVG Version: 6.00 Build 0)  -->
<svg version="1.1" id="Layer_1" xmlns="http://www.w3.org/2000/svg" xmlns:xlink="http://www.w3.org/1999/xlink" x="0px" y="0px"
	 viewBox="0 0 283.5 283.5" style="enable-background:new 0 0 283.5 283.5;" xml:space="preserve">
<style type="text/css">
	.st0{fill:#D594BF;}
</style>
<g>
	<ellipse class="st0" cx="107.7" cy="126.6" rx="17.8" ry="18.4"/>
	<ellipse class="st0" cx="176.5" cy="128.6" rx="17.8" ry="18.4"/>
	<path class="st0" d="M174.1,166.8c-3.6-0.7-7,1.7-7.7,5.4c-0.1,0.7-3.6,17.8-25.6,17.3c-22.8-0.6-27.3-15.4-27.5-16.2
		c-0.9-3.6-4.5-5.7-8-4.8c-3.5,0.9-5.6,4.6-4.7,8.3c0.3,1,6.7,25.4,39.8,26.3c0.5,0,1,0,1.5,0c25.3,0,35.5-18.4,37.3-28.3
		C180,171.1,177.7,167.5,174.1,166.8z"/>
	<path class="st0" d="M67.6,27.9"/>
	<path class="st0" d="M141.7,279.1c-73.9,0-134.1-61.6-134.1-137.4S67.8,4.3,141.7,4.3S275.8,66,275.8,141.7
		S215.7,279.1,141.7,279.1z M141.7,26.3c-61.8,0-112.1,51.8-112.1,115.4s50.3,115.4,112.1,115.4s112.1-51.8,112.1-115.4
		S203.5,26.3,141.7,26.3z"/>
</g>
</svg>
