<?xml version="1.0" encoding="utf-8"?>
<!-- Generator: Adobe Illustrator 25.2.3, SVG Export Plug-In . SVG Version: 6.00 Build 0)  -->
<svg version="1.1" id="Layer_1" xmlns="http://www.w3.org/2000/svg" xmlns:xlink="http://www.w3.org/1999/xlink" x="0px" y="0px"
	 viewBox="0 0 680 600" style="enable-background:new 0 0 680 600;" xml:space="preserve">
<style type="text/css">
	.st0{fill:#D695C0;}
	.st1{fill:#785089;}
</style>
<g>
	<g>
		<path class="st0" d="M191,304c-78,0-141.4,63.4-141.4,141.4c0,78,63.4,141.4,141.4,141.4s141.4-63.4,141.4-141.4
			C332.4,367.4,268.9,304,191,304z M191,571.8c-69.7,0-126.4-56.7-126.4-126.4S121.2,319,191,319s126.4,56.7,126.4,126.4
			S260.7,571.8,191,571.8z"/>
		<path class="st0" d="M260.6,421l-38.9-5.9c-2.6-0.4-4.9-2.1-6.1-4.6l-17.4-36.9c-3-6.3-11.5-6.3-14.5,0l-17.4,36.9
			c-1.2,2.5-3.4,4.2-6.1,4.6l-38.9,5.9c-6.6,1-9.3,9.5-4.5,14.4l28.2,28.7c1.9,1.9,2.8,4.7,2.3,7.5l-6.6,40.5
			c-1.1,6.9,5.8,12.1,11.7,8.9l34.8-19.1c2.3-1.3,5.2-1.3,7.5,0l34.8,19.1c5.9,3.3,12.8-2,11.7-8.9l-6.6-40.5
			c-0.4-2.7,0.4-5.5,2.3-7.5l28.2-28.7C269.8,430.5,267.2,422,260.6,421z"/>
	</g>
	<path class="st1" d="M564.5,150c31.2-1.1,58.6-23.6,64.7-55.5c7.1-37.1-17.3-73-54.4-80.1c-37.1-7.1-73,17.3-80.1,54.4
		c-2.5,13-1.1,25.8,3.4,37.4c-2.3-0.6-4.6-1.1-6.9-1.5c-65.3-12.5-128.6,30.5-141,95.8s30.5,128.6,95.8,141s128.6-30.5,141-95.8
		C593.8,210.7,584.6,176.3,564.5,150z M571.2,33.6c26.5,5.1,43.9,30.7,38.9,57.2c-5.1,26.5-30.7,43.9-57.2,38.9
		c-26.5-5.1-43.9-30.7-38.9-57.2C519.1,46,544.7,28.6,571.2,33.6z M487.6,123.8c21.5,4.1,40.1,14.8,54.1,29.5
		c-13.3,12.2-32.6,16.2-47.4,17.2c-32,2.3-70.5-7.3-93.5-22.3C423.5,127.7,455.3,117.7,487.6,123.8z M449.7,322.3
		c-54.7-10.4-90.7-63.5-80.3-118.2c2.9-15.4,9.3-29.4,18.1-41.2c15.9,11.1,38,19.7,61.4,24.1c15.5,3,31.6,4.1,46.8,3
		c24.3-1.7,44.1-9,58.1-21.3c13.4,21,19.1,46.9,14.1,73.2C557.5,296.7,504.5,332.7,449.7,322.3z"/>
	
		<ellipse transform="matrix(1.629458e-02 -0.9999 0.9999 1.629458e-02 190.6421 627.2393)" class="st1" cx="414.1" cy="216.7" rx="16.3" ry="16.3"/>
	
		<ellipse transform="matrix(1.629452e-02 -0.9999 0.9999 1.629452e-02 249.8139 697.5263)" class="st1" cx="479.4" cy="221.8" rx="16.3" ry="16.3"/>
	<path class="st1" d="M449.5,284.6c-13.5,0-26.5-5.7-37.1-17c-2.6-2.7-2.5-7.1,0.3-9.7c2.7-2.6,7.1-2.5,9.7,0.3
		c16,16.9,37.2,17.1,56.8,0.4c2.9-2.4,7.2-2.1,9.6,0.8c2.4,2.9,2.1,7.2-0.8,9.6C475.7,279.4,462.4,284.6,449.5,284.6z"/>
	<g>
		<path class="st1" d="M147.6,330.4c4.1,0,7.5-3.4,7.5-7.5v-1.7c0-4.1,0-84,0-84c0-34,11-61.2,32.8-80.7
			c26.7-23.9,65.2-32.5,92.8-35.5c30.5-3.3,54.8-0.7,55-0.7c4.1,0.5,7.8-2.5,8.3-6.6c0.5-4.1-2.5-7.8-6.6-8.3
			c-0.6-0.1-10.3-1.1-25-1.1c-9.3,0-20.6,0.4-32.9,1.7c-42.9,4.6-78,18.1-101.6,39.2c-25.1,22.5-37.8,53.4-37.8,91.9v85.7
			C140.1,327,143.5,330.4,147.6,330.4z"/>
		<path class="st1" d="M168.6,252.4c-4.1,0-7.5,3.4-7.5,7.5v84c0,4.1,3.4,7.5,7.5,7.5s7.5-3.4,7.5-7.5v-84
			C176.1,255.7,172.8,252.4,168.6,252.4z"/>
		<path class="st1" d="M189.6,252.4c-4.1,0-7.5,3.4-7.5,7.5v84c0,4.1,3.4,7.5,7.5,7.5s7.5-3.4,7.5-7.5v-84
			C197.1,255.7,193.8,252.4,189.6,252.4z"/>
		<path class="st1" d="M231.6,252.4c-4.1,0-7.5,3.4-7.5,7.5v42c0,4.1,3.4,7.5,7.5,7.5s7.5-3.4,7.5-7.5v-42
			C239.1,255.7,235.8,252.4,231.6,252.4z"/>
		<path class="st1" d="M210.6,252.4c-4.1,0-7.5,3.4-7.5,7.5v84c0,4.1,3.4,7.5,7.5,7.5s7.5-3.4,7.5-7.5v-84
			C218.1,255.7,214.8,252.4,210.6,252.4z"/>
	</g>
</g>
</svg>
