<?xml version="1.0" encoding="utf-8"?>
<!-- Generator: Adobe Illustrator 25.2.3, SVG Export Plug-In . SVG Version: 6.00 Build 0)  -->
<svg version="1.1" id="Layer_1" xmlns="http://www.w3.org/2000/svg" xmlns:xlink="http://www.w3.org/1999/xlink" x="0px" y="0px"
	 viewBox="0 0 680 600" style="enable-background:new 0 0 680 600;" xml:space="preserve">
<style type="text/css">
	.st0{fill:#D695C0;}
</style>
<g>
	<path class="st0" d="M340,158.6c-78,0-141.4,63.4-141.4,141.4S262,441.4,340,441.4S481.4,378,481.4,300S417.9,158.6,340,158.6z
		 M340,426.4c-69.7,0-126.4-56.7-126.4-126.4S270.2,173.6,340,173.6S466.4,230.3,466.4,300S409.7,426.4,340,426.4z"/>
	<path class="st0" d="M409.6,275.6l-38.9-5.9c-2.6-0.4-4.9-2.1-6.1-4.6l-17.4-36.9c-3-6.3-11.5-6.3-14.5,0l-17.4,36.9
		c-1.2,2.5-3.4,4.2-6.1,4.6l-38.9,5.9c-6.6,1-9.3,9.5-4.5,14.4l28.2,28.7c1.9,1.9,2.8,4.7,2.3,7.5l-6.6,40.5
		c-1.1,6.9,5.8,12.1,11.7,8.9l34.8-19.1c2.3-1.3,5.2-1.3,7.5,0l34.8,19.1c5.9,3.3,12.8-2,11.7-8.9l-6.6-40.5
		c-0.4-2.7,0.4-5.5,2.3-7.5l28.2-28.7C418.8,285.1,416.2,276.6,409.6,275.6z"/>
</g>
</svg>
