<?xml version="1.0" encoding="utf-8"?>
<!-- Generator: Adobe Illustrator 25.2.3, SVG Export Plug-In . SVG Version: 6.00 Build 0)  -->
<svg version="1.1" id="Layer_1" xmlns="http://www.w3.org/2000/svg" xmlns:xlink="http://www.w3.org/1999/xlink" x="0px" y="0px"
	 viewBox="0 0 680 600" style="enable-background:new 0 0 680 600;" xml:space="preserve">
<style type="text/css">
	.st0{fill:#D695C0;}
	.st1{fill:#785089;}
</style>
<g>
	<path class="st0" d="M526,38.9c-78,0-141.4,63.4-141.4,141.4c0,78,63.4,141.4,141.4,141.4c78,0,141.4-63.4,141.4-141.4
		C667.4,102.3,604,38.9,526,38.9z M569.6,206.5l6.6,40.5c1.1,6.9-5.8,12.1-11.7,8.9l-34.8-19.1c-2.3-1.3-5.2-1.3-7.5,0l-34.8,19.1
		c-5.9,3.3-12.8-2-11.7-8.9l6.6-40.5c0.4-2.7-0.4-5.5-2.3-7.5l-28.2-28.7c-4.8-4.9-2.1-13.4,4.5-14.4l38.9-5.9
		c2.6-0.4,4.9-2.1,6.1-4.6l17.4-36.9c3-6.3,11.5-6.3,14.5,0l17.4,36.9c1.2,2.5,3.4,4.2,6.1,4.6l38.9,5.9c6.6,1,9.3,9.5,4.5,14.4
		L571.9,199C570,200.9,569.1,203.7,569.6,206.5z"/>
	<path class="st1" d="M401.1,366.2c4.4-28.8-14.4-56.5-43.3-62.6c-5.5-1.2-11.2-1.5-16.8-1c-5.8-19.1-21.4-33.8-41.5-38.1
		c-7.9-1.7-15.9-1.6-23.7,0.1c-7.9-12.5-21.5-20.8-36.6-21.8c-19.4-1.3-36.9,9.2-45.2,26c-30.6-7.9-61.2,11.6-67.7,42.2
		c-0.7,3.4-2.2,7.1-3.4,9.4c-35.3-5-69,18.2-76.6,53.5c-2.6,12.1,0.9,27.3,5.4,40.8c-16.6,2.8-30.7,15.5-34.4,33
		c-4.9,22.9,9.8,45.4,32.6,50.2c11.3,2.4,22.7,0.1,32-6.1c7.9,10,19,16.9,31.8,19.6c14.4,3.1,29.2,0.2,41.4-7.6
		c16.9,22.1,41.4,38.5,70.7,44.7c60,12.7,119.2-21.7,138.9-78.2c3.3,1.4,6.7,2.5,10.3,3.3c29.9,6.3,59.4-12.8,65.7-42.7
		C446.8,402.3,429.2,373.8,401.1,366.2z M229.9,529.6c-54.5-11.6-89.4-65.3-77.8-119.8s65.3-89.4,119.8-77.8
		c54.5,11.6,89.4,65.3,77.8,119.8c0,0.1-0.1,0.3-0.1,0.4l0,0c-0.1,0.5-0.3,0.9-0.4,1.4l-0.9,3.8
		C334.4,508.6,282.5,540.8,229.9,529.6z M379,454.7c-3.3-0.7-6.4-1.8-9.4-3.4c11-63.4-30.3-124.9-93.8-138.4
		c-65-13.8-129.2,27.9-143,92.9c-6.1,28.9-1.3,57.6,11.7,81.9c-7.9,5-17.4,6.9-26.7,4.9c-11-2.3-20-9.5-24.9-19.7l-6.7-14l-9.8,12.1
		c-5.5,6.8-14.1,9.9-22.4,8.1c-12.3-2.6-20.2-14.8-17.6-27.1c2.6-12.3,14.8-20.2,27.1-17.6l5.7,1.2l3.8-4.4
		c3.9-4.5,2.2-8.9,0.5-13.6c-2.6-6.9-10.4-28-8-39.5c5.6-26.4,31.6-43.3,58-37.7c15.8,3.3,21.8-24.1,22-25.3
		c4.1-19.3,23.2-31.7,42.5-27.6c2.6,0.6,5.2,1.4,7.8,2.7l11,5.2l2.7-11.8c3-13.1,15-22,28.5-21.1c10.6,0.7,19.9,7.6,23.7,17.6
		l3.6,9.3l9.2-3.8c6.6-2.7,13.9-3.3,20.9-1.8c15.3,3.2,26.6,15.8,28.2,31.4l1.2,11.7l11.3-3.4c5.7-1.7,11.8-1.9,17.6-0.7
		c19.3,4.1,31.7,23.2,27.6,42.5c-1.6,7.6,5,17.7,12.6,19.3c19.3,4.1,31.7,23.2,27.6,42.5C417.4,446.4,398.4,458.8,379,454.7z"/>
	
		<ellipse transform="matrix(0.5662 -0.8242 0.8242 0.5662 -242.7988 366.9412)" class="st1" cx="227.2" cy="414.2" rx="16.3" ry="16.3"/>
	
		<ellipse transform="matrix(0.8386 -0.5448 0.5448 0.8386 -178.6494 226.9968)" class="st1" cx="293.7" cy="414.9" rx="16.3" ry="16.3"/>
	<g>
		<path class="st1" d="M566.8,289.7c-4.1,0-7.5,3.4-7.5,7.5v1.7c0,4.1,0,84,0,84c0,34-11,61.2-32.8,80.7
			c-26.7,23.9-65.2,32.5-92.8,35.5c-30.5,3.3-54.8,0.7-55,0.7c-4.1-0.5-7.8,2.5-8.3,6.6c-0.5,4.1,2.5,7.8,6.6,8.3
			c0.6,0.1,10.3,1.1,25,1.1c9.3,0,20.6-0.4,32.9-1.7c42.9-4.6,78-18.1,101.6-39.2c25.1-22.5,37.8-53.4,37.8-91.9v-85.7
			C574.3,293.1,570.9,289.7,566.8,289.7z"/>
		<path class="st1" d="M545.8,367.7c4.1,0,7.5-3.4,7.5-7.5v-84c0-4.1-3.4-7.5-7.5-7.5s-7.5,3.4-7.5,7.5v84
			C538.3,364.4,541.6,367.7,545.8,367.7z"/>
		<path class="st1" d="M524.8,367.7c4.1,0,7.5-3.4,7.5-7.5v-84c0-4.1-3.4-7.5-7.5-7.5s-7.5,3.4-7.5,7.5v84
			C517.3,364.4,520.6,367.7,524.8,367.7z"/>
		<path class="st1" d="M482.8,367.7c4.1,0,7.5-3.4,7.5-7.5v-42c0-4.1-3.4-7.5-7.5-7.5s-7.5,3.4-7.5,7.5v42
			C475.3,364.4,478.6,367.7,482.8,367.7z"/>
		<path class="st1" d="M503.8,367.7c4.1,0,7.5-3.4,7.5-7.5v-84c0-4.1-3.4-7.5-7.5-7.5s-7.5,3.4-7.5,7.5v84
			C496.3,364.4,499.6,367.7,503.8,367.7z"/>
	</g>
	<path class="st1" d="M259.8,477.4c-13.5,0-26.5-5.7-37.1-17c-2.6-2.7-2.5-7.1,0.3-9.7c2.7-2.6,7.1-2.5,9.7,0.3
		c16,16.9,37.2,17.1,56.8,0.4c2.9-2.4,7.2-2.1,9.6,0.8c2.4,2.9,2.1,7.2-0.8,9.6C286,472.2,272.7,477.4,259.8,477.4z"/>
</g>
</svg>
