<?xml version="1.0" encoding="utf-8"?>
<!-- Generator: Adobe Illustrator 25.2.3, SVG Export Plug-In . SVG Version: 6.00 Build 0)  -->
<svg version="1.1" id="Layer_1" xmlns="http://www.w3.org/2000/svg" xmlns:xlink="http://www.w3.org/1999/xlink" x="0px" y="0px"
	 viewBox="0 0 120 200" style="enable-background:new 0 0 120 200;" xml:space="preserve">
<style type="text/css">
	.st0{fill:#BEA3CC;}
	.st1{fill:#FFFFFF;}
	.st2{fill:#442856;}
	.st3{fill:#D695C0;}
</style>
<path class="st0" d="M115,38H5c-2.8,0-5-2.2-5-5v-6c0-2.8,2.2-5,5-5h110c2.8,0,5,2.2,5,5v6C120,35.8,117.8,38,115,38z"/>
<g>
	<path class="st1" d="M49.3,10.6l1.6-4.4h0.3l1.6,4.4h-0.3L52,9.2h-1.9l-0.5,1.4H49.3z M50.2,9H52l-0.9-2.5L50.2,9z"/>
	<path class="st1" d="M54.3,10.6c-0.2,0-0.3,0-0.4-0.1c-0.1-0.1-0.2-0.2-0.3-0.3c-0.1-0.1-0.1-0.4-0.1-0.6V6h0.2v3.5
		c0,0.2,0,0.4,0.1,0.5c0,0.1,0.1,0.2,0.2,0.2s0.2,0.1,0.3,0.1l0.4,0v0.2H54.3z"/>
	<path class="st1" d="M55.8,10.7c-0.2,0-0.4-0.1-0.6-0.2c-0.2-0.1-0.2-0.3-0.2-0.6V9.7c0-0.3,0.1-0.5,0.2-0.6
		c0.2-0.2,0.4-0.2,0.7-0.2h1.2V8.3c0-0.2,0-0.3-0.1-0.4c-0.1-0.1-0.1-0.2-0.3-0.3c-0.1-0.1-0.3-0.1-0.6-0.1h-1V7.4
		c0.1,0,0.3,0,0.5,0c0.2,0,0.4,0,0.6,0c0.3,0,0.5,0,0.6,0.1c0.2,0.1,0.3,0.2,0.4,0.3c0.1,0.1,0.1,0.3,0.1,0.5v2.3h-0.2l-0.1-0.4
		c0,0-0.1,0-0.1,0.1s-0.2,0.1-0.3,0.1c-0.1,0.1-0.3,0.1-0.5,0.1C56.1,10.6,56,10.7,55.8,10.7z M55.9,10.5c0.1,0,0.2,0,0.3,0
		c0.1,0,0.2-0.1,0.4-0.1s0.2-0.1,0.3-0.1c0.1,0,0.2-0.1,0.3-0.1V9L56,9c-0.3,0-0.5,0.1-0.6,0.2c-0.1,0.1-0.2,0.3-0.2,0.5v0.2
		c0,0.2,0,0.3,0.1,0.4c0.1,0.1,0.1,0.2,0.2,0.2C55.7,10.4,55.8,10.4,55.9,10.5z"/>
	<path class="st1" d="M59.6,10.7c-0.2,0-0.3,0-0.5-0.1c-0.2,0-0.3-0.1-0.4-0.2c-0.1-0.1-0.2-0.3-0.3-0.5c-0.1-0.2-0.1-0.5-0.1-0.8
		s0-0.6,0.1-0.8c0.1-0.2,0.1-0.4,0.3-0.5c0.1-0.1,0.2-0.2,0.4-0.2c0.2,0,0.3-0.1,0.5-0.1c0.1,0,0.3,0,0.5,0c0.2,0,0.4,0,0.5,0v0.2
		h-1c-0.2,0-0.4,0-0.6,0.1s-0.3,0.2-0.4,0.4S58.6,8.7,58.6,9c0,0.4,0,0.7,0.1,0.9c0.1,0.2,0.2,0.3,0.4,0.4c0.2,0.1,0.3,0.1,0.5,0.1
		h1v0.2c-0.1,0-0.2,0-0.3,0s-0.2,0-0.4,0S59.8,10.7,59.6,10.7z"/>
	<path class="st1" d="M62.6,10.7c-0.3,0-0.6-0.1-0.8-0.2c-0.2-0.1-0.3-0.3-0.4-0.5s-0.1-0.6-0.1-1c0-0.4,0-0.7,0.1-1
		c0.1-0.2,0.2-0.4,0.4-0.5c0.2-0.1,0.4-0.1,0.8-0.1c0.3,0,0.5,0,0.7,0.1c0.2,0.1,0.3,0.2,0.4,0.3c0.1,0.2,0.1,0.4,0.1,0.6
		c0,0.2,0,0.3-0.1,0.4C63.6,9,63.5,9,63.4,9.1s-0.3,0.1-0.5,0.1h-1.4c0,0.3,0,0.6,0.1,0.8c0.1,0.2,0.2,0.3,0.3,0.4s0.4,0.1,0.7,0.1
		h1.1v0.2c-0.2,0-0.4,0-0.5,0C63,10.7,62.8,10.7,62.6,10.7z M61.6,9h1.4c0.2,0,0.4,0,0.5-0.1c0.1-0.1,0.2-0.2,0.2-0.4
		c0-0.2,0-0.4-0.1-0.5c-0.1-0.1-0.2-0.2-0.3-0.3c-0.1,0-0.3-0.1-0.5-0.1c-0.3,0-0.5,0-0.6,0.1c-0.2,0.1-0.3,0.2-0.3,0.4
		C61.6,8.3,61.6,8.6,61.6,9z"/>
	<path class="st1" d="M64.7,10.6V7.4h0.2l0.1,0.4c0.2-0.1,0.4-0.2,0.6-0.3s0.4-0.1,0.7-0.1c0.2,0,0.4,0,0.5,0.1
		c0.1,0.1,0.3,0.2,0.3,0.4c0.1,0.2,0.1,0.3,0.1,0.5v2.2h-0.2V8.4c0-0.2,0-0.3-0.1-0.4c-0.1-0.1-0.2-0.2-0.3-0.3
		c-0.1-0.1-0.3-0.1-0.4-0.1c-0.2,0-0.3,0-0.4,0c-0.1,0-0.3,0.1-0.4,0.1c-0.1,0.1-0.3,0.1-0.4,0.2v2.7H64.7z"/>
	<path class="st1" d="M68.8,10.7c-0.2,0-0.4-0.1-0.6-0.2c-0.2-0.1-0.2-0.3-0.2-0.6V9.7c0-0.3,0.1-0.5,0.2-0.6
		c0.2-0.2,0.4-0.2,0.7-0.2h1.2V8.3c0-0.2,0-0.3-0.1-0.4c-0.1-0.1-0.1-0.2-0.3-0.3c-0.1-0.1-0.3-0.1-0.6-0.1h-1V7.4
		c0.1,0,0.3,0,0.5,0c0.2,0,0.4,0,0.6,0c0.3,0,0.5,0,0.6,0.1c0.2,0.1,0.3,0.2,0.4,0.3c0.1,0.1,0.1,0.3,0.1,0.5v2.3h-0.2l-0.1-0.4
		c0,0-0.1,0-0.1,0.1s-0.2,0.1-0.3,0.1c-0.1,0.1-0.3,0.1-0.5,0.1C69.1,10.6,68.9,10.7,68.8,10.7z M68.8,10.5c0.1,0,0.2,0,0.3,0
		c0.1,0,0.2-0.1,0.4-0.1s0.2-0.1,0.3-0.1c0.1,0,0.2-0.1,0.3-0.1V9L69,9c-0.3,0-0.5,0.1-0.6,0.2c-0.1,0.1-0.2,0.3-0.2,0.5v0.2
		c0,0.2,0,0.3,0.1,0.4c0.1,0.1,0.1,0.2,0.2,0.2C68.7,10.4,68.8,10.4,68.8,10.5z"/>
</g>
<g>
	<path class="st2" d="M37.6,32.3l0.2-1.1H37l0.1-0.8H38l0.1-0.5h-0.9l0.1-0.8h0.9l0.2-1.1h0.8l-0.2,1.1h0.5l0.2-1.1h0.8l-0.2,1.1h1
		l-0.1,0.8h-1l-0.1,0.5h1l-0.1,0.8H40l-0.2,1.1H39l0.2-1.1h-0.5l-0.2,1.1H37.6z M38.8,30.4h0.6l0.1-0.5h-0.6L38.8,30.4z"/>
	<path class="st2" d="M42.9,32.4c-0.3,0-0.5,0-0.7-0.1c-0.2-0.1-0.3-0.2-0.4-0.4c-0.1-0.2-0.1-0.4-0.1-0.7v-2c0-0.3,0-0.5,0.1-0.7
		s0.2-0.3,0.4-0.4c0.2-0.1,0.4-0.1,0.7-0.1h1c0.3,0,0.5,0,0.6,0.1c0.2,0.1,0.3,0.2,0.4,0.4s0.1,0.4,0.1,0.7v2c0,0.4-0.1,0.7-0.3,0.9
		s-0.5,0.3-0.9,0.3H42.9z M43.2,31.3h0.4c0.1,0,0.2,0,0.2-0.1c0.1-0.1,0.1-0.1,0.1-0.3v-1.7c0-0.1,0-0.2-0.1-0.3
		c-0.1,0-0.1-0.1-0.2-0.1h-0.5c-0.1,0-0.2,0-0.2,0.1c0,0.1-0.1,0.1-0.1,0.3V31c0,0.1,0,0.2,0.1,0.3C43,31.3,43.1,31.3,43.2,31.3z"/>
	<path class="st2" d="M46.7,32.4c-0.3,0-0.5,0-0.7-0.1c-0.2-0.1-0.3-0.2-0.4-0.4c-0.1-0.2-0.1-0.4-0.1-0.7v-2c0-0.3,0-0.5,0.1-0.7
		s0.2-0.3,0.4-0.4c0.2-0.1,0.4-0.1,0.7-0.1h1c0.3,0,0.5,0,0.6,0.1c0.2,0.1,0.3,0.2,0.4,0.4s0.1,0.4,0.1,0.7v2c0,0.4-0.1,0.7-0.3,0.9
		s-0.5,0.3-0.9,0.3H46.7z M47,31.3h0.4c0.1,0,0.2,0,0.2-0.1c0.1-0.1,0.1-0.1,0.1-0.3v-1.7c0-0.1,0-0.2-0.1-0.3
		c-0.1,0-0.1-0.1-0.2-0.1H47c-0.1,0-0.2,0-0.2,0.1c0,0.1-0.1,0.1-0.1,0.3V31c0,0.1,0,0.2,0.1,0.3C46.8,31.3,46.9,31.3,47,31.3z"/>
	<path class="st2" d="M50,32.3v-3.4h-0.7v-0.7l0.8-0.4h1v4.5H50z"/>
	<path class="st2" d="M53,31.1v-0.9h1.9v0.9H53z"/>
	<path class="st2" d="M56.9,32.3v-4.5h2c0.2,0,0.3,0,0.5,0.1s0.3,0.1,0.4,0.2c0.1,0.1,0.2,0.3,0.3,0.5s0.1,0.5,0.1,0.9
		c0,0.4,0,0.6-0.1,0.9c-0.1,0.2-0.2,0.4-0.3,0.5s-0.3,0.2-0.4,0.2s-0.3,0.1-0.4,0.1c-0.1,0-0.2,0-0.2,0c-0.1,0-0.2,0-0.2,0
		c-0.1,0-0.2,0-0.2,0c-0.1,0-0.1,0-0.2,0v1.3H56.9z M58,30.1h0.7c0.1,0,0.1,0,0.2-0.1c0,0,0.1-0.1,0.1-0.2c0-0.1,0-0.2,0-0.3
		c0-0.1,0-0.2,0-0.3c0-0.1-0.1-0.1-0.1-0.2s-0.1-0.1-0.2-0.1H58V30.1z"/>
	<path class="st2" d="M62,32.4c-0.3,0-0.5,0-0.7-0.1c-0.2-0.1-0.4-0.2-0.5-0.3c-0.1-0.1-0.2-0.3-0.3-0.5s-0.1-0.5-0.1-0.8
		c0-0.3,0-0.6,0.1-0.8c0.1-0.2,0.1-0.4,0.3-0.5c0.1-0.1,0.3-0.2,0.5-0.3S61.7,29,62,29c0.3,0,0.5,0,0.7,0.1c0.2,0.1,0.4,0.1,0.5,0.3
		s0.2,0.3,0.3,0.5c0.1,0.2,0.1,0.5,0.1,0.8c0,0.3,0,0.6-0.1,0.8c-0.1,0.2-0.1,0.4-0.3,0.5c-0.1,0.1-0.3,0.2-0.5,0.3
		C62.5,32.3,62.3,32.4,62,32.4z M62,31.4c0.1,0,0.1,0,0.2,0s0.1,0,0.1-0.1c0,0,0-0.1,0.1-0.2c0-0.1,0-0.2,0-0.4s0-0.3,0-0.4
		c0-0.1,0-0.2-0.1-0.2c0,0-0.1-0.1-0.1-0.1c0,0-0.1,0-0.2,0s-0.1,0-0.2,0c0,0-0.1,0-0.1,0.1s0,0.1-0.1,0.2c0,0.1,0,0.2,0,0.4
		s0,0.3,0,0.4c0,0.1,0,0.2,0.1,0.2s0.1,0.1,0.1,0.1S61.9,31.4,62,31.4z"/>
	<path class="st2" d="M66,32.4c-0.1,0-0.3,0-0.4,0c-0.1,0-0.2-0.1-0.3-0.1s-0.2-0.1-0.2-0.2L65,32.3h-1v-4.6h1.2v1.5
		c0.1-0.1,0.2-0.1,0.4-0.2c0.1,0,0.3-0.1,0.4-0.1c0.3,0,0.5,0.1,0.7,0.2c0.2,0.1,0.3,0.3,0.4,0.6s0.1,0.6,0.1,1c0,0.4,0,0.7-0.1,0.9
		c-0.1,0.2-0.2,0.4-0.4,0.5S66.2,32.4,66,32.4z M65.5,31.4c0.1,0,0.1,0,0.2,0s0.1-0.1,0.1-0.2c0-0.1,0.1-0.3,0.1-0.5
		c0-0.2,0-0.4-0.1-0.5S65.8,30,65.7,30c-0.1,0-0.1,0-0.2,0c-0.1,0-0.2,0-0.2,0c-0.1,0-0.1,0.1-0.2,0.1v1.2c0,0,0.1,0,0.2,0.1
		C65.4,31.4,65.4,31.4,65.5,31.4z"/>
	<path class="st2" d="M68.6,32.4c-0.3,0-0.5,0-0.6-0.1s-0.3-0.2-0.4-0.4s-0.1-0.4-0.1-0.6v-3.5h1.2v3.3c0,0.1,0,0.1,0,0.2
		c0,0.1,0,0.1,0.1,0.1s0.1,0,0.1,0.1l0.2,0v0.8H68.6z"/>
	<path class="st2" d="M70.9,32.4c-0.4,0-0.7,0-0.9-0.1c-0.2-0.1-0.4-0.3-0.5-0.5c-0.1-0.2-0.2-0.6-0.2-1c0-0.4,0-0.8,0.1-1
		c0.1-0.2,0.2-0.4,0.5-0.5c0.2-0.1,0.5-0.1,0.9-0.1c0.3,0,0.6,0,0.8,0.1c0.2,0.1,0.3,0.2,0.4,0.3c0.1,0.2,0.1,0.4,0.1,0.7
		c0,0.2,0,0.4-0.1,0.6C72,30.9,71.9,31,71.7,31c-0.2,0.1-0.4,0.1-0.6,0.1h-0.6c0,0.1,0,0.2,0.1,0.2c0,0.1,0.1,0.1,0.2,0.1
		c0.1,0,0.2,0,0.4,0h0.9v0.7c-0.1,0-0.3,0.1-0.5,0.1C71.4,32.3,71.2,32.4,70.9,32.4z M70.5,30.4H71c0.1,0,0.1,0,0.2-0.1
		s0.1-0.1,0.1-0.2c0-0.1,0-0.1,0-0.2c0,0-0.1-0.1-0.1-0.1c-0.1,0-0.1,0-0.2,0c-0.1,0-0.1,0-0.2,0s-0.1,0.1-0.1,0.2
		C70.5,30.2,70.5,30.3,70.5,30.4z"/>
	<path class="st2" d="M72.7,32.3v-3.2h1l0.2,0.3c0.1-0.1,0.2-0.2,0.4-0.3s0.3-0.1,0.5-0.1c0.3,0,0.5,0.1,0.6,0.2
		c0.1,0.1,0.2,0.2,0.3,0.4c0.1,0.2,0.1,0.4,0.1,0.6v2.1h-1.2v-1.9c0-0.1,0-0.1,0-0.2c0,0-0.1-0.1-0.1-0.1c0,0-0.1,0-0.2,0
		c-0.1,0-0.1,0-0.2,0c-0.1,0-0.1,0-0.2,0.1c0,0-0.1,0.1-0.1,0.1v2.1H72.7z"/>
	<path class="st2" d="M77.7,32.4c-0.3,0-0.5,0-0.7-0.1c-0.2-0.1-0.4-0.2-0.5-0.3c-0.1-0.1-0.2-0.3-0.3-0.5s-0.1-0.5-0.1-0.8
		c0-0.3,0-0.6,0.1-0.8c0.1-0.2,0.1-0.4,0.3-0.5c0.1-0.1,0.3-0.2,0.5-0.3s0.4-0.1,0.7-0.1c0.3,0,0.5,0,0.7,0.1
		c0.2,0.1,0.4,0.1,0.5,0.3s0.2,0.3,0.3,0.5c0.1,0.2,0.1,0.5,0.1,0.8c0,0.3,0,0.6-0.1,0.8c-0.1,0.2-0.1,0.4-0.3,0.5
		c-0.1,0.1-0.3,0.2-0.5,0.3C78.3,32.3,78,32.4,77.7,32.4z M77.7,31.4c0.1,0,0.1,0,0.2,0s0.1,0,0.1-0.1c0,0,0-0.1,0.1-0.2
		c0-0.1,0-0.2,0-0.4s0-0.3,0-0.4c0-0.1,0-0.2-0.1-0.2c0,0-0.1-0.1-0.1-0.1c0,0-0.1,0-0.2,0s-0.1,0-0.2,0c0,0-0.1,0-0.1,0.1
		s0,0.1-0.1,0.2c0,0.1,0,0.2,0,0.4s0,0.3,0,0.4c0,0.1,0,0.2,0.1,0.2s0.1,0.1,0.1,0.1S77.7,31.4,77.7,31.4z"/>
	<path class="st2" d="M80.6,32.4c-0.3,0-0.5-0.1-0.7-0.3c-0.2-0.2-0.2-0.4-0.2-0.7v-2.3h1.2V31c0,0.1,0,0.2,0.1,0.2
		c0.1,0,0.1,0.1,0.2,0.1c0.1,0,0.1,0,0.2-0.1s0.2-0.1,0.2-0.1v-2.1h1.2v3.2h-1L81.6,32c-0.1,0.1-0.3,0.2-0.5,0.2
		C81,32.3,80.8,32.4,80.6,32.4z"/>
</g>
<path class="st0" d="M51,86H5c-2.8,0-5-2.2-5-5v-6c0-2.8,2.2-5,5-5h46c2.8,0,5,2.2,5,5v6C56,83.8,53.8,86,51,86z"/>
<g>
	<path class="st1" d="M49.9,58.7c-0.2,0-0.5,0-0.7-0.1c-0.2,0-0.4-0.1-0.5-0.2c-0.1-0.1-0.2-0.2-0.3-0.4c-0.1-0.2-0.1-0.4-0.1-0.7
		v-3.1h0.2v3.1c0,0.3,0.1,0.5,0.2,0.7c0.1,0.2,0.3,0.3,0.5,0.3c0.2,0.1,0.4,0.1,0.7,0.1c0.3,0,0.5,0,0.7-0.1
		c0.2-0.1,0.3-0.2,0.5-0.3c0.1-0.2,0.2-0.4,0.2-0.7v-3.1h0.2v3.1c0,0.3,0,0.5-0.1,0.7c-0.1,0.2-0.2,0.3-0.3,0.4
		c-0.1,0.1-0.3,0.2-0.5,0.2S50.2,58.7,49.9,58.7z"/>
	<path class="st1" d="M52.5,58.6v-3.2h0.2l0.1,0.6c0.2-0.2,0.3-0.3,0.5-0.5s0.4-0.2,0.7-0.2c0.1,0,0.1,0,0.2,0s0.1,0,0.1,0v0.2
		c0,0-0.1,0-0.2,0s-0.1,0-0.2,0c-0.2,0-0.3,0-0.4,0.1s-0.2,0.1-0.4,0.2c-0.1,0.1-0.2,0.2-0.4,0.3v2.4H52.5z"/>
	<path class="st1" d="M55.7,60.1c-0.2,0-0.4,0-0.5-0.1c-0.2-0.1-0.3-0.1-0.4-0.3c-0.1-0.1-0.1-0.3-0.1-0.5v-0.2
		c0-0.2,0.1-0.4,0.2-0.5c0.1-0.1,0.2-0.2,0.4-0.3c0.2-0.1,0.3-0.1,0.5-0.1l0,0.1c-0.1,0-0.3,0-0.4,0.1s-0.2,0.1-0.3,0.2
		c-0.1,0.1-0.1,0.2-0.1,0.4v0.2c0,0.2,0.1,0.4,0.2,0.5c0.2,0.1,0.4,0.1,0.6,0.1h0.8c0.3,0,0.5-0.1,0.7-0.2c0.2-0.1,0.2-0.3,0.2-0.5
		v-0.1c0-0.1,0-0.2-0.1-0.3c-0.1-0.1-0.1-0.2-0.3-0.2s-0.3-0.1-0.5-0.1h-1.1c-0.2,0-0.3,0-0.5-0.1c-0.1-0.1-0.2-0.2-0.2-0.4
		s0-0.3,0.1-0.4c0.1-0.1,0.2-0.1,0.4-0.2c-0.2-0.1-0.3-0.1-0.4-0.2c-0.1-0.1-0.1-0.2-0.2-0.3s-0.1-0.2-0.1-0.4
		c0-0.3,0.1-0.5,0.2-0.6c0.1-0.1,0.2-0.3,0.4-0.3c0.2-0.1,0.4-0.1,0.6-0.1h1.7v0.2l-0.9,0c0.1,0,0.1,0.1,0.2,0.1
		c0.1,0.1,0.1,0.1,0.2,0.3c0.1,0.1,0.1,0.3,0.1,0.5c0,0.2,0,0.3-0.1,0.5c-0.1,0.1-0.2,0.3-0.3,0.4c-0.2,0.1-0.4,0.1-0.7,0.1h-0.5
		c-0.2,0-0.4,0-0.5,0.1s-0.2,0.2-0.2,0.3c0,0.1,0,0.2,0.1,0.2c0.1,0.1,0.2,0.1,0.2,0.1h1.2c0.2,0,0.4,0,0.6,0.1
		c0.2,0.1,0.3,0.2,0.3,0.3s0.1,0.3,0.1,0.5v0.2c0,0.3-0.1,0.5-0.3,0.7c-0.2,0.2-0.5,0.2-0.9,0.2H55.7z M55.8,57.3h0.4
		c0.2,0,0.4,0,0.6-0.1S57,57,57,56.9s0.1-0.2,0.1-0.4c0-0.2,0-0.4-0.1-0.5s-0.2-0.2-0.3-0.3s-0.3-0.1-0.4-0.1h-0.3
		c-0.3,0-0.5,0.1-0.6,0.2S55,56.2,55,56.5c0,0.3,0.1,0.5,0.2,0.6C55.4,57.2,55.6,57.3,55.8,57.3z"/>
	<path class="st1" d="M59.5,58.7c-0.3,0-0.6-0.1-0.8-0.2c-0.2-0.1-0.3-0.3-0.4-0.5s-0.1-0.6-0.1-1c0-0.4,0-0.7,0.1-1
		c0.1-0.2,0.2-0.4,0.4-0.5c0.2-0.1,0.4-0.1,0.8-0.1c0.3,0,0.5,0,0.7,0.1c0.2,0.1,0.3,0.2,0.4,0.3c0.1,0.2,0.1,0.4,0.1,0.6
		c0,0.2,0,0.3-0.1,0.4c-0.1,0.1-0.2,0.2-0.3,0.2s-0.3,0.1-0.5,0.1h-1.4c0,0.3,0,0.6,0.1,0.8c0.1,0.2,0.2,0.3,0.3,0.4
		s0.4,0.1,0.7,0.1h1.1v0.2c-0.2,0-0.4,0-0.5,0C59.9,58.7,59.7,58.7,59.5,58.7z M58.5,57h1.4c0.2,0,0.4,0,0.5-0.1
		c0.1-0.1,0.2-0.2,0.2-0.4c0-0.2,0-0.4-0.1-0.5c-0.1-0.1-0.2-0.2-0.3-0.3c-0.1,0-0.3-0.1-0.5-0.1c-0.3,0-0.5,0-0.6,0.1
		c-0.2,0.1-0.3,0.2-0.3,0.4C58.5,56.3,58.5,56.6,58.5,57z"/>
	<path class="st1" d="M61.6,58.6v-3.2h0.2l0.1,0.4c0.2-0.1,0.4-0.2,0.6-0.3s0.4-0.1,0.7-0.1c0.2,0,0.4,0,0.5,0.1
		c0.1,0.1,0.3,0.2,0.3,0.4c0.1,0.2,0.1,0.3,0.1,0.5v2.2h-0.2v-2.2c0-0.2,0-0.3-0.1-0.4c-0.1-0.1-0.2-0.2-0.3-0.3
		c-0.1-0.1-0.3-0.1-0.4-0.1c-0.2,0-0.3,0-0.4,0c-0.1,0-0.3,0.1-0.4,0.1c-0.1,0.1-0.3,0.1-0.4,0.2v2.7H61.6z"/>
	<path class="st1" d="M66.2,58.7c-0.2,0-0.3,0-0.5-0.1c-0.2,0-0.3-0.1-0.4-0.2c-0.1-0.1-0.2-0.3-0.3-0.5C65,57.6,65,57.4,65,57
		s0-0.6,0.1-0.8c0.1-0.2,0.1-0.4,0.3-0.5c0.1-0.1,0.2-0.2,0.4-0.2c0.2,0,0.3-0.1,0.5-0.1c0.1,0,0.3,0,0.5,0c0.2,0,0.4,0,0.5,0v0.2
		h-1c-0.2,0-0.4,0-0.6,0.1s-0.3,0.2-0.4,0.4s-0.1,0.5-0.1,0.9c0,0.4,0,0.7,0.1,0.9c0.1,0.2,0.2,0.3,0.4,0.4c0.2,0.1,0.3,0.1,0.5,0.1
		h1v0.2c-0.1,0-0.2,0-0.3,0s-0.2,0-0.4,0S66.4,58.7,66.2,58.7z"/>
	<path class="st1" d="M68.1,54.8C68,54.8,68,54.8,68.1,54.8L68,54.3c0-0.1,0-0.1,0.1-0.1h0.1c0,0,0,0,0.1,0c0,0,0,0,0,0.1v0.4
		c0,0.1,0,0.1-0.1,0.1H68.1z M68,58.6v-3.2h0.2v3.2H68z"/>
	<path class="st1" d="M69.9,58.7c-0.2,0-0.4-0.1-0.6-0.2c-0.2-0.1-0.2-0.3-0.2-0.6v-0.2c0-0.3,0.1-0.5,0.2-0.6
		c0.2-0.2,0.4-0.2,0.7-0.2h1.2v-0.5c0-0.2,0-0.3-0.1-0.4c-0.1-0.1-0.1-0.2-0.3-0.3c-0.1-0.1-0.3-0.1-0.6-0.1h-1v-0.2
		c0.1,0,0.3,0,0.5,0c0.2,0,0.4,0,0.6,0c0.3,0,0.5,0,0.6,0.1c0.2,0.1,0.3,0.2,0.4,0.3c0.1,0.1,0.1,0.3,0.1,0.5v2.3h-0.2l-0.1-0.4
		c0,0-0.1,0-0.1,0.1s-0.2,0.1-0.3,0.1c-0.1,0.1-0.3,0.1-0.5,0.1C70.2,58.6,70.1,58.7,69.9,58.7z M70,58.5c0.1,0,0.2,0,0.3,0
		c0.1,0,0.2-0.1,0.4-0.1s0.2-0.1,0.3-0.1c0.1,0,0.2-0.1,0.3-0.1V57l-1.2,0c-0.3,0-0.5,0.1-0.6,0.2c-0.1,0.1-0.2,0.3-0.2,0.5v0.2
		c0,0.2,0,0.3,0.1,0.4c0.1,0.1,0.1,0.2,0.2,0.2C69.8,58.4,69.9,58.4,70,58.5z"/>
</g>
<path class="st0" d="M115,86H69c-2.8,0-5-2.2-5-5v-6c0-2.8,2.2-5,5-5h46c2.8,0,5,2.2,5,5v6C120,83.8,117.8,86,115,86z"/>
<g>
	<path class="st2" d="M9.7,80.3v-4.5h0.9l1.6,2.5v-2.5h1.2v4.5h-0.9l-1.6-2.5v2.5H9.7z"/>
	<path class="st2" d="M15.8,80.4c-0.3,0-0.6,0-0.8-0.1c-0.2-0.1-0.4-0.2-0.6-0.3c-0.2-0.2-0.3-0.4-0.4-0.7s-0.1-0.7-0.1-1.2
		c0-0.5,0-0.9,0.1-1.2s0.2-0.5,0.4-0.7c0.2-0.2,0.4-0.3,0.6-0.3c0.2-0.1,0.5-0.1,0.8-0.1c0.3,0,0.6,0,0.8,0.1
		c0.2,0.1,0.4,0.2,0.6,0.3s0.3,0.4,0.4,0.7s0.1,0.7,0.1,1.2c0,0.5,0,0.9-0.1,1.2s-0.2,0.5-0.4,0.7s-0.4,0.3-0.6,0.3
		C16.4,80.3,16.1,80.4,15.8,80.4z M15.8,79.3c0.2,0,0.3,0,0.4-0.1c0.1,0,0.2-0.1,0.2-0.2c0.1-0.1,0.1-0.2,0.1-0.4s0-0.4,0-0.6
		c0-0.3,0-0.5,0-0.6c0-0.2-0.1-0.3-0.1-0.4c-0.1-0.1-0.1-0.1-0.2-0.2s-0.2,0-0.4,0c-0.1,0-0.3,0-0.4,0s-0.2,0.1-0.2,0.2
		c-0.1,0.1-0.1,0.2-0.1,0.4c0,0.2,0,0.4,0,0.6c0,0.2,0,0.5,0,0.6c0,0.2,0.1,0.3,0.1,0.4c0.1,0.1,0.1,0.2,0.2,0.2
		C15.6,79.3,15.7,79.3,15.8,79.3z"/>
	<path class="st2" d="M21.5,80.4c-0.2,0-0.5,0-0.7-0.1s-0.4-0.1-0.6-0.2s-0.3-0.3-0.4-0.5s-0.1-0.5-0.1-0.8v-3h1.2v3
		c0,0.1,0,0.2,0.1,0.3c0,0.1,0.1,0.1,0.2,0.2c0.1,0,0.2,0.1,0.3,0.1s0.3,0,0.3-0.1c0.1,0,0.2-0.1,0.2-0.2c0.1-0.1,0.1-0.2,0.1-0.3
		v-3h1.2v3c0,0.3,0,0.6-0.1,0.8c-0.1,0.2-0.2,0.3-0.4,0.5s-0.4,0.2-0.6,0.2C22,80.3,21.8,80.4,21.5,80.4z"/>
	<path class="st2" d="M23.9,80.3v-4.5h1.9c0.2,0,0.4,0,0.5,0.1c0.2,0,0.3,0.1,0.4,0.2c0.1,0.1,0.2,0.3,0.3,0.5
		c0.1,0.2,0.1,0.4,0.1,0.7c0,0.2,0,0.3,0,0.5c0,0.1-0.1,0.3-0.1,0.3c-0.1,0.1-0.1,0.2-0.2,0.2c-0.1,0.1-0.2,0.1-0.2,0.2l0.8,1.7
		h-1.2l-0.6-1.5c0,0-0.1,0-0.1,0s-0.1,0-0.1,0s-0.1,0-0.1,0c0,0-0.1,0-0.1,0v1.5H23.9z M25.1,77.9h0.5c0.1,0,0.1,0,0.2,0
		c0,0,0.1,0,0.1-0.1c0,0,0.1-0.1,0.1-0.2c0-0.1,0-0.1,0-0.2s0-0.2,0-0.2c0-0.1,0-0.1-0.1-0.1c0,0-0.1-0.1-0.1-0.1c0,0-0.1,0-0.2,0
		h-0.5V77.9z"/>
	<path class="st2" d="M29,80.4c-0.3,0-0.5-0.1-0.7-0.2c-0.2-0.1-0.3-0.3-0.4-0.5c-0.1-0.2-0.2-0.4-0.2-0.7c0-0.3-0.1-0.6-0.1-0.9
		c0-0.3,0-0.7,0.1-0.9c0-0.3,0.1-0.5,0.3-0.7s0.3-0.4,0.5-0.5c0.2-0.1,0.5-0.2,0.9-0.2c0.2,0,0.4,0,0.6,0c0.2,0,0.3,0,0.5,0.1
		c0.1,0,0.3,0.1,0.5,0.1V77c-0.1,0-0.2,0-0.3,0s-0.3,0-0.5,0c-0.2,0-0.3,0-0.5,0c-0.2,0-0.4,0-0.5,0.1c-0.1,0.1-0.2,0.2-0.2,0.4
		c0,0.2-0.1,0.4-0.1,0.8c0,0.2,0,0.4,0,0.6c0,0.2,0.1,0.3,0.1,0.4s0.1,0.1,0.2,0.2c0.1,0,0.2,0,0.3,0c0.1,0,0.3,0,0.4,0
		c0.1,0,0.2,0,0.3,0v-0.6h-0.6v-0.9c0.1,0,0.2,0,0.3,0s0.2,0,0.4,0c0.1,0,0.2,0,0.4,0c0.1,0,0.3,0,0.4,0s0.2,0,0.3,0v2.6h-0.9
		L30.1,80c-0.1,0.1-0.2,0.1-0.5,0.2S29.3,80.4,29,80.4z"/>
	<path class="st2" d="M33,80.4c-0.1,0-0.2,0-0.3,0c-0.1,0-0.3-0.1-0.4-0.1C32.1,80.1,32,80,32,79.9c-0.1-0.1-0.1-0.3-0.1-0.6V77
		c0-0.2,0-0.4,0.1-0.5c0.1-0.1,0.2-0.3,0.3-0.3c0.1-0.1,0.2-0.1,0.4-0.2c0.1,0,0.3-0.1,0.4-0.1c0.3,0,0.6,0,0.9,0c0.2,0,0.5,0,0.6,0
		c0.2,0,0.3,0,0.5,0v1h-1.6c-0.1,0-0.2,0-0.2,0.1c-0.1,0-0.1,0.1-0.1,0.2v0.4l1.6,0.1v0.9L33,78.6V79c0,0.1,0,0.1,0,0.2
		c0,0,0.1,0.1,0.1,0.1c0,0,0.1,0,0.1,0h1.7v1c-0.2,0-0.4,0-0.6,0.1c-0.2,0-0.4,0-0.7,0C33.4,80.4,33.2,80.4,33,80.4z"/>
	<path class="st2" d="M35.5,80.3v-4.5h0.9l1.6,2.5v-2.5h1.2v4.5h-0.9l-1.6-2.5v2.5H35.5z"/>
	<path class="st2" d="M40.7,80.3v-3.4h-1.1v-1h3.4v1h-1.1v3.4H40.7z"/>
	<path class="st2" d="M44.5,80.4c-0.1,0-0.2,0-0.3,0c-0.1,0-0.3-0.1-0.4-0.1c-0.1-0.1-0.2-0.2-0.3-0.3c-0.1-0.1-0.1-0.3-0.1-0.6V77
		c0-0.2,0-0.4,0.1-0.5c0.1-0.1,0.2-0.3,0.3-0.3c0.1-0.1,0.2-0.1,0.4-0.2c0.1,0,0.3-0.1,0.4-0.1c0.3,0,0.6,0,0.9,0c0.2,0,0.5,0,0.6,0
		c0.2,0,0.3,0,0.5,0v1h-1.6c-0.1,0-0.2,0-0.2,0.1c-0.1,0-0.1,0.1-0.1,0.2v0.4l1.6,0.1v0.9l-1.6,0.1V79c0,0.1,0,0.1,0,0.2
		c0,0,0.1,0.1,0.1,0.1c0,0,0.1,0,0.1,0h1.7v1c-0.2,0-0.4,0-0.6,0.1c-0.2,0-0.4,0-0.7,0C44.9,80.4,44.7,80.4,44.5,80.4z"/>
</g>
<g>
	<path class="st2" d="M82.8,78.3l0.1,3.2h-1.2l0.2-3.2H82.8z M82.7,77.1c0.1,0,0.1,0,0.1,0.1v0.7c0,0.1,0,0.2-0.1,0.2H82
		c-0.1,0-0.1,0-0.1-0.2v-0.7c0-0.1,0-0.1,0-0.1c0,0,0.1,0,0.1,0H82.7z"/>
	<path class="st2" d="M84.7,80.3l1.3-4.5h1.5l1.3,4.5h-1.2l-0.2-0.7h-1.3l-0.2,0.7H84.7z M86.4,78.6h0.8l-0.4-1.7L86.4,78.6z"/>
	<path class="st2" d="M90.3,80.3c-0.3,0-0.5,0-0.7-0.1s-0.3-0.2-0.4-0.4s-0.1-0.4-0.1-0.7v-3.3h1.2V79c0,0.1,0,0.1,0,0.2
		c0,0,0.1,0.1,0.1,0.1c0,0,0.1,0,0.2,0h1.3v1H90.3z"/>
	<path class="st2" d="M93.1,80.3v-3.4h-1.1v-1h3.4v1h-1.1v3.4H93.1z"/>
	<path class="st2" d="M95.2,80.3l1.3-4.5H98l1.3,4.5h-1.2l-0.2-0.7h-1.3l-0.2,0.7H95.2z M96.8,78.6h0.8l-0.4-1.7L96.8,78.6z"/>
	<path class="st2" d="M101.2,79.1l-0.1-3.2h1.2l-0.2,3.2H101.2z M101.3,80.3c-0.1,0-0.1,0-0.1-0.1v-0.7c0-0.1,0-0.1,0.1-0.1h0.7
		c0.1,0,0.1,0,0.1,0.1v0.7c0,0.1,0,0.1,0,0.1c0,0-0.1,0-0.1,0H101.3z"/>
</g>
<polygon class="st2" points="104,27.1 112,27.1 108,35.1 "/>
<path class="st3" d="M83,198H37c-2.8,0-5-2.2-5-5v-6c0-2.8,2.2-5,5-5h46c2.8,0,5,2.2,5,5v6C88,195.8,85.8,198,83,198z"/>
<g>
	<path class="st2" d="M44.5,192.4c-0.3,0-0.5,0-0.7-0.1c-0.2-0.1-0.4-0.2-0.5-0.3c-0.1-0.2-0.3-0.4-0.3-0.7s-0.1-0.7-0.1-1.2
		c0-0.5,0-0.8,0.1-1.1s0.2-0.5,0.3-0.7c0.1-0.2,0.3-0.3,0.5-0.3c0.2-0.1,0.4-0.1,0.7-0.1c0.2,0,0.5,0,0.7,0c0.2,0,0.4,0.1,0.5,0.1
		s0.2,0.1,0.3,0.1v0.9c-0.1,0-0.2,0-0.3,0c-0.1,0-0.3,0-0.4,0c-0.2,0-0.3,0-0.5,0c-0.1,0-0.3,0-0.3,0c-0.1,0-0.2,0.1-0.2,0.2
		s-0.1,0.2-0.1,0.4s0,0.4,0,0.6c0,0.2,0,0.4,0,0.6c0,0.2,0.1,0.3,0.1,0.4c0.1,0.1,0.1,0.2,0.2,0.2c0.1,0,0.2,0.1,0.4,0.1
		c0.3,0,0.6,0,0.7,0c0.2,0,0.3,0,0.5,0v0.9c-0.1,0-0.2,0.1-0.4,0.1c-0.1,0-0.3,0-0.5,0.1C44.9,192.4,44.7,192.4,44.5,192.4z"/>
	<path class="st2" d="M48.2,192.4c-0.3,0-0.6,0-0.8-0.1c-0.2-0.1-0.4-0.2-0.6-0.3c-0.2-0.2-0.3-0.4-0.4-0.7s-0.1-0.7-0.1-1.2
		c0-0.5,0-0.9,0.1-1.2s0.2-0.5,0.4-0.7c0.2-0.2,0.4-0.3,0.6-0.3c0.2-0.1,0.5-0.1,0.8-0.1c0.3,0,0.6,0,0.8,0.1
		c0.2,0.1,0.4,0.2,0.6,0.3s0.3,0.4,0.4,0.7s0.1,0.7,0.1,1.2c0,0.5,0,0.9-0.1,1.2s-0.2,0.5-0.4,0.7s-0.4,0.3-0.6,0.3
		C48.8,192.3,48.5,192.4,48.2,192.4z M48.2,191.3c0.2,0,0.3,0,0.4-0.1c0.1,0,0.2-0.1,0.2-0.2c0.1-0.1,0.1-0.2,0.1-0.4s0-0.4,0-0.6
		c0-0.3,0-0.5,0-0.6c0-0.2-0.1-0.3-0.1-0.4c-0.1-0.1-0.1-0.1-0.2-0.2s-0.2,0-0.4,0c-0.1,0-0.3,0-0.4,0s-0.2,0.1-0.2,0.2
		c-0.1,0.1-0.1,0.2-0.1,0.4c0,0.2,0,0.4,0,0.6c0,0.2,0,0.5,0,0.6c0,0.2,0.1,0.3,0.1,0.4c0.1,0.1,0.1,0.2,0.2,0.2
		C48,191.3,48.1,191.3,48.2,191.3z"/>
	<path class="st2" d="M50.7,192.3v-4.5h0.9l1.6,2.5v-2.5h1.2v4.5h-0.9l-1.6-2.5v2.5H50.7z"/>
	<path class="st2" d="M55,192.3V189c0-0.2,0-0.4,0.1-0.5c0.1-0.1,0.2-0.3,0.3-0.3c0.1-0.1,0.2-0.1,0.4-0.2c0.1,0,0.3-0.1,0.4-0.1
		c0.1,0,0.3,0,0.5,0s0.5,0,0.7,0c0.3,0,0.5,0,0.7,0.1v1h-1.6c-0.1,0-0.2,0-0.2,0.1c0,0.1-0.1,0.1-0.1,0.2v0.5l1.6,0.1v0.9l-1.6,0.1
		v1.6H55z"/>
	<path class="st2" d="M58.5,192.3v-4.5h1.2v4.5H58.5z"/>
	<path class="st2" d="M60.4,192.3v-4.5h1.9c0.2,0,0.4,0,0.5,0.1c0.2,0,0.3,0.1,0.4,0.2c0.1,0.1,0.2,0.3,0.3,0.5
		c0.1,0.2,0.1,0.4,0.1,0.7c0,0.2,0,0.3,0,0.5c0,0.1-0.1,0.3-0.1,0.3c-0.1,0.1-0.1,0.2-0.2,0.2c-0.1,0.1-0.2,0.1-0.2,0.2l0.8,1.7
		h-1.2l-0.6-1.5c0,0-0.1,0-0.1,0s-0.1,0-0.1,0s-0.1,0-0.1,0c0,0-0.1,0-0.1,0v1.5H60.4z M61.5,189.9h0.5c0.1,0,0.1,0,0.2,0
		c0,0,0.1,0,0.1-0.1c0,0,0.1-0.1,0.1-0.2c0-0.1,0-0.1,0-0.2s0-0.2,0-0.2c0-0.1,0-0.1-0.1-0.1c0,0-0.1-0.1-0.1-0.1c0,0-0.1,0-0.2,0
		h-0.5V189.9z"/>
	<path class="st2" d="M64.1,192.3l0.5-4.5h1.1l0.9,3.1l0.9-3.1h1.1l0.5,4.5H68l-0.3-2.9l0.2,0l-0.7,2.9h-1.1l-0.7-2.9l0.2,0
		l-0.3,2.9H64.1z"/>
	<path class="st2" d="M69.4,192.3l1.3-4.5h1.5l1.3,4.5h-1.2l-0.2-0.7h-1.3l-0.2,0.7H69.4z M71,190.6h0.8l-0.4-1.7L71,190.6z"/>
	<path class="st2" d="M73.9,192.3v-4.5h1.9c0.2,0,0.4,0,0.5,0.1c0.2,0,0.3,0.1,0.4,0.2c0.1,0.1,0.2,0.3,0.3,0.5
		c0.1,0.2,0.1,0.4,0.1,0.7c0,0.2,0,0.3,0,0.5c0,0.1-0.1,0.3-0.1,0.3c-0.1,0.1-0.1,0.2-0.2,0.2c-0.1,0.1-0.2,0.1-0.2,0.2l0.8,1.7
		h-1.2l-0.6-1.5c0,0-0.1,0-0.1,0s-0.1,0-0.1,0s-0.1,0-0.1,0c0,0-0.1,0-0.1,0v1.5H73.9z M75,189.9h0.5c0.1,0,0.1,0,0.2,0
		c0,0,0.1,0,0.1-0.1c0,0,0.1-0.1,0.1-0.2c0-0.1,0-0.1,0-0.2s0-0.2,0-0.2c0-0.1,0-0.1-0.1-0.1c0,0-0.1-0.1-0.1-0.1c0,0-0.1,0-0.2,0
		H75V189.9z"/>
</g>
<rect x="0" y="118" class="st0" width="120" height="40"/>
<g>
	<path class="st2" d="M8.3,128.3v-4.5h2c0.3,0,0.6,0.1,0.8,0.2s0.4,0.3,0.5,0.5c0.1,0.2,0.2,0.4,0.3,0.7c0,0.3,0.1,0.6,0.1,0.9
		c0,0.5-0.1,0.9-0.2,1.3c-0.1,0.3-0.3,0.6-0.5,0.7c-0.2,0.2-0.5,0.2-0.9,0.2H8.3z M9.5,127.3h0.7c0.1,0,0.3,0,0.3-0.1
		c0.1-0.1,0.1-0.2,0.2-0.4c0-0.2,0.1-0.4,0.1-0.7c0-0.3,0-0.5,0-0.6c0-0.2-0.1-0.3-0.1-0.4s-0.1-0.1-0.2-0.2s-0.1,0-0.2,0H9.5V127.3
		z"/>
	<path class="st2" d="M13.8,128.4c-0.4,0-0.7,0-0.9-0.1c-0.2-0.1-0.4-0.3-0.5-0.5c-0.1-0.2-0.2-0.6-0.2-1c0-0.4,0-0.8,0.1-1
		c0.1-0.2,0.2-0.4,0.5-0.5c0.2-0.1,0.5-0.1,0.9-0.1c0.3,0,0.6,0,0.8,0.1c0.2,0.1,0.3,0.2,0.4,0.3c0.1,0.2,0.1,0.4,0.1,0.7
		c0,0.2,0,0.4-0.1,0.6c-0.1,0.1-0.2,0.2-0.4,0.3c-0.2,0.1-0.4,0.1-0.6,0.1h-0.6c0,0.1,0,0.2,0.1,0.2c0,0.1,0.1,0.1,0.2,0.1
		c0.1,0,0.2,0,0.4,0H15v0.7c-0.1,0-0.3,0.1-0.5,0.1C14.3,128.3,14,128.4,13.8,128.4z M13.4,126.4h0.5c0.1,0,0.1,0,0.2-0.1
		s0.1-0.1,0.1-0.2c0-0.1,0-0.1,0-0.2c0,0-0.1-0.1-0.1-0.1c-0.1,0-0.1,0-0.2,0c-0.1,0-0.1,0-0.2,0s-0.1,0.1-0.1,0.2
		C13.4,126.2,13.4,126.3,13.4,126.4z"/>
	<path class="st2" d="M16.9,128.3c-0.3,0-0.5,0-0.7-0.1c-0.2-0.1-0.3-0.2-0.4-0.4c-0.1-0.2-0.1-0.4-0.1-0.7l0-1.1h-0.5v-0.7l0.5-0.2
		l0.1-0.9h0.9v0.9h0.7v0.9h-0.7v1.1c0,0.1,0,0.1,0,0.1c0,0,0,0.1,0,0.1c0,0,0,0,0.1,0.1c0,0,0.1,0,0.1,0l0.4,0v0.9H16.9z"/>
	<path class="st2" d="M18.7,128.4c-0.2,0-0.4-0.1-0.6-0.2c-0.2-0.1-0.2-0.3-0.2-0.6v-0.3c0-0.2,0.1-0.4,0.3-0.6s0.5-0.2,0.8-0.2h0.6
		v-0.1c0-0.1,0-0.1,0-0.2c0,0-0.1-0.1-0.2-0.1c-0.1,0-0.2,0-0.4,0H18v-0.7c0.2-0.1,0.4-0.1,0.6-0.2s0.5-0.1,0.8-0.1
		c0.3,0,0.5,0,0.7,0.1c0.2,0.1,0.4,0.2,0.5,0.3c0.1,0.2,0.2,0.4,0.2,0.7v2.1h-0.9l-0.2-0.3c0,0-0.1,0.1-0.1,0.1
		c-0.1,0-0.1,0.1-0.2,0.1s-0.2,0.1-0.3,0.1C18.9,128.4,18.8,128.4,18.7,128.4z M19.3,127.6C19.3,127.6,19.3,127.6,19.3,127.6
		c0.1,0,0.1,0,0.1,0c0,0,0,0,0.1,0c0,0,0,0,0.1,0c0,0,0,0,0,0v-0.6l-0.2,0c-0.1,0-0.2,0-0.3,0.1c-0.1,0-0.1,0.1-0.1,0.2v0.1
		c0,0.1,0,0.1,0,0.1c0,0,0.1,0.1,0.1,0.1C19.2,127.6,19.2,127.6,19.3,127.6z"/>
	<path class="st2" d="M22.4,128.4c-0.3,0-0.5,0-0.6-0.1s-0.3-0.2-0.4-0.4s-0.1-0.4-0.1-0.6v-3.5h1.2v3.3c0,0.1,0,0.1,0,0.2
		c0,0.1,0,0.1,0.1,0.1s0.1,0,0.1,0.1l0.2,0v0.8H22.4z"/>
	<path class="st2" d="M24.4,128.4c-0.3,0-0.5,0-0.6-0.1s-0.3-0.2-0.4-0.4s-0.1-0.4-0.1-0.6v-3.5h1.2v3.3c0,0.1,0,0.1,0,0.2
		c0,0.1,0,0.1,0.1,0.1s0.1,0,0.1,0.1l0.2,0v0.8H24.4z"/>
	<path class="st2" d="M26.6,128.4c-0.4,0-0.7,0-0.9-0.1c-0.2-0.1-0.4-0.3-0.5-0.5c-0.1-0.2-0.2-0.6-0.2-1c0-0.4,0-0.8,0.1-1
		c0.1-0.2,0.2-0.4,0.5-0.5c0.2-0.1,0.5-0.1,0.9-0.1c0.3,0,0.6,0,0.8,0.1c0.2,0.1,0.3,0.2,0.4,0.3c0.1,0.2,0.1,0.4,0.1,0.7
		c0,0.2,0,0.4-0.1,0.6c-0.1,0.1-0.2,0.2-0.4,0.3c-0.2,0.1-0.4,0.1-0.6,0.1h-0.6c0,0.1,0,0.2,0.1,0.2c0,0.1,0.1,0.1,0.2,0.1
		c0.1,0,0.2,0,0.4,0h0.9v0.7c-0.1,0-0.3,0.1-0.5,0.1C27.1,128.3,26.9,128.4,26.6,128.4z M26.2,126.4h0.5c0.1,0,0.1,0,0.2-0.1
		s0.1-0.1,0.1-0.2c0-0.1,0-0.1,0-0.2c0,0-0.1-0.1-0.1-0.1c-0.1,0-0.1,0-0.2,0c-0.1,0-0.1,0-0.2,0s-0.1,0.1-0.1,0.2
		C26.3,126.2,26.2,126.3,26.2,126.4z"/>
	<path class="st2" d="M29.6,128.4c-0.1,0-0.2,0-0.3,0c-0.1,0-0.2,0-0.3,0c-0.1,0-0.2,0-0.3-0.1c-0.1,0-0.2-0.1-0.3-0.1v-0.7h1.5
		c0.1,0,0.1,0,0.1,0c0,0,0,0,0.1,0c0,0,0,0,0-0.1v-0.1c0,0,0-0.1,0-0.1c0,0-0.1,0-0.2,0h-0.5c-0.2,0-0.3,0-0.5-0.1
		c-0.2-0.1-0.3-0.2-0.4-0.3s-0.1-0.3-0.1-0.5v-0.2c0-0.2,0-0.4,0.1-0.5c0.1-0.1,0.2-0.3,0.4-0.3c0.2-0.1,0.5-0.1,0.9-0.1
		c0.1,0,0.3,0,0.5,0c0.2,0,0.3,0,0.4,0.1s0.2,0.1,0.3,0.1v0.7h-1.4c-0.1,0-0.1,0-0.1,0c0,0,0,0,0,0.1v0.1c0,0,0,0.1,0,0.1
		c0,0,0,0,0.1,0s0.1,0,0.1,0h0.6c0.4,0,0.6,0.1,0.7,0.2c0.1,0.2,0.2,0.4,0.2,0.6v0.3c0,0.2-0.1,0.4-0.2,0.5
		c-0.1,0.1-0.3,0.2-0.5,0.3C30.2,128.3,29.9,128.4,29.6,128.4z"/>
	<path class="st2" d="M31.6,128.3c-0.1,0-0.1,0-0.1-0.1v-0.7c0-0.1,0-0.1,0.1-0.1h0.7c0.1,0,0.1,0,0.1,0.1v0.7c0,0.1,0,0.1,0,0.1
		c0,0-0.1,0-0.1,0H31.6z"/>
	<path class="st2" d="M33.2,128.3c-0.1,0-0.1,0-0.1-0.1v-0.7c0-0.1,0-0.1,0.1-0.1h0.7c0.1,0,0.1,0,0.1,0.1v0.7c0,0.1,0,0.1,0,0.1
		c0,0-0.1,0-0.1,0H33.2z"/>
	<path class="st2" d="M34.7,128.3c-0.1,0-0.1,0-0.1-0.1v-0.7c0-0.1,0-0.1,0.1-0.1h0.7c0.1,0,0.1,0,0.1,0.1v0.7c0,0.1,0,0.1,0,0.1
		c0,0-0.1,0-0.1,0H34.7z"/>
</g>
<g>
	<path class="st1" d="M44.8,106.6v-4.4h1.7c0.2,0,0.5,0,0.6,0.1c0.2,0.1,0.3,0.2,0.4,0.4c0.1,0.2,0.2,0.4,0.2,0.7s0.1,0.6,0.1,1
		c0,0.4-0.1,0.8-0.2,1.2c-0.1,0.3-0.3,0.6-0.5,0.8c-0.2,0.2-0.5,0.3-0.8,0.3H44.8z M45,106.4h1.4c0.3,0,0.5-0.1,0.7-0.2
		s0.3-0.4,0.4-0.7s0.1-0.6,0.1-1c0-0.4,0-0.7-0.1-0.9s-0.1-0.5-0.2-0.6c-0.1-0.2-0.2-0.3-0.4-0.4c-0.1-0.1-0.3-0.1-0.5-0.1H45V106.4
		z"/>
	<path class="st1" d="M49.9,106.7c-0.3,0-0.6-0.1-0.8-0.2c-0.2-0.1-0.3-0.3-0.4-0.5s-0.1-0.6-0.1-1c0-0.4,0-0.7,0.1-1
		c0.1-0.2,0.2-0.4,0.4-0.5c0.2-0.1,0.4-0.1,0.8-0.1c0.3,0,0.5,0,0.7,0.1c0.2,0.1,0.3,0.2,0.4,0.3c0.1,0.2,0.1,0.4,0.1,0.6
		c0,0.2,0,0.3-0.1,0.4c-0.1,0.1-0.2,0.2-0.3,0.2s-0.3,0.1-0.5,0.1h-1.4c0,0.3,0,0.6,0.1,0.8c0.1,0.2,0.2,0.3,0.3,0.4
		s0.4,0.1,0.7,0.1H51v0.2c-0.2,0-0.4,0-0.5,0C50.3,106.7,50.1,106.7,49.9,106.7z M48.8,105h1.4c0.2,0,0.4,0,0.5-0.1
		c0.1-0.1,0.2-0.2,0.2-0.4c0-0.2,0-0.4-0.1-0.5c-0.1-0.1-0.2-0.2-0.3-0.3c-0.1,0-0.3-0.1-0.5-0.1c-0.3,0-0.5,0-0.6,0.1
		c-0.2,0.1-0.3,0.2-0.3,0.4C48.9,104.3,48.8,104.6,48.8,105z"/>
	<path class="st1" d="M53,106.7c-0.1,0-0.2,0-0.3,0c-0.1,0-0.2,0-0.4,0c-0.1,0-0.2,0-0.4,0s-0.2,0-0.2,0v-0.2H53c0.2,0,0.3,0,0.4,0
		c0.1,0,0.2-0.1,0.3-0.2c0.1-0.1,0.1-0.2,0.1-0.4v-0.2c0-0.2-0.1-0.3-0.2-0.4c-0.1-0.1-0.3-0.1-0.5-0.1h-0.4c-0.2,0-0.4,0-0.5-0.1
		c-0.1,0-0.3-0.1-0.3-0.2c-0.1-0.1-0.1-0.3-0.1-0.5v-0.2c0-0.2,0-0.4,0.1-0.5s0.2-0.2,0.3-0.3c0.2-0.1,0.3-0.1,0.6-0.1
		c0.1,0,0.2,0,0.4,0c0.1,0,0.3,0,0.4,0c0.1,0,0.3,0,0.4,0v0.2h-1.2c-0.2,0-0.4,0-0.6,0.1c-0.1,0.1-0.2,0.3-0.2,0.5v0.1
		c0,0.2,0,0.3,0.1,0.3c0.1,0.1,0.2,0.1,0.3,0.2c0.1,0,0.2,0,0.4,0h0.4c0.3,0,0.5,0.1,0.7,0.2c0.2,0.1,0.2,0.3,0.2,0.6v0.2
		c0,0.2,0,0.4-0.1,0.5s-0.2,0.2-0.4,0.2S53.2,106.7,53,106.7z"/>
	<path class="st1" d="M56.1,106.7c-0.2,0-0.3,0-0.5-0.1c-0.2,0-0.3-0.1-0.4-0.2c-0.1-0.1-0.2-0.3-0.3-0.5c-0.1-0.2-0.1-0.5-0.1-0.8
		s0-0.6,0.1-0.8c0.1-0.2,0.1-0.4,0.3-0.5c0.1-0.1,0.2-0.2,0.4-0.2c0.2,0,0.3-0.1,0.5-0.1c0.1,0,0.3,0,0.5,0c0.2,0,0.4,0,0.5,0v0.2
		h-1c-0.2,0-0.4,0-0.6,0.1s-0.3,0.2-0.4,0.4s-0.1,0.5-0.1,0.9c0,0.4,0,0.7,0.1,0.9c0.1,0.2,0.2,0.3,0.4,0.4c0.2,0.1,0.3,0.1,0.5,0.1
		h1v0.2c-0.1,0-0.2,0-0.3,0s-0.2,0-0.4,0S56.2,106.7,56.1,106.7z"/>
	<path class="st1" d="M57.9,106.6v-3.2h0.2l0.1,0.6c0.2-0.2,0.3-0.3,0.5-0.5s0.4-0.2,0.7-0.2c0.1,0,0.1,0,0.2,0s0.1,0,0.1,0v0.2
		c0,0-0.1,0-0.2,0s-0.1,0-0.2,0c-0.2,0-0.3,0-0.4,0.1s-0.2,0.1-0.4,0.2c-0.1,0.1-0.2,0.2-0.4,0.3v2.4H57.9z"/>
	<path class="st1" d="M60.4,102.8C60.3,102.8,60.3,102.8,60.4,102.8l-0.1-0.5c0-0.1,0-0.1,0.1-0.1h0.1c0,0,0,0,0.1,0c0,0,0,0,0,0.1
		v0.4c0,0.1,0,0.1-0.1,0.1H60.4z M60.3,106.6v-3.2h0.2v3.2H60.3z"/>
	<path class="st1" d="M61.6,108v-4.6h0.2l0.1,0.3c0.1,0,0.2-0.1,0.3-0.2c0.1-0.1,0.3-0.1,0.4-0.2c0.1,0,0.3-0.1,0.4-0.1
		c0.2,0,0.4,0,0.5,0.1c0.1,0.1,0.3,0.2,0.4,0.4s0.2,0.3,0.2,0.5c0,0.2,0.1,0.4,0.1,0.6c0,0.4,0,0.7-0.1,0.9
		c-0.1,0.2-0.2,0.4-0.4,0.5c-0.2,0.1-0.4,0.2-0.6,0.2c-0.2,0-0.4,0-0.6-0.1c-0.2-0.1-0.4-0.2-0.6-0.3v1.7H61.6z M62.9,106.5
		c0.2,0,0.4,0,0.5-0.1c0.1-0.1,0.3-0.2,0.3-0.5s0.1-0.5,0.1-0.8c0-0.3,0-0.6-0.1-0.8s-0.2-0.4-0.4-0.5c-0.1-0.1-0.3-0.1-0.5-0.1
		c-0.2,0-0.4,0-0.6,0.1s-0.3,0.1-0.5,0.2v2.2c0.2,0.1,0.4,0.2,0.5,0.2C62.6,106.4,62.8,106.5,62.9,106.5z"/>
	<path class="st1" d="M66.2,106.7c-0.2,0-0.3,0-0.5-0.1c-0.2,0-0.3-0.1-0.4-0.2c-0.1-0.1-0.2-0.3-0.3-0.5c-0.1-0.2-0.1-0.5-0.1-0.8
		s0-0.6,0.1-0.8c0.1-0.2,0.1-0.4,0.3-0.5c0.1-0.1,0.2-0.2,0.4-0.2c0.2,0,0.3-0.1,0.5-0.1c0.1,0,0.3,0,0.5,0c0.2,0,0.4,0,0.5,0v0.2
		h-1c-0.2,0-0.4,0-0.6,0.1s-0.3,0.2-0.4,0.4s-0.1,0.5-0.1,0.9c0,0.4,0,0.7,0.1,0.9c0.1,0.2,0.2,0.3,0.4,0.4c0.2,0.1,0.3,0.1,0.5,0.1
		h1v0.2c-0.1,0-0.2,0-0.3,0s-0.2,0-0.4,0S66.3,106.7,66.2,106.7z"/>
	<path class="st1" d="M68,102.8C68,102.8,68,102.8,68,102.8l-0.1-0.5c0-0.1,0-0.1,0.1-0.1h0.1c0,0,0,0,0.1,0c0,0,0,0,0,0.1v0.4
		c0,0.1,0,0.1-0.1,0.1H68z M68,106.6v-3.2h0.2v3.2H68z"/>
	<path class="st1" d="M70.5,106.7c-0.2,0-0.4,0-0.6-0.1s-0.3-0.1-0.4-0.2c-0.1-0.1-0.2-0.3-0.3-0.5c-0.1-0.2-0.1-0.5-0.1-0.8
		c0-0.3,0-0.6,0.1-0.8c0.1-0.2,0.1-0.4,0.3-0.5s0.3-0.2,0.4-0.2s0.4-0.1,0.6-0.1c0.2,0,0.4,0,0.6,0.1s0.3,0.1,0.4,0.2
		c0.1,0.1,0.2,0.3,0.3,0.5c0.1,0.2,0.1,0.5,0.1,0.8c0,0.3,0,0.6-0.1,0.8c-0.1,0.2-0.1,0.4-0.3,0.5c-0.1,0.1-0.3,0.2-0.4,0.2
		S70.7,106.7,70.5,106.7z M70.5,106.5c0.2,0,0.3,0,0.5,0c0.1,0,0.3-0.1,0.3-0.2s0.2-0.2,0.2-0.4c0-0.2,0.1-0.4,0.1-0.8
		c0-0.3,0-0.6-0.1-0.8c0-0.2-0.1-0.3-0.2-0.4c-0.1-0.1-0.2-0.2-0.3-0.2c-0.1,0-0.3,0-0.5,0c-0.2,0-0.3,0-0.5,0
		c-0.1,0-0.2,0.1-0.3,0.2c-0.1,0.1-0.2,0.2-0.2,0.4c0,0.2-0.1,0.4-0.1,0.8c0,0.3,0,0.6,0.1,0.8c0,0.2,0.1,0.3,0.2,0.4
		s0.2,0.2,0.3,0.2C70.2,106.4,70.3,106.5,70.5,106.5z M70.3,102.8L71,102h0.2l-0.8,0.8H70.3z"/>
	<path class="st1" d="M72.7,106.6v-3.2h0.2l0.1,0.4c0.2-0.1,0.4-0.2,0.6-0.3s0.4-0.1,0.7-0.1c0.2,0,0.4,0,0.5,0.1
		c0.1,0.1,0.3,0.2,0.3,0.4c0.1,0.2,0.1,0.3,0.1,0.5v2.2H75v-2.2c0-0.2,0-0.3-0.1-0.4c-0.1-0.1-0.2-0.2-0.3-0.3
		c-0.1-0.1-0.3-0.1-0.4-0.1c-0.2,0-0.3,0-0.4,0c-0.1,0-0.3,0.1-0.4,0.1c-0.1,0.1-0.3,0.1-0.4,0.2v2.7H72.7z"/>
</g>
</svg>
