<?xml version="1.0" encoding="utf-8"?>
<!-- Generator: Adobe Illustrator 25.2.3, SVG Export Plug-In . SVG Version: 6.00 Build 0)  -->
<svg version="1.1" id="Layer_1" xmlns="http://www.w3.org/2000/svg" xmlns:xlink="http://www.w3.org/1999/xlink" x="0px" y="0px"
	 viewBox="0 0 50 50" style="enable-background:new 0 0 50 50;" xml:space="preserve">
<style type="text/css">
	.st0{fill:#FFFFFF;}
</style>
<g>
	<circle class="st0" cx="15.5" cy="12.1" r="3.7"/>
	<circle class="st0" cx="39.9" cy="10.1" r="5"/>
	<ellipse class="st0" cx="11.5" cy="38.5" rx="6.4" ry="6.4"/>
	<circle class="st0" cx="30.8" cy="21.7" r="4.2"/>
	<g>
		<path class="st0" d="M42.4,19.2h-6.4c0.4,0.8,0.6,1.6,0.6,2.5c0,3.2-2.6,5.8-5.8,5.8S25,24.9,25,21.7c0-0.9,0.2-1.7,0.6-2.5h-18
			c-0.9,0-1.7,0.7-1.7,1.7v11.8c1.5-1.4,3.4-2.3,5.6-2.3c4.5,0,8.1,3.6,8.1,8.1c0,1.4-0.4,2.8-1,3.9h23.9c0.9,0,1.7-0.7,1.7-1.7
			V20.9C44.1,19.9,43.4,19.2,42.4,19.2z"/>
		<path class="st0" d="M26.7,21.7c0,2.3,1.9,4.2,4.2,4.2S35,24,35,21.7c0-0.9-0.3-1.8-0.8-2.5h-6.6C27,19.9,26.7,20.8,26.7,21.7z"/>
	</g>
</g>
</svg>
