<?xml version="1.0" encoding="utf-8"?>
<!-- Generator: Adobe Illustrator 25.2.3, SVG Export Plug-In . SVG Version: 6.00 Build 0)  -->
<svg version="1.1" id="Layer_1" xmlns="http://www.w3.org/2000/svg" xmlns:xlink="http://www.w3.org/1999/xlink" x="0px" y="0px"
	 viewBox="0 0 50 50" style="enable-background:new 0 0 50 50;" xml:space="preserve">
<style type="text/css">
	.st0{fill:#FFFFFF;}
</style>
<g>
	<path class="st0" d="M25.9,5.6l2.1,4.2c0.1,0.3,0.4,0.5,0.7,0.5l4.6,0.7c0.8,0.1,1.1,1.1,0.5,1.6l-3.4,3.3
		c-0.2,0.2-0.3,0.5-0.3,0.9l0.8,4.6c0.1,0.8-0.7,1.4-1.4,1l-4.2-2.2c-0.3-0.1-0.6-0.1-0.9,0l-4.2,2.2c-0.7,0.4-1.5-0.2-1.4-1
		l0.8-4.6c0.1-0.3,0-0.6-0.3-0.9l-3.4-3.3c-0.6-0.6-0.3-1.5,0.5-1.6l4.6-0.7c0.3,0,0.6-0.2,0.7-0.5l2.1-4.2
		C24.5,4.9,25.5,4.9,25.9,5.6z"/>
	<path class="st0" d="M5.1,24.2v14.1c0,0.9,0.7,1.7,1.7,1.7h9.9l0,0.1c-3.2,0.6-3.2,4.9-3.2,4.9h0.8h21.7h0.8c0,0,0-4.3-3.2-4.9
		l0-0.1h9.8c0.9,0,1.7-0.7,1.7-1.7V24.2H5.1z"/>
</g>
</svg>
