<?xml version="1.0" encoding="utf-8"?>
<!-- Generator: Adobe Illustrator 25.2.3, SVG Export Plug-In . SVG Version: 6.00 Build 0)  -->
<svg version="1.1" id="Layer_1" xmlns="http://www.w3.org/2000/svg" xmlns:xlink="http://www.w3.org/1999/xlink" x="0px" y="0px"
	 viewBox="0 0 50 50" style="enable-background:new 0 0 50 50;" xml:space="preserve">
<style type="text/css">
	.st0{fill:#FFFFFF;}
</style>
<g>
	<path class="st0" d="M24.6,7.6h-0.8c-0.9,0-1.7,0.7-1.7,1.7v6.6h-2.5V6.7c0-0.9-0.7-1.7-1.7-1.7h-0.8c-0.9,0-1.7,0.7-1.7,1.7v9.1
		H13V9.2c0-0.9-0.7-1.7-1.7-1.7h-0.8c-0.9,0-1.7,0.7-1.7,1.7v6.6v2.5c0,0.9,0.7,1.7,1.7,1.7h0.8h4.2v23.2c0,0.9,0.7,1.7,1.7,1.7h0.8
		c0.9,0,1.7-0.7,1.7-1.7V20h4.2h0.8c0.9,0,1.7-0.7,1.7-1.7v-2.5V9.2C26.2,8.3,25.5,7.6,24.6,7.6z"/>
	<path class="st0" d="M39.5,5.1h-0.8c-6.2,0-7.8,14.2-8.2,19.1h-0.1v1.7H37v17.4c0,0.9,0.7,1.7,1.7,1.7h0.8c0.9,0,1.7-0.7,1.7-1.7
		V6.7C41.2,5.8,40.4,5.1,39.5,5.1z"/>
</g>
</svg>
