<?xml version="1.0" encoding="utf-8"?>
<!-- Generator: Adobe Illustrator 25.2.3, SVG Export Plug-In . SVG Version: 6.00 Build 0)  -->
<svg version="1.1" id="Layer_1" xmlns="http://www.w3.org/2000/svg" xmlns:xlink="http://www.w3.org/1999/xlink" x="0px" y="0px"
	 viewBox="0 0 50 50" style="enable-background:new 0 0 50 50;" xml:space="preserve">
<style type="text/css">
	.st0{fill:#FFFFFF;}
</style>
<path class="st0" d="M42.4,20.8H30.8v-1.5c1.5-1.5,2.5-3.6,2.5-5.9c0-4.6-3.7-8.3-8.3-8.3s-8.3,3.7-8.3,8.3c0,2.3,1,4.4,2.5,5.9v1.5
	H7.6c-0.9,0-1.7,0.7-1.7,1.7v8.3c0,0.9,0.7,1.7,1.7,1.7h5c0,6.9,5.6,12.5,12.5,12.5s12.5-5.6,12.5-12.5h5c0.9,0,1.7-0.7,1.7-1.7
	v-8.3C44.1,21.6,43.4,20.8,42.4,20.8z M25,40.8c-4.6,0-8.3-3.7-8.3-8.3h16.6C33.3,37.1,29.6,40.8,25,40.8z"/>
</svg>
