<?xml version="1.0" encoding="utf-8"?>
<!-- Generator: Adobe Illustrator 25.2.3, SVG Export Plug-In . SVG Version: 6.00 Build 0)  -->
<svg version="1.1" xmlns="http://www.w3.org/2000/svg" xmlns:xlink="http://www.w3.org/1999/xlink" x="0px" y="0px"
	 viewBox="0 0 1554 1554" style="enable-background:new 0 0 1554 1554;" xml:space="preserve">
<style type="text/css">
	.st0{fill:#E34D99;}
	.st1{fill:#EC8231;}
	.st2{fill:#76BF60;}
	.st3{fill:#489B91;}
	.st4{fill:#9BD2CA;}
	.st5{fill:#E9A6C9;}
	.st6{fill:#FBC089;}
	.st7{fill:#C7E2C0;}
</style>
<g id="base_grid">
	<circle class="st0" cx="777" cy="777.5" r="777"/>
</g>
<g id="design">
	<g>
		<path class="st5" d="M273,1237.4c0,24.1,18.8,43.6,42,43.6h924c23.2,0,42-19.5,42-43.6V735H273V1237.4z"/>
		<path class="st5" d="M1239,441h-210.2l-0.3-63.4c-0.2-46.1-36.1-83.6-80.1-83.6H605.1c-20.9,0-40.6,8.4-55.6,23.5
			c-15.8,16-24.7,38.5-24.4,61.6l0.8,61.9H315c-23.2,0-42,18.8-42,42v168h1008V483C1281,459.8,1262.2,441,1239,441z M609.8,441
			l-0.8-62.9c0,0,0,0,0-0.1h335.6l0.3,63H609.8z"/>
	</g>
</g>
</svg>
