<?xml version="1.0" encoding="utf-8"?>
<!-- Generator: Adobe Illustrator 25.2.3, SVG Export Plug-In . SVG Version: 6.00 Build 0)  -->
<svg version="1.1" xmlns="http://www.w3.org/2000/svg" xmlns:xlink="http://www.w3.org/1999/xlink" x="0px" y="0px"
	 viewBox="0 0 1554 1554" style="enable-background:new 0 0 1554 1554;" xml:space="preserve">
<style type="text/css">
	.st0{fill:#E34D99;}
	.st1{fill:#EC8231;}
	.st2{fill:#76BF60;}
	.st3{fill:#489B91;}
	.st4{fill:#9BD2CA;}
	.st5{fill:#E9A6C9;}
	.st6{fill:#FBC089;}
	.st7{fill:#C7E2C0;}
</style>
<g id="base_grid">
	<circle class="st3" cx="798" cy="779.3" r="777"/>
</g>
<g id="design">
	<g>
		<path class="st4" d="M315,799.3c0,4.3,0.7,8.5,2.1,12.4c5.2,15.1,19.5,26.5,37.1,28.9c2.3,0.3,4.6,0.5,7,0.5
			c0,0,205.8,0,205.8,251c0,23.1,20.7,41.8,46.2,41.8H777h163.8c25.5,0,46.2-18.7,46.2-41.8c0-251,205.8-251,205.8-251
			c2.4,0,4.7-0.2,7-0.5c17.6-2.4,31.9-13.8,37.1-28.9c1.3-3.9,2.1-8.1,2.1-12.4V567H315V799.3z"/>
		<path class="st4" d="M1197,420H357c-23.2,0-42,18.8-42,42v63h924v-63C1239,438.8,1220.2,420,1197,420z"/>
	</g>
</g>
</svg>
