<?xml version="1.0" encoding="utf-8"?>
<!-- Generator: Adobe Illustrator 25.2.3, SVG Export Plug-In . SVG Version: 6.00 Build 0)  -->
<svg version="1.1" xmlns="http://www.w3.org/2000/svg" xmlns:xlink="http://www.w3.org/1999/xlink" x="0px" y="0px"
	 viewBox="0 0 1554 1554" style="enable-background:new 0 0 1554 1554;" xml:space="preserve">
<style type="text/css">
	.st0{fill:#E34D99;}
	.st1{fill:#EC8231;}
	.st2{fill:#76BF60;}
	.st3{fill:#489B91;}
	.st4{fill:#9BD2CA;}
	.st5{fill:#E9A6C9;}
	.st6{fill:#FBC089;}
	.st7{fill:#C7E2C0;}
</style>
<g id="base_grid">
	<circle class="st3" cx="797.4" cy="779.3" r="777"/>
</g>
<g id="design">
	<path class="st4" d="M1268.7,517.4c0,0-124.4-129.1-155.7-160.4c-21-21-21-21-105-21c-11.1,0-25.4,0-42,0c0,0-16.4,0-42.5,0
		c0,0,0.5,105-146.5,105S630.5,336,630.5,336c-15.2,0-29.5,0-42.5,0c-16.6,0-30.9,0-42,0c-84,0-84,0-105,21
		c-31.3,31.3-155.7,160.4-155.7,160.4c-16.4,16.4-16.4,43,0,59.4l103.9,103.9c16.4,16.4,43,16.4,59.4,0l55.4-55.4V840v84v231
		c0,23.2,18.8,42,42,42h462c23.2,0,42-18.8,42-42V924v-84V625.3l55.4,55.4c16.4,16.4,43,16.4,59.4,0l103.9-103.9
		C1285.1,560.4,1285.1,533.8,1268.7,517.4z"/>
</g>
</svg>
