<?xml version="1.0" encoding="utf-8"?>
<!-- Generator: Adobe Illustrator 25.2.3, SVG Export Plug-In . SVG Version: 6.00 Build 0)  -->
<svg version="1.1" xmlns="http://www.w3.org/2000/svg" xmlns:xlink="http://www.w3.org/1999/xlink" x="0px" y="0px"
	 viewBox="0 0 1554 1554" style="enable-background:new 0 0 1554 1554;" xml:space="preserve">
<style type="text/css">
	.st0{fill:#E34D99;}
	.st1{fill:#EC8231;}
	.st2{fill:#76BF60;}
	.st3{fill:#489B91;}
	.st4{fill:#9BD2CA;}
	.st5{fill:#E9A6C9;}
	.st6{fill:#FBC089;}
	.st7{fill:#C7E2C0;}
</style>
<g id="base_grid">
	<circle class="st1" cx="777" cy="775.7" r="777"/>
</g>
<g id="design">
	<path class="st6" d="M1176,294h-21H399h-42v42v378v42v462c0,23.2,18.8,42,42,42h756c23.2,0,42-18.8,42-42V777v-63V294H1176z
		 M525,503.1c0-11.6,9.4-21,21-21s21,9.4,21,21s-9.4,21-21,21S525,514.7,525,503.1z M1029,503.1c0-11.6,9.4-21,21-21s21,9.4,21,21
		s-9.4,21-21,21S1029,514.7,1029,503.1z M1111.9,714c-6.6-179.2-41.2-315.9-82.9-315.9S952.7,534.8,946.1,714h-93.9
		c-9.9-89.4-27.4-158.8-48.7-190.7c16.6-4.7,38.6-18.9,59.2-39.5c32.8-32.8,49.4-69.4,37.1-81.7s-48.9,4.3-81.7,37.1
		c-22.9,22.9-37.9,47.7-40.7,64.7c-0.1,0-0.1,0-0.2,0c-3.1-17-18-41.3-40.6-63.8c-32.8-32.8-69.4-49.4-81.7-37.1s4.3,48.9,37.1,81.7
		c20,20,41.5,34,57.9,39.1C728.9,556,711.6,625,701.7,714h-93.9c-6.6-179.2-41.2-315.9-82.9-315.9S448.7,534.8,442.1,714H399V336
		h756v378H1111.9z"/>
</g>
</svg>
