<?xml version="1.0" encoding="utf-8"?>
<!-- Generator: Adobe Illustrator 25.2.3, SVG Export Plug-In . SVG Version: 6.00 Build 0)  -->
<svg version="1.1" xmlns="http://www.w3.org/2000/svg" xmlns:xlink="http://www.w3.org/1999/xlink" x="0px" y="0px"
	 viewBox="0 0 1554 1554" style="enable-background:new 0 0 1554 1554;" xml:space="preserve">
<style type="text/css">
	.st0{fill:#E34D99;}
	.st1{fill:#EC8231;}
	.st2{fill:#76BF60;}
	.st3{fill:#489B91;}
	.st4{fill:#9BD2CA;}
	.st5{fill:#E9A6C9;}
	.st6{fill:#FBC089;}
	.st7{fill:#C7E2C0;}
</style>
<g id="base_grid">
	<circle class="st3" cx="776.4" cy="777.5" r="777"/>
</g>
<g id="design">
	<g>
		<circle class="st4" cx="535.5" cy="451.5" r="94.5"/>
		<circle class="st4" cx="1155" cy="399" r="126"/>
		<ellipse class="st4" cx="435.4" cy="1118.7" rx="162.4" ry="162.3"/>
		<path class="st4" d="M819.4,684.2c0,0.2,0,0.3,0,0.5c-0.1,1.3-0.2,2.6-0.2,3.9c0,0.2,0,0.5,0,0.7c0,1.3-0.1,2.6-0.1,4
			c0,58,47,105,105,105s105-47,105-105c0-1.3,0-2.7-0.1-4c0-0.2,0-0.5,0-0.7c-0.1-1.3-0.1-2.6-0.2-3.9c0-0.2,0-0.3,0-0.5
			c-0.2-2.8-0.6-5.5-1-8.2c0-0.1,0-0.1,0-0.2c-8.3-49.7-51.5-87.6-103.6-87.6s-95.3,37.9-103.6,87.6c0,0.1,0,0.1,0,0.2
			C820,678.7,819.6,681.4,819.4,684.2z"/>
		<path class="st4" d="M1218,630.3h-161.2c9.1,19.1,14.2,40.5,14.2,63c0,81.1-65.9,147-147,147s-147-65.9-147-147
			c0-22.5,5.1-43.9,14.2-63H336c-23.2,0-42,18.8-42,42v299.1c36.8-35.3,86.6-57,141.5-57c112.7,0,204.5,91.7,204.5,204.5
			c0,36.1-9.4,70-25.9,99.5h604c23.2,0,42-18.8,42-42v-504C1260,649.1,1241.2,630.3,1218,630.3z"/>
	</g>
</g>
</svg>
