<?xml version="1.0" encoding="utf-8"?>
<!-- Generator: Adobe Illustrator 25.2.3, SVG Export Plug-In . SVG Version: 6.00 Build 0)  -->
<svg version="1.1" xmlns="http://www.w3.org/2000/svg" xmlns:xlink="http://www.w3.org/1999/xlink" x="0px" y="0px"
	 viewBox="0 0 1554 1554" style="enable-background:new 0 0 1554 1554;" xml:space="preserve">
<style type="text/css">
	.st0{fill:#E34D99;}
	.st1{fill:#EC8231;}
	.st2{fill:#76BF60;}
	.st3{fill:#489B91;}
	.st4{fill:#9BD2CA;}
	.st5{fill:#E9A6C9;}
	.st6{fill:#FBC089;}
	.st7{fill:#C7E2C0;}
</style>
<g id="base_grid">
	<circle class="st0" cx="777" cy="777.5" r="777"/>
</g>
<g id="design">
	<g>
		<path class="st5" d="M273,1239c0,23.2,18.8,42,42,42h504c23.2,0,42-18.8,42-42V714H273V1239z"/>
		<path class="st5" d="M819,441h-63v-63c0-23.2-18.8-42-42-42H420c-23.2,0-42,18.8-42,42v63h-63c-23.2,0-42,18.8-42,42v147h588V483
			C861,459.8,842.2,441,819,441z"/>
		<path class="st5" d="M1123.5,441C966,440,966,558.2,966,651c0,73.1,43.8,109.3,105,121.3V1155c0,23.2,18.8,42,42,42h21
			c23.2,0,42-18.8,42-42V772.3c61.2-12,105-48.1,105-121.3C1281,558.2,1281,442,1123.5,441z"/>
	</g>
</g>
</svg>
