<?xml version="1.0" encoding="utf-8"?>
<!-- Generator: Adobe Illustrator 25.2.3, SVG Export Plug-In . SVG Version: 6.00 Build 0)  -->
<svg version="1.1" xmlns="http://www.w3.org/2000/svg" xmlns:xlink="http://www.w3.org/1999/xlink" x="0px" y="0px"
	 viewBox="0 0 1554 1554" style="enable-background:new 0 0 1554 1554;" xml:space="preserve">
<style type="text/css">
	.st0{fill:#E34D99;}
	.st1{fill:#EC8231;}
	.st2{fill:#76BF60;}
	.st3{fill:#489B91;}
	.st4{fill:#9BD2CA;}
	.st5{fill:#E9A6C9;}
	.st6{fill:#FBC089;}
	.st7{fill:#C7E2C0;}
</style>
<g id="base_grid">
	<circle class="st2" cx="777" cy="781.1" r="777"/>
</g>
<g id="design">
	<g>
		<path class="st7" d="M777,609c0,0,84-72.7,84-136.5S777,294,777,294s-84,114.7-84,178.5S777,609,777,609z"/>
		<path class="st7" d="M840.5,692.5c0,0,110.8,8,155.9-37.1c45.1-45.1,66.8-185.6,66.8-185.6s-140.5,21.7-185.6,66.8
			C832.6,581.6,840.5,692.5,840.5,692.5z"/>
		<path class="st7" d="M840.5,923.5c0,0,110.8,8,155.9-37.1c45.1-45.1,66.8-185.6,66.8-185.6s-140.5,21.7-185.6,66.8
			C832.6,812.6,840.5,923.5,840.5,923.5z"/>
		<path class="st7" d="M840.5,1154.5c0,0,110.8,8,155.9-37.1c45.1-45.1,66.8-185.6,66.8-185.6s-140.5,21.7-185.6,66.8
			C832.6,1043.6,840.5,1154.5,840.5,1154.5z"/>
		<path class="st7" d="M490.7,469.7c0,0,21.7,140.5,66.8,185.6c45.1,45.1,155.9,37.1,155.9,37.1s8-110.8-37.1-155.9
			C631.2,491.4,490.7,469.7,490.7,469.7z"/>
		<path class="st7" d="M490.7,700.7c0,0,21.7,140.5,66.8,185.6c45.1,45.1,155.9,37.1,155.9,37.1s8-110.8-37.1-155.9
			C631.2,722.4,490.7,700.7,490.7,700.7z"/>
		<path class="st7" d="M490.7,931.7c0,0,21.7,140.5,66.8,185.6c45.1,45.1,155.9,37.1,155.9,37.1s8-110.8-37.1-155.9
			C631.2,953.4,490.7,931.7,490.7,931.7z"/>
		<path class="st7" d="M777,630c-11.6,0-21,9.4-21,21v630h42V651C798,639.4,788.6,630,777,630z"/>
	</g>
</g>
</svg>
