<?xml version="1.0" encoding="utf-8"?>
<!-- Generator: Adobe Illustrator 25.2.3, SVG Export Plug-In . SVG Version: 6.00 Build 0)  -->
<svg version="1.1" xmlns="http://www.w3.org/2000/svg" xmlns:xlink="http://www.w3.org/1999/xlink" x="0px" y="0px"
	 viewBox="0 0 1554 1554" style="enable-background:new 0 0 1554 1554;" xml:space="preserve">
<style type="text/css">
	.st0{fill:#E34D99;}
	.st1{fill:#EC8231;}
	.st2{fill:#76BF60;}
	.st3{fill:#489B91;}
	.st4{fill:#9BD2CA;}
	.st5{fill:#E9A6C9;}
	.st6{fill:#FBC089;}
	.st7{fill:#C7E2C0;}
</style>
<g id="base_grid">
	<circle class="st3" cx="776.4" cy="778.4" r="777"/>
</g>
<g id="design">
	<path class="st4" d="M1176.2,502.9h-188c-23.1,0-41.8,18.7-41.8,41.8v83.6v193.2c0,5.1-1.8,9.9-5.2,13.8l-148.6,170.2
		c-24.1,24.8-39,58.6-39,95.8c0,76.1,62,137.8,138.4,137.8c37.2,0,70.9-14.6,95.8-38.3l211.7-211.2c11.8-11.8,18.4-27.6,18.4-44.3
		V628.2v-83.6C1218,521.6,1199.3,502.9,1176.2,502.9z M1176.2,945.2c0,5.6-2.2,10.8-6.1,14.8l-181.9,181.9l-138.5-138.5l123-140.6
		c10-11.4,15.5-26.1,15.5-41.3V628.2h188V945.2z"/>
	<path class="st4" d="M798,736.3V419.3v-83.6c0-23.1-18.6-41.8-41.6-41.8H567c-23,0-41.6,18.7-41.6,41.8v83.6v193.2
		c0,5.1-1.8,9.9-5.1,13.8L374.8,796.5c-24,24.8-38.8,58.6-38.8,95.8c0,76.1,61.7,137.8,137.8,137.8c37,0,70.6-14.6,95.3-38.3
		l210.6-211.2C791.5,768.8,798,753,798,736.3z M756.4,736.3c0,5.6-2.2,10.8-6.1,14.8L569.4,933L431.5,794.4l122.4-140.6
		c9.9-11.4,13.1-26.1,13.1-41.3V419.3h189.4V736.3z"/>
</g>
</svg>
