<?xml version="1.0" encoding="utf-8"?>
<!-- Generator: Adobe Illustrator 25.2.3, SVG Export Plug-In . SVG Version: 6.00 Build 0)  -->
<svg version="1.1" xmlns="http://www.w3.org/2000/svg" xmlns:xlink="http://www.w3.org/1999/xlink" x="0px" y="0px"
	 viewBox="0 0 1554 1554" style="enable-background:new 0 0 1554 1554;" xml:space="preserve">
<style type="text/css">
	.st0{fill:#E9A6C9;}
	.st1{fill:#FBC089;}
	.st2{fill:#C7E2C0;}
	.st3{fill:#9BD2CA;}
	.st4{fill:#489B91;}
	.st5{fill:#E34D99;}
	.st6{fill:#EC8231;}
	.st7{fill:#76BF60;}
</style>
<g id="base_grid">
	<circle class="st2" cx="797.4" cy="781.1" r="777"/>
</g>
<g id="design">
	<g>
		<path class="st7" d="M1134,315H420c-23.2,0-42,18.8-42,42v21h798v-21C1176,333.8,1157.2,315,1134,315z"/>
		<path class="st7" d="M378,1197c0,23.2,18.8,42,42,42h714c23.2,0,42-18.8,42-42v-21H378V1197z"/>
		<path class="st7" d="M777,567c-21,0-63,91.8-63,142.8c0,51,42,109.2,63,109.2s63-58.2,63-109.2C840,658.8,798,567,777,567z"/>
		<path class="st7" d="M399,399v756h756V399H399z M777,1029c-139.2,0-252-112.8-252-252s112.8-252,252-252s252,112.8,252,252
			S916.2,1029,777,1029z"/>
		<path class="st7" d="M570.5,759.5c-14.8,14.8,20.3,109.4,56.4,145.5s106.9,47.5,121.8,32.7c14.8-14.8,3.4-85.7-32.7-121.8
			S585.3,744.6,570.5,759.5z"/>
		<path class="st7" d="M805.3,937.7c14.8,14.8,85.7,3.4,121.8-32.7s71.3-130.7,56.4-145.5c-14.8-14.8-109.4,20.3-145.5,56.4
			S790.5,922.8,805.3,937.7z"/>
	</g>
</g>
</svg>
