<?xml version="1.0" encoding="utf-8"?>
<!-- Generator: Adobe Illustrator 25.2.3, SVG Export Plug-In . SVG Version: 6.00 Build 0)  -->
<svg version="1.1" xmlns="http://www.w3.org/2000/svg" xmlns:xlink="http://www.w3.org/1999/xlink" x="0px" y="0px"
	 viewBox="0 0 1554 1554" style="enable-background:new 0 0 1554 1554;" xml:space="preserve">
<style type="text/css">
	.st0{fill:#E9A6C9;}
	.st1{fill:#FBC089;}
	.st2{fill:#C7E2C0;}
	.st3{fill:#9BD2CA;}
	.st4{fill:#489B91;}
	.st5{fill:#E34D99;}
	.st6{fill:#EC8231;}
	.st7{fill:#76BF60;}
</style>
<g id="base_grid">
	<circle class="st0" cx="777" cy="777.5" r="777"/>
</g>
<g id="design">
	<g>
		<g>
			<path class="st5" d="M945,1239c0,23.2,18.8,42,42,42h231c23.2,0,42-18.8,42-42V861H945V1239z"/>
			<path class="st5" d="M1218,714h-63v-42h-1.1c0.7-3.4,1.1-6.9,1.1-10.5c0-29-23.5-52.5-52.5-52.5s-52.5,23.5-52.5,52.5
				c0,3.6,0.4,7.1,1.1,10.5h-1.1v42h-63c-23.2,0-42,18.8-42,42v63h315v-63C1260,732.8,1241.2,714,1218,714z"/>
		</g>
		<g>
			<path class="st5" d="M294,1239c0,23.2,18.8,42,42,42h231c23.2,0,42-18.8,42-42V861H294V1239z"/>
			<path class="st5" d="M567,714h-63v-42h-1.1c0.7-3.4,1.1-6.9,1.1-10.5c0-29-23.5-52.5-52.5-52.5S399,632.5,399,661.5
				c0,3.6,0.4,7.1,1.1,10.5H399v42h-63c-23.2,0-42,18.8-42,42v63h315v-63C609,732.8,590.2,714,567,714z"/>
		</g>
		<g>
			<path class="st5" d="M630,882c0,23.2,18.8,42,42,42h210c23.2,0,42-18.8,42-42V504H630V882z"/>
			<path class="st5" d="M882,357h-63v-42c0-23.2-18.8-42-42-42s-42,18.8-42,42v42h-63c-23.2,0-42,18.8-42,42v63h294v-63
				C924,375.8,905.2,357,882,357z"/>
		</g>
	</g>
</g>
</svg>
