<?xml version="1.0" encoding="utf-8"?>
<!-- Generator: Adobe Illustrator 25.2.3, SVG Export Plug-In . SVG Version: 6.00 Build 0)  -->
<svg version="1.1" xmlns="http://www.w3.org/2000/svg" xmlns:xlink="http://www.w3.org/1999/xlink" x="0px" y="0px"
	 viewBox="0 0 1554 1554" style="enable-background:new 0 0 1554 1554;" xml:space="preserve">
<style type="text/css">
	.st0{fill:#E9A6C9;}
	.st1{fill:#FBC089;}
	.st2{fill:#C7E2C0;}
	.st3{fill:#9BD2CA;}
	.st4{fill:#489B91;}
	.st5{fill:#E34D99;}
	.st6{fill:#EC8231;}
	.st7{fill:#76BF60;}
</style>
<g id="base_grid">
	<circle class="st3" cx="776.4" cy="778.4" r="777"/>
</g>
<g id="design">
	<g>
		<path class="st4" d="M1197,987V630c0-23.2-18.8-42-42-42H966c-23.2,0-42,18.8-42,42v357c0,23.2,18.8,42,42,42h189
			C1178.2,1029,1197,1010.2,1197,987z"/>
		<path class="st4" d="M693,483H357c-23.2,0-42,18.8-42,42v651c0,23.2,18.8,42,42,42h336c23.2,0,42-18.8,42-42V525
			C735,501.8,716.2,483,693,483z M672,1134H378V567h294V1134z"/>
		<path class="st4" d="M609,357c0-23.2-18.8-42-42-42h-84c-23.2,0-42,18.8-42,42v84h168V357z"/>
		<circle class="st4" cx="1123.5" cy="388.5" r="73.5"/>
		<circle class="st4" cx="861" cy="1029" r="42"/>
		<circle class="st4" cx="892.5" cy="514.5" r="52.5"/>
		<circle class="st4" cx="1155" cy="1155" r="84"/>
		<circle class="st4" cx="451.5" cy="1039.5" r="52.5"/>
		<circle class="st4" cx="462" cy="672" r="42"/>
		<circle class="st4" cx="567" cy="840" r="84"/>
	</g>
</g>
</svg>
