<?xml version="1.0" encoding="utf-8"?>
<!-- Generator: Adobe Illustrator 25.2.3, SVG Export Plug-In . SVG Version: 6.00 Build 0)  -->
<svg version="1.1" xmlns="http://www.w3.org/2000/svg" xmlns:xlink="http://www.w3.org/1999/xlink" x="0px" y="0px"
	 viewBox="0 0 1554 1554" style="enable-background:new 0 0 1554 1554;" xml:space="preserve">
<style type="text/css">
	.st0{fill:#E9A6C9;}
	.st1{fill:#FBC089;}
	.st2{fill:#C7E2C0;}
	.st3{fill:#9BD2CA;}
	.st4{fill:#489B91;}
	.st5{fill:#E34D99;}
	.st6{fill:#EC8231;}
	.st7{fill:#76BF60;}
</style>
<g id="base_grid">
	<circle class="st0" cx="777" cy="778.4" r="777"/>
</g>
<g id="design">
	<path class="st5" d="M1247.7,496.4c0,0-124.4-129.1-155.7-160.4c-21-21-21-21-105-21c-11.1,0-25.4,0-42,0c0,0-16.4,0-42.5,0
		c0,0,0.5,63-125.5,63s-125.5-63-125.5-63c-15.2,0-29.5,0-42.5,0c-16.6,0-30.9,0-42,0c-84,0-84,0-105,21
		c-31.3,31.3-155.7,160.4-155.7,160.4c-16.4,16.4-16.4,43,0,59.4l103.9,103.9c16.4,16.4,43,16.4,59.4,0l55.4-55.4V1050
		c0,4.3,0.7,8.5,1.9,12.5c4.7,15.1,17.7,26.6,33.7,29c2.1,0.3,4.2,0.5,6.4,0.5c0,0,105,0,105,105c0,23.2,18.8,42,42,42h126
		c23.2,0,42-18.8,42-42c0-105,105-105,105-105c2.2,0,4.3-0.2,6.4-0.5c16-2.4,29-13.9,33.7-29c1.2-3.9,1.9-8.1,1.9-12.5V604.3
		l55.4,55.4c16.4,16.4,43,16.4,59.4,0l103.9-103.9C1264.1,539.4,1264.1,512.8,1247.7,496.4z"/>
</g>
</svg>
