<?xml version="1.0" encoding="utf-8"?>
<!-- Generator: Adobe Illustrator 25.2.3, SVG Export Plug-In . SVG Version: 6.00 Build 0)  -->
<svg version="1.1" xmlns="http://www.w3.org/2000/svg" xmlns:xlink="http://www.w3.org/1999/xlink" x="0px" y="0px"
	 viewBox="0 0 1554 1554" style="enable-background:new 0 0 1554 1554;" xml:space="preserve">
<style type="text/css">
	.st0{fill:#E9A6C9;}
	.st1{fill:#FBC089;}
	.st2{fill:#C7E2C0;}
	.st3{fill:#9BD2CA;}
	.st4{fill:#489B91;}
	.st5{fill:#E34D99;}
	.st6{fill:#EC8231;}
	.st7{fill:#76BF60;}
</style>
<g id="base_grid">
	<circle class="st2" cx="776.4" cy="779.2" r="777"/>
</g>
<g id="design">
	<g>
		<path class="st7" d="M756,336h-21c-23.1,0-42,18.9-42,42v168h-63V315c0-23.1-18.9-42-42-42h-21c-23.1,0-42,18.9-42,42v231h-63V378
			c0-23.1-18.9-42-42-42h-21c-23.1,0-42,18.9-42,42v168v63c0,23.1,18.9,42,42,42h21h105v588c0,23.1,18.9,42,42,42h21
			c23.1,0,42-18.9,42-42V651h105h21c23.1,0,42-18.9,42-42v-63V378C798,354.9,779.1,336,756,336z"/>
		<path class="st7" d="M1134,273h-21c-156.2,0-197.6,358.5-207.3,483H903v42h168v441c0,23.2,18.8,42,42,42h21c23.2,0,42-18.8,42-42
			V315C1176,291.8,1157.2,273,1134,273z"/>
	</g>
</g>
</svg>
