<?xml version="1.0" encoding="utf-8"?>
<!-- Generator: Adobe Illustrator 25.2.3, SVG Export Plug-In . SVG Version: 6.00 Build 0)  -->
<svg version="1.1" xmlns="http://www.w3.org/2000/svg" xmlns:xlink="http://www.w3.org/1999/xlink" x="0px" y="0px"
	 viewBox="0 0 1554 1554" style="enable-background:new 0 0 1554 1554;" xml:space="preserve">
<style type="text/css">
	.st0{fill:#E9A6C9;}
	.st1{fill:#FBC089;}
	.st2{fill:#C7E2C0;}
	.st3{fill:#9BD2CA;}
	.st4{fill:#489B91;}
	.st5{fill:#E34D99;}
	.st6{fill:#EC8231;}
	.st7{fill:#76BF60;}
</style>
<g id="base_grid">
	<circle class="st1" cx="777" cy="775.7" r="777"/>
</g>
<g id="design">
	<g>
		<path class="st6" d="M711.6,653c154.3,0,288-31.5,353.6-77.4c9.4,18.4,23.7,38.1,42.1,56.5c46.8,46.8,102,67.5,123.3,46.2
			s0.6-76.5-46.2-123.3c-19.5-19.5-40.4-34.4-59.7-43.7c19.3-9.3,40.2-24.2,59.7-43.7c46.8-46.8,67.5-102,46.2-123.3
			s-76.5-0.6-123.3,46.2c-18.4,18.4-32.8,38.1-42.1,56.5c-65.6-46-199.3-77.4-353.6-77.4c-219,0-396.6,63.4-396.6,141.7
			C315,589.6,492.6,653,711.6,653z M389.1,456.9c12,0,21.8,9.8,21.8,21.8s-9.8,21.8-21.8,21.8c-12,0-21.8-9.8-21.8-21.8
			S377.1,456.9,389.1,456.9z"/>
		<path class="st6" d="M1260,798v-21c0-23.2-18.8-42-42-42H336c-23.2,0-42,18.8-42,42v21c0,15.5,8.4,29.1,21,36.4v284.3
			c-12.6,7.3-21,20.8-21,36.4v21c0,23.2,18.8,42,42,42h882c23.2,0,42-18.8,42-42v-21c0-15.5-8.4-29.1-21-36.4V834.4
			C1251.6,827.1,1260,813.5,1260,798z M777,1092c-118.9,0-215.2-47-215.2-105c0-58,96.4-105,215.2-105s215.2,47,215.2,105
			C992.2,1045,895.9,1092,777,1092z"/>
	</g>
</g>
</svg>
