<?xml version="1.0" encoding="utf-8"?>
<!-- Generator: Adobe Illustrator 25.2.3, SVG Export Plug-In . SVG Version: 6.00 Build 0)  -->
<svg version="1.1" xmlns="http://www.w3.org/2000/svg" xmlns:xlink="http://www.w3.org/1999/xlink" x="0px" y="0px"
	 viewBox="0 0 1554 1554" style="enable-background:new 0 0 1554 1554;" xml:space="preserve">
<style type="text/css">
	.st0{fill:#E9A6C9;}
	.st1{fill:#FBC089;}
	.st2{fill:#C7E2C0;}
	.st3{fill:#9BD2CA;}
	.st4{fill:#489B91;}
	.st5{fill:#E34D99;}
	.st6{fill:#EC8231;}
	.st7{fill:#76BF60;}
</style>
<g id="base_grid">
	<circle class="st0" cx="777.6" cy="778.4" r="777"/>
</g>
<g id="design">
	<path class="st5" d="M1260,441v-63c0-23.2-18.8-42-42-42H336c-23.2,0-42,18.8-42,42v63h315v84H294v42v63v294
		c0,4.3,0.7,8.5,2.1,12.5c5.2,15.1,19.5,26.6,37.1,29c2.3,0.3,4.6,0.5,7,0.5c0,0,226.8,0,226.8,252c0,23.2,20.7,42,46.2,42H777
		h163.8c25.5,0,46.2-18.8,46.2-42c0-252,226.8-252,226.8-252c2.4,0,4.7-0.2,7-0.5c17.6-2.4,31.9-13.9,37.1-29
		c1.3-3.9,2.1-8.1,2.1-12.5V630v-63v-43.6H945V441H1260z"/>
</g>
</svg>
