<?xml version="1.0" encoding="utf-8"?>
<!-- Generator: Adobe Illustrator 25.2.3, SVG Export Plug-In . SVG Version: 6.00 Build 0)  -->
<svg version="1.1" xmlns="http://www.w3.org/2000/svg" xmlns:xlink="http://www.w3.org/1999/xlink" x="0px" y="0px"
	 viewBox="0 0 1554 1554" style="enable-background:new 0 0 1554 1554;" xml:space="preserve">
<style type="text/css">
	.st0{fill:#E9A6C9;}
	.st1{fill:#FBC089;}
	.st2{fill:#C7E2C0;}
	.st3{fill:#9BD2CA;}
	.st4{fill:#489B91;}
	.st5{fill:#E34D99;}
	.st6{fill:#EC8231;}
	.st7{fill:#76BF60;}
</style>
<g id="base_grid">
	<circle class="st0" cx="777" cy="777.5" r="777"/>
</g>
<g id="design">
	<g>
		<path class="st5" d="M1197,273H357c-23.2,0-42,18.8-42,42v126h924V315C1239,291.8,1220.2,273,1197,273z"/>
		<path class="st5" d="M315,1239c0,23.2,18.8,42,42,42h840c23.2,0,42-18.8,42-42V525H315V1239z M815.8,621.3
			c16.4-16.4,43-16.4,59.4,0l44.5,44.5l29.7-29.7l0.7,0.7c1.9-2.9,4.1-5.6,6.7-8.2c20.5-20.5,53.7-20.5,74.2,0
			c20.5,20.5,20.5,53.7,0,74.2c-2.5,2.5-5.3,4.8-8.2,6.7l0.7,0.7L994,740.1l44.5,44.5c16.4,16.4,16.4,43,0,59.4L994,888.6
			L771.3,665.8L815.8,621.3z M474.3,962.8l267.3-267.3l222.7,222.7L697,1185.6c-16.4,16.4-43,16.4-59.4,0l-163.3-163.3
			C457.9,1005.8,457.9,979.2,474.3,962.8z"/>
	</g>
</g>
</svg>
