<?xml version="1.0" encoding="utf-8"?>
<!-- Generator: Adobe Illustrator 25.2.3, SVG Export Plug-In . SVG Version: 6.00 Build 0)  -->
<svg version="1.1" xmlns="http://www.w3.org/2000/svg" xmlns:xlink="http://www.w3.org/1999/xlink" x="0px" y="0px"
	 viewBox="0 0 1554 1554" style="enable-background:new 0 0 1554 1554;" xml:space="preserve">
<style type="text/css">
	.st0{fill:#E9A6C9;}
	.st1{fill:#FBC089;}
	.st2{fill:#C7E2C0;}
	.st3{fill:#9BD2CA;}
	.st4{fill:#489B91;}
	.st5{fill:#E34D99;}
	.st6{fill:#EC8231;}
	.st7{fill:#76BF60;}
</style>
<g id="base_grid">
	<circle class="st2" cx="776.4" cy="780.1" r="777"/>
</g>
<g id="design">
	<g>
		<path class="st7" d="M629.9,535.5c0.1-3.2,0.1-6.1,0.1-9c0-92.2-23-161.3-68.4-205.4c-43.4-42.2-92.8-46.1-102.7-46.4
			c-10-1.2-34.5-3.4-61.5,0.2c-42.8,5.8-73.6,24-88.8,52.6c-14.9,27.9-18.3,56.6-10.5,88c6.4,25.6,19.3,48.8,30.7,69.2
			c10.9,19.5,21.1,37.9,21.4,51c0.3,14.6-10.6,33.9-22,54.3c-11.2,20-23.9,42.6-30.1,67.4c-7.5,30.4-4.1,58.4,10.5,85.8
			c15.3,28.6,46,46.8,88.8,52.6c27,3.6,51.5,1.5,61.5,0.2c9.9-0.4,59.3-4.3,102.7-46.4c45.4-44,68.4-113.1,68.4-205.4
			C630,541.6,630,538.7,629.9,535.5z M402,609.4c-23.9,0-43.2-32.9-43.2-73.6c0-40.6,19.3-73.6,43.2-73.6s43.2,32.9,43.2,73.6
			C445.1,576.4,425.8,609.4,402,609.4z"/>
		<path class="st7" d="M1260,526.5c0-92.2-23-161.3-68.4-205.4c-43.4-42.2-92.8-46.1-102.7-46.4c-10-1.2-34.5-3.4-61.5,0.2
			c-42.8,5.8-73.6,24-88.8,52.6c-14.9,27.9-18.3,56.6-10.5,88c6.4,25.6,19.3,48.8,30.7,69.2c10.9,19.5,21.1,37.9,21.4,51
			c0.3,14.6-10.6,33.9-22,54.3c-11.2,20-23.9,42.6-30.1,67.4c-7.5,30.4-4.1,58.4,10.5,85.8c15.3,28.6,46,46.8,88.8,52.6
			c27,3.6,51.5,1.5,61.5,0.2c9.9-0.4,59.3-4.3,102.7-46.4c45.4-44,68.4-113.1,68.4-205.4c0-2.8,0-5.7-0.1-9
			C1260,532.3,1260,529.4,1260,526.5z M1032,609.4c-23.9,0-43.2-32.9-43.2-73.6c0-40.6,19.3-73.6,43.2-73.6s43.2,32.9,43.2,73.6
			C1075.1,576.4,1055.8,609.4,1032,609.4z"/>
		<path class="st7" d="M855.6,804.2c-43.4-42.2-92.8-46.1-102.7-46.4c-10-1.2-34.5-3.4-61.5,0.2c-42.8,5.8-73.6,24-88.8,52.6
			c-14.9,27.9-18.3,56.6-10.5,88c6.4,25.6,19.3,48.8,30.7,69.2c10.9,19.5,21.1,37.9,21.4,51c0.3,14.6-10.6,33.9-22,54.3
			c-11.2,20-23.9,42.6-30.1,67.4c-7.5,30.4-4.1,58.4,10.5,85.8c15.3,28.6,46,46.8,88.8,52.6c27,3.6,51.5,1.5,61.5,0.2
			c9.9-0.4,59.3-4.3,102.7-46.4c45.4-44,68.4-113.1,68.4-205.3c0-2.8,0-5.7-0.1-9c0.1-3.2,0.1-6.1,0.1-9
			C924,917.3,901,848.2,855.6,804.2z M696,1092.4c-23.9,0-43.2-32.9-43.2-73.6c0-40.6,19.3-73.6,43.2-73.6s43.2,32.9,43.2,73.6
			C739.1,1059.4,719.8,1092.4,696,1092.4z"/>
	</g>
</g>
</svg>
