<?xml version="1.0" encoding="utf-8"?>
<!-- Generator: Adobe Illustrator 25.2.3, SVG Export Plug-In . SVG Version: 6.00 Build 0)  -->
<svg version="1.1" xmlns="http://www.w3.org/2000/svg" xmlns:xlink="http://www.w3.org/1999/xlink" x="0px" y="0px"
	 viewBox="0 0 1554 1554" style="enable-background:new 0 0 1554 1554;" xml:space="preserve">
<style type="text/css">
	.st0{fill:#E34D99;}
	.st1{fill:#EC8231;}
	.st2{fill:#76BF60;}
	.st3{fill:#489B91;}
	.st4{fill:#9BD2CA;}
	.st5{fill:#E9A6C9;}
	.st6{fill:#FBC089;}
	.st7{fill:#C7E2C0;}
</style>
<g id="base_grid">
	<circle class="st0" cx="777" cy="778.4" r="777"/>
</g>
<g id="design">
	<g>
		<path class="st5" d="M567,588H336c-23.2,0-42,18.8-42,42v609c0,23.2,18.8,42,42,42h231c23.2,0,42-18.8,42-42V630
			C609,606.8,590.2,588,567,588z"/>
		<path class="st5" d="M567,504c0-23.2-18.8-42-42-42H378c-23.2,0-42,18.8-42,42v42h231V504z"/>
		<circle class="st5" cx="367.5" cy="367.5" r="10.5"/>
		<circle class="st5" cx="409.5" cy="409.5" r="10.5"/>
		<circle class="st5" cx="535.5" cy="367.5" r="10.5"/>
		<circle class="st5" cx="409.5" cy="325.5" r="10.5"/>
		<circle class="st5" cx="451.5" cy="367.5" r="10.5"/>
		<circle class="st5" cx="493.5" cy="409.5" r="10.5"/>
		<circle class="st5" cx="493.5" cy="325.5" r="10.5"/>
		<path class="st5" d="M1218,924h-63v-10.5v-21v-84c0-23.2-18.8-42-42-42h-42V714c0-23.2-18.8-42-42-42h-42
			c-21.6,0-39.4,16.3-41.7,37.3c-6.2-3.7-13.5-5.8-21.3-5.8h-42c-23.2,0-42,18.8-42,42v21h-42c-23.2,0-42,18.8-42,42v84v21V924h-63
			c-23.2,0-42,18.8-42,42v315h609V966C1260,942.8,1241.2,924,1218,924z M1197,1113H714V987h42v84h399v-84h42V1113z"/>
	</g>
</g>
</svg>
