<?xml version="1.0" encoding="utf-8"?>
<!-- Generator: Adobe Illustrator 25.2.3, SVG Export Plug-In . SVG Version: 6.00 Build 0)  -->
<svg version="1.1" xmlns="http://www.w3.org/2000/svg" xmlns:xlink="http://www.w3.org/1999/xlink" x="0px" y="0px"
	 viewBox="0 0 1554 1554" style="enable-background:new 0 0 1554 1554;" xml:space="preserve">
<style type="text/css">
	.st0{fill:#E34D99;}
	.st1{fill:#EC8231;}
	.st2{fill:#76BF60;}
	.st3{fill:#489B91;}
	.st4{fill:#9BD2CA;}
	.st5{fill:#E9A6C9;}
	.st6{fill:#FBC089;}
	.st7{fill:#C7E2C0;}
</style>
<g id="base_grid">
	<circle class="st1" cx="777" cy="774.8" r="777"/>
</g>
<g id="design">
	<g>
		<path class="st6" d="M638.4,547.3c5.7,5.6,8.4,13.6,7,21.5l-20.1,116.8c-3.4,19.8,17.5,35,35.3,25.6L765.7,656
			c7.1-3.7,15.6-3.7,22.7,0l105.1,55.1c17.9,9.4,38.7-5.8,35.3-25.6l-20.1-116.8c-1.4-7.9,1.3-15.9,7-21.5l85-82.7
			c14.4-14.1,6.5-38.5-13.5-41.4l-117.5-17c-7.9-1.1-14.8-6.1-18.3-13.3l-52.5-106.2c-8.9-18.1-34.7-18.1-43.7,0l-52.5,106.2
			c-3.5,7.2-10.4,12.1-18.3,13.3l-117.5,17c-20,2.9-27.9,27.4-13.5,41.4L638.4,547.3z"/>
		<path class="st6" d="M273,756v357c0,23.2,18.8,42,42,42h249.2l-1,2c-80.2,16.2-80.1,124-80.1,124h19.2h549.5h19.2
			c0,0,0.1-107.7-80.1-124l-1-2H1239c23.2,0,42-18.8,42-42V756H273z"/>
	</g>
</g>
</svg>
