<?xml version="1.0" encoding="utf-8"?>
<!-- Generator: Adobe Illustrator 25.2.3, SVG Export Plug-In . SVG Version: 6.00 Build 0)  -->
<svg version="1.1" xmlns="http://www.w3.org/2000/svg" xmlns:xlink="http://www.w3.org/1999/xlink" x="0px" y="0px"
	 viewBox="0 0 1554 1554" style="enable-background:new 0 0 1554 1554;" xml:space="preserve">
<style type="text/css">
	.st0{fill:#E9A6C9;}
	.st1{fill:#FBC089;}
	.st2{fill:#C7E2C0;}
	.st3{fill:#9BD2CA;}
	.st4{fill:#489B91;}
	.st5{fill:#E34D99;}
	.st6{fill:#EC8231;}
	.st7{fill:#76BF60;}
</style>
<g id="base_grid">
	<circle class="st1" cx="777" cy="775.7" r="777"/>
</g>
<g id="design">
	<path class="st6" d="M1050,420H945v-84c0-23.2-18.8-42-42-42H651c-23.2,0-42,18.8-42,42v84H504c-23.2,0-42,18.8-42,42v210v21v546
		c0,23.2,18.8,42,42,42h546c23.2,0,42-18.8,42-42V693v-21V462C1092,438.8,1073.2,420,1050,420z M882,1008c0,23.2-18.8,42-42,42H714
		c-23.2,0-42-18.8-42-42V882h210V1008z M882,798H672V672c0-23.2,18.8-42,42-42h126c23.2,0,42,18.8,42,42V798z"/>
</g>
</svg>
