<?xml version="1.0" encoding="utf-8"?>
<!-- Generator: Adobe Illustrator 25.2.3, SVG Export Plug-In . SVG Version: 6.00 Build 0)  -->
<svg version="1.1" xmlns="http://www.w3.org/2000/svg" xmlns:xlink="http://www.w3.org/1999/xlink" x="0px" y="0px"
	 viewBox="0 0 1554 1554" style="enable-background:new 0 0 1554 1554;" xml:space="preserve">
<style type="text/css">
	.st0{fill:#E34D99;}
	.st1{fill:#EC8231;}
	.st2{fill:#76BF60;}
	.st3{fill:#489B91;}
	.st4{fill:#9BD2CA;}
	.st5{fill:#E9A6C9;}
	.st6{fill:#FBC089;}
	.st7{fill:#C7E2C0;}
</style>
<g id="base_grid">
	<circle class="st1" cx="777" cy="776.6" r="777"/>
</g>
<g id="design">
	<g>
		<path class="st6" d="M483,882h-21V504h42V399H399v105h42v378h-21c-42,0-126,63-126,105v231c0,23.2,18.8,42,42,42h231
			c23.2,0,42-18.8,42-42V987C609,945,525,882,483,882z"/>
		<rect x="735" y="294" class="st6" width="441" height="84"/>
		<path class="st6" d="M1176,420H735l-84,231v567c0,23.2,18.8,42,42,42h525c23.2,0,42-18.8,42-42V651L1176,420z M1197,1197H714V651
			h483V1197z"/>
		<path class="st6" d="M806.3,855.1c25.8-25.8,52.3-25.8,75.7-25.8c22,0,41,0,60.6-19.6c27-27,36.7-60.2,40.3-80.3
			c-39.2-31.5-113-13.5-169,42.4c-50.8,50.8-70.3,116.3-49.9,157.3C770.1,907,782.2,879.2,806.3,855.1z"/>
		<path class="st6" d="M882,850.7c-22,0-41,0-60.6,19.6c-27,27-36.7,60.2-40.3,80.3c39.2,31.5,113,13.5,169-42.4
			c50.8-50.8,70.3-116.3,49.9-157.3c-6.1,22.1-18.3,49.9-42.3,74C931.9,850.7,905.4,850.7,882,850.7z"/>
		<path class="st6" d="M911,1118.1c6.1-22.1,18.3-49.9,42.3-74c25.8-25.8,52.3-25.8,75.7-25.8c22,0,41,0,60.6-19.6
			c27-27,36.7-60.2,40.3-80.3c-39.2-31.5-113-13.5-169,42.4C910.1,1011.7,890.6,1077.1,911,1118.1z"/>
		<path class="st6" d="M1029,1039.7c-22,0-41,0-60.6,19.6c-27,27-36.7,60.2-40.3,80.3c39.2,31.5,113,13.5,169-42.4
			c50.8-50.8,70.3-116.3,49.9-157.3c-6.1,22.1-18.3,49.9-42.3,74C1078.9,1039.7,1052.4,1039.7,1029,1039.7z"/>
	</g>
</g>
</svg>
