<?xml version="1.0" encoding="utf-8"?>
<!-- Generator: Adobe Illustrator 25.2.3, SVG Export Plug-In . SVG Version: 6.00 Build 0)  -->
<svg version="1.1" xmlns="http://www.w3.org/2000/svg" xmlns:xlink="http://www.w3.org/1999/xlink" x="0px" y="0px"
	 viewBox="0 0 2400 600" style="enable-background:new 0 0 2400 600;" xml:space="preserve">
<style type="text/css">
	.st0{fill:#BEA3CC;}
	.st1{fill:#442856;}
	.st2{fill:#D695C0;}
	.st3{fill:#785089;}
	.st4{fill:none;stroke:#442856;stroke-width:15;stroke-miterlimit:10;}
	.st5{fill:#E34D99;}
	.st6{fill:#EC8231;}
	.st7{fill:#76BF60;}
	.st8{fill:#489B91;}
	.st9{fill:none;stroke:#BEA3CC;stroke-width:15;stroke-linecap:round;stroke-miterlimit:10;stroke-dasharray:12,21;}
	.st10{clip-path:url(#SVGID_2_);}
	.st11{fill:none;stroke:#D695C0;stroke-width:16;stroke-miterlimit:10;}
	.st12{fill:none;stroke:#785089;stroke-width:15;stroke-linecap:round;stroke-miterlimit:10;}
	.st13{fill:#C7E2C0;}
	.st14{fill:#9BD2CA;}
	.st15{fill:#FBC089;}
	.st16{fill:#E9A6C9;}
	.st17{fill:#F0CEE2;}
	.st18{fill:none;stroke:#442856;stroke-width:15;stroke-linecap:round;stroke-miterlimit:10;}
</style>
<g id="Layer_1">
	<g>
		<path class="st1" d="M1415.6,543.3c-2.5,0-5-0.1-7.6-0.3c-25.3-2-51.1-13.7-76.7-34.9c-20.5-16.9-35.5-35.4-43.6-45.4
			c-1.8-2.3-3.3-4-4.2-5c-2.5-2.8-2.3-7.1,0.5-9.7c2.8-2.5,7.1-2.3,9.7,0.5c1.1,1.3,2.6,3.1,4.6,5.6c57.9,71.2,97.7,74.3,110.8,75.3
			c25.6,2,50.6-7.9,74.3-29.3l63.1-56.9l4.6,5.1c0.2,0.2,4.2,4.8-0.5,9.6l0,0c0,0-0.2,0.2-0.5,0.5c0,0,0,0,0,0l-0.6,0.5
			c-3.5,3.1-16.2,14.6-56.9,51.3C1468.3,532.2,1442.4,543.3,1415.6,543.3z"/>
		<path class="st1" d="M1490.6,483.9c-1.9,0-3.7-0.8-5.1-2.3c-2.5-2.8-2.3-7.1,0.5-9.7l56.9-51.3c2.8-2.5,7.1-2.3,9.7,0.5
			c2.5,2.8,2.3,7.1-0.5,9.7l-56.9,51.3C1493.8,483.4,1492.2,483.9,1490.6,483.9z"/>
		<path class="st1" d="M1477.8,469.7c-1.9,0-3.7-0.8-5.1-2.3c-2.5-2.8-2.3-7.1,0.5-9.7l56.9-51.3c2.8-2.5,7.1-2.3,9.7,0.5
			c2.5,2.8,2.3,7.1-0.5,9.7l-56.9,51.3C1481,469.2,1479.4,469.7,1477.8,469.7z"/>
		<path class="st1" d="M1452.1,441.3c-1.9,0-3.7-0.8-5.1-2.3c-2.5-2.8-2.3-7.1,0.5-9.7l28.4-25.6c2.8-2.5,7.1-2.3,9.7,0.5
			c2.5,2.8,2.3,7.1-0.5,9.7l-28.4,25.6C1455.4,440.7,1453.8,441.3,1452.1,441.3z"/>
		<path class="st1" d="M1464.9,455.5c-1.9,0-3.7-0.8-5.1-2.3c-2.5-2.8-2.3-7.1,0.5-9.7l56.9-51.3c2.8-2.5,7.1-2.3,9.7,0.5
			c2.5,2.8,2.3,7.1-0.5,9.7l-56.9,51.3C1468.2,454.9,1466.6,455.5,1464.9,455.5z"/>
	</g>
	<g>
		<path class="st1" d="M984.6,543.3c2.5,0,5-0.1,7.6-0.3c25.3-2,51.1-13.7,76.7-34.9c20.5-16.9,35.5-35.4,43.6-45.4
			c1.8-2.3,3.3-4,4.2-5c2.5-2.8,2.3-7.1-0.5-9.7c-2.8-2.5-7.1-2.3-9.7,0.5c-1.1,1.3-2.6,3.1-4.6,5.6
			c-57.9,71.2-97.7,74.3-110.8,75.3c-25.6,2-50.6-7.9-74.3-29.3l-63.1-56.9l-4.6,5.1c-0.2,0.2-4.2,4.8,0.5,9.6l0,0
			c0,0,0.2,0.2,0.5,0.5c0,0,0,0,0,0l0.6,0.5c3.5,3.1,16.2,14.6,56.9,51.3C932,532.2,957.9,543.3,984.6,543.3z"/>
		<path class="st1" d="M909.7,483.9c1.9,0,3.7-0.8,5.1-2.3c2.5-2.8,2.3-7.1-0.5-9.7l-56.9-51.3c-2.8-2.5-7.1-2.3-9.7,0.5
			c-2.5,2.8-2.3,7.1,0.5,9.7l56.9,51.3C906.4,483.4,908,483.9,909.7,483.9z"/>
		<path class="st1" d="M922.5,469.7c1.9,0,3.7-0.8,5.1-2.3c2.5-2.8,2.3-7.1-0.5-9.7l-56.9-51.3c-2.8-2.5-7.1-2.3-9.7,0.5
			c-2.5,2.8-2.3,7.1,0.5,9.7l56.9,51.3C919.2,469.2,920.9,469.7,922.5,469.7z"/>
		<path class="st1" d="M948.1,441.3c1.9,0,3.7-0.8,5.1-2.3c2.5-2.8,2.3-7.1-0.5-9.7l-28.4-25.6c-2.8-2.5-7.1-2.3-9.7,0.5
			c-2.5,2.8-2.3,7.1,0.5,9.7l28.4,25.6C944.8,440.7,946.5,441.3,948.1,441.3z"/>
		<path class="st1" d="M935.3,455.5c1.9,0,3.7-0.8,5.1-2.3c2.5-2.8,2.3-7.1-0.5-9.7L883,392.4c-2.8-2.5-7.1-2.3-9.7,0.5
			c-2.5,2.8-2.3,7.1,0.5,9.7l56.9,51.3C932,454.9,933.7,455.5,935.3,455.5z"/>
	</g>
	<g>
		<path class="st1" d="M1346.2,220.8c4.4-28.8-14.4-56.5-43.3-62.6c-5.5-1.2-11.2-1.5-16.8-1c-5.8-19.1-21.4-33.8-41.5-38.1
			c-7.9-1.7-15.9-1.6-23.7,0.1c-7.9-12.5-21.5-20.8-36.6-21.8c-19.4-1.3-36.9,9.2-45.2,26c-30.6-7.9-61.2,11.6-67.7,42.2
			c-0.7,3.4-2.2,7.1-3.4,9.4c-35.3-5-69,18.2-76.6,53.5c-2.6,12.1,0.9,27.3,5.4,40.8c-16.6,2.8-30.7,15.5-34.4,33
			c-4.9,22.9,9.8,45.4,32.6,50.2c11.3,2.4,22.7,0.1,32-6.1c7.9,10,19,16.9,31.8,19.6c14.4,3.1,29.2,0.2,41.4-7.6
			c16.9,22.1,41.4,38.5,70.7,44.7c60,12.7,119.2-21.7,138.9-78.2c3.3,1.4,6.7,2.5,10.3,3.3c29.9,6.3,59.4-12.8,65.7-42.7
			C1391.9,257,1374.3,228.5,1346.2,220.8z M1294.8,306.5c0,0.1-0.1,0.3-0.1,0.4l0,0c-0.1,0.5-0.3,0.9-0.4,1.4l-0.9,3.8
			c-13.9,51.3-65.8,83.4-118.4,72.3c-54.5-11.6-89.4-65.3-77.8-119.8c11.6-54.5,65.3-89.4,119.8-77.8
			C1271.4,198.2,1306.3,252,1294.8,306.5z M1366.7,281.7c-4.1,19.3-23.2,31.7-42.5,27.6c-3.3-0.7-6.4-1.8-9.4-3.4
			c11-63.4-30.3-124.9-93.8-138.4c-65-13.8-129.2,27.9-143,92.9c-6.1,28.9-1.3,57.6,11.7,81.9c-7.9,5-17.4,6.9-26.7,4.9
			c-11-2.3-20-9.5-24.9-19.7l-6.7-14l-9.8,12.1c-5.5,6.8-14.1,9.9-22.4,8.1c-12.3-2.6-20.2-14.8-17.6-27.1
			c2.6-12.3,14.8-20.2,27.1-17.6l5.7,1.2l3.8-4.4c3.9-4.5,2.2-8.9,0.5-13.6c-2.6-6.9-10.4-28-8-39.5c5.6-26.4,31.6-43.3,58-37.7
			c15.8,3.3,21.8-24.1,22-25.3c4.1-19.3,23.2-31.7,42.5-27.6c2.6,0.6,5.2,1.4,7.8,2.7l11,5.2l2.7-11.8c3-13.1,15-22,28.5-21.1
			c10.6,0.7,19.9,7.6,23.7,17.6l3.6,9.3l9.2-3.8c6.6-2.7,13.9-3.3,20.9-1.8c15.3,3.2,26.6,15.8,28.2,31.4l1.2,11.7l11.3-3.4
			c5.7-1.7,11.8-1.9,17.6-0.7c19.3,4.1,31.7,23.2,27.6,42.5c-1.6,7.6,5,17.7,12.6,19.3C1358.4,243.3,1370.8,262.4,1366.7,281.7z"/>
		
			<ellipse transform="matrix(0.9958 -9.180736e-02 9.180736e-02 0.9958 -19.8738 108.2676)" class="st1" cx="1166.9" cy="270.1" rx="16.3" ry="16.3"/>
		<ellipse transform="matrix(0.895 -0.446 0.446 0.895 7.857 577.1252)" class="st1" cx="1229.9" cy="271.9" rx="16.3" ry="16.3"/>
		<path class="st1" d="M1227.7,305.6c-3.2-0.6-6.4,1.5-7,4.7c-0.3,1.6-3.9,15.8-23.4,15.3c-20.9-0.5-25-13.6-25.2-14.3
			c-0.9-3.2-4.1-5.1-7.3-4.2c-3.2,0.8-5.1,4.1-4.3,7.3c0.2,0.9,6.1,22.5,36.5,23.3c0.4,0,0.9,0,1.3,0c23.2,0,32.5-16.2,34.2-25
			C1233.1,309.4,1231,306.3,1227.7,305.6z"/>
	</g>
	<g>
		<path class="st1" d="M659.9,543.3c-2.5,0-5-0.1-7.6-0.3c-25.3-2-51.1-13.7-76.7-34.9c-20.5-16.9-35.5-35.4-43.6-45.4
			c-1.8-2.3-3.3-4-4.2-5c-2.5-2.8-2.3-7.1,0.5-9.7c2.8-2.5,7.1-2.3,9.7,0.5c1.1,1.3,2.6,3.1,4.6,5.6c57.9,71.2,97.7,74.3,110.8,75.3
			c25.6,2,50.6-7.9,74.3-29.3l63.1-56.9l4.6,5.1c0.2,0.2,4.2,4.8-0.5,9.6l0,0c0,0-0.2,0.2-0.5,0.5c0,0,0,0,0,0l-0.6,0.5
			c-3.5,3.1-16.2,14.6-56.9,51.3C712.5,532.2,686.7,543.3,659.9,543.3z"/>
		<path class="st1" d="M734.8,483.9c-1.9,0-3.7-0.8-5.1-2.3c-2.5-2.8-2.3-7.1,0.5-9.7l56.9-51.3c2.8-2.5,7.1-2.3,9.7,0.5
			c2.5,2.8,2.3,7.1-0.5,9.7l-56.9,51.3C738.1,483.4,736.5,483.9,734.8,483.9z"/>
		<path class="st1" d="M722,469.7c-1.9,0-3.7-0.8-5.1-2.3c-2.5-2.8-2.3-7.1,0.5-9.7l56.9-51.3c2.8-2.5,7.1-2.3,9.7,0.5
			c2.5,2.8,2.3,7.1-0.5,9.7L726.6,468C725.3,469.2,723.7,469.7,722,469.7z"/>
		<path class="st1" d="M696.4,441.3c-1.9,0-3.7-0.8-5.1-2.3c-2.5-2.8-2.3-7.1,0.5-9.7l28.4-25.6c2.8-2.5,7.1-2.3,9.7,0.5
			c2.5,2.8,2.3,7.1-0.5,9.7L701,439.5C699.7,440.7,698,441.3,696.4,441.3z"/>
		<path class="st1" d="M709.2,455.5c-1.9,0-3.7-0.8-5.1-2.3c-2.5-2.8-2.3-7.1,0.5-9.7l56.9-51.3c2.8-2.5,7.1-2.3,9.7,0.5
			c2.5,2.8,2.3,7.1-0.5,9.7l-56.9,51.3C712.5,454.9,710.8,455.5,709.2,455.5z"/>
	</g>
	<g>
		<path class="st1" d="M1989.6,189.1c38.3-0.3,69.4-31.6,69.4-70c0-38.6-31.4-70-70-70s-70,31.4-70,70c0,20.4,8.7,38.7,22.7,51.5
			c-6.3-1-12.8-1.5-19.3-1.5c-68,0-123.4,55.3-123.4,123.4s55.3,123.4,123.4,123.4s123.4-55.3,123.4-123.4
			C2045.7,249.2,2023.3,211.1,1989.6,189.1z M1939,119.1c0-27.6,22.4-50,50-50s50,22.4,50,50c0,27.6-22.4,50-50,50
			S1939,146.7,1939,119.1z M2023.9,273.6c-8.8-2.7-21.6-8.6-34.5-21.5c-15-15-14.6-35.8-12.8-47.5
			C2000.9,219.6,2018.5,244.4,2023.9,273.6z M1922.3,189.1c10.8,0,21.2,1.7,31,4.8c-5.2,18.5-21,32.4-34.1,41.1
			c-27.7,18.4-67.8,29.4-95.8,27.2C1836.4,219.9,1875.8,189.1,1922.3,189.1z M1922.3,395.8c-57,0-103.4-46.4-103.4-103.4
			c0-3.6,0.2-7.1,0.5-10.5c3.7,0.4,7.6,0.6,11.7,0.6c31.4,0,70.1-11.6,99.1-30.9c10.6-7,19.4-14.7,26.3-23
			c1.9,12.4,7.1,25.9,18.7,37.5c19.3,19.3,38.9,26,50.4,28.4C2024.5,350.6,1978.6,395.8,1922.3,395.8z"/>
		<path class="st1" d="M1911.6,299.7c1.9-8.8-3.8-17.5-12.6-19.3c-8.8-1.9-17.5,3.8-19.3,12.6c-1.9,8.8,3.8,17.5,12.6,19.3
			C1901.1,314.2,1909.8,308.5,1911.6,299.7z"/>
		<path class="st1" d="M1962.1,282.1c-8.8-1.9-17.5,3.8-19.3,12.6c-1.9,8.8,3.8,17.5,12.6,19.3c8.8,1.9,17.5-3.8,19.3-12.6
			C1976.5,292.7,1970.9,284,1962.1,282.1z"/>
		<path class="st1" d="M1956.5,331.9c-3.2-0.6-6.4,1.5-7,4.7c-0.3,1.6-3.9,15.8-23.4,15.3c-20.9-0.5-25-13.6-25.2-14.3
			c-0.9-3.2-4.1-5.1-7.3-4.2c-3.2,0.8-5.1,4.1-4.3,7.3c0.2,0.9,6.1,22.5,36.5,23.3c0.5,0,0.9,0,1.3,0c23.2,0,32.5-16.2,34.2-25
			C1961.9,335.7,1959.8,332.5,1956.5,331.9z"/>
	</g>
	<g>
		
			<ellipse transform="matrix(0.9958 -9.180736e-02 9.180736e-02 0.9958 -24.3763 42.7458)" class="st1" cx="452.4" cy="286.3" rx="16.3" ry="16.3"/>
		<ellipse transform="matrix(0.895 -0.446 0.446 0.895 -74.369 260.1512)" class="st1" cx="515.4" cy="288.1" rx="16.3" ry="16.3"/>
		<path class="st1" d="M513.3,321.9c-3.3-0.6-6.4,1.5-7,4.8c-0.1,0.6-3.3,15.7-23.4,15.2c-20.9-0.5-25-13.6-25.2-14.3
			c-0.9-3.2-4.1-5.1-7.3-4.2c-3.2,0.8-5.1,4.1-4.3,7.3c0.2,0.9,6.1,22.5,36.5,23.3c0.4,0,0.9,0,1.3,0c23.2,0,32.5-16.2,34.2-25
			C518.6,325.6,516.5,322.5,513.3,321.9z"/>
		<path class="st1" d="M577,209.2c-0.7-1.3-1.6-2.5-2.8-3.4c0,0-0.1,0-0.1-0.1c-22.1-25.1-54.5-41-90.5-41c-25.2,0-48.5,7.8-67.9,21
			c-8.4-6.1-15.9-12.9-22.4-20.5c-3.5-4.1-9.7-4.5-13.8-1c-4.1,3.5-4.5,9.7-1,13.8c6.4,7.4,13.7,14.3,21.6,20.4
			c-7,6.8-13.2,14.4-18.5,22.7c-17.8-12.2-26-24.8-26.6-25.7c-2.9-4.5-8.9-5.9-13.4-3.1c-4.6,2.9-6,8.9-3.1,13.5
			c0.7,1.1,11.2,17.6,34,32.7c-6.1,14.4-9.4,30.2-9.4,46.8c0,66.5,54.1,120.5,120.5,120.5s120.5-54.1,120.5-120.5
			C604.1,256.5,593.9,230,577,209.2z M549.7,209c-16.7,7-58.6,18.2-115.4-11.8c14.6-8.2,31.4-12.9,49.3-12.9
			C508.8,184.3,532,193.6,549.7,209z M416.6,209.8c1.9,1.1,3.8,2.2,5.7,3.3c32.9,17.9,61.8,23.5,85,23.5c3.7,0,7.3-0.1,10.7-0.4
			c-19.1,7.2-45.1,11.7-78.7,6.9c-16.1-2.3-29.6-6.8-40.8-12.2C403.6,223,409.7,215.9,416.6,209.8z M483.6,386.3
			c-55.7,0-101-45.3-101-101c0-13.1,2.5-25.5,7-37c12.9,6.3,28.5,11.5,47,14.1c10.7,1.5,20.7,2.2,30.1,2.2
			c53.9,0,86.2-22.5,100.6-35.7c10.9,16.1,17.3,35.5,17.3,56.4C584.6,341,539.3,386.3,483.6,386.3z"/>
	</g>
	<g>
		<path class="st1" d="M1735.6,550.9c2.5,0,5-0.1,7.6-0.3c25.3-2,51.1-13.7,76.7-34.9c20.5-16.9,35.5-35.4,43.6-45.4
			c1.8-2.3,3.3-4,4.2-5c2.5-2.8,2.3-7.1-0.5-9.7c-2.8-2.5-7.1-2.3-9.7,0.5c-1.1,1.3-2.6,3.1-4.6,5.6
			c-57.9,71.2-97.7,74.3-110.8,75.3c-25.6,2-50.6-7.9-74.3-29.3l-63.1-56.9l-4.6,5.1c-0.2,0.2-4.2,4.8,0.5,9.6l0,0
			c0,0,0.2,0.2,0.5,0.5c0,0,0,0,0,0l0.6,0.5c3.5,3.1,16.2,14.6,56.9,51.3C1683,539.8,1708.9,550.9,1735.6,550.9z"/>
		<path class="st1" d="M1660.7,491.6c1.9,0,3.7-0.8,5.1-2.3c2.5-2.8,2.3-7.1-0.5-9.7l-56.9-51.3c-2.8-2.5-7.1-2.3-9.7,0.5
			c-2.5,2.8-2.3,7.1,0.5,9.7l56.9,51.3C1657.4,491,1659.1,491.6,1660.7,491.6z"/>
		<path class="st1" d="M1673.5,477.4c1.9,0,3.7-0.8,5.1-2.3c2.5-2.8,2.3-7.1-0.5-9.7l-56.9-51.3c-2.8-2.5-7.1-2.3-9.7,0.5
			c-2.5,2.8-2.3,7.1,0.5,9.7l56.9,51.3C1670.2,476.8,1671.9,477.4,1673.5,477.4z"/>
		<path class="st1" d="M1699.1,448.9c1.9,0,3.7-0.8,5.1-2.3c2.5-2.8,2.3-7.1-0.5-9.7l-28.4-25.6c-2.8-2.5-7.1-2.3-9.7,0.5
			c-2.5,2.8-2.3,7.1,0.5,9.7l28.4,25.6C1695.9,448.4,1697.5,448.9,1699.1,448.9z"/>
		<path class="st1" d="M1686.3,463.2c1.9,0,3.7-0.8,5.1-2.3c2.5-2.8,2.3-7.1-0.5-9.7L1634,400c-2.8-2.5-7.1-2.3-9.7,0.5
			c-2.5,2.8-2.3,7.1,0.5,9.7l56.9,51.3C1683,462.6,1684.7,463.2,1686.3,463.2z"/>
	</g>
	<g>
		<path class="st1" d="M228.9,543.3c2.5,0,5-0.1,7.6-0.3c25.3-2,51.1-13.7,76.7-34.9c20.5-16.9,35.5-35.4,43.6-45.4
			c1.8-2.3,3.3-4,4.2-5c2.5-2.8,2.3-7.1-0.5-9.7c-2.8-2.5-7.1-2.3-9.7,0.5c-1.1,1.3-2.6,3.1-4.6,5.6
			c-57.9,71.2-97.7,74.3-110.8,75.3c-25.6,2-50.6-7.9-74.3-29.3L98,443.3l-4.6,5.1c-0.2,0.2-4.2,4.8,0.5,9.6l0,0
			c0,0,0.2,0.2,0.5,0.5c0,0,0,0,0,0l0.6,0.5c3.5,3.1,16.2,14.6,56.9,51.3C176.3,532.2,202.1,543.3,228.9,543.3z"/>
		<path class="st1" d="M153.9,483.9c1.9,0,3.7-0.8,5.1-2.3c2.5-2.8,2.3-7.1-0.5-9.7l-56.9-51.3c-2.8-2.5-7.1-2.3-9.7,0.5
			c-2.5,2.8-2.3,7.1,0.5,9.7l56.9,51.3C150.7,483.4,152.3,483.9,153.9,483.9z"/>
		<path class="st1" d="M166.8,469.7c1.9,0,3.7-0.8,5.1-2.3c2.5-2.8,2.3-7.1-0.5-9.7l-56.9-51.3c-2.8-2.5-7.1-2.3-9.7,0.5
			c-2.5,2.8-2.3,7.1,0.5,9.7l56.9,51.3C163.5,469.2,165.1,469.7,166.8,469.7z"/>
		<path class="st1" d="M192.4,441.3c1.9,0,3.7-0.8,5.1-2.3c2.5-2.8,2.3-7.1-0.5-9.7l-28.4-25.6c-2.8-2.5-7.1-2.3-9.7,0.5
			c-2.5,2.8-2.3,7.1,0.5,9.7l28.4,25.6C189.1,440.7,190.8,441.3,192.4,441.3z"/>
		<path class="st1" d="M179.6,455.5c1.9,0,3.7-0.8,5.1-2.3c2.5-2.8,2.3-7.1-0.5-9.7l-56.9-51.3c-2.8-2.5-7.1-2.3-9.7,0.5
			c-2.5,2.8-2.3,7.1,0.5,9.7l56.9,51.3C176.3,454.9,177.9,455.5,179.6,455.5z"/>
	</g>
	<g>
		<path class="st1" d="M2166.6,550.9c-2.5,0-5-0.1-7.6-0.3c-25.3-2-51.1-13.7-76.7-34.9c-20.5-16.9-35.5-35.4-43.6-45.4
			c-1.8-2.3-3.3-4-4.2-5c-2.5-2.8-2.3-7.1,0.5-9.7c2.8-2.5,7.1-2.3,9.7,0.5c1.1,1.3,2.6,3.1,4.6,5.6c57.9,71.2,97.7,74.3,110.8,75.3
			c25.6,2,50.6-7.9,74.3-29.3l63.1-56.9l4.6,5.1c0.2,0.2,4.2,4.8-0.5,9.6l0,0c0,0-0.2,0.2-0.5,0.5c0,0,0,0,0,0l-0.6,0.5
			c-3.5,3.1-16.2,14.6-56.9,51.3C2219.3,539.8,2193.4,550.9,2166.6,550.9z"/>
		<path class="st1" d="M2241.6,491.6c-1.9,0-3.7-0.8-5.1-2.3c-2.5-2.8-2.3-7.1,0.5-9.7l56.9-51.3c2.8-2.5,7.1-2.3,9.7,0.5
			c2.5,2.8,2.3,7.1-0.5,9.7l-56.9,51.3C2244.9,491,2243.2,491.6,2241.6,491.6z"/>
		<path class="st1" d="M2228.8,477.4c-1.9,0-3.7-0.8-5.1-2.3c-2.5-2.8-2.3-7.1,0.5-9.7l56.9-51.3c2.8-2.5,7.1-2.3,9.7,0.5
			c2.5,2.8,2.3,7.1-0.5,9.7l-56.9,51.3C2232,476.8,2230.4,477.4,2228.8,477.4z"/>
		<path class="st1" d="M2203.1,448.9c-1.9,0-3.7-0.8-5.1-2.3c-2.5-2.8-2.3-7.1,0.5-9.7l28.4-25.6c2.8-2.5,7.1-2.3,9.7,0.5
			c2.5,2.8,2.3,7.1-0.5,9.7l-28.4,25.6C2206.4,448.4,2204.8,448.9,2203.1,448.9z"/>
		<path class="st1" d="M2216,463.2c-1.9,0-3.7-0.8-5.1-2.3c-2.5-2.8-2.3-7.1,0.5-9.7l56.9-51.3c2.8-2.5,7.1-2.3,9.7,0.5
			c2.5,2.8,2.3,7.1-0.5,9.7l-56.9,51.3C2219.2,462.6,2217.6,463.2,2216,463.2z"/>
	</g>
</g>
<g id="Layer_2">
</g>
</svg>
