<?xml version="1.0" encoding="utf-8"?>
<!-- Generator: Adobe Illustrator 25.2.3, SVG Export Plug-In . SVG Version: 6.00 Build 0)  -->
<svg version="1.1" xmlns="http://www.w3.org/2000/svg" xmlns:xlink="http://www.w3.org/1999/xlink" x="0px" y="0px"
	 viewBox="0 0 1800 900" style="enable-background:new 0 0 1800 900;" xml:space="preserve">
<style type="text/css">
	.st0{fill:#BEA3CC;}
	.st1{fill:#442856;}
	.st2{fill:#D695C0;}
	.st3{fill:#785089;}
	.st4{fill:none;stroke:#442856;stroke-width:15;stroke-miterlimit:10;}
	.st5{fill:#E34D99;}
	.st6{fill:#EC8231;}
	.st7{fill:#76BF60;}
	.st8{fill:#489B91;}
	.st9{fill:none;stroke:#BEA3CC;stroke-width:15;stroke-linecap:round;stroke-miterlimit:10;stroke-dasharray:12,21;}
	.st10{clip-path:url(#SVGID_2_);}
	.st11{fill:none;stroke:#D695C0;stroke-width:16;stroke-miterlimit:10;}
	.st12{fill:none;stroke:#785089;stroke-width:15;stroke-linecap:round;stroke-miterlimit:10;}
	.st13{fill:#C7E2C0;}
	.st14{fill:#9BD2CA;}
	.st15{fill:#FBC089;}
	.st16{fill:#E9A6C9;}
	.st17{fill:#F0CEE2;}
</style>
<g id="Layer_1">
	<g>
		<path class="st2" d="M1114.8,462c-78,0-141.4,63.4-141.4,141.4c0,78,63.4,141.4,141.4,141.4s141.4-63.4,141.4-141.4
			C1256.2,525.4,1192.7,462,1114.8,462z M1114.8,729.9c-69.7,0-126.4-56.7-126.4-126.4S1045,477,1114.8,477s126.4,56.7,126.4,126.4
			S1184.5,729.9,1114.8,729.9z"/>
		<path class="st2" d="M1184.4,579l-38.9-5.9c-2.6-0.4-4.9-2.1-6.1-4.6l-17.4-36.9c-3-6.3-11.5-6.3-14.5,0l-17.4,36.9
			c-1.2,2.5-3.4,4.2-6.1,4.6l-38.9,5.9c-6.6,1-9.3,9.5-4.5,14.4l28.2,28.7c1.9,1.9,2.8,4.7,2.3,7.5l-6.6,40.5
			c-1.1,6.9,5.8,12.1,11.7,8.9l34.8-19.1c2.3-1.3,5.2-1.3,7.5,0l34.8,19.1c5.9,3.3,12.8-2,11.7-8.9l-6.6-40.5
			c-0.4-2.7,0.4-5.5,2.3-7.5l28.2-28.7C1193.6,588.5,1191,580,1184.4,579z"/>
	</g>
	<path class="st2" d="M724.4,462c-78,0-141.4,63.4-141.4,141.4c0,78,63.4,141.4,141.4,141.4c78,0,141.4-63.4,141.4-141.4
		C865.9,525.4,802.4,462,724.4,462z M768.1,629.6l6.6,40.5c1.1,6.9-5.8,12.1-11.7,8.9l-34.8-19.1c-2.3-1.3-5.2-1.3-7.5,0L685.9,679
		c-5.9,3.3-12.8-2-11.7-8.9l6.6-40.5c0.4-2.7-0.4-5.5-2.3-7.5l-28.2-28.7c-4.8-4.9-2.1-13.4,4.5-14.4l38.9-5.9
		c2.6-0.4,4.9-2.1,6.1-4.6l17.4-36.9c3-6.3,11.5-6.3,14.5,0l17.4,36.9c1.2,2.5,3.4,4.2,6.1,4.6l38.9,5.9c6.6,1,9.3,9.5,4.5,14.4
		l-28.2,28.7C768.5,624,767.6,626.8,768.1,629.6z"/>
	<g>
		<path class="st1" d="M137.6,188.7c-2,0-3.8-0.2-5.5-0.5c-1.7-0.3-3.3-0.9-4.6-1.8c-1.3-0.9-2.4-2.1-3.1-3.6
			c-0.8-1.6-1.1-3.6-1.1-6.1v-23.9h9.3v23.9c0,0.8,0.2,1.5,0.6,2.1c0.4,0.5,1,1,1.8,1.2c0.8,0.3,1.7,0.4,2.8,0.4
			c1.1,0,2-0.1,2.8-0.4c0.8-0.3,1.4-0.7,1.8-1.2c0.4-0.5,0.6-1.2,0.6-2.1v-23.9h9.3v23.9c0,2.5-0.4,4.5-1.1,6.1
			c-0.8,1.6-1.8,2.8-3.1,3.6c-1.3,0.9-2.9,1.5-4.6,1.8C141.4,188.5,139.6,188.7,137.6,188.7z"/>
		<path class="st1" d="M157.9,188.4v-18.5h-3.5v-6l3.5-1.4v-2.4c0-2.3,0.3-4.1,1-5.4c0.7-1.2,1.6-2.1,2.9-2.6
			c1.3-0.5,2.8-0.7,4.5-0.7c1.4,0,2.8,0.1,4.1,0.2c1.3,0.2,2.3,0.4,3,0.6v6.8c-0.4,0-1-0.1-1.7-0.1c-0.7,0-1.4,0-2,0
			c-0.5,0-1,0.1-1.4,0.3c-0.4,0.2-0.6,0.4-0.8,0.8c-0.2,0.4-0.3,0.9-0.3,1.5v1h15v7.4h-15v18.5H157.9z M177.7,188.4v-18.5h-3.5v-6
			l3.5-1.4v-0.9c0-2.4,0.3-4.4,1-5.9c0.7-1.5,1.7-2.6,3.1-3.2c1.4-0.7,3.1-1,5.3-1c1.1,0,2.2,0.1,3.2,0.3c1,0.2,1.8,0.4,2.4,0.6v6.7
			H189c-0.4,0-0.8,0.1-1.1,0.2c-0.3,0.1-0.5,0.3-0.6,0.6s-0.2,0.7-0.2,1.2v1.4h5.7v7.4H187v18.5H177.7z"/>
		<path class="st1" d="M195.4,188.5c-0.8,0-1.2-0.4-1.2-1.1v-5.6c0-0.8,0.4-1.2,1.2-1.2h5.4c0.8,0,1.2,0.4,1.2,1.2v5.6
			c0,0.4-0.1,0.7-0.3,0.9c-0.2,0.2-0.5,0.2-0.9,0.2H195.4z"/>
		<path class="st1" d="M207.7,188.5c-0.8,0-1.2-0.4-1.2-1.1v-5.6c0-0.8,0.4-1.2,1.2-1.2h5.4c0.8,0,1.2,0.4,1.2,1.2v5.6
			c0,0.4-0.1,0.7-0.3,0.9c-0.2,0.2-0.5,0.2-0.9,0.2H207.7z"/>
		<path class="st1" d="M220.1,188.5c-0.8,0-1.2-0.4-1.2-1.1v-5.6c0-0.8,0.4-1.2,1.2-1.2h5.4c0.8,0,1.2,0.4,1.2,1.2v5.6
			c0,0.4-0.1,0.7-0.3,0.9c-0.2,0.2-0.5,0.2-0.9,0.2H220.1z"/>
		<path class="st1" d="M122.7,246l4.2-35.7h8.7l7.3,25.1l7.3-25.1h8.6l4.3,35.7h-9l-2.7-22.9l1.3,0l-5.6,22.9h-8.7l-5.7-22.9l1.5,0
			l-2.7,22.9H122.7z"/>
		<path class="st1" d="M178.1,246.3c-2.9,0-5.3-0.4-7.1-1.1c-1.8-0.7-3.1-2.1-3.9-4c-0.8-1.9-1.2-4.6-1.2-8c0-3.6,0.4-6.3,1.1-8.2
			c0.7-1.9,2-3.3,3.7-4.1s4.1-1.2,7-1.2c2.8,0,4.9,0.3,6.5,0.8c1.6,0.5,2.7,1.4,3.4,2.8c0.7,1.3,1,3.2,1,5.6c0,1.9-0.4,3.4-1.1,4.4
			c-0.7,1.1-1.8,1.8-3.1,2.3c-1.3,0.4-2.9,0.7-4.8,0.7h-4.6c0.1,0.8,0.3,1.4,0.6,1.8c0.3,0.5,0.8,0.8,1.6,1s1.9,0.3,3.4,0.3h7.1v5.4
			c-1.1,0.3-2.5,0.6-4,1C182.2,246.1,180.3,246.3,178.1,246.3z M175,230.9h3.7c0.6,0,1.1-0.1,1.4-0.4s0.4-0.8,0.4-1.5
			c0-0.6-0.1-1.1-0.3-1.5c-0.2-0.4-0.5-0.7-0.9-0.8c-0.4-0.2-1-0.3-1.6-0.3c-0.6,0-1.1,0.1-1.5,0.4c-0.4,0.3-0.7,0.7-0.9,1.4
			C175.1,228.8,175,229.7,175,230.9z"/>
		<path class="st1" d="M206.3,246v-18.5h-3.5v-6l3.5-1.4v-0.9c0-2.4,0.3-4.4,1-5.9c0.7-1.5,1.7-2.6,3.1-3.2c1.4-0.7,3.1-1,5.3-1
			c1.1,0,2.2,0.1,3.2,0.3c1,0.2,1.8,0.4,2.4,0.6v6.7h-3.7c-0.4,0-0.8,0.1-1.1,0.2c-0.3,0.1-0.5,0.3-0.6,0.6s-0.2,0.7-0.2,1.2v1.4
			h5.7v7.4h-5.7V246H206.3z"/>
		<path class="st1" d="M229.7,246.3c-2,0-3.6-0.6-4.8-1.8c-1.2-1.2-1.8-2.8-1.8-4.8v-2.6c0-1.9,0.7-3.5,2.1-4.8
			c1.4-1.3,3.6-1.9,6.7-1.9h5.2v-0.8c0-0.6-0.1-1.1-0.3-1.5c-0.2-0.4-0.7-0.6-1.4-0.8c-0.7-0.1-1.8-0.2-3.2-0.2h-7.5v-5.3
			c1.3-0.5,2.9-1,4.6-1.3c1.7-0.4,3.9-0.5,6.4-0.5c2.2,0,4.1,0.2,5.7,0.7c1.6,0.5,2.9,1.4,3.7,2.7c0.9,1.3,1.3,3.2,1.3,5.6V246h-7.4
			l-1.4-2.6c-0.3,0.3-0.7,0.6-1.2,1c-0.5,0.3-1,0.6-1.7,0.9c-0.6,0.3-1.4,0.5-2.2,0.7C231.6,246.2,230.7,246.3,229.7,246.3z
			 M234.6,240c0.2,0,0.3,0,0.5,0c0.2,0,0.4-0.1,0.6-0.1c0.2,0,0.4-0.1,0.6-0.1c0.2,0,0.3-0.1,0.5-0.2c0.1-0.1,0.2-0.1,0.3-0.1v-4.7
			l-2,0.3c-0.9,0.1-1.6,0.4-2,0.7c-0.5,0.3-0.7,0.9-0.7,1.6v1c0,0.4,0.1,0.8,0.3,1c0.2,0.3,0.4,0.5,0.8,0.6
			C233.7,239.9,234.1,240,234.6,240z"/>
		<path class="st1" d="M259.4,246.2c-2,0-3.7-0.3-5.1-1c-1.3-0.6-2.3-1.6-3-2.9c-0.6-1.3-1-2.8-1-4.7v-28.2h9.3v26.8
			c0,0.6,0.1,1.1,0.2,1.5c0.1,0.4,0.4,0.7,0.7,1c0.3,0.2,0.7,0.4,1.2,0.5l1.6,0.2v6.8H259.4z"/>
		<path class="st1" d="M276.8,246c-2.2,0-4-0.3-5.3-0.9c-1.3-0.6-2.3-1.6-2.8-3c-0.6-1.4-0.8-3.4-0.7-5.8l0.3-8.7h-4v-6l4.4-1.4
			l1.2-7.2h7.4v7.2h5.2v7.4h-5.2v8.7c0,0.4,0,0.8,0.1,1.1c0.1,0.3,0.2,0.6,0.3,0.8c0.1,0.2,0.3,0.4,0.6,0.5c0.2,0.1,0.5,0.2,0.8,0.2
			l3.3,0.3v6.9H276.8z"/>
		<path class="st1" d="M291.3,246.3c-2,0-3.6-0.6-4.8-1.8c-1.2-1.2-1.8-2.8-1.8-4.8v-2.6c0-1.9,0.7-3.5,2.1-4.8
			c1.4-1.3,3.6-1.9,6.7-1.9h5.2v-0.8c0-0.6-0.1-1.1-0.3-1.5c-0.2-0.4-0.7-0.6-1.4-0.8c-0.7-0.1-1.8-0.2-3.2-0.2h-7.5v-5.3
			c1.3-0.5,2.9-1,4.6-1.3c1.7-0.4,3.9-0.5,6.4-0.5c2.2,0,4.1,0.2,5.7,0.7c1.6,0.5,2.9,1.4,3.7,2.7c0.9,1.3,1.3,3.2,1.3,5.6V246h-7.4
			l-1.4-2.6c-0.3,0.3-0.7,0.6-1.2,1c-0.5,0.3-1,0.6-1.7,0.9c-0.6,0.3-1.4,0.5-2.2,0.7C293.2,246.2,292.3,246.3,291.3,246.3z
			 M296.2,240c0.2,0,0.3,0,0.5,0c0.2,0,0.4-0.1,0.6-0.1c0.2,0,0.4-0.1,0.6-0.1c0.2,0,0.3-0.1,0.5-0.2c0.1-0.1,0.2-0.1,0.3-0.1v-4.7
			l-2,0.3c-0.9,0.1-1.6,0.4-2,0.7c-0.5,0.3-0.7,0.9-0.7,1.6v1c0,0.4,0.1,0.8,0.3,1c0.2,0.3,0.4,0.5,0.8,0.6
			C295.3,239.9,295.7,240,296.2,240z"/>
		<path class="st1" d="M324,257.4v-37.2h7.9l1.4,2.4c0.6-0.5,1.3-1,1.9-1.4c0.6-0.4,1.3-0.7,2-1c0.7-0.2,1.5-0.4,2.5-0.4
			c1.5,0,2.9,0.3,4,0.8c1.2,0.5,2.1,1.4,2.9,2.5c0.8,1.1,1.3,2.5,1.7,4.2c0.4,1.7,0.6,3.7,0.6,6c0,2.7-0.2,5-0.7,7
			c-0.5,2-1.4,3.5-2.7,4.6c-1.3,1.1-3.2,1.6-5.7,1.6c-1.1,0-2.2-0.1-3.3-0.3c-1.1-0.2-2.1-0.5-3-0.9v12.2H324z M336.5,238.8
			c0.4,0,0.9-0.1,1.4-0.4c0.5-0.3,0.8-0.8,1.2-1.6c0.3-0.8,0.5-2,0.5-3.6s-0.1-2.8-0.3-3.7c-0.2-0.9-0.6-1.5-1-1.8s-1-0.5-1.6-0.5
			c-0.7,0-1.3,0.1-1.9,0.3c-0.6,0.2-1,0.4-1.3,0.6v9.9c0.3,0.2,0.8,0.4,1.4,0.5C335.3,238.7,335.9,238.8,336.5,238.8z"/>
		<path class="st1" d="M358.2,246.3c-2,0-3.6-0.6-4.8-1.8c-1.2-1.2-1.8-2.8-1.8-4.8v-2.6c0-1.9,0.7-3.5,2.1-4.8
			c1.4-1.3,3.6-1.9,6.7-1.9h5.2v-0.8c0-0.6-0.1-1.1-0.3-1.5c-0.2-0.4-0.7-0.6-1.4-0.8c-0.7-0.1-1.8-0.2-3.2-0.2H353v-5.3
			c1.3-0.5,2.9-1,4.6-1.3c1.7-0.4,3.9-0.5,6.4-0.5c2.2,0,4.1,0.2,5.7,0.7c1.6,0.5,2.9,1.4,3.7,2.7c0.9,1.3,1.3,3.2,1.3,5.6V246h-7.4
			l-1.4-2.6c-0.3,0.3-0.7,0.6-1.2,1c-0.5,0.3-1,0.6-1.7,0.9c-0.6,0.3-1.4,0.5-2.2,0.7C360.1,246.2,359.2,246.3,358.2,246.3z
			 M363.1,240c0.2,0,0.3,0,0.5,0c0.2,0,0.4-0.1,0.6-0.1c0.2,0,0.4-0.1,0.6-0.1c0.2,0,0.3-0.1,0.5-0.2c0.1-0.1,0.2-0.1,0.3-0.1v-4.7
			l-2,0.3c-0.9,0.1-1.6,0.4-2,0.7c-0.5,0.3-0.7,0.9-0.7,1.6v1c0,0.4,0.1,0.8,0.3,1c0.2,0.3,0.4,0.5,0.8,0.6
			C362.2,239.9,362.6,240,363.1,240z"/>
		<path class="st1" d="M378.9,246v-25.9h7.2l2.1,3.6c0.8-1.1,1.7-2,2.7-2.8c1-0.8,2.2-1.2,3.7-1.2c0.3,0,0.6,0,0.9,0
			c0.4,0,0.7,0.1,1,0.2v9.6c-0.5-0.1-1.1-0.1-1.7-0.1c-0.6,0-1.1,0-1.5,0c-0.8,0-1.5,0.1-2.1,0.2c-0.6,0.1-1.2,0.4-1.7,0.6
			s-0.9,0.7-1.3,1.2V246H378.9z"/>
		<path class="st1" d="M404.4,246.3c-2,0-3.6-0.6-4.8-1.8c-1.2-1.2-1.8-2.8-1.8-4.8v-2.6c0-1.9,0.7-3.5,2.1-4.8
			c1.4-1.3,3.6-1.9,6.7-1.9h5.2v-0.8c0-0.6-0.1-1.1-0.3-1.5c-0.2-0.4-0.7-0.6-1.4-0.8c-0.7-0.1-1.8-0.2-3.2-0.2h-7.5v-5.3
			c1.3-0.5,2.9-1,4.6-1.3c1.7-0.4,3.9-0.5,6.4-0.5c2.2,0,4.1,0.2,5.7,0.7c1.6,0.5,2.9,1.4,3.7,2.7c0.9,1.3,1.3,3.2,1.3,5.6V246h-7.4
			l-1.4-2.6c-0.3,0.3-0.7,0.6-1.2,1c-0.5,0.3-1,0.6-1.7,0.9c-0.6,0.3-1.4,0.5-2.2,0.7C406.4,246.2,405.5,246.3,404.4,246.3z
			 M409.3,240c0.2,0,0.3,0,0.5,0c0.2,0,0.4-0.1,0.6-0.1c0.2,0,0.4-0.1,0.6-0.1c0.2,0,0.3-0.1,0.5-0.2c0.1-0.1,0.2-0.1,0.3-0.1v-4.7
			l-2,0.3c-0.9,0.1-1.6,0.4-2,0.7c-0.5,0.3-0.7,0.9-0.7,1.6v1c0,0.4,0.1,0.8,0.3,1c0.2,0.3,0.4,0.5,0.8,0.6
			C408.4,239.9,408.9,240,409.3,240z"/>
		<path class="st1" d="M133.6,303.9c-1.6,0-3.1-0.2-4.5-0.6c-1.4-0.4-2.6-1.1-3.6-2.1c-1-1-1.8-2.3-2.3-4c-0.5-1.7-0.8-3.8-0.8-6.3
			c0-2.6,0.2-4.8,0.7-6.6c0.5-1.7,1.2-3.1,2.2-4.2c1-1,2.2-1.8,3.6-2.2c1.4-0.4,3.1-0.6,4.9-0.6c1.7,0,3.3,0.1,4.7,0.3
			c1.4,0.2,2.9,0.6,4.6,1.2v5.3h-6.3c-1.4,0-2.4,0.2-3.2,0.6c-0.8,0.4-1.3,1-1.6,2s-0.4,2.3-0.4,4.1c0,1.8,0.1,3.1,0.4,4
			c0.3,0.9,0.8,1.5,1.5,1.8c0.8,0.3,1.9,0.4,3.3,0.4h6.5v5.2c-0.8,0.3-1.8,0.6-2.9,0.9c-1.1,0.3-2.3,0.5-3.5,0.6
			C135.9,303.8,134.7,303.9,133.6,303.9z"/>
		<path class="st1" d="M158.3,303.9c-2.3,0-4.2-0.2-5.8-0.7s-2.9-1.2-3.8-2.3c-1-1.1-1.6-2.4-2.1-4.1c-0.4-1.7-0.6-3.7-0.6-6.1
			c0-2.6,0.2-4.7,0.6-6.5c0.4-1.7,1.1-3.1,2.1-4.1c1-1,2.2-1.7,3.8-2.1c1.6-0.4,3.5-0.6,5.8-0.6c2.3,0,4.2,0.2,5.8,0.7
			c1.6,0.4,2.8,1.2,3.8,2.2c0.9,1,1.6,2.4,2.1,4.1c0.4,1.7,0.6,3.8,0.6,6.4c0,2.5-0.2,4.6-0.6,6.3c-0.4,1.7-1.1,3.1-2,4.1
			c-0.9,1-2.2,1.8-3.8,2.2S160.7,303.9,158.3,303.9z M158.3,296.5c0.6,0,1.1-0.1,1.5-0.2c0.4-0.1,0.7-0.4,0.9-0.7
			c0.2-0.4,0.4-1,0.5-1.8c0.1-0.8,0.1-1.9,0.1-3.2c0-1.3,0-2.4-0.1-3.2c-0.1-0.8-0.3-1.4-0.5-1.8c-0.2-0.4-0.5-0.6-0.9-0.7
			c-0.4-0.1-0.9-0.2-1.5-0.2c-0.6,0-1.1,0.1-1.5,0.2c-0.4,0.1-0.7,0.4-0.9,0.7c-0.2,0.4-0.4,1-0.5,1.8c-0.1,0.8-0.1,1.8-0.1,3.2
			c0,1.3,0,2.4,0.1,3.2c0.1,0.8,0.3,1.4,0.5,1.8c0.2,0.4,0.5,0.6,0.9,0.7C157.2,296.4,157.7,296.5,158.3,296.5z"/>
		<path class="st1" d="M174.2,303.6v-25.9h7.8l1.5,2.5c1-0.8,2.1-1.5,3.3-2.1c1.2-0.6,2.7-0.9,4.7-0.9c1.6,0,2.9,0.3,4,1
			c1,0.7,1.8,1.5,2.4,2.5c0.7-0.5,1.4-1,2.3-1.6c0.9-0.5,1.8-1,2.8-1.4c1-0.4,2-0.6,3-0.6c2.2,0,3.9,0.4,5.1,1.2
			c1.2,0.8,2,1.9,2.5,3.4c0.4,1.5,0.7,3.3,0.7,5.4v16.3h-9.3v-15.5c0-0.7-0.1-1.2-0.3-1.5c-0.2-0.4-0.5-0.6-0.9-0.7
			c-0.4-0.1-0.8-0.2-1.3-0.2c-0.6,0-1.3,0.1-1.9,0.4c-0.6,0.3-1.2,0.6-1.6,1.1c0,0.2,0,0.4,0,0.6c0,0.2,0,0.4,0,0.6v15.3h-9.3v-15.5
			c0-0.7-0.1-1.2-0.3-1.5c-0.2-0.4-0.5-0.6-0.9-0.7c-0.4-0.1-0.8-0.2-1.3-0.2c-0.4,0-0.8,0.1-1.3,0.2c-0.4,0.1-0.9,0.3-1.2,0.5
			c-0.4,0.2-0.7,0.5-1,0.8v16.5H174.2z"/>
		<path class="st1" d="M218.3,315v-37.2h7.9l1.4,2.4c0.6-0.5,1.3-1,1.9-1.4c0.6-0.4,1.3-0.7,2-1c0.7-0.2,1.5-0.4,2.5-0.4
			c1.5,0,2.9,0.3,4,0.8c1.2,0.5,2.1,1.4,2.9,2.5c0.8,1.1,1.3,2.5,1.7,4.2c0.4,1.7,0.6,3.7,0.6,6c0,2.7-0.2,5-0.7,7
			c-0.5,2-1.4,3.5-2.7,4.6c-1.3,1.1-3.2,1.6-5.7,1.6c-1.1,0-2.2-0.1-3.3-0.3c-1.1-0.2-2.1-0.5-3-0.9V315H218.3z M230.8,296.4
			c0.4,0,0.9-0.1,1.4-0.4c0.5-0.3,0.8-0.8,1.2-1.6c0.3-0.8,0.5-2,0.5-3.6s-0.1-2.8-0.3-3.7c-0.2-0.9-0.6-1.5-1-1.8s-1-0.5-1.6-0.5
			c-0.7,0-1.3,0.1-1.9,0.3c-0.6,0.2-1,0.4-1.3,0.6v9.9c0.3,0.2,0.8,0.4,1.4,0.5C229.6,296.3,230.2,296.4,230.8,296.4z"/>
		<path class="st1" d="M255.6,303.8c-2,0-3.7-0.3-5.1-1c-1.3-0.6-2.3-1.6-3-2.9c-0.6-1.3-1-2.8-1-4.7V267h9.3v26.8
			c0,0.6,0.1,1.1,0.2,1.5c0.1,0.4,0.4,0.7,0.7,1c0.3,0.2,0.7,0.4,1.2,0.5l1.6,0.2v6.8H255.6z"/>
		<path class="st1" d="M273.9,303.9c-2.9,0-5.3-0.4-7.1-1.1c-1.8-0.7-3.1-2.1-3.9-4c-0.8-1.9-1.2-4.6-1.2-8c0-3.6,0.4-6.3,1.1-8.2
			c0.7-1.9,2-3.3,3.7-4.1s4.1-1.2,7-1.2c2.8,0,4.9,0.3,6.5,0.8c1.6,0.5,2.7,1.4,3.4,2.8c0.7,1.3,1,3.2,1,5.6c0,1.9-0.4,3.4-1.1,4.4
			c-0.7,1.1-1.8,1.8-3.1,2.3c-1.3,0.4-2.9,0.7-4.8,0.7h-4.6c0.1,0.8,0.3,1.4,0.6,1.8c0.3,0.5,0.8,0.8,1.6,1s1.9,0.3,3.4,0.3h7.1v5.4
			c-1.1,0.3-2.5,0.6-4,1C277.9,303.7,276.1,303.9,273.9,303.9z M270.8,288.5h3.7c0.6,0,1.1-0.1,1.4-0.4s0.4-0.8,0.4-1.5
			c0-0.6-0.1-1.1-0.3-1.5c-0.2-0.4-0.5-0.7-0.9-0.8c-0.4-0.2-1-0.3-1.6-0.3c-0.6,0-1.1,0.1-1.5,0.4c-0.4,0.3-0.7,0.7-0.9,1.4
			C270.9,286.4,270.8,287.3,270.8,288.5z"/>
		<path class="st1" d="M298.7,303.6c-2.2,0-4-0.3-5.3-0.9c-1.3-0.6-2.3-1.6-2.8-3c-0.6-1.4-0.8-3.4-0.7-5.8l0.3-8.7h-4v-6l4.4-1.4
			l1.2-7.2h7.4v7.2h5.2v7.4H299v8.7c0,0.4,0,0.8,0.1,1.1c0.1,0.3,0.2,0.6,0.3,0.8c0.1,0.2,0.3,0.4,0.6,0.5c0.2,0.1,0.5,0.2,0.8,0.2
			l3.3,0.3v6.9H298.7z"/>
		<path class="st1" d="M313.1,303.9c-2,0-3.6-0.6-4.8-1.8c-1.2-1.2-1.8-2.8-1.8-4.8v-2.6c0-1.9,0.7-3.5,2.1-4.8
			c1.4-1.3,3.6-1.9,6.7-1.9h5.2v-0.8c0-0.6-0.1-1.1-0.3-1.5c-0.2-0.4-0.7-0.6-1.4-0.8c-0.7-0.1-1.8-0.2-3.2-0.2H308v-5.3
			c1.3-0.5,2.9-1,4.6-1.3c1.7-0.4,3.9-0.5,6.4-0.5c2.2,0,4.1,0.2,5.7,0.7c1.6,0.5,2.9,1.4,3.7,2.7c0.9,1.3,1.3,3.2,1.3,5.6v17.1
			h-7.4L321,301c-0.3,0.3-0.7,0.6-1.2,1c-0.5,0.3-1,0.6-1.7,0.9c-0.6,0.3-1.4,0.5-2.2,0.7C315.1,303.8,314.2,303.9,313.1,303.9z
			 M318,297.6c0.2,0,0.3,0,0.5,0c0.2,0,0.4-0.1,0.6-0.1c0.2,0,0.4-0.1,0.6-0.1c0.2,0,0.3-0.1,0.5-0.2c0.1-0.1,0.2-0.1,0.3-0.1v-4.7
			l-2,0.3c-0.9,0.1-1.6,0.4-2,0.7c-0.5,0.3-0.7,0.9-0.7,1.6v1c0,0.4,0.1,0.8,0.3,1c0.2,0.3,0.4,0.5,0.8,0.6
			C317.1,297.5,317.6,297.6,318,297.6z"/>
		<path class="st1" d="M333.9,303.6v-25.9h7.2l2.1,3.6c0.8-1.1,1.7-2,2.7-2.8c1-0.8,2.2-1.2,3.7-1.2c0.3,0,0.6,0,0.9,0
			c0.4,0,0.7,0.1,1,0.2v9.6c-0.5-0.1-1.1-0.1-1.7-0.1c-0.6,0-1.1,0-1.5,0c-0.8,0-1.5,0.1-2.1,0.2c-0.6,0.1-1.2,0.4-1.7,0.6
			s-0.9,0.7-1.3,1.2v14.6H333.9z"/>
		<path class="st1" d="M375.5,303.8c-2,0-3.7-0.3-5.1-1c-1.3-0.6-2.3-1.6-3-2.9c-0.6-1.3-1-2.8-1-4.7V267h9.3v26.8
			c0,0.6,0.1,1.1,0.2,1.5c0.1,0.4,0.4,0.7,0.7,1c0.3,0.2,0.7,0.4,1.2,0.5l1.6,0.2v6.8H375.5z"/>
		<path class="st1" d="M388,303.9c-2,0-3.6-0.6-4.8-1.8c-1.2-1.2-1.8-2.8-1.8-4.8v-2.6c0-1.9,0.7-3.5,2.1-4.8
			c1.4-1.3,3.6-1.9,6.7-1.9h5.2v-0.8c0-0.6-0.1-1.1-0.3-1.5c-0.2-0.4-0.7-0.6-1.4-0.8c-0.7-0.1-1.8-0.2-3.2-0.2h-7.5v-5.3
			c1.3-0.5,2.9-1,4.6-1.3c1.7-0.4,3.9-0.5,6.4-0.5c2.2,0,4.1,0.2,5.7,0.7c1.6,0.5,2.9,1.4,3.7,2.7c0.9,1.3,1.3,3.2,1.3,5.6v17.1
			h-7.4l-1.4-2.6c-0.3,0.3-0.7,0.6-1.2,1c-0.5,0.3-1,0.6-1.7,0.9c-0.6,0.3-1.4,0.5-2.2,0.7C390,303.8,389,303.9,388,303.9z
			 M392.9,297.6c0.2,0,0.3,0,0.5,0c0.2,0,0.4-0.1,0.6-0.1c0.2,0,0.4-0.1,0.6-0.1c0.2,0,0.3-0.1,0.5-0.2c0.1-0.1,0.2-0.1,0.3-0.1
			v-4.7l-2,0.3c-0.9,0.1-1.6,0.4-2,0.7c-0.5,0.3-0.7,0.9-0.7,1.6v1c0,0.4,0.1,0.8,0.3,1c0.2,0.3,0.4,0.5,0.8,0.6
			C392,297.5,392.4,297.6,392.9,297.6z"/>
		<path class="st1" d="M431.3,303.9c-1.6,0-3.1-0.2-4.5-0.6c-1.4-0.4-2.6-1.1-3.6-2.1c-1-1-1.8-2.3-2.3-4c-0.5-1.7-0.8-3.8-0.8-6.3
			c0-2.6,0.2-4.8,0.7-6.6c0.5-1.7,1.2-3.1,2.2-4.2c1-1,2.2-1.8,3.6-2.2c1.4-0.4,3.1-0.6,4.9-0.6c1.7,0,3.3,0.1,4.7,0.3
			c1.4,0.2,2.9,0.6,4.6,1.2v5.3h-6.3c-1.4,0-2.4,0.2-3.2,0.6c-0.8,0.4-1.3,1-1.6,2s-0.4,2.3-0.4,4.1c0,1.8,0.1,3.1,0.4,4
			c0.3,0.9,0.8,1.5,1.5,1.8c0.8,0.3,1.9,0.4,3.3,0.4h6.5v5.2c-0.8,0.3-1.8,0.6-2.9,0.9c-1.1,0.3-2.3,0.5-3.5,0.6
			C433.6,303.8,432.4,303.9,431.3,303.9z"/>
		<path class="st1" d="M456,303.9c-2.3,0-4.2-0.2-5.8-0.7s-2.9-1.2-3.8-2.3c-1-1.1-1.6-2.4-2.1-4.1c-0.4-1.7-0.6-3.7-0.6-6.1
			c0-2.6,0.2-4.7,0.6-6.5c0.4-1.7,1.1-3.1,2.1-4.1c1-1,2.2-1.7,3.8-2.1c1.6-0.4,3.5-0.6,5.8-0.6c2.3,0,4.2,0.2,5.8,0.7
			c1.6,0.4,2.8,1.2,3.8,2.2c0.9,1,1.6,2.4,2.1,4.1c0.4,1.7,0.6,3.8,0.6,6.4c0,2.5-0.2,4.6-0.6,6.3c-0.4,1.7-1.1,3.1-2,4.1
			c-0.9,1-2.2,1.8-3.8,2.2S458.4,303.9,456,303.9z M456,296.5c0.6,0,1.1-0.1,1.5-0.2c0.4-0.1,0.7-0.4,0.9-0.7c0.2-0.4,0.4-1,0.5-1.8
			c0.1-0.8,0.1-1.9,0.1-3.2c0-1.3,0-2.4-0.1-3.2c-0.1-0.8-0.3-1.4-0.5-1.8c-0.2-0.4-0.5-0.6-0.9-0.7c-0.4-0.1-0.9-0.2-1.5-0.2
			c-0.6,0-1.1,0.1-1.5,0.2c-0.4,0.1-0.7,0.4-0.9,0.7c-0.2,0.4-0.4,1-0.5,1.8c-0.1,0.8-0.1,1.8-0.1,3.2c0,1.3,0,2.4,0.1,3.2
			c0.1,0.8,0.3,1.4,0.5,1.8c0.2,0.4,0.5,0.6,0.9,0.7C454.9,296.4,455.4,296.5,456,296.5z"/>
		<path class="st1" d="M471.9,303.6v-25.9h7.8l1.5,2.5c1-0.8,2.1-1.5,3.3-2.1c1.2-0.6,2.7-0.9,4.7-0.9c1.6,0,2.9,0.3,4,1
			c1,0.7,1.8,1.5,2.4,2.5c0.7-0.5,1.4-1,2.3-1.6c0.9-0.5,1.8-1,2.8-1.4c1-0.4,2-0.6,3-0.6c2.2,0,3.9,0.4,5.1,1.2
			c1.2,0.8,2,1.9,2.5,3.4c0.4,1.5,0.7,3.3,0.7,5.4v16.3h-9.3v-15.5c0-0.7-0.1-1.2-0.3-1.5c-0.2-0.4-0.5-0.6-0.9-0.7
			c-0.4-0.1-0.8-0.2-1.3-0.2c-0.6,0-1.3,0.1-1.9,0.4c-0.6,0.3-1.2,0.6-1.6,1.1c0,0.2,0,0.4,0,0.6c0,0.2,0,0.4,0,0.6v15.3h-9.3v-15.5
			c0-0.7-0.1-1.2-0.3-1.5c-0.2-0.4-0.5-0.6-0.9-0.7c-0.4-0.1-0.8-0.2-1.3-0.2c-0.4,0-0.8,0.1-1.3,0.2c-0.4,0.1-0.9,0.3-1.2,0.5
			c-0.4,0.2-0.7,0.5-1,0.8v16.5H471.9z"/>
		<path class="st1" d="M517.1,274.5c-0.8,0-1.2-0.4-1.2-1.1v-5.3c0-0.8,0.4-1.2,1.2-1.2h7.3c0.4,0,0.6,0.1,0.8,0.3
			c0.2,0.2,0.3,0.5,0.3,0.9v5.3c0,0.7-0.4,1.1-1.1,1.1H517.1z M516,303.6v-25.9h9.3v25.9H516z"/>
		<path class="st1" d="M538.1,303.9c-2,0-3.6-0.4-5-1.2c-1.4-0.8-2.4-2.2-3.1-4.1c-0.7-1.9-1.1-4.4-1.1-7.6c0-3.2,0.3-5.8,0.8-7.8
			c0.6-2,1.5-3.5,3-4.4c1.4-1,3.4-1.4,5.9-1.4c1,0,2,0.1,3,0.3c1,0.2,1.9,0.4,2.7,0.7V267h9.3v36.6h-7.9l-1.4-2.4
			c-0.6,0.5-1.2,1-1.9,1.4c-0.7,0.4-1.4,0.7-2.1,0.9C539.7,303.8,538.9,303.9,538.1,303.9z M541.5,296.5c0.6,0,1.2-0.1,1.7-0.3
			c0.5-0.2,0.9-0.4,1.1-0.6V285c-0.3-0.2-0.7-0.3-1.2-0.5s-1-0.3-1.4-0.3c-0.9,0-1.6,0.1-2.1,0.4c-0.5,0.3-0.9,0.9-1.1,1.8
			c-0.2,0.9-0.3,2.3-0.3,4.1c0,1.8,0.1,3.1,0.3,3.9c0.2,0.8,0.6,1.4,1.1,1.7C540.1,296.3,540.7,296.5,541.5,296.5z"/>
		<path class="st1" d="M563.6,303.9c-2,0-3.6-0.6-4.8-1.8c-1.2-1.2-1.8-2.8-1.8-4.8v-2.6c0-1.9,0.7-3.5,2.1-4.8
			c1.4-1.3,3.6-1.9,6.7-1.9h5.2v-0.8c0-0.6-0.1-1.1-0.3-1.5c-0.2-0.4-0.7-0.6-1.4-0.8s-1.8-0.2-3.2-0.2h-7.5v-5.3
			c1.3-0.5,2.9-1,4.6-1.3c1.7-0.4,3.9-0.5,6.4-0.5c2.2,0,4.1,0.2,5.7,0.7c1.6,0.5,2.9,1.4,3.7,2.7s1.3,3.2,1.3,5.6v17.1h-7.4
			l-1.4-2.6c-0.3,0.3-0.7,0.6-1.2,1c-0.5,0.3-1,0.6-1.7,0.9c-0.6,0.3-1.4,0.5-2.2,0.7C565.6,303.8,564.6,303.9,563.6,303.9z
			 M568.5,297.6c0.2,0,0.3,0,0.5,0c0.2,0,0.4-0.1,0.6-0.1c0.2,0,0.4-0.1,0.6-0.1c0.2,0,0.3-0.1,0.5-0.2c0.1-0.1,0.2-0.1,0.3-0.1
			v-4.7l-2,0.3c-0.9,0.1-1.6,0.4-2,0.7c-0.5,0.3-0.7,0.9-0.7,1.6v1c0,0.4,0.1,0.8,0.3,1c0.2,0.3,0.4,0.5,0.8,0.6
			C567.6,297.5,568,297.6,568.5,297.6z"/>
	</g>
	<g>
		<path class="st1" d="M1594.6,172.4l1.1,25.7h-9.3l1.3-25.7H1594.6z M1594,162.5c0.8,0,1.2,0.4,1.2,1.1v5.6c0,0.8-0.4,1.2-1.2,1.2
			h-5.4c-0.8,0-1.2-0.4-1.2-1.2v-5.6c0-0.4,0.1-0.7,0.3-0.9c0.2-0.2,0.5-0.2,0.9-0.2H1594z"/>
		<path class="st1" d="M1597.9,188.4l10.6-35.7h11.6l10.6,35.7h-9.6l-1.4-5.7h-10.7l-1.4,5.7H1597.9z M1611,174.4h6.4l-3.2-13.7
			L1611,174.4z"/>
		<path class="st1" d="M1639.2,199.8l2.5-11.4c-1.9,0-3.4-0.3-4.6-1c-1.2-0.7-2.2-1.5-2.9-2.7c-0.7-1.1-1.2-2.4-1.5-3.8l-4-18.4h9.6
			l2.9,16.5c0.1,0.4,0.2,0.7,0.3,0.9c0.1,0.2,0.3,0.4,0.5,0.6c0.2,0.1,0.4,0.2,0.6,0.3c0.2,0.1,0.4,0.1,0.6,0.1l3.3-18.4h9.5
			l-6.6,32.5l-2.4,4.8H1639.2z"/>
		<path class="st1" d="M1659.5,178.5l-1.1-25.7h9.3l-1.3,25.7H1659.5z M1660.2,188.5c-0.8,0-1.2-0.4-1.2-1.1v-5.6
			c0-0.8,0.4-1.2,1.2-1.2h5.4c0.8,0,1.2,0.4,1.2,1.2v5.6c0,0.4-0.1,0.7-0.3,0.9c-0.2,0.2-0.5,0.2-0.9,0.2H1660.2z"/>
		<path class="st1" d="M1337.1,246.3c-2,0-3.8-0.2-5.4-0.7c-1.6-0.5-3-1.4-4.1-2.6c-1.2-1.3-2-3.1-2.6-5.5c-0.6-2.4-0.9-5.5-0.9-9.4
			c0-3.7,0.3-6.8,1-9.1c0.6-2.4,1.5-4.2,2.7-5.5s2.6-2.2,4.2-2.7c1.6-0.5,3.4-0.7,5.3-0.7c2,0,3.7,0.1,5.3,0.3
			c1.5,0.2,2.8,0.5,3.9,0.7s1.9,0.6,2.6,0.9v7.2c-0.6-0.1-1.4-0.3-2.4-0.4c-1-0.1-2.1-0.2-3.3-0.3c-1.2-0.1-2.6-0.1-4-0.1
			c-1.1,0-2,0.1-2.8,0.3c-0.8,0.2-1.4,0.7-1.8,1.3c-0.4,0.7-0.8,1.7-1,3s-0.3,3-0.3,5.2c0,1.9,0.1,3.5,0.2,4.8
			c0.2,1.3,0.4,2.3,0.9,3c0.4,0.7,1,1.2,1.8,1.5c0.8,0.3,1.8,0.5,3,0.5c2.4,0,4.4,0,5.9-0.1c1.5-0.1,2.7-0.2,3.6-0.3v7.2
			c-0.8,0.3-1.7,0.6-2.8,0.8c-1.1,0.2-2.3,0.4-3.8,0.5C1340.8,246.2,1339,246.3,1337.1,246.3z"/>
		<path class="st1" d="M1363.8,246.3c-2.3,0-4.2-0.2-5.8-0.7s-2.9-1.2-3.8-2.3c-1-1.1-1.6-2.4-2.1-4.1c-0.4-1.7-0.6-3.7-0.6-6.1
			c0-2.6,0.2-4.7,0.6-6.5c0.4-1.7,1.1-3.1,2.1-4.1s2.2-1.7,3.8-2.1c1.6-0.4,3.5-0.6,5.8-0.6c2.3,0,4.2,0.2,5.8,0.7
			c1.6,0.4,2.8,1.2,3.8,2.2c0.9,1,1.6,2.4,2.1,4.1c0.4,1.7,0.6,3.8,0.6,6.4c0,2.5-0.2,4.6-0.6,6.3c-0.4,1.7-1.1,3.1-2,4.1
			c-0.9,1-2.2,1.8-3.8,2.2S1366.2,246.3,1363.8,246.3z M1363.8,238.9c0.6,0,1.1-0.1,1.5-0.2c0.4-0.1,0.7-0.4,0.9-0.7
			c0.2-0.4,0.4-1,0.5-1.8c0.1-0.8,0.1-1.9,0.1-3.2c0-1.3,0-2.4-0.1-3.2c-0.1-0.8-0.3-1.4-0.5-1.8c-0.2-0.4-0.5-0.6-0.9-0.7
			c-0.4-0.1-0.9-0.2-1.5-0.2s-1.1,0.1-1.5,0.2c-0.4,0.1-0.7,0.4-0.9,0.7c-0.2,0.4-0.4,1-0.5,1.8c-0.1,0.8-0.1,1.8-0.1,3.2
			c0,1.3,0,2.4,0.1,3.2c0.1,0.8,0.3,1.4,0.5,1.8c0.2,0.4,0.5,0.6,0.9,0.7C1362.7,238.8,1363.2,238.9,1363.8,238.9z"/>
		<path class="st1" d="M1379.7,246v-25.9h7.8l1.5,2.5c1-0.8,2.1-1.5,3.3-2.1c1.2-0.6,2.7-0.9,4.7-0.9c1.6,0,2.9,0.3,4,1
			c1,0.7,1.8,1.5,2.4,2.5c0.7-0.5,1.4-1,2.3-1.6c0.9-0.5,1.8-1,2.8-1.4c1-0.4,2-0.6,3-0.6c2.2,0,3.9,0.4,5.1,1.2
			c1.2,0.8,2,1.9,2.5,3.4c0.4,1.5,0.7,3.3,0.7,5.4V246h-9.3v-15.5c0-0.7-0.1-1.2-0.3-1.5c-0.2-0.4-0.5-0.6-0.9-0.7s-0.8-0.2-1.3-0.2
			c-0.6,0-1.3,0.1-1.9,0.4c-0.6,0.3-1.2,0.6-1.6,1.1c0,0.2,0,0.4,0,0.6c0,0.2,0,0.4,0,0.6V246h-9.3v-15.5c0-0.7-0.1-1.2-0.3-1.5
			c-0.2-0.4-0.5-0.6-0.9-0.7c-0.4-0.1-0.8-0.2-1.3-0.2c-0.4,0-0.8,0.1-1.3,0.2c-0.4,0.1-0.9,0.3-1.2,0.5c-0.4,0.2-0.7,0.5-1,0.8V246
			H1379.7z"/>
		<path class="st1" d="M1423.8,257.4v-37.2h7.9l1.4,2.4c0.6-0.5,1.3-1,1.9-1.4c0.6-0.4,1.3-0.7,2-1c0.7-0.2,1.5-0.4,2.5-0.4
			c1.5,0,2.9,0.3,4,0.8c1.2,0.5,2.1,1.4,2.9,2.5s1.3,2.5,1.7,4.2c0.4,1.7,0.6,3.7,0.6,6c0,2.7-0.2,5-0.7,7c-0.5,2-1.4,3.5-2.7,4.6
			c-1.3,1.1-3.2,1.6-5.7,1.6c-1.1,0-2.2-0.1-3.3-0.3c-1.1-0.2-2.1-0.5-3-0.9v12.2H1423.8z M1436.3,238.8c0.4,0,0.9-0.1,1.4-0.4
			c0.5-0.3,0.8-0.8,1.2-1.6c0.3-0.8,0.5-2,0.5-3.6s-0.1-2.8-0.3-3.7c-0.2-0.9-0.6-1.5-1-1.8c-0.4-0.3-1-0.5-1.6-0.5
			c-0.7,0-1.3,0.1-1.9,0.3c-0.6,0.2-1,0.4-1.3,0.6v9.9c0.3,0.2,0.8,0.4,1.4,0.5C1435.1,238.7,1435.7,238.8,1436.3,238.8z"/>
		<path class="st1" d="M1452.2,246v-25.9h7.2l2.1,3.6c0.8-1.1,1.7-2,2.7-2.8c1-0.8,2.2-1.2,3.7-1.2c0.3,0,0.6,0,0.9,0
			c0.4,0,0.7,0.1,1,0.2v9.6c-0.5-0.1-1.1-0.1-1.7-0.1c-0.6,0-1.1,0-1.5,0c-0.8,0-1.5,0.1-2.1,0.2c-0.6,0.1-1.2,0.4-1.7,0.6
			s-0.9,0.7-1.3,1.2V246H1452.2z"/>
		<path class="st1" d="M1484.4,246.3c-2.9,0-5.3-0.4-7.1-1.1c-1.8-0.7-3.1-2.1-3.9-4c-0.8-1.9-1.2-4.6-1.2-8c0-3.6,0.4-6.3,1.1-8.2
			c0.7-1.9,2-3.3,3.7-4.1s4.1-1.2,7-1.2c2.8,0,4.9,0.3,6.5,0.8c1.6,0.5,2.7,1.4,3.4,2.8c0.7,1.3,1,3.2,1,5.6c0,1.9-0.4,3.4-1.1,4.4
			c-0.7,1.1-1.8,1.8-3.1,2.3c-1.3,0.4-2.9,0.7-4.8,0.7h-4.6c0.1,0.8,0.3,1.4,0.6,1.8c0.3,0.5,0.8,0.8,1.6,1c0.8,0.2,1.9,0.3,3.4,0.3
			h7.1v5.4c-1.1,0.3-2.5,0.6-4,1C1488.4,246.1,1486.5,246.3,1484.4,246.3z M1481.3,215.7l3.3-6.9h7.4l-5.2,6.9H1481.3z
			 M1481.3,230.9h3.7c0.6,0,1.1-0.1,1.4-0.4s0.4-0.8,0.4-1.5c0-0.6-0.1-1.1-0.3-1.5c-0.2-0.4-0.5-0.7-0.9-0.8
			c-0.4-0.2-1-0.3-1.6-0.3c-0.6,0-1.1,0.1-1.5,0.4c-0.4,0.3-0.7,0.7-0.9,1.4C1481.3,228.8,1481.3,229.7,1481.3,230.9z"/>
		<path class="st1" d="M1519,246.3c-2,0-3.6-0.4-5-1.2c-1.4-0.8-2.4-2.2-3.1-4.1c-0.7-1.9-1.1-4.4-1.1-7.6c0-3.2,0.3-5.8,0.8-7.8
			c0.6-2,1.5-3.5,3-4.4c1.4-1,3.4-1.4,5.9-1.4c1,0,2,0.1,3,0.3s1.9,0.4,2.7,0.7v-11.3h9.3V246h-7.9l-1.4-2.4c-0.6,0.5-1.2,1-1.9,1.4
			c-0.7,0.4-1.4,0.7-2.1,0.9C1520.6,246.2,1519.8,246.3,1519,246.3z M1522.4,238.9c0.6,0,1.2-0.1,1.7-0.3c0.5-0.2,0.9-0.4,1.1-0.6
			v-10.5c-0.3-0.2-0.7-0.3-1.2-0.5s-1-0.3-1.4-0.3c-0.9,0-1.6,0.1-2.1,0.4s-0.9,0.9-1.1,1.8c-0.2,0.9-0.3,2.3-0.3,4.1
			c0,1.8,0.1,3.1,0.3,3.9c0.2,0.8,0.6,1.4,1.1,1.7C1521,238.7,1521.6,238.9,1522.4,238.9z"/>
		<path class="st1" d="M1550.3,246.3c-2.9,0-5.3-0.4-7.1-1.1c-1.8-0.7-3.1-2.1-3.9-4c-0.8-1.9-1.2-4.6-1.2-8c0-3.6,0.4-6.3,1.1-8.2
			c0.7-1.9,2-3.3,3.7-4.1s4.1-1.2,7-1.2c2.8,0,4.9,0.3,6.5,0.8c1.6,0.5,2.7,1.4,3.4,2.8c0.7,1.3,1,3.2,1,5.6c0,1.9-0.4,3.4-1.1,4.4
			c-0.7,1.1-1.8,1.8-3.1,2.3c-1.3,0.4-2.9,0.7-4.8,0.7h-4.6c0.1,0.8,0.3,1.4,0.6,1.8c0.3,0.5,0.8,0.8,1.6,1c0.8,0.2,1.9,0.3,3.4,0.3
			h7.1v5.4c-1.1,0.3-2.5,0.6-4,1C1554.3,246.1,1552.5,246.3,1550.3,246.3z M1547.2,230.9h3.7c0.6,0,1.1-0.1,1.4-0.4s0.4-0.8,0.4-1.5
			c0-0.6-0.1-1.1-0.3-1.5c-0.2-0.4-0.5-0.7-0.9-0.8c-0.4-0.2-1-0.3-1.6-0.3c-0.6,0-1.1,0.1-1.5,0.4c-0.4,0.3-0.7,0.7-0.9,1.4
			C1547.3,228.8,1547.2,229.7,1547.2,230.9z"/>
		<path class="st1" d="M1564.4,246v-25.9h7.8l1.5,2.5c1-0.8,2.1-1.5,3.3-2.1c1.2-0.6,2.7-0.9,4.7-0.9c1.6,0,2.9,0.3,4,1
			c1,0.7,1.8,1.5,2.4,2.5c0.7-0.5,1.4-1,2.3-1.6c0.9-0.5,1.8-1,2.8-1.4c1-0.4,2-0.6,3-0.6c2.2,0,3.9,0.4,5.1,1.2
			c1.2,0.8,2,1.9,2.5,3.4c0.4,1.5,0.7,3.3,0.7,5.4V246h-9.3v-15.5c0-0.7-0.1-1.2-0.3-1.5c-0.2-0.4-0.5-0.6-0.9-0.7s-0.8-0.2-1.3-0.2
			c-0.6,0-1.3,0.1-1.9,0.4c-0.6,0.3-1.2,0.6-1.6,1.1c0,0.2,0,0.4,0,0.6c0,0.2,0,0.4,0,0.6V246h-9.3v-15.5c0-0.7-0.1-1.2-0.3-1.5
			c-0.2-0.4-0.5-0.6-0.9-0.7c-0.4-0.1-0.8-0.2-1.3-0.2c-0.4,0-0.8,0.1-1.3,0.2c-0.4,0.1-0.9,0.3-1.2,0.5c-0.4,0.2-0.7,0.5-1,0.8V246
			H1564.4z"/>
		<path class="st1" d="M1614.4,246.3c-2,0-3.6-0.6-4.8-1.8c-1.2-1.2-1.8-2.8-1.8-4.8v-2.6c0-1.9,0.7-3.5,2.1-4.8
			c1.4-1.3,3.6-1.9,6.7-1.9h5.2v-0.8c0-0.6-0.1-1.1-0.3-1.5c-0.2-0.4-0.7-0.6-1.4-0.8c-0.7-0.1-1.8-0.2-3.2-0.2h-7.5v-5.3
			c1.3-0.5,2.9-1,4.6-1.3c1.7-0.4,3.9-0.5,6.4-0.5c2.2,0,4.1,0.2,5.7,0.7c1.6,0.5,2.9,1.4,3.7,2.7c0.9,1.3,1.3,3.2,1.3,5.6V246h-7.4
			l-1.4-2.6c-0.3,0.3-0.7,0.6-1.2,1c-0.5,0.3-1,0.6-1.7,0.9c-0.6,0.3-1.4,0.5-2.2,0.7C1616.3,246.2,1615.4,246.3,1614.4,246.3z
			 M1617,215.7l3.3-6.9h7.4l-5.2,6.9H1617z M1619.3,240c0.2,0,0.3,0,0.5,0c0.2,0,0.4-0.1,0.6-0.1c0.2,0,0.4-0.1,0.6-0.1
			c0.2,0,0.3-0.1,0.5-0.2c0.1-0.1,0.2-0.1,0.3-0.1v-4.7l-2,0.3c-0.9,0.1-1.6,0.4-2,0.7c-0.5,0.3-0.7,0.9-0.7,1.6v1
			c0,0.4,0.1,0.8,0.3,1c0.2,0.3,0.4,0.5,0.8,0.6C1618.4,239.9,1618.8,240,1619.3,240z"/>
		<path class="st1" d="M1644.9,246.3c-0.9,0-1.9,0-2.8-0.1c-0.9-0.1-1.8-0.2-2.7-0.3c-0.9-0.1-1.7-0.3-2.5-0.5
			c-0.8-0.2-1.5-0.4-2.1-0.7v-5.4h12c0.4,0,0.7,0,0.9-0.1c0.2-0.1,0.3-0.2,0.4-0.3c0.1-0.1,0.1-0.3,0.1-0.5v-0.6
			c0-0.3-0.1-0.6-0.3-0.7c-0.2-0.2-0.7-0.3-1.5-0.3h-4.3c-1.4,0-2.8-0.2-4-0.7s-2.2-1.3-2.9-2.4c-0.7-1.1-1.1-2.5-1.1-4.4v-1.6
			c0-1.7,0.3-3.1,1-4.2c0.6-1.2,1.8-2.1,3.4-2.7c1.6-0.6,3.9-0.9,6.9-0.9c1.2,0,2.4,0.1,3.6,0.2c1.2,0.1,2.3,0.3,3.4,0.6
			c1,0.2,1.8,0.5,2.4,0.7v5.4h-11.4c-0.5,0-0.8,0.1-1.1,0.2c-0.2,0.1-0.3,0.4-0.3,0.7v0.6c0,0.3,0.1,0.5,0.2,0.6
			c0.1,0.1,0.3,0.2,0.6,0.3c0.3,0.1,0.7,0.1,1.2,0.1h4.5c2.8,0,4.8,0.6,5.9,1.9c1.1,1.3,1.7,3,1.7,5.2v2.6c0,1.7-0.4,3.1-1.2,4.2
			s-2.1,1.8-3.7,2.3C1649.5,246.1,1647.4,246.3,1644.9,246.3z"/>
		<path class="st1" d="M1662.9,250.7c-0.8,0-1.8-0.1-3-0.4v-3c0.5,0,0.9-0.1,1.1-0.2c0.2-0.1,0.4-0.4,0.4-0.8v-0.9h-0.5
			c-0.3,0-0.6-0.1-0.8-0.3c-0.2-0.2-0.4-0.5-0.4-0.9v-4.7c0-0.9,0.4-1.3,1.2-1.3h5.3c0.4,0,0.8,0.1,0.9,0.4c0.2,0.3,0.2,0.6,0.2,0.9
			v7.1c0,1.1-0.2,2-0.7,2.6c-0.5,0.6-1,1-1.7,1.2C1664.3,250.6,1663.6,250.7,1662.9,250.7z"/>
		<path class="st1" d="M1416.6,315l2.5-11.4c-1.9,0-3.4-0.3-4.6-1c-1.2-0.7-2.2-1.5-2.9-2.7c-0.7-1.1-1.2-2.4-1.5-3.8l-4-18.4h9.6
			l2.9,16.5c0.1,0.4,0.2,0.7,0.3,0.9c0.1,0.2,0.3,0.4,0.5,0.6c0.2,0.1,0.4,0.2,0.6,0.3c0.2,0.1,0.4,0.1,0.6,0.1l3.3-18.4h9.5
			l-6.6,32.5l-2.4,4.8H1416.6z"/>
		<path class="st1" d="M1447.6,303.9c-2.3,0-4.2-0.2-5.8-0.7s-2.9-1.2-3.8-2.3c-1-1.1-1.6-2.4-2.1-4.1c-0.4-1.7-0.6-3.7-0.6-6.1
			c0-2.6,0.2-4.7,0.6-6.5c0.4-1.7,1.1-3.1,2.1-4.1s2.2-1.7,3.8-2.1c1.6-0.4,3.5-0.6,5.8-0.6c2.3,0,4.2,0.2,5.8,0.7
			c1.6,0.4,2.8,1.2,3.8,2.2c0.9,1,1.6,2.4,2.1,4.1c0.4,1.7,0.6,3.8,0.6,6.4c0,2.5-0.2,4.6-0.6,6.3c-0.4,1.7-1.1,3.1-2,4.1
			c-0.9,1-2.2,1.8-3.8,2.2S1450,303.9,1447.6,303.9z M1447.6,296.5c0.6,0,1.1-0.1,1.5-0.2c0.4-0.1,0.7-0.4,0.9-0.7
			c0.2-0.4,0.4-1,0.5-1.8c0.1-0.8,0.1-1.9,0.1-3.2c0-1.3,0-2.4-0.1-3.2c-0.1-0.8-0.3-1.4-0.5-1.8c-0.2-0.4-0.5-0.6-0.9-0.7
			c-0.4-0.1-0.9-0.2-1.5-0.2s-1.1,0.1-1.5,0.2c-0.4,0.1-0.7,0.4-0.9,0.7c-0.2,0.4-0.4,1-0.5,1.8c-0.1,0.8-0.1,1.8-0.1,3.2
			c0,1.3,0,2.4,0.1,3.2c0.1,0.8,0.3,1.4,0.5,1.8c0.2,0.4,0.5,0.6,0.9,0.7C1446.5,296.4,1447,296.5,1447.6,296.5z"/>
		<path class="st1" d="M1486.2,303.6c-2.2,0-4-0.3-5.3-0.9c-1.3-0.6-2.3-1.6-2.8-3c-0.6-1.4-0.8-3.4-0.7-5.8l0.3-8.7h-4v-6l4.4-1.4
			l1.2-7.2h7.4v7.2h5.2v7.4h-5.2v8.7c0,0.4,0,0.8,0.1,1.1c0.1,0.3,0.2,0.6,0.3,0.8c0.1,0.2,0.3,0.4,0.6,0.5c0.2,0.1,0.5,0.2,0.8,0.2
			l3.3,0.3v6.9H1486.2z"/>
		<path class="st1" d="M1506.4,303.9c-2.9,0-5.3-0.4-7.1-1.1c-1.8-0.7-3.1-2.1-3.9-4c-0.8-1.9-1.2-4.6-1.2-8c0-3.6,0.4-6.3,1.1-8.2
			c0.7-1.9,2-3.3,3.7-4.1s4.1-1.2,7-1.2c2.8,0,4.9,0.3,6.5,0.8c1.6,0.5,2.7,1.4,3.4,2.8c0.7,1.3,1,3.2,1,5.6c0,1.9-0.4,3.4-1.1,4.4
			c-0.7,1.1-1.8,1.8-3.1,2.3c-1.3,0.4-2.9,0.7-4.8,0.7h-4.6c0.1,0.8,0.3,1.4,0.6,1.8c0.3,0.5,0.8,0.8,1.6,1c0.8,0.2,1.9,0.3,3.4,0.3
			h7.1v5.4c-1.1,0.3-2.5,0.6-4,1C1510.4,303.7,1508.6,303.9,1506.4,303.9z M1503.3,288.5h3.7c0.6,0,1.1-0.1,1.4-0.4s0.4-0.8,0.4-1.5
			c0-0.6-0.1-1.1-0.3-1.5c-0.2-0.4-0.5-0.7-0.9-0.8c-0.4-0.2-1-0.3-1.6-0.3c-0.6,0-1.1,0.1-1.5,0.4c-0.4,0.3-0.7,0.7-0.9,1.4
			C1503.4,286.4,1503.3,287.3,1503.3,288.5z"/>
		<path class="st1" d="M1538.3,303.9c-2,0-3.6-0.6-4.8-1.8c-1.2-1.2-1.8-2.8-1.8-4.8v-2.6c0-1.9,0.7-3.5,2.1-4.8
			c1.4-1.3,3.6-1.9,6.7-1.9h5.2v-0.8c0-0.6-0.1-1.1-0.3-1.5c-0.2-0.4-0.7-0.6-1.4-0.8c-0.7-0.1-1.8-0.2-3.2-0.2h-7.5v-5.3
			c1.3-0.5,2.9-1,4.6-1.3c1.7-0.4,3.9-0.5,6.4-0.5c2.2,0,4.1,0.2,5.7,0.7c1.6,0.5,2.9,1.4,3.7,2.7c0.9,1.3,1.3,3.2,1.3,5.6v17.1
			h-7.4l-1.4-2.6c-0.3,0.3-0.7,0.6-1.2,1c-0.5,0.3-1,0.6-1.7,0.9c-0.6,0.3-1.4,0.5-2.2,0.7C1540.3,303.8,1539.3,303.9,1538.3,303.9z
			 M1543.2,297.6c0.2,0,0.3,0,0.5,0c0.2,0,0.4-0.1,0.6-0.1c0.2,0,0.4-0.1,0.6-0.1c0.2,0,0.3-0.1,0.5-0.2c0.1-0.1,0.2-0.1,0.3-0.1
			v-4.7l-2,0.3c-0.9,0.1-1.6,0.4-2,0.7c-0.5,0.3-0.7,0.9-0.7,1.6v1c0,0.4,0.1,0.8,0.3,1c0.2,0.3,0.4,0.5,0.8,0.6
			C1542.3,297.5,1542.7,297.6,1543.2,297.6z"/>
		<path class="st1" d="M1567.9,315l2.5-11.4c-1.9,0-3.4-0.3-4.6-1c-1.2-0.7-2.2-1.5-2.9-2.7c-0.7-1.1-1.2-2.4-1.5-3.8l-4-18.4h9.6
			l2.9,16.5c0.1,0.4,0.2,0.7,0.3,0.9c0.1,0.2,0.3,0.4,0.5,0.6c0.2,0.1,0.4,0.2,0.6,0.3c0.2,0.1,0.4,0.1,0.6,0.1l3.3-18.4h9.5
			l-6.6,32.5l-2.4,4.8H1567.9z"/>
		<path class="st1" d="M1594.4,303.9c-2.2,0-4-0.7-5.3-2.1c-1.3-1.4-1.9-3.3-1.9-5.6v-18.4h9.3v15.5c0,1,0.2,1.7,0.7,2
			c0.5,0.3,1.1,0.5,1.8,0.5c0.5,0,1.1-0.1,1.8-0.4s1.3-0.6,1.7-1.1v-16.5h9.3v25.9h-7.8l-1.5-2.5c-1.1,0.7-2.3,1.3-3.7,1.9
			C1597.4,303.6,1596,303.9,1594.4,303.9z"/>
		<path class="st1" d="M1624.6,303.9c-2,0-3.6-0.4-5-1.2c-1.4-0.8-2.4-2.2-3.1-4.1c-0.7-1.9-1.1-4.4-1.1-7.6c0-3.2,0.3-5.8,0.8-7.8
			c0.6-2,1.5-3.5,3-4.4c1.4-1,3.4-1.4,5.9-1.4c1,0,2,0.1,3,0.3s1.9,0.4,2.7,0.7V267h9.3v36.6h-7.9l-1.4-2.4c-0.6,0.5-1.2,1-1.9,1.4
			c-0.7,0.4-1.4,0.7-2.1,0.9C1626.2,303.8,1625.4,303.9,1624.6,303.9z M1628,296.5c0.6,0,1.2-0.1,1.7-0.3c0.5-0.2,0.9-0.4,1.1-0.6
			V285c-0.3-0.2-0.7-0.3-1.2-0.5s-1-0.3-1.4-0.3c-0.9,0-1.6,0.1-2.1,0.4s-0.9,0.9-1.1,1.8c-0.2,0.9-0.3,2.3-0.3,4.1
			c0,1.8,0.1,3.1,0.3,3.9c0.2,0.8,0.6,1.4,1.1,1.7C1626.6,296.3,1627.2,296.5,1628,296.5z"/>
		<path class="st1" d="M1656,303.9c-2.3,0-4.2-0.2-5.8-0.7s-2.9-1.2-3.8-2.3c-1-1.1-1.6-2.4-2.1-4.1c-0.4-1.7-0.6-3.7-0.6-6.1
			c0-2.6,0.2-4.7,0.6-6.5c0.4-1.7,1.1-3.1,2.1-4.1s2.2-1.7,3.8-2.1c1.6-0.4,3.5-0.6,5.8-0.6c2.3,0,4.2,0.2,5.8,0.7
			c1.6,0.4,2.8,1.2,3.8,2.2c0.9,1,1.6,2.4,2.1,4.1c0.4,1.7,0.6,3.8,0.6,6.4c0,2.5-0.2,4.6-0.6,6.3c-0.4,1.7-1.1,3.1-2,4.1
			c-0.9,1-2.2,1.8-3.8,2.2S1658.3,303.9,1656,303.9z M1656,296.5c0.6,0,1.1-0.1,1.5-0.2c0.4-0.1,0.7-0.4,0.9-0.7
			c0.2-0.4,0.4-1,0.5-1.8c0.1-0.8,0.1-1.9,0.1-3.2c0-1.3,0-2.4-0.1-3.2c-0.1-0.8-0.3-1.4-0.5-1.8c-0.2-0.4-0.5-0.6-0.9-0.7
			c-0.4-0.1-0.9-0.2-1.5-0.2s-1.1,0.1-1.5,0.2c-0.4,0.1-0.7,0.4-0.9,0.7c-0.2,0.4-0.4,1-0.5,1.8c-0.1,0.8-0.1,1.8-0.1,3.2
			c0,1.3,0,2.4,0.1,3.2c0.1,0.8,0.3,1.4,0.5,1.8c0.2,0.4,0.5,0.6,0.9,0.7C1654.9,296.4,1655.4,296.5,1656,296.5z"/>
	</g>
	<g>
		<path class="st3" d="M505.7,524.3c4.4-28.8-14.4-56.5-43.3-62.6c-5.5-1.2-11.2-1.5-16.8-1c-5.8-19.1-21.4-33.8-41.5-38.1
			c-7.9-1.7-15.9-1.6-23.7,0.1c-7.9-12.5-21.5-20.8-36.6-21.8c-19.4-1.3-36.9,9.2-45.2,26c-30.6-7.9-61.2,11.6-67.7,42.2
			c-0.7,3.4-2.2,7.1-3.4,9.4c-35.3-5-69,18.2-76.6,53.5c-2.6,12.1,0.9,27.3,5.4,40.8c-16.6,2.8-30.7,15.5-34.4,33
			c-4.9,22.9,9.8,45.4,32.6,50.2c11.3,2.4,22.7,0.1,32-6.1c7.9,10,19,16.9,31.8,19.6c14.4,3.1,29.2,0.2,41.4-7.6
			c16.9,22.1,41.4,38.5,70.7,44.7c60,12.7,119.2-21.7,138.9-78.2c3.3,1.4,6.7,2.5,10.3,3.3c29.9,6.3,59.4-12.8,65.7-42.7
			C551.4,560.4,533.8,531.9,505.7,524.3z M334.4,687.7c-54.5-11.6-89.4-65.3-77.8-119.8c11.6-54.5,65.3-89.4,119.8-77.8
			c54.5,11.6,89.4,65.3,77.8,119.8c0,0.1-0.1,0.3-0.1,0.4l0,0c-0.1,0.5-0.3,0.9-0.4,1.4l-0.9,3.8C438.9,666.7,387,698.9,334.4,687.7
			z M483.6,612.8c-3.3-0.7-6.4-1.8-9.4-3.4c11-63.4-30.3-124.9-93.8-138.4c-65-13.8-129.2,27.9-143,92.9
			c-6.1,28.9-1.3,57.6,11.7,81.9c-7.9,5-17.4,6.9-26.7,4.9c-11-2.3-20-9.5-24.9-19.7l-6.7-14l-9.8,12.1c-5.5,6.8-14.1,9.9-22.4,8.1
			c-12.3-2.6-20.2-14.8-17.6-27.1c2.6-12.3,14.8-20.2,27.1-17.6l5.7,1.2l3.8-4.4c3.9-4.5,2.2-8.9,0.5-13.6c-2.6-6.9-10.4-28-8-39.5
			c5.6-26.4,31.6-43.3,58-37.7c15.8,3.3,21.8-24.1,22-25.3c4.1-19.3,23.2-31.7,42.5-27.6c2.6,0.6,5.2,1.4,7.8,2.7l11,5.2l2.7-11.8
			c3-13.1,15-22,28.5-21.1c10.6,0.7,19.9,7.6,23.7,17.6l3.6,9.3l9.2-3.8c6.6-2.7,13.9-3.3,20.9-1.8c15.3,3.2,26.6,15.8,28.2,31.4
			l1.2,11.7l11.3-3.4c5.7-1.7,11.8-1.9,17.6-0.7c19.3,4.1,31.7,23.2,27.6,42.5c-1.6,7.6,5,17.7,12.6,19.3
			c19.3,4.1,31.7,23.2,27.6,42.5C522,604.5,503,616.9,483.6,612.8z"/>
		
			<ellipse transform="matrix(0.5662 -0.8242 0.8242 0.5662 -329.5912 522.6982)" class="st3" cx="331.8" cy="574.5" rx="16.3" ry="16.3"/>
		
			<ellipse transform="matrix(0.8386 -0.5448 0.5448 0.8386 -249.119 309.8633)" class="st3" cx="398.3" cy="575.3" rx="16.3" ry="16.3"/>
		
			<ellipse transform="matrix(0.9997 -2.257583e-02 2.257583e-02 0.9997 -13.9246 8.3298)" class="st3" cx="362" cy="620.9" rx="13" ry="13"/>
	</g>
	<g>
		<path class="st3" d="M528.4,813c-2.5,0-5-0.1-7.6-0.3c-25.3-2-51.1-13.7-76.7-34.9c-20.5-16.9-35.5-35.4-43.6-45.4
			c-1.8-2.3-3.3-4-4.2-5c-2.5-2.8-2.3-7.1,0.5-9.7c2.8-2.5,7.1-2.3,9.7,0.5c1.1,1.3,2.6,3.1,4.6,5.6c57.9,71.2,97.7,74.3,110.8,75.3
			c25.6,2,50.6-7.9,74.3-29.3l63.1-56.9l4.6,5.1c0.2,0.2,4.2,4.8-0.5,9.6l0,0c0,0-0.2,0.2-0.5,0.5c0,0,0,0,0,0l-0.6,0.5
			c-3.5,3.1-16.2,14.6-56.9,51.3C581,801.9,555.2,813,528.4,813z"/>
		<path class="st3" d="M603.4,753.7c-1.9,0-3.7-0.8-5.1-2.3c-2.5-2.8-2.3-7.1,0.5-9.7l56.9-51.3c2.8-2.5,7.1-2.3,9.7,0.5
			c2.5,2.8,2.3,7.1-0.5,9.7l-56.9,51.3C606.6,753.1,605,753.7,603.4,753.7z"/>
		<path class="st3" d="M590.5,739.5c-1.9,0-3.7-0.8-5.1-2.3c-2.5-2.8-2.3-7.1,0.5-9.7l56.9-51.3c2.8-2.5,7.1-2.3,9.7,0.5
			c2.5,2.8,2.3,7.1-0.5,9.7l-56.9,51.3C593.8,738.9,592.2,739.5,590.5,739.5z"/>
		<path class="st3" d="M564.9,711c-1.9,0-3.7-0.8-5.1-2.3c-2.5-2.8-2.3-7.1,0.5-9.7l28.4-25.6c2.8-2.5,7.1-2.3,9.7,0.5
			c2.5,2.8,2.3,7.1-0.5,9.7l-28.4,25.6C568.2,710.4,566.5,711,564.9,711z"/>
		<path class="st3" d="M577.7,725.2c-1.9,0-3.7-0.8-5.1-2.3c-2.5-2.8-2.3-7.1,0.5-9.7l56.9-51.3c2.8-2.5,7.1-2.3,9.7,0.5
			c2.5,2.8,2.3,7.1-0.5,9.7l-56.9,51.3C581,724.7,579.4,725.2,577.7,725.2z"/>
	</g>
	<g>
		<path class="st3" d="M1582.8,515.8c31.2-1.1,58.6-23.6,64.7-55.5c7.1-37.1-17.3-73-54.4-80.1c-37.1-7.1-73,17.3-80.1,54.4
			c-2.5,13-1.1,25.8,3.4,37.4c-2.3-0.6-4.6-1.1-6.9-1.5c-65.3-12.5-128.6,30.5-141,95.8c-12.5,65.3,30.5,128.6,95.8,141
			c65.3,12.5,128.6-30.5,141-95.8C1612.1,576.5,1602.8,542.1,1582.8,515.8z M1589.5,399.4c26.5,5.1,43.9,30.7,38.9,57.2
			c-5.1,26.5-30.7,43.9-57.2,38.9s-43.9-30.7-38.9-57.2C1537.3,411.8,1563,394.4,1589.5,399.4z M1505.9,489.7
			c21.5,4.1,40.1,14.8,54.1,29.5c-13.3,12.2-32.6,16.2-47.4,17.2c-32,2.3-70.5-7.3-93.5-22.3
			C1441.8,493.5,1473.5,483.5,1505.9,489.7z M1468,688.1c-54.7-10.4-90.7-63.5-80.3-118.2c2.9-15.4,9.3-29.4,18.1-41.2
			c15.9,11.1,38,19.7,61.4,24.1c15.5,3,31.6,4.1,46.8,3c24.3-1.7,44.1-9,58.1-21.3c13.4,21,19.1,46.9,14.1,73.2
			C1575.7,662.5,1522.7,698.6,1468,688.1z"/>
		
			<ellipse transform="matrix(1.629452e-02 -0.9999 0.9999 1.629452e-02 826.534 2005.2369)" class="st3" cx="1432.4" cy="582.6" rx="16.3" ry="16.3"/>
		
			<ellipse transform="matrix(1.629454e-02 -0.9999 0.9999 1.629454e-02 885.7057 2075.5239)" class="st3" cx="1497.7" cy="587.6" rx="16.3" ry="16.3"/>
		<path class="st3" d="M1467.8,650.5c-13.5,0-26.5-5.7-37.1-17c-2.6-2.7-2.5-7.1,0.3-9.7c2.7-2.6,7.1-2.5,9.7,0.3
			c16,16.9,37.2,17.1,56.8,0.4c2.9-2.4,7.2-2.1,9.6,0.8c2.4,2.9,2.1,7.2-0.8,9.6C1494,645.3,1480.7,650.5,1467.8,650.5z"/>
	</g>
	<g>
		<path class="st3" d="M1307.3,813c2.5,0,5-0.1,7.6-0.3c25.3-2,51.1-13.7,76.7-34.9c20.5-16.9,35.5-35.4,43.6-45.4
			c1.8-2.3,3.3-4,4.2-5c2.5-2.8,2.3-7.1-0.5-9.7c-2.8-2.5-7.1-2.3-9.7,0.5c-1.1,1.3-2.6,3.1-4.6,5.6
			c-57.9,71.2-97.7,74.3-110.8,75.3c-25.6,2-50.6-7.9-74.3-29.3l-63.1-56.9l-4.6,5.1c-0.2,0.2-4.2,4.8,0.5,9.6l0,0
			c0,0,0.2,0.2,0.5,0.5c0,0,0,0,0,0l0.6,0.5c3.5,3.1,16.2,14.6,56.9,51.3C1254.7,801.9,1280.6,813,1307.3,813z"/>
		<path class="st3" d="M1232.4,753.7c1.9,0,3.7-0.8,5.1-2.3c2.5-2.8,2.3-7.1-0.5-9.7l-56.9-51.3c-2.8-2.5-7.1-2.3-9.7,0.5
			c-2.5,2.8-2.3,7.1,0.5,9.7l56.9,51.3C1229.1,753.1,1230.8,753.7,1232.4,753.7z"/>
		<path class="st3" d="M1245.2,739.5c1.9,0,3.7-0.8,5.1-2.3c2.5-2.8,2.3-7.1-0.5-9.7l-56.9-51.3c-2.8-2.5-7.1-2.3-9.7,0.5
			c-2.5,2.8-2.3,7.1,0.5,9.7l56.9,51.3C1241.9,738.9,1243.6,739.5,1245.2,739.5z"/>
		<path class="st3" d="M1270.8,711c1.9,0,3.7-0.8,5.1-2.3c2.5-2.8,2.3-7.1-0.5-9.7l-28.4-25.6c-2.8-2.5-7.1-2.3-9.7,0.5
			c-2.5,2.8-2.3,7.1,0.5,9.7l28.4,25.6C1267.6,710.4,1269.2,711,1270.8,711z"/>
		<path class="st3" d="M1258,725.2c1.9,0,3.7-0.8,5.1-2.3c2.5-2.8,2.3-7.1-0.5-9.7l-56.9-51.3c-2.8-2.5-7.1-2.3-9.7,0.5
			c-2.5,2.8-2.3,7.1,0.5,9.7l56.9,51.3C1254.7,724.7,1256.4,725.2,1258,725.2z"/>
	</g>
</g>
<g id="Layer_2">
</g>
</svg>
