<?xml version="1.0" encoding="utf-8"?>
<!-- Generator: Adobe Illustrator 25.2.3, SVG Export Plug-In . SVG Version: 6.00 Build 0)  -->
<svg version="1.1" xmlns="http://www.w3.org/2000/svg" xmlns:xlink="http://www.w3.org/1999/xlink" x="0px" y="0px"
	 viewBox="0 0 1800 900" style="enable-background:new 0 0 1800 900;" xml:space="preserve">
<style type="text/css">
	.st0{fill:#785089;}
	.st1{fill:#D695C0;}
	.st2{fill:#442856;}
	.st3{fill:#BEA3CC;}
	.st4{fill:#F0CEE2;}
	.st5{fill:none;stroke:#D695C0;stroke-width:16;stroke-miterlimit:10;}
	.st6{fill:none;stroke:#785089;stroke-width:15;stroke-linecap:round;stroke-miterlimit:10;}
	.st7{fill:none;stroke:#60C7D5;stroke-width:16;stroke-miterlimit:10;}
</style>
<g id="Layer_1">
	<g>
		<path class="st1" d="M1115.6,725.2c-2.5,0-5-0.1-7.6-0.3c-25.3-2-51.1-13.7-76.7-34.9c-20.5-16.9-35.5-35.4-43.6-45.4
			c-1.8-2.3-3.3-4-4.2-5c-2.5-2.8-2.3-7.1,0.5-9.7c2.8-2.5,7.1-2.3,9.7,0.5c1.1,1.3,2.6,3.1,4.6,5.6c57.9,71.2,97.7,74.3,110.8,75.3
			c25.6,2,50.6-7.9,74.3-29.3l63.1-56.9l4.6,5.1c0.2,0.2,4.2,4.8-0.5,9.6l0,0c0,0-0.2,0.2-0.5,0.5c0,0,0,0,0,0l-0.6,0.5
			c-3.5,3.1-16.2,14.6-56.9,51.3C1168.3,714.1,1142.4,725.2,1115.6,725.2z"/>
		<path class="st1" d="M1190.6,665.9c-1.9,0-3.7-0.8-5.1-2.3c-2.5-2.8-2.3-7.1,0.5-9.7l56.9-51.3c2.8-2.5,7.1-2.3,9.7,0.5
			c2.5,2.8,2.3,7.1-0.5,9.7l-56.9,51.3C1193.8,665.3,1192.2,665.9,1190.6,665.9z"/>
		<path class="st1" d="M1177.8,651.7c-1.9,0-3.7-0.8-5.1-2.3c-2.5-2.8-2.3-7.1,0.5-9.7l56.9-51.3c2.8-2.5,7.1-2.3,9.7,0.5
			c2.5,2.8,2.3,7.1-0.5,9.7l-56.9,51.3C1181,651.1,1179.4,651.7,1177.8,651.7z"/>
		<path class="st1" d="M1152.1,623.2c-1.9,0-3.7-0.8-5.1-2.3c-2.5-2.8-2.3-7.1,0.5-9.7l28.4-25.6c2.8-2.5,7.1-2.3,9.7,0.5
			c2.5,2.8,2.3,7.1-0.5,9.7l-28.4,25.6C1155.4,622.7,1153.8,623.2,1152.1,623.2z"/>
		<path class="st1" d="M1164.9,637.5c-1.9,0-3.7-0.8-5.1-2.3c-2.5-2.8-2.3-7.1,0.5-9.7l56.9-51.3c2.8-2.5,7.1-2.3,9.7,0.5
			c2.5,2.8,2.3,7.1-0.5,9.7l-56.9,51.3C1168.2,636.9,1166.6,637.5,1164.9,637.5z"/>
	</g>
	<g>
		<path class="st1" d="M684.6,725.2c2.5,0,5-0.1,7.6-0.3c25.3-2,51.1-13.7,76.7-34.9c20.5-16.9,35.5-35.4,43.6-45.4
			c1.8-2.3,3.3-4,4.2-5c2.5-2.8,2.3-7.1-0.5-9.7c-2.8-2.5-7.1-2.3-9.7,0.5c-1.1,1.3-2.6,3.1-4.6,5.6
			c-57.9,71.2-97.7,74.3-110.8,75.3c-25.6,2-50.6-7.9-74.3-29.3l-63.1-56.9l-4.6,5.1c-0.2,0.2-4.2,4.8,0.5,9.6l0,0
			c0,0,0.2,0.2,0.5,0.5c0,0,0,0,0,0l0.6,0.5c3.5,3.1,16.2,14.6,56.9,51.3C632,714.1,657.9,725.2,684.6,725.2z"/>
		<path class="st1" d="M609.7,665.9c1.9,0,3.7-0.8,5.1-2.3c2.5-2.8,2.3-7.1-0.5-9.7l-56.9-51.3c-2.8-2.5-7.1-2.3-9.7,0.5
			c-2.5,2.8-2.3,7.1,0.5,9.7l56.9,51.3C606.4,665.3,608,665.9,609.7,665.9z"/>
		<path class="st1" d="M622.5,651.7c1.9,0,3.7-0.8,5.1-2.3c2.5-2.8,2.3-7.1-0.5-9.7l-56.9-51.3c-2.8-2.5-7.1-2.3-9.7,0.5
			c-2.5,2.8-2.3,7.1,0.5,9.7l56.9,51.3C619.2,651.1,620.9,651.7,622.5,651.7z"/>
		<path class="st1" d="M648.1,623.2c1.9,0,3.7-0.8,5.1-2.3c2.5-2.8,2.3-7.1-0.5-9.7l-28.4-25.6c-2.8-2.5-7.1-2.3-9.7,0.5
			c-2.5,2.8-2.3,7.1,0.5,9.7l28.4,25.6C644.8,622.7,646.5,623.2,648.1,623.2z"/>
		<path class="st1" d="M635.3,637.5c1.9,0,3.7-0.8,5.1-2.3c2.5-2.8,2.3-7.1-0.5-9.7L583,574.3c-2.8-2.5-7.1-2.3-9.7,0.5
			c-2.5,2.8-2.3,7.1,0.5,9.7l56.9,51.3C632,636.9,633.7,637.5,635.3,637.5z"/>
	</g>
	<g>
		<path class="st1" d="M1046.2,402.8c4.4-28.8-14.4-56.5-43.3-62.6c-5.5-1.2-11.2-1.5-16.8-1c-5.8-19.1-21.4-33.8-41.5-38.1
			c-7.9-1.7-15.9-1.6-23.7,0.1c-7.9-12.5-21.5-20.8-36.6-21.8c-19.4-1.3-36.9,9.2-45.2,26c-30.6-7.9-61.2,11.6-67.7,42.2
			c-0.7,3.4-2.2,7.1-3.4,9.4c-35.3-5-69,18.2-76.6,53.5c-2.6,12.1,0.9,27.3,5.4,40.8c-16.6,2.8-30.7,15.5-34.4,33
			c-4.9,22.9,9.8,45.4,32.6,50.2c11.3,2.4,22.7,0.1,32-6.1c7.9,10,19,16.9,31.8,19.6c14.4,3.1,29.2,0.2,41.4-7.6
			c16.9,22.1,41.4,38.5,70.7,44.7c60,12.7,119.2-21.7,138.9-78.2c3.3,1.4,6.7,2.5,10.3,3.3c29.9,6.3,59.4-12.8,65.7-42.7
			C1091.9,438.9,1074.3,410.4,1046.2,402.8z M994.8,488.4c0,0.1-0.1,0.3-0.1,0.4l0,0c-0.1,0.5-0.3,0.9-0.4,1.4l-0.9,3.8
			c-13.9,51.3-65.8,83.4-118.4,72.3c-54.5-11.6-89.4-65.3-77.8-119.8c11.6-54.5,65.3-89.4,119.8-77.8
			C971.4,380.2,1006.3,433.9,994.8,488.4z M1066.7,463.7c-4.1,19.3-23.2,31.7-42.5,27.6c-3.3-0.7-6.4-1.8-9.4-3.4
			c11-63.4-30.3-124.9-93.8-138.4c-65-13.8-129.2,27.9-143,92.9c-6.1,28.9-1.3,57.6,11.7,81.9c-7.9,5-17.4,6.9-26.7,4.9
			c-11-2.3-20-9.5-24.9-19.7l-6.7-14l-9.8,12.1c-5.5,6.8-14.1,9.9-22.4,8.1c-12.3-2.6-20.2-14.8-17.6-27.1
			c2.6-12.3,14.8-20.2,27.1-17.6l5.7,1.2l3.8-4.4c3.9-4.5,2.2-8.9,0.5-13.6c-2.6-6.9-10.4-28-8-39.5c5.6-26.4,31.6-43.3,58-37.7
			c15.8,3.3,21.8-24.1,22-25.3c4.1-19.3,23.2-31.7,42.5-27.6c2.6,0.6,5.2,1.4,7.8,2.7l11,5.2l2.7-11.8c3-13.1,15-22,28.5-21.1
			c10.6,0.7,19.9,7.6,23.7,17.6l3.6,9.3l9.2-3.8c6.6-2.7,13.9-3.3,20.9-1.8c15.3,3.2,26.6,15.8,28.2,31.4l1.2,11.7l11.3-3.4
			c5.7-1.7,11.8-1.9,17.6-0.7c19.3,4.1,31.7,23.2,27.6,42.5c-1.6,7.6,5,17.7,12.6,19.3C1058.4,425.3,1070.8,444.3,1066.7,463.7z"/>
		
			<ellipse transform="matrix(0.9958 -9.180736e-02 9.180736e-02 0.9958 -37.8437 81.4937)" class="st1" cx="866.9" cy="452.1" rx="16.3" ry="16.3"/>
		
			<ellipse transform="matrix(0.895 -0.446 0.446 0.895 -104.7925 462.4119)" class="st1" cx="929.9" cy="453.8" rx="16.3" ry="16.3"/>
		<path class="st1" d="M927.7,487.6c-3.2-0.6-6.4,1.5-7,4.7c-0.3,1.6-3.9,15.8-23.4,15.3c-20.9-0.5-25-13.6-25.2-14.3
			c-0.9-3.2-4.1-5.1-7.3-4.2c-3.2,0.8-5.1,4.1-4.3,7.3c0.2,0.9,6.1,22.5,36.5,23.3c0.4,0,0.9,0,1.3,0c23.2,0,32.5-16.2,34.2-25
			C933.1,491.4,931,488.2,927.7,487.6z"/>
	</g>
	<g>
		<path class="st1" d="M359.9,725.2c-2.5,0-5-0.1-7.6-0.3c-25.3-2-51.1-13.7-76.7-34.9c-20.5-16.9-35.5-35.4-43.6-45.4
			c-1.8-2.3-3.3-4-4.2-5c-2.5-2.8-2.3-7.1,0.5-9.7c2.8-2.5,7.1-2.3,9.7,0.5c1.1,1.3,2.6,3.1,4.6,5.6c57.9,71.2,97.7,74.3,110.8,75.3
			c25.6,2,50.6-7.9,74.3-29.3l63.1-56.9l4.6,5.1c0.2,0.2,4.2,4.8-0.5,9.6l0,0c0,0-0.2,0.2-0.5,0.5c0,0,0,0,0,0l-0.6,0.5
			c-3.5,3.1-16.2,14.6-56.9,51.3C412.5,714.1,386.7,725.2,359.9,725.2z"/>
		<path class="st1" d="M434.8,665.9c-1.9,0-3.7-0.8-5.1-2.3c-2.5-2.8-2.3-7.1,0.5-9.7l56.9-51.3c2.8-2.5,7.1-2.3,9.7,0.5
			c2.5,2.8,2.3,7.1-0.5,9.7l-56.9,51.3C438.1,665.3,436.5,665.9,434.8,665.9z"/>
		<path class="st1" d="M422,651.7c-1.9,0-3.7-0.8-5.1-2.3c-2.5-2.8-2.3-7.1,0.5-9.7l56.9-51.3c2.8-2.5,7.1-2.3,9.7,0.5
			c2.5,2.8,2.3,7.1-0.5,9.7l-56.9,51.3C425.3,651.1,423.7,651.7,422,651.7z"/>
		<path class="st1" d="M396.4,623.2c-1.9,0-3.7-0.8-5.1-2.3c-2.5-2.8-2.3-7.1,0.5-9.7l28.4-25.6c2.8-2.5,7.1-2.3,9.7,0.5
			c2.5,2.8,2.3,7.1-0.5,9.7L401,621.5C399.7,622.7,398,623.2,396.4,623.2z"/>
		<path class="st1" d="M409.2,637.5c-1.9,0-3.7-0.8-5.1-2.3c-2.5-2.8-2.3-7.1,0.5-9.7l56.9-51.3c2.8-2.5,7.1-2.3,9.7,0.5
			c2.5,2.8,2.3,7.1-0.5,9.7l-56.9,51.3C412.5,636.9,410.8,637.5,409.2,637.5z"/>
	</g>
	<g>
		<path class="st1" d="M1689.6,371c38.3-0.3,69.4-31.6,69.4-70c0-38.6-31.4-70-70-70s-70,31.4-70,70c0,20.4,8.7,38.7,22.7,51.5
			c-6.3-1-12.8-1.5-19.3-1.5c-68,0-123.4,55.3-123.4,123.4s55.3,123.4,123.4,123.4s123.4-55.3,123.4-123.4
			C1745.7,431.1,1723.3,393,1689.6,371z M1639,301c0-27.6,22.4-50,50-50s50,22.4,50,50c0,27.6-22.4,50-50,50S1639,328.6,1639,301z
			 M1723.9,455.5c-8.8-2.7-21.6-8.6-34.5-21.5c-15-15-14.6-35.8-12.8-47.5C1700.9,401.5,1718.5,426.4,1723.9,455.5z M1622.3,371
			c10.8,0,21.2,1.7,31,4.8c-5.2,18.5-21,32.4-34.1,41.1c-27.7,18.4-67.8,29.4-95.8,27.2C1536.4,401.9,1575.8,371,1622.3,371z
			 M1622.3,577.7c-57,0-103.4-46.4-103.4-103.4c0-3.6,0.2-7.1,0.5-10.5c3.7,0.4,7.6,0.6,11.7,0.6c31.4,0,70.1-11.6,99.1-30.9
			c10.6-7,19.4-14.7,26.3-23c1.9,12.4,7.1,25.9,18.7,37.5c19.3,19.3,38.9,26,50.4,28.4C1724.5,532.5,1678.6,577.7,1622.3,577.7z"/>
		<path class="st1" d="M1611.6,481.7c1.9-8.8-3.8-17.5-12.6-19.3c-8.8-1.9-17.5,3.8-19.3,12.6c-1.9,8.8,3.8,17.5,12.6,19.3
			C1601.1,496.1,1609.8,490.5,1611.6,481.7z"/>
		<path class="st1" d="M1662.1,464.1c-8.8-1.9-17.5,3.8-19.3,12.6c-1.9,8.8,3.8,17.5,12.6,19.3c8.8,1.9,17.5-3.8,19.3-12.6
			C1676.5,474.6,1670.9,465.9,1662.1,464.1z"/>
		<path class="st1" d="M1656.5,513.8c-3.2-0.6-6.4,1.5-7,4.7c-0.3,1.6-3.9,15.8-23.4,15.3c-20.9-0.5-25-13.6-25.2-14.3
			c-0.9-3.2-4.1-5.1-7.3-4.2c-3.2,0.8-5.1,4.1-4.3,7.3c0.2,0.9,6.1,22.5,36.5,23.3c0.5,0,0.9,0,1.3,0c23.2,0,32.5-16.2,34.2-25
			C1661.9,517.6,1659.8,514.4,1656.5,513.8z"/>
	</g>
	<g>
		
			<ellipse transform="matrix(0.9958 -9.180736e-02 9.180736e-02 0.9958 -42.3462 15.9719)" class="st1" cx="152.4" cy="468.3" rx="16.3" ry="16.3"/>
		<ellipse transform="matrix(0.895 -0.446 0.446 0.895 -187.0185 145.4379)" class="st1" cx="215.4" cy="470" rx="16.3" ry="16.3"/>
		<path class="st1" d="M213.3,503.8c-3.3-0.6-6.4,1.5-7,4.8c-0.1,0.6-3.3,15.7-23.4,15.2c-20.9-0.5-25-13.6-25.2-14.3
			c-0.9-3.2-4.1-5.1-7.3-4.2c-3.2,0.8-5.1,4.1-4.3,7.3c0.2,0.9,6.1,22.5,36.5,23.3c0.4,0,0.9,0,1.3,0c23.2,0,32.5-16.2,34.2-25
			C218.6,507.6,216.5,504.4,213.3,503.8z"/>
		<path class="st1" d="M277,391.1c-0.7-1.3-1.6-2.5-2.8-3.4c0,0-0.1,0-0.1-0.1c-22.1-25.1-54.5-41-90.5-41c-25.2,0-48.5,7.8-67.9,21
			c-8.4-6.1-15.9-12.9-22.4-20.5c-3.5-4.1-9.7-4.5-13.8-1c-4.1,3.5-4.5,9.7-1,13.8c6.4,7.4,13.7,14.3,21.6,20.4
			c-7,6.8-13.2,14.4-18.5,22.7c-17.8-12.2-26-24.8-26.6-25.7c-2.9-4.5-8.9-5.9-13.4-3.1c-4.6,2.9-6,8.9-3.1,13.5
			c0.7,1.1,11.2,17.6,34,32.7c-6.1,14.4-9.4,30.2-9.4,46.8c0,66.5,54.1,120.5,120.5,120.5c66.5,0,120.5-54.1,120.5-120.5
			C304.1,438.4,293.9,411.9,277,391.1z M249.7,391c-16.7,7-58.6,18.2-115.4-11.8c14.6-8.2,31.4-12.9,49.3-12.9
			C208.8,366.3,232,375.6,249.7,391z M116.6,391.7c1.9,1.1,3.8,2.2,5.7,3.3c32.9,17.9,61.8,23.5,85,23.5c3.7,0,7.3-0.1,10.7-0.4
			c-19.1,7.2-45.1,11.7-78.7,6.9c-16.1-2.3-29.6-6.8-40.8-12.2C103.6,405,109.7,397.9,116.6,391.7z M183.6,568.2
			c-55.7,0-101-45.3-101-101c0-13.1,2.5-25.5,7-37c12.9,6.3,28.5,11.5,47,14.1c10.7,1.5,20.7,2.2,30.1,2.2
			c53.9,0,86.2-22.5,100.6-35.7c10.9,16.1,17.3,35.5,17.3,56.4C284.6,522.9,239.3,568.2,183.6,568.2z"/>
	</g>
	<g>
		<path class="st1" d="M1435.6,732.9c2.5,0,5-0.1,7.6-0.3c25.3-2,51.1-13.7,76.7-34.9c20.5-16.9,35.5-35.4,43.6-45.4
			c1.8-2.3,3.3-4,4.2-5c2.5-2.8,2.3-7.1-0.5-9.7c-2.8-2.5-7.1-2.3-9.7,0.5c-1.1,1.3-2.6,3.1-4.6,5.6
			c-57.9,71.2-97.7,74.3-110.8,75.3c-25.6,2-50.6-7.9-74.3-29.3l-63.1-56.9l-4.6,5.1c-0.2,0.2-4.2,4.8,0.5,9.6l0,0
			c0,0,0.2,0.2,0.5,0.5c0,0,0,0,0,0l0.6,0.5c3.5,3.1,16.2,14.6,56.9,51.3C1383,721.8,1408.9,732.9,1435.6,732.9z"/>
		<path class="st1" d="M1360.7,673.5c1.9,0,3.7-0.8,5.1-2.3c2.5-2.8,2.3-7.1-0.5-9.7l-56.9-51.3c-2.8-2.5-7.1-2.3-9.7,0.5
			c-2.5,2.8-2.3,7.1,0.5,9.7l56.9,51.3C1357.4,672.9,1359.1,673.5,1360.7,673.5z"/>
		<path class="st1" d="M1373.5,659.3c1.9,0,3.7-0.8,5.1-2.3c2.5-2.8,2.3-7.1-0.5-9.7l-56.9-51.3c-2.8-2.5-7.1-2.3-9.7,0.5
			c-2.5,2.8-2.3,7.1,0.5,9.7l56.9,51.3C1370.2,658.7,1371.9,659.3,1373.5,659.3z"/>
		<path class="st1" d="M1399.1,630.9c1.9,0,3.7-0.8,5.1-2.3c2.5-2.8,2.3-7.1-0.5-9.7l-28.4-25.6c-2.8-2.5-7.1-2.3-9.7,0.5
			c-2.5,2.8-2.3,7.1,0.5,9.7l28.4,25.6C1395.9,630.3,1397.5,630.9,1399.1,630.9z"/>
		<path class="st1" d="M1386.3,645.1c1.9,0,3.7-0.8,5.1-2.3c2.5-2.8,2.3-7.1-0.5-9.7l-56.9-51.3c-2.8-2.5-7.1-2.3-9.7,0.5
			c-2.5,2.8-2.3,7.1,0.5,9.7l56.9,51.3C1383,644.5,1384.7,645.1,1386.3,645.1z"/>
	</g>
</g>
<g id="Layer_2">
</g>
</svg>
