<?xml version="1.0" encoding="utf-8"?>
<!-- Generator: Adobe Illustrator 25.2.3, SVG Export Plug-In . SVG Version: 6.00 Build 0)  -->
<svg version="1.1" xmlns="http://www.w3.org/2000/svg" xmlns:xlink="http://www.w3.org/1999/xlink" x="0px" y="0px"
	 viewBox="0 0 1800 900" style="enable-background:new 0 0 1800 900;" xml:space="preserve">
<style type="text/css">
	.st0{fill:#D695C0;}
	.st1{fill:#E34D99;}
	.st2{fill:#76BF60;}
	.st3{fill:#EC8231;}
	.st4{fill:#489B91;}
	.st5{fill:none;stroke:#442856;stroke-linecap:round;stroke-miterlimit:10;}
	.st6{fill:#BEA3CC;}
	.st7{fill:#442856;}
	.st8{fill:#785089;}
	.st9{fill:none;stroke:#442856;stroke-width:15;stroke-miterlimit:10;}
	.st10{fill:none;stroke:#BEA3CC;stroke-width:15;stroke-linecap:round;stroke-miterlimit:10;stroke-dasharray:12,21;}
	.st11{clip-path:url(#SVGID_2_);}
	.st12{fill:none;stroke:#D695C0;stroke-width:16;stroke-miterlimit:10;}
	.st13{fill:none;stroke:#785089;stroke-width:15;stroke-linecap:round;stroke-miterlimit:10;}
	.st14{fill:#C7E2C0;}
	.st15{fill:#9BD2CA;}
	.st16{fill:#FBC089;}
	.st17{fill:#E9A6C9;}
	.st18{fill:#F0CEE2;}
	.st19{fill:none;stroke:#442856;stroke-width:15;stroke-linecap:round;stroke-miterlimit:10;}
</style>
<g id="Layer_1">
	<g>
		<path class="st0" d="M1494.5,466c-78,0-141.4,63.4-141.4,141.4c0,78,63.4,141.4,141.4,141.4s141.4-63.4,141.4-141.4
			C1635.9,529.4,1572.5,466,1494.5,466z M1494.5,733.9c-69.7,0-126.4-56.7-126.4-126.4S1424.8,481,1494.5,481
			s126.4,56.7,126.4,126.4S1564.2,733.9,1494.5,733.9z"/>
		<path class="st0" d="M1565.2,580.8l-38.9-5.9c-2.6-0.4-4.9-2.1-6.1-4.6l-17.4-36.9c-3-6.3-11.5-6.3-14.5,0l-17.4,36.9
			c-1.2,2.5-3.4,4.2-6.1,4.6l-38.9,5.9c-6.6,1-9.3,9.5-4.5,14.4l28.2,28.7c1.9,1.9,2.8,4.7,2.3,7.5l-6.6,40.5
			c-1.1,6.9,5.8,12.1,11.7,8.9l34.8-19.1c2.3-1.3,5.2-1.3,7.5,0l34.8,19.1c5.9,3.3,12.8-2,11.7-8.9l-6.6-40.5
			c-0.4-2.7,0.4-5.5,2.3-7.5l28.2-28.7C1574.5,590.3,1571.8,581.8,1565.2,580.8z"/>
	</g>
	<path class="st0" d="M182.4,67C104.4,67,41,130.4,41,208.4c0,78,63.4,141.4,141.4,141.4c78,0,141.4-63.4,141.4-141.4
		C323.9,130.4,260.4,67,182.4,67z M226.1,234.6l6.6,40.5c1.1,6.9-5.8,12.1-11.7,8.9l-34.8-19.1c-2.3-1.3-5.2-1.3-7.5,0L143.9,284
		c-5.9,3.3-12.8-2-11.7-8.9l6.6-40.5c0.4-2.7-0.4-5.5-2.3-7.5l-28.2-28.7c-4.8-4.9-2.1-13.4,4.5-14.4l38.9-5.9
		c2.6-0.4,4.9-2.1,6.1-4.6l17.4-36.9c3-6.3,11.5-6.3,14.5,0l17.4,36.9c1.2,2.5,3.4,4.2,6.1,4.6l38.9,5.9c6.6,1,9.3,9.5,4.5,14.4
		l-28.2,28.7C226.5,229,225.6,231.8,226.1,234.6z"/>
	<g>
		<rect x="566.7" y="157.6" class="st6" width="11.8" height="104.3"/>
		<rect x="599.8" y="158.9" class="st6" width="11.8" height="104.3"/>
		<rect x="632.9" y="156.2" class="st6" width="11.8" height="104.3"/>
		<polygon class="st6" points="666,156.2 666,259.2 666,260.5 677.9,260.5 677.9,259.2 677.9,156.2 677.9,154.9 666,154.9 		"/>
		<polygon class="st6" points="699.2,156.2 699.2,259.2 699.2,260.5 711,260.5 711,259.2 711,156.2 711,154.9 699.2,154.9 		"/>
		<rect x="732.3" y="156.2" class="st6" width="11.8" height="104.3"/>
		<rect x="765.4" y="156.2" class="st6" width="11.8" height="104.3"/>
	</g>
	<path class="st7" d="M883.2,813.8h-422c-21.9,0-39.8-17.8-39.8-39.8V368.9c0-21.9,17.8-39.8,39.8-39.8h422
		c21.9,0,39.8,17.8,39.8,39.8V774C923,795.9,905.2,813.8,883.2,813.8z M461.2,341.2c-15.3,0-27.7,12.4-27.7,27.7V774
		c0,15.3,12.4,27.7,27.7,27.7h422c15.3,0,27.7-12.4,27.7-27.7V368.9c0-15.3-12.4-27.7-27.7-27.7H461.2z"/>
	<rect x="427.5" y="565.4" class="st7" width="489.5" height="12.1"/>
	<rect x="666.2" y="266.2" class="st7" width="12.1" height="541.5"/>
	<path class="st7" d="M789.3,269.9H555.2V151h234.1V269.9z M567.2,257.8h210v-94.8h-210V257.8z"/>
	<path class="st1" d="M624.3,436.2h-49.7v-6.6c6.6-6.4,10.6-15.4,10.6-25.3c0-19.6-15.9-35.5-35.5-35.5c-19.6,0-35.5,15.9-35.5,35.5
		c0,9.9,4.1,18.9,10.6,25.3v6.6h-49.7c-3.9,0-7.1,3.2-7.1,7.1v35.5c0,3.9,3.2,7.1,7.1,7.1h21.3c0,29.4,23.8,53.2,53.2,53.2
		s53.2-23.8,53.2-53.2h21.3c3.9,0,7.1-3.2,7.1-7.1v-35.5C631.4,439.4,628.2,436.2,624.3,436.2z M549.8,521.4
		c-19.6,0-35.5-15.9-35.5-35.5h71C585.3,505.5,569.4,521.4,549.8,521.4z"/>
	<g>
		<path class="st3" d="M797.8,606.1l8.9,18c0.6,1.2,1.8,2.1,3.1,2.2l19.9,2.9c3.4,0.5,4.7,4.6,2.3,7l-14.4,14
			c-1,0.9-1.4,2.3-1.2,3.6l3.4,19.7c0.6,3.4-3,5.9-6,4.3l-17.8-9.3c-1.2-0.6-2.6-0.6-3.8,0l-17.8,9.3c-3,1.6-6.5-1-6-4.3l3.4-19.7
			c0.2-1.3-0.2-2.7-1.2-3.6l-14.4-14c-2.4-2.4-1.1-6.5,2.3-7l19.9-2.9c1.3-0.2,2.5-1,3.1-2.2l8.9-18
			C792,603.1,796.3,603.1,797.8,606.1z"/>
		<path class="st3" d="M709,685.5v60.3c0,3.9,3.2,7.1,7.1,7.1h42.1l-0.2,0.3c-13.6,2.7-13.5,21-13.5,21h3.2h92.9h3.2
			c0,0,0-18.2-13.5-21l-0.2-0.3h42.1c3.9,0,7.1-3.2,7.1-7.1v-60.3H709z"/>
	</g>
	<g>
		<path class="st2" d="M792.4,379.4h-3.5c-3.9,0-7.1,3.2-7.1,7.1v28.4h-10.6v-39c0-3.9-3.2-7.1-7.1-7.1h-3.5c-3.9,0-7.1,3.2-7.1,7.1
			v39h-10.6v-28.4c0-3.9-3.2-7.1-7.1-7.1H732c-3.9,0-7.1,3.2-7.1,7.1v28.4v10.6c0,3.9,3.2,7.1,7.1,7.1h3.5h17.7v99.4
			c0,3.9,3.2,7.1,7.1,7.1h3.5c3.9,0,7.1-3.2,7.1-7.1v-99.4h17.7h3.5c3.9,0,7.1-3.2,7.1-7.1v-10.6v-28.4
			C799.5,382.6,796.3,379.4,792.4,379.4z"/>
		<path class="st2" d="M856.3,368.8h-3.5c-26.4,0-33.4,60.6-35,81.6h-0.5v7.1h28.4v74.5c0,3.9,3.2,7.1,7.1,7.1h3.5
			c3.9,0,7.1-3.2,7.1-7.1V375.9C863.4,372,860.2,368.8,856.3,368.8z"/>
	</g>
	<g>
		<circle class="st4" cx="508.9" cy="634" r="16"/>
		<circle class="st4" cx="613.7" cy="625.1" r="21.3"/>
		<ellipse class="st4" cx="492" cy="746.8" rx="27.5" ry="27.4"/>
		<circle class="st4" cx="574.6" cy="674.9" r="17.7"/>
		<g>
			<path class="st4" d="M624.3,664.2h-27.2c1.5,3.2,2.4,6.8,2.4,10.6c0,13.7-11.1,24.8-24.8,24.8c-13.7,0-24.8-11.1-24.8-24.8
				c0-3.8,0.9-7.4,2.4-10.6h-76.9c-3.9,0-7.1,3.2-7.1,7.1v50.6c6.2-6,14.6-9.6,23.9-9.6c19.1,0,34.6,15.5,34.6,34.6
				c0,6.1-1.6,11.8-4.4,16.8h102.1c3.9,0,7.1-3.2,7.1-7.1v-85.2C631.4,667.4,628.2,664.2,624.3,664.2z"/>
			<path class="st4" d="M556.9,674.9c0,9.8,8,17.7,17.7,17.7c9.8,0,17.7-8,17.7-17.7c0-4-1.3-7.7-3.6-10.6h-28.4
				C558.2,667.2,556.9,670.9,556.9,674.9z"/>
		</g>
	</g>
	<g>
		<path class="st8" d="M1632.9,270.1c4.4-28.8-14.4-56.5-43.3-62.6c-5.5-1.2-11.2-1.5-16.8-1c-5.8-19.1-21.4-33.8-41.5-38.1
			c-7.9-1.7-15.9-1.6-23.7,0.1c-7.9-12.5-21.5-20.8-36.6-21.8c-19.4-1.3-36.9,9.2-45.2,26c-30.6-7.9-61.2,11.6-67.7,42.2
			c-0.7,3.4-2.2,7.1-3.4,9.4c-35.3-5-69,18.2-76.6,53.5c-2.6,12.1,0.9,27.3,5.4,40.8c-16.6,2.8-30.7,15.5-34.4,33
			c-4.9,22.9,9.8,45.4,32.6,50.2c11.3,2.4,22.7,0.1,32-6.1c7.9,10,19,16.9,31.8,19.6c14.4,3.1,29.2,0.2,41.4-7.6
			c16.9,22.1,41.4,38.5,70.7,44.7c60,12.7,119.2-21.7,138.9-78.2c3.3,1.4,6.7,2.5,10.3,3.3c29.9,6.3,59.4-12.8,65.7-42.7
			C1678.6,306.2,1661,277.8,1632.9,270.1z M1581.5,355.7c0,0.1-0.1,0.3-0.1,0.4l0,0c-0.1,0.5-0.3,0.9-0.4,1.4l-0.9,3.8
			c-13.9,51.3-65.8,83.4-118.4,72.3c-54.5-11.6-89.4-65.3-77.8-119.8c11.6-54.5,65.3-89.4,119.8-77.8
			C1558.2,247.5,1593.1,301.2,1581.5,355.7z M1653.4,331c-4.1,19.3-23.2,31.7-42.5,27.6c-3.3-0.7-6.4-1.8-9.4-3.4
			c11-63.4-30.3-124.9-93.8-138.4c-65-13.8-129.2,27.9-143,92.9c-6.1,28.9-1.3,57.6,11.7,81.9c-7.9,5-17.4,6.9-26.7,4.9
			c-11-2.3-20-9.5-24.9-19.7l-6.7-14l-9.8,12.1c-5.5,6.8-14.1,9.9-22.4,8.1c-12.3-2.6-20.2-14.8-17.6-27.1
			c2.6-12.3,14.8-20.2,27.1-17.6l5.7,1.2l3.8-4.4c3.9-4.5,2.2-8.9,0.5-13.6c-2.6-6.9-10.4-28-8-39.5c5.6-26.4,31.6-43.3,58-37.7
			c15.8,3.3,21.8-24.1,22-25.3c4.1-19.3,23.2-31.7,42.5-27.6c2.6,0.6,5.2,1.4,7.8,2.7l11,5.2l2.7-11.8c3-13.1,15-22,28.5-21.1
			c10.6,0.7,19.9,7.6,23.7,17.6l3.6,9.3l9.2-3.8c6.6-2.7,13.9-3.3,20.9-1.8c15.3,3.2,26.6,15.8,28.2,31.4l1.2,11.7l11.3-3.4
			c5.7-1.7,11.8-1.9,17.6-0.7c19.3,4.1,31.7,23.2,27.6,42.5c-1.6,7.6,5,17.7,12.6,19.3C1645.1,292.6,1657.5,311.7,1653.4,331z"/>
		
			<ellipse transform="matrix(0.9958 -9.180736e-02 9.180736e-02 0.9958 -23.1871 134.8002)" class="st8" cx="1453.6" cy="319.4" rx="16.3" ry="16.3"/>
		
			<ellipse transform="matrix(0.895 -0.446 0.446 0.895 15.9805 710.1978)" class="st8" cx="1516.6" cy="321.2" rx="16.3" ry="16.3"/>
		<path class="st8" d="M1514.4,354.9c-3.2-0.6-6.4,1.5-7,4.7c-0.3,1.6-3.9,15.8-23.4,15.3c-20.9-0.5-25-13.6-25.2-14.3
			c-0.9-3.2-4.1-5.1-7.3-4.2c-3.2,0.8-5.1,4.1-4.3,7.3c0.2,0.9,6.1,22.5,36.5,23.3c0.4,0,0.9,0,1.3,0c23.2,0,32.5-16.2,34.2-25
			C1519.8,358.7,1517.7,355.6,1514.4,354.9z"/>
	</g>
	<g>
		<path class="st13" d="M1534,646.5c0,0-16.2-13.3,64.9,53.3c112.3,92.2,190-34.1,110.6-102.8"/>
		<line class="st13" x1="1594.7" y1="669.1" x2="1529.8" y2="615.8"/>
		<line class="st13" x1="1608" y1="652.9" x2="1543.1" y2="599.6"/>
		<line class="st13" x1="1634.7" y1="620.4" x2="1602.2" y2="593.8"/>
		<line class="st13" x1="1621.4" y1="636.7" x2="1556.5" y2="583.4"/>
	</g>
	<g>
		<path class="st13" d="M1445.5,654.5c0,0,17.8-11.2-71.1,44.7c-123,77.4-184.3-57.7-96.8-115.8"/>
		<line class="st13" x1="1382.5" y1="669.3" x2="1453.6" y2="624.6"/>
		<line class="st13" x1="1371.3" y1="651.6" x2="1442.4" y2="606.8"/>
		<line class="st13" x1="1348.9" y1="616" x2="1384.5" y2="593.6"/>
		<line class="st13" x1="1360.1" y1="633.8" x2="1431.2" y2="589"/>
	</g>
	<path class="st6" d="M519.5,221.5h-12c-4.1,0-7.5-3.4-7.5-7.5s3.4-7.5,7.5-7.5h12c4.1,0,7.5,3.4,7.5,7.5S523.6,221.5,519.5,221.5z
		 M486.5,221.5h-12c-4.1,0-7.5-3.4-7.5-7.5s3.4-7.5,7.5-7.5h12c4.1,0,7.5,3.4,7.5,7.5S490.6,221.5,486.5,221.5z M453.5,221.5h-12
		c-4.1,0-7.5-3.4-7.5-7.5s3.4-7.5,7.5-7.5h12c4.1,0,7.5,3.4,7.5,7.5S457.6,221.5,453.5,221.5z M420.5,221.5h-12
		c-4.1,0-7.5-3.4-7.5-7.5s3.4-7.5,7.5-7.5h12c4.1,0,7.5,3.4,7.5,7.5S424.6,221.5,420.5,221.5z M387.5,221.5h-12
		c-4.1,0-7.5-3.4-7.5-7.5s3.4-7.5,7.5-7.5h12c4.1,0,7.5,3.4,7.5,7.5S391.6,221.5,387.5,221.5z M354.5,221.5h-12
		c-4.1,0-7.5-3.4-7.5-7.5s3.4-7.5,7.5-7.5h12c4.1,0,7.5,3.4,7.5,7.5S358.6,221.5,354.5,221.5z"/>
	<path class="st6" d="M1342.5,163.3c-1.2,0-2.5-0.3-3.7-1c-3.4-1.9-6.9-3.8-10.4-5.6c-3.7-1.9-5.1-6.5-3.1-10.1
		c1.9-3.7,6.5-5.1,10.1-3.1c3.6,1.9,7.2,3.9,10.7,5.8c3.6,2,4.9,6.6,2.9,10.2C1347.6,161.9,1345.1,163.3,1342.5,163.3z M822,154.9
		c-2.8,0-5.6-1.6-6.8-4.4c-1.7-3.8-0.1-8.2,3.7-10c3.6-1.7,7.4-3.3,11.1-5c3.8-1.7,8.2,0.1,9.9,3.9c1.7,3.8-0.1,8.2-3.9,9.9
		c-3.6,1.6-7.3,3.2-10.8,4.8C824.1,154.7,823,154.9,822,154.9z M1313.2,148.2c-1.1,0-2.2-0.2-3.2-0.7c-3.5-1.7-7.2-3.3-10.7-4.9
		c-3.8-1.7-5.5-6.1-3.8-9.9c1.7-3.8,6.1-5.5,9.9-3.8c3.7,1.6,7.4,3.4,11.1,5.1c3.7,1.8,5.3,6.3,3.6,10
		C1318.7,146.6,1316,148.2,1313.2,148.2z M852.3,142c-3,0-5.8-1.8-7-4.7c-1.5-3.9,0.4-8.2,4.2-9.7c3.7-1.5,7.5-2.9,11.3-4.3
		c3.9-1.4,8.2,0.5,9.6,4.4c1.4,3.9-0.5,8.2-4.4,9.6c-3.7,1.4-7.4,2.8-11.1,4.2C854.2,141.8,853.2,142,852.3,142z M1282.9,135
		c-0.9,0-1.9-0.2-2.8-0.5c-3.6-1.4-7.3-2.8-11-4.2c-3.9-1.4-5.9-5.7-4.4-9.6c1.4-3.9,5.7-5.9,9.6-4.4c3.8,1.4,7.6,2.9,11.3,4.3
		c3.8,1.5,5.7,5.9,4.2,9.7C1288.7,133.2,1285.9,135,1282.9,135z M883.3,130.7c-3.1,0-6.1-2-7.1-5.1c-1.3-3.9,0.8-8.2,4.7-9.5
		c3.8-1.3,7.7-2.5,11.6-3.7c3.9-1.2,8.2,1,9.4,4.9c1.2,4-1,8.2-4.9,9.4c-3.7,1.2-7.5,2.4-11.3,3.6
		C884.9,130.6,884.1,130.7,883.3,130.7z M1251.9,123.9c-0.8,0-1.5-0.1-2.3-0.4c-3.7-1.2-7.5-2.4-11.3-3.5c-4-1.2-6.2-5.4-5.1-9.3
		c1.2-4,5.4-6.2,9.3-5.1c3.9,1.2,7.8,2.4,11.6,3.6c3.9,1.3,6.1,5.5,4.8,9.4C1258,121.9,1255.1,123.9,1251.9,123.9z M914.9,121.1
		c-3.3,0-6.3-2.2-7.2-5.5c-1.1-4,1.2-8.1,5.2-9.2c3.9-1.1,7.8-2.1,11.7-3.1c4-1,8.1,1.4,9.1,5.4c1,4-1.4,8.1-5.4,9.1
		c-3.8,1-7.7,2-11.5,3.1C916.2,121,915.5,121.1,914.9,121.1z M1220.2,114.8c-0.6,0-1.2-0.1-1.8-0.2c-3.8-1-7.7-1.9-11.5-2.8
		c-4-0.9-6.6-4.9-5.6-9c0.9-4,4.9-6.5,9-5.6c3.9,0.9,7.9,1.9,11.8,2.9c4,1,6.4,5.1,5.4,9.1C1226.6,112.5,1223.6,114.8,1220.2,114.8z
		 M946.9,113.1c-3.4,0-6.5-2.4-7.3-5.9c-0.9-4,1.7-8,5.7-8.9c3.9-0.9,7.9-1.7,11.9-2.5c4.1-0.8,8,1.8,8.8,5.9c0.8,4.1-1.8,8-5.9,8.8
		c-3.9,0.8-7.8,1.6-11.6,2.5C948,113,947.4,113.1,946.9,113.1z M1188.1,107.7c-0.5,0-0.9,0-1.4-0.1c-3.8-0.7-7.7-1.4-11.6-2.1
		c-4.1-0.7-6.8-4.5-6.2-8.6c0.7-4.1,4.5-6.8,8.6-6.2c4,0.7,8,1.4,12,2.1c4.1,0.8,6.7,4.7,6,8.8
		C1194.7,105.2,1191.6,107.7,1188.1,107.7z M979.3,106.7c-3.6,0-6.8-2.6-7.4-6.3c-0.7-4.1,2.1-8,6.1-8.6c4-0.7,8-1.3,12-1.9
		c4.1-0.6,7.9,2.2,8.5,6.3c0.6,4.1-2.2,7.9-6.3,8.5c-3.9,0.6-7.8,1.2-11.7,1.9C980.1,106.7,979.7,106.7,979.3,106.7z M1155.5,102.5
		c-0.3,0-0.6,0-1-0.1c-3.9-0.5-7.8-1-11.7-1.4c-4.1-0.4-7.1-4.1-6.7-8.2c0.4-4.1,4.1-7.1,8.2-6.7c4,0.4,8.1,0.9,12.1,1.4
		c4.1,0.5,7,4.3,6.5,8.4C1162.4,99.8,1159.2,102.5,1155.5,102.5z M1012,102.1c-3.8,0-7-2.8-7.4-6.6c-0.5-4.1,2.5-7.8,6.6-8.3
		c4-0.5,8.1-0.9,12.1-1.3c4.1-0.4,7.8,2.6,8.2,6.7c0.4,4.1-2.6,7.8-6.7,8.2c-3.9,0.4-7.9,0.8-11.8,1.3
		C1012.5,102.1,1012.2,102.1,1012,102.1z M1122.7,99.3c-0.2,0-0.3,0-0.5,0c-3.9-0.3-7.9-0.5-11.8-0.7c-4.1-0.2-7.3-3.7-7.1-7.8
		c0.2-4.1,3.7-7.3,7.8-7.1c4,0.2,8.1,0.4,12.1,0.7c4.1,0.3,7.3,3.9,7,8C1129.9,96.3,1126.6,99.3,1122.7,99.3z M1044.8,99.2
		c-3.9,0-7.2-3.1-7.5-7c-0.3-4.1,2.9-7.7,7-8c4-0.3,8.1-0.5,12.1-0.6c4.1-0.2,7.6,3,7.8,7.2c0.2,4.1-3,7.6-7.2,7.8
		c-3.9,0.2-7.9,0.4-11.8,0.6C1045.1,99.2,1045,99.2,1044.8,99.2z M1089.7,98C1089.7,98,1089.7,98,1089.7,98c-4,0-8-0.1-11.9,0
		c0,0,0,0-0.1,0c-4.1,0-7.5-3.3-7.5-7.4c0-4.1,3.3-7.5,7.4-7.6c4,0,8.1,0,12.1,0c4.1,0,7.5,3.4,7.4,7.6
		C1097.2,94.7,1093.8,98,1089.7,98z"/>
	<path class="st6" d="M1332.9,105.4c0.8-0.7,1.7-1.3,2.8-1.6c3.9-1.3,8.2,0.9,9.4,4.8l18.9,58.7l-67.5,10.4
		c-4.1,0.6-7.9-2.2-8.6-6.3c-0.6-4.1,2.2-7.9,6.3-8.6l50.1-7.7l-13.5-42C1329.9,110.3,1330.8,107.3,1332.9,105.4z"/>
	<path class="st6" d="M478.2,176.7c0.2-1,0.7-2,1.4-2.9c2.5-3.3,7.2-3.9,10.5-1.3l48.8,37.8L489,257c-3,2.8-7.8,2.7-10.6-0.3
		c-2.8-3-2.7-7.8,0.3-10.6l37-34.7l-34.9-27C478.5,182.5,477.5,179.5,478.2,176.7z"/>
	<path class="st6" d="M1638.8,728.6c-1.2,0-2.5-0.3-3.7-1c-3.4-1.9-6.9-3.8-10.4-5.6c-3.7-1.9-5.1-6.5-3.1-10.1
		c1.9-3.7,6.5-5.1,10.1-3.1c3.6,1.9,7.2,3.9,10.7,5.8c3.6,2,4.9,6.6,2.9,10.2C1644,727.2,1641.4,728.6,1638.8,728.6z M1118.3,720.3
		c-2.8,0-5.6-1.6-6.8-4.4c-1.7-3.8-0.1-8.2,3.7-10c3.6-1.7,7.4-3.3,11.1-5c3.8-1.7,8.2,0.1,9.9,3.9c1.7,3.8-0.1,8.2-3.9,9.9
		c-3.6,1.6-7.3,3.2-10.8,4.8C1120.4,720,1119.4,720.3,1118.3,720.3z M1609.5,713.5c-1.1,0-2.2-0.2-3.2-0.7
		c-3.5-1.7-7.2-3.3-10.7-4.9c-3.8-1.7-5.5-6.1-3.8-9.9c1.7-3.8,6.1-5.5,9.9-3.8c3.7,1.6,7.4,3.4,11.1,5.1c3.7,1.8,5.3,6.3,3.6,10
		C1615,711.9,1612.3,713.5,1609.5,713.5z M1148.7,707.3c-3,0-5.8-1.8-7-4.7c-1.5-3.9,0.4-8.2,4.2-9.7c3.7-1.5,7.5-2.9,11.3-4.3
		c3.9-1.4,8.2,0.5,9.6,4.4c1.4,3.9-0.5,8.2-4.4,9.6c-3.7,1.4-7.4,2.8-11.1,4.2C1150.5,707.1,1149.6,707.3,1148.7,707.3z
		 M1579.3,700.3c-0.9,0-1.9-0.2-2.8-0.5c-3.6-1.4-7.3-2.8-11-4.2c-3.9-1.4-5.9-5.7-4.4-9.6c1.4-3.9,5.7-5.9,9.6-4.4
		c3.8,1.4,7.6,2.9,11.3,4.3c3.8,1.5,5.7,5.9,4.2,9.7C1585.1,698.5,1582.3,700.3,1579.3,700.3z M1179.7,696c-3.1,0-6.1-2-7.1-5.1
		c-1.3-3.9,0.8-8.2,4.7-9.5c3.8-1.3,7.7-2.5,11.6-3.7c3.9-1.2,8.2,1,9.4,4.9c1.2,4-1,8.2-4.9,9.4c-3.7,1.2-7.5,2.4-11.3,3.6
		C1181.3,695.9,1180.5,696,1179.7,696z M1548.3,689.2c-0.8,0-1.5-0.1-2.3-0.4c-3.7-1.2-7.5-2.4-11.3-3.5c-4-1.2-6.2-5.4-5.1-9.3
		c1.2-4,5.4-6.2,9.3-5.1c3.9,1.2,7.8,2.4,11.6,3.6c3.9,1.3,6.1,5.5,4.8,9.4C1554.4,687.2,1551.4,689.2,1548.3,689.2z M1211.2,686.4
		c-3.3,0-6.3-2.2-7.2-5.5c-1.1-4,1.2-8.1,5.2-9.2c3.9-1.1,7.8-2.1,11.7-3.1c4-1,8.1,1.4,9.1,5.4c1,4-1.4,8.1-5.4,9.1
		c-3.8,1-7.7,2-11.5,3.1C1212.6,686.3,1211.9,686.4,1211.2,686.4z M1516.6,680.1c-0.6,0-1.2-0.1-1.8-0.2c-3.8-1-7.7-1.9-11.5-2.8
		c-4-0.9-6.6-4.9-5.6-9c0.9-4,4.9-6.5,9-5.6c3.9,0.9,7.9,1.9,11.8,2.9c4,1,6.4,5.1,5.4,9.1C1523,677.8,1519.9,680.1,1516.6,680.1z
		 M1243.2,678.4c-3.4,0-6.5-2.4-7.3-5.9c-0.9-4,1.7-8,5.7-8.9c3.9-0.9,7.9-1.7,11.9-2.5c4.1-0.8,8,1.8,8.8,5.9
		c0.8,4.1-1.8,8-5.9,8.8c-3.9,0.8-7.8,1.6-11.6,2.5C1244.3,678.3,1243.8,678.4,1243.2,678.4z M1484.4,673c-0.5,0-0.9,0-1.4-0.1
		c-3.8-0.7-7.7-1.4-11.6-2.1c-4.1-0.7-6.8-4.5-6.2-8.6c0.7-4.1,4.5-6.8,8.6-6.2c4,0.7,8,1.4,12,2.1c4.1,0.8,6.7,4.7,6,8.8
		C1491.1,670.5,1487.9,673,1484.4,673z M1275.6,672.1c-3.6,0-6.8-2.6-7.4-6.3c-0.7-4.1,2.1-8,6.1-8.6c4-0.7,8-1.3,12-1.9
		c4.1-0.6,7.9,2.2,8.5,6.3c0.6,4.1-2.2,7.9-6.3,8.5c-3.9,0.6-7.8,1.2-11.7,1.9C1276.5,672,1276.1,672.1,1275.6,672.1z M1451.8,667.9
		c-0.3,0-0.6,0-1-0.1c-3.9-0.5-7.8-1-11.7-1.4c-4.1-0.4-7.1-4.1-6.7-8.2c0.4-4.1,4.1-7.1,8.2-6.7c4,0.4,8.1,0.9,12.1,1.4
		c4.1,0.5,7,4.3,6.5,8.4C1458.8,665.1,1455.6,667.9,1451.8,667.9z M1308.3,667.4c-3.8,0-7-2.8-7.4-6.6c-0.5-4.1,2.5-7.8,6.6-8.3
		c4-0.5,8.1-0.9,12.1-1.3c4.1-0.4,7.8,2.6,8.2,6.7c0.4,4.1-2.6,7.8-6.7,8.2c-3.9,0.4-7.9,0.8-11.8,1.3
		C1308.9,667.4,1308.6,667.4,1308.3,667.4z M1419,664.7c-0.2,0-0.3,0-0.5,0c-3.9-0.3-7.9-0.5-11.8-0.7c-4.1-0.2-7.3-3.7-7.1-7.8
		c0.2-4.1,3.7-7.3,7.8-7.1c4,0.2,8.1,0.4,12.1,0.7c4.1,0.3,7.3,3.9,7,8C1426.2,661.6,1422.9,664.7,1419,664.7z M1341.1,664.5
		c-3.9,0-7.2-3.1-7.5-7c-0.3-4.1,2.9-7.7,7-8c4-0.3,8.1-0.5,12.1-0.6c4.1-0.2,7.6,3,7.8,7.2c0.2,4.1-3,7.6-7.2,7.8
		c-3.9,0.2-7.9,0.4-11.8,0.6C1341.5,664.5,1341.3,664.5,1341.1,664.5z M1386.1,663.4C1386,663.4,1386,663.4,1386.1,663.4
		c-4,0-8-0.1-11.9,0c0,0,0,0-0.1,0c-4.1,0-7.5-3.3-7.5-7.4c0-4.1,3.3-7.5,7.4-7.6c4,0,8.1,0,12.1,0c4.1,0,7.5,3.4,7.4,7.6
		C1393.5,660.1,1390.2,663.4,1386.1,663.4z"/>
	<path class="st6" d="M1629.2,670.7c0.8-0.7,1.7-1.3,2.8-1.6c3.9-1.3,8.2,0.9,9.4,4.8l18.9,58.7l-67.5,10.4
		c-4.1,0.6-7.9-2.2-8.6-6.3c-0.6-4.1,2.2-7.9,6.3-8.6l50.1-7.7l-13.5-42C1626.2,675.7,1627.1,672.6,1629.2,670.7z"/>
</g>
<g id="Layer_2">
</g>
</svg>
