<?xml version="1.0" encoding="utf-8"?>
<!-- Generator: Adobe Illustrator 25.2.3, SVG Export Plug-In . SVG Version: 6.00 Build 0)  -->
<svg version="1.1" xmlns="http://www.w3.org/2000/svg" xmlns:xlink="http://www.w3.org/1999/xlink" x="0px" y="0px"
	 viewBox="0 0 900 2500" style="enable-background:new 0 0 900 2500;" xml:space="preserve">
<style type="text/css">
	.st0{fill:#E34D99;}
	.st1{fill:#76BF60;}
	.st2{fill:#EC8231;}
	.st3{fill:#489B91;}
	.st4{fill:none;stroke:#442856;stroke-linecap:round;stroke-miterlimit:10;}
	.st5{fill:#BEA3CC;}
	.st6{fill:#442856;}
	.st7{fill:#D695C0;}
	.st8{fill:#785089;}
	.st9{fill:none;stroke:#442856;stroke-width:15;stroke-miterlimit:10;}
	.st10{fill:none;stroke:#BEA3CC;stroke-width:15;stroke-linecap:round;stroke-miterlimit:10;stroke-dasharray:12,21;}
	.st11{clip-path:url(#SVGID_2_);}
	.st12{fill:none;stroke:#D695C0;stroke-width:16;stroke-miterlimit:10;}
	.st13{fill:none;stroke:#785089;stroke-width:15;stroke-linecap:round;stroke-miterlimit:10;}
	.st14{fill:#C7E2C0;}
	.st15{fill:#9BD2CA;}
	.st16{fill:#FBC089;}
	.st17{fill:#E9A6C9;}
	.st18{fill:#F0CEE2;}
	.st19{fill:none;stroke:#442856;stroke-width:15;stroke-linecap:round;stroke-miterlimit:10;}
</style>
<g id="Layer_1">
	<g>
		<g>
			<rect x="344.5" y="925.2" class="st5" width="11.8" height="104.3"/>
			<rect x="377.6" y="926.5" class="st5" width="11.8" height="104.3"/>
			<rect x="410.7" y="923.8" class="st5" width="11.8" height="104.3"/>
			<polygon class="st5" points="443.8,923.8 443.8,1026.8 443.8,1028.1 455.6,1028.1 455.6,1026.8 455.6,923.8 455.6,922.5 
				443.8,922.5 			"/>
			<polygon class="st5" points="476.9,923.8 476.9,1026.8 476.9,1028.1 488.8,1028.1 488.8,1026.8 488.8,923.8 488.8,922.5 
				476.9,922.5 			"/>
			<rect x="510" y="923.8" class="st5" width="11.8" height="104.3"/>
			<rect x="543.2" y="923.8" class="st5" width="11.8" height="104.3"/>
		</g>
		<path class="st6" d="M661,1581.4H239c-21.9,0-39.8-17.8-39.8-39.8v-405.1c0-21.9,17.8-39.8,39.8-39.8h422
			c21.9,0,39.8,17.8,39.8,39.8v405.1C700.8,1563.5,682.9,1581.4,661,1581.4z M239,1108.8c-15.3,0-27.7,12.4-27.7,27.7v405.1
			c0,15.3,12.4,27.7,27.7,27.7h422c15.3,0,27.7-12.4,27.7-27.7v-405.1c0-15.3-12.4-27.7-27.7-27.7H239z"/>
		<rect x="205.3" y="1333" class="st6" width="489.5" height="12.1"/>
		<rect x="444" y="1033.8" class="st6" width="12.1" height="541.5"/>
		<path class="st6" d="M567.1,1037.5H332.9V918.6h234.1V1037.5z M345,1025.4h210v-94.8H345V1025.4z"/>
		<path class="st0" d="M402.1,1203.8h-49.7v-6.6c6.6-6.4,10.6-15.4,10.6-25.3c0-19.6-15.9-35.5-35.5-35.5
			c-19.6,0-35.5,15.9-35.5,35.5c0,9.9,4.1,18.9,10.6,25.3v6.6H253c-3.9,0-7.1,3.2-7.1,7.1v35.5c0,3.9,3.2,7.1,7.1,7.1h21.3
			c0,29.4,23.8,53.2,53.2,53.2s53.2-23.8,53.2-53.2h21.3c3.9,0,7.1-3.2,7.1-7.1v-35.5C409.2,1207,406,1203.8,402.1,1203.8z
			 M327.5,1289c-19.6,0-35.5-15.9-35.5-35.5h71C363,1273.1,347.1,1289,327.5,1289z"/>
		<g>
			<path class="st2" d="M575.6,1373.7l8.9,18c0.6,1.2,1.8,2.1,3.1,2.2l19.9,2.9c3.4,0.5,4.7,4.6,2.3,7l-14.4,14
				c-1,0.9-1.4,2.3-1.2,3.6l3.4,19.7c0.6,3.4-3,5.9-6,4.3l-17.8-9.3c-1.2-0.6-2.6-0.6-3.8,0l-17.8,9.3c-3,1.6-6.5-1-6-4.3l3.4-19.7
				c0.2-1.3-0.2-2.7-1.2-3.6l-14.4-14c-2.4-2.4-1.1-6.5,2.3-7l19.9-2.9c1.3-0.2,2.5-1,3.1-2.2l8.9-18
				C569.8,1370.7,574.1,1370.7,575.6,1373.7z"/>
			<path class="st2" d="M486.7,1453.1v60.3c0,3.9,3.2,7.1,7.1,7.1H536l-0.2,0.3c-13.6,2.7-13.5,21-13.5,21h3.2h92.9h3.2
				c0,0,0-18.2-13.5-21l-0.2-0.3H650c3.9,0,7.1-3.2,7.1-7.1v-60.3H486.7z"/>
		</g>
		<g>
			<path class="st1" d="M570.2,1147h-3.5c-3.9,0-7.1,3.2-7.1,7.1v28.4h-10.6v-39c0-3.9-3.2-7.1-7.1-7.1h-3.5c-3.9,0-7.1,3.2-7.1,7.1
				v39h-10.6v-28.4c0-3.9-3.2-7.1-7.1-7.1h-3.5c-3.9,0-7.1,3.2-7.1,7.1v28.4v10.6c0,3.9,3.2,7.1,7.1,7.1h3.5h17.7v99.4
				c0,3.9,3.2,7.1,7.1,7.1h3.5c3.9,0,7.1-3.2,7.1-7.1v-99.4h17.7h3.5c3.9,0,7.1-3.2,7.1-7.1v-10.6v-28.4
				C577.3,1150.2,574.1,1147,570.2,1147z"/>
			<path class="st1" d="M634.1,1136.4h-3.5c-26.4,0-33.4,60.6-35,81.6H595v7.1h28.4v74.5c0,3.9,3.2,7.1,7.1,7.1h3.5
				c3.9,0,7.1-3.2,7.1-7.1v-156.2C641.2,1139.6,638,1136.4,634.1,1136.4z"/>
		</g>
		<g>
			<circle class="st3" cx="286.7" cy="1401.6" r="16"/>
			<circle class="st3" cx="391.4" cy="1392.7" r="21.3"/>
			<ellipse class="st3" cx="269.8" cy="1514.4" rx="27.5" ry="27.4"/>
			<circle class="st3" cx="352.4" cy="1442.5" r="17.7"/>
			<g>
				<path class="st3" d="M402.1,1431.8h-27.2c1.5,3.2,2.4,6.8,2.4,10.6c0,13.7-11.1,24.8-24.8,24.8s-24.8-11.1-24.8-24.8
					c0-3.8,0.9-7.4,2.4-10.6H253c-3.9,0-7.1,3.2-7.1,7.1v50.6c6.2-6,14.6-9.6,23.9-9.6c19.1,0,34.6,15.5,34.6,34.6
					c0,6.1-1.6,11.8-4.4,16.8h102.1c3.9,0,7.1-3.2,7.1-7.1v-85.2C409.2,1435,406,1431.8,402.1,1431.8z"/>
				<path class="st3" d="M334.6,1442.5c0,9.8,8,17.7,17.7,17.7c9.8,0,17.7-8,17.7-17.7c0-4-1.3-7.7-3.6-10.6h-28.4
					C336,1434.8,334.6,1438.5,334.6,1442.5z"/>
			</g>
		</g>
	</g>
	<g>
		<g>
			<path class="st7" d="M454.7,478.5c-70.3,0-127.5,57.2-127.5,127.5c0,70.3,57.2,127.5,127.5,127.5S582.2,676.3,582.2,606
				C582.2,535.7,525,478.5,454.7,478.5z M454.7,719.9c-62.8,0-114-51.1-114-114s51.1-114,114-114s114,51.1,114,114
				S517.5,719.9,454.7,719.9z"/>
			<path class="st7" d="M518.5,581.9l-35.1-5.3c-2.4-0.4-4.4-1.9-5.5-4.2l-15.7-33.2c-2.7-5.7-10.4-5.7-13,0l-15.7,33.2
				c-1.1,2.2-3.1,3.8-5.5,4.2l-35.1,5.3c-6,0.9-8.3,8.6-4,13l25.4,25.9c1.7,1.7,2.5,4.3,2.1,6.7l-6,36.5c-1,6.2,5.2,10.9,10.5,8
				l31.4-17.3c2.1-1.2,4.6-1.2,6.8,0l31.4,17.3c5.3,2.9,11.6-1.8,10.5-8l-6-36.5c-0.4-2.5,0.4-5,2.1-6.7l25.4-25.9
				C526.8,590.5,524.4,582.9,518.5,581.9z"/>
		</g>
		<g>
			<path class="st13" d="M490.4,641.1c0,0-14.6-12,58.5,48.1c101.2,83.1,171.3-30.7,99.7-92.6"/>
			<line class="st13" x1="545.1" y1="661.6" x2="486.5" y2="613.5"/>
			<line class="st13" x1="557.1" y1="646.9" x2="498.6" y2="598.9"/>
			<line class="st13" x1="581.1" y1="617.7" x2="551.8" y2="593.7"/>
			<line class="st13" x1="569.1" y1="632.3" x2="510.6" y2="584.3"/>
		</g>
		<g>
			<path class="st13" d="M410.6,648.4c0,0,16-10.1-64.1,40.3c-110.8,69.7-166.1-52-87.3-104.4"/>
			<line class="st13" x1="353.8" y1="661.8" x2="417.8" y2="621.4"/>
			<line class="st13" x1="343.7" y1="645.7" x2="407.8" y2="605.4"/>
			<line class="st13" x1="323.5" y1="613.7" x2="355.6" y2="593.5"/>
			<line class="st13" x1="333.6" y1="629.7" x2="397.7" y2="589.4"/>
		</g>
		<g>
			<path class="st8" d="M341.9,357.4c0,61.3,49.9,111.2,111.2,111.2s111.2-49.9,111.2-111.2S514.4,246.2,453,246.2
				c-5.9,0-11.8,0.5-17.4,1.4c12.6-11.5,20.4-28.1,20.4-46.4c0-34.8-28.3-63.1-63.1-63.1s-63.1,28.3-63.1,63.1
				c0,34.6,28,62.8,62.6,63.1C362,284.1,341.9,318.4,341.9,357.4z M392.9,246.2c-24.9,0-45.1-20.2-45.1-45.1
				c0-24.9,20.2-45.1,45.1-45.1c24.9,0,45.1,20.2,45.1,45.1C438,226,417.8,246.2,392.9,246.2z M404.2,278.1
				c1.6,10.6,1.9,29.3-11.6,42.8c-11.7,11.7-23.2,17-31.1,19.4C366.3,314.1,382.2,291.7,404.2,278.1z M542.1,330.1
				c-25.2,2-61.3-7.9-86.3-24.5c-11.8-7.8-26.1-20.4-30.7-37.1c8.8-2.8,18.2-4.3,28-4.3C494.9,264.2,530.4,292,542.1,330.1z
				 M359.9,359.3c10.3-2.1,28-8.1,45.4-25.6c10.4-10.4,15.1-22.6,16.8-33.8c6.2,7.4,14.2,14.4,23.7,20.7
				c26.2,17.4,61,27.8,89.4,27.8c3.6,0,7.1-0.2,10.5-0.5c0.3,3.1,0.5,6.3,0.5,9.5c0,51.4-41.8,93.2-93.2,93.2
				C402.3,450.5,360.9,409.8,359.9,359.3z"/>
			<path class="st8" d="M462.7,364c-1.7-7.9,3.4-15.7,11.3-17.4c7.9-1.7,15.7,3.4,17.4,11.3c1.7,7.9-3.4,15.7-11.3,17.4
				C472.2,377,464.3,371.9,462.7,364z"/>
			<path class="st8" d="M417.2,348.1c7.9-1.7,15.7,3.4,17.4,11.3c1.7,7.9-3.4,15.7-11.3,17.4c-7.9,1.7-15.7-3.4-17.4-11.3
				C404.2,357.6,409.3,349.8,417.2,348.1z"/>
			<path class="st8" d="M422.2,392.9c2.9-0.6,5.8,1.3,6.3,4.3c0.3,1.5,3.6,14.2,21.1,13.8c18.8-0.5,22.5-12.3,22.7-12.9
				c0.8-2.9,3.7-4.6,6.6-3.8c2.9,0.7,4.6,3.7,3.9,6.6c-0.2,0.8-5.5,20.2-32.9,21c-0.4,0-0.8,0-1.2,0c-20.9,0-29.3-14.6-30.8-22.5
				C417.3,396.3,419.3,393.5,422.2,392.9z"/>
		</g>
	</g>
	<g>
		<g>
			<path class="st7" d="M454.7,2063.8c-70.3,0-127.5,57.2-127.5,127.5c0,70.3,57.2,127.5,127.5,127.5s127.5-57.2,127.5-127.5
				C582.2,2121,525,2063.8,454.7,2063.8z M454.7,2305.2c-62.8,0-114-51.1-114-114s51.1-114,114-114s114,51.1,114,114
				S517.5,2305.2,454.7,2305.2z"/>
			<path class="st7" d="M518.5,2167.2l-35.1-5.3c-2.4-0.4-4.4-1.9-5.5-4.2l-15.7-33.2c-2.7-5.7-10.4-5.7-13,0l-15.7,33.2
				c-1.1,2.2-3.1,3.8-5.5,4.2l-35.1,5.3c-6,0.9-8.3,8.6-4,13l25.4,25.9c1.7,1.7,2.5,4.3,2.1,6.7l-6,36.5c-1,6.2,5.2,10.9,10.5,8
				l31.4-17.3c2.1-1.2,4.6-1.2,6.8,0l31.4,17.3c5.3,2.9,11.6-1.8,10.5-8l-6-36.5c-0.4-2.5,0.4-5,2.1-6.7l25.4-25.9
				C526.8,2175.8,524.4,2168.2,518.5,2167.2z"/>
		</g>
		<g>
			<path class="st8" d="M579.5,1887.2c4-25.9-13-50.9-39-56.4c-5-1.1-10.1-1.3-15.2-0.9c-5.2-17.2-19.3-30.5-37.4-34.3
				c-7.1-1.5-14.4-1.5-21.3,0.1c-7.1-11.3-19.4-18.7-33-19.7c-17.5-1.2-33.3,8.3-40.7,23.4c-27.6-7.1-55.2,10.5-61.1,38
				c-0.6,3-2,6.4-3.1,8.5c-31.8-4.5-62.2,16.4-69,48.3c-2.3,10.9,0.9,24.6,4.9,36.8c-15,2.5-27.7,14-31,29.7
				c-4.4,20.6,8.8,40.9,29.4,45.3c10.1,2.2,20.5,0.1,28.8-5.5c7.1,9,17.1,15.3,28.6,17.7c13,2.8,26.4,0.2,37.3-6.8
				c15.2,19.9,37.3,34.7,63.7,40.3c54.1,11.5,107.5-19.6,125.2-70.5c3,1.3,6.1,2.3,9.3,3c26.9,5.7,53.5-11.5,59.2-38.5
				C620.7,1919.8,604.8,1894.1,579.5,1887.2z M533.2,1964.4c0,0.1-0.1,0.2-0.1,0.3l0,0c-0.1,0.4-0.2,0.8-0.3,1.3l-0.8,3.4
				c-12.6,46.2-59.3,75.2-106.8,65.1c-49.1-10.4-80.6-58.9-70.2-108c10.4-49.1,58.9-80.6,108-70.2
				C512.1,1866.8,543.6,1915.3,533.2,1964.4z M597.9,1942.1c-3.7,17.4-20.9,28.6-38.3,24.9c-3-0.6-5.8-1.7-8.4-3.1
				c9.9-57.2-27.3-112.6-84.5-124.8c-58.6-12.4-116.4,25.1-128.9,83.7c-5.5,26.1-1.2,52,10.5,73.8c-7.1,4.5-15.7,6.2-24.1,4.4
				c-9.9-2.1-18.1-8.6-22.4-17.8l-6-12.7l-8.8,10.9c-4.9,6.1-12.7,8.9-20.2,7.3c-11.1-2.4-18.2-13.3-15.8-24.4s13.3-18.2,24.4-15.8
				l5.1,1.1l3.4-4c3.5-4.1,2-8,0.4-12.2c-2.3-6.2-9.4-25.2-7.2-35.6c5-23.8,28.5-39,52.3-33.9c14.2,3,19.6-21.8,19.9-22.8
				c3.7-17.4,20.9-28.6,38.3-24.9c2.3,0.5,4.7,1.3,7,2.4l9.9,4.6l2.5-10.6c2.7-11.9,13.5-19.9,25.6-19.1c9.6,0.6,18,6.9,21.4,15.8
				l3.2,8.4l8.3-3.4c6-2.4,12.5-3,18.8-1.7c13.8,2.9,24,14.3,25.4,28.3l1.1,10.6l10.2-3c5.1-1.5,10.6-1.7,15.9-0.6
				c17.4,3.7,28.6,20.9,24.9,38.3c-1.5,6.8,4.5,16,11.3,17.4C590.5,1907.5,601.6,1924.7,597.9,1942.1z"/>
			
				<ellipse transform="matrix(0.9958 -9.180749e-02 9.180749e-02 0.9958 -175.5769 46.5202)" class="st8" cx="417.9" cy="1931.7" rx="14.7" ry="14.7"/>
			
				<ellipse transform="matrix(0.895 -0.446 0.446 0.895 -812.4797 414.6864)" class="st8" cx="474.6" cy="1933.2" rx="14.7" ry="14.7"/>
			<path class="st8" d="M472.7,1963.7c-2.9-0.6-5.8,1.3-6.3,4.3c-0.3,1.5-3.5,14.2-21.1,13.8c-18.8-0.5-22.5-12.3-22.7-12.9
				c-0.8-2.9-3.7-4.6-6.6-3.8c-2.9,0.7-4.6,3.7-3.9,6.6c0.2,0.8,5.5,20.2,32.9,21c0.4,0,0.8,0,1.2,0c20.9,0,29.3-14.6,30.8-22.5
				C477.5,1967.1,475.6,1964.2,472.7,1963.7z"/>
		</g>
		<g>
			<path class="st13" d="M490.4,2226.4c0,0-14.6-12,58.5,48.1c101.2,83.1,171.3-30.7,99.7-92.6"/>
			<line class="st13" x1="545.1" y1="2246.9" x2="486.5" y2="2198.8"/>
			<line class="st13" x1="557.1" y1="2232.3" x2="498.6" y2="2184.2"/>
			<line class="st13" x1="581.1" y1="2203" x2="551.8" y2="2179"/>
			<line class="st13" x1="569.1" y1="2217.6" x2="510.6" y2="2169.6"/>
		</g>
		<g>
			<path class="st13" d="M410.6,2233.7c0,0,16-10.1-64.1,40.3c-110.8,69.8-166.1-52-87.3-104.4"/>
			<line class="st13" x1="353.8" y1="2247.1" x2="417.8" y2="2206.7"/>
			<line class="st13" x1="343.7" y1="2231" x2="407.8" y2="2190.7"/>
			<line class="st13" x1="323.5" y1="2199" x2="355.6" y2="2178.8"/>
			<line class="st13" x1="333.6" y1="2215" x2="397.7" y2="2174.7"/>
		</g>
	</g>
	<path class="st5" d="M184.7,1938.4c0.9-0.6,1.9-1,3-1.2c4.1-0.6,7.9,2.2,8.6,6.2l9.6,61l-68.3-0.2c-4.1,0-7.5-3.4-7.5-7.5
		c0-4.1,3.4-7.5,7.5-7.5l50.7,0.2l-6.9-43.6C181,1942.9,182.3,1940,184.7,1938.4z"/>
	<g>
		<path class="st6" d="M226.3,86.3l1.1,25.7h-9.3l1.3-25.7H226.3z M225.6,76.3c0.8,0,1.2,0.4,1.2,1.1v5.6c0,0.8-0.4,1.2-1.2,1.2
			h-5.4c-0.8,0-1.2-0.4-1.2-1.2v-5.6c0-0.4,0.1-0.7,0.3-0.9c0.2-0.2,0.5-0.2,0.9-0.2H225.6z"/>
		<path class="st6" d="M229.6,102.3l10.6-35.7h11.6l10.6,35.7h-9.6l-1.4-5.7h-10.7l-1.4,5.7H229.6z M242.7,88.3h6.4l-3.2-13.7
			L242.7,88.3z"/>
		<path class="st6" d="M278.7,113.7V100c-0.7,0.7-1.6,1.3-2.7,1.8c-1.1,0.5-2.1,0.8-3.1,0.8c-2.4,0-4.4-0.5-5.8-1.4
			c-1.4-0.9-2.4-2.3-3-4.3c-0.6-1.9-0.9-4.4-0.9-7.5c0-3.5,0.4-6.3,1.1-8.2c0.7-2,1.8-3.3,3.3-4.1s3.4-1.2,5.6-1.2
			c1.5,0,3.2,0.1,5,0.2c1.8,0.1,3.6,0.3,5.3,0.5c1.7,0.2,3.2,0.4,4.5,0.6v36.4H278.7z M275.8,95.2c0.4,0,0.9-0.1,1.6-0.3
			c0.7-0.2,1.1-0.4,1.4-0.6V82.9h-2.4c-0.9,0-1.7,0.2-2.2,0.6c-0.6,0.4-1,1-1.2,1.9c-0.2,0.9-0.3,2.1-0.3,3.7c0,1.8,0.1,3.1,0.3,4
			c0.2,0.9,0.5,1.4,1,1.7C274.4,95,275,95.2,275.8,95.2z"/>
		<path class="st6" d="M299.3,102.6c-2.2,0-4-0.7-5.3-2.1c-1.3-1.4-1.9-3.3-1.9-5.6V76.4h9.3v15.5c0,1,0.2,1.7,0.7,2
			c0.5,0.3,1.1,0.5,1.8,0.5c0.5,0,1.1-0.1,1.8-0.4s1.3-0.6,1.7-1.1V76.4h9.3v25.9H309l-1.5-2.5c-1.1,0.7-2.3,1.3-3.7,1.9
			C302.3,102.3,300.9,102.6,299.3,102.6z"/>
		<path class="st6" d="M321,102.3V76.4h9.3v25.9H321z M323.2,72l3.3-6.9h7.4l-5.2,6.9H323.2z"/>
		<path class="st6" d="M352.8,102.3l-8-25.9h9.6l3.9,17.3l4.1-17.3h9.5l-8.4,25.9H352.8z"/>
		<path class="st6" d="M375.5,73.2c-0.8,0-1.2-0.4-1.2-1.1v-5.3c0-0.8,0.4-1.2,1.2-1.2h7.3c0.4,0,0.6,0.1,0.8,0.3
			c0.2,0.2,0.3,0.5,0.3,0.9v5.3c0,0.7-0.4,1.1-1.1,1.1H375.5z M374.5,102.3V76.4h9.3v25.9H374.5z"/>
		<path class="st6" d="M399.6,102.6c-2.9,0-5.3-0.4-7.1-1.1c-1.8-0.7-3.1-2.1-3.9-4c-0.8-1.9-1.2-4.6-1.2-8c0-3.6,0.4-6.3,1.1-8.2
			c0.7-1.9,2-3.3,3.7-4.1s4.1-1.2,7-1.2c2.8,0,4.9,0.3,6.5,0.8c1.6,0.5,2.7,1.4,3.4,2.8c0.7,1.3,1,3.2,1,5.6c0,1.9-0.4,3.4-1.1,4.4
			c-0.7,1.1-1.8,1.8-3.1,2.3c-1.3,0.4-2.9,0.7-4.8,0.7h-4.6c0.1,0.8,0.3,1.4,0.6,1.8c0.3,0.5,0.8,0.8,1.6,1c0.8,0.2,1.9,0.3,3.4,0.3
			h7.1v5.4c-1.1,0.3-2.5,0.6-4,1C403.6,102.4,401.7,102.6,399.6,102.6z M396.4,87.1h3.7c0.6,0,1.1-0.1,1.4-0.4
			c0.3-0.3,0.4-0.8,0.4-1.5c0-0.6-0.1-1.1-0.3-1.5c-0.2-0.4-0.5-0.7-0.9-0.8c-0.4-0.2-1-0.3-1.6-0.3c-0.6,0-1.1,0.1-1.5,0.4
			c-0.4,0.3-0.7,0.7-0.9,1.4C396.5,85,396.4,86,396.4,87.1z"/>
		<path class="st6" d="M413.7,102.3V76.4h7.8l1.5,2.5c0.8-0.7,1.9-1.4,3.2-2c1.3-0.6,2.7-0.9,4.1-0.9c2.2,0,3.9,0.4,5.1,1.3
			c1.2,0.8,1.9,2,2.4,3.5c0.4,1.5,0.6,3.1,0.6,4.9v16.7H429V86.9c0-0.7-0.1-1.2-0.3-1.5c-0.2-0.4-0.5-0.6-0.9-0.7
			c-0.4-0.1-0.8-0.2-1.3-0.2c-0.4,0-0.8,0.1-1.3,0.2s-0.9,0.3-1.2,0.5c-0.4,0.2-0.7,0.5-1,0.8v16.5H413.7z"/>
		<path class="st6" d="M454,102.6c-2.9,0-5.3-0.4-7.1-1.1c-1.8-0.7-3.1-2.1-3.9-4c-0.8-1.9-1.2-4.6-1.2-8c0-3.6,0.4-6.3,1.1-8.2
			c0.7-1.9,2-3.3,3.7-4.1s4.1-1.2,7-1.2c2.8,0,4.9,0.3,6.5,0.8c1.6,0.5,2.7,1.4,3.4,2.8c0.7,1.3,1,3.2,1,5.6c0,1.9-0.4,3.4-1.1,4.4
			c-0.7,1.1-1.8,1.8-3.1,2.3c-1.3,0.4-2.9,0.7-4.8,0.7H451c0.1,0.8,0.3,1.4,0.6,1.8c0.3,0.5,0.8,0.8,1.6,1c0.8,0.2,1.9,0.3,3.4,0.3
			h7.1v5.4c-1.1,0.3-2.5,0.6-4,1C458.1,102.4,456.2,102.6,454,102.6z M450.9,87.1h3.7c0.6,0,1.1-0.1,1.4-0.4
			c0.3-0.3,0.4-0.8,0.4-1.5c0-0.6-0.1-1.1-0.3-1.5c-0.2-0.4-0.5-0.7-0.9-0.8c-0.4-0.2-1-0.3-1.6-0.3c-0.6,0-1.1,0.1-1.5,0.4
			c-0.4,0.3-0.7,0.7-0.9,1.4C451,85,450.9,86,450.9,87.1z"/>
		<path class="st6" d="M489.1,102.5c-2,0-3.7-0.3-5.1-1c-1.3-0.6-2.3-1.6-3-2.9c-0.6-1.3-1-2.8-1-4.7V65.7h9.3v26.8
			c0,0.6,0.1,1.1,0.2,1.5c0.1,0.4,0.4,0.7,0.7,1c0.3,0.2,0.7,0.4,1.2,0.5l1.6,0.2v6.8H489.1z"/>
		<path class="st6" d="M501.6,102.6c-2,0-3.6-0.6-4.8-1.8c-1.2-1.2-1.8-2.8-1.8-4.8v-2.6c0-1.9,0.7-3.5,2.1-4.8
			c1.4-1.3,3.6-1.9,6.7-1.9h5.2v-0.8c0-0.6-0.1-1.1-0.3-1.5c-0.2-0.4-0.7-0.6-1.4-0.8s-1.8-0.2-3.2-0.2h-7.5V78
			c1.3-0.5,2.9-1,4.6-1.3c1.7-0.4,3.9-0.5,6.4-0.5c2.2,0,4.1,0.2,5.7,0.7c1.6,0.5,2.9,1.4,3.7,2.7s1.3,3.2,1.3,5.6v17.1h-7.4
			l-1.4-2.6c-0.3,0.3-0.7,0.6-1.2,1c-0.5,0.3-1,0.6-1.7,0.9c-0.6,0.3-1.4,0.5-2.2,0.7C503.6,102.5,502.6,102.6,501.6,102.6z
			 M506.5,96.3c0.2,0,0.3,0,0.5,0c0.2,0,0.4-0.1,0.6-0.1c0.2,0,0.4-0.1,0.6-0.1c0.2,0,0.3-0.1,0.5-0.2c0.1-0.1,0.2-0.1,0.3-0.1V91
			l-2,0.3c-0.9,0.1-1.6,0.4-2,0.7c-0.5,0.3-0.7,0.9-0.7,1.6v1c0,0.4,0.1,0.8,0.3,1c0.2,0.3,0.4,0.5,0.8,0.6
			C505.6,96.2,506,96.3,506.5,96.3z"/>
		<path class="st6" d="M540.2,102.6c-2,0-3.6-0.6-4.8-1.8c-1.2-1.2-1.8-2.8-1.8-4.8v-2.6c0-1.9,0.7-3.5,2.1-4.8
			c1.4-1.3,3.6-1.9,6.7-1.9h5.2v-0.8c0-0.6-0.1-1.1-0.3-1.5c-0.2-0.4-0.7-0.6-1.4-0.8s-1.8-0.2-3.2-0.2h-7.5V78
			c1.3-0.5,2.9-1,4.6-1.3c1.7-0.4,3.9-0.5,6.4-0.5c2.2,0,4.1,0.2,5.7,0.7c1.6,0.5,2.9,1.4,3.7,2.7s1.3,3.2,1.3,5.6v17.1h-7.4
			l-1.4-2.6c-0.3,0.3-0.7,0.6-1.2,1c-0.5,0.3-1,0.6-1.7,0.9c-0.6,0.3-1.4,0.5-2.2,0.7C542.1,102.5,541.2,102.6,540.2,102.6z
			 M545.1,96.3c0.2,0,0.3,0,0.5,0c0.2,0,0.4-0.1,0.6-0.1c0.2,0,0.4-0.1,0.6-0.1c0.2,0,0.3-0.1,0.5-0.2c0.1-0.1,0.2-0.1,0.3-0.1V91
			l-2,0.3c-0.9,0.1-1.6,0.4-2,0.7c-0.5,0.3-0.7,0.9-0.7,1.6v1c0,0.4,0.1,0.8,0.3,1c0.2,0.3,0.4,0.5,0.8,0.6
			C544.2,96.2,544.6,96.3,545.1,96.3z"/>
		<path class="st6" d="M569.8,113.7l2.5-11.4c-1.9,0-3.4-0.3-4.6-1c-1.2-0.7-2.2-1.5-2.9-2.7c-0.7-1.1-1.2-2.4-1.5-3.8l-4-18.4h9.6
			l2.9,16.5c0.1,0.4,0.2,0.7,0.3,0.9c0.1,0.2,0.3,0.4,0.5,0.6c0.2,0.1,0.4,0.2,0.6,0.3c0.2,0.1,0.4,0.1,0.6,0.1l3.3-18.4h9.5
			l-6.6,32.5l-2.4,4.8H569.8z"/>
		<path class="st6" d="M596.3,102.6c-2.2,0-4-0.7-5.3-2.1c-1.3-1.4-1.9-3.3-1.9-5.6V76.4h9.3v15.5c0,1,0.2,1.7,0.7,2
			c0.5,0.3,1.1,0.5,1.8,0.5c0.5,0,1.1-0.1,1.8-0.4s1.3-0.6,1.7-1.1V76.4h9.3v25.9H606l-1.5-2.5c-1.1,0.7-2.3,1.3-3.7,1.9
			C599.3,102.3,597.8,102.6,596.3,102.6z"/>
		<path class="st6" d="M626.5,102.6c-2,0-3.6-0.4-5-1.2c-1.4-0.8-2.4-2.2-3.1-4.1c-0.7-1.9-1.1-4.4-1.1-7.6c0-3.2,0.3-5.8,0.8-7.8
			c0.6-2,1.5-3.5,3-4.4c1.4-1,3.4-1.4,5.9-1.4c1,0,2,0.1,3,0.3c1,0.2,1.9,0.4,2.7,0.7V65.7h9.3v36.6h-7.9l-1.4-2.4
			c-0.6,0.5-1.2,1-1.9,1.4c-0.7,0.4-1.4,0.7-2.1,0.9C628,102.5,627.3,102.6,626.5,102.6z M629.9,95.2c0.6,0,1.2-0.1,1.7-0.3
			c0.5-0.2,0.9-0.4,1.1-0.6V83.7c-0.3-0.2-0.7-0.3-1.2-0.5s-1-0.3-1.4-0.3c-0.9,0-1.6,0.1-2.1,0.4c-0.5,0.3-0.9,0.9-1.1,1.8
			c-0.2,0.9-0.3,2.3-0.3,4.1c0,1.8,0.1,3.1,0.3,3.9c0.2,0.8,0.6,1.4,1.1,1.7C628.5,95,629.1,95.2,629.9,95.2z"/>
		<path class="st6" d="M652,102.6c-2,0-3.6-0.6-4.8-1.8c-1.2-1.2-1.8-2.8-1.8-4.8v-2.6c0-1.9,0.7-3.5,2.1-4.8
			c1.4-1.3,3.6-1.9,6.7-1.9h5.2v-0.8c0-0.6-0.1-1.1-0.3-1.5c-0.2-0.4-0.7-0.6-1.4-0.8s-1.8-0.2-3.2-0.2h-7.5V78
			c1.3-0.5,2.9-1,4.6-1.3c1.7-0.4,3.9-0.5,6.4-0.5c2.2,0,4.1,0.2,5.7,0.7c1.6,0.5,2.9,1.4,3.7,2.7s1.3,3.2,1.3,5.6v17.1h-7.4
			l-1.4-2.6c-0.3,0.3-0.7,0.6-1.2,1c-0.5,0.3-1,0.6-1.7,0.9c-0.6,0.3-1.4,0.5-2.2,0.7C653.9,102.5,653,102.6,652,102.6z M656.9,96.3
			c0.2,0,0.3,0,0.5,0c0.2,0,0.4-0.1,0.6-0.1c0.2,0,0.4-0.1,0.6-0.1c0.2,0,0.3-0.1,0.5-0.2c0.1-0.1,0.2-0.1,0.3-0.1V91l-2,0.3
			c-0.9,0.1-1.6,0.4-2,0.7c-0.5,0.3-0.7,0.9-0.7,1.6v1c0,0.4,0.1,0.8,0.3,1c0.2,0.3,0.4,0.5,0.8,0.6C656,96.2,656.4,96.3,656.9,96.3
			z"/>
		<path class="st6" d="M673.7,92.4l-1.1-25.7h9.3l-1.3,25.7H673.7z M674.4,102.4c-0.8,0-1.2-0.4-1.2-1.1v-5.6c0-0.8,0.4-1.2,1.2-1.2
			h5.4c0.8,0,1.2,0.4,1.2,1.2v5.6c0,0.4-0.1,0.7-0.3,0.9c-0.2,0.2-0.5,0.2-0.9,0.2H674.4z"/>
	</g>
	<g>
		<path class="st6" d="M271.9,2418.3l1.1,25.7h-9.3l1.3-25.7H271.9z M271.3,2408.3c0.8,0,1.2,0.4,1.2,1.1v5.6c0,0.8-0.4,1.2-1.2,1.2
			h-5.4c-0.8,0-1.2-0.4-1.2-1.2v-5.6c0-0.4,0.1-0.7,0.3-0.9s0.5-0.2,0.9-0.2H271.3z"/>
		<path class="st6" d="M276.7,2434.3l4.2-35.7h8.7l7.3,25.1l7.3-25.1h8.6l4.3,35.7h-9l-2.7-22.9l1.3,0l-5.6,22.9h-8.7l-5.7-22.9
			l1.5,0l-2.7,22.9H276.7z"/>
		<path class="st6" d="M327.7,2434.6c-2.2,0-4-0.7-5.3-2.1s-1.9-3.3-1.9-5.6v-18.4h9.3v15.5c0,1,0.2,1.7,0.7,2
			c0.5,0.3,1.1,0.5,1.8,0.5c0.5,0,1.1-0.1,1.8-0.4s1.3-0.6,1.7-1.1v-16.5h9.3v25.9h-7.8l-1.5-2.5c-1.1,0.7-2.3,1.3-3.7,1.9
			C330.7,2434.3,329.2,2434.6,327.7,2434.6z"/>
		<path class="st6" d="M359.9,2434.6c-1.6,0-3.1-0.2-4.5-0.6c-1.4-0.4-2.6-1.1-3.6-2.1c-1-1-1.8-2.3-2.3-4s-0.8-3.8-0.8-6.3
			c0-2.6,0.2-4.8,0.7-6.6s1.2-3.1,2.2-4.2c1-1,2.2-1.8,3.6-2.2c1.4-0.4,3.1-0.6,4.9-0.6c1.7,0,3.3,0.1,4.7,0.3
			c1.4,0.2,2.9,0.6,4.6,1.2v5.3h-6.3c-1.4,0-2.4,0.2-3.2,0.6c-0.8,0.4-1.3,1-1.6,2c-0.3,0.9-0.4,2.3-0.4,4.1c0,1.8,0.1,3.1,0.4,4
			c0.3,0.9,0.8,1.5,1.5,1.8c0.8,0.3,1.9,0.4,3.3,0.4h6.5v5.2c-0.8,0.3-1.8,0.6-2.9,0.9c-1.1,0.3-2.3,0.5-3.5,0.6
			C362.2,2434.5,361,2434.6,359.9,2434.6z"/>
		<path class="st6" d="M372.9,2434.3v-36.6h9.3v13.2c0.7-0.7,1.8-1.4,3.2-2c1.4-0.6,2.8-0.9,4.2-0.9c2,0,3.6,0.4,4.8,1.2
			c1.2,0.8,2,1.9,2.4,3.3c0.5,1.4,0.7,3.1,0.7,5.1v16.8h-9.3v-15.6c0-0.6-0.1-1.1-0.4-1.5c-0.2-0.4-0.6-0.6-0.9-0.7
			s-0.8-0.2-1.2-0.2c-0.4,0-0.8,0.1-1.3,0.2c-0.4,0.1-0.9,0.3-1.2,0.6s-0.7,0.5-1,0.7v16.5H372.9z"/>
		<path class="st6" d="M407.5,2434.6c-2,0-3.6-0.6-4.8-1.8c-1.2-1.2-1.8-2.8-1.8-4.8v-2.6c0-1.9,0.7-3.5,2.1-4.8
			c1.4-1.3,3.6-1.9,6.7-1.9h5.2v-0.8c0-0.6-0.1-1.1-0.3-1.5c-0.2-0.4-0.7-0.6-1.4-0.8c-0.7-0.1-1.8-0.2-3.2-0.2h-7.5v-5.3
			c1.3-0.5,2.9-1,4.6-1.3c1.7-0.4,3.9-0.5,6.4-0.5c2.2,0,4.1,0.2,5.7,0.7c1.6,0.5,2.9,1.4,3.7,2.7s1.3,3.2,1.3,5.6v17.1h-7.4
			l-1.4-2.6c-0.3,0.3-0.7,0.6-1.2,1c-0.5,0.3-1,0.6-1.7,0.9c-0.6,0.3-1.4,0.5-2.2,0.7C409.4,2434.5,408.5,2434.6,407.5,2434.6z
			 M412.4,2428.3c0.2,0,0.3,0,0.5,0c0.2,0,0.4-0.1,0.6-0.1s0.4-0.1,0.6-0.1c0.2,0,0.3-0.1,0.5-0.2s0.2-0.1,0.3-0.1v-4.7l-2,0.3
			c-0.9,0.1-1.6,0.4-2,0.7s-0.7,0.9-0.7,1.6v1c0,0.4,0.1,0.8,0.3,1c0.2,0.3,0.4,0.5,0.8,0.6C411.5,2428.2,411.9,2428.3,412.4,2428.3
			z"/>
		<path class="st6" d="M438,2434.6c-0.9,0-1.9,0-2.8-0.1c-0.9-0.1-1.8-0.2-2.7-0.3c-0.9-0.1-1.7-0.3-2.5-0.5
			c-0.8-0.2-1.5-0.4-2.1-0.7v-5.4h12c0.4,0,0.7,0,0.9-0.1c0.2-0.1,0.3-0.2,0.4-0.3c0.1-0.1,0.1-0.3,0.1-0.5v-0.6
			c0-0.3-0.1-0.6-0.3-0.7c-0.2-0.2-0.7-0.3-1.5-0.3h-4.3c-1.4,0-2.8-0.2-4-0.7c-1.2-0.5-2.2-1.3-2.9-2.4c-0.7-1.1-1.1-2.5-1.1-4.4
			v-1.6c0-1.7,0.3-3.1,1-4.2c0.6-1.2,1.8-2.1,3.4-2.7s3.9-0.9,6.9-0.9c1.2,0,2.4,0.1,3.6,0.2c1.2,0.1,2.3,0.3,3.4,0.6
			c1,0.2,1.8,0.5,2.4,0.7v5.4h-11.4c-0.5,0-0.8,0.1-1.1,0.2c-0.2,0.1-0.3,0.4-0.3,0.7v0.6c0,0.3,0.1,0.5,0.2,0.6
			c0.1,0.1,0.3,0.2,0.6,0.3c0.3,0.1,0.7,0.1,1.2,0.1h4.5c2.8,0,4.8,0.6,5.9,1.9c1.1,1.3,1.7,3,1.7,5.2v2.6c0,1.7-0.4,3.1-1.2,4.2
			c-0.8,1.1-2.1,1.8-3.7,2.3C442.6,2434.4,440.6,2434.6,438,2434.6z"/>
		<path class="st6" d="M471.6,2446.3c-1.6,0-3-0.2-4.3-0.7c-1.3-0.5-2.3-1.2-3-2.1c-0.8-0.9-1.1-2-1.1-3.3v-0.5
			c0-1.3,0.4-2.4,1.2-3.4c0.8-1,1.8-1.7,3-2.2s2.6-0.8,4-0.8l2.9,2.7c-0.5,0-1,0.1-1.3,0.2c-0.4,0.2-0.6,0.4-0.8,0.6
			c-0.2,0.3-0.2,0.6-0.2,0.9v0.2c0,0.5,0.2,1,0.6,1.3c0.4,0.4,1,0.6,1.8,0.6h4.2c0.7,0,1.3-0.1,1.7-0.4c0.4-0.3,0.7-0.7,0.7-1.2
			v-0.6c0-0.4-0.1-0.7-0.3-0.9c-0.2-0.2-0.5-0.4-0.8-0.6c-0.4-0.1-0.8-0.2-1.2-0.2h-4.4c-3.5,0-6-0.6-7.6-1.8s-2.4-2.7-2.4-4.4
			c0-1.3,0.4-2.4,1.1-3.4c0.7-1,1.8-1.6,3.1-1.9c-0.9-0.6-1.6-1.2-2.2-2c-0.6-0.8-1-1.6-1.2-2.5c-0.3-0.9-0.4-1.8-0.4-2.8
			c0-1.9,0.4-3.4,1.2-4.7c0.8-1.3,2-2.2,3.6-2.9c1.6-0.7,3.8-1,6.5-1H490v5.1l-2.7,0.9c0.2,0.3,0.4,0.7,0.6,1.1
			c0.1,0.4,0.3,0.9,0.3,1.5c0.1,0.6,0.1,1.2,0.1,1.9c0,1.6-0.3,3-1,4.2c-0.7,1.2-1.7,2.1-3,2.8c-1.4,0.7-3.2,1-5.4,1h-4.9
			c-0.5,0-1,0.1-1.3,0.3c-0.4,0.2-0.6,0.5-0.6,0.9c0,0.4,0.2,0.7,0.6,0.8c0.4,0.1,0.8,0.2,1.3,0.2h6.2c2,0,3.6,0.3,5.1,0.8
			c1.4,0.5,2.6,1.4,3.4,2.6c0.8,1.2,1.2,2.8,1.2,4.9v0.4c0,2.7-0.8,4.8-2.4,6.3c-1.6,1.5-4.2,2.3-7.7,2.3H471.6z M475.1,2420h2.6
			c0.5,0,1-0.1,1.3-0.2c0.3-0.2,0.5-0.4,0.7-0.8s0.2-0.8,0.2-1.3c0-0.5-0.1-1-0.2-1.3s-0.4-0.6-0.7-0.7c-0.3-0.1-0.8-0.2-1.3-0.2
			h-2.6c-0.8,0-1.4,0.2-1.7,0.5s-0.5,0.9-0.5,1.8c0,0.8,0.2,1.4,0.5,1.8S474.3,2420,475.1,2420z"/>
		<path class="st6" d="M492.8,2434.3v-25.9h7.2l2.1,3.6c0.8-1.1,1.7-2,2.7-2.8s2.2-1.2,3.7-1.2c0.3,0,0.6,0,0.9,0
			c0.4,0,0.7,0.1,1,0.2v9.6c-0.5-0.1-1.1-0.1-1.7-0.1c-0.6,0-1.1,0-1.5,0c-0.8,0-1.5,0.1-2.1,0.2c-0.6,0.1-1.2,0.4-1.7,0.6
			c-0.5,0.3-0.9,0.7-1.3,1.2v14.6H492.8z"/>
		<path class="st6" d="M518.3,2434.6c-2,0-3.6-0.6-4.8-1.8c-1.2-1.2-1.8-2.8-1.8-4.8v-2.6c0-1.9,0.7-3.5,2.1-4.8
			c1.4-1.3,3.6-1.9,6.7-1.9h5.2v-0.8c0-0.6-0.1-1.1-0.3-1.5c-0.2-0.4-0.7-0.6-1.4-0.8c-0.7-0.1-1.8-0.2-3.2-0.2h-7.5v-5.3
			c1.3-0.5,2.9-1,4.6-1.3c1.7-0.4,3.9-0.5,6.4-0.5c2.2,0,4.1,0.2,5.7,0.7c1.6,0.5,2.9,1.4,3.7,2.7s1.3,3.2,1.3,5.6v17.1h-7.4
			l-1.4-2.6c-0.3,0.3-0.7,0.6-1.2,1c-0.5,0.3-1,0.6-1.7,0.9c-0.6,0.3-1.4,0.5-2.2,0.7C520.2,2434.5,519.3,2434.6,518.3,2434.6z
			 M523.2,2428.3c0.2,0,0.3,0,0.5,0c0.2,0,0.4-0.1,0.6-0.1s0.4-0.1,0.6-0.1c0.2,0,0.3-0.1,0.5-0.2s0.2-0.1,0.3-0.1v-4.7l-2,0.3
			c-0.9,0.1-1.6,0.4-2,0.7s-0.7,0.9-0.7,1.6v1c0,0.4,0.1,0.8,0.3,1c0.2,0.3,0.4,0.5,0.8,0.6C522.3,2428.2,522.7,2428.3,523.2,2428.3
			z"/>
		<path class="st6" d="M549.6,2434.6c-1.6,0-3.1-0.2-4.5-0.6c-1.4-0.4-2.6-1.1-3.6-2.1c-1-1-1.8-2.3-2.3-4s-0.8-3.8-0.8-6.3
			c0-2.6,0.2-4.8,0.7-6.6s1.2-3.1,2.2-4.2c1-1,2.2-1.8,3.6-2.2c1.4-0.4,3.1-0.6,4.9-0.6c1.7,0,3.3,0.1,4.7,0.3
			c1.4,0.2,2.9,0.6,4.6,1.2v5.3h-6.3c-1.4,0-2.4,0.2-3.2,0.6c-0.8,0.4-1.3,1-1.6,2c-0.3,0.9-0.4,2.3-0.4,4.1c0,1.8,0.1,3.1,0.4,4
			c0.3,0.9,0.8,1.5,1.5,1.8c0.8,0.3,1.9,0.4,3.3,0.4h6.5v5.2c-0.8,0.3-1.8,0.6-2.9,0.9c-1.1,0.3-2.3,0.5-3.5,0.6
			C551.9,2434.5,550.7,2434.6,549.6,2434.6z"/>
		<path class="st6" d="M563.6,2405.2c-0.8,0-1.2-0.4-1.2-1.1v-5.3c0-0.8,0.4-1.2,1.2-1.2h7.3c0.4,0,0.6,0.1,0.8,0.3
			c0.2,0.2,0.3,0.5,0.3,0.9v5.3c0,0.7-0.4,1.1-1.1,1.1H563.6z M562.6,2434.3v-25.9h9.3v25.9H562.6z"/>
		<path class="st6" d="M581.9,2434.6c-2,0-3.6-0.6-4.8-1.8c-1.2-1.2-1.8-2.8-1.8-4.8v-2.6c0-1.9,0.7-3.5,2.1-4.8
			c1.4-1.3,3.6-1.9,6.7-1.9h5.2v-0.8c0-0.6-0.1-1.1-0.3-1.5c-0.2-0.4-0.7-0.6-1.4-0.8c-0.7-0.1-1.8-0.2-3.2-0.2h-7.5v-5.3
			c1.3-0.5,2.9-1,4.6-1.3c1.7-0.4,3.9-0.5,6.4-0.5c2.2,0,4.1,0.2,5.7,0.7c1.6,0.5,2.9,1.4,3.7,2.7s1.3,3.2,1.3,5.6v17.1h-7.4
			l-1.4-2.6c-0.3,0.3-0.7,0.6-1.2,1c-0.5,0.3-1,0.6-1.7,0.9c-0.6,0.3-1.4,0.5-2.2,0.7C583.9,2434.5,582.9,2434.6,581.9,2434.6z
			 M586.8,2428.3c0.2,0,0.3,0,0.5,0c0.2,0,0.4-0.1,0.6-0.1s0.4-0.1,0.6-0.1c0.2,0,0.3-0.1,0.5-0.2s0.2-0.1,0.3-0.1v-4.7l-2,0.3
			c-0.9,0.1-1.6,0.4-2,0.7s-0.7,0.9-0.7,1.6v1c0,0.4,0.1,0.8,0.3,1c0.2,0.3,0.4,0.5,0.8,0.6C585.9,2428.2,586.3,2428.3,586.8,2428.3
			z"/>
		<path class="st6" d="M612.5,2434.6c-0.9,0-1.9,0-2.8-0.1c-0.9-0.1-1.8-0.2-2.7-0.3c-0.9-0.1-1.7-0.3-2.5-0.5
			c-0.8-0.2-1.5-0.4-2.1-0.7v-5.4h12c0.4,0,0.7,0,0.9-0.1c0.2-0.1,0.3-0.2,0.4-0.3c0.1-0.1,0.1-0.3,0.1-0.5v-0.6
			c0-0.3-0.1-0.6-0.3-0.7c-0.2-0.2-0.7-0.3-1.5-0.3h-4.3c-1.4,0-2.8-0.2-4-0.7c-1.2-0.5-2.2-1.3-2.9-2.4c-0.7-1.1-1.1-2.5-1.1-4.4
			v-1.6c0-1.7,0.3-3.1,1-4.2c0.6-1.2,1.8-2.1,3.4-2.7s3.9-0.9,6.9-0.9c1.2,0,2.4,0.1,3.6,0.2c1.2,0.1,2.3,0.3,3.4,0.6
			c1,0.2,1.8,0.5,2.4,0.7v5.4h-11.4c-0.5,0-0.8,0.1-1.1,0.2c-0.2,0.1-0.3,0.4-0.3,0.7v0.6c0,0.3,0.1,0.5,0.2,0.6
			c0.1,0.1,0.3,0.2,0.6,0.3c0.3,0.1,0.7,0.1,1.2,0.1h4.5c2.8,0,4.8,0.6,5.9,1.9c1.1,1.3,1.7,3,1.7,5.2v2.6c0,1.7-0.4,3.1-1.2,4.2
			c-0.8,1.1-2.1,1.8-3.7,2.3C617.1,2434.4,615,2434.6,612.5,2434.6z"/>
		<path class="st6" d="M628.1,2424.4l-1.1-25.7h9.3l-1.3,25.7H628.1z M628.7,2434.4c-0.8,0-1.2-0.4-1.2-1.1v-5.6
			c0-0.8,0.4-1.2,1.2-1.2h5.4c0.8,0,1.2,0.4,1.2,1.2v5.6c0,0.4-0.1,0.7-0.3,0.9c-0.2,0.2-0.5,0.2-0.9,0.2H628.7z"/>
	</g>
	<path class="st10" d="M706.9,684c71.8,68.8,116.6,165.7,116.6,273c0,96.8-36.4,185.1-96.3,252"/>
	<path class="st10" d="M183,1986c-71.8-68.8-116.6-165.7-116.6-273c0-96.8,36.4-185.1,96.3-252"/>
	<path class="st5" d="M783.8,1201.7c0.6,0.9,1,1.9,1.2,3c0.6,4.1-2.2,7.9-6.2,8.6l-61,9.6l0.2-68.3c0-4.1,3.4-7.5,7.5-7.5
		c4.1,0,7.5,3.4,7.5,7.5l-0.2,50.7l43.6-6.9C779.4,1198,782.3,1199.4,783.8,1201.7z"/>
</g>
<g id="Layer_2">
</g>
</svg>
