<?xml version="1.0" encoding="utf-8"?>
<!-- Generator: Adobe Illustrator 25.2.3, SVG Export Plug-In . SVG Version: 6.00 Build 0)  -->
<svg version="1.1" xmlns="http://www.w3.org/2000/svg" xmlns:xlink="http://www.w3.org/1999/xlink" x="0px" y="0px"
	 viewBox="0 0 2200 1800" style="enable-background:new 0 0 2200 1800;" xml:space="preserve">
<style type="text/css">
	.st0{fill:#BEA3CC;}
	.st1{fill:#785089;}
	.st2{fill:#D695C0;}
	.st3{fill:#442856;}
	.st4{fill:#F0CEE2;}
	.st5{fill:none;stroke:#D695C0;stroke-width:16;stroke-miterlimit:10;}
	.st6{fill:none;stroke:#785089;stroke-width:15;stroke-linecap:round;stroke-miterlimit:10;}
	.st7{fill:#76BF60;}
	.st8{fill:#489B91;}
	.st9{fill:#EC8231;}
	.st10{fill:#E34D99;}
	.st11{fill:#C7E2C0;}
	.st12{fill:#9BD2CA;}
	.st13{fill:#FBC089;}
	.st14{fill:#E9A6C9;}
	.st15{fill:none;stroke:#442856;stroke-width:15;stroke-miterlimit:10;}
	.st16{fill:none;stroke:#60C7D5;stroke-width:16;stroke-miterlimit:10;}
</style>
<g id="Layer_1">
	<path class="st0" d="M557,543.2c-1.4,0-2.8-0.4-4.1-1.2c-3.5-2.2-4.5-6.9-2.2-10.4c2.2-3.4,4.4-6.8,6.7-10.1c2.3-3.4,7-4.4,10.4-2
		c3.4,2.3,4.4,7,2,10.4c-2.2,3.3-4.4,6.6-6.5,9.9C561.9,542,559.5,543.2,557,543.2z M575.6,515.9c-1.5,0-3-0.5-4.4-1.4
		c-3.4-2.4-4.1-7.1-1.7-10.5c2.3-3.3,4.8-6.6,7.2-9.8c2.5-3.3,7.2-4,10.5-1.5c3.3,2.5,4,7.2,1.5,10.5c-2.4,3.2-4.7,6.4-7,9.6
		C580.3,514.8,578,515.9,575.6,515.9z M595.5,489.6c-1.6,0-3.3-0.5-4.7-1.6c-3.2-2.6-3.8-7.3-1.2-10.5c2.5-3.2,5.1-6.3,7.6-9.4
		c2.6-3.2,7.4-3.6,10.6-1c3.2,2.6,3.6,7.4,1,10.6c-2.5,3-5,6.1-7.5,9.2C599.9,488.6,597.7,489.6,595.5,489.6z M616.7,464.2
		c-1.8,0-3.5-0.6-4.9-1.9c-3.1-2.7-3.4-7.5-0.7-10.6c2.7-3,5.4-6.1,8.1-9c2.8-3.1,7.5-3.3,10.6-0.5c3.1,2.8,3.3,7.5,0.5,10.6
		c-2.6,2.9-5.3,5.9-7.9,8.8C620.9,463.4,618.8,464.2,616.7,464.2z M639.1,440c-1.9,0-3.8-0.7-5.2-2.1c-3-2.9-3-7.6-0.2-10.6
		c2.8-2.9,5.7-5.8,8.5-8.6c2.9-2.9,7.7-2.9,10.6,0c2.9,2.9,2.9,7.7,0,10.6c-2.8,2.8-5.6,5.6-8.3,8.4C643,439.2,641,440,639.1,440z
		 M662.6,416.9c-2,0-4-0.8-5.5-2.4c-2.8-3-2.7-7.8,0.3-10.6c3-2.8,6-5.5,8.9-8.2c3.1-2.8,7.8-2.5,10.6,0.5c2.8,3.1,2.5,7.8-0.5,10.6
		c-2.9,2.6-5.8,5.3-8.7,8C666.3,416.2,664.5,416.9,662.6,416.9z M687.2,394.9c-2.1,0-4.2-0.9-5.7-2.6c-2.7-3.2-2.3-7.9,0.9-10.6
		c3.1-2.6,6.2-5.2,9.3-7.8c3.2-2.6,7.9-2.1,10.6,1.1c2.6,3.2,2.2,7.9-1.1,10.6c-3,2.5-6.1,5-9.1,7.6
		C690.7,394.3,689,394.9,687.2,394.9z M712.9,374.2c-2.3,0-4.5-1-6-2.9c-2.5-3.3-1.9-8,1.4-10.5c3.2-2.5,6.5-4.9,9.7-7.3
		c3.3-2.5,8-1.8,10.5,1.6c2.5,3.3,1.8,8-1.6,10.5c-3.2,2.3-6.3,4.7-9.5,7.1C716.1,373.7,714.5,374.2,712.9,374.2z M739.6,354.7
		c-2.4,0-4.7-1.1-6.2-3.2c-2.4-3.4-1.5-8.1,1.9-10.4c3.3-2.3,6.7-4.6,10-6.8c3.4-2.3,8.1-1.4,10.4,2.1c2.3,3.4,1.4,8.1-2.1,10.4
		c-3.3,2.2-6.6,4.4-9.8,6.7C742.5,354.3,741,354.7,739.6,354.7z M767.1,336.6c-2.5,0-5-1.3-6.4-3.5c-2.2-3.5-1.1-8.1,2.4-10.3
		c3.4-2.1,6.9-4.3,10.3-6.3c3.5-2.1,8.2-1,10.3,2.6c2.1,3.6,1,8.2-2.6,10.3c-3.4,2-6.8,4.1-10.1,6.2
		C769.8,336.3,768.5,336.6,767.1,336.6z M795.5,319.9c-2.6,0-5.2-1.4-6.6-3.9c-2-3.6-0.7-8.2,2.9-10.2c3.5-2,7.1-3.9,10.6-5.8
		c3.7-1.9,8.2-0.6,10.1,3.1s0.6,8.2-3.1,10.1c-3.5,1.8-7,3.8-10.4,5.7C798,319.6,796.8,319.9,795.5,319.9z M824.7,304.6
		c-2.8,0-5.4-1.5-6.7-4.2c-1.8-3.7-0.3-8.2,3.4-10c3.6-1.8,7.3-3.6,10.9-5.3c3.7-1.8,8.2-0.2,10,3.6c1.8,3.7,0.2,8.2-3.6,10
		c-3.6,1.7-7.1,3.4-10.7,5.2C827,304.3,825.8,304.6,824.7,304.6z M854.6,290.7c-2.9,0-5.7-1.7-6.9-4.5c-1.6-3.8,0.1-8.2,3.9-9.9
		c3.7-1.6,7.5-3.2,11.2-4.7c3.8-1.6,8.2,0.2,9.8,4.1c1.6,3.8-0.2,8.2-4.1,9.8c-3.6,1.5-7.3,3-10.9,4.6
		C856.6,290.5,855.6,290.7,854.6,290.7z M885.2,278.4c-3,0-5.9-1.9-7-4.9c-1.5-3.9,0.5-8.2,4.4-9.7c3.7-1.4,7.6-2.8,11.4-4.2
		c3.9-1.4,8.2,0.6,9.6,4.6c1.4,3.9-0.6,8.2-4.6,9.6c-3.7,1.3-7.5,2.7-11.1,4.1C886.9,278.2,886,278.4,885.2,278.4z M916.3,267.5
		c-3.2,0-6.1-2-7.1-5.2c-1.3-3.9,0.9-8.2,4.9-9.4c3.8-1.2,7.7-2.4,11.6-3.6c4-1.2,8.1,1.1,9.3,5c1.2,4-1.1,8.1-5,9.3
		c-3.8,1.1-7.6,2.3-11.3,3.5C917.8,267.4,917,267.5,916.3,267.5z M947.9,258.2c-3.3,0-6.3-2.2-7.2-5.6c-1.1-4,1.3-8.1,5.3-9.2
		c3.9-1,7.8-2.1,11.7-3c4-1,8.1,1.5,9.1,5.5c1,4-1.5,8.1-5.5,9.1c-3.8,0.9-7.7,1.9-11.5,3C949.2,258.1,948.5,258.2,947.9,258.2z
		 M908,229.8c-0.2-1-0.2-2.1,0.1-3.2c1-4,5-6.5,9-5.6l60.1,14.2l-26,63.1c-1.6,3.8-6,5.7-9.8,4.1c-3.8-1.6-5.7-6-4.1-9.8l19.3-46.9
		l-42.9-10.1C910.7,234.9,908.6,232.6,908,229.8z"/>
	<path class="st0" d="M1756.9,687.3c-3.1,0-6-1.9-7.1-5c-1.3-3.7-2.6-7.5-4-11.1c-1.4-3.9,0.6-8.2,4.5-9.6c3.9-1.4,8.2,0.6,9.6,4.5
		c1.4,3.8,2.7,7.6,4.1,11.4c1.4,3.9-0.7,8.2-4.6,9.5C1758.5,687.1,1757.7,687.3,1756.9,687.3z M1745.3,656.4c-3,0-5.8-1.8-7-4.7
		c-1.5-3.7-3-7.3-4.5-10.9c-1.6-3.8,0.2-8.2,4-9.8c3.8-1.6,8.2,0.2,9.8,4c1.6,3.7,3.1,7.4,4.6,11.2c1.5,3.8-0.3,8.2-4.1,9.8
		C1747.2,656.3,1746.3,656.4,1745.3,656.4z M1732.3,626.2c-2.8,0-5.5-1.6-6.8-4.4c-1.6-3.6-3.3-7.2-5.1-10.7
		c-1.8-3.7-0.2-8.2,3.5-10c3.7-1.8,8.2-0.2,10,3.5c1.8,3.6,3.5,7.3,5.2,10.9c1.7,3.8,0.1,8.2-3.7,10
		C1734.4,626,1733.3,626.2,1732.3,626.2z M1717.8,596.7c-2.7,0-5.3-1.5-6.7-4c-1.8-3.5-3.7-7-5.6-10.4c-2-3.6-0.6-8.2,3-10.2
		c3.6-2,8.2-0.6,10.2,3c1.9,3.5,3.8,7.1,5.7,10.7c1.9,3.7,0.5,8.2-3.2,10.1C1720.1,596.4,1718.9,596.7,1717.8,596.7z M1701.8,567.9
		c-2.6,0-5.1-1.3-6.5-3.7c-2-3.4-4-6.8-6.1-10.2c-2.2-3.5-1-8.2,2.5-10.3c3.5-2.2,8.1-1,10.3,2.5c2.1,3.4,4.2,6.9,6.2,10.4
		c2.1,3.6,0.9,8.2-2.7,10.3C1704.4,567.5,1703.1,567.9,1701.8,567.9z M1684.4,539.8c-2.4,0-4.8-1.2-6.3-3.4
		c-2.2-3.3-4.4-6.6-6.6-9.9c-2.3-3.4-1.4-8.1,2-10.4c3.4-2.3,8.1-1.4,10.4,2c2.2,3.3,4.5,6.7,6.7,10.1c2.3,3.5,1.3,8.1-2.2,10.4
		C1687.2,539.4,1685.8,539.8,1684.4,539.8z M1665.7,512.7c-2.3,0-4.6-1.1-6.1-3.1c-2.3-3.2-4.7-6.4-7.1-9.5c-2.5-3.3-1.8-8,1.5-10.5
		c3.3-2.5,8-1.8,10.5,1.5c2.4,3.2,4.8,6.5,7.2,9.7c2.4,3.3,1.7,8-1.7,10.5C1668.8,512.3,1667.2,512.7,1665.7,512.7z M1645.6,486.5
		c-2.2,0-4.4-1-5.8-2.8c-2.5-3.1-5-6.2-7.5-9.2c-2.7-3.2-2.2-7.9,1-10.6c3.2-2.7,7.9-2.2,10.6,1c2.6,3.1,5.1,6.2,7.7,9.4
		c2.6,3.2,2.1,7.9-1.1,10.5C1649,486,1647.3,486.5,1645.6,486.5z M1624.4,461.4c-2.1,0-4.1-0.9-5.6-2.5c-2.6-3-5.3-5.9-8-8.8
		c-2.8-3-2.6-7.8,0.4-10.6c3-2.8,7.8-2.6,10.6,0.4c2.7,3,5.5,6,8.1,9c2.8,3.1,2.5,7.8-0.6,10.6
		C1627.9,460.7,1626.1,461.4,1624.4,461.4z M1601.8,437.2c-1.9,0-3.9-0.8-5.4-2.3c-2.7-2.8-5.6-5.6-8.4-8.4c-3-2.9-3-7.7-0.1-10.6
		c2.9-3,7.7-3,10.6-0.1c2.9,2.8,5.8,5.7,8.6,8.6c2.9,3,2.9,7.7-0.1,10.6C1605.6,436.5,1603.7,437.2,1601.8,437.2z M1578.2,414.2
		c-1.8,0-3.6-0.7-5.1-2c-2.9-2.7-5.8-5.4-8.8-8c-3.1-2.8-3.4-7.5-0.6-10.6c2.8-3.1,7.5-3.4,10.6-0.6c3,2.7,6,5.4,9,8.2
		c3,2.8,3.2,7.6,0.4,10.6C1582.2,413.4,1580.2,414.2,1578.2,414.2z M1553.4,392.4c-1.7,0-3.4-0.6-4.8-1.8c-3-2.6-6.1-5.1-9.2-7.5
		c-3.2-2.6-3.7-7.3-1.1-10.5c2.6-3.2,7.3-3.7,10.5-1.1c3.1,2.5,6.3,5.1,9.4,7.7c3.2,2.7,3.6,7.4,0.9,10.6
		C1557.7,391.5,1555.6,392.4,1553.4,392.4z M1527.6,371.8c-1.6,0-3.2-0.5-4.5-1.5c-3.1-2.4-6.3-4.8-9.5-7.1
		c-3.3-2.4-4.1-7.1-1.6-10.5c2.4-3.3,7.1-4.1,10.5-1.6c3.3,2.4,6.5,4.8,9.7,7.3c3.3,2.5,3.9,7.2,1.4,10.5
		C1532.1,370.8,1529.9,371.8,1527.6,371.8z M1500.8,352.5c-1.5,0-2.9-0.4-4.2-1.3c-3.2-2.2-6.6-4.5-9.9-6.6
		c-3.5-2.3-4.4-6.9-2.1-10.4c2.3-3.5,6.9-4.4,10.4-2.1c3.4,2.2,6.8,4.5,10.1,6.8c3.4,2.3,4.3,7,2,10.4
		C1505.6,351.4,1503.2,352.5,1500.8,352.5z M1473.1,334.6c-1.3,0-2.7-0.4-3.9-1.1c-3.3-2.1-6.8-4.1-10.2-6.1
		c-3.6-2.1-4.8-6.7-2.6-10.3c2.1-3.6,6.7-4.8,10.3-2.6c3.5,2.1,7,4.2,10.4,6.3c3.5,2.2,4.6,6.8,2.5,10.3
		C1478.1,333.3,1475.7,334.6,1473.1,334.6z M1444.6,318c-1.2,0-2.5-0.3-3.6-0.9c-3.5-1.9-7-3.8-10.5-5.6c-3.7-1.9-5.1-6.5-3.1-10.1
		c1.9-3.7,6.5-5.1,10.1-3.1c3.6,1.9,7.2,3.8,10.7,5.7c3.6,2,5,6.6,3,10.2C1449.8,316.5,1447.2,318,1444.6,318z M1415.2,302.8
		c-1.1,0-2.2-0.2-3.3-0.8c-3.6-1.7-7.2-3.4-10.7-5.1c-3.8-1.7-5.4-6.2-3.6-10c1.7-3.8,6.2-5.4,10-3.6c3.6,1.7,7.3,3.4,11,5.2
		c3.7,1.8,5.3,6.3,3.5,10C1420.7,301.2,1418,302.8,1415.2,302.8z M1385.2,289.1c-1,0-2-0.2-2.9-0.6c-3.6-1.5-7.3-3.1-11-4.6
		c-3.8-1.6-5.7-5.9-4.1-9.8c1.6-3.8,5.9-5.7,9.8-4.1c3.7,1.5,7.5,3.1,11.2,4.7c3.8,1.6,5.6,6,4,9.8
		C1390.9,287.4,1388.1,289.1,1385.2,289.1z M1354.5,276.9c-0.9,0-1.7-0.1-2.6-0.5c-3.7-1.4-7.5-2.7-11.2-4c-3.9-1.4-6-5.6-4.6-9.6
		c1.4-3.9,5.6-6,9.6-4.6c3.8,1.3,7.7,2.7,11.5,4.1c3.9,1.4,5.9,5.7,4.4,9.6C1360.4,275,1357.5,276.9,1354.5,276.9z M1323.2,266.2
		c-0.7,0-1.5-0.1-2.2-0.3c-3.8-1.2-7.6-2.3-11.4-3.5c-4-1.2-6.2-5.3-5.1-9.3c1.2-4,5.3-6.2,9.3-5.1c3.9,1.1,7.8,2.3,11.6,3.5
		c4,1.2,6.2,5.4,4.9,9.4C1329.3,264.1,1326.3,266.2,1323.2,266.2z M1291.4,257.1c-0.6,0-1.3-0.1-1.9-0.2c-3.8-1-7.7-2-11.5-2.9
		c-4-1-6.5-5-5.5-9c1-4,5-6.5,9-5.5c3.9,0.9,7.9,1.9,11.8,3c4,1,6.4,5.1,5.4,9.1C1297.7,254.8,1294.7,257.1,1291.4,257.1z
		 M1259.2,249.6c-0.5,0-1-0.1-1.5-0.2c-3.9-0.8-7.8-1.6-11.6-2.3c-4.1-0.8-6.7-4.7-6-8.8c0.8-4.1,4.7-6.7,8.8-6
		c4,0.7,8,1.5,11.9,2.4c4.1,0.8,6.7,4.8,5.8,8.9C1265.8,247.1,1262.7,249.6,1259.2,249.6z M1784.4,642.2c1,0,2.1,0.2,3.1,0.7
		c3.8,1.7,5.4,6.2,3.7,9.9l-25.5,56.2l-57-37.7c-3.5-2.3-4.4-6.9-2.1-10.4c2.3-3.5,6.9-4.4,10.4-2.1l42.3,28l18.2-40.2
		C1778.8,643.9,1781.5,642.3,1784.4,642.2z"/>
	<path class="st0" d="M870.3,1530.9c-0.9,0-1.9-0.2-2.8-0.5c-3.7-1.5-7.5-3.1-11.2-4.7c-3.8-1.6-5.6-6-4-9.8c1.6-3.8,6-5.6,9.8-4
		c3.6,1.5,7.3,3.1,11,4.5c3.8,1.6,5.7,5.9,4.1,9.8C876.1,1529.1,873.3,1530.9,870.3,1530.9z M840,1517.8c-1.1,0-2.1-0.2-3.1-0.7
		c-3.7-1.7-7.4-3.4-11-5.2c-3.7-1.8-5.3-6.3-3.5-10c1.8-3.7,6.3-5.3,10-3.5c3.5,1.7,7.2,3.4,10.7,5.1c3.8,1.7,5.4,6.2,3.7,10
		C845.6,1516.1,842.9,1517.8,840,1517.8z M810.4,1503.2c-1.2,0-2.4-0.3-3.5-0.9c-3.6-1.9-7.2-3.8-10.7-5.7c-3.6-2-5-6.5-3-10.2
		c2-3.6,6.5-5,10.2-3c3.4,1.9,7,3.8,10.5,5.6c3.7,1.9,5.1,6.5,3.2,10.1C815.7,1501.7,813.1,1503.2,810.4,1503.2z M781.5,1487.1
		c-1.3,0-2.6-0.3-3.8-1c-3.5-2-7-4.1-10.4-6.3c-3.5-2.2-4.6-6.8-2.5-10.3c2.2-3.5,6.8-4.6,10.3-2.5c3.4,2.1,6.8,4.1,10.2,6.1
		c3.6,2.1,4.8,6.7,2.7,10.3C786.6,1485.8,784.1,1487.1,781.5,1487.1z M753.5,1469.7c-1.4,0-2.8-0.4-4.1-1.2
		c-3.4-2.2-6.7-4.5-10.1-6.8c-3.4-2.3-4.3-7-2-10.4c2.3-3.4,7-4.3,10.4-2c3.3,2.2,6.6,4.5,9.9,6.6c3.5,2.3,4.4,6.9,2.2,10.4
		C758.3,1468.5,755.9,1469.7,753.5,1469.7z M726.4,1450.9c-1.5,0-3.1-0.5-4.4-1.4c-3.3-2.4-6.6-4.8-9.7-7.2c-3.3-2.5-4-7.2-1.5-10.5
		c2.5-3.3,7.2-4,10.5-1.5c3.1,2.4,6.3,4.7,9.5,7.1c3.3,2.4,4.1,7.1,1.6,10.5C731,1449.8,728.7,1450.9,726.4,1450.9z M700.2,1430.8
		c-1.7,0-3.3-0.5-4.7-1.7c-3.1-2.5-6.3-5.1-9.4-7.7c-3.2-2.7-3.6-7.4-0.9-10.6c2.7-3.2,7.4-3.6,10.6-0.9c3,2.5,6.1,5.1,9.2,7.5
		c3.2,2.6,3.7,7.3,1.1,10.5C704.5,1429.8,702.4,1430.8,700.2,1430.8z M675,1409.5c-1.8,0-3.6-0.6-5-1.9c-3-2.7-6-5.4-9-8.2
		c-3-2.8-3.2-7.6-0.4-10.6c2.8-3,7.6-3.2,10.6-0.4c2.9,2.7,5.9,5.4,8.8,8c3.1,2.8,3.4,7.5,0.6,10.6
		C679.1,1408.6,677.1,1409.5,675,1409.5z M650.9,1386.9c-1.9,0-3.8-0.7-5.3-2.1c-2.9-2.8-5.8-5.7-8.6-8.6c-2.9-3-2.9-7.7,0.1-10.6
		s7.7-2.9,10.6,0.1c2.8,2.8,5.6,5.6,8.4,8.4c3,2.9,3,7.7,0.1,10.6C654.8,1386.2,652.9,1386.9,650.9,1386.9z M627.9,1363.2
		c-2,0-4-0.8-5.5-2.4c-2.7-3-5.5-6-8.2-9c-2.8-3.1-2.5-7.8,0.6-10.6c3.1-2.8,7.8-2.5,10.6,0.6c2.6,2.9,5.3,5.9,8,8.8
		c2.8,3,2.6,7.8-0.4,10.6C631.6,1362.6,629.8,1363.2,627.9,1363.2z M606.2,1338.5c-2.1,0-4.3-0.9-5.8-2.7c-2.6-3.1-5.2-6.2-7.7-9.4
		c-2.6-3.2-2.1-7.9,1.1-10.5c3.2-2.6,7.9-2.1,10.5,1.1c2.5,3.1,5,6.1,7.5,9.2c2.7,3.2,2.2,7.9-0.9,10.6
		C609.6,1337.9,607.9,1338.5,606.2,1338.5z M585.6,1312.6c-2.3,0-4.5-1-6-3c-2.4-3.2-4.9-6.5-7.2-9.7c-2.4-3.3-1.7-8,1.6-10.5
		c3.3-2.4,8-1.7,10.5,1.6c2.3,3.2,4.7,6.4,7.1,9.5c2.5,3.3,1.8,8-1.5,10.5C588.8,1312.2,587.2,1312.6,585.6,1312.6z M566.4,1285.9
		c-2.4,0-4.8-1.1-6.2-3.3c-2.3-3.3-4.5-6.7-6.7-10.1c-2.3-3.5-1.3-8.1,2.2-10.4c3.5-2.3,8.1-1.3,10.4,2.2c2.2,3.3,4.4,6.6,6.6,9.9
		c2.3,3.4,1.5,8.1-2,10.4C569.3,1285.4,567.8,1285.9,566.4,1285.9z M548.5,1258.2c-2.5,0-5-1.3-6.4-3.6c-2.1-3.4-4.2-6.9-6.2-10.4
		c-2.1-3.6-0.9-8.2,2.7-10.3c3.6-2.1,8.2-0.9,10.3,2.7c2,3.4,4.1,6.8,6.1,10.2c2.2,3.5,1.1,8.1-2.5,10.3
		C551.2,1257.8,549.8,1258.2,548.5,1258.2z M531.9,1229.7c-2.7,0-5.2-1.4-6.6-3.9c-1.9-3.5-3.9-7.1-5.7-10.7
		c-1.9-3.7-0.5-8.2,3.2-10.1c3.7-1.9,8.2-0.5,10.1,3.2c1.8,3.5,3.7,7,5.6,10.4c2,3.6,0.7,8.2-3,10.2
		C534.4,1229.4,533.1,1229.7,531.9,1229.7z M516.8,1200.4c-2.8,0-5.5-1.6-6.8-4.2c-1.8-3.6-3.5-7.3-5.2-11c-1.7-3.8-0.1-8.2,3.7-10
		c3.8-1.7,8.2-0.1,10,3.7c1.7,3.6,3.4,7.2,5.1,10.7c1.8,3.7,0.3,8.2-3.5,10C519,1200.1,517.9,1200.4,516.8,1200.4z M503.2,1170.4
		c-2.9,0-5.7-1.7-6.9-4.6c-1.6-3.7-3.1-7.4-4.6-11.2c-1.6-3.8,0.3-8.2,4.1-9.8c3.8-1.6,8.2,0.3,9.8,4.1c1.5,3.7,3,7.3,4.5,10.9
		c1.6,3.8-0.2,8.2-4,9.8C505.1,1170.2,504.1,1170.4,503.2,1170.4z M491,1139.7c-3.1,0-5.9-1.9-7-4.9c-1.4-3.8-2.8-7.6-4.1-11.4
		c-1.4-3.9,0.7-8.2,4.6-9.5c3.9-1.4,8.2,0.7,9.5,4.6c1.3,3.7,2.6,7.5,4,11.2c1.4,3.9-0.6,8.2-4.4,9.6
		C492.8,1139.6,491.9,1139.7,491,1139.7z M480.4,1108.5c-3.2,0-6.2-2.1-7.2-5.3c-1.2-3.9-2.4-7.8-3.5-11.6c-1.2-4,1.1-8.1,5.1-9.3
		c4-1.2,8.1,1.1,9.3,5.1c1.1,3.7,2.3,7.6,3.4,11.4c1.2,4-1,8.2-4.9,9.4C481.9,1108.4,481.1,1108.5,480.4,1108.5z M471.3,1076.8
		c-3.3,0-6.4-2.2-7.3-5.6c-1-3.9-2-7.8-2.9-11.8c-1-4,1.5-8.1,5.5-9c4-1,8.1,1.5,9,5.5c0.9,3.8,1.9,7.7,2.9,11.5
		c1,4-1.4,8.1-5.4,9.1C472.6,1076.7,471.9,1076.8,471.3,1076.8z"/>
	<path class="st0" d="M441.8,1099.8c-1,0-2.1-0.2-3.1-0.7c-3.8-1.7-5.4-6.2-3.7-9.9l25.7-56.1l56.8,37.9c3.4,2.3,4.4,7,2.1,10.4
		c-2.3,3.4-7,4.4-10.4,2.1l-42.2-28.2l-18.4,40.1C447.3,1098.1,444.6,1099.8,441.8,1099.8z"/>
	<g>
		<path class="st0" d="M1121.8,491.5c-4.1,0-7.5-3.4-7.5-7.5v-6c0-4.1,3.4-7.5,7.5-7.5s7.5,3.4,7.5,7.5v6
			C1129.3,488.1,1125.9,491.5,1121.8,491.5z"/>
		<path class="st0" d="M1121.8,1025.3c-4.1,0-7.5-3.4-7.5-7.5v-12.1c0-4.1,3.4-7.5,7.5-7.5s7.5,3.4,7.5,7.5v12.1
			C1129.3,1021.9,1125.9,1025.3,1121.8,1025.3z M1121.8,991.9c-4.1,0-7.5-3.4-7.5-7.5v-12.1c0-4.1,3.4-7.5,7.5-7.5s7.5,3.4,7.5,7.5
			v12.1C1129.3,988.6,1125.9,991.9,1121.8,991.9z M1121.8,958.5c-4.1,0-7.5-3.4-7.5-7.5v-12.1c0-4.1,3.4-7.5,7.5-7.5
			s7.5,3.4,7.5,7.5V951C1129.3,955.2,1125.9,958.5,1121.8,958.5z M1121.8,925.2c-4.1,0-7.5-3.4-7.5-7.5v-12.1c0-4.1,3.4-7.5,7.5-7.5
			s7.5,3.4,7.5,7.5v12.1C1129.3,921.8,1125.9,925.2,1121.8,925.2z M1121.8,891.8c-4.1,0-7.5-3.4-7.5-7.5v-12.1
			c0-4.1,3.4-7.5,7.5-7.5s7.5,3.4,7.5,7.5v12.1C1129.3,888.5,1125.9,891.8,1121.8,891.8z M1121.8,858.5c-4.1,0-7.5-3.4-7.5-7.5
			v-12.1c0-4.1,3.4-7.5,7.5-7.5s7.5,3.4,7.5,7.5V851C1129.3,855.1,1125.9,858.5,1121.8,858.5z M1121.8,825.1c-4.1,0-7.5-3.4-7.5-7.5
			v-12.1c0-4.1,3.4-7.5,7.5-7.5s7.5,3.4,7.5,7.5v12.1C1129.3,821.7,1125.9,825.1,1121.8,825.1z M1121.8,791.7
			c-4.1,0-7.5-3.4-7.5-7.5v-12.1c0-4.1,3.4-7.5,7.5-7.5s7.5,3.4,7.5,7.5v12.1C1129.3,788.4,1125.9,791.7,1121.8,791.7z
			 M1121.8,758.4c-4.1,0-7.5-3.4-7.5-7.5v-12.1c0-4.1,3.4-7.5,7.5-7.5s7.5,3.4,7.5,7.5v12.1C1129.3,755,1125.9,758.4,1121.8,758.4z
			 M1121.8,725c-4.1,0-7.5-3.4-7.5-7.5v-12.1c0-4.1,3.4-7.5,7.5-7.5s7.5,3.4,7.5,7.5v12.1C1129.3,721.7,1125.9,725,1121.8,725z
			 M1121.8,691.7c-4.1,0-7.5-3.4-7.5-7.5V672c0-4.1,3.4-7.5,7.5-7.5s7.5,3.4,7.5,7.5v12.1C1129.3,688.3,1125.9,691.7,1121.8,691.7z
			 M1121.8,658.3c-4.1,0-7.5-3.4-7.5-7.5v-12.1c0-4.1,3.4-7.5,7.5-7.5s7.5,3.4,7.5,7.5v12.1C1129.3,654.9,1125.9,658.3,1121.8,658.3
			z M1121.8,624.9c-4.1,0-7.5-3.4-7.5-7.5v-12.1c0-4.1,3.4-7.5,7.5-7.5s7.5,3.4,7.5,7.5v12.1
			C1129.3,621.6,1125.9,624.9,1121.8,624.9z M1121.8,591.6c-4.1,0-7.5-3.4-7.5-7.5V572c0-4.1,3.4-7.5,7.5-7.5s7.5,3.4,7.5,7.5v12.1
			C1129.3,588.2,1125.9,591.6,1121.8,591.6z M1121.8,558.2c-4.1,0-7.5-3.4-7.5-7.5v-12.1c0-4.1,3.4-7.5,7.5-7.5s7.5,3.4,7.5,7.5
			v12.1C1129.3,554.9,1125.9,558.2,1121.8,558.2z M1121.8,524.9c-4.1,0-7.5-3.4-7.5-7.5v-12.1c0-4.1,3.4-7.5,7.5-7.5
			s7.5,3.4,7.5,7.5v12.1C1129.3,521.5,1125.9,524.9,1121.8,524.9z"/>
		<path class="st0" d="M1121.8,1052.5c-4.1,0-7.5-3.4-7.5-7.5v-6c0-4.1,3.4-7.5,7.5-7.5s7.5,3.4,7.5,7.5v6
			C1129.3,1049.1,1125.9,1052.5,1121.8,1052.5z"/>
	</g>
	<g>
		<path class="st2" d="M1701.6,951.1c-78,0-141.4,63.4-141.4,141.4c0,78,63.4,141.4,141.4,141.4s141.4-63.4,141.4-141.4
			C1843,1014.6,1779.6,951.1,1701.6,951.1z M1701.6,1219c-69.7,0-126.4-56.7-126.4-126.4s56.7-126.4,126.4-126.4
			s126.4,56.7,126.4,126.4S1771.3,1219,1701.6,1219z"/>
		<path class="st2" d="M1771.2,1068.1l-38.9-5.9c-2.6-0.4-4.9-2.1-6.1-4.6l-17.4-36.9c-3-6.3-11.5-6.3-14.5,0l-17.4,36.9
			c-1.2,2.5-3.4,4.2-6.1,4.6l-38.9,5.9c-6.6,1-9.3,9.5-4.5,14.4l28.2,28.7c1.9,1.9,2.8,4.7,2.3,7.5l-6.6,40.5
			c-1.1,6.9,5.8,12.1,11.7,8.9l34.8-19.1c2.3-1.3,5.2-1.3,7.5,0l34.8,19.1c5.9,3.3,12.8-2,11.7-8.9l-6.6-40.5
			c-0.4-2.7,0.4-5.5,2.3-7.5l28.2-28.7C1780.5,1077.6,1777.9,1069.1,1771.2,1068.1z"/>
	</g>
	<path class="st2" d="M544.4,526.1c-78,0-141.4,63.4-141.4,141.4c0,78,63.4,141.4,141.4,141.4c78,0,141.4-63.4,141.4-141.4
		C685.8,589.6,622.4,526.1,544.4,526.1z M588,693.7l6.6,40.5c1.1,6.9-5.8,12.1-11.7,8.9L548.1,724c-2.3-1.3-5.2-1.3-7.5,0
		l-34.8,19.1c-5.9,3.3-12.8-2-11.7-8.9l6.6-40.5c0.4-2.7-0.4-5.5-2.3-7.5l-28.2-28.7c-4.8-4.9-2.1-13.4,4.5-14.4l38.9-5.9
		c2.6-0.4,4.9-2.1,6.1-4.6l17.4-36.9c3-6.3,11.5-6.3,14.5,0l17.4,36.9c1.2,2.5,3.4,4.2,6.1,4.6l38.9,5.9c6.6,1,9.3,9.5,4.5,14.4
		l-28.2,28.7C588.4,688.1,587.5,690.9,588,693.7z"/>
	<path class="st1" d="M419.5,853.4c4.4-28.8-14.4-56.5-43.3-62.6c-5.5-1.2-11.2-1.5-16.8-1c-5.8-19.1-21.4-33.8-41.5-38.1
		c-7.9-1.7-15.9-1.6-23.7,0.1c-7.9-12.5-21.5-20.8-36.6-21.8c-19.4-1.3-36.9,9.2-45.2,26c-30.6-7.9-61.2,11.6-67.7,42.2
		c-0.7,3.4-2.2,7.1-3.4,9.4c-35.3-5-69,18.2-76.6,53.5c-2.6,12.1,0.9,27.3,5.4,40.8c-16.6,2.8-30.7,15.5-34.4,33
		c-4.9,22.9,9.8,45.4,32.6,50.2c11.3,2.4,22.7,0.1,32-6.1c7.9,10,19,16.9,31.8,19.6c14.4,3.1,29.2,0.2,41.4-7.6
		c16.9,22.1,41.4,38.5,70.7,44.7c60,12.7,119.2-21.7,138.9-78.2c3.3,1.4,6.7,2.5,10.3,3.3c29.9,6.3,59.4-12.8,65.7-42.7
		C465.2,889.5,447.6,861.1,419.5,853.4z M248.2,1016.8c-54.5-11.6-89.4-65.3-77.8-119.8c11.6-54.5,65.3-89.4,119.8-77.8
		c54.5,11.6,89.4,65.3,77.8,119.8c0,0.1-0.1,0.3-0.1,0.4l0,0c-0.1,0.5-0.3,0.9-0.4,1.4l-0.9,3.8
		C352.8,995.9,300.9,1028,248.2,1016.8z M397.4,941.9c-3.3-0.7-6.4-1.8-9.4-3.4c11-63.4-30.3-124.9-93.8-138.4
		c-65-13.8-129.2,27.9-143,92.9c-6.1,28.9-1.3,57.6,11.7,81.9c-7.9,5-17.4,6.9-26.7,4.9c-11-2.3-20-9.5-24.9-19.7l-6.7-14l-9.8,12.1
		c-5.5,6.8-14.1,9.9-22.4,8.1c-12.3-2.6-20.2-14.8-17.6-27.1c2.6-12.3,14.8-20.2,27.1-17.6l5.7,1.2l3.8-4.4
		c3.9-4.5,2.2-8.9,0.5-13.6c-2.6-6.9-10.4-28-8-39.5c5.6-26.4,31.6-43.3,58-37.7c15.8,3.3,21.8-24.1,22-25.3
		c4.1-19.3,23.2-31.7,42.5-27.6c2.6,0.6,5.2,1.4,7.8,2.7l11,5.2l2.7-11.8c3-13.1,15-22,28.5-21.1c10.6,0.7,19.9,7.6,23.7,17.6
		l3.6,9.3l9.2-3.8c6.6-2.7,13.9-3.3,20.9-1.8c15.3,3.2,26.6,15.8,28.2,31.4l1.2,11.7l11.3-3.4c5.7-1.7,11.8-1.9,17.6-0.7
		c19.3,4.1,31.7,23.2,27.6,42.5c-1.6,7.6,5,17.7,12.6,19.3c19.3,4.1,31.7,23.2,27.6,42.5S416.8,946,397.4,941.9z"/>
	
		<ellipse transform="matrix(0.5662 -0.8242 0.8242 0.5662 -636.3956 593.4357)" class="st1" cx="245.6" cy="901.4" rx="16.3" ry="16.3"/>
	
		<ellipse transform="matrix(0.8386 -0.5448 0.5448 0.8386 -441.1127 315.6734)" class="st1" cx="312.1" cy="902.2" rx="16.3" ry="16.3"/>
	<path class="st1" d="M2099.3,704.4c31.2-1.1,58.6-23.6,64.7-55.5c7.1-37.1-17.3-73-54.4-80.1c-37.1-7.1-73,17.3-80.1,54.4
		c-2.5,13-1.1,25.8,3.4,37.4c-2.3-0.6-4.6-1.1-6.9-1.5c-65.3-12.5-128.6,30.5-141,95.8s30.5,128.6,95.8,141
		c65.3,12.5,128.6-30.5,141-95.8C2128.5,765,2119.3,730.7,2099.3,704.4z M2105.9,588c26.5,5.1,43.9,30.7,38.9,57.2
		c-5.1,26.5-30.7,43.9-57.2,38.9c-26.5-5.1-43.9-30.7-38.9-57.2C2053.8,600.3,2079.4,582.9,2105.9,588z M2022.3,678.2
		c21.5,4.1,40.1,14.8,54.1,29.5c-13.3,12.2-32.6,16.2-47.4,17.2c-32,2.3-70.5-7.3-93.5-22.3C1958.3,682.1,1990,672,2022.3,678.2z
		 M1984.5,876.6c-54.7-10.4-90.7-63.5-80.3-118.2c2.9-15.4,9.3-29.4,18.1-41.2c15.9,11.1,38,19.7,61.4,24.1c15.5,3,31.6,4.1,46.8,3
		c24.3-1.7,44.1-9,58.1-21.3c13.4,21,19.1,46.9,14.1,73.2C2092.2,851.1,2039.2,887.1,1984.5,876.6z"/>
	
		<ellipse transform="matrix(1.629451e-02 -0.9999 0.9999 1.629451e-02 1146.0732 2707.0637)" class="st1" cx="1948.8" cy="771.1" rx="16.3" ry="16.3"/>
	
		<ellipse transform="matrix(1.629454e-02 -0.9999 0.9999 1.629454e-02 1205.245 2777.3506)" class="st1" cx="2014.1" cy="776.2" rx="16.3" ry="16.3"/>
	<path class="st1" d="M1984.2,839c-13.5,0-26.5-5.7-37.1-17c-2.6-2.7-2.5-7.1,0.3-9.7c2.7-2.6,7.1-2.5,9.7,0.3
		c16,16.9,37.2,17.1,56.8,0.4c2.9-2.4,7.2-2.1,9.6,0.8c2.4,2.9,2.1,7.2-0.8,9.6C2010.5,833.8,1997.1,839,1984.2,839z"/>
	<g>
		<g>
			<rect x="1016.3" y="1044.7" class="st0" width="11.8" height="104.3"/>
			<rect x="1049.4" y="1046" class="st0" width="11.8" height="104.3"/>
			<rect x="1082.5" y="1043.3" class="st0" width="11.8" height="104.3"/>
			<polygon class="st0" points="1115.6,1043.3 1115.6,1146.3 1115.6,1147.6 1127.4,1147.6 1127.4,1146.3 1127.4,1043.3 
				1127.4,1041.9 1115.6,1041.9 			"/>
			<polygon class="st0" points="1148.7,1043.3 1148.7,1146.3 1148.7,1147.6 1160.6,1147.6 1160.6,1146.3 1160.6,1043.3 
				1160.6,1041.9 1148.7,1041.9 			"/>
			<rect x="1181.8" y="1043.3" class="st0" width="11.8" height="104.3"/>
			<rect x="1215" y="1043.3" class="st0" width="11.8" height="104.3"/>
		</g>
		<path class="st8" d="M924.9,1458.5h-47.8v202.5c0,18.6,15.1,33.8,33.8,33.8h211v-44.2H924.9V1458.5z"/>
		<path class="st9" d="M1169.6,1458.5h-47.8v236.3h211c18.6,0,33.8-15.1,33.8-33.8v-10.5h-196.9V1458.5z"/>
		<path class="st10" d="M924.9,1222.2h-14.1c-18.6,0-33.8,15.1-33.8,33.8v202.5h244.7v-44.2H924.9V1222.2z"/>
		<polygon class="st7" points="1169.6,1222.2 1121.8,1222.2 1121.8,1458.5 1366.5,1458.5 1366.5,1414.3 1169.6,1414.3 		"/>
		<path class="st3" d="M1332.8,1700.9h-422c-21.9,0-39.8-17.8-39.8-39.8V1256c0-21.9,17.8-39.8,39.8-39.8h422
			c21.9,0,39.8,17.8,39.8,39.8v405.1C1372.6,1683,1354.7,1700.9,1332.8,1700.9z M910.8,1228.3c-15.3,0-27.7,12.4-27.7,27.7v405.1
			c0,15.3,12.4,27.7,27.7,27.7h422c15.3,0,27.7-12.4,27.7-27.7V1256c0-15.3-12.4-27.7-27.7-27.7H910.8z"/>
		<rect x="877.1" y="1452.5" class="st3" width="489.5" height="12.1"/>
		<rect x="1115.8" y="1153.3" class="st3" width="12.1" height="541.5"/>
		<path class="st3" d="M1238.9,1157h-234.1v-118.9h234.1V1157z M1016.8,1144.9h210v-94.8h-210V1144.9z"/>
	</g>
	<g>
		<path class="st1" d="M1658.3,977.6c4.1,0,7.5-3.4,7.5-7.5v-1.7c0-4.1,0-84,0-84c0-34,11-61.2,32.8-80.7
			c26.7-23.9,65.2-32.5,92.8-35.5c30.5-3.3,54.8-0.7,55-0.7c4.1,0.5,7.8-2.5,8.3-6.6c0.5-4.1-2.5-7.8-6.6-8.3
			c-0.6-0.1-10.3-1.1-25-1.1c-9.3,0-20.6,0.4-32.9,1.7c-42.9,4.6-78,18.1-101.6,39.2c-25.1,22.5-37.8,53.4-37.8,91.9v85.7
			C1650.8,974.2,1654.1,977.6,1658.3,977.6z"/>
		<path class="st1" d="M1679.3,899.6c-4.1,0-7.5,3.4-7.5,7.5v84c0,4.1,3.4,7.5,7.5,7.5s7.5-3.4,7.5-7.5v-84
			C1686.8,902.9,1683.4,899.6,1679.3,899.6z"/>
		<path class="st1" d="M1700.3,899.6c-4.1,0-7.5,3.4-7.5,7.5v84c0,4.1,3.4,7.5,7.5,7.5s7.5-3.4,7.5-7.5v-84
			C1707.8,902.9,1704.4,899.6,1700.3,899.6z"/>
		<path class="st1" d="M1742.3,899.6c-4.1,0-7.5,3.4-7.5,7.5v42c0,4.1,3.4,7.5,7.5,7.5s7.5-3.4,7.5-7.5v-42
			C1749.8,902.9,1746.4,899.6,1742.3,899.6z"/>
		<path class="st1" d="M1721.3,899.6c-4.1,0-7.5,3.4-7.5,7.5v84c0,4.1,3.4,7.5,7.5,7.5s7.5-3.4,7.5-7.5v-84
			C1728.8,902.9,1725.4,899.6,1721.3,899.6z"/>
	</g>
	<g>
		<path class="st0" d="M1200.1,504.9h-162.6c-23.2,0-42-18.8-42-42v-55.7h246.6v55.7C1242.1,486.1,1223.3,504.9,1200.1,504.9z"/>
		<path class="st3" d="M1207.3,511.6h-171.1c-24.5,0-44.5-20-44.5-44.5V136.7c0-24.5,20-44.5,44.5-44.5h171.1
			c24.5,0,44.5,20,44.5,44.5v330.4C1251.8,491.6,1231.9,511.6,1207.3,511.6z M1036.3,105.7c-17.1,0-31,13.9-31,31v330.4
			c0,17.1,13.9,31,31,31h171.1c17.1,0,31-13.9,31-31V136.7c0-17.1-13.9-31-31-31H1036.3z"/>
		<circle class="st3" cx="1122.2" cy="453.6" r="24.1"/>
		<g>
			<path class="st1" d="M1122.4,170c-47.4,0-85.9,38.5-85.9,85.9c0,47.4,38.5,85.9,85.9,85.9c47.4,0,85.9-38.5,85.9-85.9
				C1208.3,208.6,1169.8,170,1122.4,170z M1122.4,329.7c-40.7,0-73.7-33.1-73.7-73.7c0-40.7,33.1-73.7,73.7-73.7
				c40.7,0,73.7,33.1,73.7,73.7C1196.2,296.6,1163.1,329.7,1122.4,329.7z"/>
			
				<ellipse transform="matrix(0.8944 -0.4472 0.4472 0.8944 4.0278 528.9886)" class="st1" cx="1122.4" cy="256" rx="59.1" ry="59.1"/>
		</g>
	</g>
	<path class="st0" d="M1403.7,1517.7c-2.8,0-5.5-1.6-6.8-4.3c-1.7-3.8-0.1-8.2,3.7-10c3.6-1.7,7.2-3.4,10.7-5.1
		c3.7-1.8,8.2-0.3,10,3.5c1.8,3.7,0.2,8.2-3.5,10c-3.6,1.7-7.3,3.5-11,5.2C1405.9,1517.5,1404.8,1517.7,1403.7,1517.7z
		 M1433.3,1503.1c-2.7,0-5.3-1.5-6.6-4c-1.9-3.7-0.5-8.2,3.2-10.1c3.5-1.8,7-3.7,10.5-5.6c3.6-2,8.2-0.7,10.2,3
		c2,3.6,0.7,8.2-3,10.2c-3.5,1.9-7.1,3.8-10.7,5.7C1435.7,1502.8,1434.5,1503.1,1433.3,1503.1z M1462.2,1487.1
		c-2.6,0-5.1-1.3-6.5-3.7c-2.1-3.6-0.9-8.2,2.7-10.3c3.4-2,6.8-4,10.2-6.1c3.5-2.2,8.1-1.1,10.3,2.5c2.2,3.5,1.1,8.1-2.5,10.3
		c-3.5,2.1-7,4.2-10.4,6.2C1464.8,1486.7,1463.4,1487.1,1462.2,1487.1z M1490.2,1469.6c-2.4,0-4.8-1.2-6.3-3.4
		c-2.3-3.5-1.3-8.1,2.2-10.4c3.3-2.2,6.6-4.4,9.9-6.6c3.4-2.3,8.1-1.5,10.4,2c2.3,3.4,1.5,8.1-2,10.4c-3.3,2.3-6.7,4.5-10.1,6.7
		C1493,1469.2,1491.6,1469.6,1490.2,1469.6z M1517.3,1450.9c-2.3,0-4.6-1.1-6.1-3.1c-2.4-3.3-1.7-8,1.6-10.5
		c3.2-2.3,6.4-4.7,9.5-7.1c3.3-2.5,8-1.8,10.5,1.5c2.5,3.3,1.8,8-1.5,10.5c-3.2,2.4-6.5,4.8-9.7,7.2
		C1520.4,1450.4,1518.8,1450.9,1517.3,1450.9z M1543.5,1430.8c-2.2,0-4.4-1-5.8-2.8c-2.6-3.2-2.1-7.9,1.1-10.5
		c3.1-2.5,6.2-5,9.2-7.5c3.2-2.7,7.9-2.2,10.6,0.9c2.7,3.2,2.2,7.9-0.9,10.6c-3.1,2.6-6.2,5.2-9.4,7.7
		C1546.8,1430.2,1545.1,1430.8,1543.5,1430.8z M1568.6,1409.5c-2.1,0-4.1-0.8-5.6-2.5c-2.8-3.1-2.5-7.8,0.6-10.6
		c2.9-2.6,5.9-5.3,8.8-8c3-2.8,7.8-2.6,10.6,0.4c2.8,3,2.6,7.8-0.4,10.6c-3,2.7-6,5.5-9,8.2
		C1572.2,1408.8,1570.4,1409.5,1568.6,1409.5z M1592.7,1386.9c-1.9,0-3.9-0.8-5.4-2.2c-2.9-3-2.9-7.7,0.1-10.6
		c2.8-2.7,5.6-5.6,8.4-8.4c2.9-3,7.7-3,10.6-0.1s3,7.7,0.1,10.6c-2.8,2.9-5.7,5.8-8.6,8.6
		C1596.5,1386.2,1594.6,1386.9,1592.7,1386.9z M1615.7,1363.2c-1.8,0-3.6-0.7-5.1-2c-3-2.8-3.2-7.6-0.4-10.6c2.7-2.9,5.4-5.9,8-8.8
		c2.8-3.1,7.5-3.4,10.6-0.6c3.1,2.8,3.4,7.5,0.6,10.6c-2.7,3-5.4,6-8.2,9C1619.7,1362.4,1617.7,1363.2,1615.7,1363.2z
		 M1637.5,1338.4c-1.7,0-3.4-0.6-4.8-1.7c-3.2-2.7-3.6-7.4-0.9-10.6c2.5-3,5.1-6.1,7.5-9.2c2.6-3.2,7.3-3.7,10.5-1.1
		c3.2,2.6,3.7,7.3,1.1,10.5c-2.5,3.1-5.1,6.3-7.7,9.4C1641.7,1337.5,1639.6,1338.4,1637.5,1338.4z M1658,1312.6
		c-1.6,0-3.2-0.5-4.5-1.5c-3.3-2.5-4-7.2-1.5-10.5c2.4-3.1,4.7-6.3,7.1-9.5c2.4-3.3,7.1-4.1,10.5-1.6c3.3,2.4,4.1,7.1,1.6,10.5
		c-2.4,3.3-4.8,6.5-7.2,9.7C1662.5,1311.6,1660.3,1312.6,1658,1312.6z M1677.3,1285.8c-1.5,0-2.9-0.4-4.2-1.3c-3.4-2.3-4.3-7-2-10.4
		c2.2-3.3,4.5-6.6,6.6-9.9c2.3-3.5,6.9-4.4,10.4-2.2c3.5,2.3,4.4,6.9,2.2,10.4c-2.2,3.3-4.5,6.7-6.8,10.1
		C1682,1284.7,1679.7,1285.8,1677.3,1285.8z M1695.2,1258.1c-1.3,0-2.7-0.4-3.9-1.1c-3.5-2.2-4.6-6.8-2.5-10.3
		c2.1-3.4,4.1-6.8,6.1-10.2c2.1-3.6,6.7-4.8,10.3-2.7c3.6,2.1,4.8,6.7,2.7,10.3c-2,3.5-4.1,7-6.3,10.4
		C1700.2,1256.8,1697.7,1258.1,1695.2,1258.1z M1455.4,1527.8c0.1,1,0,2.1-0.3,3.2c-1.2,4-5.5,6.1-9.4,4.9l-58.9-18.6l30.6-61.1
		c1.9-3.7,6.4-5.2,10.1-3.3c3.7,1.9,5.2,6.4,3.3,10.1l-22.7,45.3l42.1,13.3C1453.1,1522.5,1455.1,1525,1455.4,1527.8z"/>
	<g>
		<path class="st1" d="M585.2,776.9c-4.1,0-7.5,3.4-7.5,7.5v1.7c0,4.1,0,84,0,84c0,34-11,61.2-32.8,80.7
			c-26.7,23.9-65.2,32.5-92.8,35.5c-30.5,3.3-54.8,0.7-55,0.7c-4.1-0.5-7.8,2.5-8.3,6.6c-0.5,4.1,2.5,7.8,6.6,8.3
			c0.6,0.1,10.3,1.1,25,1.1c9.3,0,20.6-0.4,32.9-1.7c42.9-4.6,78-18.1,101.6-39.2c25.1-22.5,37.8-53.4,37.8-91.9v-85.7
			C592.7,780.3,589.3,776.9,585.2,776.9z"/>
		<path class="st1" d="M564.2,854.9c4.1,0,7.5-3.4,7.5-7.5v-84c0-4.1-3.4-7.5-7.5-7.5s-7.5,3.4-7.5,7.5v84
			C556.7,851.6,560,854.9,564.2,854.9z"/>
		<path class="st1" d="M543.2,854.9c4.1,0,7.5-3.4,7.5-7.5v-84c0-4.1-3.4-7.5-7.5-7.5s-7.5,3.4-7.5,7.5v84
			C535.7,851.6,539,854.9,543.2,854.9z"/>
		<path class="st1" d="M501.2,854.9c4.1,0,7.5-3.4,7.5-7.5v-42c0-4.1-3.4-7.5-7.5-7.5s-7.5,3.4-7.5,7.5v42
			C493.7,851.6,497,854.9,501.2,854.9z"/>
		<path class="st1" d="M522.2,854.9c4.1,0,7.5-3.4,7.5-7.5v-84c0-4.1-3.4-7.5-7.5-7.5s-7.5,3.4-7.5,7.5v84
			C514.7,851.6,518,854.9,522.2,854.9z"/>
	</g>
	<path class="st1" d="M278.2,964.7c-13.5,0-26.5-5.7-37.1-17c-2.6-2.7-2.5-7.1,0.3-9.7c2.7-2.6,7.1-2.5,9.7,0.3
		c16,16.9,37.2,17.1,56.8,0.4c2.9-2.4,7.2-2.1,9.6,0.8c2.4,2.9,2.1,7.2-0.8,9.6C304.4,959.5,291.1,964.7,278.2,964.7z"/>
</g>
<g id="Layer_2">
</g>
</svg>
