<?xml version="1.0" encoding="utf-8"?>
<!-- Generator: Adobe Illustrator 25.2.3, SVG Export Plug-In . SVG Version: 6.00 Build 0)  -->
<svg version="1.1" xmlns="http://www.w3.org/2000/svg" xmlns:xlink="http://www.w3.org/1999/xlink" x="0px" y="0px"
	 viewBox="0 0 2200 1800" style="enable-background:new 0 0 2200 1800;" xml:space="preserve">
<style type="text/css">
	.st0{fill:#E34D99;}
	.st1{fill:#76BF60;}
	.st2{fill:#EC8231;}
	.st3{fill:#489B91;}
	.st4{fill:none;stroke:#442856;stroke-linecap:round;stroke-miterlimit:10;}
	.st5{fill:#BEA3CC;}
	.st6{fill:#442856;}
	.st7{fill:#D695C0;}
	.st8{fill:#785089;}
	.st9{fill:none;stroke:#442856;stroke-width:15;stroke-miterlimit:10;}
	.st10{fill:none;stroke:#BEA3CC;stroke-width:15;stroke-linecap:round;stroke-miterlimit:10;stroke-dasharray:12,21;}
	.st11{clip-path:url(#SVGID_2_);}
	.st12{fill:none;stroke:#D695C0;stroke-width:16;stroke-miterlimit:10;}
	.st13{fill:none;stroke:#785089;stroke-width:15;stroke-linecap:round;stroke-miterlimit:10;}
	.st14{fill:#C7E2C0;}
	.st15{fill:#9BD2CA;}
	.st16{fill:#FBC089;}
	.st17{fill:#E9A6C9;}
	.st18{fill:#F0CEE2;}
	.st19{fill:none;stroke:#442856;stroke-width:15;stroke-linecap:round;stroke-miterlimit:10;}
</style>
<g id="Layer_1">
	<g>
		<g>
			<rect x="994.5" y="575.2" class="st5" width="11.8" height="104.3"/>
			<rect x="1027.6" y="576.5" class="st5" width="11.8" height="104.3"/>
			<rect x="1060.7" y="573.8" class="st5" width="11.8" height="104.3"/>
			<polygon class="st5" points="1093.8,573.8 1093.8,676.8 1093.8,678.1 1105.6,678.1 1105.6,676.8 1105.6,573.8 1105.6,572.5 
				1093.8,572.5 			"/>
			<polygon class="st5" points="1126.9,573.8 1126.9,676.8 1126.9,678.1 1138.8,678.1 1138.8,676.8 1138.8,573.8 1138.8,572.5 
				1126.9,572.5 			"/>
			<rect x="1160" y="573.8" class="st5" width="11.8" height="104.3"/>
			<rect x="1193.2" y="573.8" class="st5" width="11.8" height="104.3"/>
		</g>
		<path class="st6" d="M1311,1231.4H889c-21.9,0-39.8-17.8-39.8-39.8V786.5c0-21.9,17.8-39.8,39.8-39.8h422
			c21.9,0,39.8,17.8,39.8,39.8v405.1C1350.8,1213.5,1332.9,1231.4,1311,1231.4z M889,758.8c-15.3,0-27.7,12.4-27.7,27.7v405.1
			c0,15.3,12.4,27.7,27.7,27.7h422c15.3,0,27.7-12.4,27.7-27.7V786.5c0-15.3-12.4-27.7-27.7-27.7H889z"/>
		<rect x="855.3" y="983" class="st6" width="489.5" height="12.1"/>
		<rect x="1094" y="683.8" class="st6" width="12.1" height="541.5"/>
		<path class="st6" d="M1217.1,687.5H982.9V568.6h234.1V687.5z M995,675.4h210v-94.8H995V675.4z"/>
		<path class="st0" d="M1052.1,853.8h-49.7v-6.6c6.6-6.4,10.6-15.4,10.6-25.3c0-19.6-15.9-35.5-35.5-35.5S942,802.3,942,821.9
			c0,9.9,4.1,18.9,10.6,25.3v6.6H903c-3.9,0-7.1,3.2-7.1,7.1v35.5c0,3.9,3.2,7.1,7.1,7.1h21.3c0,29.4,23.8,53.2,53.2,53.2
			s53.2-23.8,53.2-53.2h21.3c3.9,0,7.1-3.2,7.1-7.1v-35.5C1059.2,857,1056,853.8,1052.1,853.8z M977.5,939
			c-19.6,0-35.5-15.9-35.5-35.5h71C1013,923.1,997.1,939,977.5,939z"/>
		<g>
			<path class="st2" d="M1225.6,1023.7l8.9,18c0.6,1.2,1.8,2.1,3.1,2.2l19.9,2.9c3.4,0.5,4.7,4.6,2.3,7l-14.4,14
				c-1,0.9-1.4,2.3-1.2,3.6l3.4,19.7c0.6,3.4-3,5.9-6,4.3l-17.8-9.3c-1.2-0.6-2.6-0.6-3.8,0l-17.8,9.3c-3,1.6-6.5-1-6-4.3l3.4-19.7
				c0.2-1.3-0.2-2.7-1.2-3.6l-14.4-14c-2.4-2.4-1.1-6.5,2.3-7l19.9-2.9c1.3-0.2,2.5-1,3.1-2.2l8.9-18
				C1219.8,1020.7,1224.1,1020.7,1225.6,1023.7z"/>
			<path class="st2" d="M1136.7,1103.1v60.3c0,3.9,3.2,7.1,7.1,7.1h42.1l-0.2,0.3c-13.6,2.7-13.5,21-13.5,21h3.2h92.9h3.2
				c0,0,0-18.2-13.5-21l-0.2-0.3h42.1c3.9,0,7.1-3.2,7.1-7.1v-60.3H1136.7z"/>
		</g>
		<g>
			<path class="st1" d="M1220.2,797h-3.5c-3.9,0-7.1,3.2-7.1,7.1v28.4h-10.6v-39c0-3.9-3.2-7.1-7.1-7.1h-3.5c-3.9,0-7.1,3.2-7.1,7.1
				v39h-10.6v-28.4c0-3.9-3.2-7.1-7.1-7.1h-3.5c-3.9,0-7.1,3.2-7.1,7.1v28.4v10.6c0,3.9,3.2,7.1,7.1,7.1h3.5h17.7v99.4
				c0,3.9,3.2,7.1,7.1,7.1h3.5c3.9,0,7.1-3.2,7.1-7.1v-99.4h17.7h3.5c3.9,0,7.1-3.2,7.1-7.1v-10.6v-28.4
				C1227.3,800.2,1224.1,797,1220.2,797z"/>
			<path class="st1" d="M1284.1,786.4h-3.5c-26.4,0-33.4,60.6-35,81.6h-0.5v7.1h28.4v74.5c0,3.9,3.2,7.1,7.1,7.1h3.5
				c3.9,0,7.1-3.2,7.1-7.1V793.5C1291.2,789.6,1288,786.4,1284.1,786.4z"/>
		</g>
		<g>
			<circle class="st3" cx="936.7" cy="1051.6" r="16"/>
			<circle class="st3" cx="1041.4" cy="1042.7" r="21.3"/>
			<ellipse class="st3" cx="919.8" cy="1164.4" rx="27.5" ry="27.4"/>
			<circle class="st3" cx="1002.4" cy="1092.5" r="17.7"/>
			<g>
				<path class="st3" d="M1052.1,1081.8h-27.2c1.5,3.2,2.4,6.8,2.4,10.6c0,13.7-11.1,24.8-24.8,24.8c-13.7,0-24.8-11.1-24.8-24.8
					c0-3.8,0.9-7.4,2.4-10.6H903c-3.9,0-7.1,3.2-7.1,7.1v50.6c6.2-6,14.6-9.6,23.9-9.6c19.1,0,34.6,15.5,34.6,34.6
					c0,6.1-1.6,11.8-4.4,16.8h102.1c3.9,0,7.1-3.2,7.1-7.1v-85.2C1059.2,1085,1056,1081.8,1052.1,1081.8z"/>
				<path class="st3" d="M984.6,1092.5c0,9.8,8,17.7,17.7,17.7c9.8,0,17.7-8,17.7-17.7c0-4-1.3-7.7-3.6-10.6h-28.4
					C986,1084.8,984.6,1088.5,984.6,1092.5z"/>
			</g>
		</g>
	</g>
	<g>
		<g>
			<g>
				<path class="st7" d="M348.6,516.3c-70.3,0-127.5,57.2-127.5,127.5c0,70.3,57.2,127.5,127.5,127.5s127.5-57.2,127.5-127.5
					C476.1,573.5,418.9,516.3,348.6,516.3z M348.6,757.8c-62.8,0-114-51.1-114-114s51.1-114,114-114s114,51.1,114,114
					S411.5,757.8,348.6,757.8z"/>
				<path class="st7" d="M412.4,619.8l-35.1-5.3c-2.4-0.4-4.4-1.9-5.5-4.2l-15.7-33.2c-2.7-5.7-10.4-5.7-13,0l-15.7,33.2
					c-1.1,2.2-3.1,3.8-5.5,4.2l-35.1,5.3c-6,0.9-8.3,8.6-4,13l25.4,25.9c1.7,1.7,2.5,4.3,2.1,6.7l-6,36.5c-1,6.2,5.2,10.9,10.5,8
					l31.4-17.3c2.1-1.2,4.6-1.2,6.8,0l31.4,17.3c5.3,2.9,11.6-1.8,10.5-8l-6-36.5c-0.4-2.5,0.4-5,2.1-6.7l25.4-25.9
					C420.7,628.4,418.3,620.7,412.4,619.8z"/>
			</g>
			<g>
				<path class="st13" d="M384.3,679c0,0-14.6-12,58.5,48.1c101.2,83.1,171.3-30.7,99.7-92.6"/>
				<line class="st13" x1="439" y1="699.4" x2="380.5" y2="651.4"/>
				<line class="st13" x1="451" y1="684.8" x2="392.5" y2="636.7"/>
				<line class="st13" x1="475" y1="655.5" x2="445.8" y2="631.5"/>
				<line class="st13" x1="463" y1="670.2" x2="404.5" y2="622.1"/>
			</g>
			<g>
				<path class="st13" d="M304.5,686.2c0,0,16-10.1-64.1,40.3c-110.8,69.7-166.1-52-87.3-104.4"/>
				<line class="st13" x1="247.7" y1="699.6" x2="311.8" y2="659.3"/>
				<line class="st13" x1="237.6" y1="683.6" x2="301.7" y2="643.2"/>
				<line class="st13" x1="217.5" y1="651.5" x2="249.5" y2="631.4"/>
				<line class="st13" x1="227.5" y1="667.6" x2="291.6" y2="627.2"/>
			</g>
			<g>
				<path class="st8" d="M235.8,395.2c0,61.3,49.9,111.2,111.2,111.2s111.2-49.9,111.2-111.2S408.3,284,347,284
					c-5.9,0-11.8,0.5-17.4,1.4c12.6-11.5,20.4-28.1,20.4-46.4c0-34.8-28.3-63.1-63.1-63.1s-63.1,28.3-63.1,63.1
					c0,34.6,28,62.8,62.6,63.1C255.9,321.9,235.8,356.2,235.8,395.2z M286.9,284c-24.9,0-45.1-20.2-45.1-45.1
					c0-24.9,20.2-45.1,45.1-45.1c24.9,0,45.1,20.2,45.1,45.1C332,263.8,311.7,284,286.9,284z M298.1,315.9
					c1.6,10.6,1.9,29.3-11.6,42.8c-11.7,11.7-23.2,17-31.1,19.4C260.3,351.9,276.2,329.5,298.1,315.9z M436.1,367.9
					c-25.2,2-61.3-7.9-86.3-24.5c-11.8-7.8-26.1-20.4-30.7-37.1c8.8-2.8,18.2-4.3,28-4.3C388.9,302.1,424.4,329.8,436.1,367.9z
					 M253.8,397.1c10.3-2.1,28-8.1,45.4-25.6c10.4-10.4,15.1-22.6,16.8-33.8c6.2,7.4,14.2,14.4,23.7,20.7
					c26.2,17.4,61,27.8,89.4,27.8c3.6,0,7.1-0.2,10.5-0.5c0.3,3.1,0.5,6.3,0.5,9.5c0,51.4-41.8,93.2-93.2,93.2
					C296.2,488.4,254.9,447.6,253.8,397.1z"/>
				<path class="st8" d="M356.6,401.8c-1.7-7.9,3.4-15.7,11.3-17.4c7.9-1.7,15.7,3.4,17.4,11.3c1.7,7.9-3.4,15.7-11.3,17.4
					C366.1,414.8,358.3,409.7,356.6,401.8z"/>
				<path class="st8" d="M311.1,385.9c7.9-1.7,15.7,3.4,17.4,11.3c1.7,7.9-3.4,15.7-11.3,17.4c-7.9,1.7-15.7-3.4-17.4-11.3
					C298.1,395.4,303.2,387.6,311.1,385.9z"/>
				<path class="st8" d="M316.1,430.7c2.9-0.6,5.8,1.3,6.3,4.3c0.3,1.5,3.6,14.2,21.1,13.8c18.8-0.5,22.5-12.3,22.7-12.9
					c0.8-2.9,3.7-4.6,6.6-3.8c2.9,0.7,4.6,3.7,3.9,6.6c-0.2,0.8-5.5,20.2-32.9,21c-0.4,0-0.8,0-1.2,0c-20.9,0-29.3-14.6-30.8-22.5
					C311.3,434.2,313.2,431.3,316.1,430.7z"/>
			</g>
		</g>
		<g>
			<path class="st6" d="M120.2,124.2l1.1,25.7H112l1.3-25.7H120.2z M119.5,114.2c0.8,0,1.2,0.4,1.2,1.1v5.6c0,0.8-0.4,1.2-1.2,1.2
				h-5.4c-0.8,0-1.2-0.4-1.2-1.2v-5.6c0-0.4,0.1-0.7,0.3-0.9c0.2-0.2,0.5-0.2,0.9-0.2H119.5z"/>
			<path class="st6" d="M123.5,140.2l10.6-35.7h11.6l10.6,35.7h-9.6l-1.4-5.7h-10.7l-1.4,5.7H123.5z M136.6,126.1h6.4l-3.2-13.7
				L136.6,126.1z"/>
			<path class="st6" d="M172.7,151.5v-13.7c-0.7,0.7-1.6,1.3-2.7,1.8c-1.1,0.5-2.1,0.8-3.1,0.8c-2.4,0-4.4-0.5-5.8-1.4
				c-1.4-0.9-2.4-2.3-3-4.3c-0.6-1.9-0.9-4.4-0.9-7.5c0-3.5,0.4-6.3,1.1-8.2c0.7-2,1.8-3.3,3.3-4.1s3.4-1.2,5.6-1.2
				c1.5,0,3.2,0.1,5,0.2c1.8,0.1,3.6,0.3,5.3,0.5c1.7,0.2,3.2,0.4,4.5,0.6v36.4H172.7z M169.7,133c0.4,0,0.9-0.1,1.6-0.3
				c0.7-0.2,1.1-0.4,1.4-0.6v-11.3h-2.4c-0.9,0-1.7,0.2-2.2,0.6c-0.6,0.4-1,1-1.2,1.9c-0.2,0.9-0.3,2.1-0.3,3.7c0,1.8,0.1,3.1,0.3,4
				c0.2,0.9,0.5,1.4,1,1.7C168.3,132.9,168.9,133,169.7,133z"/>
			<path class="st6" d="M193.2,140.4c-2.2,0-4-0.7-5.3-2.1c-1.3-1.4-1.9-3.3-1.9-5.6v-18.4h9.3v15.5c0,1,0.2,1.7,0.7,2
				c0.5,0.3,1.1,0.5,1.8,0.5c0.5,0,1.1-0.1,1.8-0.4s1.3-0.6,1.7-1.1v-16.5h9.3v25.9h-7.8l-1.5-2.5c-1.1,0.7-2.3,1.3-3.7,1.9
				C196.3,140.2,194.8,140.4,193.2,140.4z"/>
			<path class="st6" d="M214.9,140.2v-25.9h9.3v25.9H214.9z M217.2,109.9l3.3-6.9h7.4l-5.2,6.9H217.2z"/>
			<path class="st6" d="M246.7,140.2l-8-25.9h9.6l3.9,17.3l4.1-17.3h9.5l-8.4,25.9H246.7z"/>
			<path class="st6" d="M269.4,111c-0.8,0-1.2-0.4-1.2-1.1v-5.3c0-0.8,0.4-1.2,1.2-1.2h7.3c0.4,0,0.6,0.1,0.8,0.3
				c0.2,0.2,0.3,0.5,0.3,0.9v5.3c0,0.7-0.4,1.1-1.1,1.1H269.4z M268.4,140.2v-25.9h9.3v25.9H268.4z"/>
			<path class="st6" d="M293.5,140.4c-2.9,0-5.3-0.4-7.1-1.1c-1.8-0.7-3.1-2.1-3.9-4c-0.8-1.9-1.2-4.6-1.2-8c0-3.6,0.4-6.3,1.1-8.2
				c0.7-1.9,2-3.3,3.7-4.1s4.1-1.2,7-1.2c2.8,0,4.9,0.3,6.5,0.8c1.6,0.5,2.7,1.4,3.4,2.8c0.7,1.3,1,3.2,1,5.6c0,1.9-0.4,3.4-1.1,4.4
				c-0.7,1.1-1.8,1.8-3.1,2.3c-1.3,0.4-2.9,0.7-4.8,0.7h-4.6c0.1,0.8,0.3,1.4,0.6,1.8c0.3,0.5,0.8,0.8,1.6,1
				c0.8,0.2,1.9,0.3,3.4,0.3h7.1v5.4c-1.1,0.3-2.5,0.6-4,1C297.5,140.2,295.7,140.4,293.5,140.4z M290.4,125h3.7
				c0.6,0,1.1-0.1,1.4-0.4c0.3-0.3,0.4-0.8,0.4-1.5c0-0.6-0.1-1.1-0.3-1.5c-0.2-0.4-0.5-0.7-0.9-0.8c-0.4-0.2-1-0.3-1.6-0.3
				c-0.6,0-1.1,0.1-1.5,0.4c-0.4,0.3-0.7,0.7-0.9,1.4C290.5,122.9,290.4,123.8,290.4,125z"/>
			<path class="st6" d="M307.6,140.2v-25.9h7.8l1.5,2.5c0.8-0.7,1.9-1.4,3.2-2c1.3-0.6,2.7-0.9,4.1-0.9c2.2,0,3.9,0.4,5.1,1.3
				c1.2,0.8,1.9,2,2.4,3.5c0.4,1.5,0.6,3.1,0.6,4.9v16.7H323v-15.5c0-0.7-0.1-1.2-0.3-1.5c-0.2-0.4-0.5-0.6-0.9-0.7
				c-0.4-0.1-0.8-0.2-1.3-0.2c-0.4,0-0.8,0.1-1.3,0.2s-0.9,0.3-1.2,0.5c-0.4,0.2-0.7,0.5-1,0.8v16.5H307.6z"/>
			<path class="st6" d="M348,140.4c-2.9,0-5.3-0.4-7.1-1.1c-1.8-0.7-3.1-2.1-3.9-4c-0.8-1.9-1.2-4.6-1.2-8c0-3.6,0.4-6.3,1.1-8.2
				c0.7-1.9,2-3.3,3.7-4.1s4.1-1.2,7-1.2c2.8,0,4.9,0.3,6.5,0.8c1.6,0.5,2.7,1.4,3.4,2.8c0.7,1.3,1,3.2,1,5.6c0,1.9-0.4,3.4-1.1,4.4
				c-0.7,1.1-1.8,1.8-3.1,2.3c-1.3,0.4-2.9,0.7-4.8,0.7h-4.6c0.1,0.8,0.3,1.4,0.6,1.8c0.3,0.5,0.8,0.8,1.6,1
				c0.8,0.2,1.9,0.3,3.4,0.3h7.1v5.4c-1.1,0.3-2.5,0.6-4,1C352,140.2,350.1,140.4,348,140.4z M344.8,125h3.7c0.6,0,1.1-0.1,1.4-0.4
				c0.3-0.3,0.4-0.8,0.4-1.5c0-0.6-0.1-1.1-0.3-1.5c-0.2-0.4-0.5-0.7-0.9-0.8c-0.4-0.2-1-0.3-1.6-0.3c-0.6,0-1.1,0.1-1.5,0.4
				c-0.4,0.3-0.7,0.7-0.9,1.4C344.9,122.9,344.8,123.8,344.8,125z"/>
			<path class="st6" d="M383.1,140.3c-2,0-3.7-0.3-5.1-1c-1.3-0.6-2.3-1.6-3-2.9c-0.6-1.3-1-2.8-1-4.7v-28.2h9.3v26.8
				c0,0.6,0.1,1.1,0.2,1.5c0.1,0.4,0.4,0.7,0.7,1c0.3,0.2,0.7,0.4,1.2,0.5l1.6,0.2v6.8H383.1z"/>
			<path class="st6" d="M395.5,140.4c-2,0-3.6-0.6-4.8-1.8c-1.2-1.2-1.8-2.8-1.8-4.8v-2.6c0-1.9,0.7-3.5,2.1-4.8
				c1.4-1.3,3.6-1.9,6.7-1.9h5.2v-0.8c0-0.6-0.1-1.1-0.3-1.5c-0.2-0.4-0.7-0.6-1.4-0.8s-1.8-0.2-3.2-0.2h-7.5v-5.3
				c1.3-0.5,2.9-1,4.6-1.3c1.7-0.4,3.9-0.5,6.4-0.5c2.2,0,4.1,0.2,5.7,0.7c1.6,0.5,2.9,1.4,3.7,2.7s1.3,3.2,1.3,5.6v17.1h-7.4
				l-1.4-2.6c-0.3,0.3-0.7,0.6-1.2,1c-0.5,0.3-1,0.6-1.7,0.9c-0.6,0.3-1.4,0.5-2.2,0.7C397.5,140.4,396.6,140.4,395.5,140.4z
				 M400.4,134.1c0.2,0,0.3,0,0.5,0c0.2,0,0.4-0.1,0.6-0.1c0.2,0,0.4-0.1,0.6-0.1c0.2,0,0.3-0.1,0.5-0.2c0.1-0.1,0.2-0.1,0.3-0.1
				v-4.7l-2,0.3c-0.9,0.1-1.6,0.4-2,0.7c-0.5,0.3-0.7,0.9-0.7,1.6v1c0,0.4,0.1,0.8,0.3,1c0.2,0.3,0.4,0.5,0.8,0.6
				C399.5,134,400,134.1,400.4,134.1z"/>
			<path class="st6" d="M434.1,140.4c-2,0-3.6-0.6-4.8-1.8c-1.2-1.2-1.8-2.8-1.8-4.8v-2.6c0-1.9,0.7-3.5,2.1-4.8
				c1.4-1.3,3.6-1.9,6.7-1.9h5.2v-0.8c0-0.6-0.1-1.1-0.3-1.5c-0.2-0.4-0.7-0.6-1.4-0.8s-1.8-0.2-3.2-0.2H429v-5.3
				c1.3-0.5,2.9-1,4.6-1.3c1.7-0.4,3.9-0.5,6.4-0.5c2.2,0,4.1,0.2,5.7,0.7c1.6,0.5,2.9,1.4,3.7,2.7s1.3,3.2,1.3,5.6v17.1h-7.4
				l-1.4-2.6c-0.3,0.3-0.7,0.6-1.2,1c-0.5,0.3-1,0.6-1.7,0.9c-0.6,0.3-1.4,0.5-2.2,0.7C436.1,140.4,435.1,140.4,434.1,140.4z
				 M439,134.1c0.2,0,0.3,0,0.5,0c0.2,0,0.4-0.1,0.6-0.1c0.2,0,0.4-0.1,0.6-0.1c0.2,0,0.3-0.1,0.5-0.2c0.1-0.1,0.2-0.1,0.3-0.1v-4.7
				l-2,0.3c-0.9,0.1-1.6,0.4-2,0.7c-0.5,0.3-0.7,0.9-0.7,1.6v1c0,0.4,0.1,0.8,0.3,1c0.2,0.3,0.4,0.5,0.8,0.6
				C438.1,134,438.5,134.1,439,134.1z"/>
			<path class="st6" d="M463.7,151.5l2.5-11.4c-1.9,0-3.4-0.3-4.6-1c-1.2-0.7-2.2-1.5-2.9-2.7c-0.7-1.1-1.2-2.4-1.5-3.8l-4-18.4h9.6
				l2.9,16.5c0.1,0.4,0.2,0.7,0.3,0.9c0.1,0.2,0.3,0.4,0.5,0.6c0.2,0.1,0.4,0.2,0.6,0.3c0.2,0.1,0.4,0.1,0.6,0.1l3.3-18.4h9.5
				l-6.6,32.5l-2.4,4.8H463.7z"/>
			<path class="st6" d="M490.2,140.4c-2.2,0-4-0.7-5.3-2.1c-1.3-1.4-1.9-3.3-1.9-5.6v-18.4h9.3v15.5c0,1,0.2,1.7,0.7,2
				c0.5,0.3,1.1,0.5,1.8,0.5c0.5,0,1.1-0.1,1.8-0.4s1.3-0.6,1.7-1.1v-16.5h9.3v25.9h-7.8l-1.5-2.5c-1.1,0.7-2.3,1.3-3.7,1.9
				C493.2,140.2,491.8,140.4,490.2,140.4z"/>
			<path class="st6" d="M520.4,140.4c-2,0-3.6-0.4-5-1.2c-1.4-0.8-2.4-2.2-3.1-4.1c-0.7-1.9-1.1-4.4-1.1-7.6c0-3.2,0.3-5.8,0.8-7.8
				c0.6-2,1.5-3.5,3-4.4c1.4-1,3.4-1.4,5.9-1.4c1,0,2,0.1,3,0.3c1,0.2,1.9,0.4,2.7,0.7v-11.3h9.3v36.6h-7.9l-1.4-2.4
				c-0.6,0.5-1.2,1-1.9,1.4c-0.7,0.4-1.4,0.7-2.1,0.9C522,140.3,521.2,140.4,520.4,140.4z M523.8,133c0.6,0,1.2-0.1,1.7-0.3
				c0.5-0.2,0.9-0.4,1.1-0.6v-10.5c-0.3-0.2-0.7-0.3-1.2-0.5s-1-0.3-1.4-0.3c-0.9,0-1.6,0.1-2.1,0.4c-0.5,0.3-0.9,0.9-1.1,1.8
				c-0.2,0.9-0.3,2.3-0.3,4.1c0,1.8,0.1,3.1,0.3,3.9c0.2,0.8,0.6,1.4,1.1,1.7C522.4,132.9,523,133,523.8,133z"/>
			<path class="st6" d="M545.9,140.4c-2,0-3.6-0.6-4.8-1.8c-1.2-1.2-1.8-2.8-1.8-4.8v-2.6c0-1.9,0.7-3.5,2.1-4.8
				c1.4-1.3,3.6-1.9,6.7-1.9h5.2v-0.8c0-0.6-0.1-1.1-0.3-1.5c-0.2-0.4-0.7-0.6-1.4-0.8s-1.8-0.2-3.2-0.2h-7.5v-5.3
				c1.3-0.5,2.9-1,4.6-1.3c1.7-0.4,3.9-0.5,6.4-0.5c2.2,0,4.1,0.2,5.7,0.7c1.6,0.5,2.9,1.4,3.7,2.7s1.3,3.2,1.3,5.6v17.1h-7.4
				l-1.4-2.6c-0.3,0.3-0.7,0.6-1.2,1c-0.5,0.3-1,0.6-1.7,0.9c-0.6,0.3-1.4,0.5-2.2,0.7C547.9,140.4,546.9,140.4,545.9,140.4z
				 M550.8,134.1c0.2,0,0.3,0,0.5,0c0.2,0,0.4-0.1,0.6-0.1c0.2,0,0.4-0.1,0.6-0.1c0.2,0,0.3-0.1,0.5-0.2c0.1-0.1,0.2-0.1,0.3-0.1
				v-4.7l-2,0.3c-0.9,0.1-1.6,0.4-2,0.7c-0.5,0.3-0.7,0.9-0.7,1.6v1c0,0.4,0.1,0.8,0.3,1c0.2,0.3,0.4,0.5,0.8,0.6
				C549.9,134,550.3,134.1,550.8,134.1z"/>
			<path class="st6" d="M567.7,130.3l-1.1-25.7h9.3l-1.3,25.7H567.7z M568.3,140.2c-0.8,0-1.2-0.4-1.2-1.1v-5.6
				c0-0.8,0.4-1.2,1.2-1.2h5.4c0.8,0,1.2,0.4,1.2,1.2v5.6c0,0.4-0.1,0.7-0.3,0.9c-0.2,0.2-0.5,0.2-0.9,0.2H568.3z"/>
		</g>
	</g>
	<g>
		<g>
			<g>
				<path class="st7" d="M1885.8,1325.8c-70.3,0-127.5,57.2-127.5,127.5c0,70.3,57.2,127.5,127.5,127.5
					c70.3,0,127.5-57.2,127.5-127.5C2013.3,1383,1956.1,1325.8,1885.8,1325.8z M1885.8,1567.3c-62.8,0-114-51.1-114-114
					c0-62.8,51.1-114,114-114s114,51.1,114,114C1999.8,1516.2,1948.7,1567.3,1885.8,1567.3z"/>
				<path class="st7" d="M1949.6,1429.3l-35.1-5.3c-2.4-0.4-4.4-1.9-5.5-4.2l-15.7-33.2c-2.7-5.7-10.4-5.7-13,0l-15.7,33.2
					c-1.1,2.2-3.1,3.8-5.5,4.2l-35.1,5.3c-6,0.9-8.3,8.6-4,13l25.4,25.9c1.7,1.7,2.5,4.3,2.1,6.7l-6,36.5c-1,6.2,5.2,10.9,10.5,8
					l31.4-17.3c2.1-1.2,4.6-1.2,6.8,0l31.4,17.3c5.3,2.9,11.6-1.8,10.5-8l-6-36.5c-0.4-2.5,0.4-5,2.1-6.7l25.4-25.9
					C1957.9,1437.9,1955.6,1430.2,1949.6,1429.3z"/>
			</g>
			<g>
				<path class="st8" d="M2010.6,1149.3c4-25.9-13-50.9-39-56.4c-5-1.1-10.1-1.3-15.2-0.9c-5.2-17.2-19.3-30.5-37.4-34.3
					c-7.1-1.5-14.4-1.5-21.3,0.1c-7.1-11.3-19.4-18.7-33-19.7c-17.5-1.2-33.3,8.3-40.7,23.4c-27.6-7.1-55.2,10.5-61.1,38
					c-0.6,3-2,6.4-3.1,8.5c-31.8-4.5-62.2,16.4-69,48.3c-2.3,10.9,0.9,24.6,4.9,36.8c-15,2.5-27.7,14-31,29.7
					c-4.4,20.6,8.8,40.9,29.4,45.3c10.1,2.2,20.5,0.1,28.8-5.5c7.1,9,17.1,15.3,28.6,17.7c13,2.8,26.4,0.2,37.3-6.8
					c15.2,19.9,37.3,34.7,63.7,40.3c54.1,11.5,107.5-19.6,125.2-70.5c3,1.3,6.1,2.3,9.3,3c26.9,5.7,53.5-11.5,59.2-38.5
					C2051.9,1181.8,2036,1156.2,2010.6,1149.3z M1964.3,1226.4c0,0.1-0.1,0.2-0.1,0.3l0,0c-0.1,0.4-0.2,0.8-0.3,1.3l-0.8,3.4
					c-12.6,46.2-59.3,75.2-106.8,65.1c-49.1-10.4-80.6-58.9-70.2-108c10.4-49.1,58.9-80.6,108-70.2
					C1943.3,1128.9,1974.7,1177.3,1964.3,1226.4z M2029.1,1204.2c-3.7,17.4-20.9,28.6-38.3,24.9c-3-0.6-5.8-1.7-8.4-3.1
					c9.9-57.2-27.3-112.6-84.5-124.8c-58.6-12.4-116.4,25.1-128.9,83.7c-5.5,26.1-1.2,52,10.5,73.8c-7.1,4.5-15.7,6.2-24.1,4.4
					c-9.9-2.1-18.1-8.6-22.4-17.8l-6-12.7l-8.8,10.9c-4.9,6.1-12.7,8.9-20.2,7.3c-11.1-2.4-18.2-13.3-15.8-24.4
					c2.4-11.1,13.3-18.2,24.4-15.8l5.1,1.1l3.4-4c3.5-4.1,2-8,0.4-12.2c-2.3-6.2-9.4-25.2-7.2-35.6c5-23.8,28.5-39,52.3-33.9
					c14.2,3,19.6-21.8,19.9-22.8c3.7-17.4,20.9-28.6,38.3-24.9c2.3,0.5,4.7,1.3,7,2.4l9.9,4.6l2.5-10.6
					c2.7-11.9,13.5-19.9,25.6-19.1c9.6,0.6,18,6.9,21.4,15.8l3.2,8.4l8.3-3.4c6-2.4,12.5-3,18.8-1.7c13.8,2.9,24,14.3,25.4,28.3
					l1.1,10.6l10.2-3c5.1-1.5,10.6-1.7,15.9-0.6c17.4,3.7,28.6,20.9,24.9,38.3c-1.5,6.8,4.5,16,11.3,17.4
					C2021.6,1169.6,2032.8,1186.7,2029.1,1204.2z"/>
				
					<ellipse transform="matrix(0.9958 -9.180750e-02 9.180750e-02 0.9958 -101.7836 174.7941)" class="st8" cx="1849" cy="1193.7" rx="14.7" ry="14.7"/>
				
					<ellipse transform="matrix(0.895 -0.446 0.446 0.895 -333.0584 975.5729)" class="st8" cx="1905.8" cy="1195.3" rx="14.7" ry="14.7"/>
				<path class="st8" d="M1903.8,1225.7c-2.9-0.6-5.8,1.3-6.3,4.3c-0.3,1.5-3.5,14.2-21.1,13.8c-18.8-0.5-22.5-12.3-22.7-12.9
					c-0.8-2.9-3.7-4.6-6.6-3.8c-2.9,0.7-4.6,3.7-3.9,6.6c0.2,0.8,5.5,20.2,32.9,21c0.4,0,0.8,0,1.2,0c20.9,0,29.3-14.6,30.8-22.5
					C1908.7,1229.1,1906.8,1226.3,1903.8,1225.7z"/>
			</g>
			<g>
				<path class="st13" d="M1921.5,1488.5c0,0-14.6-12,58.5,48.1c101.2,83.1,171.3-30.7,99.7-92.6"/>
				<line class="st13" x1="1976.2" y1="1508.9" x2="1917.7" y2="1460.9"/>
				<line class="st13" x1="1988.2" y1="1494.3" x2="1929.7" y2="1446.2"/>
				<line class="st13" x1="2012.2" y1="1465" x2="1983" y2="1441"/>
				<line class="st13" x1="2000.2" y1="1479.7" x2="1941.7" y2="1431.6"/>
			</g>
			<g>
				<path class="st13" d="M1841.8,1495.7c0,0,16-10.1-64.1,40.3c-110.8,69.7-166.1-52-87.3-104.4"/>
				<line class="st13" x1="1784.9" y1="1509.1" x2="1849" y2="1468.8"/>
				<line class="st13" x1="1774.8" y1="1493.1" x2="1838.9" y2="1452.8"/>
				<line class="st13" x1="1754.7" y1="1461" x2="1786.7" y2="1440.9"/>
				<line class="st13" x1="1764.8" y1="1477.1" x2="1828.8" y2="1436.7"/>
			</g>
		</g>
		<g>
			<path class="st6" d="M1703.1,1680.4l1.1,25.7h-9.3l1.3-25.7H1703.1z M1702.4,1670.4c0.8,0,1.2,0.4,1.2,1.1v5.6
				c0,0.8-0.4,1.2-1.2,1.2h-5.4c-0.8,0-1.2-0.4-1.2-1.2v-5.6c0-0.4,0.1-0.7,0.3-0.9s0.5-0.2,0.9-0.2H1702.4z"/>
			<path class="st6" d="M1707.8,1696.4l4.2-35.7h8.7l7.3,25.1l7.3-25.1h8.6l4.3,35.7h-9l-2.7-22.9l1.3,0l-5.6,22.9h-8.7l-5.7-22.9
				l1.5,0l-2.7,22.9H1707.8z"/>
			<path class="st6" d="M1758.8,1696.7c-2.2,0-4-0.7-5.3-2.1s-1.9-3.3-1.9-5.6v-18.4h9.3v15.5c0,1,0.2,1.7,0.7,2
				c0.5,0.3,1.1,0.5,1.8,0.5c0.5,0,1.1-0.1,1.8-0.4s1.3-0.6,1.7-1.1v-16.5h9.3v25.9h-7.8l-1.5-2.5c-1.1,0.7-2.3,1.3-3.7,1.9
				C1761.9,1696.4,1760.4,1696.7,1758.8,1696.7z"/>
			<path class="st6" d="M1791,1696.7c-1.6,0-3.1-0.2-4.5-0.6c-1.4-0.4-2.6-1.1-3.6-2.1c-1-1-1.8-2.3-2.3-4s-0.8-3.8-0.8-6.3
				c0-2.6,0.2-4.8,0.7-6.6s1.2-3.1,2.2-4.2c1-1,2.2-1.8,3.6-2.2c1.4-0.4,3.1-0.6,4.9-0.6c1.7,0,3.3,0.1,4.7,0.3
				c1.4,0.2,2.9,0.6,4.6,1.2v5.3h-6.3c-1.4,0-2.4,0.2-3.2,0.6c-0.8,0.4-1.3,1-1.6,2c-0.3,0.9-0.4,2.3-0.4,4.1c0,1.8,0.1,3.1,0.4,4
				c0.3,0.9,0.8,1.5,1.5,1.8c0.8,0.3,1.9,0.4,3.3,0.4h6.5v5.2c-0.8,0.3-1.8,0.6-2.9,0.9c-1.1,0.3-2.3,0.5-3.5,0.6
				C1793.3,1696.6,1792.2,1696.7,1791,1696.7z"/>
			<path class="st6" d="M1804,1696.4v-36.6h9.3v13.2c0.7-0.7,1.8-1.4,3.2-2c1.4-0.6,2.8-0.9,4.2-0.9c2,0,3.6,0.4,4.8,1.2
				c1.2,0.8,2,1.9,2.4,3.3c0.5,1.4,0.7,3.1,0.7,5.1v16.8h-9.3v-15.6c0-0.6-0.1-1.1-0.4-1.5c-0.2-0.4-0.6-0.6-0.9-0.7
				s-0.8-0.2-1.2-0.2c-0.4,0-0.8,0.1-1.3,0.2c-0.4,0.1-0.9,0.3-1.2,0.6s-0.7,0.5-1,0.7v16.5H1804z"/>
			<path class="st6" d="M1838.6,1696.7c-2,0-3.6-0.6-4.8-1.8c-1.2-1.2-1.8-2.8-1.8-4.8v-2.6c0-1.9,0.7-3.5,2.1-4.8
				c1.4-1.3,3.6-1.9,6.7-1.9h5.2v-0.8c0-0.6-0.1-1.1-0.3-1.5c-0.2-0.4-0.7-0.6-1.4-0.8c-0.7-0.1-1.8-0.2-3.2-0.2h-7.5v-5.3
				c1.3-0.5,2.9-1,4.6-1.3c1.7-0.4,3.9-0.5,6.4-0.5c2.2,0,4.1,0.2,5.7,0.7c1.6,0.5,2.9,1.4,3.7,2.7s1.3,3.2,1.3,5.6v17.1h-7.4
				l-1.4-2.6c-0.3,0.3-0.7,0.6-1.2,1c-0.5,0.3-1,0.6-1.7,0.9c-0.6,0.3-1.4,0.5-2.2,0.7C1840.6,1696.6,1839.7,1696.7,1838.6,1696.7z
				 M1843.5,1690.3c0.2,0,0.3,0,0.5,0c0.2,0,0.4-0.1,0.6-0.1s0.4-0.1,0.6-0.1c0.2,0,0.3-0.1,0.5-0.2s0.2-0.1,0.3-0.1v-4.7l-2,0.3
				c-0.9,0.1-1.6,0.4-2,0.7s-0.7,0.9-0.7,1.6v1c0,0.4,0.1,0.8,0.3,1c0.2,0.3,0.4,0.5,0.8,0.6
				C1842.7,1690.3,1843.1,1690.3,1843.5,1690.3z"/>
			<path class="st6" d="M1869.2,1696.7c-0.9,0-1.9,0-2.8-0.1c-0.9-0.1-1.8-0.2-2.7-0.3c-0.9-0.1-1.7-0.3-2.5-0.5
				c-0.8-0.2-1.5-0.4-2.1-0.7v-5.4h12c0.4,0,0.7,0,0.9-0.1c0.2-0.1,0.3-0.2,0.4-0.3c0.1-0.1,0.1-0.3,0.1-0.5v-0.6
				c0-0.3-0.1-0.6-0.3-0.7c-0.2-0.2-0.7-0.3-1.5-0.3h-4.3c-1.4,0-2.8-0.2-4-0.7c-1.2-0.5-2.2-1.3-2.9-2.4c-0.7-1.1-1.1-2.5-1.1-4.4
				v-1.6c0-1.7,0.3-3.1,1-4.2c0.6-1.2,1.8-2.1,3.4-2.7s3.9-0.9,6.9-0.9c1.2,0,2.4,0.1,3.6,0.2c1.2,0.1,2.3,0.3,3.4,0.6
				c1,0.2,1.8,0.5,2.4,0.7v5.4h-11.4c-0.5,0-0.8,0.1-1.1,0.2c-0.2,0.1-0.3,0.4-0.3,0.7v0.6c0,0.3,0.1,0.5,0.2,0.6
				c0.1,0.1,0.3,0.2,0.6,0.3c0.3,0.1,0.7,0.1,1.2,0.1h4.5c2.8,0,4.8,0.6,5.9,1.9c1.1,1.3,1.7,3,1.7,5.2v2.6c0,1.7-0.4,3.1-1.2,4.2
				c-0.8,1.1-2.1,1.8-3.7,2.3C1873.8,1696.4,1871.7,1696.7,1869.2,1696.7z"/>
			<path class="st6" d="M1902.7,1708.4c-1.6,0-3-0.2-4.3-0.7c-1.3-0.5-2.3-1.2-3-2.1c-0.8-0.9-1.1-2-1.1-3.3v-0.5
				c0-1.3,0.4-2.4,1.2-3.4c0.8-1,1.8-1.7,3-2.2s2.6-0.8,4-0.8l2.9,2.7c-0.5,0-1,0.1-1.3,0.2c-0.4,0.2-0.6,0.4-0.8,0.6
				c-0.2,0.3-0.2,0.6-0.2,0.9v0.2c0,0.5,0.2,1,0.6,1.3c0.4,0.4,1,0.6,1.8,0.6h4.2c0.7,0,1.3-0.1,1.7-0.4c0.4-0.3,0.7-0.7,0.7-1.2
				v-0.6c0-0.4-0.1-0.7-0.3-0.9c-0.2-0.2-0.5-0.4-0.8-0.6c-0.4-0.1-0.8-0.2-1.2-0.2h-4.4c-3.5,0-6-0.6-7.6-1.8s-2.4-2.7-2.4-4.4
				c0-1.3,0.4-2.4,1.1-3.4c0.7-1,1.8-1.6,3.1-1.9c-0.9-0.6-1.6-1.2-2.2-2c-0.6-0.8-1-1.6-1.2-2.5c-0.3-0.9-0.4-1.8-0.4-2.8
				c0-1.9,0.4-3.4,1.2-4.7c0.8-1.3,2-2.2,3.6-2.9c1.6-0.7,3.8-1,6.5-1h14.1v5.1l-2.7,0.9c0.2,0.3,0.4,0.7,0.6,1.1
				c0.1,0.4,0.3,0.9,0.3,1.5c0.1,0.6,0.1,1.2,0.1,1.9c0,1.6-0.3,3-1,4.2c-0.7,1.2-1.7,2.1-3,2.8c-1.4,0.7-3.2,1-5.4,1h-4.9
				c-0.5,0-1,0.1-1.3,0.3c-0.4,0.2-0.6,0.5-0.6,0.9c0,0.4,0.2,0.7,0.6,0.8c0.4,0.1,0.8,0.2,1.3,0.2h6.2c2,0,3.6,0.3,5.1,0.8
				c1.4,0.5,2.6,1.4,3.4,2.6c0.8,1.2,1.2,2.8,1.2,4.9v0.4c0,2.7-0.8,4.8-2.4,6.3c-1.6,1.5-4.2,2.3-7.7,2.3H1902.7z M1906.2,1682h2.6
				c0.5,0,1-0.1,1.3-0.2c0.3-0.2,0.5-0.4,0.7-0.8s0.2-0.8,0.2-1.3c0-0.5-0.1-1-0.2-1.3s-0.4-0.6-0.7-0.7c-0.3-0.1-0.8-0.2-1.3-0.2
				h-2.6c-0.8,0-1.4,0.2-1.7,0.5s-0.5,0.9-0.5,1.8c0,0.8,0.2,1.4,0.5,1.8S1905.4,1682,1906.2,1682z"/>
			<path class="st6" d="M1923.9,1696.4v-25.9h7.2l2.1,3.6c0.8-1.1,1.7-2,2.7-2.8s2.2-1.2,3.7-1.2c0.3,0,0.6,0,0.9,0
				c0.4,0,0.7,0.1,1,0.2v9.6c-0.5-0.1-1.1-0.1-1.7-0.1c-0.6,0-1.1,0-1.5,0c-0.8,0-1.5,0.1-2.1,0.2c-0.6,0.1-1.2,0.4-1.7,0.6
				c-0.5,0.3-0.9,0.7-1.3,1.2v14.6H1923.9z"/>
			<path class="st6" d="M1949.4,1696.7c-2,0-3.6-0.6-4.8-1.8c-1.2-1.2-1.8-2.8-1.8-4.8v-2.6c0-1.9,0.7-3.5,2.1-4.8
				c1.4-1.3,3.6-1.9,6.7-1.9h5.2v-0.8c0-0.6-0.1-1.1-0.3-1.5c-0.2-0.4-0.7-0.6-1.4-0.8c-0.7-0.1-1.8-0.2-3.2-0.2h-7.5v-5.3
				c1.3-0.5,2.9-1,4.6-1.3c1.7-0.4,3.9-0.5,6.4-0.5c2.2,0,4.1,0.2,5.7,0.7c1.6,0.5,2.9,1.4,3.7,2.7s1.3,3.2,1.3,5.6v17.1h-7.4
				l-1.4-2.6c-0.3,0.3-0.7,0.6-1.2,1c-0.5,0.3-1,0.6-1.7,0.9c-0.6,0.3-1.4,0.5-2.2,0.7C1951.4,1696.6,1950.5,1696.7,1949.4,1696.7z
				 M1954.3,1690.3c0.2,0,0.3,0,0.5,0c0.2,0,0.4-0.1,0.6-0.1s0.4-0.1,0.6-0.1c0.2,0,0.3-0.1,0.5-0.2s0.2-0.1,0.3-0.1v-4.7l-2,0.3
				c-0.9,0.1-1.6,0.4-2,0.7s-0.7,0.9-0.7,1.6v1c0,0.4,0.1,0.8,0.3,1c0.2,0.3,0.4,0.5,0.8,0.6
				C1953.4,1690.3,1953.8,1690.3,1954.3,1690.3z"/>
			<path class="st6" d="M1980.7,1696.7c-1.6,0-3.1-0.2-4.5-0.6c-1.4-0.4-2.6-1.1-3.6-2.1c-1-1-1.8-2.3-2.3-4s-0.8-3.8-0.8-6.3
				c0-2.6,0.2-4.8,0.7-6.6s1.2-3.1,2.2-4.2c1-1,2.2-1.8,3.6-2.2c1.4-0.4,3.1-0.6,4.9-0.6c1.7,0,3.3,0.1,4.7,0.3
				c1.4,0.2,2.9,0.6,4.6,1.2v5.3h-6.3c-1.4,0-2.4,0.2-3.2,0.6c-0.8,0.4-1.3,1-1.6,2c-0.3,0.9-0.4,2.3-0.4,4.1c0,1.8,0.1,3.1,0.4,4
				c0.3,0.9,0.8,1.5,1.5,1.8c0.8,0.3,1.9,0.4,3.3,0.4h6.5v5.2c-0.8,0.3-1.8,0.6-2.9,0.9c-1.1,0.3-2.3,0.5-3.5,0.6
				C1983,1696.6,1981.8,1696.7,1980.7,1696.7z"/>
			<path class="st6" d="M1994.8,1667.2c-0.8,0-1.2-0.4-1.2-1.1v-5.3c0-0.8,0.4-1.2,1.2-1.2h7.3c0.4,0,0.6,0.1,0.8,0.3
				c0.2,0.2,0.3,0.5,0.3,0.9v5.3c0,0.7-0.4,1.1-1.1,1.1H1994.8z M1993.7,1696.4v-25.9h9.3v25.9H1993.7z"/>
			<path class="st6" d="M2013.1,1696.7c-2,0-3.6-0.6-4.8-1.8c-1.2-1.2-1.8-2.8-1.8-4.8v-2.6c0-1.9,0.7-3.5,2.1-4.8
				c1.4-1.3,3.6-1.9,6.7-1.9h5.2v-0.8c0-0.6-0.1-1.1-0.3-1.5c-0.2-0.4-0.7-0.6-1.4-0.8c-0.7-0.1-1.8-0.2-3.2-0.2h-7.5v-5.3
				c1.3-0.5,2.9-1,4.6-1.3c1.7-0.4,3.9-0.5,6.4-0.5c2.2,0,4.1,0.2,5.7,0.7c1.6,0.5,2.9,1.4,3.7,2.7s1.3,3.2,1.3,5.6v17.1h-7.4
				l-1.4-2.6c-0.3,0.3-0.7,0.6-1.2,1c-0.5,0.3-1,0.6-1.7,0.9c-0.6,0.3-1.4,0.5-2.2,0.7C2015,1696.6,2014.1,1696.7,2013.1,1696.7z
				 M2018,1690.3c0.2,0,0.3,0,0.5,0c0.2,0,0.4-0.1,0.6-0.1s0.4-0.1,0.6-0.1c0.2,0,0.3-0.1,0.5-0.2s0.2-0.1,0.3-0.1v-4.7l-2,0.3
				c-0.9,0.1-1.6,0.4-2,0.7s-0.7,0.9-0.7,1.6v1c0,0.4,0.1,0.8,0.3,1c0.2,0.3,0.4,0.5,0.8,0.6
				C2017.1,1690.3,2017.5,1690.3,2018,1690.3z"/>
			<path class="st6" d="M2043.6,1696.7c-0.9,0-1.9,0-2.8-0.1c-0.9-0.1-1.8-0.2-2.7-0.3c-0.9-0.1-1.7-0.3-2.5-0.5
				c-0.8-0.2-1.5-0.4-2.1-0.7v-5.4h12c0.4,0,0.7,0,0.9-0.1c0.2-0.1,0.3-0.2,0.4-0.3c0.1-0.1,0.1-0.3,0.1-0.5v-0.6
				c0-0.3-0.1-0.6-0.3-0.7c-0.2-0.2-0.7-0.3-1.5-0.3h-4.3c-1.4,0-2.8-0.2-4-0.7c-1.2-0.5-2.2-1.3-2.9-2.4c-0.7-1.1-1.1-2.5-1.1-4.4
				v-1.6c0-1.7,0.3-3.1,1-4.2c0.6-1.2,1.8-2.1,3.4-2.7s3.9-0.9,6.9-0.9c1.2,0,2.4,0.1,3.6,0.2c1.2,0.1,2.3,0.3,3.4,0.6
				c1,0.2,1.8,0.5,2.4,0.7v5.4h-11.4c-0.5,0-0.8,0.1-1.1,0.2c-0.2,0.1-0.3,0.4-0.3,0.7v0.6c0,0.3,0.1,0.5,0.2,0.6
				c0.1,0.1,0.3,0.2,0.6,0.3c0.3,0.1,0.7,0.1,1.2,0.1h4.5c2.8,0,4.8,0.6,5.9,1.9c1.1,1.3,1.7,3,1.7,5.2v2.6c0,1.7-0.4,3.1-1.2,4.2
				c-0.8,1.1-2.1,1.8-3.7,2.3C2048.2,1696.4,2046.1,1696.7,2043.6,1696.7z"/>
			<path class="st6" d="M2059.2,1686.5l-1.1-25.7h9.3l-1.3,25.7H2059.2z M2059.9,1696.5c-0.8,0-1.2-0.4-1.2-1.1v-5.6
				c0-0.8,0.4-1.2,1.2-1.2h5.4c0.8,0,1.2,0.4,1.2,1.2v5.6c0,0.4-0.1,0.7-0.3,0.9c-0.2,0.2-0.5,0.2-0.9,0.2H2059.9z"/>
		</g>
	</g>
	<path class="st5" d="M1090.7,474.4c1-0.1,2.1,0,3.2,0.4c3.9,1.3,6,5.6,4.7,9.5l-19.9,58.4l-60.4-31.9c-3.7-1.9-5.1-6.5-3.1-10.1
		c1.9-3.7,6.5-5.1,10.1-3.1l44.8,23.7l14.2-41.8C1085.4,476.6,1087.9,474.7,1090.7,474.4z"/>
	<path class="st10" d="M448,311.1c64.6-38.8,140.2-61.1,221-61.1c182.1,0,337.7,113.2,400.4,273"/>
	<path class="st10" d="M1624,1557.5c-36.6,10.1-75.1,15.5-115,15.5c-189.9,0-351.1-123.2-408-294"/>
	<path class="st5" d="M1580,1534.6c-0.1-1,0-2.1,0.4-3.2c1.3-3.9,5.6-6,9.5-4.7l58.4,19.9l-31.9,60.4c-1.9,3.7-6.5,5.1-10.1,3.1
		c-3.7-1.9-5.1-6.5-3.1-10.1l23.7-44.8L1585,1541C1582.2,1540,1580.3,1537.5,1580,1534.6z"/>
</g>
<g id="Layer_2">
</g>
</svg>
