<?xml version="1.0" encoding="utf-8"?>
<!-- Generator: Adobe Illustrator 25.2.3, SVG Export Plug-In . SVG Version: 6.00 Build 0)  -->
<svg version="1.1" xmlns="http://www.w3.org/2000/svg" xmlns:xlink="http://www.w3.org/1999/xlink" x="0px" y="0px"
	 viewBox="0 0 2200 1800" style="enable-background:new 0 0 2200 1800;" xml:space="preserve">
<style type="text/css">
	.st0{fill:#E34D99;}
	.st1{fill:#76BF60;}
	.st2{fill:#EC8231;}
	.st3{fill:#489B91;}
	.st4{fill:none;stroke:#442856;stroke-linecap:round;stroke-miterlimit:10;}
	.st5{fill:#BEA3CC;}
	.st6{fill:#442856;}
	.st7{fill:#D695C0;}
	.st8{fill:#785089;}
	.st9{fill:none;stroke:#442856;stroke-width:15;stroke-miterlimit:10;}
	.st10{fill:none;stroke:#BEA3CC;stroke-width:15;stroke-linecap:round;stroke-miterlimit:10;stroke-dasharray:12,21;}
	.st11{clip-path:url(#SVGID_2_);}
	.st12{fill:none;stroke:#D695C0;stroke-width:16;stroke-miterlimit:10;}
	.st13{fill:none;stroke:#785089;stroke-width:15;stroke-linecap:round;stroke-miterlimit:10;}
	.st14{fill:#C7E2C0;}
	.st15{fill:#9BD2CA;}
	.st16{fill:#FBC089;}
	.st17{fill:#E9A6C9;}
	.st18{fill:#F0CEE2;}
	.st19{fill:none;stroke:#442856;stroke-width:15;stroke-linecap:round;stroke-miterlimit:10;}
	.st20{fill:#442956;}
	.st21{fill:#E3509B;}
	.st22{fill:#EB8232;}
	.st23{fill:#76BF61;}
	.st24{fill:#499B91;}
	.st25{fill:#79518A;}
</style>
<g id="Layer_1">
	<g>
		<path class="st0" d="M1966.7,1445.4H1917v-6.6c6.6-6.4,10.6-15.4,10.6-25.3c0-19.6-15.9-35.5-35.5-35.5
			c-19.6,0-35.5,15.9-35.5,35.5c0,9.9,4.1,18.9,10.6,25.3v6.6h-49.7c-3.9,0-7.1,3.2-7.1,7.1v35.5c0,3.9,3.2,7.1,7.1,7.1h21.3
			c0,29.4,23.8,53.2,53.2,53.2c29.4,0,53.2-23.8,53.2-53.2h21.3c3.9,0,7.1-3.2,7.1-7.1v-35.5
			C1973.8,1448.6,1970.6,1445.4,1966.7,1445.4z M1892.1,1530.6c-19.6,0-35.5-15.9-35.5-35.5h71
			C1927.6,1514.7,1911.7,1530.6,1892.1,1530.6z"/>
		<path class="st0" d="M1892.1,1332.3c-72.2,0-130.9,58.7-130.9,130.9c0,72.2,58.7,130.9,130.9,130.9c72.2,0,130.9-58.7,130.9-130.9
			C2023,1391,1964.3,1332.3,1892.1,1332.3z M1892.1,1580.1c-64.5,0-117-52.4-117-117s52.4-117,117-117c64.6,0,117,52.4,117,117
			S1956.7,1580.1,1892.1,1580.1z"/>
	</g>
	<g>
		<path class="st0" d="M391.7,615.1H342v-6.6c6.6-6.4,10.6-15.4,10.6-25.3c0-19.6-15.9-35.5-35.5-35.5s-35.5,15.9-35.5,35.5
			c0,9.9,4.1,18.9,10.6,25.3v6.6h-49.7c-3.9,0-7.1,3.2-7.1,7.1v35.5c0,3.9,3.2,7.1,7.1,7.1h21.3c0,29.4,23.8,53.2,53.2,53.2
			s53.2-23.8,53.2-53.2h21.3c3.9,0,7.1-3.2,7.1-7.1v-35.5C398.8,618.3,395.6,615.1,391.7,615.1z M317.1,700.3
			c-19.6,0-35.5-15.9-35.5-35.5h71C352.6,684.4,336.7,700.3,317.1,700.3z"/>
		<path class="st0" d="M317.1,502c-72.2,0-130.9,58.7-130.9,130.9S245,763.7,317.1,763.7S448,705,448,632.9S389.3,502,317.1,502z
			 M317.1,749.9c-64.5,0-117-52.4-117-117s52.4-117,117-117s117,52.4,117,117S381.7,749.9,317.1,749.9z"/>
	</g>
	<g>
		<g>
			<rect x="978.9" y="560.7" class="st5" width="12.1" height="107"/>
			<rect x="1012.8" y="562" class="st5" width="12.1" height="107"/>
			<rect x="1046.8" y="559.3" class="st5" width="12.1" height="107"/>
			<polygon class="st5" points="1080.8,559.3 1080.8,665 1080.8,666.3 1092.9,666.3 1092.9,665 1092.9,559.3 1092.9,557.9 
				1080.8,557.9 			"/>
			<polygon class="st5" points="1114.8,559.3 1114.8,665 1114.8,666.3 1127,666.3 1127,665 1127,559.3 1127,557.9 1114.8,557.9 			
				"/>
			<rect x="1148.7" y="559.3" class="st5" width="12.1" height="107"/>
			<rect x="1182.8" y="559.3" class="st5" width="12.1" height="107"/>
		</g>
		<path class="st20" d="M1303.7,1234.2H870.6c-22.5,0-40.8-18.3-40.8-40.8V777.6c0-22.5,18.3-40.8,40.8-40.8h433.1
			c22.5,0,40.8,18.3,40.8,40.8v415.8C1344.6,1215.8,1326.2,1234.2,1303.7,1234.2z M870.6,749.1c-15.7,0-28.4,12.7-28.4,28.4v415.8
			c0,15.7,12.7,28.4,28.4,28.4h433.1c15.7,0,28.4-12.7,28.4-28.4V777.6c0-15.7-12.7-28.4-28.4-28.4H870.6z"/>
		<rect x="836" y="979.2" class="st20" width="502.4" height="12.4"/>
		<rect x="1081" y="672.2" class="st20" width="12.4" height="555.8"/>
		<path class="st20" d="M1207.3,675.9H967v-122h240.3v122H1207.3z M979.4,663.5h215.5v-97.3H979.4V663.5z"/>
		<path class="st21" d="M1038,846.6h-51v-6.8c6.8-6.6,10.9-15.8,10.9-26c0-20.1-16.3-36.4-36.4-36.4c-20.1,0-36.4,16.3-36.4,36.4
			c0,10.2,4.2,19.4,10.9,26v6.8H885c-4,0-7.3,3.3-7.3,7.3v36.4c0,4,3.3,7.3,7.3,7.3h21.9c0,30.2,24.4,54.6,54.6,54.6
			s54.6-24.4,54.6-54.6h21.9c4,0,7.3-3.3,7.3-7.3v-36.4C1045.3,849.9,1042,846.6,1038,846.6z M961.4,934.1
			c-20.1,0-36.4-16.3-36.4-36.4h72.9C997.9,917.8,981.5,934.1,961.4,934.1z"/>
		<g>
			<path class="st22" d="M1216.1,1021l9.1,18.5c0.6,1.2,1.8,2.2,3.2,2.3l20.4,3c3.5,0.5,4.8,4.7,2.4,7.2l-14.8,14.4
				c-1,0.9-1.4,2.4-1.2,3.7l3.5,20.2c0.6,3.5-3.1,6.1-6.2,4.4l-18.3-9.5c-1.2-0.6-2.7-0.6-3.9,0l-18.3,9.5c-3.1,1.6-6.7-1-6.2-4.4
				l3.5-20.2c0.2-1.3-0.2-2.8-1.2-3.7l-14.8-14.4c-2.5-2.5-1.1-6.7,2.4-7.2l20.4-3c1.3-0.2,2.6-1,3.2-2.3l9.1-18.5
				C1210.1,1017.9,1214.5,1017.9,1216.1,1021z"/>
			<path class="st22" d="M1124.8,1102.5v61.9c0,4,3.3,7.3,7.3,7.3h43.2l-0.2,0.3c-14,2.8-13.9,21.6-13.9,21.6h3.3h95.3h3.3
				c0,0,0-18.7-13.9-21.6l-0.2-0.3h43.2c4,0,7.3-3.3,7.3-7.3v-61.9H1124.8z"/>
		</g>
		<g>
			<path class="st23" d="M1210.5,788.3h-3.6c-4,0-7.3,3.3-7.3,7.3v29.1h-10.9v-40c0-4-3.3-7.3-7.3-7.3h-3.6c-4,0-7.3,3.3-7.3,7.3v40
				h-10.9v-29.1c0-4-3.3-7.3-7.3-7.3h-3.6c-4,0-7.3,3.3-7.3,7.3v29.1v10.9c0,4,3.3,7.3,7.3,7.3h3.6h18.2v102c0,4,3.3,7.3,7.3,7.3
				h3.6c4,0,7.3-3.3,7.3-7.3v-102h18.2h3.6c4,0,7.3-3.3,7.3-7.3v-10.9v-29.1C1217.8,791.6,1214.5,788.3,1210.5,788.3z"/>
			<path class="st23" d="M1276.1,777.5h-3.6c-27.1,0-34.3,62.2-35.9,83.7h-0.5v7.3h29.1V945c0,4,3.3,7.3,7.3,7.3h3.6
				c4,0,7.3-3.3,7.3-7.3V784.7C1283.4,780.7,1280.1,777.5,1276.1,777.5z"/>
		</g>
		<g>
			<circle class="st24" cx="919.6" cy="1049.6" r="16.4"/>
			
				<ellipse transform="matrix(0.7071 -0.7071 0.7071 0.7071 -434.9435 1030.9655)" class="st24" cx="1027" cy="1040.5" rx="21.9" ry="21.9"/>
			<ellipse class="st24" cx="902.2" cy="1165.4" rx="28.2" ry="28.1"/>
			<circle class="st24" cx="987" cy="1091.6" r="18.2"/>
			<g>
				<path class="st24" d="M1038,1080.6h-27.9c1.5,3.3,2.5,7,2.5,10.9c0,14.1-11.4,25.5-25.5,25.5s-25.5-11.4-25.5-25.5
					c0-3.9,0.9-7.6,2.5-10.9H885c-4,0-7.3,3.3-7.3,7.3v51.9c6.4-6.2,15-9.9,24.5-9.9c19.6,0,35.5,15.9,35.5,35.5
					c0,6.3-1.6,12.1-4.5,17.2H1038c4,0,7.3-3.3,7.3-7.3V1088C1045.3,1083.9,1042,1080.6,1038,1080.6z"/>
				<path class="st24" d="M968.7,1091.6c0,10.1,8.2,18.2,18.2,18.2c10.1,0,18.2-8.2,18.2-18.2c0-4.1-1.3-7.9-3.7-10.9h-29.1
					C970.2,1083.7,968.7,1087.5,968.7,1091.6z"/>
			</g>
		</g>
	</g>
	<g>
		<path class="st25" d="M483,754.4c-0.2,0-0.4,0-0.7,0c-23.7-0.2-49.4-11.2-74.5-31.8l-60.8-50c0,0-0.1,0-0.1-0.1l-0.3-0.3l0,0
			c-4.2-3.8-3-8.5-1.1-10.8c0-0.1,4.7-5.5,10.8-1l0,0c0,0,0.2,0.1,0.5,0.4c0,0,0.1,0.1,0.1,0.1l0.6,0.5c0,0,0.1,0.1,0.1,0.1
			c3.8,3.1,17.4,14.3,59.9,49.3c22.3,18.3,44.8,28.1,64.9,28.3c0.2,0,0.4,0,0.5,0c16.4,0,31-6.6,41-18.5c9.9-11.7,14.6-27.8,13-44.1
			c-1.3-12.8-7-31.7-27-49c-3.2-2.8-3.6-7.6-0.8-10.9c2.8-3.2,7.6-3.6,10.9-0.8c18.6,16.1,30.1,37.1,32.3,59.1
			c2.1,20.4-4,40.7-16.5,55.6C522.7,745.9,504,754.4,483,754.4z"/>
		<path class="st25" d="M408.7,695.9c-1.7,0-3.4-0.6-4.9-1.7l-60-49.3c-3.3-2.7-3.8-7.5-1.1-10.8c2.7-3.3,7.5-3.8,10.8-1.1l60,49.3
			c3.3,2.7,3.8,7.5,1.1,10.8C413.2,694.9,411,695.9,408.7,695.9z"/>
		<path class="st25" d="M421.1,680.9c-1.7,0-3.5-0.6-4.9-1.8l-60-49.4c-3.3-2.7-3.8-7.6-1.1-10.8c2.7-3.3,7.6-3.8,10.8-1.1l60,49.4
			c3.3,2.7,3.8,7.6,1.1,10.8C425.5,679.9,423.3,680.9,421.1,680.9z"/>
		<path class="st25" d="M445.7,650.8c-1.7,0-3.5-0.6-4.9-1.8l-30-24.6c-3.3-2.7-3.8-7.6-1.1-10.8c2.7-3.3,7.6-3.8,10.8-1.1l30,24.6
			c3.3,2.7,3.8,7.6,1.1,10.8C450.1,649.8,447.9,650.8,445.7,650.8z"/>
		<path class="st25" d="M433.4,665.9c-1.7,0-3.5-0.6-4.9-1.8l-60-49.4c-3.3-2.7-3.8-7.6-1.1-10.8c2.7-3.3,7.6-3.8,10.8-1.1l60,49.4
			c3.3,2.7,3.8,7.6,1.1,10.8C437.8,664.9,435.6,665.9,433.4,665.9z"/>
	</g>
	<g>
		<path class="st25" d="M140.7,745.2c-3.3,0-6.5-0.2-9.6-0.6c-21.1-2.5-38.9-13.3-50-30.5c-10.6-16.4-14-37.2-9.4-57.2
			c5-21.6,19-40.9,39.4-54.5c3.5-2.4,8.3-1.4,10.7,2.1c2.4,3.5,1.4,8.3-2.1,10.7c-22,14.6-30.1,32.7-33,45.2
			c-3.7,15.9-1,32.5,7.4,45.4c8.6,13.3,22.4,21.6,38.9,23.6c20,2.4,43.5-4.5,67.9-19.9c29.4-18.5,46.1-29,55.6-35l11.1-7
			c0.1-0.1,0.2-0.1,0.3-0.2c0,0,0.1,0,0.1,0l0,0c5-2.9,9.1-0.2,10.7,2.3c0,0.1,3.8,6.2-2.5,10.7l0,0c0,0-0.1,0.1-0.2,0.1
			c-0.1,0.1-0.2,0.1-0.3,0.2l-0.7,0.4c-0.1,0.1-0.3,0.2-0.4,0.2c-4.2,2.6-18.6,11.7-65.4,41.1C185.2,737.5,161.8,745.2,140.7,745.2z
			"/>
		<path class="st25" d="M212.4,696.1c-2.6,0-5.1-1.3-6.5-3.6c-2.3-3.6-1.2-8.4,2.4-10.6l65.8-41.4c3.6-2.3,8.4-1.2,10.6,2.4
			c2.3,3.6,1.2,8.4-2.4,10.6l-65.8,41.4C215.2,695.7,213.8,696.1,212.4,696.1z"/>
		<path class="st25" d="M202,679.6c-2.6,0-5.1-1.3-6.5-3.6c-2.3-3.6-1.2-8.4,2.4-10.6l65.8-41.5c3.6-2.3,8.3-1.2,10.6,2.4
			c2.3,3.6,1.2,8.4-2.4,10.6l-65.8,41.5C204.9,679.3,203.5,679.6,202,679.6z"/>
		<path class="st25" d="M181.4,646.7c-2.6,0-5.1-1.3-6.5-3.6c-2.3-3.6-1.2-8.4,2.4-10.6l32.8-20.6c3.6-2.3,8.4-1.2,10.6,2.4
			c2.3,3.6,1.2,8.4-2.4,10.6l-32.8,20.6C184.2,646.3,182.8,646.7,181.4,646.7z"/>
		<path class="st25" d="M191.7,663.2c-2.6,0-5.1-1.3-6.5-3.6c-2.3-3.6-1.2-8.4,2.4-10.6l65.8-41.5c3.6-2.3,8.4-1.2,10.6,2.4
			c2.3,3.6,1.2,8.4-2.4,10.6L195.8,662C194.5,662.8,193.1,663.2,191.7,663.2z"/>
	</g>
	<g>
		<path class="st25" d="M200.2,376c0,62.9,51.2,114.1,114.1,114.1S428.5,438.9,428.5,376s-51.2-114.1-114.1-114.1
			c-6.1,0-12.1,0.5-17.9,1.4c12.9-11.8,20.9-28.8,20.9-47.6c0-35.7-29-64.8-64.8-64.8s-64.8,29-64.8,64.8
			c0,35.5,28.7,64.5,64.2,64.8C220.8,300.7,200.2,335.9,200.2,376z M252.6,261.8c-25.6,0-46.3-20.7-46.3-46.3s20.7-46.3,46.3-46.3
			s46.3,20.7,46.3,46.3S278.1,261.8,252.6,261.8z M264.1,294.6c1.6,10.9,2,30.1-11.9,43.9c-12,12-23.8,17.4-31.9,19.9
			C225.3,331.5,241.7,308.5,264.1,294.6z M405.8,347.9c-25.9,2.1-62.9-8.1-88.6-25.1c-12.1-8-26.8-20.9-31.5-38.1
			c9-2.9,18.7-4.4,28.7-4.4C357.3,280.4,393.8,308.8,405.8,347.9z M218.7,377.9c10.6-2.2,28.7-8.3,46.6-26.3
			c10.7-10.7,15.5-23.2,17.2-34.7c6.4,7.6,14.6,14.8,24.3,21.2c26.9,17.9,62.6,28.5,91.8,28.5c3.7,0,7.3-0.2,10.8-0.5
			c0.3,3.2,0.5,6.5,0.5,9.8c0,52.8-42.9,95.7-95.7,95.7C262.2,471.6,219.8,429.7,218.7,377.9z"/>
		<path class="st25" d="M324.2,382.7c-1.7-8.1,3.5-16.1,11.6-17.9c8.1-1.7,16.1,3.5,17.9,11.6c1.7,8.1-3.5,16.1-11.6,17.9
			C333.9,396.1,325.9,390.8,324.2,382.7z"/>
		<path class="st25" d="M277.5,366.4c8.1-1.7,16.1,3.5,17.9,11.6s-3.5,16.1-11.6,17.9c-8.1,1.7-16.1-3.5-17.9-11.6
			C264.1,376.2,269.4,368.2,277.5,366.4z"/>
		<path class="st25" d="M282.6,412.4c3-0.6,6,1.3,6.5,4.4c0.3,1.5,3.7,14.6,21.7,14.2c19.3-0.5,23.1-12.6,23.3-13.2
			c0.8-3,3.8-4.7,6.8-3.9c3,0.7,4.7,3.8,4,6.8c-0.2,0.8-5.6,20.7-33.8,21.6c-0.4,0-0.8,0-1.2,0c-21.5,0-30.1-15-31.6-23.1
			C277.7,416,279.6,413,282.6,412.4z"/>
	</g>
	<g>
		<path class="st20" d="M81.5,97.8l1.1,26.4h-9.5l1.3-26.4H81.5z M80.8,87.5c0.8,0,1.2,0.4,1.2,1.1v5.7c0,0.8-0.4,1.2-1.2,1.2h-5.5
			c-0.8,0-1.2-0.4-1.2-1.2v-5.7c0-0.4,0.1-0.7,0.3-0.9c0.2-0.2,0.5-0.2,0.9-0.2H80.8z"/>
		<path class="st20" d="M84.9,114.2l10.9-36.6h11.9l10.9,36.6h-9.9l-1.4-5.9h-11l-1.4,5.9H84.9z M98.4,99.8h6.6l-3.3-14.1L98.4,99.8
			z"/>
		<path class="st20" d="M135.4,125.8v-14.1c-0.7,0.7-1.6,1.3-2.8,1.8c-1.1,0.5-2.2,0.8-3.2,0.8c-2.5,0-4.5-0.5-6-1.4
			c-1.4-0.9-2.5-2.4-3.1-4.4c-0.6-2-0.9-4.5-0.9-7.7c0-3.6,0.4-6.5,1.1-8.4c0.7-2.1,1.8-3.4,3.4-4.2s3.5-1.2,5.7-1.2
			c1.5,0,3.3,0.1,5.1,0.2s3.7,0.3,5.4,0.5c1.7,0.2,3.3,0.4,4.6,0.6v37.4h-9.5V125.8z M132.4,106.8c0.4,0,0.9-0.1,1.6-0.3
			c0.7-0.2,1.1-0.4,1.4-0.6V94.3H133c-0.9,0-1.7,0.2-2.3,0.6c-0.6,0.4-1,1-1.2,2c-0.2,0.9-0.3,2.2-0.3,3.8c0,1.8,0.1,3.2,0.3,4.1
			c0.2,0.9,0.5,1.4,1,1.7C130.9,106.7,131.5,106.8,132.4,106.8z"/>
		<path class="st20" d="M156.5,114.4c-2.3,0-4.1-0.7-5.4-2.2c-1.3-1.4-2-3.4-2-5.7V87.7h9.5v15.9c0,1,0.2,1.7,0.7,2.1
			c0.5,0.3,1.1,0.5,1.8,0.5c0.5,0,1.1-0.1,1.8-0.4c0.7-0.3,1.3-0.6,1.7-1.1V87.7h9.5v26.6h-8l-1.5-2.6c-1.1,0.7-2.4,1.3-3.8,2
			C159.7,114.2,158.1,114.4,156.5,114.4z"/>
		<path class="st20" d="M178.7,114.2V87.7h9.5v26.6H178.7z M181.1,83.1l3.4-7.1h7.6l-5.3,7.1H181.1z"/>
		<path class="st20" d="M211.4,114.2l-8.2-26.6h9.9l4,17.8l4.2-17.8h9.8l-8.6,26.6L211.4,114.2L211.4,114.2z"/>
		<path class="st20" d="M234.7,84.3c-0.8,0-1.2-0.4-1.2-1.1v-5.4c0-0.8,0.4-1.2,1.2-1.2h7.5c0.4,0,0.6,0.1,0.8,0.3
			c0.2,0.2,0.3,0.5,0.3,0.9v5.4c0,0.7-0.4,1.1-1.1,1.1C242.2,84.3,234.7,84.3,234.7,84.3z M233.7,114.2V87.7h9.5v26.6H233.7z"/>
		<path class="st20" d="M259.4,114.4c-3,0-5.4-0.4-7.3-1.1c-1.8-0.7-3.2-2.2-4-4.1c-0.8-2-1.2-4.7-1.2-8.2c0-3.7,0.4-6.5,1.1-8.4
			c0.7-2,2.1-3.4,3.8-4.2c1.7-0.8,4.2-1.2,7.2-1.2c2.9,0,5,0.3,6.7,0.8s2.8,1.4,3.5,2.9c0.7,1.3,1,3.3,1,5.7c0,2-0.4,3.5-1.1,4.5
			c-0.7,1.1-1.8,1.8-3.2,2.4c-1.3,0.4-3,0.7-4.9,0.7h-4.7c0.1,0.8,0.3,1.4,0.6,1.8c0.3,0.5,0.8,0.8,1.6,1c0.8,0.2,2,0.3,3.5,0.3h7.3
			v5.5c-1.1,0.3-2.6,0.6-4.1,1C263.5,114.2,261.7,114.4,259.4,114.4z M256.2,98.6h3.8c0.6,0,1.1-0.1,1.4-0.4
			c0.3-0.3,0.4-0.8,0.4-1.5c0-0.6-0.1-1.1-0.3-1.5c-0.2-0.4-0.5-0.7-0.9-0.8c-0.4-0.2-1-0.3-1.6-0.3s-1.1,0.1-1.5,0.4
			s-0.7,0.7-0.9,1.4C256.3,96.5,256.2,97.4,256.2,98.6z"/>
		<path class="st20" d="M273.9,114.2V87.7h8l1.5,2.6c0.8-0.7,2-1.4,3.3-2.1c1.3-0.6,2.8-0.9,4.2-0.9c2.3,0,4,0.4,5.2,1.3
			c1.2,0.8,2,2.1,2.5,3.6c0.4,1.5,0.6,3.2,0.6,5v17.1h-9.5V98.4c0-0.7-0.1-1.2-0.3-1.5c-0.2-0.4-0.5-0.6-0.9-0.7s-0.8-0.2-1.3-0.2
			c-0.4,0-0.8,0.1-1.3,0.2c-0.5,0.1-0.9,0.3-1.2,0.5c-0.4,0.2-0.7,0.5-1,0.8v16.9h-9.6V114.2z"/>
		<path class="st20" d="M315.3,114.4c-3,0-5.4-0.4-7.3-1.1c-1.8-0.7-3.2-2.2-4-4.1c-0.8-2-1.2-4.7-1.2-8.2c0-3.7,0.4-6.5,1.1-8.4
			c0.7-2,2.1-3.4,3.8-4.2c1.7-0.8,4.2-1.2,7.2-1.2c2.9,0,5,0.3,6.7,0.8s2.8,1.4,3.5,2.9c0.7,1.3,1,3.3,1,5.7c0,2-0.4,3.5-1.1,4.5
			c-0.7,1.1-1.8,1.8-3.2,2.4c-1.3,0.4-3,0.7-4.9,0.7h-4.7c0.1,0.8,0.3,1.4,0.6,1.8c0.3,0.5,0.8,0.8,1.6,1c0.8,0.2,2,0.3,3.5,0.3h7.3
			v5.5c-1.1,0.3-2.6,0.6-4.1,1C319.5,114.2,317.5,114.4,315.3,114.4z M312.1,98.6h3.8c0.6,0,1.1-0.1,1.4-0.4
			c0.3-0.3,0.4-0.8,0.4-1.5c0-0.6-0.1-1.1-0.3-1.5c-0.2-0.4-0.5-0.7-0.9-0.8c-0.4-0.2-1-0.3-1.6-0.3s-1.1,0.1-1.5,0.4
			c-0.4,0.3-0.7,0.7-0.9,1.4C312.2,96.5,312.1,97.4,312.1,98.6z"/>
		<path class="st20" d="M351.4,114.3c-2.1,0-3.8-0.3-5.2-1c-1.3-0.6-2.4-1.6-3.1-3c-0.6-1.3-1-2.9-1-4.8V76.6h9.5v27.5
			c0,0.6,0.1,1.1,0.2,1.5s0.4,0.7,0.7,1c0.3,0.2,0.7,0.4,1.2,0.5l1.6,0.2v7L351.4,114.3L351.4,114.3z"/>
		<path class="st20" d="M364.1,114.4c-2.1,0-3.7-0.6-4.9-1.8c-1.2-1.2-1.8-2.9-1.8-4.9V105c0-2,0.7-3.6,2.2-4.9c1.4-1.3,3.7-2,6.9-2
			h5.3v-0.8c0-0.6-0.1-1.1-0.3-1.5c-0.2-0.4-0.7-0.6-1.4-0.8c-0.7-0.2-1.8-0.2-3.3-0.2H359v-5.4c1.3-0.5,3-1,4.7-1.3
			c1.7-0.4,4-0.5,6.6-0.5c2.3,0,4.2,0.2,5.9,0.7c1.6,0.5,3,1.4,3.8,2.8c0.8,1.3,1.3,3.3,1.3,5.7v17.6h-7.6l-1.4-2.7
			c-0.3,0.3-0.7,0.6-1.2,1c-0.5,0.3-1,0.6-1.7,0.9c-0.6,0.3-1.4,0.5-2.3,0.7C366.2,114.4,365.2,114.4,364.1,114.4z M369.1,108
			c0.2,0,0.3,0,0.5,0c0.2,0,0.4-0.1,0.6-0.1c0.2,0,0.4-0.1,0.6-0.1c0.2,0,0.3-0.1,0.5-0.2c0.1-0.1,0.2-0.1,0.3-0.1v-4.8l-2.1,0.3
			c-0.9,0.1-1.6,0.4-2.1,0.7c-0.5,0.3-0.7,0.9-0.7,1.6v1c0,0.4,0.1,0.8,0.3,1c0.2,0.3,0.4,0.5,0.8,0.6
			C368.2,107.9,368.7,108,369.1,108z"/>
		<path class="st20" d="M403.7,114.4c-2.1,0-3.7-0.6-4.9-1.8c-1.2-1.2-1.8-2.9-1.8-4.9V105c0-2,0.7-3.6,2.2-4.9c1.4-1.3,3.7-2,6.9-2
			h5.3v-0.8c0-0.6-0.1-1.1-0.3-1.5c-0.2-0.4-0.7-0.6-1.4-0.8c-0.7-0.2-1.8-0.2-3.3-0.2h-7.8v-5.4c1.3-0.5,3-1,4.7-1.3
			c1.7-0.4,4-0.5,6.6-0.5c2.3,0,4.2,0.2,5.9,0.7c1.6,0.5,3,1.4,3.8,2.8c0.8,1.3,1.3,3.3,1.3,5.7v17.6h-7.6l-1.4-2.7
			c-0.3,0.3-0.7,0.6-1.2,1c-0.5,0.3-1,0.6-1.7,0.9c-0.6,0.3-1.4,0.5-2.3,0.7C405.8,114.4,404.7,114.4,403.7,114.4z M408.7,108
			c0.2,0,0.3,0,0.5,0c0.2,0,0.4-0.1,0.6-0.1c0.2,0,0.4-0.1,0.6-0.1c0.2,0,0.3-0.1,0.5-0.2c0.1-0.1,0.2-0.1,0.3-0.1v-4.8l-2.1,0.3
			c-0.9,0.1-1.6,0.4-2.1,0.7c-0.5,0.3-0.7,0.9-0.7,1.6v1c0,0.4,0.1,0.8,0.3,1c0.2,0.3,0.4,0.5,0.8,0.6
			C407.8,107.9,408.2,108,408.7,108z"/>
		<path class="st20" d="M434.1,125.8l2.6-11.7c-2,0-3.5-0.3-4.7-1s-2.3-1.5-3-2.8c-0.7-1.1-1.2-2.5-1.5-3.9l-4.1-18.9h9.9l3,16.9
			c0.1,0.4,0.2,0.7,0.3,0.9c0.1,0.2,0.3,0.4,0.5,0.6c0.2,0.1,0.4,0.2,0.6,0.3c0.2,0.1,0.4,0.1,0.6,0.1l3.4-18.9h9.8l-6.8,33.4
			l-2.5,4.9L434.1,125.8L434.1,125.8z"/>
		<path class="st20" d="M461.3,114.4c-2.3,0-4.1-0.7-5.4-2.2c-1.3-1.4-2-3.4-2-5.7V87.7h9.5v15.9c0,1,0.2,1.7,0.7,2.1
			c0.5,0.3,1.1,0.5,1.8,0.5c0.5,0,1.1-0.1,1.8-0.4c0.7-0.3,1.3-0.6,1.7-1.1V87.7h9.5v26.6h-8l-1.5-2.6c-1.1,0.7-2.4,1.3-3.8,2
			C464.4,114.2,462.9,114.4,461.3,114.4z"/>
		<path class="st20" d="M492.3,114.4c-2.1,0-3.7-0.4-5.1-1.2c-1.4-0.8-2.5-2.3-3.2-4.2c-0.7-2-1.1-4.5-1.1-7.8c0-3.3,0.3-6,0.8-8
			c0.6-2.1,1.5-3.6,3.1-4.5c1.4-1,3.5-1.4,6.1-1.4c1,0,2.1,0.1,3.1,0.3c1,0.2,2,0.4,2.8,0.7V76.7h9.5v37.6h-8.1l-1.4-2.5
			c-0.6,0.5-1.2,1-2,1.4c-0.7,0.4-1.4,0.7-2.2,0.9C493.9,114.3,493.1,114.4,492.3,114.4z M495.8,106.8c0.6,0,1.2-0.1,1.7-0.3
			c0.5-0.2,0.9-0.4,1.1-0.6V95.1c-0.3-0.2-0.7-0.3-1.2-0.5c-0.5-0.2-1-0.3-1.4-0.3c-0.9,0-1.6,0.1-2.2,0.4c-0.5,0.3-0.9,0.9-1.1,1.8
			c-0.2,0.9-0.3,2.4-0.3,4.2s0.1,3.2,0.3,4c0.2,0.8,0.6,1.4,1.1,1.7C494.3,106.7,495,106.8,495.8,106.8z"/>
		<path class="st20" d="M518.5,114.4c-2.1,0-3.7-0.6-4.9-1.8s-1.8-2.9-1.8-4.9V105c0-2,0.7-3.6,2.2-4.9c1.4-1.3,3.7-2,6.9-2h5.3
			v-0.8c0-0.6-0.1-1.1-0.3-1.5c-0.2-0.4-0.7-0.6-1.4-0.8c-0.7-0.2-1.8-0.2-3.3-0.2h-7.7v-5.4c1.3-0.5,3-1,4.7-1.3
			c1.7-0.4,4-0.5,6.6-0.5c2.3,0,4.2,0.2,5.9,0.7c1.6,0.5,3,1.4,3.8,2.8c0.8,1.3,1.3,3.3,1.3,5.7v17.6H528l-1.4-2.7
			c-0.3,0.3-0.7,0.6-1.2,1c-0.5,0.3-1,0.6-1.7,0.9c-0.6,0.3-1.4,0.5-2.3,0.7C520.5,114.4,519.5,114.4,518.5,114.4z M523.5,108
			c0.2,0,0.3,0,0.5,0s0.4-0.1,0.6-0.1c0.2,0,0.4-0.1,0.6-0.1c0.2,0,0.3-0.1,0.5-0.2c0.1-0.1,0.2-0.1,0.3-0.1v-4.8l-2.1,0.3
			c-0.9,0.1-1.6,0.4-2.1,0.7c-0.5,0.3-0.7,0.9-0.7,1.6v1c0,0.4,0.1,0.8,0.3,1c0.2,0.3,0.4,0.5,0.8,0.6
			C522.6,107.9,523,108,523.5,108z"/>
		<path class="st20" d="M540.8,104.1l-1.1-26.4h9.5l-1.3,26.4H540.8z M541.5,114.2c-0.8,0-1.2-0.4-1.2-1.1v-5.7
			c0-0.8,0.4-1.2,1.2-1.2h5.5c0.8,0,1.2,0.4,1.2,1.2v5.7c0,0.4-0.1,0.7-0.3,0.9c-0.2,0.2-0.5,0.2-0.9,0.2L541.5,114.2L541.5,114.2z"
			/>
	</g>
	<g>
		<path class="st25" d="M2021.7,1149.9c4.1-26.6-13.3-52.2-40-57.9c-5.1-1.1-10.4-1.3-15.6-0.9c-5.3-17.7-19.8-31.3-38.4-35.2
			c-7.3-1.5-14.8-1.5-21.9,0.1c-7.3-11.6-19.9-19.2-33.9-20.2c-18-1.2-34.2,8.5-41.8,24c-28.3-7.3-56.7,10.8-62.7,39
			c-0.6,3.1-2.1,6.6-3.2,8.7c-32.6-4.6-63.8,16.8-70.8,49.6c-2.4,11.2,0.9,25.2,5,37.8c-15.4,2.6-28.4,14.4-31.8,30.5
			c-4.5,21.1,9,42,30.2,46.5c10.4,2.3,21,0.1,29.6-5.6c7.3,9.2,17.6,15.7,29.4,18.2c13.3,2.9,27.1,0.2,38.3-7
			c15.6,20.4,38.3,35.6,65.4,41.4c55.5,11.8,110.3-20.1,128.5-72.4c3.1,1.3,6.3,2.4,9.5,3.1c27.6,5.9,54.9-11.8,60.8-39.5
			C2064.1,1183.3,2047.8,1157,2021.7,1149.9z M1974.2,1229c0,0.1-0.1,0.2-0.1,0.3l0,0c-0.1,0.4-0.2,0.8-0.3,1.3l-0.8,3.5
			c-12.9,47.4-60.9,77.2-109.6,66.8c-50.4-10.7-82.7-60.5-72-110.8s60.5-82.7,110.8-72C1952.7,1129,1984.9,1178.7,1974.2,1229z
			 M2040.7,1206.3c-3.8,17.9-21.5,29.4-39.3,25.6c-3.1-0.6-6-1.7-8.6-3.2c10.2-58.7-28-115.6-86.7-128.1
			c-60.1-12.7-119.5,25.8-132.3,85.9c-5.6,26.8-1.2,53.4,10.8,75.7c-7.3,4.6-16.1,6.4-24.7,4.5c-10.2-2.2-18.6-8.8-23-18.3l-6.2-13
			l-9,11.2c-5,6.3-13,9.1-20.7,7.5c-11.4-2.5-18.7-13.7-16.2-25c2.5-11.4,13.7-18.7,25-16.2l5.2,1.1l3.5-4.1
			c3.6-4.2,2.1-8.2,0.4-12.5c-2.4-6.4-9.6-25.9-7.4-36.5c5.1-24.4,29.3-40,53.7-34.8c14.6,3.1,20.1-22.4,20.4-23.4
			c3.8-17.9,21.5-29.4,39.3-25.6c2.4,0.5,4.8,1.3,7.2,2.5l10.2,4.7l2.6-10.9c2.8-12.2,13.9-20.4,26.3-19.6c9.9,0.6,18.5,7.1,22,16.2
			l3.3,8.6l8.5-3.5c6.2-2.5,12.8-3.1,19.3-1.7c14.2,3,24.6,14.7,26.1,29l1.1,10.9l10.5-3.1c5.2-1.5,10.9-1.7,16.3-0.6
			c17.9,3.8,29.4,21.5,25.6,39.3c-1.5,7,4.6,16.4,11.6,17.9C2033,1170.7,2044.5,1188.3,2040.7,1206.3z"/>
		<ellipse class="st25" cx="1855.9" cy="1195.5" rx="15.1" ry="15.1"/>
		<ellipse class="st25" cx="1914.1" cy="1197.2" rx="15.1" ry="15.1"/>
		<path class="st25" d="M1912.1,1228.3c-3-0.6-6,1.3-6.5,4.4c-0.3,1.5-3.6,14.6-21.7,14.2c-19.3-0.5-23.1-12.6-23.3-13.2
			c-0.8-3-3.8-4.7-6.8-3.9c-3,0.7-4.7,3.8-4,6.8c0.2,0.8,5.6,20.7,33.8,21.6c0.4,0,0.8,0,1.2,0c21.5,0,30.1-15,31.6-23.1
			C1917.2,1231.8,1915.2,1228.9,1912.1,1228.3z"/>
	</g>
	<g>
		<path class="st25" d="M2060.7,1585.2c-0.2,0-0.4,0-0.7,0c-23.7-0.2-49.4-11.2-74.5-31.8l-60.8-50c0,0-0.1,0-0.1-0.1l-0.3-0.3l0,0
			c-4.2-3.8-3-8.5-1.1-10.8c0-0.1,4.7-5.5,10.8-1l0,0c0,0,0.2,0.1,0.5,0.4c0,0,0.1,0.1,0.1,0.1l0.6,0.5c0,0,0.1,0.1,0.1,0.1
			c3.8,3.1,17.4,14.3,59.9,49.3c22.3,18.3,44.8,28.1,64.9,28.3c16.6,0.2,31.4-6.4,41.5-18.5c9.9-11.7,14.6-27.8,13-44.1
			c-1.3-12.8-7-31.7-27-49c-3.2-2.8-3.6-7.6-0.8-10.9c2.8-3.2,7.6-3.6,10.9-0.8c18.6,16.1,30.1,37.1,32.3,59.1
			c2.1,20.4-4,40.7-16.5,55.6C2100.4,1576.7,2081.7,1585.2,2060.7,1585.2z"/>
		<path class="st25" d="M1986.4,1526.7c-1.7,0-3.4-0.6-4.9-1.7l-60-49.3c-3.3-2.7-3.8-7.5-1.1-10.8s7.5-3.8,10.8-1.1l60,49.3
			c3.3,2.7,3.8,7.5,1.1,10.8C1990.9,1525.7,1988.7,1526.7,1986.4,1526.7z"/>
		<path class="st25" d="M1998.7,1511.7c-1.7,0-3.5-0.6-4.9-1.8l-60-49.4c-3.3-2.7-3.8-7.6-1.1-10.8c2.7-3.3,7.6-3.8,10.8-1.1
			l60,49.4c3.3,2.7,3.8,7.6,1.1,10.8C2003.2,1510.7,2001,1511.7,1998.7,1511.7z"/>
		<path class="st25" d="M2023.4,1481.6c-1.7,0-3.5-0.6-4.9-1.8l-30-24.6c-3.3-2.7-3.8-7.6-1.1-10.8c2.7-3.3,7.6-3.8,10.8-1.1
			l30,24.6c3.3,2.7,3.8,7.6,1.1,10.8C2027.8,1480.7,2025.6,1481.6,2023.4,1481.6z"/>
		<path class="st25" d="M2011.1,1496.7c-1.7,0-3.5-0.6-4.9-1.8l-60-49.4c-3.3-2.7-3.8-7.6-1.1-10.8c2.7-3.3,7.6-3.8,10.8-1.1
			l60,49.4c3.3,2.7,3.8,7.6,1.1,10.8C2015.5,1495.8,2013.3,1496.7,2011.1,1496.7z"/>
	</g>
	<g>
		<path class="st25" d="M1718.5,1576.1c-3.3,0-6.5-0.2-9.6-0.6c-21.1-2.5-38.9-13.3-50-30.5c-10.6-16.4-14-37.2-9.4-57.2
			c5-21.6,19-40.9,39.4-54.5c3.5-2.4,8.3-1.4,10.7,2.1c2.4,3.5,1.4,8.3-2.1,10.7c-22,14.6-30.1,32.7-33,45.2
			c-3.7,15.9-1,32.5,7.4,45.4c8.6,13.3,22.4,21.6,38.9,23.6c20,2.4,43.5-4.5,67.9-19.9c29.4-18.5,46.1-29,55.6-35l11.1-7
			c0.1-0.1,0.2-0.1,0.3-0.2c0,0,0.1,0,0.1,0l0,0c5-2.9,9.1-0.2,10.7,2.3c0,0.1,3.8,6.2-2.5,10.7l0,0c0,0-0.1,0.1-0.2,0.1
			c-0.1,0.1-0.2,0.1-0.3,0.2l-0.7,0.4c-0.1,0.1-0.3,0.2-0.4,0.2c-4.2,2.6-18.6,11.7-65.4,41.1
			C1763,1568.3,1739.6,1576.1,1718.5,1576.1z"/>
		<path class="st25" d="M1790.1,1526.9c-2.6,0-5.1-1.3-6.5-3.6c-2.3-3.6-1.2-8.4,2.4-10.6l65.8-41.4c3.6-2.3,8.4-1.2,10.6,2.4
			c2.3,3.6,1.2,8.4-2.4,10.6l-65.8,41.4C1792.9,1526.5,1791.5,1526.9,1790.1,1526.9z"/>
		<path class="st25" d="M1779.7,1510.5c-2.6,0-5.1-1.3-6.5-3.6c-2.3-3.6-1.2-8.4,2.4-10.6l65.8-41.4c3.6-2.3,8.3-1.2,10.6,2.4
			c2.3,3.6,1.2,8.4-2.4,10.6l-65.8,41.4C1782.6,1510.1,1781.1,1510.5,1779.7,1510.5z"/>
		<path class="st25" d="M1759.1,1477.5c-2.6,0-5.1-1.3-6.5-3.6c-2.3-3.6-1.2-8.4,2.4-10.6l32.8-20.6c3.6-2.3,8.4-1.2,10.6,2.4
			c2.3,3.6,1.2,8.4-2.4,10.6l-32.8,20.6C1761.9,1477.1,1760.5,1477.5,1759.1,1477.5z"/>
		<path class="st25" d="M1769.5,1494c-2.6,0-5.1-1.3-6.5-3.6c-2.3-3.6-1.2-8.3,2.4-10.6l65.7-41.5c3.6-2.3,8.3-1.2,10.6,2.4
			c2.3,3.6,1.2,8.3-2.4,10.6l-65.7,41.5C1772.3,1493.7,1770.9,1494,1769.5,1494z"/>
	</g>
	<g>
		<path class="st20" d="M1706.1,1695l1.1,26.4h-9.5l1.3-26.4H1706.1z M1705.4,1684.7c0.8,0,1.2,0.4,1.2,1.1v5.7
			c0,0.8-0.4,1.2-1.2,1.2h-5.5c-0.8,0-1.2-0.4-1.2-1.2v-5.7c0-0.4,0.1-0.7,0.3-0.9c0.2-0.2,0.5-0.2,0.9-0.2H1705.4z"/>
		<path class="st20" d="M1711,1711.4l4.3-36.6h8.9l7.5,25.8l7.5-25.8h8.8l4.4,36.6h-9.2l-2.8-23.5h1.3l-5.7,23.5h-8.9l-5.9-23.5h1.5
			l-2.8,23.5H1711z"/>
		<path class="st20" d="M1763.3,1711.7c-2.3,0-4.1-0.7-5.4-2.2c-1.3-1.4-2-3.4-2-5.7v-18.9h9.5v15.9c0,1,0.2,1.7,0.7,2.1
			c0.5,0.3,1.1,0.5,1.8,0.5c0.5,0,1.1-0.1,1.8-0.4s1.3-0.6,1.7-1.1v-16.9h9.5v26.6h-8l-1.5-2.6c-1.1,0.7-2.4,1.3-3.8,2
			C1766.5,1711.4,1765,1711.7,1763.3,1711.7z"/>
		<path class="st20" d="M1796.4,1711.7c-1.6,0-3.2-0.2-4.6-0.6c-1.4-0.4-2.7-1.1-3.7-2.2c-1-1-1.8-2.4-2.4-4.1
			c-0.5-1.7-0.8-3.9-0.8-6.5c0-2.7,0.2-4.9,0.7-6.8c0.5-1.8,1.2-3.2,2.3-4.3c1-1,2.3-1.8,3.7-2.3c1.4-0.4,3.2-0.6,5-0.6
			c1.7,0,3.4,0.1,4.8,0.3c1.4,0.2,3,0.6,4.7,1.2v5.4h-6.5c-1.4,0-2.5,0.2-3.3,0.6s-1.3,1-1.6,2.1c-0.3,0.9-0.4,2.4-0.4,4.2
			c0,1.8,0.1,3.2,0.4,4.1c0.3,0.9,0.8,1.5,1.5,1.8c0.8,0.3,2,0.4,3.4,0.4h6.7v5.3c-0.8,0.3-1.8,0.6-3,0.9c-1.1,0.3-2.4,0.5-3.6,0.6
			C1798.7,1711.6,1797.6,1711.7,1796.4,1711.7z"/>
		<path class="st20" d="M1809.7,1711.4v-37.6h9.5v13.5c0.7-0.7,1.8-1.4,3.3-2.1c1.4-0.6,2.9-0.9,4.3-0.9c2.1,0,3.7,0.4,4.9,1.2
			c1.2,0.8,2.1,2,2.5,3.4c0.5,1.4,0.7,3.2,0.7,5.2v17.2h-9.5v-16c0-0.6-0.1-1.1-0.4-1.5c-0.2-0.4-0.6-0.6-0.9-0.7
			c-0.3-0.1-0.8-0.2-1.2-0.2s-0.8,0.1-1.3,0.2c-0.4,0.1-0.9,0.3-1.2,0.6c-0.3,0.3-0.7,0.5-1,0.7v16.9h-9.5V1711.4z"/>
		<path class="st20" d="M1845.2,1711.7c-2.1,0-3.7-0.6-4.9-1.8c-1.2-1.2-1.8-2.9-1.8-4.9v-2.7c0-2,0.7-3.6,2.2-4.9
			c1.4-1.3,3.7-2,6.9-2h5.3v-0.8c0-0.6-0.1-1.1-0.3-1.5c-0.2-0.4-0.7-0.6-1.4-0.8c-0.7-0.1-1.8-0.2-3.3-0.2h-7.7v-5.4
			c1.3-0.5,3-1,4.7-1.3c1.7-0.4,4-0.5,6.6-0.5c2.3,0,4.2,0.2,5.9,0.7s3,1.4,3.8,2.8c0.8,1.3,1.3,3.3,1.3,5.7v17.6h-7.6l-1.4-2.7
			c-0.3,0.3-0.7,0.6-1.2,1c-0.5,0.3-1,0.6-1.7,0.9c-0.6,0.3-1.4,0.5-2.3,0.7C1847.3,1711.6,1846.3,1711.7,1845.2,1711.7z
			 M1850.2,1705.2c0.2,0,0.3,0,0.5,0s0.4-0.1,0.6-0.1s0.4-0.1,0.6-0.1s0.3-0.1,0.5-0.2c0.2-0.1,0.2-0.1,0.3-0.1v-4.8l-2.1,0.3
			c-0.9,0.1-1.6,0.4-2.1,0.7c-0.4,0.3-0.7,0.9-0.7,1.6v1c0,0.4,0.1,0.8,0.3,1c0.2,0.3,0.4,0.5,0.8,0.6
			C1849.4,1705.2,1849.8,1705.2,1850.2,1705.2z"/>
		<path class="st20" d="M1876.6,1711.7c-0.9,0-1.9,0-2.9-0.1c-0.9-0.1-1.8-0.2-2.8-0.3c-0.9-0.1-1.7-0.3-2.6-0.5
			c-0.8-0.2-1.5-0.4-2.2-0.7v-5.5h12.3c0.4,0,0.7,0,0.9-0.1c0.2-0.1,0.3-0.2,0.4-0.3c0.1-0.1,0.1-0.3,0.1-0.5v-0.6
			c0-0.3-0.1-0.6-0.3-0.7c-0.2-0.2-0.7-0.3-1.5-0.3h-4.4c-1.4,0-2.9-0.2-4.1-0.7s-2.3-1.3-3-2.5c-0.7-1.1-1.1-2.6-1.1-4.5v-1.6
			c0-1.7,0.3-3.2,1-4.3c0.6-1.2,1.8-2.2,3.5-2.8c1.6-0.6,4-0.9,7.1-0.9c1.2,0,2.5,0.1,3.7,0.2c1.2,0.1,2.4,0.3,3.5,0.6
			c1,0.2,1.8,0.5,2.5,0.7v5.5h-11.7c-0.5,0-0.8,0.1-1.1,0.2c-0.2,0.1-0.3,0.4-0.3,0.7v0.6c0,0.3,0.1,0.5,0.2,0.6
			c0.1,0.1,0.3,0.2,0.6,0.3c0.3,0.1,0.7,0.1,1.2,0.1h4.6c2.9,0,4.9,0.6,6.1,2c1.1,1.3,1.7,3.1,1.7,5.3v2.7c0,1.7-0.4,3.2-1.2,4.3
			s-2.2,1.8-3.8,2.4C1881.3,1711.4,1879.2,1711.7,1876.6,1711.7z"/>
		<path class="st20" d="M1911,1723.7c-1.6,0-3.1-0.2-4.4-0.7c-1.3-0.5-2.4-1.2-3.1-2.2c-0.8-0.9-1.1-2.1-1.1-3.4v-0.5
			c0-1.3,0.4-2.5,1.2-3.5s1.8-1.7,3.1-2.3s2.7-0.8,4.1-0.8l3,2.8c-0.5,0-1,0.1-1.3,0.2c-0.4,0.2-0.6,0.4-0.8,0.6
			c-0.2,0.3-0.2,0.6-0.2,0.9v0.2c0,0.5,0.2,1,0.6,1.3c0.4,0.4,1,0.6,1.8,0.6h4.3c0.7,0,1.3-0.1,1.7-0.4s0.7-0.7,0.7-1.2v-0.6
			c0-0.4-0.1-0.7-0.3-0.9c-0.2-0.2-0.5-0.4-0.8-0.6c-0.4-0.1-0.8-0.2-1.2-0.2h-4.5c-3.6,0-6.2-0.6-7.8-1.8s-2.5-2.8-2.5-4.5
			c0-1.3,0.4-2.5,1.1-3.5s1.8-1.6,3.2-2c-0.9-0.6-1.6-1.2-2.3-2.1c-0.6-0.8-1-1.6-1.2-2.6c-0.3-0.9-0.4-1.8-0.4-2.9
			c0-2,0.4-3.5,1.2-4.8c0.8-1.3,2.1-2.3,3.7-3c1.6-0.7,3.9-1,6.7-1h14.5v5.2l-2.8,0.9c0.2,0.3,0.4,0.7,0.6,1.1
			c0.1,0.4,0.3,0.9,0.3,1.5c0.1,0.6,0.1,1.2,0.1,2c0,1.6-0.3,3.1-1,4.3s-1.7,2.2-3.1,2.9c-1.4,0.7-3.3,1-5.5,1h-5
			c-0.5,0-1,0.1-1.3,0.3c-0.4,0.2-0.6,0.5-0.6,0.9s0.2,0.7,0.6,0.8c0.4,0.1,0.8,0.2,1.3,0.2h6.4c2.1,0,3.7,0.3,5.2,0.8
			c1.4,0.5,2.7,1.4,3.5,2.7c0.8,1.2,1.2,2.9,1.2,5v0.4c0,2.8-0.8,4.9-2.5,6.5c-1.6,1.5-4.3,2.4-7.9,2.4h-8.5V1723.7z M1914.6,1696.6
			h2.7c0.5,0,1-0.1,1.3-0.2c0.3-0.2,0.5-0.4,0.7-0.8c0.2-0.4,0.2-0.8,0.2-1.3s-0.1-1-0.2-1.3c-0.1-0.3-0.4-0.6-0.7-0.7
			c-0.3-0.1-0.8-0.2-1.3-0.2h-2.7c-0.8,0-1.4,0.2-1.7,0.5c-0.3,0.3-0.5,0.9-0.5,1.8c0,0.8,0.2,1.4,0.5,1.8
			C1913.2,1696.6,1913.8,1696.6,1914.6,1696.6z"/>
		<path class="st20" d="M1932.8,1711.4v-26.6h7.4l2.2,3.7c0.8-1.1,1.7-2.1,2.8-2.9c1-0.8,2.3-1.2,3.8-1.2c0.3,0,0.6,0,0.9,0
			c0.4,0,0.7,0.1,1,0.2v9.9c-0.5-0.1-1.1-0.1-1.7-0.1c-0.6,0-1.1,0-1.5,0c-0.8,0-1.5,0.1-2.2,0.2c-0.6,0.1-1.2,0.4-1.7,0.6
			c-0.5,0.3-0.9,0.7-1.3,1.2v15L1932.8,1711.4L1932.8,1711.4z"/>
		<path class="st20" d="M1958.9,1711.7c-2.1,0-3.7-0.6-4.9-1.8c-1.2-1.2-1.8-2.9-1.8-4.9v-2.7c0-2,0.7-3.6,2.2-4.9
			c1.4-1.3,3.7-2,6.9-2h5.3v-0.8c0-0.6-0.1-1.1-0.3-1.5c-0.2-0.4-0.7-0.6-1.4-0.8c-0.7-0.1-1.8-0.2-3.3-0.2h-7.7v-5.4
			c1.3-0.5,3-1,4.7-1.3c1.7-0.4,4-0.5,6.6-0.5c2.3,0,4.2,0.2,5.9,0.7s3,1.4,3.8,2.8c0.8,1.3,1.3,3.3,1.3,5.7v17.6h-7.6l-1.4-2.7
			c-0.3,0.3-0.7,0.6-1.2,1c-0.5,0.3-1,0.6-1.7,0.9c-0.6,0.3-1.4,0.5-2.3,0.7C1961,1711.6,1960.1,1711.7,1958.9,1711.7z M1964,1705.2
			c0.2,0,0.3,0,0.5,0c0.2,0,0.4-0.1,0.6-0.1s0.4-0.1,0.6-0.1c0.2,0,0.3-0.1,0.5-0.2c0.2-0.1,0.2-0.1,0.3-0.1v-4.8l-2.1,0.3
			c-0.9,0.1-1.6,0.4-2.1,0.7s-0.7,0.9-0.7,1.6v1c0,0.4,0.1,0.8,0.3,1c0.2,0.3,0.4,0.5,0.8,0.6
			C1963,1705.2,1963.4,1705.2,1964,1705.2z"/>
		<path class="st20" d="M1991.1,1711.7c-1.6,0-3.2-0.2-4.6-0.6c-1.4-0.4-2.7-1.1-3.7-2.2c-1-1-1.8-2.4-2.4-4.1
			c-0.5-1.7-0.8-3.9-0.8-6.5c0-2.7,0.2-4.9,0.7-6.8c0.5-1.8,1.2-3.2,2.3-4.3c1-1,2.3-1.8,3.7-2.3c1.4-0.4,3.2-0.6,5-0.6
			c1.7,0,3.4,0.1,4.8,0.3c1.4,0.2,3,0.6,4.7,1.2v5.4h-6.5c-1.4,0-2.5,0.2-3.3,0.6s-1.3,1-1.6,2.1c-0.3,0.9-0.4,2.4-0.4,4.2
			c0,1.8,0.1,3.2,0.4,4.1c0.3,0.9,0.8,1.5,1.5,1.8c0.8,0.3,2,0.4,3.4,0.4h6.7v5.3c-0.8,0.3-1.8,0.6-3,0.9c-1.1,0.3-2.4,0.5-3.6,0.6
			C1993.4,1711.6,1992.2,1711.7,1991.1,1711.7z"/>
		<path class="st20" d="M2005.5,1681.5c-0.8,0-1.2-0.4-1.2-1.1v-5.4c0-0.8,0.4-1.2,1.2-1.2h7.5c0.4,0,0.6,0.1,0.8,0.3
			c0.2,0.2,0.3,0.5,0.3,0.9v5.4c0,0.7-0.4,1.1-1.1,1.1L2005.5,1681.5L2005.5,1681.5z M2004.4,1711.4v-26.6h9.5v26.6H2004.4z"/>
		<path class="st20" d="M2024.3,1711.7c-2.1,0-3.7-0.6-4.9-1.8c-1.2-1.2-1.8-2.9-1.8-4.9v-2.7c0-2,0.7-3.6,2.2-4.9
			c1.4-1.3,3.7-2,6.9-2h5.3v-0.8c0-0.6-0.1-1.1-0.3-1.5c-0.2-0.4-0.7-0.6-1.4-0.8c-0.7-0.1-1.8-0.2-3.3-0.2h-7.7v-5.4
			c1.3-0.5,3-1,4.7-1.3c1.7-0.4,4-0.5,6.6-0.5c2.3,0,4.2,0.2,5.9,0.7c1.6,0.5,3,1.4,3.8,2.8c0.8,1.3,1.3,3.3,1.3,5.7v17.6h-7.6
			l-1.4-2.7c-0.3,0.3-0.7,0.6-1.2,1c-0.5,0.3-1,0.6-1.7,0.9c-0.6,0.3-1.4,0.5-2.3,0.7C2026.3,1711.6,2025.3,1711.7,2024.3,1711.7z
			 M2029.3,1705.2c0.2,0,0.3,0,0.5,0s0.4-0.1,0.6-0.1c0.2,0,0.4-0.1,0.6-0.1s0.3-0.1,0.5-0.2c0.2-0.1,0.2-0.1,0.3-0.1v-4.8l-2.1,0.3
			c-0.9,0.1-1.6,0.4-2.1,0.7c-0.4,0.3-0.7,0.9-0.7,1.6v1c0,0.4,0.1,0.8,0.3,1c0.2,0.3,0.4,0.5,0.8,0.6
			C2028.4,1705.2,2028.8,1705.2,2029.3,1705.2z"/>
		<path class="st20" d="M2055.6,1711.7c-0.9,0-2,0-2.9-0.1c-0.9-0.1-1.8-0.2-2.8-0.3s-1.7-0.3-2.6-0.5s-1.5-0.4-2.2-0.7v-5.5h12.3
			c0.4,0,0.7,0,0.9-0.1c0.2-0.1,0.3-0.2,0.4-0.3c0.1-0.1,0.1-0.3,0.1-0.5v-0.6c0-0.3-0.1-0.6-0.3-0.7c-0.2-0.2-0.7-0.3-1.5-0.3h-4.4
			c-1.4,0-2.9-0.2-4.1-0.7c-1.2-0.5-2.3-1.3-3-2.5c-0.7-1.1-1.1-2.6-1.1-4.5v-1.6c0-1.7,0.3-3.2,1-4.3c0.6-1.2,1.8-2.2,3.5-2.8
			c1.6-0.6,4-0.9,7.1-0.9c1.2,0,2.5,0.1,3.7,0.2c1.2,0.1,2.4,0.3,3.5,0.6c1,0.2,1.8,0.5,2.5,0.7v5.5h-11.7c-0.5,0-0.8,0.1-1.1,0.2
			c-0.2,0.1-0.3,0.4-0.3,0.7v0.6c0,0.3,0.1,0.5,0.2,0.6c0.1,0.1,0.3,0.2,0.6,0.3s0.7,0.1,1.2,0.1h4.6c2.9,0,4.9,0.6,6.1,2
			c1.1,1.3,1.7,3.1,1.7,5.3v2.7c0,1.7-0.4,3.2-1.2,4.3s-2.2,1.8-3.8,2.4C2060.3,1711.4,2058.2,1711.7,2055.6,1711.7z"/>
		<path class="st20" d="M2071.6,1701.3l-1.1-26.4h9.5l-1.3,26.4H2071.6z M2072.3,1711.5c-0.8,0-1.2-0.4-1.2-1.1v-5.7
			c0-0.8,0.4-1.2,1.2-1.2h5.5c0.8,0,1.2,0.4,1.2,1.2v5.7c0,0.4-0.1,0.7-0.3,0.9c-0.2,0.2-0.5,0.2-0.9,0.2H2072.3z"/>
	</g>
	<path class="st5" d="M1077.6,457.2c1-0.1,2.2,0,3.3,0.4c4,1.3,6.2,5.7,4.8,9.8l-20.4,59.9l-62-32.7c-3.8-2-5.2-6.7-3.2-10.4
		c2-3.8,6.7-5.2,10.4-3.2l46,24.3l14.6-42.9C1072.2,459.5,1074.7,457.5,1077.6,457.2z"/>
	<path class="st5" d="M1052.3,506.3c-3,0-5.9-1.8-7.1-4.7c-1.5-3.7-3.2-7.4-4.8-11.1c-1.7-3.9,0-8.4,3.9-10.2
		c3.9-1.7,8.4,0,10.2,3.9c1.7,3.8,3.4,7.6,5,11.5c1.6,3.9-0.2,8.4-4.1,10.1C1054.3,506.1,1053.3,506.3,1052.3,506.3z M1038.1,475.6
		c-2.8,0-5.5-1.5-6.9-4.2c-1.8-3.6-3.7-7.2-5.6-10.7c-2-3.7-0.7-8.4,3.1-10.4c3.7-2,8.4-0.7,10.4,3.1c2,3.6,4,7.4,5.8,11.1
		c1.9,3.8,0.4,8.4-3.4,10.4C1040.5,475.3,1039.3,475.6,1038.1,475.6z M1021.6,446.1c-2.6,0-5.1-1.3-6.6-3.7
		c-2.1-3.4-4.3-6.9-6.4-10.2c-2.3-3.6-1.3-8.3,2.3-10.6c3.6-2.3,8.3-1.3,10.6,2.3c2.3,3.5,4.5,7,6.7,10.6c2.2,3.6,1.1,8.4-2.6,10.6
		C1024.3,445.7,1022.9,446.1,1021.6,446.1z M1002.8,417.9c-2.4,0-4.7-1.1-6.2-3.2c-2.3-3.2-4.8-6.5-7.2-9.7
		c-2.6-3.4-1.9-8.2,1.4-10.8c3.4-2.6,8.2-1.9,10.8,1.4c2.5,3.3,5,6.7,7.5,10c2.5,3.4,1.7,8.3-1.7,10.7
		C1006,417.4,1004.4,417.9,1002.8,417.9z M982,391.2c-2.2,0-4.4-0.9-5.9-2.7c-2.6-3.1-5.3-6.1-7.9-9.1c-2.8-3.2-2.6-8,0.6-10.9
		c3.2-2.8,8-2.6,10.9,0.6c2.8,3.1,5.5,6.3,8.2,9.5c2.7,3.2,2.3,8.1-0.9,10.8C985.5,390.6,983.8,391.2,982,391.2z M959.2,366.2
		c-2,0-4-0.8-5.5-2.3c-2.8-2.9-5.7-5.7-8.6-8.5c-3.1-2.9-3.2-7.8-0.2-10.9c2.9-3.1,7.8-3.2,10.9-0.2c3,2.9,6,5.8,8.9,8.8
		c3,3,2.9,7.9-0.1,10.9C963.1,365.5,961.1,366.2,959.2,366.2z M934.5,343c-1.8,0-3.6-0.6-5.1-1.9c-3-2.6-6.1-5.3-9.2-7.8
		c-3.3-2.7-3.8-7.6-1-10.8c2.7-3.3,7.6-3.7,10.8-1c3.2,2.6,6.4,5.4,9.6,8.1c3.2,2.8,3.5,7.7,0.7,10.9
		C938.8,342.1,936.7,343,934.5,343z M908.1,321.8c-1.6,0-3.2-0.5-4.6-1.5c-3.2-2.4-6.5-4.8-9.8-7.1c-3.5-2.4-4.3-7.2-1.9-10.7
		c2.4-3.5,7.2-4.3,10.7-1.9c3.4,2.4,6.8,4.9,10.2,7.3c3.4,2.5,4.1,7.4,1.6,10.8C912.8,320.7,910.5,321.8,908.1,321.8z M880.2,302.6
		c-1.4,0-2.8-0.4-4.1-1.2c-3.4-2.1-6.9-4.3-10.3-6.3c-3.7-2.2-4.9-6.9-2.7-10.5c2.2-3.7,6.9-4.9,10.5-2.7c3.6,2.1,7.2,4.3,10.7,6.6
		c3.6,2.3,4.7,7,2.4,10.6C885.3,301.3,882.8,302.6,880.2,302.6z M418,297.3c-2.6,0-5.2-1.3-6.6-3.7c-2.2-3.6-1-8.4,2.6-10.6
		c3.6-2.1,7.2-4.3,10.8-6.3c3.7-2.1,8.4-0.8,10.5,2.9c2.1,3.7,0.8,8.4-2.9,10.5c-3.5,2-7,4-10.5,6.1
		C420.7,297,419.3,297.3,418,297.3z M850.9,285.6c-1.2,0-2.4-0.3-3.6-0.9c-3.5-1.9-7.2-3.7-10.8-5.5c-3.8-1.9-5.4-6.5-3.5-10.3
		c1.9-3.8,6.5-5.4,10.3-3.5c3.7,1.8,7.5,3.8,11.2,5.7c3.8,2,5.2,6.6,3.2,10.4C856.3,284.1,853.7,285.6,850.9,285.6z M447.7,281
		c-2.8,0-5.5-1.6-6.9-4.3c-1.9-3.8-0.4-8.4,3.4-10.3c3.7-1.9,7.5-3.7,11.3-5.4c3.9-1.8,8.4-0.1,10.2,3.7c1.8,3.9,0.1,8.4-3.7,10.2
		c-3.6,1.7-7.3,3.5-10.9,5.3C450,280.8,448.8,281,447.7,281z M820.4,270.9c-1,0-2.1-0.2-3.1-0.6c-3.7-1.6-7.4-3.2-11.2-4.7
		c-3.9-1.6-5.9-6.1-4.3-10c1.6-3.9,6.1-5.9,10-4.3c3.9,1.6,7.8,3.2,11.6,4.8c3.9,1.7,5.7,6.2,4,10.1
		C826.2,269.2,823.3,270.9,820.4,270.9z M478.5,267.1c-3,0-5.9-1.8-7.1-4.8c-1.6-3.9,0.3-8.4,4.2-10c3.8-1.6,7.8-3.1,11.7-4.6
		c4-1.5,8.4,0.5,9.9,4.5c1.5,4-0.5,8.4-4.5,9.9c-3.8,1.4-7.6,2.9-11.3,4.4C480.4,266.9,479.5,267.1,478.5,267.1z M788.8,258.6
		c-0.8,0-1.7-0.1-2.5-0.4c-3.8-1.3-7.7-2.6-11.5-3.8c-4.1-1.3-6.3-5.6-5-9.6c1.3-4.1,5.6-6.3,9.6-5c4,1.2,8,2.6,11.9,3.9
		c4,1.4,6.2,5.8,4.8,9.8C794.9,256.6,792,258.6,788.8,258.6z M510.3,255.5c-3.3,0-6.3-2.1-7.3-5.4c-1.3-4,0.9-8.4,5-9.7
		c4-1.3,8-2.5,12-3.6c4.1-1.2,8.4,1.2,9.5,5.3c1.2,4.1-1.2,8.4-5.3,9.5c-3.9,1.1-7.7,2.3-11.6,3.5
		C511.9,255.4,511.1,255.5,510.3,255.5z M756.3,248.8c-0.6,0-1.3-0.1-1.9-0.3c-3.9-1-7.9-2-11.8-2.9c-4.1-1-6.7-5.1-5.8-9.2
		c1-4.1,5.1-6.7,9.2-5.8c4.1,0.9,8.2,1.9,12.2,3c4.1,1.1,6.6,5.3,5.5,9.4C762.8,246.5,759.7,248.8,756.3,248.8z M542.9,246.5
		c-3.5,0-6.6-2.4-7.5-5.9c-1-4.1,1.6-8.3,5.7-9.3c4.1-1,8.2-1.9,12.2-2.7c4.2-0.9,8.2,1.8,9.1,6c0.9,4.2-1.8,8.2-6,9.1
		c-3.9,0.8-7.9,1.7-11.8,2.6C544.1,246.4,543.5,246.5,542.9,246.5z M723.2,241.6c-0.5,0-0.9,0-1.4-0.1c-3.9-0.7-8-1.4-11.9-2
		c-4.2-0.6-7.1-4.6-6.5-8.8c0.6-4.2,4.6-7.1,8.8-6.5c4.1,0.6,8.3,1.3,12.4,2c4.2,0.8,7,4.8,6.2,8.9
		C730.1,239,726.9,241.6,723.2,241.6z M576.1,239.9c-3.7,0-7-2.7-7.6-6.5c-0.7-4.2,2.2-8.1,6.4-8.8c4.1-0.6,8.3-1.2,12.4-1.8
		c4.2-0.5,8.1,2.4,8.6,6.7c0.5,4.2-2.4,8.1-6.7,8.6c-4,0.5-8,1.1-12,1.7C576.9,239.9,576.5,239.9,576.1,239.9z M689.7,236.9
		c-0.3,0-0.5,0-0.8,0c-4-0.4-8-0.8-12.1-1c-4.2-0.3-7.4-4-7.1-8.2c0.3-4.2,4-7.4,8.2-7.1c4.1,0.3,8.3,0.7,12.5,1.1
		c4.2,0.4,7.3,4.2,6.9,8.4C696.9,233.9,693.6,236.9,689.7,236.9z M609.7,236c-4,0-7.3-3.1-7.7-7.1c-0.3-4.2,2.8-7.9,7.1-8.3
		c4.1-0.3,8.3-0.6,12.5-0.8c4.3-0.2,7.9,3.1,8.1,7.3c0.2,4.2-3.1,7.9-7.3,8.1c-4,0.2-8.1,0.5-12.1,0.8
		C610.1,236,609.9,236,609.7,236z M655.9,234.8c-0.1,0-0.1,0-0.2,0c-3.6-0.1-7.3-0.1-10.9-0.1l-1.2,0c0,0,0,0,0,0
		c-4.2,0-7.7-3.4-7.7-7.7c0-4.3,3.4-7.7,7.7-7.7l1.2,0c3.8,0,7.5,0,11.3,0.1c4.3,0.1,7.6,3.6,7.5,7.9
		C663.5,231.4,660,234.8,655.9,234.8z"/>
	<path class="st5" d="M1512.5,1592.4c-4.2,0-7.6-3.4-7.7-7.6c-0.1-4.3,3.4-7.7,7.6-7.8c4,0,8.1-0.2,12.1-0.3c4.3-0.2,7.8,3.1,8,7.4
		s-3.1,7.8-7.4,8C1520.9,1592.3,1516.7,1592.4,1512.5,1592.4C1512.5,1592.4,1512.5,1592.4,1512.5,1592.4z M1490.9,1592.2
		c-0.1,0-0.2,0-0.3,0c-4.1-0.1-8.4-0.4-12.5-0.6c-4.2-0.3-7.5-3.9-7.2-8.2c0.3-4.2,3.9-7.5,8.2-7.2c4,0.3,8.1,0.5,12.1,0.6
		c4.2,0.2,7.6,3.7,7.4,8C1498.5,1588.9,1495.1,1592.2,1490.9,1592.2z M1546.3,1590.7c-3.9,0-7.3-3-7.7-7c-0.4-4.2,2.8-8,7-8.3
		c4-0.4,8-0.8,12-1.2c4.2-0.5,8,2.5,8.5,6.8c0.5,4.2-2.5,8-6.8,8.5c-4.1,0.5-8.3,0.9-12.5,1.3
		C1546.7,1590.7,1546.5,1590.7,1546.3,1590.7z M1457.2,1589.7c-0.3,0-0.6,0-0.9,0c-4.1-0.5-8.3-1-12.4-1.6c-4.2-0.6-7.1-4.5-6.6-8.7
		c0.6-4.2,4.5-7.1,8.7-6.6c4,0.6,8,1.1,12,1.5c4.2,0.5,7.3,4.3,6.8,8.5C1464.4,1586.8,1461.1,1589.7,1457.2,1589.7z M1579.9,1586.5
		c-3.7,0-7-2.7-7.6-6.4c-0.7-4.2,2.1-8.2,6.3-8.9c3.9-0.7,8-1.4,11.9-2.1c4.2-0.8,8.2,1.9,9,6.1c0.8,4.2-1.9,8.2-6.1,9
		c-4.1,0.8-8.2,1.5-12.3,2.2C1580.7,1586.5,1580.3,1586.5,1579.9,1586.5z M1423.7,1584.6c-0.5,0-1,0-1.5-0.1
		c-4.1-0.8-8.2-1.6-12.3-2.5c-4.2-0.9-6.8-5-5.9-9.2s5-6.8,9.2-5.9c3.9,0.9,7.9,1.7,11.9,2.4c4.2,0.8,6.9,4.8,6.1,9
		C1430.6,1582.1,1427.3,1584.6,1423.7,1584.6z M1613,1579.7c-3.5,0-6.6-2.4-7.5-5.9c-1-4.1,1.5-8.3,5.6-9.3c3.9-1,7.8-2,11.7-3.1
		c4.1-1.1,8.3,1.3,9.5,5.4c1.1,4.1-1.3,8.3-5.4,9.5c-4,1.1-8.1,2.2-12.1,3.2C1614.3,1579.6,1613.6,1579.7,1613,1579.7z M1390.7,1577
		c-0.7,0-1.4-0.1-2-0.3c-4-1.1-8.1-2.3-12.1-3.5c-4.1-1.2-6.4-5.5-5.1-9.6c1.2-4.1,5.5-6.4,9.6-5.1c3.9,1.2,7.8,2.3,11.7,3.4
		c4.1,1.1,6.5,5.3,5.4,9.4C1397.2,1574.8,1394.1,1577,1390.7,1577z M1358.4,1566.8c-0.9,0-1.7-0.1-2.6-0.5
		c-3.9-1.4-7.9-2.9-11.8-4.4c-4-1.5-5.9-6-4.4-10c1.5-4,6-5.9,10-4.4c3.8,1.5,7.6,2.9,11.4,4.2c4,1.4,6.1,5.8,4.7,9.8
		C1364.5,1564.9,1361.5,1566.8,1358.4,1566.8z M1326.9,1554.2c-1.1,0-2.1-0.2-3.1-0.7c-3.8-1.7-7.6-3.5-11.4-5.3
		c-3.8-1.8-5.4-6.4-3.6-10.3c1.8-3.8,6.4-5.4,10.3-3.6c3.6,1.8,7.3,3.5,11,5.1c3.9,1.7,5.6,6.3,3.9,10.2
		C1332.6,1552.5,1329.8,1554.2,1326.9,1554.2z M1296.5,1539.1c-1.2,0-2.5-0.3-3.7-0.9c-3.7-2-7.3-4.1-10.9-6.1
		c-3.7-2.1-4.9-6.8-2.8-10.5c2.1-3.7,6.8-4.9,10.5-2.8c3.5,2,7,4,10.6,5.9c3.7,2,5.1,6.7,3.1,10.4
		C1301.9,1537.7,1299.2,1539.1,1296.5,1539.1z M1267.4,1521.8c-1.4,0-2.9-0.4-4.2-1.2c-3.5-2.3-7-4.6-10.4-7
		c-3.5-2.4-4.4-7.2-2-10.7c2.4-3.5,7.2-4.4,10.7-2c3.3,2.3,6.7,4.5,10.1,6.7c3.6,2.3,4.6,7.1,2.3,10.6
		C1272.4,1520.6,1269.9,1521.8,1267.4,1521.8z M1239.7,1502.3c-1.6,0-3.3-0.5-4.7-1.6c-3.3-2.5-6.6-5.1-9.9-7.7
		c-3.3-2.7-3.8-7.5-1.2-10.8c2.7-3.3,7.5-3.8,10.8-1.2c3.1,2.5,6.3,5,9.5,7.5c3.4,2.6,4,7.4,1.5,10.8
		C1244.3,1501.3,1242,1502.3,1239.7,1502.3z M1213.5,1480.8c-1.8,0-3.7-0.6-5.1-1.9c-3.1-2.8-6.2-5.6-9.2-8.5
		c-3.1-2.9-3.2-7.8-0.3-10.9c2.9-3.1,7.8-3.2,10.9-0.3c2.9,2.7,5.9,5.5,8.9,8.2c3.2,2.8,3.5,7.7,0.6,10.9
		C1217.8,1479.9,1215.7,1480.8,1213.5,1480.8z M1189.1,1457.3c-2,0-4-0.8-5.5-2.4c-2.9-3-5.8-6.1-8.6-9.1c-2.9-3.1-2.6-8,0.5-10.9
		c3.1-2.9,8-2.6,10.9,0.5c2.7,3,5.5,5.9,8.3,8.8c2.9,3.1,2.9,7.9-0.2,10.9C1193,1456.6,1191.1,1457.3,1189.1,1457.3z M1166.6,1432.1
		c-2.2,0-4.4-1-5.9-2.8c-2.6-3.2-5.3-6.5-7.8-9.8c-2.6-3.4-2-8.2,1.3-10.8c3.4-2.6,8.2-2,10.8,1.3c2.5,3.2,5,6.3,7.6,9.4
		c2.7,3.3,2.2,8.1-1,10.8C1170.1,1431.5,1168.3,1432.1,1166.6,1432.1z M1146.1,1405.2c-2.4,0-4.8-1.1-6.3-3.3
		c-2.4-3.4-4.8-6.9-7.1-10.3c-2.4-3.5-1.4-8.3,2.1-10.7c3.5-2.4,8.3-1.4,10.7,2.2c2.2,3.4,4.5,6.7,6.8,10c2.5,3.5,1.6,8.3-1.9,10.7
		C1149.1,1404.7,1147.6,1405.2,1146.1,1405.2z M1127.6,1376.8c-2.6,0-5.2-1.3-6.6-3.8c-2.1-3.6-4.2-7.2-6.3-10.8
		c-2.1-3.7-0.7-8.4,3-10.5c3.7-2.1,8.4-0.7,10.5,3c2,3.5,4,7,6,10.5c2.2,3.7,1,8.4-2.7,10.6
		C1130.3,1376.5,1129,1376.8,1127.6,1376.8z M1111.5,1347.1c-2.8,0-5.6-1.6-6.9-4.3c-1.8-3.7-3.7-7.5-5.4-11.3
		c-1.8-3.9-0.1-8.4,3.8-10.2c3.9-1.8,8.4-0.1,10.2,3.8c1.7,3.6,3.4,7.3,5.2,10.9c1.9,3.8,0.3,8.4-3.5,10.3
		C1113.8,1346.9,1112.6,1347.1,1111.5,1347.1z M1097.6,1316.3c-3,0-5.9-1.8-7.1-4.8c-1.6-3.8-3.1-7.8-4.5-11.7
		c-1.5-4,0.5-8.4,4.5-9.9c4-1.5,8.4,0.5,9.9,4.5c1.4,3.8,2.9,7.5,4.4,11.3c1.6,3.9-0.3,8.4-4.3,10
		C1099.5,1316.1,1098.6,1316.3,1097.6,1316.3z"/>
	<path class="st5" d="M1579.8,1545.4c-0.1-1,0-2.2,0.4-3.3c1.3-4,5.7-6.2,9.8-4.8l59.9,20.4l-32.7,62c-2,3.8-6.7,5.2-10.4,3.2
		c-3.8-2-5.2-6.7-3.2-10.4l24.3-46l-43-14.6C1582.1,1550.9,1580.1,1548.3,1579.8,1545.4z"/>
</g>
<g id="Layer_2">
</g>
</svg>
