<?xml version="1.0" encoding="utf-8"?>
<!-- Generator: Adobe Illustrator 25.2.3, SVG Export Plug-In . SVG Version: 6.00 Build 0)  -->
<svg version="1.1" xmlns="http://www.w3.org/2000/svg" xmlns:xlink="http://www.w3.org/1999/xlink" x="0px" y="0px"
	 viewBox="0 0 2200 1400" style="enable-background:new 0 0 2200 1400;" xml:space="preserve">
<style type="text/css">
	.st0{fill:#BEA3CC;}
	.st1{fill:#442856;}
	.st2{fill:#D695C0;}
	.st3{fill:#785089;}
	.st4{fill:none;stroke:#442856;stroke-width:15;stroke-miterlimit:10;}
	.st5{fill:#E34D99;}
	.st6{fill:#EC8231;}
	.st7{fill:#76BF60;}
	.st8{fill:#489B91;}
	.st9{fill:none;stroke:#BEA3CC;stroke-width:15;stroke-linecap:round;stroke-miterlimit:10;stroke-dasharray:12,21;}
	.st10{clip-path:url(#SVGID_2_);}
	.st11{fill:none;}
	.st12{font-family:'Exo-Black';}
	.st13{font-size:150px;}
	.st14{fill:none;stroke:#D695C0;stroke-width:16;stroke-miterlimit:10;}
	.st15{fill:none;stroke:#785089;stroke-width:15;stroke-linecap:round;stroke-miterlimit:10;}
	.st16{fill:#C7E2C0;}
	.st17{fill:#9BD2CA;}
	.st18{fill:#FBC089;}
	.st19{fill:#E9A6C9;}
	.st20{fill:#F0CEE2;}
</style>
<g id="Layer_1">
	<g>
		<path class="st5" d="M705.5,907.5c-32.7-62-51.2-132.6-51.2-207.6c0-243.6,195.5-441.6,438.2-445.6V87.7
			c-334.7,4-604.8,276.6-604.8,612.2c0,104,25.9,201.9,71.6,287.6L705.5,907.5z"/>
		<path class="st7" d="M1107.5,254.4c216.8,3.6,395.9,162,431.7,369.4l164.7-25.7c-48.1-287.3-296.3-506.7-596.3-510.3V254.4z"/>
		<path class="st6" d="M1541.5,638.6c2.8,20.1,4.2,40.5,4.2,61.3c0,144.2-68.5,272.5-174.8,353.9l99,134
			c147.2-111.8,242.3-288.8,242.3-487.9c0-29.6-2.1-58.6-6.1-87.1L1541.5,638.6z"/>
		<path class="st8" d="M1358.8,1062.8c-73,52.1-162.3,82.8-258.8,82.8c-165.8,0-310.5-90.6-387.3-224.9l-146.2,80.1
			c105.1,186,304.6,311.5,533.4,311.5c133.6,0,257.2-42.8,357.9-115.4L1358.8,1062.8z"/>
		<circle class="st4" cx="1100" cy="700" r="445.7"/>
		<rect x="654.3" y="254.2" class="st11" width="891.3" height="891.5"/>
		<text transform="matrix(1 0 0 1 960.7264 667.2007)"><tspan x="0" y="0" class="st1 st12 st13">300</tspan><tspan x="-160.3" y="180" class="st1 st12 st13">AYUDAS</tspan></text>
	</g>
</g>
<g id="Layer_2">
</g>
</svg>
