<?xml version="1.0" encoding="utf-8"?>
<!-- Generator: Adobe Illustrator 25.2.3, SVG Export Plug-In . SVG Version: 6.00 Build 0)  -->
<svg version="1.1" xmlns="http://www.w3.org/2000/svg" xmlns:xlink="http://www.w3.org/1999/xlink" x="0px" y="0px"
	 viewBox="0 0 2200 1400" style="enable-background:new 0 0 2200 1400;" xml:space="preserve">
<style type="text/css">
	.st0{fill:#D695C0;}
	.st1{fill:#E34D99;}
	.st2{fill:#76BF60;}
	.st3{fill:#EC8231;}
	.st4{fill:#489B91;}
	.st5{fill:none;stroke:#442856;stroke-linecap:round;stroke-miterlimit:10;}
	.st6{fill:#BEA3CC;}
	.st7{fill:#442856;}
	.st8{fill:#785089;}
	.st9{fill:none;stroke:#442856;stroke-width:15;stroke-miterlimit:10;}
	.st10{fill:none;stroke:#BEA3CC;stroke-width:15;stroke-linecap:round;stroke-miterlimit:10;stroke-dasharray:12,21;}
	.st11{clip-path:url(#SVGID_2_);}
	.st12{fill:none;stroke:#D695C0;stroke-width:16;stroke-miterlimit:10;}
	.st13{fill:none;stroke:#785089;stroke-width:15;stroke-linecap:round;stroke-miterlimit:10;}
	.st14{fill:#C7E2C0;}
	.st15{fill:#9BD2CA;}
	.st16{fill:#FBC089;}
	.st17{fill:#E9A6C9;}
	.st18{fill:#F0CEE2;}
	.st19{fill:none;stroke:#442856;stroke-width:15;stroke-linecap:round;stroke-miterlimit:10;}
</style>
<g id="Layer_1">
	<path class="st1" d="M658.1,641.7c28.5-218.6,215.5-387.4,441.9-387.4c16.7,0,33.2,0.9,49.5,2.7l22.2-172.3
		c-23.5-2.8-47.4-4.3-71.6-4.3c-310.7,0-567.1,236.7-604.3,542.6L658.1,641.7z"/>
	<path class="st2" d="M1164.3,258.9c215.6,31.2,381.3,216.8,381.3,441c0,65.3-14.1,127.4-39.3,183.3l149.4,70.4
		C1690,876.3,1709,790.4,1709,700c0-312.3-227.1-570.6-522.5-613.3L1164.3,258.9z"/>
	<path class="st3" d="M1499.9,896.9c-59.5,120.6-172,210.5-307.1,239.1l33.3,170.2c187.2-40.1,342.8-167.7,423.4-338.8L1499.9,896.9
		z"/>
	<path class="st4" d="M1178.1,1138.8c-25.4,4.5-51.5,6.8-78.1,6.8c-246.1,0-445.7-199.5-445.7-445.7c0-14.6,0.7-29.1,2.1-43.3
		L494,638c-2,20.4-3,41.1-3,62c0,342.1,272.7,619.5,609,619.5c38,0,75.3-3.6,111.4-10.4L1178.1,1138.8z"/>
	<path class="st7" d="M1100,1153.1c-61.2,0-120.5-12-176.4-35.6c-54-22.8-102.4-55.5-144-97.1c-41.6-41.6-74.3-90.1-97.1-144
		c-23.6-55.9-35.6-115.2-35.6-176.4s12-120.5,35.6-176.4c22.8-54,55.5-102.4,97.1-144c41.6-41.6,90.1-74.3,144-97.1
		c55.9-23.6,115.2-35.6,176.4-35.6s120.5,12,176.4,35.6c54,22.8,102.4,55.5,144,97.1c41.6,41.6,74.3,90.1,97.1,144
		c23.6,55.9,35.6,115.2,35.6,176.4s-12,120.5-35.6,176.4c-22.8,54-55.5,102.4-97.1,144c-41.6,41.6-90.1,74.3-144,97.1
		C1220.5,1141.2,1161.2,1153.1,1100,1153.1z M1100,261.8c-59.2,0-116.5,11.6-170.6,34.4c-52.2,22.1-99,53.7-139.3,93.9
		c-40.2,40.2-71.8,87.1-93.9,139.3c-22.8,54-34.4,111.4-34.4,170.6s11.6,116.5,34.4,170.6c22.1,52.2,53.7,99,93.9,139.3
		c40.2,40.2,87.1,71.8,139.3,93.9c54,22.8,111.4,34.4,170.6,34.4s116.5-11.6,170.6-34.4c52.2-22.1,99-53.7,139.3-93.9
		c40.2-40.2,71.8-87.1,93.9-139.3c22.8-54,34.4-111.4,34.4-170.6s-11.6-116.5-34.4-170.6c-22.1-52.2-53.7-99-93.9-139.3
		s-87.1-71.8-139.3-93.9C1216.5,273.4,1159.2,261.8,1100,261.8z"/>
	<g>
		<path class="st7" d="M966.2,671.2v-23.1l34.6-35.4c2.2-2.2,4.1-4.2,5.6-6.2c1.5-1.9,2.7-3.8,3.5-5.6c0.8-1.8,1.3-3.6,1.3-5.5
			c0-2.1-0.4-3.8-1.2-5.2c-0.8-1.3-2-2.3-3.7-2.9s-3.8-0.9-6.4-0.9h-32v-23.1c4.9-1.1,10.4-2.1,16.4-3.1c6-0.9,13.1-1.4,21.1-1.4
			c8.8,0,15.7,1.2,20.8,3.6c5,2.4,8.6,6,10.8,10.6c2.1,4.7,3.2,10.5,3.2,17.2c0,4.9-0.7,9.4-2,13.4c-1.3,4-3.2,7.8-5.6,11.2
			c-2.5,3.5-5.4,7-8.9,10.5l-19.2,19.6h38.7v26.1H966.2z"/>
		<path class="st7" d="M1084,672.1c-6.8,0-12.5-1.2-17-3.6c-4.6-2.4-7.9-5.9-10.1-10.4c-2.2-4.5-3.3-10-3.3-16.3v-51.2
			c0-6.9,1.2-12.7,3.5-17.4c2.3-4.7,5.8-8.3,10.4-10.7c4.6-2.4,10.1-3.7,16.7-3.7h24.3c6.3,0,11.6,1.2,16,3.7
			c4.4,2.5,7.7,6,9.9,10.7c2.2,4.7,3.4,10.5,3.4,17.4v51.2c0,9.4-2.5,16.8-7.6,22.2c-5.1,5.4-12.3,8.1-21.8,8.1H1084z M1091.2,646h9
			c2.7,0,4.8-0.7,6.2-2c1.4-1.4,2.2-3.6,2.2-6.7v-43.7c0-3.5-0.7-5.8-2.1-7c-1.4-1.1-3.1-1.7-5.1-1.7h-11.2c-2.6,0-4.5,0.7-5.7,2.1
			c-1.2,1.4-1.8,3.6-1.8,6.6v43.5c0,3.2,0.7,5.5,2.1,6.8C1086.1,645.3,1088.2,646,1091.2,646z"/>
		<path class="st7" d="M1180.1,672.1c-6.8,0-12.5-1.2-17-3.6c-4.6-2.4-7.9-5.9-10.1-10.4c-2.2-4.5-3.3-10-3.3-16.3v-51.2
			c0-6.9,1.2-12.7,3.5-17.4c2.3-4.7,5.8-8.3,10.4-10.7c4.6-2.4,10.1-3.7,16.7-3.7h24.3c6.3,0,11.6,1.2,16,3.7
			c4.3,2.5,7.7,6,9.9,10.7c2.2,4.7,3.4,10.5,3.4,17.4v51.2c0,9.4-2.5,16.8-7.6,22.2c-5.1,5.4-12.3,8.1-21.8,8.1H1180.1z M1187.3,646
			h9c2.7,0,4.8-0.7,6.2-2c1.4-1.4,2.2-3.6,2.2-6.7v-43.7c0-3.5-0.7-5.8-2.1-7c-1.4-1.1-3.1-1.7-5.1-1.7h-11.2
			c-2.6,0-4.5,0.7-5.7,2.1c-1.2,1.4-1.8,3.6-1.8,6.6v43.5c0,3.2,0.7,5.5,2.1,6.8C1182.2,645.3,1184.4,646,1187.3,646z"/>
		<path class="st7" d="M806,851.2l33-111.5h36.3l33,111.5h-30.1l-4.5-17.7h-33.4l-4.4,17.7H806z M847,807.4h19.9l-10-42.9L847,807.4
			z"/>
		<path class="st7" d="M933.8,851.2v-31.6l-32.2-79.8h30.1l17.2,50.1l17.2-50.1h29l-32.2,79.8v31.6H933.8z"/>
		<path class="st7" d="M1047.8,852c-6.1,0-11.9-0.5-17.3-1.5c-5.5-1-10.3-2.9-14.5-5.5c-4.2-2.7-7.5-6.5-9.8-11.4
			c-2.4-4.9-3.5-11.2-3.5-19v-74.7h29.1v74.6c0,2.6,0.6,4.8,1.9,6.4c1.2,1.7,3.1,3,5.5,3.8c2.4,0.9,5.3,1.3,8.7,1.3
			c3.4,0,6.3-0.4,8.7-1.3c2.4-0.8,4.2-2.1,5.5-3.8c1.2-1.7,1.9-3.8,1.9-6.4v-74.6h29.1v74.7c0,7.8-1.2,14.2-3.5,19
			c-2.4,4.9-5.6,8.7-9.8,11.4c-4.2,2.7-9,4.6-14.4,5.5S1054,852,1047.8,852z"/>
		<path class="st7" d="M1108,851.2V739.8h49.2c8.1,0,14.7,1.4,19.9,4.3c5.2,2.8,9.3,6.8,12.3,11.9c3,5.1,5.1,11,6.3,17.8
			c1.2,6.8,1.8,14,1.8,21.8c0,13.1-1.5,23.7-4.4,31.9c-3,8.2-7.4,14.2-13.4,18c-6,3.8-13.5,5.8-22.6,5.8H1108z M1137,825.1h17.1
			c3.7,0,6.6-1,8.6-3c2-2,3.5-5.2,4.3-9.5c0.8-4.4,1.3-10,1.3-17c0-6.6-0.3-11.9-1-15.8c-0.7-3.9-1.6-6.9-2.8-8.9
			c-1.3-2-2.8-3.3-4.5-4c-1.8-0.6-3.7-1-5.9-1H1137V825.1z"/>
		<path class="st7" d="M1202.1,851.2l33-111.5h36.3l33,111.5h-30.1l-4.5-17.7h-33.5l-4.4,17.7H1202.1z M1243.1,807.4h20l-10.1-42.9
			L1243.1,807.4z"/>
		<path class="st7" d="M1348.4,852.1c-3.3,0-6.5-0.1-9.7-0.3c-3.2-0.2-6.3-0.5-9.3-0.9c-3.1-0.4-6-0.8-8.8-1.3
			c-2.8-0.5-5.5-1.1-8.1-1.8v-23.1c3.4,0.3,7.1,0.6,11,0.8c3.9,0.2,8,0.4,12,0.4c4,0.1,7.8,0.2,11.3,0.2c3.3,0,6-0.2,8.2-0.8
			c2.2-0.5,3.8-1.3,5-2.4c1.1-1.1,1.6-2.6,1.6-4.5v-1.8c0-2.2-0.8-3.8-2.3-5c-1.6-1.1-3.4-1.6-5.5-1.6h-8c-11.6,0-20.4-2.5-26.4-7.6
			c-6-5.1-9-13.7-9-25.7v-5c0-11,3.3-19.2,9.9-24.7c6.6-5.4,16.1-8.2,28.5-8.2c4.7,0,9.1,0.2,13.3,0.7c4.1,0.4,8,1,11.7,1.7
			c3.6,0.7,6.9,1.3,9.8,2v23.1c-4.6-0.4-9.8-0.7-15.5-1c-5.8-0.2-11-0.4-15.7-0.4c-2.8,0-5.3,0.2-7.5,0.6c-2.2,0.4-3.9,1.2-5.1,2.4
			s-1.8,3-1.8,5.2v1.5c0,2.5,0.8,4.4,2.4,5.7c1.6,1.3,4,1.9,7.3,1.9h9.9c7,0,12.8,1.3,17.5,4c4.7,2.7,8.1,6.3,10.5,10.8
			c2.3,4.6,3.5,9.7,3.5,15.5v4.9c0,9.5-1.7,16.8-5,21.8c-3.3,5-8,8.4-14.1,10.1C1364.2,851.2,1356.9,852.1,1348.4,852.1z"/>
	</g>
	<g>
		<path class="st2" d="M2060,87h-3.5c-3.9,0-7.1,3.2-7.1,7.1v28.4h-10.6v-39c0-3.9-3.2-7.1-7.1-7.1h-3.5c-3.9,0-7.1,3.2-7.1,7.1v39
			h-10.6V94.1c0-3.9-3.2-7.1-7.1-7.1h-3.5c-3.9,0-7.1,3.2-7.1,7.1v28.4v10.6c0,3.9,3.2,7.1,7.1,7.1h3.5h17.7v99.4
			c0,3.9,3.2,7.1,7.1,7.1h3.5c3.9,0,7.1-3.2,7.1-7.1v-99.4h17.7h3.5c3.9,0,7.1-3.2,7.1-7.1v-10.6V94.1
			C2067.1,90.2,2063.9,87,2060,87z"/>
		<path class="st2" d="M2123.9,76.4h-3.5c-26.4,0-33.4,60.6-35,81.6h-0.5v7.1h28.4v74.5c0,3.9,3.2,7.1,7.1,7.1h3.5
			c3.9,0,7.1-3.2,7.1-7.1V83.5C2131,79.6,2127.8,76.4,2123.9,76.4z"/>
	</g>
	<g>
		<path class="st1" d="M75.6,302v-35.7h15.6c1.2,0,2.5,0.1,3.7,0.4c1.3,0.3,2.5,0.8,3.5,1.7c1.1,0.8,1.9,2.1,2.6,3.8
			c0.7,1.7,1,4,1,6.8c0,2.9-0.3,5.2-1,6.9s-1.5,3.1-2.5,3.9c-1,0.9-2.1,1.5-3.3,1.8c-1.2,0.3-2.4,0.5-3.5,0.5c-0.6,0-1.2,0-1.9-0.1
			c-0.7-0.1-1.3-0.2-1.9-0.3c-0.6-0.1-1.2-0.2-1.7-0.3c-0.5-0.1-1-0.2-1.3-0.3V302H75.6z M85,283.9h5.4c0.6,0,1.1-0.2,1.5-0.5
			c0.4-0.4,0.6-0.9,0.8-1.6c0.1-0.7,0.2-1.5,0.2-2.6c0-1-0.1-1.8-0.3-2.5c-0.2-0.7-0.4-1.2-0.8-1.5c-0.4-0.3-0.8-0.5-1.4-0.5H85
			V283.9z"/>
		<path class="st1" d="M111.3,302.3c-2,0-3.6-0.6-4.8-1.8c-1.2-1.2-1.8-2.8-1.8-4.8v-2.6c0-1.9,0.7-3.5,2.1-4.8
			c1.4-1.3,3.6-1.9,6.7-1.9h5.2v-0.8c0-0.6-0.1-1.1-0.3-1.5c-0.2-0.4-0.7-0.6-1.4-0.8c-0.7-0.1-1.8-0.2-3.2-0.2h-7.5v-5.3
			c1.3-0.5,2.9-1,4.6-1.3c1.7-0.4,3.9-0.5,6.4-0.5c2.2,0,4.1,0.2,5.7,0.7c1.6,0.5,2.9,1.4,3.7,2.7c0.9,1.3,1.3,3.2,1.3,5.6V302h-7.4
			l-1.4-2.6c-0.3,0.3-0.7,0.6-1.2,1c-0.5,0.3-1,0.6-1.7,0.9c-0.6,0.3-1.4,0.5-2.2,0.7C113.3,302.2,112.3,302.3,111.3,302.3z
			 M116.2,296c0.2,0,0.3,0,0.5,0c0.2,0,0.4-0.1,0.6-0.1c0.2,0,0.4-0.1,0.6-0.1c0.2,0,0.3-0.1,0.5-0.2c0.1-0.1,0.2-0.1,0.3-0.1v-4.7
			l-2,0.3c-0.9,0.1-1.6,0.4-2,0.7c-0.5,0.3-0.7,0.9-0.7,1.6v1c0,0.4,0.1,0.8,0.3,1c0.2,0.3,0.4,0.5,0.8,0.6
			C115.3,295.9,115.7,296,116.2,296z"/>
		<path class="st1" d="M132.1,302v-25.9h7.2l2.1,3.6c0.8-1.1,1.7-2,2.7-2.8c1-0.8,2.2-1.2,3.7-1.2c0.3,0,0.6,0,0.9,0
			c0.4,0,0.7,0.1,1,0.2v9.6c-0.5-0.1-1.1-0.1-1.7-0.1c-0.6,0-1.1,0-1.5,0c-0.8,0-1.5,0.1-2.1,0.2c-0.6,0.1-1.2,0.4-1.7,0.6
			s-0.9,0.7-1.3,1.2V302H132.1z"/>
		<path class="st1" d="M157.6,302.3c-2,0-3.6-0.6-4.8-1.8c-1.2-1.2-1.8-2.8-1.8-4.8v-2.6c0-1.9,0.7-3.5,2.1-4.8
			c1.4-1.3,3.6-1.9,6.7-1.9h5.2v-0.8c0-0.6-0.1-1.1-0.3-1.5c-0.2-0.4-0.7-0.6-1.4-0.8c-0.7-0.1-1.8-0.2-3.2-0.2h-7.5v-5.3
			c1.3-0.5,2.9-1,4.6-1.3c1.7-0.4,3.9-0.5,6.4-0.5c2.2,0,4.1,0.2,5.7,0.7c1.6,0.5,2.9,1.4,3.7,2.7c0.9,1.3,1.3,3.2,1.3,5.6V302h-7.4
			l-1.4-2.6c-0.3,0.3-0.7,0.6-1.2,1c-0.5,0.3-1,0.6-1.7,0.9c-0.6,0.3-1.4,0.5-2.2,0.7C159.5,302.2,158.6,302.3,157.6,302.3z
			 M162.5,296c0.2,0,0.3,0,0.5,0c0.2,0,0.4-0.1,0.6-0.1c0.2,0,0.4-0.1,0.6-0.1c0.2,0,0.3-0.1,0.5-0.2c0.1-0.1,0.2-0.1,0.3-0.1v-4.7
			l-2,0.3c-0.9,0.1-1.6,0.4-2,0.7c-0.5,0.3-0.7,0.9-0.7,1.6v1c0,0.4,0.1,0.8,0.3,1c0.2,0.3,0.4,0.5,0.8,0.6
			C161.6,295.9,162,296,162.5,296z"/>
		<path class="st1" d="M91.2,359.9c-1.1,0-2-0.1-2.8-0.3c-0.8-0.2-1.5-0.5-2.1-0.9s-1.3-0.9-1.9-1.4l-1.4,2.4h-7.9V323h9.3v12.2
			c0.9-0.4,1.9-0.9,3-1.3c1.1-0.4,2.2-0.6,3.3-0.6c2.3,0,4.1,0.5,5.4,1.4c1.3,1,2.3,2.4,2.8,4.4c0.6,2,0.8,4.6,0.8,7.8
			c0,3-0.3,5.5-1,7.4c-0.6,1.9-1.6,3.3-2.9,4.2C94.8,359.5,93.2,359.9,91.2,359.9z M87.6,352.4c0.5,0,0.9-0.1,1.4-0.4
			c0.4-0.3,0.8-0.8,1.1-1.6c0.3-0.8,0.5-2.1,0.5-3.8c0-1.8-0.2-3.1-0.5-3.9c-0.3-0.8-0.7-1.3-1.2-1.5c-0.5-0.2-0.9-0.3-1.4-0.3
			c-0.6,0-1.2,0.1-1.8,0.3s-1.1,0.4-1.3,0.6v9.9c0.4,0.2,0.8,0.4,1.3,0.5C86.2,352.3,86.9,352.4,87.6,352.4z"/>
		<path class="st1" d="M115,359.9c-2.9,0-5.3-0.4-7.1-1.1c-1.8-0.7-3.1-2.1-3.9-4s-1.2-4.6-1.2-8c0-3.6,0.4-6.3,1.1-8.2
			c0.7-1.9,2-3.3,3.7-4.1s4.1-1.2,7-1.2c2.8,0,4.9,0.3,6.5,0.8c1.6,0.5,2.7,1.4,3.4,2.8c0.7,1.3,1,3.2,1,5.6c0,1.9-0.4,3.4-1.1,4.4
			c-0.7,1.1-1.8,1.8-3.1,2.3c-1.3,0.4-2.9,0.7-4.8,0.7H112c0.1,0.8,0.3,1.4,0.6,1.8c0.3,0.5,0.8,0.8,1.6,1c0.8,0.2,1.9,0.3,3.4,0.3
			h7.1v5.4c-1.1,0.3-2.5,0.6-4,1C119,359.7,117.2,359.9,115,359.9z M111.9,344.4h3.7c0.6,0,1.1-0.1,1.4-0.4s0.4-0.8,0.4-1.5
			c0-0.6-0.1-1.1-0.3-1.5c-0.2-0.4-0.5-0.7-0.9-0.8c-0.4-0.2-1-0.3-1.6-0.3c-0.6,0-1.1,0.1-1.5,0.4c-0.4,0.3-0.7,0.7-0.9,1.4
			C112,342.3,111.9,343.3,111.9,344.4z"/>
		<path class="st1" d="M145.2,359.9c-1.1,0-2-0.1-2.8-0.3c-0.8-0.2-1.5-0.5-2.1-0.9s-1.3-0.9-1.9-1.4l-1.4,2.4h-7.9V323h9.3v12.2
			c0.9-0.4,1.9-0.9,3-1.3c1.1-0.4,2.2-0.6,3.3-0.6c2.3,0,4.1,0.5,5.4,1.4c1.3,1,2.3,2.4,2.8,4.4c0.6,2,0.8,4.6,0.8,7.8
			c0,3-0.3,5.5-1,7.4c-0.6,1.9-1.6,3.3-2.9,4.2C148.8,359.5,147.2,359.9,145.2,359.9z M141.6,352.4c0.5,0,0.9-0.1,1.4-0.4
			c0.4-0.3,0.8-0.8,1.1-1.6c0.3-0.8,0.5-2.1,0.5-3.8c0-1.8-0.2-3.1-0.5-3.9c-0.3-0.8-0.7-1.3-1.2-1.5c-0.5-0.2-0.9-0.3-1.4-0.3
			c-0.6,0-1.2,0.1-1.8,0.3s-1.1,0.4-1.3,0.6v9.9c0.4,0.2,0.8,0.4,1.3,0.5C140.2,352.3,140.9,352.4,141.6,352.4z"/>
		<path class="st1" d="M169,359.9c-2.9,0-5.3-0.4-7.1-1.1c-1.8-0.7-3.1-2.1-3.9-4s-1.2-4.6-1.2-8c0-3.6,0.4-6.3,1.1-8.2
			c0.7-1.9,2-3.3,3.7-4.1s4.1-1.2,7-1.2c2.8,0,4.9,0.3,6.5,0.8c1.6,0.5,2.7,1.4,3.4,2.8c0.7,1.3,1,3.2,1,5.6c0,1.9-0.4,3.4-1.1,4.4
			c-0.7,1.1-1.8,1.8-3.1,2.3c-1.3,0.4-2.9,0.7-4.8,0.7H166c0.1,0.8,0.3,1.4,0.6,1.8c0.3,0.5,0.8,0.8,1.6,1c0.8,0.2,1.9,0.3,3.4,0.3
			h7.1v5.4c-1.1,0.3-2.5,0.6-4,1C173,359.7,171.2,359.9,169,359.9z M165.9,329.3l3.3-6.9h7.4l-5.2,6.9H165.9z M165.9,344.4h3.7
			c0.6,0,1.1-0.1,1.4-0.4s0.4-0.8,0.4-1.5c0-0.6-0.1-1.1-0.3-1.5c-0.2-0.4-0.5-0.7-0.9-0.8c-0.4-0.2-1-0.3-1.6-0.3
			c-0.6,0-1.1,0.1-1.5,0.4c-0.4,0.3-0.7,0.7-0.9,1.4C166,342.3,165.9,343.3,165.9,344.4z"/>
		<path class="st1" d="M192.9,359.9c-0.9,0-1.9,0-2.8-0.1c-0.9-0.1-1.8-0.2-2.7-0.3c-0.9-0.1-1.7-0.3-2.5-0.5
			c-0.8-0.2-1.5-0.4-2.1-0.7V353h12c0.4,0,0.7,0,0.9-0.1c0.2-0.1,0.3-0.2,0.4-0.3c0.1-0.1,0.1-0.3,0.1-0.5v-0.6
			c0-0.3-0.1-0.6-0.3-0.7c-0.2-0.2-0.7-0.3-1.5-0.3h-4.3c-1.4,0-2.8-0.2-4-0.7s-2.2-1.3-2.9-2.4c-0.7-1.1-1.1-2.5-1.1-4.4v-1.6
			c0-1.7,0.3-3.1,1-4.2c0.6-1.2,1.8-2.1,3.4-2.7c1.6-0.6,3.9-0.9,6.9-0.9c1.2,0,2.4,0.1,3.6,0.2c1.2,0.1,2.3,0.3,3.4,0.6
			c1,0.2,1.8,0.5,2.4,0.7v5.4h-11.4c-0.5,0-0.8,0.1-1.1,0.2c-0.2,0.1-0.3,0.4-0.3,0.7v0.6c0,0.3,0.1,0.5,0.2,0.6
			c0.1,0.1,0.3,0.2,0.6,0.3c0.3,0.1,0.7,0.1,1.2,0.1h4.5c2.8,0,4.8,0.6,5.9,1.9c1.1,1.3,1.7,3,1.7,5.2v2.6c0,1.7-0.4,3.1-1.2,4.2
			c-0.8,1.1-2.1,1.8-3.7,2.3C197.5,359.7,195.4,359.9,192.9,359.9z"/>
	</g>
	<path class="st1" d="M229.2,141.4h-49.7v-6.6c6.6-6.4,10.6-15.4,10.6-25.3c0-19.6-15.9-35.5-35.5-35.5s-35.5,15.9-35.5,35.5
		c0,9.9,4.1,18.9,10.6,25.3v6.6H80.1c-3.9,0-7.1,3.2-7.1,7.1V184c0,3.9,3.2,7.1,7.1,7.1h21.3c0,29.4,23.8,53.2,53.2,53.2
		s53.2-23.8,53.2-53.2h21.3c3.9,0,7.1-3.2,7.1-7.1v-35.5C236.3,144.6,233.1,141.4,229.2,141.4z M154.6,226.6
		c-19.6,0-35.5-15.9-35.5-35.5h71C190.1,210.7,174.3,226.6,154.6,226.6z"/>
	<rect x="73" y="369.9" class="st1" width="588" height="1"/>
	<g>
		<path class="st1" d="M81.1,426.9v-26.5l-6.2,2.1v-1l6.3-2.7h1.5v28.2H81.1z"/>
		<path class="st1" d="M99.9,427c-1.8,0-3.5,0-5.2-0.1c-1.7,0-3.2-0.1-4.4-0.2v-1.1h9.6c1.2,0,2.4-0.2,3.4-0.6c1-0.4,1.8-1,2.5-1.8
			s0.9-1.8,0.9-2.9v-3.7c0-1.5-0.5-2.7-1.4-3.6c-1-0.9-2.4-1.3-4.2-1.3h-3.4c-1.3,0-2.4,0.3-3.2,0.9c-0.8,0.6-1.4,1.6-1.6,2.9h-1.4
			L92,399h15.3v1.4H93.4l-0.6,12.3c0.3-0.6,0.8-1.1,1.6-1.7c0.8-0.5,1.9-0.8,3.3-0.8h3.5c1.5,0,2.7,0.3,3.7,0.8
			c1,0.5,1.8,1.2,2.4,2.2c0.5,0.9,0.8,2,0.8,3.1v4.1c0,1.4-0.4,2.6-1.1,3.6c-0.7,1-1.7,1.7-3,2.2C102.8,426.8,101.4,427,99.9,427z"
			/>
		<path class="st1" d="M117.9,413.6c-1.8,0-3.1-0.4-3.8-1.2c-0.7-0.8-1-2-1-3.6v-5c0-1.6,0.3-2.8,1-3.6c0.7-0.8,2-1.2,3.9-1.2h3.8
			c1.9,0,3.2,0.4,3.8,1.2c0.7,0.8,1,2,1,3.6v5c0,1.6-0.3,2.8-1,3.6c-0.7,0.8-2,1.2-3.9,1.2H117.9z M118,412.6h3.6
			c1.4,0,2.4-0.3,3.1-0.8s1-1.5,1-3.1V404c0-1.4-0.3-2.4-0.8-3c-0.5-0.6-1.6-0.9-3.1-0.9H118c-1.4,0-2.4,0.2-3,0.7
			c-0.6,0.5-0.9,1.5-0.9,3.1v4.8c0,1.5,0.3,2.5,0.9,3.1C115.6,412.3,116.6,412.6,118,412.6z M120,426.9l16.7-27.8h1.2l-16.7,27.8
			H120z M136.5,426.8c-1.8,0-3.1-0.4-3.8-1.2s-1-2-1-3.6v-5c0-1.6,0.3-2.8,1-3.6c0.7-0.8,2-1.2,3.9-1.2h3.8c1.9,0,3.2,0.4,3.8,1.2
			s1,2,1,3.6v5c0,1.6-0.3,2.8-1,3.6s-2,1.2-3.9,1.2H136.5z M136.6,425.7h3.6c1.4,0,2.4-0.3,3.1-0.8c0.6-0.5,1-1.5,1-3.1v-4.8
			c0-1.4-0.3-2.4-0.8-3c-0.5-0.6-1.6-0.9-3.1-0.9h-3.6c-1.4,0-2.4,0.2-3,0.7c-0.6,0.5-0.9,1.5-0.9,3.1v4.8c0,1.5,0.3,2.5,0.9,3.1
			S135.2,425.7,136.6,425.7z"/>
	</g>
	<g>
		<circle class="st4" cx="117.4" cy="962.8" r="16"/>
		<circle class="st4" cx="222.1" cy="953.9" r="21.3"/>
		<ellipse class="st4" cx="100.5" cy="1075.6" rx="27.5" ry="27.4"/>
		<circle class="st4" cx="183" cy="1003.7" r="17.7"/>
		<g>
			<path class="st4" d="M232.7,993h-27.2c1.5,3.2,2.4,6.8,2.4,10.6c0,13.7-11.1,24.8-24.8,24.8s-24.8-11.1-24.8-24.8
				c0-3.8,0.9-7.4,2.4-10.6H83.6c-3.9,0-7.1,3.2-7.1,7.1v50.6c6.2-6,14.6-9.6,23.9-9.6c19.1,0,34.6,15.5,34.6,34.6
				c0,6.1-1.6,11.8-4.4,16.8h102.1c3.9,0,7.1-3.2,7.1-7.1v-85.2C239.8,996.2,236.7,993,232.7,993z"/>
			<path class="st4" d="M165.3,1003.7c0,9.8,8,17.7,17.7,17.7c9.8,0,17.7-8,17.7-17.7c0-4-1.3-7.7-3.6-10.6h-28.4
				C166.6,996,165.3,999.7,165.3,1003.7z"/>
		</g>
	</g>
	<g>
		<path class="st4" d="M75.6,1163v-35.7H85v13.7h10.6v-13.7h9.3v35.7h-9.3v-13.6H85v13.6H75.6z"/>
		<path class="st4" d="M110.6,1133.9c-0.8,0-1.2-0.4-1.2-1.1v-5.3c0-0.8,0.4-1.2,1.2-1.2h7.3c0.4,0,0.6,0.1,0.8,0.3
			c0.2,0.2,0.3,0.5,0.3,0.9v5.3c0,0.7-0.4,1.1-1.1,1.1H110.6z M109.6,1163v-25.9h9.3v25.9H109.6z"/>
		<path class="st4" d="M130,1175c-1.6,0-3-0.2-4.3-0.7c-1.3-0.5-2.3-1.2-3-2.1c-0.8-0.9-1.1-2-1.1-3.3v-0.5c0-1.3,0.4-2.4,1.2-3.4
			c0.8-1,1.8-1.7,3-2.2c1.2-0.5,2.6-0.8,4-0.8l2.9,2.7c-0.5,0-1,0.1-1.3,0.2c-0.4,0.2-0.6,0.4-0.8,0.6c-0.2,0.3-0.2,0.6-0.2,0.9v0.2
			c0,0.5,0.2,1,0.6,1.3c0.4,0.4,1,0.6,1.8,0.6h4.2c0.7,0,1.3-0.1,1.7-0.4c0.4-0.3,0.7-0.7,0.7-1.2v-0.6c0-0.4-0.1-0.7-0.3-0.9
			c-0.2-0.2-0.5-0.4-0.8-0.6c-0.4-0.1-0.8-0.2-1.2-0.2h-4.4c-3.5,0-6-0.6-7.6-1.8s-2.4-2.7-2.4-4.4c0-1.3,0.4-2.4,1.1-3.4
			c0.7-1,1.8-1.6,3.1-1.9c-0.9-0.6-1.6-1.2-2.2-2c-0.6-0.8-1-1.6-1.2-2.5c-0.3-0.9-0.4-1.8-0.4-2.8c0-1.9,0.4-3.4,1.2-4.7
			s2-2.2,3.6-2.9c1.6-0.7,3.8-1,6.5-1h14.1v5.1l-2.7,0.9c0.2,0.3,0.4,0.7,0.6,1.1s0.3,0.9,0.3,1.5c0.1,0.6,0.1,1.2,0.1,1.9
			c0,1.6-0.3,3-1,4.2c-0.7,1.2-1.7,2.1-3,2.8c-1.4,0.7-3.2,1-5.4,1h-4.9c-0.5,0-1,0.1-1.3,0.3c-0.4,0.2-0.6,0.5-0.6,0.9
			s0.2,0.7,0.6,0.8c0.4,0.1,0.8,0.2,1.3,0.2h6.2c2,0,3.6,0.3,5.1,0.8c1.4,0.5,2.6,1.4,3.4,2.6c0.8,1.2,1.2,2.8,1.2,4.9v0.4
			c0,2.7-0.8,4.8-2.4,6.3c-1.6,1.5-4.2,2.3-7.7,2.3H130z M133.5,1148.7h2.6c0.5,0,1-0.1,1.3-0.2c0.3-0.2,0.5-0.4,0.7-0.8
			c0.1-0.4,0.2-0.8,0.2-1.3c0-0.5-0.1-1-0.2-1.3c-0.1-0.3-0.4-0.6-0.7-0.7c-0.3-0.1-0.8-0.2-1.3-0.2h-2.6c-0.8,0-1.4,0.2-1.7,0.5
			c-0.3,0.3-0.5,0.9-0.5,1.8c0,0.8,0.2,1.4,0.5,1.8C132.2,1148.5,132.7,1148.7,133.5,1148.7z"/>
		<path class="st4" d="M152.3,1133.9c-0.8,0-1.2-0.4-1.2-1.1v-5.3c0-0.8,0.4-1.2,1.2-1.2h7.3c0.4,0,0.6,0.1,0.8,0.3
			c0.2,0.2,0.3,0.5,0.3,0.9v5.3c0,0.7-0.4,1.1-1.1,1.1H152.3z M151.2,1163v-25.9h9.3v25.9H151.2z"/>
		<path class="st4" d="M176.3,1163.3c-2.9,0-5.3-0.4-7.1-1.1c-1.8-0.7-3.1-2.1-3.9-4c-0.8-1.9-1.2-4.6-1.2-8c0-3.6,0.4-6.3,1.1-8.2
			c0.7-1.9,2-3.3,3.7-4.1c1.7-0.8,4.1-1.2,7-1.2c2.8,0,4.9,0.3,6.5,0.8c1.6,0.5,2.7,1.4,3.4,2.8c0.7,1.3,1,3.2,1,5.6
			c0,1.9-0.4,3.4-1.1,4.4c-0.7,1.1-1.8,1.8-3.1,2.3c-1.3,0.4-2.9,0.7-4.8,0.7h-4.6c0.1,0.8,0.3,1.4,0.6,1.8s0.8,0.8,1.6,1
			s1.9,0.3,3.4,0.3h7.1v5.4c-1.1,0.3-2.5,0.6-4,1C180.4,1163.1,178.5,1163.3,176.3,1163.3z M173.2,1147.8h3.7c0.6,0,1.1-0.1,1.4-0.4
			c0.3-0.3,0.4-0.8,0.4-1.5c0-0.6-0.1-1.1-0.3-1.5s-0.5-0.7-0.9-0.8c-0.4-0.2-1-0.3-1.6-0.3c-0.6,0-1.1,0.1-1.5,0.4
			c-0.4,0.3-0.7,0.7-0.9,1.4C173.3,1145.7,173.2,1146.7,173.2,1147.8z"/>
		<path class="st4" d="M190.5,1163v-25.9h7.8l1.5,2.5c0.8-0.7,1.9-1.4,3.2-2c1.3-0.6,2.7-0.9,4.1-0.9c2.2,0,3.9,0.4,5.1,1.3
			c1.2,0.8,1.9,2,2.4,3.5c0.4,1.5,0.6,3.1,0.6,4.9v16.7h-9.3v-15.5c0-0.7-0.1-1.2-0.3-1.5c-0.2-0.4-0.5-0.6-0.9-0.7
			c-0.4-0.1-0.8-0.2-1.3-0.2c-0.4,0-0.8,0.1-1.3,0.2c-0.4,0.1-0.9,0.3-1.2,0.5c-0.4,0.2-0.7,0.5-1,0.8v16.5H190.5z"/>
		<path class="st4" d="M230.8,1163.3c-2.9,0-5.3-0.4-7.1-1.1c-1.8-0.7-3.1-2.1-3.9-4c-0.8-1.9-1.2-4.6-1.2-8c0-3.6,0.4-6.3,1.1-8.2
			c0.7-1.9,2-3.3,3.7-4.1c1.7-0.8,4.1-1.2,7-1.2c2.8,0,4.9,0.3,6.5,0.8c1.6,0.5,2.7,1.4,3.4,2.8c0.7,1.3,1,3.2,1,5.6
			c0,1.9-0.4,3.4-1.1,4.4c-0.7,1.1-1.8,1.8-3.1,2.3c-1.3,0.4-2.9,0.7-4.8,0.7h-4.6c0.1,0.8,0.3,1.4,0.6,1.8s0.8,0.8,1.6,1
			s1.9,0.3,3.4,0.3h7.1v5.4c-1.1,0.3-2.5,0.6-4,1C234.9,1163.1,233,1163.3,230.8,1163.3z M227.7,1147.8h3.7c0.6,0,1.1-0.1,1.4-0.4
			c0.3-0.3,0.4-0.8,0.4-1.5c0-0.6-0.1-1.1-0.3-1.5s-0.5-0.7-0.9-0.8c-0.4-0.2-1-0.3-1.6-0.3c-0.6,0-1.1,0.1-1.5,0.4
			c-0.4,0.3-0.7,0.7-0.9,1.4C227.8,1145.7,227.7,1146.7,227.7,1147.8z"/>
		<path class="st4" d="M75.1,1232v-37.2H83l1.4,2.4c0.6-0.5,1.3-1,1.9-1.4c0.6-0.4,1.3-0.7,2-1c0.7-0.2,1.5-0.4,2.5-0.4
			c1.5,0,2.9,0.3,4,0.8c1.2,0.5,2.1,1.4,2.9,2.5c0.8,1.1,1.3,2.5,1.7,4.2c0.4,1.7,0.6,3.7,0.6,6c0,2.7-0.2,5-0.7,7
			c-0.5,2-1.4,3.5-2.7,4.6c-1.3,1.1-3.2,1.6-5.7,1.6c-1.1,0-2.2-0.1-3.3-0.3c-1.1-0.2-2.1-0.5-3-0.9v12.2H75.1z M87.6,1213.4
			c0.4,0,0.9-0.1,1.4-0.4c0.5-0.3,0.8-0.8,1.2-1.6c0.3-0.8,0.5-2,0.5-3.6s-0.1-2.8-0.3-3.7c-0.2-0.9-0.6-1.5-1-1.8
			c-0.4-0.3-1-0.5-1.6-0.5c-0.7,0-1.3,0.1-1.9,0.3c-0.6,0.2-1,0.4-1.3,0.6v9.9c0.3,0.2,0.8,0.4,1.4,0.5
			C86.4,1213.3,87,1213.4,87.6,1213.4z"/>
		<path class="st4" d="M115,1220.9c-2.9,0-5.3-0.4-7.1-1.1c-1.8-0.7-3.1-2.1-3.9-4s-1.2-4.6-1.2-8c0-3.6,0.4-6.3,1.1-8.2
			c0.7-1.9,2-3.3,3.7-4.1s4.1-1.2,7-1.2c2.8,0,4.9,0.3,6.5,0.8c1.6,0.5,2.7,1.4,3.4,2.8c0.7,1.3,1,3.2,1,5.6c0,1.9-0.4,3.4-1.1,4.4
			c-0.7,1.1-1.8,1.8-3.1,2.3c-1.3,0.4-2.9,0.7-4.8,0.7H112c0.1,0.8,0.3,1.4,0.6,1.8c0.3,0.5,0.8,0.8,1.6,1c0.8,0.2,1.9,0.3,3.4,0.3
			h7.1v5.4c-1.1,0.3-2.5,0.6-4,1C119,1220.7,117.2,1220.9,115,1220.9z M111.9,1205.4h3.7c0.6,0,1.1-0.1,1.4-0.4s0.4-0.8,0.4-1.5
			c0-0.6-0.1-1.1-0.3-1.5c-0.2-0.4-0.5-0.7-0.9-0.8c-0.4-0.2-1-0.3-1.6-0.3c-0.6,0-1.1,0.1-1.5,0.4c-0.4,0.3-0.7,0.7-0.9,1.4
			C112,1203.3,111.9,1204.3,111.9,1205.4z"/>
		<path class="st4" d="M129.1,1220.6v-25.9h7.2l2.1,3.6c0.8-1.1,1.7-2,2.7-2.8c1-0.8,2.2-1.2,3.7-1.2c0.3,0,0.6,0,0.9,0
			c0.4,0,0.7,0.1,1,0.2v9.6c-0.5-0.1-1.1-0.1-1.7-0.1c-0.6,0-1.1,0-1.5,0c-0.8,0-1.5,0.1-2.1,0.2c-0.6,0.1-1.2,0.4-1.7,0.6
			c-0.5,0.3-0.9,0.7-1.3,1.2v14.6H129.1z"/>
		<path class="st4" d="M159.5,1220.9c-0.9,0-1.9,0-2.8-0.1c-0.9-0.1-1.8-0.2-2.7-0.3c-0.9-0.1-1.7-0.3-2.5-0.5
			c-0.8-0.2-1.5-0.4-2.1-0.7v-5.4h12c0.4,0,0.7,0,0.9-0.1c0.2-0.1,0.3-0.2,0.4-0.3c0.1-0.1,0.1-0.3,0.1-0.5v-0.6
			c0-0.3-0.1-0.6-0.3-0.7c-0.2-0.2-0.7-0.3-1.5-0.3h-4.3c-1.4,0-2.8-0.2-4-0.7s-2.2-1.3-2.9-2.4c-0.7-1.1-1.1-2.5-1.1-4.4v-1.6
			c0-1.7,0.3-3.1,1-4.2c0.6-1.2,1.8-2.1,3.4-2.7c1.6-0.6,3.9-0.9,6.9-0.9c1.2,0,2.4,0.1,3.6,0.2c1.2,0.1,2.3,0.3,3.4,0.6
			c1,0.2,1.8,0.5,2.4,0.7v5.4h-11.4c-0.5,0-0.8,0.1-1.1,0.2c-0.2,0.1-0.3,0.4-0.3,0.7v0.6c0,0.3,0.1,0.5,0.2,0.6
			c0.1,0.1,0.3,0.2,0.6,0.3c0.3,0.1,0.7,0.1,1.2,0.1h4.5c2.8,0,4.8,0.6,5.9,1.9c1.1,1.3,1.7,3,1.7,5.2v2.6c0,1.7-0.4,3.1-1.2,4.2
			c-0.8,1.1-2.1,1.8-3.7,2.3C164.1,1220.7,162,1220.9,159.5,1220.9z"/>
		<path class="st4" d="M185.8,1220.9c-2.3,0-4.2-0.2-5.8-0.7s-2.9-1.2-3.8-2.3c-1-1.1-1.6-2.4-2.1-4.1c-0.4-1.7-0.6-3.7-0.6-6.1
			c0-2.6,0.2-4.7,0.6-6.5c0.4-1.7,1.1-3.1,2.1-4.1c1-1,2.2-1.7,3.8-2.1c1.6-0.4,3.5-0.6,5.8-0.6c2.3,0,4.2,0.2,5.8,0.7
			c1.6,0.4,2.8,1.2,3.8,2.2c0.9,1,1.6,2.4,2.1,4.1c0.4,1.7,0.6,3.8,0.6,6.4c0,2.5-0.2,4.6-0.6,6.3c-0.4,1.7-1.1,3.1-2,4.1
			c-0.9,1-2.2,1.8-3.8,2.2S188.2,1220.9,185.8,1220.9z M185.8,1213.5c0.6,0,1.1-0.1,1.5-0.2c0.4-0.1,0.7-0.4,0.9-0.7
			c0.2-0.4,0.4-1,0.5-1.8c0.1-0.8,0.1-1.9,0.1-3.2s0-2.4-0.1-3.2c-0.1-0.8-0.3-1.4-0.5-1.8c-0.2-0.4-0.5-0.6-0.9-0.7
			c-0.4-0.1-0.9-0.2-1.5-0.2c-0.6,0-1.1,0.1-1.5,0.2c-0.4,0.1-0.7,0.4-0.9,0.7c-0.2,0.4-0.4,1-0.5,1.8s-0.1,1.8-0.1,3.2
			s0,2.4,0.1,3.2c0.1,0.8,0.3,1.4,0.5,1.8c0.2,0.4,0.5,0.6,0.9,0.7C184.7,1213.4,185.2,1213.5,185.8,1213.5z"/>
		<path class="st4" d="M201.7,1220.6v-25.9h7.8l1.5,2.5c0.8-0.7,1.9-1.4,3.2-2c1.3-0.6,2.7-0.9,4.1-0.9c2.2,0,3.9,0.4,5.1,1.3
			c1.2,0.8,1.9,2,2.4,3.5c0.4,1.5,0.6,3.1,0.6,4.9v16.7H217v-15.5c0-0.7-0.1-1.2-0.3-1.5c-0.2-0.4-0.5-0.6-0.9-0.7
			c-0.4-0.1-0.8-0.2-1.3-0.2c-0.4,0-0.8,0.1-1.3,0.2c-0.4,0.1-0.9,0.3-1.2,0.5c-0.4,0.2-0.7,0.5-1,0.8v16.5H201.7z"/>
		<path class="st4" d="M236.3,1220.9c-2,0-3.6-0.6-4.8-1.8c-1.2-1.2-1.8-2.8-1.8-4.8v-2.6c0-1.9,0.7-3.5,2.1-4.8
			c1.4-1.3,3.6-1.9,6.7-1.9h5.2v-0.8c0-0.6-0.1-1.1-0.3-1.5c-0.2-0.4-0.7-0.6-1.4-0.8c-0.7-0.1-1.8-0.2-3.2-0.2h-7.5v-5.3
			c1.3-0.5,2.9-1,4.6-1.3c1.7-0.4,3.9-0.5,6.4-0.5c2.2,0,4.1,0.2,5.7,0.7c1.6,0.5,2.9,1.4,3.7,2.7c0.9,1.3,1.3,3.2,1.3,5.6v17.1
			h-7.4l-1.4-2.6c-0.3,0.3-0.7,0.6-1.2,1c-0.5,0.3-1,0.6-1.7,0.9c-0.6,0.3-1.4,0.5-2.2,0.7C238.2,1220.8,237.3,1220.9,236.3,1220.9z
			 M241.2,1214.6c0.2,0,0.3,0,0.5,0c0.2,0,0.4-0.1,0.6-0.1c0.2,0,0.4-0.1,0.6-0.1c0.2,0,0.3-0.1,0.5-0.2c0.1-0.1,0.2-0.1,0.3-0.1
			v-4.7l-2,0.3c-0.9,0.1-1.6,0.4-2,0.7c-0.5,0.3-0.7,0.9-0.7,1.6v1c0,0.4,0.1,0.8,0.3,1c0.2,0.3,0.4,0.5,0.8,0.6
			C240.3,1214.5,240.7,1214.6,241.2,1214.6z"/>
		<path class="st4" d="M266.1,1220.8c-2,0-3.7-0.3-5.1-1c-1.3-0.6-2.3-1.6-3-2.9s-1-2.8-1-4.7V1184h9.3v26.8c0,0.6,0.1,1.1,0.2,1.5
			s0.4,0.7,0.7,1c0.3,0.2,0.7,0.4,1.2,0.5l1.6,0.2v6.8H266.1z"/>
	</g>
	<rect x="73" y="1230.9" class="st4" width="777" height="1"/>
	<g>
		<path class="st4" d="M84.6,1288.1c-2,0-3.9,0-5.5-0.1s-3.1-0.1-4.3-0.2v-1.1h9.4c1.1,0,2.2-0.1,3.1-0.4c0.9-0.3,1.7-0.8,2.3-1.5
			c0.6-0.7,0.9-1.8,0.9-3.2v-2.2c0-1.2-0.3-2.1-0.9-2.8c-0.6-0.7-1.3-1.2-2.1-1.4c-0.8-0.3-1.7-0.4-2.5-0.5l-7.3-0.3v-1l7.3-0.3
			c1.5-0.1,2.7-0.4,3.7-1c1-0.6,1.4-1.7,1.4-3.2v-2.4c0-1.6-0.5-2.8-1.6-3.7c-1.1-0.9-2.6-1.3-4.6-1.3h-8.1v-1.1
			c1-0.1,2.2-0.2,3.6-0.2c1.4-0.1,3.1-0.1,4.9-0.1c1.7,0,3.1,0.3,4.1,0.8c1.1,0.6,1.8,1.3,2.4,2.3c0.5,1,0.8,2,0.8,3.2v2.5
			c0,1-0.2,1.8-0.5,2.4c-0.3,0.6-0.7,1.1-1.2,1.5c-0.5,0.4-1,0.7-1.4,0.9c-0.5,0.2-0.9,0.3-1.2,0.3c0.4,0.1,0.8,0.2,1.3,0.4
			c0.5,0.2,1.1,0.6,1.6,1c0.5,0.4,1,1,1.3,1.7c0.4,0.7,0.5,1.5,0.5,2.5v2.3c0,2.1-0.7,3.7-2,4.8C88.9,1287.6,87,1288.1,84.6,1288.1z
			"/>
		<path class="st4" d="M105.4,1287.9c-1.2,0-2.3-0.2-3.3-0.6c-1-0.4-1.8-1.1-2.4-2c-0.6-0.9-0.9-2.1-0.9-3.7v-15.5
			c0-1.4,0.3-2.6,0.9-3.5c0.6-0.9,1.4-1.6,2.4-2.1c1-0.5,2.1-0.7,3.4-0.7h5.2c1.5,0,2.8,0.3,3.7,0.8c1,0.6,1.6,1.3,2.1,2.3
			c0.4,0.9,0.6,2,0.6,3.2v15.5c0,2.3-0.6,3.9-1.8,4.8c-1.2,1-2.8,1.5-4.7,1.5H105.4z M105.6,1286.5h4.8c1.8,0,3.2-0.4,4-1.3
			c0.8-0.9,1.2-2.1,1.2-3.6v-15.3c0-1.6-0.4-2.9-1.3-3.7c-0.8-0.8-2.1-1.3-3.8-1.3h-4.9c-1.6,0-2.9,0.4-3.8,1.3
			c-1,0.9-1.4,2.1-1.4,3.7v15.3c0,1.6,0.5,2.9,1.4,3.7C102.7,1286.1,104,1286.5,105.6,1286.5z"/>
		<path class="st4" d="M127.4,1274.6c-1.8,0-3.1-0.4-3.8-1.2c-0.7-0.8-1-2-1-3.6v-5c0-1.6,0.3-2.8,1-3.6c0.7-0.8,2-1.2,3.9-1.2h3.8
			c1.9,0,3.2,0.4,3.8,1.2c0.7,0.8,1,2,1,3.6v5c0,1.6-0.3,2.8-1,3.6s-2,1.2-3.9,1.2H127.4z M127.5,1273.6h3.6c1.4,0,2.4-0.3,3.1-0.8
			s1-1.5,1-3.1v-4.8c0-1.4-0.3-2.4-0.8-3c-0.5-0.6-1.6-0.9-3.1-0.9h-3.6c-1.4,0-2.4,0.2-3,0.7s-0.9,1.5-0.9,3.1v4.8
			c0,1.5,0.3,2.5,0.9,3.1C125.1,1273.3,126.1,1273.6,127.5,1273.6z M129.5,1287.9l16.7-27.8h1.2l-16.7,27.8H129.5z M146,1287.8
			c-1.8,0-3.1-0.4-3.8-1.2c-0.7-0.8-1-2-1-3.6v-5c0-1.6,0.3-2.8,1-3.6c0.7-0.8,2-1.2,3.9-1.2h3.8c1.9,0,3.2,0.4,3.8,1.2s1,2,1,3.6v5
			c0,1.6-0.3,2.8-1,3.6c-0.7,0.8-2,1.2-3.9,1.2H146z M146.1,1286.7h3.6c1.4,0,2.4-0.3,3.1-0.8c0.6-0.5,1-1.5,1-3.1v-4.8
			c0-1.4-0.3-2.4-0.8-3c-0.5-0.6-1.6-0.9-3.1-0.9h-3.6c-1.4,0-2.4,0.2-3,0.7c-0.6,0.5-0.9,1.5-0.9,3.1v4.8c0,1.5,0.3,2.5,0.9,3.1
			S144.7,1286.7,146.1,1286.7z"/>
	</g>
	<g>
		<path class="st2" d="M1962.3,302.3c-2,0-3.8-0.2-5.4-0.7c-1.6-0.5-3-1.4-4.1-2.6c-1.2-1.3-2-3.1-2.6-5.5c-0.6-2.4-0.9-5.5-0.9-9.4
			c0-3.7,0.3-6.8,1-9.1c0.6-2.4,1.5-4.2,2.7-5.5c1.2-1.3,2.6-2.2,4.2-2.7c1.6-0.5,3.4-0.7,5.3-0.7c2,0,3.7,0.1,5.3,0.3
			c1.5,0.2,2.8,0.5,3.9,0.7c1.1,0.3,1.9,0.6,2.6,0.9v7.2c-0.6-0.1-1.4-0.3-2.4-0.4c-1-0.1-2.1-0.2-3.3-0.3c-1.2-0.1-2.6-0.1-4-0.1
			c-1.1,0-2,0.1-2.8,0.3c-0.8,0.2-1.4,0.7-1.8,1.3s-0.8,1.7-1,3c-0.2,1.3-0.3,3-0.3,5.2c0,1.9,0.1,3.5,0.2,4.8s0.4,2.3,0.9,3
			c0.4,0.7,1,1.2,1.8,1.5c0.8,0.3,1.8,0.5,3,0.5c2.4,0,4.4,0,5.9-0.1c1.5-0.1,2.7-0.2,3.6-0.3v7.2c-0.8,0.3-1.7,0.6-2.8,0.8
			c-1.1,0.2-2.3,0.4-3.8,0.5C1966,302.2,1964.3,302.3,1962.3,302.3z"/>
		<path class="st2" d="M1983.6,302.3c-2,0-3.6-0.6-4.8-1.8c-1.2-1.2-1.8-2.8-1.8-4.8v-2.6c0-1.9,0.7-3.5,2.1-4.8
			c1.4-1.3,3.6-1.9,6.7-1.9h5.2v-0.8c0-0.6-0.1-1.1-0.3-1.5c-0.2-0.4-0.7-0.6-1.4-0.8c-0.7-0.1-1.8-0.2-3.2-0.2h-7.5v-5.3
			c1.3-0.5,2.9-1,4.6-1.3c1.7-0.4,3.9-0.5,6.4-0.5c2.2,0,4.1,0.2,5.7,0.7c1.6,0.5,2.9,1.4,3.7,2.7c0.9,1.3,1.3,3.2,1.3,5.6V302h-7.4
			l-1.4-2.6c-0.3,0.3-0.7,0.6-1.2,1c-0.5,0.3-1,0.6-1.7,0.9c-0.6,0.3-1.4,0.5-2.2,0.7S1984.7,302.3,1983.6,302.3z M1988.5,296
			c0.2,0,0.3,0,0.5,0c0.2,0,0.4-0.1,0.6-0.1c0.2,0,0.4-0.1,0.6-0.1c0.2,0,0.3-0.1,0.5-0.2c0.1-0.1,0.2-0.1,0.3-0.1v-4.7l-2,0.3
			c-0.9,0.1-1.6,0.4-2,0.7c-0.5,0.3-0.7,0.9-0.7,1.6v1c0,0.4,0.1,0.8,0.3,1c0.2,0.3,0.4,0.5,0.8,0.6
			C1987.7,295.9,1988.1,296,1988.5,296z"/>
		<path class="st2" d="M2004.4,302v-25.9h7.8l1.5,2.5c0.8-0.7,1.9-1.4,3.2-2s2.7-0.9,4.1-0.9c2.2,0,3.9,0.4,5.1,1.3
			c1.2,0.8,1.9,2,2.4,3.5c0.4,1.5,0.6,3.1,0.6,4.9V302h-9.3v-15.5c0-0.7-0.1-1.2-0.3-1.5c-0.2-0.4-0.5-0.6-0.9-0.7
			c-0.4-0.1-0.8-0.2-1.3-0.2c-0.4,0-0.8,0.1-1.3,0.2c-0.4,0.1-0.9,0.3-1.2,0.5c-0.4,0.2-0.7,0.5-1,0.8V302H2004.4z"/>
		<path class="st2" d="M2039,302.3c-2,0-3.6-0.6-4.8-1.8c-1.2-1.2-1.8-2.8-1.8-4.8v-2.6c0-1.9,0.7-3.5,2.1-4.8s3.6-1.9,6.7-1.9h5.2
			v-0.8c0-0.6-0.1-1.1-0.3-1.5c-0.2-0.4-0.7-0.6-1.4-0.8c-0.7-0.1-1.8-0.2-3.2-0.2h-7.5v-5.3c1.3-0.5,2.9-1,4.6-1.3
			c1.7-0.4,3.9-0.5,6.4-0.5c2.2,0,4.1,0.2,5.7,0.7c1.6,0.5,2.9,1.4,3.7,2.7c0.9,1.3,1.3,3.2,1.3,5.6V302h-7.4l-1.4-2.6
			c-0.3,0.3-0.7,0.6-1.2,1s-1,0.6-1.7,0.9c-0.6,0.3-1.4,0.5-2.2,0.7C2041,302.2,2040.1,302.3,2039,302.3z M2043.9,296
			c0.2,0,0.3,0,0.5,0c0.2,0,0.4-0.1,0.6-0.1c0.2,0,0.4-0.1,0.6-0.1c0.2,0,0.3-0.1,0.5-0.2c0.1-0.1,0.2-0.1,0.3-0.1v-4.7l-2,0.3
			c-0.9,0.1-1.6,0.4-2,0.7c-0.5,0.3-0.7,0.9-0.7,1.6v1c0,0.4,0.1,0.8,0.3,1c0.2,0.3,0.4,0.5,0.8,0.6
			C2043,295.9,2043.5,296,2043.9,296z"/>
		<path class="st2" d="M2069.6,302.3c-0.9,0-1.9,0-2.8-0.1c-0.9-0.1-1.8-0.2-2.7-0.3c-0.9-0.1-1.7-0.3-2.5-0.5
			c-0.8-0.2-1.5-0.4-2.1-0.7v-5.4h12c0.4,0,0.7,0,0.9-0.1c0.2-0.1,0.3-0.2,0.4-0.3s0.1-0.3,0.1-0.5v-0.6c0-0.3-0.1-0.6-0.3-0.7
			s-0.7-0.3-1.5-0.3h-4.3c-1.4,0-2.8-0.2-4-0.7c-1.2-0.5-2.2-1.3-2.9-2.4s-1.1-2.5-1.1-4.4v-1.6c0-1.7,0.3-3.1,1-4.2
			c0.6-1.2,1.8-2.1,3.4-2.7s3.9-0.9,6.9-0.9c1.2,0,2.4,0.1,3.6,0.2c1.2,0.1,2.3,0.3,3.4,0.6c1,0.2,1.8,0.5,2.4,0.7v5.4h-11.4
			c-0.5,0-0.8,0.1-1.1,0.2c-0.2,0.1-0.3,0.4-0.3,0.7v0.6c0,0.3,0.1,0.5,0.2,0.6c0.1,0.1,0.3,0.2,0.6,0.3c0.3,0.1,0.7,0.1,1.2,0.1
			h4.5c2.8,0,4.8,0.6,5.9,1.9c1.1,1.3,1.7,3,1.7,5.2v2.6c0,1.7-0.4,3.1-1.2,4.2c-0.8,1.1-2.1,1.8-3.7,2.3
			C2074.2,302.1,2072.1,302.3,2069.6,302.3z"/>
		<path class="st2" d="M2094.9,302c-2.2,0-4-0.3-5.3-0.9c-1.3-0.6-2.3-1.6-2.8-3c-0.6-1.4-0.8-3.4-0.7-5.8l0.3-8.7h-4v-6l4.4-1.4
			l1.2-7.2h7.4v7.2h5.2v7.4h-5.2v8.7c0,0.4,0,0.8,0.1,1.1c0.1,0.3,0.2,0.6,0.3,0.8c0.1,0.2,0.3,0.4,0.6,0.5c0.2,0.1,0.5,0.2,0.8,0.2
			l3.3,0.3v6.9H2094.9z"/>
		<path class="st2" d="M2109.4,302.3c-2,0-3.6-0.6-4.8-1.8c-1.2-1.2-1.8-2.8-1.8-4.8v-2.6c0-1.9,0.7-3.5,2.1-4.8s3.6-1.9,6.7-1.9
			h5.2v-0.8c0-0.6-0.1-1.1-0.3-1.5c-0.2-0.4-0.7-0.6-1.4-0.8c-0.7-0.1-1.8-0.2-3.2-0.2h-7.5v-5.3c1.3-0.5,2.9-1,4.6-1.3
			c1.7-0.4,3.9-0.5,6.4-0.5c2.2,0,4.1,0.2,5.7,0.7c1.6,0.5,2.9,1.4,3.7,2.7c0.9,1.3,1.3,3.2,1.3,5.6V302h-7.4l-1.4-2.6
			c-0.3,0.3-0.7,0.6-1.2,1s-1,0.6-1.7,0.9c-0.6,0.3-1.4,0.5-2.2,0.7C2111.3,302.2,2110.4,302.3,2109.4,302.3z M2114.3,296
			c0.2,0,0.3,0,0.5,0c0.2,0,0.4-0.1,0.6-0.1c0.2,0,0.4-0.1,0.6-0.1c0.2,0,0.3-0.1,0.5-0.2c0.1-0.1,0.2-0.1,0.3-0.1v-4.7l-2,0.3
			c-0.9,0.1-1.6,0.4-2,0.7c-0.5,0.3-0.7,0.9-0.7,1.6v1c0,0.4,0.1,0.8,0.3,1c0.2,0.3,0.4,0.5,0.8,0.6
			C2113.4,295.9,2113.8,296,2114.3,296z"/>
		<path class="st2" d="M2003.3,359.9c-1.1,0-2-0.1-2.8-0.3c-0.8-0.2-1.5-0.5-2.1-0.9s-1.3-0.9-1.9-1.4l-1.4,2.4h-7.9V323h9.3v12.2
			c0.9-0.4,1.9-0.9,3-1.3c1.1-0.4,2.2-0.6,3.3-0.6c2.3,0,4.1,0.5,5.4,1.4c1.3,1,2.3,2.4,2.8,4.4c0.6,2,0.8,4.6,0.8,7.8
			c0,3-0.3,5.5-1,7.4c-0.6,1.9-1.6,3.3-2.9,4.2C2006.8,359.5,2005.2,359.9,2003.3,359.9z M1999.7,352.4c0.5,0,0.9-0.1,1.4-0.4
			c0.4-0.3,0.8-0.8,1.1-1.6c0.3-0.8,0.5-2.1,0.5-3.8c0-1.8-0.2-3.1-0.5-3.9c-0.3-0.8-0.7-1.3-1.2-1.5c-0.5-0.2-0.9-0.3-1.4-0.3
			c-0.6,0-1.2,0.1-1.8,0.3s-1.1,0.4-1.3,0.6v9.9c0.4,0.2,0.8,0.4,1.3,0.5C1998.3,352.3,1998.9,352.4,1999.7,352.4z"/>
		<path class="st2" d="M2021.3,359.9c-2,0-3.6-0.6-4.8-1.8c-1.2-1.2-1.8-2.8-1.8-4.8v-2.6c0-1.9,0.7-3.5,2.1-4.8
			c1.4-1.3,3.6-1.9,6.7-1.9h5.2v-0.8c0-0.6-0.1-1.1-0.3-1.5c-0.2-0.4-0.7-0.6-1.4-0.8c-0.7-0.1-1.8-0.2-3.2-0.2h-7.5v-5.3
			c1.3-0.5,2.9-1,4.6-1.3c1.7-0.4,3.9-0.5,6.4-0.5c2.2,0,4.1,0.2,5.7,0.7c1.6,0.5,2.9,1.4,3.7,2.7s1.3,3.2,1.3,5.6v17.1h-7.4
			l-1.4-2.6c-0.3,0.3-0.7,0.6-1.2,1c-0.5,0.3-1,0.6-1.7,0.9c-0.6,0.3-1.4,0.5-2.2,0.7S2022.4,359.9,2021.3,359.9z M2024,329.3
			l3.3-6.9h7.4l-5.2,6.9H2024z M2026.2,353.6c0.2,0,0.3,0,0.5,0c0.2,0,0.4-0.1,0.6-0.1c0.2,0,0.4-0.1,0.6-0.1c0.2,0,0.3-0.1,0.5-0.2
			c0.1-0.1,0.2-0.1,0.3-0.1v-4.7l-2,0.3c-0.9,0.1-1.6,0.4-2,0.7c-0.5,0.3-0.7,0.9-0.7,1.6v1c0,0.4,0.1,0.8,0.3,1
			c0.2,0.3,0.4,0.5,0.8,0.6C2025.3,353.5,2025.7,353.6,2026.2,353.6z"/>
		<path class="st2" d="M2051.9,359.9c-0.9,0-1.9,0-2.8-0.1s-1.8-0.2-2.7-0.3s-1.7-0.3-2.5-0.5s-1.5-0.4-2.1-0.7V353h12
			c0.4,0,0.7,0,0.9-0.1c0.2-0.1,0.3-0.2,0.4-0.3c0.1-0.1,0.1-0.3,0.1-0.5v-0.6c0-0.3-0.1-0.6-0.3-0.7c-0.2-0.2-0.7-0.3-1.5-0.3h-4.3
			c-1.4,0-2.8-0.2-4-0.7s-2.2-1.3-2.9-2.4c-0.7-1.1-1.1-2.5-1.1-4.4v-1.6c0-1.7,0.3-3.1,1-4.2c0.6-1.2,1.8-2.1,3.4-2.7
			c1.6-0.6,3.9-0.9,6.9-0.9c1.2,0,2.4,0.1,3.6,0.2c1.2,0.1,2.3,0.3,3.4,0.6c1,0.2,1.8,0.5,2.4,0.7v5.4h-11.4c-0.5,0-0.8,0.1-1.1,0.2
			c-0.2,0.1-0.3,0.4-0.3,0.7v0.6c0,0.3,0.1,0.5,0.2,0.6c0.1,0.1,0.3,0.2,0.6,0.3c0.3,0.1,0.7,0.1,1.2,0.1h4.5c2.8,0,4.8,0.6,5.9,1.9
			c1.1,1.3,1.7,3,1.7,5.2v2.6c0,1.7-0.4,3.1-1.2,4.2s-2.1,1.8-3.7,2.3C2056.5,359.7,2054.4,359.9,2051.9,359.9z"/>
		<path class="st2" d="M2067.6,330.5c-0.8,0-1.2-0.4-1.2-1.1V324c0-0.8,0.4-1.2,1.2-1.2h7.3c0.4,0,0.6,0.1,0.8,0.3
			c0.2,0.2,0.3,0.5,0.3,0.9v5.3c0,0.7-0.4,1.1-1.1,1.1H2067.6z M2066.5,359.6v-25.9h9.3v25.9H2066.5z"/>
		<path class="st2" d="M2090.5,359.9c-1.6,0-3.1-0.2-4.5-0.6c-1.4-0.4-2.6-1.1-3.6-2.1c-1-1-1.8-2.3-2.3-4c-0.5-1.7-0.8-3.8-0.8-6.3
			c0-2.6,0.2-4.8,0.7-6.6s1.2-3.1,2.2-4.2c1-1,2.2-1.8,3.6-2.2s3.1-0.6,4.9-0.6c1.7,0,3.3,0.1,4.7,0.3c1.4,0.2,2.9,0.6,4.6,1.2v5.3
			h-6.3c-1.4,0-2.4,0.2-3.2,0.6c-0.8,0.4-1.3,1-1.6,2c-0.3,0.9-0.4,2.3-0.4,4.1c0,1.8,0.1,3.1,0.4,4c0.3,0.9,0.8,1.5,1.5,1.8
			s1.9,0.4,3.3,0.4h6.5v5.2c-0.8,0.3-1.8,0.6-2.9,0.9c-1.1,0.3-2.3,0.5-3.5,0.6C2092.8,359.8,2091.7,359.9,2090.5,359.9z"/>
		<path class="st2" d="M2109.4,359.9c-2,0-3.6-0.6-4.8-1.8c-1.2-1.2-1.8-2.8-1.8-4.8v-2.6c0-1.9,0.7-3.5,2.1-4.8
			c1.4-1.3,3.6-1.9,6.7-1.9h5.2v-0.8c0-0.6-0.1-1.1-0.3-1.5c-0.2-0.4-0.7-0.6-1.4-0.8c-0.7-0.1-1.8-0.2-3.2-0.2h-7.5v-5.3
			c1.3-0.5,2.9-1,4.6-1.3c1.7-0.4,3.9-0.5,6.4-0.5c2.2,0,4.1,0.2,5.7,0.7c1.6,0.5,2.9,1.4,3.7,2.7c0.9,1.3,1.3,3.2,1.3,5.6v17.1
			h-7.4l-1.4-2.6c-0.3,0.3-0.7,0.6-1.2,1c-0.5,0.3-1,0.6-1.7,0.9c-0.6,0.3-1.4,0.5-2.2,0.7C2111.3,359.8,2110.4,359.9,2109.4,359.9z
			 M2114.3,353.6c0.2,0,0.3,0,0.5,0c0.2,0,0.4-0.1,0.6-0.1c0.2,0,0.4-0.1,0.6-0.1s0.3-0.1,0.5-0.2c0.1-0.1,0.2-0.1,0.3-0.1v-4.7
			l-2,0.3c-0.9,0.1-1.6,0.4-2,0.7c-0.5,0.3-0.7,0.9-0.7,1.6v1c0,0.4,0.1,0.8,0.3,1c0.2,0.3,0.4,0.5,0.8,0.6
			C2113.4,353.5,2113.8,353.6,2114.3,353.6z"/>
	</g>
	<rect x="1594.1" y="369.9" class="st2" width="533.9" height="1"/>
	<g>
		<path class="st2" d="M2055.9,427.1c-2,0-3.9,0-5.5-0.1s-3.1-0.1-4.3-0.2v-1.1h9.4c1.1,0,2.2-0.1,3.1-0.4c1-0.3,1.7-0.8,2.3-1.5
			c0.6-0.7,0.9-1.8,0.9-3.2v-2.2c0-1.2-0.3-2.1-0.9-2.8s-1.3-1.2-2.1-1.4c-0.8-0.3-1.7-0.4-2.5-0.5l-7.3-0.3v-1l7.3-0.3
			c1.5-0.1,2.7-0.4,3.7-1c1-0.6,1.4-1.7,1.4-3.2v-2.4c0-1.6-0.5-2.8-1.6-3.7c-1.1-0.9-2.6-1.3-4.6-1.3h-8.1v-1.1
			c1-0.1,2.2-0.2,3.6-0.2c1.4-0.1,3.1-0.1,4.9-0.1c1.7,0,3.1,0.3,4.1,0.8c1.1,0.6,1.8,1.3,2.4,2.3s0.8,2,0.8,3.2v2.5
			c0,1-0.2,1.8-0.5,2.4c-0.3,0.6-0.7,1.1-1.2,1.5c-0.5,0.4-1,0.7-1.4,0.9c-0.5,0.2-0.9,0.3-1.2,0.3c0.4,0.1,0.8,0.2,1.3,0.4
			c0.5,0.2,1.1,0.6,1.6,1c0.5,0.4,1,1,1.3,1.7c0.4,0.7,0.5,1.5,0.5,2.5v2.3c0,2.1-0.7,3.7-2,4.8
			C2060.1,426.6,2058.3,427.1,2055.9,427.1z"/>
		<path class="st2" d="M2076.7,426.9c-1.2,0-2.3-0.2-3.3-0.6c-1-0.4-1.8-1.1-2.4-2c-0.6-0.9-0.9-2.1-0.9-3.7v-15.5
			c0-1.4,0.3-2.6,0.9-3.5c0.6-0.9,1.4-1.6,2.4-2.1c1-0.5,2.1-0.7,3.4-0.7h5.2c1.5,0,2.8,0.3,3.7,0.8c0.9,0.6,1.6,1.3,2.1,2.3
			s0.6,2,0.6,3.2v15.5c0,2.3-0.6,3.9-1.8,4.8c-1.2,1-2.8,1.5-4.7,1.5H2076.7z M2076.8,425.5h4.8c1.8,0,3.2-0.4,4-1.3
			s1.2-2.1,1.2-3.6v-15.3c0-1.6-0.4-2.9-1.3-3.7c-0.8-0.8-2.1-1.3-3.8-1.3h-4.9c-1.6,0-2.9,0.4-3.8,1.3s-1.4,2.1-1.4,3.7v15.3
			c0,1.6,0.5,2.9,1.4,3.7S2075.2,425.5,2076.8,425.5z"/>
		<path class="st2" d="M2098.7,413.6c-1.8,0-3.1-0.4-3.8-1.2c-0.7-0.8-1-2-1-3.6v-5c0-1.6,0.3-2.8,1-3.6c0.7-0.8,2-1.2,3.9-1.2h3.8
			c1.9,0,3.2,0.4,3.8,1.2c0.7,0.8,1,2,1,3.6v5c0,1.6-0.3,2.8-1,3.6c-0.7,0.8-2,1.2-3.9,1.2H2098.7z M2098.7,412.6h3.6
			c1.4,0,2.4-0.3,3.1-0.8c0.6-0.5,1-1.5,1-3.1V404c0-1.4-0.3-2.4-0.8-3s-1.6-0.9-3.1-0.9h-3.6c-1.4,0-2.4,0.2-3,0.7
			c-0.6,0.5-1,1.5-1,3.1v4.8c0,1.5,0.3,2.5,0.9,3.1C2096.3,412.3,2097.3,412.6,2098.7,412.6z M2100.7,426.9l16.7-27.8h1.2
			l-16.7,27.8H2100.7z M2117.3,426.8c-1.8,0-3.1-0.4-3.8-1.2c-0.7-0.8-1-2-1-3.6v-5c0-1.6,0.3-2.8,1-3.6c0.7-0.8,2-1.2,3.9-1.2h3.8
			c1.9,0,3.2,0.4,3.8,1.2c0.7,0.8,1,2,1,3.6v5c0,1.6-0.3,2.8-1,3.6c-0.7,0.8-2,1.2-3.9,1.2H2117.3z M2117.4,425.7h3.6
			c1.4,0,2.4-0.3,3.1-0.8c0.6-0.5,1-1.5,1-3.1v-4.8c0-1.4-0.3-2.4-0.8-3c-0.5-0.6-1.6-0.9-3.1-0.9h-3.6c-1.4,0-2.4,0.2-3,0.7
			c-0.6,0.5-1,1.5-1,3.1v4.8c0,1.5,0.3,2.5,0.9,3.1C2115,425.5,2116,425.7,2117.4,425.7z"/>
	</g>
	<g>
		<path class="st3" d="M1920.4,1163l10.6-35.7h11.6l10.6,35.7h-9.6l-1.4-5.7h-10.7l-1.4,5.7H1920.4z M1933.5,1149h6.4l-3.2-13.7
			L1933.5,1149z"/>
		<path class="st3" d="M1964,1163.2c-2,0-3.7-0.3-5.1-1c-1.3-0.6-2.3-1.6-3-2.9c-0.6-1.3-1-2.8-1-4.7v-28.2h9.3v26.8
			c0,0.6,0.1,1.1,0.2,1.5c0.1,0.4,0.4,0.7,0.7,1c0.3,0.2,0.7,0.4,1.2,0.5l1.6,0.2v6.8H1964z"/>
		<path class="st3" d="M1971.7,1133.9c-0.8,0-1.2-0.4-1.2-1.1v-5.3c0-0.8,0.4-1.2,1.2-1.2h7.3c0.4,0,0.6,0.1,0.8,0.3
			c0.2,0.2,0.3,0.5,0.3,0.9v5.3c0,0.7-0.4,1.1-1.1,1.1H1971.7z M1970.7,1163v-25.9h9.3v25.9H1970.7z"/>
		<path class="st3" d="M1984.2,1163v-25.9h7.8l1.5,2.5c1-0.8,2.1-1.5,3.3-2.1s2.7-0.9,4.7-0.9c1.6,0,2.9,0.3,4,1
			c1,0.7,1.8,1.5,2.4,2.5c0.7-0.5,1.4-1,2.3-1.6c0.9-0.5,1.8-1,2.8-1.4c1-0.4,2-0.6,3-0.6c2.2,0,3.9,0.4,5.1,1.2s2,1.9,2.5,3.4
			c0.4,1.5,0.7,3.3,0.7,5.4v16.3h-9.3v-15.5c0-0.7-0.1-1.2-0.3-1.5c-0.2-0.4-0.5-0.6-0.9-0.7c-0.4-0.1-0.8-0.2-1.3-0.2
			c-0.6,0-1.3,0.1-1.9,0.4c-0.6,0.3-1.2,0.6-1.6,1.1c0,0.2,0,0.4,0,0.6c0,0.2,0,0.4,0,0.6v15.3h-9.3v-15.5c0-0.7-0.1-1.2-0.3-1.5
			c-0.2-0.4-0.5-0.6-0.9-0.7s-0.8-0.2-1.3-0.2c-0.4,0-0.8,0.1-1.3,0.2c-0.4,0.1-0.9,0.3-1.2,0.5c-0.4,0.2-0.7,0.5-1,0.8v16.5H1984.2
			z"/>
		<path class="st3" d="M2039.9,1163.3c-2.9,0-5.3-0.4-7.1-1.1s-3.1-2.1-3.9-4c-0.8-1.9-1.2-4.6-1.2-8c0-3.6,0.4-6.3,1.1-8.2
			c0.7-1.9,2-3.3,3.7-4.1s4.1-1.2,7-1.2c2.8,0,4.9,0.3,6.5,0.8c1.6,0.5,2.7,1.4,3.4,2.8c0.7,1.3,1,3.2,1,5.6c0,1.9-0.4,3.4-1.1,4.4
			c-0.7,1.1-1.8,1.8-3.1,2.3c-1.3,0.4-2.9,0.7-4.8,0.7h-4.6c0.1,0.8,0.3,1.4,0.6,1.8s0.8,0.8,1.6,1c0.8,0.2,1.9,0.3,3.4,0.3h7.1v5.4
			c-1.1,0.3-2.5,0.6-4,1C2044,1163.1,2042.1,1163.3,2039.9,1163.3z M2036.8,1147.8h3.7c0.6,0,1.1-0.1,1.4-0.4s0.4-0.8,0.4-1.5
			c0-0.6-0.1-1.1-0.3-1.5c-0.2-0.4-0.5-0.7-0.9-0.8c-0.4-0.2-1-0.3-1.6-0.3c-0.6,0-1.1,0.1-1.5,0.4c-0.4,0.3-0.7,0.7-0.9,1.4
			C2036.9,1145.7,2036.8,1146.7,2036.8,1147.8z"/>
		<path class="st3" d="M2054,1163v-25.9h7.8l1.5,2.5c0.8-0.7,1.9-1.4,3.2-2c1.3-0.6,2.7-0.9,4.1-0.9c2.2,0,3.9,0.4,5.1,1.3
			c1.2,0.8,1.9,2,2.4,3.5c0.4,1.5,0.6,3.1,0.6,4.9v16.7h-9.3v-15.5c0-0.7-0.1-1.2-0.3-1.5c-0.2-0.4-0.5-0.6-0.9-0.7
			s-0.8-0.2-1.3-0.2c-0.4,0-0.8,0.1-1.3,0.2c-0.4,0.1-0.9,0.3-1.2,0.5c-0.4,0.2-0.7,0.5-1,0.8v16.5H2054z"/>
		<path class="st3" d="M2093.5,1163c-2.2,0-4-0.3-5.3-0.9c-1.3-0.6-2.3-1.6-2.8-3c-0.6-1.4-0.8-3.4-0.7-5.8l0.3-8.7h-4v-6l4.4-1.4
			l1.2-7.2h7.4v7.2h5.2v7.4h-5.2v8.7c0,0.4,0,0.8,0.1,1.1c0.1,0.3,0.2,0.6,0.3,0.8c0.1,0.2,0.3,0.4,0.6,0.5c0.2,0.1,0.5,0.2,0.8,0.2
			l3.3,0.3v6.9H2093.5z"/>
		<path class="st3" d="M2113.8,1163.3c-2.3,0-4.2-0.2-5.8-0.7s-2.9-1.2-3.8-2.3c-1-1.1-1.6-2.4-2.1-4.1c-0.4-1.7-0.6-3.7-0.6-6.1
			c0-2.6,0.2-4.7,0.6-6.5c0.4-1.7,1.1-3.1,2.1-4.1c1-1,2.2-1.7,3.8-2.1s3.5-0.6,5.8-0.6c2.3,0,4.2,0.2,5.8,0.7
			c1.6,0.4,2.8,1.2,3.8,2.2c0.9,1,1.6,2.4,2.1,4.1c0.4,1.7,0.6,3.8,0.6,6.4c0,2.5-0.2,4.6-0.6,6.3c-0.4,1.7-1.1,3.1-2,4.1
			c-0.9,1-2.2,1.8-3.8,2.2S2116.2,1163.3,2113.8,1163.3z M2113.8,1155.9c0.6,0,1.1-0.1,1.5-0.2c0.4-0.1,0.7-0.4,0.9-0.7
			s0.4-1,0.5-1.8c0.1-0.8,0.1-1.9,0.1-3.2c0-1.3,0-2.4-0.1-3.2c-0.1-0.8-0.3-1.4-0.5-1.8c-0.2-0.4-0.5-0.6-0.9-0.7
			c-0.4-0.1-0.9-0.2-1.5-0.2c-0.6,0-1.1,0.1-1.5,0.2c-0.4,0.1-0.7,0.4-0.9,0.7c-0.2,0.4-0.4,1-0.5,1.8c-0.1,0.8-0.1,1.8-0.1,3.2
			c0,1.3,0,2.4,0.1,3.2c0.1,0.8,0.3,1.4,0.5,1.8s0.5,0.6,0.9,0.7S2113.2,1155.9,2113.8,1155.9z"/>
		<path class="st3" d="M2139.5,1163.3c-0.9,0-1.9,0-2.8-0.1c-0.9-0.1-1.8-0.2-2.7-0.3c-0.9-0.1-1.7-0.3-2.5-0.5
			c-0.8-0.2-1.5-0.4-2.1-0.7v-5.4h12c0.4,0,0.7,0,0.9-0.1c0.2-0.1,0.3-0.2,0.4-0.3c0.1-0.1,0.1-0.3,0.1-0.5v-0.6
			c0-0.3-0.1-0.6-0.3-0.7s-0.7-0.3-1.5-0.3h-4.3c-1.4,0-2.8-0.2-4-0.7s-2.2-1.3-2.9-2.4s-1.1-2.5-1.1-4.4v-1.6c0-1.7,0.3-3.1,1-4.2
			c0.6-1.2,1.8-2.1,3.4-2.7c1.6-0.6,3.9-0.9,6.9-0.9c1.2,0,2.4,0.1,3.6,0.2c1.2,0.1,2.3,0.3,3.4,0.6c1,0.2,1.8,0.5,2.4,0.7v5.4
			h-11.4c-0.5,0-0.8,0.1-1.1,0.2s-0.3,0.4-0.3,0.7v0.6c0,0.3,0.1,0.5,0.2,0.6s0.3,0.2,0.6,0.3c0.3,0.1,0.7,0.1,1.2,0.1h4.5
			c2.8,0,4.8,0.6,5.9,1.9c1.1,1.3,1.7,3,1.7,5.2v2.6c0,1.7-0.4,3.1-1.2,4.2c-0.8,1.1-2.1,1.8-3.7,2.3
			C2144.1,1163.1,2142,1163.3,2139.5,1163.3z"/>
		<path class="st3" d="M1932.3,1220.9c-2.9,0-5.3-0.4-7.1-1.1c-1.8-0.7-3.1-2.1-3.9-4c-0.8-1.9-1.2-4.6-1.2-8c0-3.6,0.4-6.3,1.1-8.2
			c0.7-1.9,2-3.3,3.7-4.1c1.7-0.8,4.1-1.2,7-1.2c2.8,0,4.9,0.3,6.5,0.8s2.7,1.4,3.4,2.8c0.7,1.3,1,3.2,1,5.6c0,1.9-0.4,3.4-1.1,4.4
			c-0.7,1.1-1.8,1.8-3.1,2.3s-2.9,0.7-4.8,0.7h-4.6c0.1,0.8,0.3,1.4,0.6,1.8s0.8,0.8,1.6,1c0.8,0.2,1.9,0.3,3.4,0.3h7.1v5.4
			c-1.1,0.3-2.5,0.6-4,1S1934.4,1220.9,1932.3,1220.9z M1929.1,1205.4h3.7c0.6,0,1.1-0.1,1.4-0.4c0.3-0.3,0.4-0.8,0.4-1.5
			c0-0.6-0.1-1.1-0.3-1.5c-0.2-0.4-0.5-0.7-0.9-0.8c-0.4-0.2-1-0.3-1.6-0.3c-0.6,0-1.1,0.1-1.5,0.4s-0.7,0.7-0.9,1.4
			C1929.2,1203.3,1929.1,1204.3,1929.1,1205.4z"/>
		<path class="st3" d="M1956.1,1220.9c-0.9,0-1.9,0-2.8-0.1c-0.9-0.1-1.8-0.2-2.7-0.3c-0.9-0.1-1.7-0.3-2.5-0.5
			c-0.8-0.2-1.5-0.4-2.1-0.7v-5.4h12c0.4,0,0.7,0,0.9-0.1c0.2-0.1,0.3-0.2,0.4-0.3s0.1-0.3,0.1-0.5v-0.6c0-0.3-0.1-0.6-0.3-0.7
			s-0.7-0.3-1.5-0.3h-4.3c-1.4,0-2.8-0.2-4-0.7c-1.2-0.5-2.2-1.3-2.9-2.4s-1.1-2.5-1.1-4.4v-1.6c0-1.7,0.3-3.1,1-4.2
			c0.6-1.2,1.8-2.1,3.4-2.7s3.9-0.9,6.9-0.9c1.2,0,2.4,0.1,3.6,0.2c1.2,0.1,2.3,0.3,3.4,0.6c1,0.2,1.8,0.5,2.4,0.7v5.4h-11.4
			c-0.5,0-0.8,0.1-1.1,0.2c-0.2,0.1-0.3,0.4-0.3,0.7v0.6c0,0.3,0.1,0.5,0.2,0.6c0.1,0.1,0.3,0.2,0.6,0.3c0.3,0.1,0.7,0.1,1.2,0.1
			h4.5c2.8,0,4.8,0.6,5.9,1.9c1.1,1.3,1.7,3,1.7,5.2v2.6c0,1.7-0.4,3.1-1.2,4.2c-0.8,1.1-2.1,1.8-3.7,2.3
			C1960.7,1220.7,1958.6,1220.9,1956.1,1220.9z"/>
		<path class="st3" d="M1970.8,1232v-37.2h7.9l1.4,2.4c0.6-0.5,1.3-1,1.9-1.4s1.3-0.7,2-1s1.5-0.4,2.5-0.4c1.5,0,2.9,0.3,4,0.8
			c1.2,0.5,2.1,1.4,2.9,2.5c0.8,1.1,1.3,2.5,1.7,4.2c0.4,1.7,0.6,3.7,0.6,6c0,2.7-0.2,5-0.7,7c-0.5,2-1.4,3.5-2.7,4.6
			c-1.3,1.1-3.2,1.6-5.7,1.6c-1.1,0-2.2-0.1-3.3-0.3c-1.1-0.2-2.1-0.5-3-0.9v12.2H1970.8z M1983.2,1213.4c0.4,0,0.9-0.1,1.4-0.4
			c0.5-0.3,0.8-0.8,1.2-1.6c0.3-0.8,0.5-2,0.5-3.6c0-1.6-0.1-2.8-0.3-3.7c-0.2-0.9-0.6-1.5-1-1.8c-0.4-0.3-1-0.5-1.6-0.5
			c-0.7,0-1.3,0.1-1.9,0.3c-0.6,0.2-1,0.4-1.3,0.6v9.9c0.3,0.2,0.8,0.4,1.4,0.5C1982,1213.3,1982.6,1213.4,1983.2,1213.4z"/>
		<path class="st3" d="M2010.6,1220.9c-2.9,0-5.3-0.4-7.1-1.1c-1.8-0.7-3.1-2.1-3.9-4c-0.8-1.9-1.2-4.6-1.2-8c0-3.6,0.4-6.3,1.1-8.2
			c0.7-1.9,2-3.3,3.7-4.1c1.7-0.8,4.1-1.2,7-1.2c2.8,0,4.9,0.3,6.5,0.8s2.7,1.4,3.4,2.8c0.7,1.3,1,3.2,1,5.6c0,1.9-0.4,3.4-1.1,4.4
			c-0.7,1.1-1.8,1.8-3.1,2.3s-2.9,0.7-4.8,0.7h-4.6c0.1,0.8,0.3,1.4,0.6,1.8s0.8,0.8,1.6,1c0.8,0.2,1.9,0.3,3.4,0.3h7.1v5.4
			c-1.1,0.3-2.5,0.6-4,1S2012.8,1220.9,2010.6,1220.9z M2007.5,1205.4h3.7c0.6,0,1.1-0.1,1.4-0.4c0.3-0.3,0.4-0.8,0.4-1.5
			c0-0.6-0.1-1.1-0.3-1.5c-0.2-0.4-0.5-0.7-0.9-0.8c-0.4-0.2-1-0.3-1.6-0.3c-0.6,0-1.1,0.1-1.5,0.4s-0.7,0.7-0.9,1.4
			C2007.6,1203.3,2007.5,1204.3,2007.5,1205.4z"/>
		<path class="st3" d="M2035.3,1220.9c-1.6,0-3.1-0.2-4.5-0.6c-1.4-0.4-2.6-1.1-3.6-2.1c-1-1-1.8-2.3-2.3-4
			c-0.5-1.7-0.8-3.8-0.8-6.3c0-2.6,0.2-4.8,0.7-6.6c0.5-1.7,1.2-3.1,2.2-4.2c1-1,2.2-1.8,3.6-2.2c1.4-0.4,3.1-0.6,4.9-0.6
			c1.7,0,3.3,0.1,4.7,0.3c1.4,0.2,2.9,0.6,4.6,1.2v5.3h-6.3c-1.4,0-2.4,0.2-3.2,0.6c-0.8,0.4-1.3,1-1.6,2s-0.4,2.3-0.4,4.1
			c0,1.8,0.1,3.1,0.4,4c0.3,0.9,0.8,1.5,1.5,1.8c0.8,0.3,1.9,0.4,3.3,0.4h6.5v5.2c-0.8,0.3-1.8,0.6-2.9,0.9
			c-1.1,0.3-2.3,0.5-3.5,0.6C2037.6,1220.8,2036.4,1220.9,2035.3,1220.9z"/>
		<path class="st3" d="M2049.3,1191.5c-0.8,0-1.2-0.4-1.2-1.1v-5.3c0-0.8,0.4-1.2,1.2-1.2h7.3c0.4,0,0.6,0.1,0.8,0.3
			c0.2,0.2,0.3,0.5,0.3,0.9v5.3c0,0.7-0.4,1.1-1.1,1.1H2049.3z M2048.3,1220.6v-25.9h9.3v25.9H2048.3z"/>
		<path class="st3" d="M2067.6,1220.9c-2,0-3.6-0.6-4.8-1.8c-1.2-1.2-1.8-2.8-1.8-4.8v-2.6c0-1.9,0.7-3.5,2.1-4.8
			c1.4-1.3,3.6-1.9,6.7-1.9h5.2v-0.8c0-0.6-0.1-1.1-0.3-1.5c-0.2-0.4-0.7-0.6-1.4-0.8c-0.7-0.1-1.8-0.2-3.2-0.2h-7.5v-5.3
			c1.3-0.5,2.9-1,4.6-1.3c1.7-0.4,3.9-0.5,6.4-0.5c2.2,0,4.1,0.2,5.7,0.7c1.6,0.5,2.9,1.4,3.7,2.7c0.9,1.3,1.3,3.2,1.3,5.6v17.1
			h-7.4l-1.4-2.6c-0.3,0.3-0.7,0.6-1.2,1c-0.5,0.3-1,0.6-1.7,0.9c-0.6,0.3-1.4,0.5-2.2,0.7S2068.6,1220.9,2067.6,1220.9z
			 M2072.5,1214.6c0.2,0,0.3,0,0.5,0c0.2,0,0.4-0.1,0.6-0.1c0.2,0,0.4-0.1,0.6-0.1c0.2,0,0.3-0.1,0.5-0.2c0.1-0.1,0.2-0.1,0.3-0.1
			v-4.7l-2,0.3c-0.9,0.1-1.6,0.4-2,0.7c-0.5,0.3-0.7,0.9-0.7,1.6v1c0,0.4,0.1,0.8,0.3,1c0.2,0.3,0.4,0.5,0.8,0.6
			C2071.6,1214.5,2072,1214.6,2072.5,1214.6z"/>
		<path class="st3" d="M2097.4,1220.8c-2,0-3.7-0.3-5.1-1s-2.3-1.6-3-2.9c-0.6-1.3-1-2.8-1-4.7V1184h9.3v26.8c0,0.6,0.1,1.1,0.2,1.5
			c0.1,0.4,0.4,0.7,0.7,1c0.3,0.2,0.7,0.4,1.2,0.5l1.6,0.2v6.8H2097.4z"/>
		<path class="st3" d="M2115.6,1220.9c-2.9,0-5.3-0.4-7.1-1.1c-1.8-0.7-3.1-2.1-3.9-4c-0.8-1.9-1.2-4.6-1.2-8c0-3.6,0.4-6.3,1.1-8.2
			c0.7-1.9,2-3.3,3.7-4.1c1.7-0.8,4.1-1.2,7-1.2c2.8,0,4.9,0.3,6.5,0.8s2.7,1.4,3.4,2.8c0.7,1.3,1,3.2,1,5.6c0,1.9-0.4,3.4-1.1,4.4
			c-0.7,1.1-1.8,1.8-3.1,2.3s-2.9,0.7-4.8,0.7h-4.6c0.1,0.8,0.3,1.4,0.6,1.8s0.8,0.8,1.6,1c0.8,0.2,1.9,0.3,3.4,0.3h7.1v5.4
			c-1.1,0.3-2.5,0.6-4,1S2117.8,1220.9,2115.6,1220.9z M2112.5,1205.4h3.7c0.6,0,1.1-0.1,1.4-0.4c0.3-0.3,0.4-0.8,0.4-1.5
			c0-0.6-0.1-1.1-0.3-1.5c-0.2-0.4-0.5-0.7-0.9-0.8c-0.4-0.2-1-0.3-1.6-0.3c-0.6,0-1.1,0.1-1.5,0.4s-0.7,0.7-0.9,1.4
			C2112.6,1203.3,2112.5,1204.3,2112.5,1205.4z"/>
		<path class="st3" d="M2139.5,1220.9c-0.9,0-1.9,0-2.8-0.1c-0.9-0.1-1.8-0.2-2.7-0.3c-0.9-0.1-1.7-0.3-2.5-0.5
			c-0.8-0.2-1.5-0.4-2.1-0.7v-5.4h12c0.4,0,0.7,0,0.9-0.1c0.2-0.1,0.3-0.2,0.4-0.3s0.1-0.3,0.1-0.5v-0.6c0-0.3-0.1-0.6-0.3-0.7
			s-0.7-0.3-1.5-0.3h-4.3c-1.4,0-2.8-0.2-4-0.7c-1.2-0.5-2.2-1.3-2.9-2.4s-1.1-2.5-1.1-4.4v-1.6c0-1.7,0.3-3.1,1-4.2
			c0.6-1.2,1.8-2.1,3.4-2.7s3.9-0.9,6.9-0.9c1.2,0,2.4,0.1,3.6,0.2c1.2,0.1,2.3,0.3,3.4,0.6c1,0.2,1.8,0.5,2.4,0.7v5.4h-11.4
			c-0.5,0-0.8,0.1-1.1,0.2c-0.2,0.1-0.3,0.4-0.3,0.7v0.6c0,0.3,0.1,0.5,0.2,0.6c0.1,0.1,0.3,0.2,0.6,0.3c0.3,0.1,0.7,0.1,1.2,0.1
			h4.5c2.8,0,4.8,0.6,5.9,1.9c1.1,1.3,1.7,3,1.7,5.2v2.6c0,1.7-0.4,3.1-1.2,4.2c-0.8,1.1-2.1,1.8-3.7,2.3
			C2144.1,1220.7,2142,1220.9,2139.5,1220.9z"/>
	</g>
	<rect x="1373.9" y="1230.9" class="st3" width="779.8" height="1"/>
	<g>
		<path class="st3" d="M2070.9,1287.9v-1.3l10.9-10.2c1.2-1.2,2.2-2.2,2.9-3.2c0.7-1,1.2-2,1.5-3c0.3-1,0.4-2.1,0.4-3.3
			c0-1-0.2-2-0.6-2.8s-1.1-1.5-2.1-2c-1-0.5-2.5-0.7-4.4-0.7h-7.4v-1.1c1.1-0.1,2.4-0.1,3.7-0.2c1.4-0.1,2.7-0.1,4.1-0.1
			c2.1,0,3.7,0.3,4.9,0.9s2.1,1.4,2.6,2.5c0.5,1,0.8,2.2,0.8,3.6s-0.2,2.6-0.5,3.7c-0.4,1.1-0.9,2.2-1.7,3.3
			c-0.8,1.1-1.8,2.2-3.1,3.4l-9.8,9.3h16.1v1.5H2070.9z"/>
		<path class="st3" d="M2104.6,1288c-1.8,0-3.5,0-5.2-0.1s-3.2-0.1-4.4-0.2v-1.1h9.6c1.2,0,2.4-0.2,3.4-0.6c1-0.4,1.8-1,2.5-1.8
			c0.6-0.8,0.9-1.8,0.9-2.9v-3.7c0-1.5-0.5-2.7-1.4-3.6c-0.9-0.9-2.4-1.3-4.2-1.3h-3.4c-1.3,0-2.4,0.3-3.2,0.9
			c-0.8,0.6-1.4,1.6-1.6,2.9h-1.4l0.8-16.4h15.3v1.4h-13.9l-0.6,12.3c0.3-0.6,0.8-1.1,1.6-1.7c0.8-0.5,1.9-0.8,3.3-0.8h3.5
			c1.5,0,2.7,0.3,3.7,0.8c1,0.5,1.8,1.2,2.4,2.2c0.5,0.9,0.8,2,0.8,3.1v4.1c0,1.4-0.4,2.6-1.1,3.6c-0.7,1-1.7,1.7-3,2.2
			S2106.2,1288,2104.6,1288z"/>
		<path class="st3" d="M2122.6,1274.6c-1.8,0-3.1-0.4-3.8-1.2c-0.7-0.8-1-2-1-3.6v-5c0-1.6,0.3-2.8,1-3.6c0.7-0.8,2-1.2,3.9-1.2h3.8
			c1.9,0,3.2,0.4,3.8,1.2s1,2,1,3.6v5c0,1.6-0.3,2.8-1,3.6c-0.7,0.8-2,1.2-3.9,1.2H2122.6z M2122.7,1273.6h3.6
			c1.4,0,2.4-0.3,3.1-0.8c0.6-0.5,1-1.5,1-3.1v-4.8c0-1.4-0.3-2.4-0.8-3c-0.5-0.6-1.6-0.9-3.1-0.9h-3.6c-1.4,0-2.4,0.2-3,0.7
			c-0.6,0.5-1,1.5-1,3.1v4.8c0,1.5,0.3,2.5,0.9,3.1C2120.3,1273.3,2121.3,1273.6,2122.7,1273.6z M2124.7,1287.9l16.7-27.8h1.2
			l-16.7,27.8H2124.7z M2141.2,1287.8c-1.8,0-3.1-0.4-3.8-1.2c-0.7-0.8-1-2-1-3.6v-5c0-1.6,0.3-2.8,1-3.6c0.7-0.8,2-1.2,3.9-1.2h3.8
			c1.9,0,3.2,0.4,3.8,1.2c0.7,0.8,1,2,1,3.6v5c0,1.6-0.3,2.8-1,3.6c-0.7,0.8-2,1.2-3.9,1.2H2141.2z M2141.3,1286.7h3.6
			c1.4,0,2.4-0.3,3.1-0.8c0.6-0.5,1-1.5,1-3.1v-4.8c0-1.4-0.3-2.4-0.8-3s-1.6-0.9-3.1-0.9h-3.6c-1.4,0-2.4,0.2-3,0.7
			c-0.6,0.5-1,1.5-1,3.1v4.8c0,1.5,0.3,2.5,0.9,3.1C2138.9,1286.5,2139.9,1286.7,2141.3,1286.7z"/>
	</g>
	<g>
		<path class="st3" d="M2070.5,934.9l8.9,18c0.6,1.2,1.8,2.1,3.1,2.2l19.9,2.9c3.4,0.5,4.7,4.6,2.3,7l-14.4,14
			c-1,0.9-1.4,2.3-1.2,3.6l3.4,19.7c0.6,3.4-3,5.9-6,4.3l-17.8-9.3c-1.2-0.6-2.6-0.6-3.8,0l-17.8,9.3c-3,1.6-6.5-1-6-4.3l3.4-19.7
			c0.2-1.3-0.2-2.7-1.2-3.6l-14.4-14c-2.4-2.4-1.1-6.5,2.3-7l19.9-2.9c1.3-0.2,2.5-1,3.1-2.2l8.9-18
			C2064.6,931.8,2069,931.8,2070.5,934.9z"/>
		<path class="st3" d="M1981.6,1014.3v60.3c0,3.9,3.2,7.1,7.1,7.1h42.1l-0.2,0.3c-13.6,2.7-13.5,21-13.5,21h3.2h92.9h3.2
			c0,0,0-18.2-13.5-21l-0.2-0.3h42.1c3.9,0,7.1-3.2,7.1-7.1v-60.3H1981.6z"/>
	</g>
</g>
<g id="Layer_2">
</g>
</svg>
