<?xml version="1.0" encoding="utf-8"?>
<!-- Generator: Adobe Illustrator 25.2.3, SVG Export Plug-In . SVG Version: 6.00 Build 0)  -->
<svg version="1.1" xmlns="http://www.w3.org/2000/svg" xmlns:xlink="http://www.w3.org/1999/xlink" x="0px" y="0px"
	 viewBox="0 0 1600 900" style="enable-background:new 0 0 1600 900;" xml:space="preserve">
<style type="text/css">
	.st0{fill:#BEA3CC;}
	.st1{fill:#442856;}
	.st2{fill:#D695C0;}
	.st3{fill:#785089;}
	.st4{fill:none;stroke:#442856;stroke-width:15;stroke-miterlimit:10;}
	.st5{fill:#E34D99;}
	.st6{fill:#EC8231;}
	.st7{fill:#76BF60;}
	.st8{fill:#489B91;}
	.st9{fill:none;stroke:#BEA3CC;stroke-width:15;stroke-linecap:round;stroke-miterlimit:10;stroke-dasharray:12,21;}
	.st10{clip-path:url(#SVGID_2_);}
	.st11{fill:none;stroke:#D695C0;stroke-width:16;stroke-miterlimit:10;}
	.st12{fill:none;stroke:#785089;stroke-width:15;stroke-linecap:round;stroke-miterlimit:10;}
	.st13{fill:#C7E2C0;}
	.st14{fill:#9BD2CA;}
	.st15{fill:#FBC089;}
	.st16{fill:#E9A6C9;}
	.st17{fill:#F0CEE2;}
	.st18{fill:none;stroke:#442856;stroke-width:15;stroke-linecap:round;stroke-miterlimit:10;}
</style>
<g id="Layer_1">
	<path class="st4" d="M987.4,801.1H570.6V98.9h416.9c23.2,0,42,18.8,42,42v618.2C1029.4,782.3,1010.6,801.1,987.4,801.1z"/>
	<path class="st1" d="M957.5,768.7h-357V130.8h357c23.2,0,42,18.8,42,42v553.9C999.5,749.9,980.7,768.7,957.5,768.7z"/>
	<g>
		<path class="st0" d="M800,216.6c-69.5,0-126,56.5-126,126c0,69.5,56.5,126,126,126s126-56.5,126-126
			C926,273.1,869.5,216.6,800,216.6z M800,450.6c-59.6,0-108.1-48.5-108.1-108.1c0-59.6,48.5-108.1,108.1-108.1
			s108.1,48.5,108.1,108.1C908.1,402.1,859.6,450.6,800,450.6z"/>
		
			<ellipse transform="matrix(0.7071 -0.7071 0.7071 0.7071 -7.8781 666.005)" class="st0" cx="800" cy="342.5" rx="86.6" ry="86.6"/>
	</g>
	<g>
		<path class="st0" d="M702.1,552.4l9.5-32.1h10.5l9.5,32.1h-8.7l-1.3-5.1H712l-1.3,5.1H702.1z M713.9,539.7h5.8l-2.9-12.4
			L713.9,539.7z"/>
		<path class="st0" d="M742.6,552.4c-1.9,0-3.5-0.3-4.8-0.9c-1.2-0.6-2.1-1.5-2.7-2.7c-0.6-1.2-0.9-2.8-0.9-4.8v-23.8h8.4v22.4
			c0,0.5,0.1,0.9,0.2,1.3c0.2,0.3,0.4,0.6,0.8,0.8c0.3,0.2,0.8,0.2,1.3,0.2h9.3v7.5H742.6z"/>
		<path class="st0" d="M755.3,552.4l9.5-32.1h10.5l9.5,32.1h-8.7l-1.3-5.1h-9.6l-1.3,5.1H755.3z M767.1,539.7h5.8l-2.9-12.4
			L767.1,539.7z"/>
		<path class="st0" d="M797.9,552.6c-1.8,0-3.4-0.2-4.9-0.6c-1.4-0.4-2.7-1.2-3.7-2.4c-1-1.2-1.8-2.8-2.4-5c-0.5-2.2-0.8-5-0.8-8.4
			c0-3.3,0.3-6.1,0.9-8.2c0.6-2.1,1.4-3.8,2.4-5s2.3-2,3.7-2.4c1.4-0.4,3-0.7,4.8-0.7c1.8,0,3.4,0.1,4.7,0.3
			c1.4,0.2,2.5,0.4,3.5,0.7c1,0.3,1.7,0.5,2.3,0.8v6.5c-0.5-0.1-1.3-0.2-2.1-0.3c-0.9-0.1-1.9-0.2-3-0.3c-1.1-0.1-2.3-0.1-3.6-0.1
			c-1,0-1.8,0.1-2.5,0.3c-0.7,0.2-1.2,0.6-1.6,1.2c-0.4,0.6-0.7,1.5-0.9,2.7c-0.2,1.2-0.3,2.7-0.3,4.7c0,1.7,0.1,3.2,0.2,4.3
			c0.1,1.2,0.4,2.1,0.8,2.7c0.4,0.6,0.9,1.1,1.6,1.4c0.7,0.3,1.6,0.4,2.7,0.4c2.2,0,4,0,5.3-0.1c1.4-0.1,2.5-0.2,3.3-0.3v6.5
			c-0.7,0.3-1.6,0.5-2.5,0.7c-1,0.2-2.1,0.4-3.4,0.5C801.3,552.6,799.7,552.6,797.9,552.6z"/>
		<path class="st0" d="M820.5,552.6c-0.7,0-1.5-0.1-2.5-0.2c-1-0.1-1.9-0.5-2.8-1c-0.9-0.5-1.7-1.2-2.3-2.3c-0.6-1-0.9-2.4-0.9-4.2
			v-16.8c0-1.6,0.2-2.9,0.7-3.9c0.5-1,1.1-1.9,1.9-2.4c0.8-0.6,1.6-1,2.6-1.3c1-0.2,1.9-0.4,2.8-0.4c2.4,0,4.5,0,6.3,0.1
			c1.7,0.1,3.3,0.2,4.5,0.2c1.3,0.1,2.4,0.2,3.4,0.3v7.1h-11.6c-0.7,0-1.3,0.2-1.6,0.5c-0.4,0.3-0.6,0.8-0.6,1.4v2.7L832,533v6.7
			l-11.6,0.4v2.4c0,0.5,0.1,0.9,0.2,1.3c0.2,0.3,0.4,0.6,0.7,0.7c0.3,0.2,0.6,0.2,1,0.2h11.9v7.1c-1.2,0.2-2.7,0.3-4.2,0.4
			c-1.6,0.1-3.2,0.2-4.8,0.3C823.4,552.6,821.9,552.6,820.5,552.6z"/>
		<path class="st0" d="M838.1,552.4v-32.1h6.7l11.3,17.9v-17.9h8.4v32.1h-6.7l-11.3-17.9v17.9H838.1z"/>
		<path class="st0" d="M867,552.4l9.5-32.1H887l9.5,32.1h-8.7l-1.3-5.1h-9.6l-1.3,5.1H867z M878.9,539.7h5.8l-2.9-12.4L878.9,539.7z
			"/>
		<path class="st0" d="M700.4,604.5c-1,0-1.9,0-2.8-0.1c-0.9-0.1-1.8-0.1-2.7-0.3c-0.9-0.1-1.7-0.2-2.5-0.4
			c-0.8-0.1-1.6-0.3-2.3-0.5v-6.7c1,0.1,2,0.2,3.2,0.2c1.1,0.1,2.3,0.1,3.5,0.1c1.2,0,2.3,0,3.3,0c1,0,1.7-0.1,2.4-0.2
			c0.6-0.1,1.1-0.4,1.4-0.7c0.3-0.3,0.5-0.7,0.5-1.3v-0.5c0-0.6-0.2-1.1-0.7-1.4c-0.4-0.3-1-0.5-1.6-0.5h-2.3
			c-3.3,0-5.9-0.7-7.6-2.2c-1.7-1.5-2.6-3.9-2.6-7.4v-1.4c0-3.2,1-5.5,2.9-7.1c1.9-1.6,4.6-2.4,8.2-2.4c1.4,0,2.6,0.1,3.8,0.2
			c1.2,0.1,2.3,0.3,3.4,0.5c1.1,0.2,2,0.4,2.8,0.6v6.7c-1.3-0.1-2.8-0.2-4.5-0.3c-1.7-0.1-3.2-0.1-4.5-0.1c-0.8,0-1.5,0.1-2.2,0.2
			c-0.6,0.1-1.1,0.3-1.5,0.7c-0.3,0.3-0.5,0.9-0.5,1.5v0.4c0,0.7,0.2,1.3,0.7,1.6c0.5,0.4,1.2,0.6,2.1,0.6h2.9c2,0,3.7,0.4,5,1.1
			c1.3,0.8,2.3,1.8,3,3.1c0.7,1.3,1,2.8,1,4.5v1.4c0,2.7-0.5,4.8-1.4,6.3c-1,1.4-2.3,2.4-4.1,2.9
			C704.9,604.3,702.8,604.5,700.4,604.5z"/>
		<path class="st0" d="M729,604.5c-2.3,0-4.3-0.2-6-0.7c-1.7-0.4-3.2-1.2-4.3-2.4c-1.2-1.2-2-2.8-2.6-5c-0.6-2.1-0.9-4.9-0.9-8.3
			c0-3.4,0.3-6.2,0.9-8.3s1.4-3.8,2.6-5c1.2-1.2,2.6-2,4.3-2.4c1.7-0.4,3.7-0.7,6-0.7c2.3,0,4.3,0.2,6,0.7c1.7,0.4,3.1,1.2,4.3,2.4
			c1.2,1.2,2,2.8,2.6,5c0.6,2.1,0.9,4.9,0.9,8.3c0,3.4-0.3,6.2-0.9,8.3c-0.6,2.1-1.4,3.8-2.6,5c-1.2,1.2-2.6,2-4.3,2.4
			C733.3,604.3,731.3,604.5,729,604.5z M729,597c1.1,0,2-0.1,2.7-0.4c0.7-0.3,1.2-0.7,1.6-1.3c0.4-0.6,0.7-1.5,0.8-2.7
			c0.2-1.2,0.2-2.6,0.2-4.4c0-1.9-0.1-3.4-0.2-4.5c-0.2-1.2-0.4-2-0.8-2.7c-0.4-0.6-0.9-1-1.6-1.3c-0.7-0.2-1.6-0.3-2.7-0.3
			c-1.1,0-2,0.1-2.7,0.3c-0.7,0.2-1.3,0.7-1.6,1.3c-0.4,0.6-0.7,1.5-0.8,2.7c-0.2,1.2-0.2,2.7-0.2,4.5c0,1.8,0.1,3.3,0.2,4.4
			c0.2,1.2,0.4,2,0.8,2.7c0.4,0.6,0.9,1.1,1.6,1.3C727.1,596.9,728,597,729,597z"/>
		<path class="st0" d="M755.1,604.3c-1.9,0-3.5-0.3-4.8-0.9c-1.2-0.6-2.1-1.5-2.7-2.7c-0.6-1.2-0.9-2.8-0.9-4.8v-23.8h8.4v22.4
			c0,0.5,0.1,0.9,0.2,1.3c0.2,0.3,0.4,0.6,0.8,0.8c0.3,0.2,0.8,0.2,1.3,0.2h9.3v7.5H755.1z"/>
		<path class="st0" d="M770,604.3v-32.1h8.4v32.1H770z"/>
		<path class="st0" d="M783.1,604.3v-32.1h14.2c2.3,0,4.3,0.4,5.8,1.2c1.5,0.8,2.7,2,3.5,3.4c0.9,1.5,1.5,3.2,1.8,5.1
			c0.3,1.9,0.5,4,0.5,6.3c0,3.8-0.4,6.8-1.3,9.2c-0.9,2.4-2.1,4.1-3.9,5.2c-1.7,1.1-3.9,1.7-6.5,1.7H783.1z M791.5,596.7h4.9
			c1.1,0,1.9-0.3,2.5-0.9c0.6-0.6,1-1.5,1.3-2.7c0.2-1.3,0.4-2.9,0.4-4.9c0-1.9-0.1-3.4-0.3-4.6c-0.2-1.1-0.5-2-0.8-2.6
			c-0.4-0.6-0.8-1-1.3-1.1c-0.5-0.2-1.1-0.3-1.7-0.3h-4.9V596.7z"/>
		<path class="st0" d="M810.3,604.3l9.5-32.1h10.5l9.5,32.1h-8.7l-1.3-5.1h-9.6l-1.3,5.1H810.3z M822.1,591.6h5.8l-2.9-12.4
			L822.1,591.6z"/>
		<path class="st0" d="M842.4,604.3v-32.1h13.7c1.4,0,2.7,0.2,3.9,0.5c1.2,0.3,2.2,0.9,3.1,1.8c0.9,0.8,1.5,1.9,2,3.3
			c0.5,1.4,0.7,3.1,0.7,5.2c0,1.3-0.1,2.5-0.3,3.5c-0.2,1-0.5,1.8-0.9,2.5c-0.4,0.7-0.9,1.2-1.4,1.7c-0.5,0.5-1.1,0.9-1.7,1.2
			l5.6,12.5h-8.5l-4.5-11.1c-0.3,0-0.5,0-0.8,0c-0.3,0-0.5,0-0.8,0c-0.3,0-0.5,0-0.8,0c-0.3,0-0.5,0-0.8,0v11.1H842.4z M850.8,586.5
			h3.8c0.5,0,0.9-0.1,1.2-0.2c0.3-0.1,0.6-0.3,0.9-0.6c0.2-0.3,0.4-0.7,0.5-1.1s0.2-1,0.2-1.6c0-0.6-0.1-1.2-0.2-1.6
			c-0.1-0.4-0.3-0.8-0.5-1c-0.2-0.2-0.5-0.4-0.9-0.5c-0.3-0.1-0.7-0.2-1.2-0.2h-3.8V586.5z"/>
		<path class="st0" d="M870.1,604.3v-32.1h8.4v32.1H870.1z"/>
		<path class="st0" d="M881,604.3l9.5-32.1H901l9.5,32.1h-8.7l-1.3-5.1h-9.6l-1.3,5.1H881z M892.8,591.6h5.8l-2.9-12.4L892.8,591.6z
			"/>
	</g>
	<circle class="st9" cx="281.8" cy="417.7" r="203.6"/>
	<path class="st0" d="M269.6,190.6c-0.6,0-1.3-0.1-1.9-0.2c-4-1-6.4-5.1-5.4-9.1c1-4,2.2-8.1,3.6-12s5.6-6,9.5-4.7
		c3.9,1.3,6,5.6,4.7,9.5c-1.2,3.6-2.3,7.3-3.3,11C276,188.3,272.9,190.6,269.6,190.6z M280.9,159.6c-1.1,0-2.2-0.2-3.2-0.7
		c-3.7-1.8-5.3-6.3-3.6-10c1.8-3.7,3.7-7.5,5.7-11.1c2-3.6,6.6-4.9,10.2-2.9c3.6,2,4.9,6.6,2.9,10.2c-1.9,3.3-3.6,6.7-5.3,10.2
		C286.4,158.1,283.7,159.6,280.9,159.6z M297.7,131.3c-1.5,0-3.1-0.5-4.4-1.4c-3.3-2.4-4.1-7.1-1.6-10.5c2.4-3.3,5-6.7,7.7-9.8
		c2.7-3.2,7.4-3.6,10.6-1c3.2,2.7,3.6,7.4,1,10.6c-2.5,2.9-4.8,6-7.1,9.1C302.3,130.3,300,131.3,297.7,131.3z M319.4,106.6
		c-2,0-3.9-0.8-5.4-2.3c-2.9-3-2.8-7.7,0.2-10.6c3-2.8,6.1-5.7,9.3-8.3c3.2-2.7,7.9-2.3,10.6,0.9c2.7,3.2,2.3,7.9-0.9,10.6
		c-2.9,2.5-5.8,5.1-8.6,7.7C323.1,105.9,321.3,106.6,319.4,106.6z M345.1,85.9c-2.4,0-4.8-1.2-6.2-3.3c-2.3-3.4-1.4-8.1,2-10.4
		c3.4-2.3,6.9-4.6,10.5-6.7c3.6-2.1,8.2-1,10.3,2.6c2.1,3.6,1,8.2-2.6,10.3c-3.3,2-6.6,4.1-9.8,6.2C348,85.4,346.5,85.9,345.1,85.9z
		 M607.7,81.7c-1.2,0-2.4-0.3-3.5-0.9c-3.4-1.8-6.9-3.6-10.4-5.3c-3.7-1.8-5.3-6.3-3.5-10c1.8-3.7,6.3-5.3,10-3.5
		c3.7,1.8,7.3,3.7,10.9,5.6c3.7,2,5,6.5,3.1,10.2C613,80.3,610.4,81.7,607.7,81.7z M373.7,69.6c-2.8,0-5.5-1.6-6.8-4.3
		c-1.8-3.7-0.2-8.2,3.6-10c3.7-1.7,7.5-3.4,11.4-5c3.8-1.6,8.2,0.3,9.8,4.1c1.6,3.8-0.3,8.2-4.1,9.8c-3.6,1.5-7.1,3-10.6,4.7
		C375.9,69.3,374.8,69.6,373.7,69.6z M577.8,67.7c-0.9,0-1.9-0.2-2.8-0.5c-3.6-1.5-7.3-2.8-10.9-4.1c-3.9-1.4-5.9-5.7-4.6-9.6
		c1.4-3.9,5.7-5.9,9.6-4.6c3.8,1.4,7.7,2.8,11.5,4.4c3.8,1.5,5.7,5.9,4.2,9.8C583.6,66,580.8,67.7,577.8,67.7z M404.5,57.7
		c-3.2,0-6.2-2.1-7.2-5.3c-1.2-4,1-8.2,5-9.4c3.9-1.2,7.9-2.3,11.9-3.3c4-1,8.1,1.5,9.1,5.5c1,4-1.5,8.1-5.5,9.1
		c-3.8,0.9-7.5,2-11.2,3.1C405.9,57.6,405.2,57.7,404.5,57.7z M546.6,57.2c-0.7,0-1.3-0.1-2-0.3c-3.7-1-7.6-2-11.3-2.9
		c-4-0.9-6.6-4.9-5.6-9c0.9-4,4.9-6.6,9-5.6c4,0.9,8,1.9,11.9,3c4,1.1,6.3,5.2,5.2,9.2C552.9,55,549.9,57.2,546.6,57.2z M436.6,50.4
		c-3.6,0-6.8-2.6-7.4-6.3c-0.6-4.1,2.2-7.9,6.2-8.6c4-0.6,8.2-1.2,12.3-1.6c4.1-0.4,7.8,2.5,8.3,6.7c0.4,4.1-2.5,7.8-6.7,8.3
		c-3.9,0.4-7.7,0.9-11.5,1.5C437.4,50.4,437,50.4,436.6,50.4z M514.3,50.3c-0.4,0-0.7,0-1.1-0.1c-3.8-0.6-7.7-1.1-11.6-1.5
		c-4.1-0.4-7.1-4.1-6.7-8.2c0.4-4.1,4.1-7.1,8.2-6.7c4.1,0.4,8.2,0.9,12.2,1.6c4.1,0.6,6.9,4.4,6.3,8.5
		C521.2,47.7,518,50.3,514.3,50.3z M481.5,47.5c-0.1,0-0.1,0-0.2,0c-1.9,0-3.9-0.1-5.8-0.1c0,0,0,0-0.1,0c-1.9,0-3.9,0-5.8,0.1
		c-0.1,0-0.1,0-0.2,0c-4.1,0-7.4-3.2-7.5-7.3c-0.1-4.1,3.2-7.6,7.3-7.7c2,0,4.1-0.1,6.1-0.1c2,0,4.2,0,6.2,0.1
		c4.1,0.1,7.4,3.5,7.3,7.7C488.9,44.3,485.5,47.5,481.5,47.5z"/>
	<g>
		<defs>
			<ellipse id="SVGID_1_" cx="281.4" cy="417.7" rx="203.2" ry="201.2"/>
		</defs>
		<clipPath id="SVGID_2_">
			<use xlink:href="#SVGID_1_"  style="overflow:visible;"/>
		</clipPath>
		<g class="st10">
			<g>
				<rect x="211" y="287.1" class="st2" width="7.1" height="61.6"/>
				<rect x="230.8" y="287.9" class="st2" width="7.1" height="61.6"/>
				<rect x="250.5" y="286.3" class="st2" width="7.1" height="61.6"/>
				<polygon class="st2" points="270.3,286.3 270.3,347.1 270.3,347.8 277.3,347.8 277.3,347.1 277.3,286.3 277.3,285.5 
					270.3,285.5 				"/>
				<polygon class="st2" points="290,286.3 290,347.1 290,347.8 297.1,347.8 297.1,347.1 297.1,286.3 297.1,285.5 290,285.5 				"/>
				<rect x="309.7" y="286.3" class="st2" width="7.1" height="61.6"/>
				<rect x="329.5" y="286.3" class="st2" width="7.1" height="61.6"/>
			</g>
			<path class="st4" d="M377.9,670.9H170c-23.2,0-42-18.8-42-42v-195c0-23.2,18.8-42,42-42h207.8c23.2,0,42,18.8,42,42v195
				C419.9,652.1,401.1,670.9,377.9,670.9z"/>
			<line class="st4" x1="128" y1="531.4" x2="419.9" y2="531.4"/>
			<line class="st4" x1="274" y1="351.2" x2="274" y2="670.9"/>
			<rect x="207.8" y="286.8" class="st4" width="132.4" height="63.1"/>
		</g>
	</g>
	<g>
		<path class="st5" d="M1287.5,403.6h-30.2v-4c4-3.9,6.5-9.4,6.5-15.4c0-11.9-9.7-21.6-21.6-21.6s-21.6,9.7-21.6,21.6
			c0,6,2.5,11.5,6.5,15.4v4h-30.2c-2.4,0-4.3,1.9-4.3,4.3v21.6c0,2.4,1.9,4.3,4.3,4.3h13c0,17.9,14.5,32.4,32.4,32.4
			s32.4-14.5,32.4-32.4h13c2.4,0,4.3-1.9,4.3-4.3v-21.6C1291.8,405.5,1289.9,403.6,1287.5,403.6z M1242.1,455.4
			c-11.9,0-21.6-9.7-21.6-21.6h43.2C1263.7,445.7,1254.1,455.4,1242.1,455.4z"/>
		<g>
			<path class="st6" d="M1399.9,505.2l5.4,10.9c0.4,0.7,1.1,1.2,1.9,1.4l12.1,1.8c2.1,0.3,2.9,2.8,1.4,4.3l-8.7,8.5
				c-0.6,0.6-0.9,1.4-0.7,2.2l2.1,12c0.4,2-1.8,3.6-3.6,2.6l-10.8-5.7c-0.7-0.4-1.6-0.4-2.3,0l-10.8,5.7c-1.8,1-4-0.6-3.6-2.6
				l2.1-12c0.1-0.8-0.1-1.6-0.7-2.2l-8.7-8.5c-1.5-1.4-0.7-4,1.4-4.3l12.1-1.8c0.8-0.1,1.5-0.6,1.9-1.4l5.4-10.9
				C1396.3,503.3,1398.9,503.3,1399.9,505.2z"/>
			<path class="st6" d="M1345.8,553.4v36.7c0,2.4,1.9,4.3,4.3,4.3h25.6l-0.1,0.2c-8.2,1.7-8.2,12.7-8.2,12.7h2h56.5h2
				c0,0,0-11.1-8.2-12.7l-0.1-0.2h25.6c2.4,0,4.3-1.9,4.3-4.3v-36.7H1345.8z"/>
		</g>
		<g>
			<path class="st7" d="M1396.5,369h-2.2c-2.4,0-4.3,1.9-4.3,4.3v17.3h-6.5v-23.7c0-2.4-1.9-4.3-4.3-4.3h-2.2
				c-2.4,0-4.3,1.9-4.3,4.3v23.7h-6.5v-17.3c0-2.4-1.9-4.3-4.3-4.3h-2.2c-2.4,0-4.3,1.9-4.3,4.3v17.3v6.5c0,2.4,1.9,4.3,4.3,4.3h2.2
				h10.8v60.4c0,2.4,1.9,4.3,4.3,4.3h2.2c2.4,0,4.3-1.9,4.3-4.3v-60.4h10.8h2.2c2.4,0,4.3-1.9,4.3-4.3v-6.5v-17.3
				C1400.8,371,1398.9,369,1396.5,369z"/>
			<path class="st7" d="M1435.4,362.6h-2.2c-16.1,0-20.3,36.9-21.3,49.7h-0.3v4.3h17.3v45.3c0,2.4,1.9,4.3,4.3,4.3h2.2
				c2.4,0,4.3-1.9,4.3-4.3v-95C1439.7,364.5,1437.8,362.6,1435.4,362.6z"/>
		</g>
		<g>
			<circle class="st8" cx="1217.3" cy="522.1" r="9.7"/>
			<circle class="st8" cx="1281" cy="516.7" r="13"/>
			<ellipse class="st8" cx="1207" cy="590.7" rx="16.7" ry="16.7"/>
			<circle class="st8" cx="1257.2" cy="547" r="10.8"/>
			<g>
				<path class="st8" d="M1287.5,540.5h-16.6c0.9,2,1.5,4.2,1.5,6.5c0,8.3-6.8,15.1-15.1,15.1c-8.3,0-15.1-6.8-15.1-15.1
					c0-2.3,0.5-4.5,1.5-6.5h-46.8c-2.4,0-4.3,1.9-4.3,4.3v30.7c3.8-3.6,8.9-5.9,14.5-5.9c11.6,0,21,9.4,21,21c0,3.7-1,7.2-2.7,10.2
					h62.1c2.4,0,4.3-1.9,4.3-4.3v-51.8C1291.8,542.5,1289.9,540.5,1287.5,540.5z"/>
				<path class="st8" d="M1246.4,547c0,6,4.8,10.8,10.8,10.8c6,0,10.8-4.8,10.8-10.8c0-2.4-0.8-4.7-2.2-6.5h-17.3
					C1247.3,542.3,1246.4,544.6,1246.4,547z"/>
			</g>
		</g>
	</g>
	<circle class="st9" cx="1320.4" cy="483.9" r="203.6"/>
	<path class="st0" d="M1126.8,869.1c-2.1,0-4.2,0-6.2-0.1c-4.1-0.1-7.4-3.5-7.3-7.7c0.1-4.1,3.4-7.3,7.5-7.3c0.1,0,0.1,0,0.2,0
		c3.8,0.1,7.8,0.1,11.6,0c4.1-0.1,7.6,3.2,7.7,7.3c0.1,4.1-3.2,7.6-7.3,7.7C1130.8,869.1,1128.8,869.1,1126.8,869.1z M1099.7,867.7
		c-0.3,0-0.5,0-0.8,0c-4.1-0.4-8.2-0.9-12.2-1.6c-4.1-0.6-6.9-4.4-6.3-8.5c0.6-4.1,4.4-6.9,8.5-6.3c3.8,0.6,7.7,1.1,11.6,1.5
		c4.1,0.4,7.1,4.1,6.7,8.2C1106.8,864.9,1103.5,867.7,1099.7,867.7z M1153.6,867.7c-3.8,0-7-2.9-7.4-6.7c-0.4-4.1,2.5-7.8,6.7-8.3
		c3.8-0.4,7.7-0.9,11.5-1.5c4.1-0.6,7.9,2.2,8.6,6.2c0.6,4.1-2.2,7.9-6.2,8.6c-4,0.6-8.2,1.2-12.3,1.6
		C1154.2,867.7,1153.9,867.7,1153.6,867.7z M1067.2,862.3c-0.6,0-1.1-0.1-1.7-0.2c-4-0.9-8-1.9-11.9-3c-4-1.1-6.3-5.2-5.2-9.2
		c1.1-4,5.2-6.3,9.2-5.2c3.7,1,7.6,2,11.3,2.9c4,0.9,6.6,4.9,5.6,9C1073.7,860,1070.6,862.3,1067.2,862.3z M1186.1,862
		c-3.4,0-6.4-2.3-7.3-5.7c-1-4,1.5-8.1,5.5-9.1c3.8-0.9,7.5-2,11.2-3.1c4-1.2,8.2,1,9.4,5c1.2,4-1,8.2-5,9.4
		c-3.9,1.2-7.9,2.3-11.9,3.3C1187.3,861.9,1186.7,862,1186.1,862z M1035.5,853.1c-0.8,0-1.7-0.1-2.5-0.4c-3.8-1.4-7.7-2.8-11.5-4.4
		c-3.8-1.5-5.7-5.9-4.2-9.8c1.5-3.8,5.9-5.7,9.8-4.2c3.6,1.5,7.3,2.9,10.9,4.1c3.9,1.4,5.9,5.7,4.6,9.6
		C1041.5,851.2,1038.6,853.1,1035.5,853.1z M1217.5,851.8c-3,0-5.8-1.8-7-4.7c-1.6-3.8,0.3-8.2,4.1-9.8c3.6-1.5,7.1-3,10.6-4.7
		c3.7-1.8,8.2-0.2,10,3.6c1.8,3.7,0.2,8.2-3.6,10c-3.7,1.8-7.5,3.4-11.4,5C1219.4,851.7,1218.4,851.8,1217.5,851.8z M1005.1,840.3
		c-1.1,0-2.2-0.2-3.3-0.8c-3.7-1.8-7.3-3.7-10.9-5.6c-3.7-2-5-6.5-3.1-10.2s6.5-5,10.2-3.1c3.4,1.8,6.9,3.6,10.4,5.3
		c3.7,1.8,5.3,6.3,3.5,10C1010.6,838.8,1007.9,840.3,1005.1,840.3z M1247,837.2c-2.6,0-5-1.3-6.4-3.7c-2.1-3.6-1-8.2,2.6-10.3
		c3.3-2,6.6-4.1,9.8-6.2c3.4-2.3,8.1-1.4,10.4,2c2.3,3.4,1.4,8.1-2,10.4c-3.4,2.3-6.9,4.6-10.5,6.7
		C1249.6,836.8,1248.3,837.2,1247,837.2z M1273.8,818c-2.1,0-4.2-0.9-5.7-2.7c-2.7-3.2-2.3-7.9,0.9-10.6c2.9-2.5,5.8-5.1,8.6-7.7
		c3-2.9,7.7-2.8,10.6,0.2c2.9,3,2.8,7.7-0.2,10.6c-3,2.8-6.1,5.7-9.3,8.3C1277.3,817.5,1275.5,818,1273.8,818z M1297.1,794.7
		c-1.7,0-3.4-0.6-4.8-1.7c-3.2-2.7-3.6-7.4-1-10.6c2.5-2.9,4.8-6,7.1-9.1c2.4-3.3,7.1-4.1,10.5-1.6c3.3,2.4,4.1,7.1,1.6,10.5
		c-2.4,3.3-5,6.7-7.7,9.8C1301.4,793.8,1299.2,794.7,1297.1,794.7z M1315.8,767.6c-1.2,0-2.5-0.3-3.7-1c-3.6-2-4.9-6.6-2.9-10.2
		c1.9-3.3,3.6-6.8,5.3-10.2c1.8-3.7,6.2-5.3,10-3.6c3.7,1.8,5.3,6.2,3.6,10c-1.8,3.7-3.7,7.5-5.7,11.1
		C1321,766.2,1318.4,767.6,1315.8,767.6z M1329.1,737.5c-0.8,0-1.6-0.1-2.4-0.4c-3.9-1.3-6-5.6-4.7-9.5c1.2-3.6,2.3-7.3,3.3-11
		c1-4,5.1-6.4,9.2-5.4c4,1,6.4,5.1,5.4,9.2c-1.1,4-2.3,8.1-3.6,12C1335.2,735.5,1332.3,737.5,1329.1,737.5z"/>
</g>
<g id="Layer_2">
</g>
</svg>
