<?xml version="1.0" encoding="utf-8"?>
<!-- Generator: Adobe Illustrator 25.2.3, SVG Export Plug-In . SVG Version: 6.00 Build 0)  -->
<svg version="1.1" xmlns="http://www.w3.org/2000/svg" xmlns:xlink="http://www.w3.org/1999/xlink" x="0px" y="0px"
	 viewBox="0 0 2500 900" style="enable-background:new 0 0 2500 900;" xml:space="preserve">
<style type="text/css">
	.st0{fill:#D695C0;}
	.st1{fill:#E34D99;}
	.st2{fill:#76BF60;}
	.st3{fill:#EC8231;}
	.st4{fill:#489B91;}
	.st5{fill:none;stroke:#442856;stroke-linecap:round;stroke-miterlimit:10;}
	.st6{fill:#BEA3CC;}
	.st7{fill:#442856;}
	.st8{fill:#785089;}
	.st9{fill:none;stroke:#442856;stroke-width:15;stroke-miterlimit:10;}
	.st10{fill:none;stroke:#BEA3CC;stroke-width:15;stroke-linecap:round;stroke-miterlimit:10;stroke-dasharray:12,21;}
	.st11{clip-path:url(#SVGID_2_);}
	.st12{fill:none;stroke:#D695C0;stroke-width:16;stroke-miterlimit:10;}
	.st13{fill:none;stroke:#785089;stroke-width:15;stroke-linecap:round;stroke-miterlimit:10;}
	.st14{fill:#C7E2C0;}
	.st15{fill:#9BD2CA;}
	.st16{fill:#FBC089;}
	.st17{fill:#E9A6C9;}
	.st18{fill:#F0CEE2;}
	.st19{fill:none;stroke:#442856;stroke-width:15;stroke-linecap:round;stroke-miterlimit:10;}
</style>
<g id="Layer_1">
	<g>
		<g>
			<rect x="1157.7" y="157.6" class="st6" width="11.8" height="104.3"/>
			<rect x="1190.8" y="158.9" class="st6" width="11.8" height="104.3"/>
			<rect x="1223.9" y="156.2" class="st6" width="11.8" height="104.3"/>
			<polygon class="st6" points="1257,156.2 1257,259.2 1257,260.5 1268.8,260.5 1268.8,259.2 1268.8,156.2 1268.8,154.9 1257,154.9 
							"/>
			<polygon class="st6" points="1290.1,156.2 1290.1,259.2 1290.1,260.5 1302,260.5 1302,259.2 1302,156.2 1302,154.9 1290.1,154.9 
							"/>
			<rect x="1323.2" y="156.2" class="st6" width="11.8" height="104.3"/>
			<rect x="1356.4" y="156.2" class="st6" width="11.8" height="104.3"/>
		</g>
		<path class="st7" d="M1474.2,813.8h-422c-21.9,0-39.8-17.8-39.8-39.8V368.9c0-21.9,17.8-39.8,39.8-39.8h422
			c21.9,0,39.8,17.8,39.8,39.8V774C1514,795.9,1496.1,813.8,1474.2,813.8z M1052.2,341.2c-15.3,0-27.7,12.4-27.7,27.7V774
			c0,15.3,12.4,27.7,27.7,27.7h422c15.3,0,27.7-12.4,27.7-27.7V368.9c0-15.3-12.4-27.7-27.7-27.7H1052.2z"/>
		<rect x="1018.5" y="565.4" class="st7" width="489.5" height="12.1"/>
		<rect x="1257.2" y="266.2" class="st7" width="12.1" height="541.5"/>
		<path class="st7" d="M1380.3,269.9h-234.1V151h234.1V269.9z M1158.2,257.8h210v-94.8h-210V257.8z"/>
		<path class="st1" d="M1215.3,436.2h-49.7v-6.6c6.6-6.4,10.6-15.4,10.6-25.3c0-19.6-15.9-35.5-35.5-35.5s-35.5,15.9-35.5,35.5
			c0,9.9,4.1,18.9,10.6,25.3v6.6h-49.7c-3.9,0-7.1,3.2-7.1,7.1v35.5c0,3.9,3.2,7.1,7.1,7.1h21.3c0,29.4,23.8,53.2,53.2,53.2
			c29.4,0,53.2-23.8,53.2-53.2h21.3c3.9,0,7.1-3.2,7.1-7.1v-35.5C1222.4,439.4,1219.2,436.2,1215.3,436.2z M1140.7,521.4
			c-19.6,0-35.5-15.9-35.5-35.5h71C1176.2,505.5,1160.3,521.4,1140.7,521.4z"/>
		<g>
			<path class="st3" d="M1388.8,606.1l8.9,18c0.6,1.2,1.8,2.1,3.1,2.2l19.9,2.9c3.4,0.5,4.7,4.6,2.3,7l-14.4,14
				c-1,0.9-1.4,2.3-1.2,3.6l3.4,19.7c0.6,3.4-3,5.9-6,4.3l-17.8-9.3c-1.2-0.6-2.6-0.6-3.8,0l-17.8,9.3c-3,1.6-6.5-1-6-4.3l3.4-19.7
				c0.2-1.3-0.2-2.7-1.2-3.6l-14.4-14c-2.4-2.4-1.1-6.5,2.3-7l19.9-2.9c1.3-0.2,2.5-1,3.1-2.2l8.9-18
				C1383,603.1,1387.3,603.1,1388.8,606.1z"/>
			<path class="st3" d="M1299.9,685.5v60.3c0,3.9,3.2,7.1,7.1,7.1h42.1l-0.2,0.3c-13.6,2.7-13.5,21-13.5,21h3.2h92.9h3.2
				c0,0,0-18.2-13.5-21l-0.2-0.3h42.1c3.9,0,7.1-3.2,7.1-7.1v-60.3H1299.9z"/>
		</g>
		<g>
			<path class="st2" d="M1383.4,379.4h-3.5c-3.9,0-7.1,3.2-7.1,7.1v28.4h-10.6v-39c0-3.9-3.2-7.1-7.1-7.1h-3.5
				c-3.9,0-7.1,3.2-7.1,7.1v39h-10.6v-28.4c0-3.9-3.2-7.1-7.1-7.1h-3.5c-3.9,0-7.1,3.2-7.1,7.1v28.4v10.6c0,3.9,3.2,7.1,7.1,7.1h3.5
				h17.7v99.4c0,3.9,3.2,7.1,7.1,7.1h3.5c3.9,0,7.1-3.2,7.1-7.1v-99.4h17.7h3.5c3.9,0,7.1-3.2,7.1-7.1v-10.6v-28.4
				C1390.5,382.6,1387.3,379.4,1383.4,379.4z"/>
			<path class="st2" d="M1447.3,368.8h-3.5c-26.4,0-33.4,60.6-35,81.6h-0.5v7.1h28.4v74.5c0,3.9,3.2,7.1,7.1,7.1h3.5
				c3.9,0,7.1-3.2,7.1-7.1V375.9C1454.4,372,1451.2,368.8,1447.3,368.8z"/>
		</g>
		<g>
			<circle class="st4" cx="1099.9" cy="634" r="16"/>
			<circle class="st4" cx="1204.6" cy="625.1" r="21.3"/>
			<ellipse class="st4" cx="1083" cy="746.8" rx="27.5" ry="27.4"/>
			<circle class="st4" cx="1165.6" cy="674.9" r="17.7"/>
			<g>
				<path class="st4" d="M1215.3,664.2H1188c1.5,3.2,2.4,6.8,2.4,10.6c0,13.7-11.1,24.8-24.8,24.8s-24.8-11.1-24.8-24.8
					c0-3.8,0.9-7.4,2.4-10.6h-76.9c-3.9,0-7.1,3.2-7.1,7.1v50.6c6.2-6,14.6-9.6,23.9-9.6c19.1,0,34.6,15.5,34.6,34.6
					c0,6.1-1.6,11.8-4.4,16.8h102.1c3.9,0,7.1-3.2,7.1-7.1v-85.2C1222.4,667.4,1219.2,664.2,1215.3,664.2z"/>
				<path class="st4" d="M1147.8,674.9c0,9.8,8,17.7,17.7,17.7s17.7-8,17.7-17.7c0-4-1.3-7.7-3.6-10.6h-28.4
					C1149.2,667.2,1147.8,670.9,1147.8,674.9z"/>
			</g>
		</g>
		<g>
			<g>
				<path class="st0" d="M321.4,466c-78,0-141.4,63.4-141.4,141.4c0,78,63.4,141.4,141.4,141.4s141.4-63.4,141.4-141.4
					C462.9,529.4,399.4,466,321.4,466z M321.4,733.9c-69.7,0-126.4-56.7-126.4-126.4S251.7,481,321.4,481s126.4,56.7,126.4,126.4
					S391.2,733.9,321.4,733.9z"/>
				<path class="st0" d="M392.2,580.8l-38.9-5.9c-2.6-0.4-4.9-2.1-6.1-4.6l-17.4-36.9c-3-6.3-11.5-6.3-14.5,0l-17.4,36.9
					c-1.2,2.5-3.4,4.2-6.1,4.6l-38.9,5.9c-6.6,1-9.3,9.5-4.5,14.4l28.2,28.7c1.9,1.9,2.8,4.7,2.3,7.5l-6.6,40.5
					c-1.1,6.9,5.8,12.1,11.7,8.9l34.8-19.1c2.3-1.3,5.2-1.3,7.5,0l34.8,19.1c5.9,3.3,12.8-2,11.7-8.9l-6.6-40.5
					c-0.4-2.7,0.4-5.5,2.3-7.5l28.2-28.7C401.4,590.3,398.8,581.8,392.2,580.8z"/>
			</g>
			<g>
				<path class="st13" d="M361,646.5c0,0-16.2-13.3,64.9,53.3C538.2,792,616,665.7,536.5,597"/>
				<line class="st13" x1="421.7" y1="669.1" x2="356.8" y2="615.8"/>
				<line class="st13" x1="435" y1="652.9" x2="370.1" y2="599.6"/>
				<line class="st13" x1="461.7" y1="620.4" x2="429.2" y2="593.8"/>
				<line class="st13" x1="448.4" y1="636.7" x2="383.4" y2="583.4"/>
			</g>
			<g>
				<path class="st13" d="M272.5,654.5c0,0,17.8-11.2-71.1,44.7c-123,77.4-184.3-57.7-96.8-115.8"/>
				<line class="st13" x1="209.5" y1="669.3" x2="280.6" y2="624.6"/>
				<line class="st13" x1="198.3" y1="651.6" x2="269.4" y2="606.8"/>
				<line class="st13" x1="175.9" y1="616" x2="211.5" y2="593.6"/>
				<line class="st13" x1="187.1" y1="633.8" x2="258.2" y2="589"/>
			</g>
			<g>
				<path class="st8" d="M196.3,331.6c0,68,55.3,123.4,123.4,123.4S443,399.7,443,331.6s-55.3-123.4-123.4-123.4
					c-6.6,0-13,0.5-19.3,1.5c13.9-12.8,22.7-31.2,22.7-51.5c0-38.6-31.4-70-70-70s-70,31.4-70,70c0,38.4,31.1,69.7,69.4,70
					C218.6,250.3,196.3,288.4,196.3,331.6z M252.9,208.3c-27.6,0-50-22.4-50-50c0-27.6,22.4-50,50-50s50,22.4,50,50
					C302.9,185.9,280.5,208.3,252.9,208.3z M265.4,243.7c1.8,11.7,2.1,32.5-12.8,47.5c-13,13-25.7,18.9-34.5,21.5
					C223.4,283.6,241,258.8,265.4,243.7z M418.5,301.4c-28,2.2-68-8.8-95.8-27.2c-13.1-8.7-28.9-22.6-34.1-41.1
					c9.8-3.1,20.2-4.8,31-4.8C366.1,228.3,405.5,259.1,418.5,301.4z M216.3,333.7c11.4-2.3,31-9,50.4-28.4
					c11.6-11.6,16.7-25.1,18.7-37.5c6.9,8.2,15.7,16,26.3,23c29,19.3,67.7,30.9,99.1,30.9c4,0,7.9-0.2,11.7-0.6
					c0.4,3.5,0.5,7,0.5,10.5c0,57-46.4,103.4-103.4,103.4C263.3,435,217.4,389.8,216.3,333.7z"/>
				<path class="st8" d="M330.3,338.9c-1.9-8.8,3.8-17.5,12.6-19.3c8.8-1.9,17.5,3.8,19.3,12.6c1.9,8.8-3.8,17.5-12.6,19.3
					C340.8,353.4,332.1,347.7,330.3,338.9z"/>
				<path class="st8" d="M279.8,321.3c8.8-1.9,17.5,3.8,19.3,12.6c1.9,8.8-3.8,17.5-12.6,19.3c-8.8,1.9-17.5-3.8-19.3-12.6
					C265.4,331.9,271,323.2,279.8,321.3z"/>
				<path class="st8" d="M285.4,371.1c3.2-0.6,6.4,1.5,7,4.7c0.3,1.6,3.9,15.8,23.4,15.3c20.9-0.5,25-13.6,25.2-14.3
					c0.9-3.2,4.1-5.1,7.3-4.2c3.2,0.8,5.1,4.1,4.3,7.3c-0.2,0.9-6.1,22.5-36.5,23.3c-0.5,0-0.9,0-1.3,0c-23.2,0-32.5-16.2-34.2-25
					C280,374.9,282.1,371.7,285.4,371.1z"/>
			</g>
		</g>
		<g>
			<g>
				<path class="st0" d="M2189,466c-78,0-141.4,63.4-141.4,141.4c0,78,63.4,141.4,141.4,141.4s141.4-63.4,141.4-141.4
					C2330.4,529.4,2267,466,2189,466z M2189,733.9c-69.7,0-126.4-56.7-126.4-126.4S2119.3,481,2189,481s126.4,56.7,126.4,126.4
					S2258.7,733.9,2189,733.9z"/>
				<path class="st0" d="M2259.7,580.8l-38.9-5.9c-2.6-0.4-4.9-2.1-6.1-4.6l-17.4-36.9c-3-6.3-11.5-6.3-14.5,0l-17.4,36.9
					c-1.2,2.5-3.4,4.2-6.1,4.6l-38.9,5.9c-6.6,1-9.3,9.5-4.5,14.4l28.2,28.7c1.9,1.9,2.8,4.7,2.3,7.5l-6.6,40.5
					c-1.1,6.9,5.8,12.1,11.7,8.9l34.8-19.1c2.3-1.3,5.2-1.3,7.5,0l34.8,19.1c5.9,3.3,12.8-2,11.7-8.9l-6.6-40.5
					c-0.4-2.7,0.4-5.5,2.3-7.5l28.2-28.7C2269,590.3,2266.3,581.8,2259.7,580.8z"/>
			</g>
			<g>
				<path class="st8" d="M2327.4,270.1c4.4-28.8-14.4-56.5-43.3-62.6c-5.5-1.2-11.2-1.5-16.8-1c-5.8-19.1-21.4-33.8-41.5-38.1
					c-7.9-1.7-15.9-1.6-23.7,0.1c-7.9-12.5-21.5-20.8-36.6-21.8c-19.4-1.3-36.9,9.2-45.2,26c-30.6-7.9-61.2,11.6-67.7,42.2
					c-0.7,3.4-2.2,7.1-3.4,9.4c-35.3-5-69,18.2-76.6,53.5c-2.6,12.1,0.9,27.3,5.4,40.8c-16.6,2.8-30.7,15.5-34.4,33
					c-4.9,22.9,9.8,45.4,32.6,50.2c11.3,2.4,22.7,0.1,32-6.1c7.9,10,19,16.9,31.8,19.6c14.4,3.1,29.2,0.2,41.4-7.6
					c16.9,22.1,41.4,38.5,70.7,44.7c60,12.7,119.2-21.7,138.9-78.2c3.3,1.4,6.7,2.5,10.3,3.3c29.9,6.3,59.4-12.8,65.7-42.7
					C2373.1,306.2,2355.5,277.8,2327.4,270.1z M2276,355.7c0,0.1-0.1,0.3-0.1,0.4l0,0c-0.1,0.5-0.3,0.9-0.4,1.4l-0.9,3.8
					c-13.9,51.3-65.8,83.4-118.4,72.3c-54.5-11.6-89.4-65.3-77.8-119.8c11.6-54.5,65.3-89.4,119.8-77.8S2287.6,301.2,2276,355.7z
					 M2347.9,331c-4.1,19.3-23.2,31.7-42.5,27.6c-3.3-0.7-6.4-1.8-9.4-3.4c11-63.4-30.3-124.9-93.8-138.4
					c-65-13.8-129.2,27.9-143,92.9c-6.1,28.9-1.3,57.6,11.7,81.9c-7.9,5-17.4,6.9-26.7,4.9c-11-2.3-20-9.5-24.9-19.7l-6.7-14
					l-9.8,12.1c-5.5,6.8-14.1,9.9-22.4,8.1c-12.3-2.6-20.2-14.8-17.6-27.1c2.6-12.3,14.8-20.2,27.1-17.6l5.7,1.2l3.8-4.4
					c3.9-4.5,2.2-8.9,0.5-13.6c-2.6-6.9-10.4-28-8-39.5c5.6-26.4,31.6-43.3,58-37.7c15.8,3.3,21.8-24.1,22-25.3
					c4.1-19.3,23.2-31.7,42.5-27.6c2.6,0.6,5.2,1.4,7.8,2.7l11,5.2l2.7-11.8c3-13.1,15-22,28.5-21.1c10.6,0.7,19.9,7.6,23.7,17.6
					l3.6,9.3l9.2-3.8c6.6-2.7,13.9-3.3,20.9-1.8c15.3,3.2,26.6,15.8,28.2,31.4l1.2,11.7l11.3-3.4c5.7-1.7,11.8-1.9,17.6-0.7
					c19.3,4.1,31.7,23.2,27.6,42.5c-1.6,7.6,5,17.7,12.6,19.3C2339.6,292.6,2352,311.7,2347.9,331z"/>
				
					<ellipse transform="matrix(0.9958 -9.180736e-02 9.180736e-02 0.9958 -20.2541 198.5604)" class="st8" cx="2148.1" cy="319.4" rx="16.3" ry="16.3"/>
				
					<ellipse transform="matrix(0.895 -0.446 0.446 0.895 88.8974 1019.9794)" class="st8" cx="2211.1" cy="321.2" rx="16.3" ry="16.3"/>
				<path class="st8" d="M2208.9,354.9c-3.2-0.6-6.4,1.5-7,4.7c-0.3,1.6-3.9,15.8-23.4,15.3c-20.9-0.5-25-13.6-25.2-14.3
					c-0.9-3.2-4.1-5.1-7.3-4.2c-3.2,0.8-5.1,4.1-4.3,7.3c0.2,0.9,6.1,22.5,36.5,23.3c0.4,0,0.9,0,1.3,0c23.2,0,32.5-16.2,34.2-25
					C2214.3,358.7,2212.2,355.6,2208.9,354.9z"/>
			</g>
			<g>
				<path class="st13" d="M2228.5,646.5c0,0-16.2-13.3,64.9,53.3c112.3,92.2,190-34.1,110.6-102.8"/>
				<line class="st13" x1="2289.2" y1="669.1" x2="2224.3" y2="615.8"/>
				<line class="st13" x1="2302.5" y1="652.9" x2="2237.6" y2="599.6"/>
				<line class="st13" x1="2329.2" y1="620.4" x2="2296.7" y2="593.8"/>
				<line class="st13" x1="2315.9" y1="636.7" x2="2251" y2="583.4"/>
			</g>
			<g>
				<path class="st13" d="M2140,654.5c0,0,17.8-11.2-71.1,44.7c-123,77.4-184.3-57.7-96.8-115.8"/>
				<line class="st13" x1="2077" y1="669.3" x2="2148.1" y2="624.6"/>
				<line class="st13" x1="2065.8" y1="651.6" x2="2136.9" y2="606.8"/>
				<line class="st13" x1="2043.4" y1="616" x2="2079" y2="593.6"/>
				<line class="st13" x1="2054.6" y1="633.8" x2="2125.7" y2="589"/>
			</g>
		</g>
		<path class="st6" d="M1854.2,674.5c-1.6,0-3.2-0.5-4.6-1.6c-3.3-2.5-6.5-5.2-9.6-8c-3.1-2.8-3.4-7.5-0.6-10.6
			c2.8-3.1,7.5-3.4,10.6-0.6c2.9,2.5,5.8,5,8.8,7.3c3.3,2.5,3.9,7.2,1.3,10.5C1858.6,673.5,1856.4,674.5,1854.2,674.5z M663.4,670.6
			c-2.1,0-4.3-0.9-5.8-2.7c-2.7-3.2-2.2-7.9,1-10.6c2.9-2.4,5.8-5,8.6-7.6c3-2.9,7.7-2.8,10.6,0.2c2.9,3,2.8,7.7-0.2,10.6
			c-3,2.9-6.2,5.7-9.3,8.3C666.8,670,665.1,670.6,663.4,670.6z M1830.2,652c-2.1,0-4.1-0.8-5.6-2.5c-2.7-3.1-5.4-6.3-8-9.6
			c-2.6-3.3-2-8,1.3-10.5c3.3-2.6,8-2,10.5,1.3c2.4,3,4.9,6,7.4,8.8c2.8,3.1,2.5,7.8-0.6,10.6C1833.7,651.4,1831.9,652,1830.2,652z
			 M686.6,647.3c-1.7,0-3.4-0.6-4.8-1.7c-3.2-2.6-3.6-7.4-1-10.6c2.4-2.9,4.8-6,7.1-9.1c2.4-3.3,7.1-4.1,10.5-1.6
			c3.3,2.4,4.1,7.1,1.6,10.5c-2.5,3.4-5.1,6.7-7.7,9.8C690.9,646.4,688.8,647.3,686.6,647.3z M1810.4,625.6c-2.5,0-4.9-1.2-6.4-3.5
			c-2.2-3.4-4.3-7-6.3-10.7c-2-3.6-0.7-8.2,2.9-10.2c3.6-2,8.2-0.7,10.2,2.9c1.9,3.4,3.9,6.7,5.9,10c2.2,3.5,1.1,8.1-2.4,10.3
			C1813.2,625.2,1811.8,625.6,1810.4,625.6z M705.6,620.3c-1.3,0-2.6-0.3-3.8-1c-3.6-2.1-4.8-6.7-2.6-10.3c1.9-3.3,3.8-6.7,5.6-10.2
			c1.9-3.7,6.4-5.1,10.1-3.2c3.7,1.9,5.1,6.4,3.2,10.1c-1.9,3.7-4,7.3-6,10.8C710.6,619,708.1,620.3,705.6,620.3z M1794.9,596.5
			c-2.9,0-5.6-1.6-6.8-4.4c-1.7-3.7-3.3-7.5-4.8-11.3c-1.5-3.8,0.4-8.2,4.2-9.7c3.8-1.5,8.2,0.4,9.7,4.2c1.4,3.6,3,7.2,4.5,10.7
			c1.7,3.8,0,8.2-3.8,9.9C1797,596.3,1796,596.5,1794.9,596.5z M720.3,590.8c-1,0-2-0.2-2.9-0.6c-3.8-1.6-5.6-6-4-9.8
			c1.5-3.5,2.9-7.2,4.3-10.9c1.4-3.9,5.8-5.9,9.6-4.4c3.9,1.4,5.9,5.8,4.4,9.6c-1.4,3.9-3,7.7-4.5,11.5
			C726,589,723.2,590.8,720.3,590.8z M1783.2,565.7c-3.2,0-6.1-2-7.1-5.2c-1.2-3.8-2.4-7.8-3.5-11.8c-1.1-4,1.2-8.1,5.2-9.2
			c4-1.1,8.1,1.2,9.2,5.2c1.1,3.8,2.2,7.6,3.3,11.2c1.3,3.9-0.9,8.2-4.9,9.4C1784.7,565.6,1784,565.7,1783.2,565.7z M731.4,559.7
			c-0.7,0-1.4-0.1-2.1-0.3c-4-1.2-6.2-5.3-5.1-9.3c1.1-3.7,2.1-7.5,3.1-11.3c1-4,5.1-6.4,9.1-5.4c4,1,6.4,5.1,5.4,9.1
			c-1,4-2.1,8-3.3,11.8C737.6,557.6,734.6,559.7,731.4,559.7z M1774.8,533.8c-3.5,0-6.6-2.4-7.3-5.9c-0.9-4-1.7-8-2.4-12
			c-0.7-4.1,1.9-8,6-8.7c4.1-0.7,8,1.9,8.7,6c0.7,3.9,1.5,7.8,2.3,11.6c0.9,4-1.7,8-5.8,8.9C1775.8,533.7,1775.3,533.8,1774.8,533.8
			z M739.2,527.6c-0.5,0-1,0-1.5-0.1c-4.1-0.8-6.7-4.8-5.9-8.8c0.8-3.8,1.5-7.7,2.1-11.6c0.7-4.1,4.5-6.8,8.6-6.2
			c4.1,0.7,6.8,4.6,6.2,8.6c-0.7,4-1.4,8.1-2.2,12C745.9,525.1,742.7,527.6,739.2,527.6z M1769.2,501.2c-3.7,0-6.9-2.7-7.4-6.5
			c-0.5-4-1-8.1-1.4-12.1c-0.4-4.1,2.5-7.8,6.7-8.2c4.1-0.4,7.8,2.5,8.2,6.7c0.4,3.9,0.9,7.9,1.4,11.7c0.5,4.1-2.3,7.9-6.4,8.4
			C1769.8,501.2,1769.5,501.2,1769.2,501.2z M744.4,495c-0.3,0-0.6,0-0.9-0.1c-4.1-0.5-7.1-4.2-6.6-8.3c0.5-3.9,0.9-7.8,1.2-11.8
			c0.4-4.1,4-7.1,8.2-6.8c4.1,0.4,7.2,4,6.8,8.2c-0.4,4.1-0.8,8.1-1.3,12.1C751.3,492.2,748.1,495,744.4,495z M1766,468.4
			c-3.9,0-7.2-3.1-7.5-7c-0.2-4-0.5-8.1-0.6-12.2c-0.2-4.1,3.1-7.6,7.2-7.8c0.1,0,0.2,0,0.3,0c4,0,7.3,3.2,7.5,7.2
			c0.1,4,0.3,7.9,0.6,11.8c0.3,4.1-2.9,7.7-7,7.9C1766.3,468.4,1766.1,468.4,1766,468.4z M747.1,462c-0.1,0-0.2,0-0.4,0
			c-4.1-0.2-7.3-3.7-7.1-7.9c0.2-3.9,0.3-7.9,0.4-11.8c0.1-4.1,3.4-7.3,7.5-7.3c0.1,0,0.1,0,0.2,0c4.1,0.1,7.4,3.5,7.3,7.7
			c-0.1,4.1-0.3,8.2-0.4,12.2C754.4,458.9,751.1,462,747.1,462z M1765.1,435.3C1765.1,435.3,1765,435.3,1765.1,435.3
			c-4.2,0-7.5-3.4-7.5-7.5c0-4.1,0.1-8.2,0.2-12.2c0.1-4.1,3.6-7.4,7.7-7.3c4.1,0.1,7.4,3.6,7.3,7.7c-0.1,3.9-0.2,7.9-0.2,11.8
			C1772.5,432,1769.2,435.3,1765.1,435.3z M747.6,429c-4.1,0-7.4-3.3-7.5-7.4c-0.1-4-0.2-8-0.4-11.8c-0.2-4.1,3-7.6,7.2-7.8
			c4.1-0.2,7.6,3,7.8,7.2c0.2,4,0.3,8.1,0.4,12.2c0.1,4.1-3.2,7.6-7.4,7.6C747.7,429,747.6,429,747.6,429z M1766.4,402.4
			c-0.2,0-0.4,0-0.6,0c-4.1-0.4-7.2-4-6.8-8.1c0.1-1.4,0.2-2.4,0.3-2.9c0-1.1,0-3.8-0.3-8c-0.3-4.1,2.9-7.7,7-8c4.1-0.3,7.7,2.9,8,7
			c0.3,4.7,0.3,7.9,0.3,9l0,1.2c0,0-0.1,1.1-0.3,3C1773.5,399.4,1770.3,402.4,1766.4,402.4z M1766.7,391.7L1766.7,391.7
			L1766.7,391.7z M746.1,396c-0.1,0-0.2,0-0.2,0c-4.1-0.1-7.4-3.6-7.3-7.7c0.1-2.7,0.3-7,0.8-12.5c0.4-4.1,4.1-7.1,8.2-6.7
			c4.1,0.4,7.1,4.1,6.7,8.2c-0.5,5.1-0.7,9.1-0.8,11.5C753.4,392.8,750.1,396,746.1,396z M1763.9,369.4c-3.6,0-6.8-2.6-7.4-6.3
			c-0.6-3.8-1.4-7.7-2.2-11.4c-0.9-4,1.7-8,5.7-8.9c4-0.9,8,1.7,8.9,5.7c0.9,4,1.7,8.1,2.3,12.2c0.7,4.1-2.1,7.9-6.2,8.6
			C1764.7,369.4,1764.3,369.4,1763.9,369.4z M749.9,363.2c-0.5,0-1,0-1.4-0.1c-4.1-0.8-6.7-4.7-5.9-8.8c0.8-4.1,1.7-8.1,2.7-12.1
			c1-4,5.1-6.5,9.1-5.5c4,1,6.5,5.1,5.5,9.1c-0.9,3.7-1.8,7.5-2.5,11.4C756.6,360.7,753.5,363.2,749.9,363.2z M1756.2,337.3
			c-3.2,0-6.1-2-7.1-5.2c-1.2-3.7-2.5-7.4-3.9-10.9c-1.5-3.9,0.4-8.2,4.3-9.7c3.9-1.5,8.2,0.4,9.7,4.3c1.5,3.8,2.9,7.8,4.1,11.7
			c1.3,3.9-0.9,8.2-4.8,9.4C1757.7,337.2,1756.9,337.3,1756.2,337.3z M758.6,331.3c-0.8,0-1.7-0.1-2.5-0.4c-3.9-1.4-5.9-5.7-4.6-9.6
			c1.4-3.9,2.9-7.8,4.5-11.6c1.6-3.8,6-5.6,9.8-4s5.6,6,4,9.8c-1.5,3.5-2.9,7.1-4.2,10.8C764.6,329.4,761.7,331.3,758.6,331.3z
			 M1743.6,306.8c-2.7,0-5.3-1.5-6.7-4c-1.8-3.4-3.7-6.8-5.6-10c-2.2-3.5-1-8.2,2.5-10.3c3.5-2.2,8.2-1,10.3,2.5
			c2.1,3.5,4.2,7.2,6.1,10.9c1.9,3.7,0.5,8.2-3.2,10.1C1745.9,306.5,1744.7,306.8,1743.6,306.8z M772.2,301.2c-1.2,0-2.5-0.3-3.7-1
			c-3.6-2-4.9-6.6-2.8-10.2c2.1-3.7,4.3-7.3,6.5-10.7c2.3-3.5,6.9-4.4,10.4-2.1c3.5,2.3,4.4,6.9,2.1,10.4c-2.1,3.1-4.1,6.4-6,9.8
			C777.3,299.9,774.8,301.2,772.2,301.2z M1725.7,279.1c-2.2,0-4.4-1-5.9-2.8c-2.4-3-4.9-5.9-7.5-8.6c-2.8-3-2.7-7.8,0.3-10.6
			c3-2.8,7.8-2.7,10.6,0.3c2.8,3,5.6,6.2,8.2,9.5c2.6,3.2,2.1,8-1.2,10.5C1729,278.6,1727.3,279.1,1725.7,279.1z M791.1,274.3
			c-1.7,0-3.5-0.6-4.9-1.8c-3.1-2.7-3.5-7.5-0.7-10.6c2.8-3.2,5.7-6.2,8.6-9.2c3-2.9,7.7-2.9,10.6,0.1c2.9,3,2.9,7.7-0.1,10.6
			c-2.7,2.6-5.3,5.4-7.8,8.3C795.3,273.4,793.2,274.3,791.1,274.3z M1702.4,255.8c-1.6,0-3.3-0.5-4.7-1.7c-2.9-2.4-6-4.6-9.1-6.8
			c-3.4-2.3-4.3-7-2-10.4c2.3-3.4,7-4.3,10.4-2c3.5,2.4,6.9,4.9,10.1,7.5c3.2,2.6,3.7,7.3,1.1,10.5
			C1706.8,254.9,1704.6,255.8,1702.4,255.8z M815.3,252c-2.3,0-4.6-1.1-6-3.1c-2.5-3.3-1.7-8,1.6-10.5c3.4-2.5,6.9-4.8,10.4-7
			c3.5-2.2,8.1-1.1,10.3,2.4c2.2,3.5,1.1,8.1-2.4,10.3c-3.2,2-6.4,4.1-9.4,6.4C818.4,251.5,816.8,252,815.3,252z M1674.7,238.2
			c-1.1,0-2.2-0.3-3.3-0.8c-3.4-1.7-6.9-3.2-10.4-4.7c-3.8-1.6-5.7-5.9-4.1-9.8c1.6-3.8,5.9-5.7,9.8-4.1c3.9,1.6,7.7,3.3,11.4,5.1
			c3.7,1.8,5.2,6.3,3.4,10C1680.1,236.6,1677.5,238.2,1674.7,238.2z M843.7,235.5c-2.9,0-5.6-1.7-6.9-4.4c-1.7-3.8,0-8.2,3.8-9.9
			c3.8-1.7,7.7-3.3,11.6-4.7c3.9-1.4,8.2,0.6,9.6,4.5c1.4,3.9-0.6,8.2-4.5,9.6c-3.6,1.3-7.2,2.7-10.6,4.3
			C845.8,235.3,844.8,235.5,843.7,235.5z M1643.9,226.6c-0.7,0-1.3-0.1-2-0.3c-3.6-1-7.4-1.9-11.2-2.7c-4.1-0.8-6.7-4.8-5.8-8.9
			c0.8-4.1,4.8-6.7,8.9-5.8c4.1,0.8,8.2,1.8,12.1,2.9c4,1.1,6.4,5.2,5.3,9.2C1650.3,224.4,1647.2,226.6,1643.9,226.6z M874.9,225
			c-3.4,0-6.5-2.3-7.3-5.8c-1-4,1.5-8.1,5.6-9c4-0.9,8.1-1.8,12.2-2.5c4.1-0.7,8,2,8.7,6.1c0.7,4.1-2,8-6.1,8.7
			c-3.8,0.7-7.6,1.4-11.3,2.3C876.1,225,875.5,225,874.9,225z M1611.6,220.6c-0.3,0-0.5,0-0.8,0c-3.8-0.4-7.7-0.7-11.6-0.9
			c-4.1-0.2-7.3-3.8-7.1-7.9c0.2-4.1,3.8-7.3,7.9-7.1c4.1,0.2,8.3,0.6,12.3,1c4.1,0.4,7.1,4.1,6.7,8.3
			C1618.6,217.8,1615.4,220.6,1611.6,220.6z M907.4,220c-3.9,0-7.2-3-7.5-6.9c-0.3-4.1,2.7-7.7,6.9-8.1c4-0.3,8.2-0.6,12.3-0.7
			c4.1-0.2,7.6,3.1,7.7,7.2c0.1,4.1-3.1,7.6-7.2,7.7c-3.9,0.1-7.8,0.4-11.6,0.7C907.8,220,907.6,220,907.4,220z M1578.7,219.1
			c0,0-0.1,0-0.1,0l-12-0.2c-4.1-0.1-7.5-3.5-7.4-7.6c0.1-4.1,3.5-7.5,7.6-7.4l12,0.2c4.1,0.1,7.5,3.5,7.4,7.6
			C1586.1,215.8,1582.8,219.1,1578.7,219.1z M940.4,219c-4.1,0-7.4-3.3-7.5-7.4c-0.1-4.1,3.2-7.5,7.4-7.6l12-0.2c0,0,0.1,0,0.1,0
			c4.1,0,7.4,3.3,7.5,7.4c0.1,4.1-3.3,7.5-7.4,7.6l-12,0.2C940.5,219,940.4,219,940.4,219z M1545.7,218.6c0,0-0.1,0-0.1,0l-12-0.2
			c-4.1-0.1-7.5-3.5-7.4-7.6c0.1-4.1,3.4-7.4,7.5-7.4c0,0,0.1,0,0.1,0l12,0.2c4.1,0.1,7.5,3.5,7.4,7.6
			C1553.1,215.3,1549.8,218.6,1545.7,218.6z M973.4,218.5c-4.1,0-7.4-3.3-7.5-7.4c-0.1-4.1,3.2-7.5,7.4-7.6l12-0.2c0,0,0.1,0,0.1,0
			c4.1,0,7.4,3.3,7.5,7.4c0.1,4.1-3.2,7.5-7.4,7.6l-12,0.2C973.4,218.5,973.4,218.5,973.4,218.5z M1512.7,218.1c0,0-0.1,0-0.1,0
			l-12-0.2c-4.1-0.1-7.5-3.5-7.4-7.6c0.1-4.1,3.4-7.4,7.5-7.4c0,0,0.1,0,0.1,0l12,0.2c4.1,0.1,7.5,3.5,7.4,7.6
			C1520.2,214.8,1516.8,218.1,1512.7,218.1z M1006.3,218c-4.1,0-7.4-3.3-7.5-7.4c-0.1-4.1,3.2-7.5,7.4-7.6l12-0.2
			c4.2-0.1,7.5,3.2,7.6,7.4c0.1,4.1-3.3,7.5-7.4,7.6l-12,0.2C1006.4,218,1006.4,218,1006.3,218z M1479.8,217.7c0,0-0.1,0-0.1,0
			l-12-0.2c-4.1-0.1-7.5-3.5-7.4-7.6c0.1-4.1,3.5-7.5,7.6-7.4l12,0.2c4.1,0.1,7.5,3.5,7.4,7.6
			C1487.2,214.4,1483.9,217.7,1479.8,217.7z M1039.3,217.6c-4.1,0-7.4-3.3-7.5-7.4c-0.1-4.1,3.2-7.5,7.4-7.6l12-0.2
			c4.1-0.1,7.5,3.2,7.6,7.4c0.1,4.1-3.2,7.5-7.4,7.6l-12,0.2C1039.4,217.6,1039.3,217.6,1039.3,217.6z M1446.8,217.2
			c0,0-0.1,0-0.1,0l-12-0.2c-4.1-0.1-7.5-3.5-7.4-7.6c0.1-4.1,3.4-7.4,7.5-7.4c0,0,0.1,0,0.1,0l12,0.2c4.1,0.1,7.5,3.5,7.4,7.6
			C1454.3,213.9,1450.9,217.2,1446.8,217.2z M1072.2,217.1c-4.1,0-7.4-3.3-7.5-7.4c-0.1-4.1,3.2-7.5,7.4-7.6l12-0.2c0,0,0.1,0,0.1,0
			c4.1,0,7.4,3.3,7.5,7.4c0.1,4.1-3.2,7.5-7.4,7.6l-12,0.2C1072.3,217.1,1072.3,217.1,1072.2,217.1z"/>
		<path class="st6" d="M1054.8,170.6c0.3-1,0.8-2,1.6-2.8c2.7-3.1,7.5-3.4,10.6-0.7l46.2,40.9l-52.8,43.4c-3.2,2.6-7.9,2.2-10.6-1
			c-2.6-3.2-2.2-7.9,1-10.6l39.2-32.2l-33.1-29.2C1054.8,176.4,1054,173.3,1054.8,170.6z"/>
		<path class="st6" d="M1855.9,617.4c0.9-0.6,1.9-1,3-1.2c4.1-0.6,7.9,2.2,8.6,6.2l9.6,61l-68.3-0.2c-4.1,0-7.5-3.4-7.5-7.5
			c0-4.1,3.4-7.5,7.5-7.5l50.7,0.2l-6.9-43.6C1852.2,621.9,1853.6,619,1855.9,617.4z"/>
	</g>
</g>
<g id="Layer_2">
</g>
</svg>
