<?xml version="1.0" encoding="utf-8"?>
<!-- Generator: Adobe Illustrator 25.2.3, SVG Export Plug-In . SVG Version: 6.00 Build 0)  -->
<svg version="1.1" xmlns="http://www.w3.org/2000/svg" xmlns:xlink="http://www.w3.org/1999/xlink" x="0px" y="0px"
	 viewBox="0 0 2800 900" style="enable-background:new 0 0 2800 900;" xml:space="preserve">
<style type="text/css">
	.st0{fill:#D695C0;}
	.st1{fill:#E34D99;}
	.st2{fill:#76BF60;}
	.st3{fill:#EC8231;}
	.st4{fill:#489B91;}
	.st5{fill:none;stroke:#442856;stroke-linecap:round;stroke-miterlimit:10;}
	.st6{fill:#BEA3CC;}
	.st7{fill:#442856;}
	.st8{fill:#785089;}
	.st9{fill:none;stroke:#442856;stroke-width:15;stroke-miterlimit:10;}
	.st10{fill:none;stroke:#BEA3CC;stroke-width:15;stroke-linecap:round;stroke-miterlimit:10;stroke-dasharray:12,21;}
	.st11{clip-path:url(#SVGID_2_);}
	.st12{fill:none;stroke:#D695C0;stroke-width:16;stroke-miterlimit:10;}
	.st13{fill:none;stroke:#785089;stroke-width:15;stroke-linecap:round;stroke-miterlimit:10;}
	.st14{fill:#C7E2C0;}
	.st15{fill:#9BD2CA;}
	.st16{fill:#FBC089;}
	.st17{fill:#E9A6C9;}
	.st18{fill:#F0CEE2;}
	.st19{fill:none;stroke:#442856;stroke-width:15;stroke-linecap:round;stroke-miterlimit:10;}
	.st20{fill:none;}
	.st21{font-family:'Exo-Black';}
	.st22{font-size:48px;}
</style>
<g id="Layer_1">
	<g>
		<g>
			<rect x="1307.7" y="134.8" class="st6" width="11.8" height="104.3"/>
			<rect x="1340.8" y="136.1" class="st6" width="11.8" height="104.3"/>
			<rect x="1373.9" y="133.4" class="st6" width="11.8" height="104.3"/>
			<polygon class="st6" points="1407,133.4 1407,236.4 1407,237.7 1418.8,237.7 1418.8,236.4 1418.8,133.4 1418.8,132.1 1407,132.1 
							"/>
			<polygon class="st6" points="1440.1,133.4 1440.1,236.4 1440.1,237.7 1452,237.7 1452,236.4 1452,133.4 1452,132.1 1440.1,132.1 
							"/>
			<rect x="1473.2" y="133.4" class="st6" width="11.8" height="104.3"/>
			<rect x="1506.4" y="133.4" class="st6" width="11.8" height="104.3"/>
		</g>
		<path class="st7" d="M1624.2,791h-422c-21.9,0-39.8-17.8-39.8-39.8V346.1c0-21.9,17.8-39.8,39.8-39.8h422
			c21.9,0,39.8,17.8,39.8,39.8v405.1C1664,773.2,1646.1,791,1624.2,791z M1202.2,318.4c-15.3,0-27.7,12.4-27.7,27.7v405.1
			c0,15.3,12.4,27.7,27.7,27.7h422c15.3,0,27.7-12.4,27.7-27.7V346.1c0-15.3-12.4-27.7-27.7-27.7H1202.2z"/>
		<rect x="1168.5" y="542.6" class="st7" width="489.5" height="12.1"/>
		<rect x="1407.2" y="243.4" class="st7" width="12.1" height="541.5"/>
		<path class="st7" d="M1530.3,247.1h-234.1V128.2h234.1V247.1z M1308.2,235h210v-94.8h-210V235z"/>
		<path class="st1" d="M1365.3,413.4h-49.7v-6.6c6.6-6.4,10.6-15.4,10.6-25.3c0-19.6-15.9-35.5-35.5-35.5s-35.5,15.9-35.5,35.5
			c0,9.9,4.1,18.9,10.6,25.3v6.6h-49.7c-3.9,0-7.1,3.2-7.1,7.1V456c0,3.9,3.2,7.1,7.1,7.1h21.3c0,29.4,23.8,53.2,53.2,53.2
			c29.4,0,53.2-23.8,53.2-53.2h21.3c3.9,0,7.1-3.2,7.1-7.1v-35.5C1372.4,416.6,1369.2,413.4,1365.3,413.4z M1290.7,498.6
			c-19.6,0-35.5-15.9-35.5-35.5h71C1326.2,482.7,1310.3,498.6,1290.7,498.6z"/>
		<g>
			<path class="st3" d="M1538.8,583.3l8.9,18c0.6,1.2,1.8,2.1,3.1,2.2l19.9,2.9c3.4,0.5,4.7,4.6,2.3,7l-14.4,14
				c-1,0.9-1.4,2.3-1.2,3.6l3.4,19.7c0.6,3.4-3,5.9-6,4.3l-17.8-9.3c-1.2-0.6-2.6-0.6-3.8,0l-17.8,9.3c-3,1.6-6.5-1-6-4.3l3.4-19.7
				c0.2-1.3-0.2-2.7-1.2-3.6l-14.4-14c-2.4-2.4-1.1-6.5,2.3-7l19.9-2.9c1.3-0.2,2.5-1,3.1-2.2l8.9-18
				C1533,580.3,1537.3,580.3,1538.8,583.3z"/>
			<path class="st3" d="M1449.9,662.7V723c0,3.9,3.2,7.1,7.1,7.1h42.1l-0.2,0.3c-13.6,2.7-13.5,21-13.5,21h3.2h92.9h3.2
				c0,0,0-18.2-13.5-21l-0.2-0.3h42.1c3.9,0,7.1-3.2,7.1-7.1v-60.3H1449.9z"/>
		</g>
		<g>
			<path class="st2" d="M1533.4,356.6h-3.5c-3.9,0-7.1,3.2-7.1,7.1v28.4h-10.6v-39c0-3.9-3.2-7.1-7.1-7.1h-3.5
				c-3.9,0-7.1,3.2-7.1,7.1v39h-10.6v-28.4c0-3.9-3.2-7.1-7.1-7.1h-3.5c-3.9,0-7.1,3.2-7.1,7.1v28.4v10.6c0,3.9,3.2,7.1,7.1,7.1h3.5
				h17.7v99.4c0,3.9,3.2,7.1,7.1,7.1h3.5c3.9,0,7.1-3.2,7.1-7.1v-99.4h17.7h3.5c3.9,0,7.1-3.2,7.1-7.1v-10.6v-28.4
				C1540.5,359.8,1537.3,356.6,1533.4,356.6z"/>
			<path class="st2" d="M1597.3,346h-3.5c-26.4,0-33.4,60.6-35,81.6h-0.5v7.1h28.4v74.5c0,3.9,3.2,7.1,7.1,7.1h3.5
				c3.9,0,7.1-3.2,7.1-7.1V353.1C1604.4,349.2,1601.2,346,1597.3,346z"/>
		</g>
		<g>
			<circle class="st4" cx="1249.9" cy="611.2" r="16"/>
			<circle class="st4" cx="1354.6" cy="602.3" r="21.3"/>
			<ellipse class="st4" cx="1233" cy="724" rx="27.5" ry="27.4"/>
			<circle class="st4" cx="1315.6" cy="652.1" r="17.7"/>
			<g>
				<path class="st4" d="M1365.3,641.4H1338c1.5,3.2,2.4,6.8,2.4,10.6c0,13.7-11.1,24.8-24.8,24.8s-24.8-11.1-24.8-24.8
					c0-3.8,0.9-7.4,2.4-10.6h-76.9c-3.9,0-7.1,3.2-7.1,7.1v50.6c6.2-6,14.6-9.6,23.9-9.6c19.1,0,34.6,15.5,34.6,34.6
					c0,6.1-1.6,11.8-4.4,16.8h102.1c3.9,0,7.1-3.2,7.1-7.1v-85.2C1372.4,644.6,1369.2,641.4,1365.3,641.4z"/>
				<path class="st4" d="M1297.8,652.1c0,9.8,8,17.7,17.7,17.7s17.7-8,17.7-17.7c0-4-1.3-7.7-3.6-10.6h-28.4
					C1299.2,644.4,1297.8,648.1,1297.8,652.1z"/>
			</g>
		</g>
		<g>
			<g>
				<path class="st0" d="M471.4,443.2c-78,0-141.4,63.4-141.4,141.4c0,78,63.4,141.4,141.4,141.4s141.4-63.4,141.4-141.4
					C612.9,506.7,549.4,443.2,471.4,443.2z M471.4,711.1c-69.7,0-126.4-56.7-126.4-126.4s56.7-126.4,126.4-126.4
					s126.4,56.7,126.4,126.4S541.2,711.1,471.4,711.1z"/>
				<path class="st0" d="M542.2,558l-38.9-5.9c-2.6-0.4-4.9-2.1-6.1-4.6l-17.4-36.9c-3-6.3-11.5-6.3-14.5,0l-17.4,36.9
					c-1.2,2.5-3.4,4.2-6.1,4.6l-38.9,5.9c-6.6,1-9.3,9.5-4.5,14.4l28.2,28.7c1.9,1.9,2.8,4.7,2.3,7.5l-6.6,40.5
					c-1.1,6.9,5.8,12.1,11.7,8.9l34.8-19.1c2.3-1.3,5.2-1.3,7.5,0l34.8,19.1c5.9,3.3,12.8-2,11.7-8.9l-6.6-40.5
					c-0.4-2.7,0.4-5.5,2.3-7.5l28.2-28.7C551.4,567.5,548.8,559,542.2,558z"/>
			</g>
			<g>
				<path class="st13" d="M511,623.7c0,0-16.2-13.3,64.9,53.3c112.3,92.2,190-34.1,110.6-102.8"/>
				<line class="st13" x1="571.7" y1="646.3" x2="506.8" y2="593"/>
				<line class="st13" x1="585" y1="630.1" x2="520.1" y2="576.8"/>
				<line class="st13" x1="611.7" y1="597.7" x2="579.2" y2="571"/>
				<line class="st13" x1="598.4" y1="613.9" x2="533.4" y2="560.6"/>
			</g>
			<g>
				<path class="st13" d="M422.5,631.7c0,0,17.8-11.2-71.1,44.7c-123,77.4-184.3-57.7-96.8-115.8"/>
				<line class="st13" x1="359.5" y1="646.5" x2="430.6" y2="601.8"/>
				<line class="st13" x1="348.3" y1="628.8" x2="419.4" y2="584"/>
				<line class="st13" x1="325.9" y1="593.2" x2="361.5" y2="570.8"/>
				<line class="st13" x1="337.1" y1="611" x2="408.2" y2="566.2"/>
			</g>
			<g>
				<path class="st8" d="M346.3,308.8c0,68,55.3,123.4,123.4,123.4S593,376.9,593,308.8s-55.3-123.4-123.4-123.4
					c-6.6,0-13,0.5-19.3,1.5c13.9-12.8,22.7-31.2,22.7-51.5c0-38.6-31.4-70-70-70s-70,31.4-70,70c0,38.4,31.1,69.7,69.4,70
					C368.6,227.5,346.3,265.6,346.3,308.8z M402.9,185.5c-27.6,0-50-22.4-50-50c0-27.6,22.4-50,50-50s50,22.4,50,50
					C452.9,163.1,430.5,185.5,402.9,185.5z M415.4,220.9c1.8,11.7,2.1,32.5-12.8,47.5c-13,13-25.7,18.9-34.5,21.5
					C373.4,260.8,391,236,415.4,220.9z M568.5,278.6c-28,2.2-68-8.8-95.8-27.2c-13.1-8.7-28.9-22.6-34.1-41.1
					c9.8-3.1,20.2-4.8,31-4.8C516.1,205.5,555.5,236.3,568.5,278.6z M366.3,310.9c11.4-2.3,31-9,50.4-28.4
					c11.6-11.6,16.7-25.1,18.7-37.5c6.9,8.2,15.7,16,26.3,23c29,19.3,67.7,30.9,99.1,30.9c4,0,7.9-0.2,11.7-0.6
					c0.4,3.5,0.5,7,0.5,10.5c0,57-46.4,103.4-103.4,103.4C413.3,412.2,367.4,367,366.3,310.9z"/>
				<path class="st8" d="M480.3,316.1c-1.9-8.8,3.8-17.5,12.6-19.3c8.8-1.9,17.5,3.8,19.3,12.6c1.9,8.8-3.8,17.5-12.6,19.3
					C490.8,330.6,482.1,324.9,480.3,316.1z"/>
				<path class="st8" d="M429.8,298.5c8.8-1.9,17.5,3.8,19.3,12.6c1.9,8.8-3.8,17.5-12.6,19.3c-8.8,1.9-17.5-3.8-19.3-12.6
					C415.4,309.1,421,300.4,429.8,298.5z"/>
				<path class="st8" d="M435.4,348.3c3.2-0.6,6.4,1.5,7,4.7c0.3,1.6,3.9,15.8,23.4,15.3c20.9-0.5,25-13.6,25.2-14.3
					c0.9-3.2,4.1-5.1,7.3-4.2c3.2,0.8,5.1,4.1,4.3,7.3c-0.2,0.9-6.1,22.5-36.5,23.3c-0.5,0-0.9,0-1.3,0c-23.2,0-32.5-16.2-34.2-25
					C430,352.1,432.1,348.9,435.4,348.3z"/>
			</g>
		</g>
		<g>
			<g>
				<path class="st0" d="M2339,443.2c-78,0-141.4,63.4-141.4,141.4c0,78,63.4,141.4,141.4,141.4s141.4-63.4,141.4-141.4
					C2480.4,506.7,2417,443.2,2339,443.2z M2339,711.1c-69.7,0-126.4-56.7-126.4-126.4s56.7-126.4,126.4-126.4
					s126.4,56.7,126.4,126.4S2408.7,711.1,2339,711.1z"/>
				<path class="st0" d="M2409.7,558l-38.9-5.9c-2.6-0.4-4.9-2.1-6.1-4.6l-17.4-36.9c-3-6.3-11.5-6.3-14.5,0l-17.4,36.9
					c-1.2,2.5-3.4,4.2-6.1,4.6l-38.9,5.9c-6.6,1-9.3,9.5-4.5,14.4l28.2,28.7c1.9,1.9,2.8,4.7,2.3,7.5l-6.6,40.5
					c-1.1,6.9,5.8,12.1,11.7,8.9l34.8-19.1c2.3-1.3,5.2-1.3,7.5,0l34.8,19.1c5.9,3.3,12.8-2,11.7-8.9l-6.6-40.5
					c-0.4-2.7,0.4-5.5,2.3-7.5l28.2-28.7C2419,567.5,2416.3,559,2409.7,558z"/>
			</g>
			<g>
				<path class="st8" d="M2477.4,247.3c4.4-28.8-14.4-56.5-43.3-62.6c-5.5-1.2-11.2-1.5-16.8-1c-5.8-19.1-21.4-33.8-41.5-38.1
					c-7.9-1.7-15.9-1.6-23.7,0.1c-7.9-12.5-21.5-20.8-36.6-21.8c-19.4-1.3-36.9,9.2-45.2,26c-30.6-7.9-61.2,11.6-67.7,42.2
					c-0.7,3.4-2.2,7.1-3.4,9.4c-35.3-5-69,18.2-76.6,53.5c-2.6,12.1,0.9,27.3,5.4,40.8c-16.6,2.8-30.7,15.5-34.4,33
					c-4.9,22.9,9.8,45.4,32.6,50.2c11.3,2.4,22.7,0.1,32-6.1c7.9,10,19,16.9,31.8,19.6c14.4,3.1,29.2,0.2,41.4-7.6
					c16.9,22.1,41.4,38.5,70.7,44.7c60,12.7,119.2-21.7,138.9-78.2c3.3,1.4,6.7,2.5,10.3,3.3c29.9,6.3,59.4-12.8,65.7-42.7
					C2523.1,283.4,2505.5,255,2477.4,247.3z M2426,332.9c0,0.1-0.1,0.3-0.1,0.4l0,0c-0.1,0.5-0.3,0.9-0.4,1.4l-0.9,3.8
					c-13.9,51.3-65.8,83.4-118.4,72.3c-54.5-11.6-89.4-65.3-77.8-119.8c11.6-54.5,65.3-89.4,119.8-77.8S2437.6,278.5,2426,332.9z
					 M2497.9,308.2c-4.1,19.3-23.2,31.7-42.5,27.6c-3.3-0.7-6.4-1.8-9.4-3.4c11-63.4-30.3-124.9-93.8-138.4
					c-65-13.8-129.2,27.9-143,92.9c-6.1,28.9-1.3,57.6,11.7,81.9c-7.9,5-17.4,6.9-26.7,4.9c-11-2.3-20-9.5-24.9-19.7l-6.7-14
					l-9.8,12.1c-5.5,6.8-14.1,9.9-22.4,8.1c-12.3-2.6-20.2-14.8-17.6-27.1c2.6-12.3,14.8-20.2,27.1-17.6l5.7,1.2l3.8-4.4
					c3.9-4.5,2.2-8.9,0.5-13.6c-2.6-6.9-10.4-28-8-39.5c5.6-26.4,31.6-43.3,58-37.7c15.8,3.3,21.8-24.1,22-25.3
					c4.1-19.3,23.2-31.7,42.5-27.6c2.6,0.6,5.2,1.4,7.8,2.7l11,5.2l2.7-11.8c3-13.1,15-22,28.5-21.1c10.6,0.7,19.9,7.6,23.7,17.6
					l3.6,9.3l9.2-3.8c6.6-2.7,13.9-3.3,20.9-1.8c15.3,3.2,26.6,15.8,28.2,31.4l1.2,11.7l11.3-3.4c5.7-1.7,11.8-1.9,17.6-0.7
					c19.3,4.1,31.7,23.2,27.6,42.5c-1.6,7.6,5,17.7,12.6,19.3C2489.6,269.8,2502,288.9,2497.9,308.2z"/>
				
					<ellipse transform="matrix(0.9958 -9.180736e-02 9.180736e-02 0.9958 -17.528 212.2352)" class="st8" cx="2298.1" cy="296.6" rx="16.3" ry="16.3"/>
				
					<ellipse transform="matrix(0.895 -0.446 0.446 0.895 114.8132 1084.4938)" class="st8" cx="2361.1" cy="298.4" rx="16.3" ry="16.3"/>
				<path class="st8" d="M2358.9,332.1c-3.2-0.6-6.4,1.5-7,4.7c-0.3,1.6-3.9,15.8-23.4,15.3c-20.9-0.5-25-13.6-25.2-14.3
					c-0.9-3.2-4.1-5.1-7.3-4.2c-3.2,0.8-5.1,4.1-4.3,7.3c0.2,0.9,6.1,22.5,36.5,23.3c0.4,0,0.9,0,1.3,0c23.2,0,32.5-16.2,34.2-25
					C2364.3,335.9,2362.2,332.8,2358.9,332.1z"/>
			</g>
			<g>
				<path class="st13" d="M2378.5,623.7c0,0-16.2-13.3,64.9,53.3c112.3,92.2,190-34.1,110.6-102.8"/>
				<line class="st13" x1="2439.2" y1="646.3" x2="2374.3" y2="593"/>
				<line class="st13" x1="2452.5" y1="630.1" x2="2387.6" y2="576.8"/>
				<line class="st13" x1="2479.2" y1="597.7" x2="2446.7" y2="571"/>
				<line class="st13" x1="2465.9" y1="613.9" x2="2401" y2="560.6"/>
			</g>
			<g>
				<path class="st13" d="M2290,631.7c0,0,17.8-11.2-71.1,44.7c-123,77.4-184.3-57.7-96.8-115.8"/>
				<line class="st13" x1="2227" y1="646.5" x2="2298.1" y2="601.8"/>
				<line class="st13" x1="2215.8" y1="628.8" x2="2286.9" y2="584"/>
				<line class="st13" x1="2193.4" y1="593.2" x2="2229" y2="570.8"/>
				<line class="st13" x1="2204.6" y1="611" x2="2275.7" y2="566.2"/>
			</g>
		</g>
		<path class="st6" d="M2004.2,651.7c-1.6,0-3.2-0.5-4.6-1.6c-3.3-2.5-6.5-5.2-9.6-8c-3.1-2.8-3.4-7.5-0.6-10.6
			c2.8-3.1,7.5-3.4,10.6-0.6c2.9,2.5,5.8,5,8.8,7.3c3.3,2.5,3.9,7.2,1.3,10.5C2008.6,650.7,2006.4,651.7,2004.2,651.7z M813.4,647.8
			c-2.1,0-4.3-0.9-5.8-2.7c-2.7-3.2-2.2-7.9,1-10.6c2.9-2.4,5.8-5,8.6-7.6c3-2.9,7.7-2.8,10.6,0.2c2.9,3,2.8,7.7-0.2,10.6
			c-3,2.9-6.2,5.7-9.3,8.3C816.8,647.2,815.1,647.8,813.4,647.8z M1980.2,629.2c-2.1,0-4.1-0.8-5.6-2.5c-2.7-3.1-5.4-6.3-8-9.6
			c-2.6-3.3-2-8,1.3-10.5c3.3-2.6,8-2,10.5,1.3c2.4,3,4.9,6,7.4,8.8c2.8,3.1,2.5,7.8-0.6,10.6
			C1983.7,628.6,1981.9,629.2,1980.2,629.2z M836.6,624.5c-1.7,0-3.4-0.6-4.8-1.7c-3.2-2.6-3.6-7.4-1-10.6c2.4-2.9,4.8-6,7.1-9.1
			c2.4-3.3,7.1-4.1,10.5-1.6c3.3,2.4,4.1,7.1,1.6,10.5c-2.5,3.4-5.1,6.7-7.7,9.8C840.9,623.6,838.8,624.5,836.6,624.5z
			 M1960.4,602.8c-2.5,0-4.9-1.2-6.4-3.5c-2.2-3.4-4.3-7-6.3-10.7c-2-3.6-0.7-8.2,2.9-10.2c3.6-2,8.2-0.7,10.2,2.9
			c1.9,3.4,3.9,6.7,5.9,10c2.2,3.5,1.1,8.1-2.4,10.3C1963.2,602.4,1961.8,602.8,1960.4,602.8z M855.6,597.5c-1.3,0-2.6-0.3-3.8-1
			c-3.6-2.1-4.8-6.7-2.6-10.3c1.9-3.3,3.8-6.7,5.6-10.2c1.9-3.7,6.4-5.1,10.1-3.2c3.7,1.9,5.1,6.4,3.2,10.1c-1.9,3.7-4,7.3-6,10.8
			C860.6,596.2,858.1,597.5,855.6,597.5z M1944.9,573.7c-2.9,0-5.6-1.6-6.8-4.4c-1.7-3.7-3.3-7.5-4.8-11.3c-1.5-3.8,0.4-8.2,4.2-9.7
			c3.8-1.5,8.2,0.4,9.7,4.2c1.4,3.6,3,7.2,4.5,10.7c1.7,3.8,0,8.2-3.8,9.9C1947,573.5,1946,573.7,1944.9,573.7z M870.3,568
			c-1,0-2-0.2-2.9-0.6c-3.8-1.6-5.6-6-4-9.8c1.5-3.5,2.9-7.2,4.3-10.9c1.4-3.9,5.8-5.9,9.6-4.4c3.9,1.4,5.9,5.8,4.4,9.6
			c-1.4,3.9-3,7.7-4.5,11.5C876,566.2,873.2,568,870.3,568z M1933.2,542.9c-3.2,0-6.1-2-7.1-5.2c-1.2-3.8-2.4-7.8-3.5-11.8
			c-1.1-4,1.2-8.1,5.2-9.2c4-1.1,8.1,1.2,9.2,5.2c1.1,3.8,2.2,7.6,3.3,11.2c1.3,3.9-0.9,8.2-4.9,9.4
			C1934.7,542.8,1934,542.9,1933.2,542.9z M881.4,536.9c-0.7,0-1.4-0.1-2.1-0.3c-4-1.2-6.2-5.3-5.1-9.3c1.1-3.7,2.1-7.5,3.1-11.3
			c1-4,5.1-6.4,9.1-5.4c4,1,6.4,5.1,5.4,9.1c-1,4-2.1,8-3.3,11.8C887.6,534.8,884.6,536.9,881.4,536.9z M1924.8,511
			c-3.5,0-6.6-2.4-7.3-5.9c-0.9-4-1.7-8-2.4-12c-0.7-4.1,1.9-8,6-8.7c4.1-0.7,8,1.9,8.7,6c0.7,3.9,1.5,7.8,2.3,11.6
			c0.9,4-1.7,8-5.8,8.9C1925.8,510.9,1925.3,511,1924.8,511z M889.2,504.8c-0.5,0-1,0-1.5-0.1c-4.1-0.8-6.7-4.8-5.9-8.8
			c0.8-3.8,1.5-7.7,2.1-11.6c0.7-4.1,4.5-6.8,8.6-6.2c4.1,0.7,6.8,4.6,6.2,8.6c-0.7,4-1.4,8.1-2.2,12
			C895.9,502.3,892.7,504.8,889.2,504.8z M1919.2,478.5c-3.7,0-6.9-2.7-7.4-6.5c-0.5-4-1-8.1-1.4-12.1c-0.4-4.1,2.5-7.8,6.7-8.2
			c4.1-0.4,7.8,2.5,8.2,6.7c0.4,3.9,0.9,7.9,1.4,11.7c0.5,4.1-2.3,7.9-6.4,8.4C1919.8,478.4,1919.5,478.5,1919.2,478.5z
			 M894.4,472.2c-0.3,0-0.6,0-0.9-0.1c-4.1-0.5-7.1-4.2-6.6-8.3c0.5-3.9,0.9-7.8,1.2-11.8c0.4-4.1,4-7.1,8.2-6.8
			c4.1,0.4,7.2,4,6.8,8.2c-0.4,4.1-0.8,8.1-1.3,12.1C901.3,469.4,898.1,472.2,894.4,472.2z M1916,445.6c-3.9,0-7.2-3.1-7.5-7
			c-0.2-4-0.5-8.1-0.6-12.2c-0.2-4.1,3.1-7.6,7.2-7.8c0.1,0,0.2,0,0.3,0c4,0,7.3,3.2,7.5,7.2c0.1,4,0.3,7.9,0.6,11.8
			c0.3,4.1-2.9,7.7-7,7.9C1916.3,445.6,1916.1,445.6,1916,445.6z M897.1,439.3c-0.1,0-0.2,0-0.4,0c-4.1-0.2-7.3-3.7-7.1-7.9
			c0.2-3.9,0.3-7.9,0.4-11.8c0.1-4.1,3.4-7.3,7.5-7.3c0.1,0,0.1,0,0.2,0c4.1,0.1,7.4,3.5,7.3,7.7c-0.1,4.1-0.3,8.2-0.4,12.2
			C904.4,436.1,901.1,439.3,897.1,439.3z M1915.1,412.5C1915.1,412.5,1915,412.5,1915.1,412.5c-4.2,0-7.5-3.4-7.5-7.5
			c0-4.1,0.1-8.2,0.2-12.2c0.1-4.1,3.6-7.4,7.7-7.3c4.1,0.1,7.4,3.6,7.3,7.7c-0.1,3.9-0.2,7.9-0.2,11.8
			C1922.5,409.2,1919.2,412.5,1915.1,412.5z M897.6,406.2c-4.1,0-7.4-3.3-7.5-7.4c-0.1-4-0.2-8-0.4-11.8c-0.2-4.1,3-7.6,7.2-7.8
			c4.1-0.2,7.6,3,7.8,7.2c0.2,4,0.3,8.1,0.4,12.2c0.1,4.1-3.2,7.6-7.4,7.6C897.7,406.2,897.6,406.2,897.6,406.2z M1916.4,379.6
			c-0.2,0-0.4,0-0.6,0c-4.1-0.4-7.2-4-6.8-8.1c0.1-1.4,0.2-2.4,0.3-2.9c0-1.1,0-3.8-0.3-8c-0.3-4.1,2.9-7.7,7-8c4.1-0.3,7.7,2.9,8,7
			c0.3,4.7,0.3,7.9,0.3,9l0,1.2c0,0-0.1,1.1-0.3,3C1923.5,376.6,1920.3,379.6,1916.4,379.6z M1916.7,368.9L1916.7,368.9
			L1916.7,368.9z M896.1,373.2c-0.1,0-0.2,0-0.2,0c-4.1-0.1-7.4-3.6-7.3-7.7c0.1-2.7,0.3-7,0.8-12.5c0.4-4.1,4.1-7.1,8.2-6.7
			c4.1,0.4,7.1,4.1,6.7,8.2c-0.5,5.1-0.7,9.1-0.8,11.5C903.4,370,900.1,373.2,896.1,373.2z M1913.9,346.6c-3.6,0-6.8-2.6-7.4-6.3
			c-0.6-3.8-1.4-7.7-2.2-11.4c-0.9-4,1.7-8,5.7-8.9c4-0.9,8,1.7,8.9,5.7c0.9,4,1.7,8.1,2.3,12.2c0.7,4.1-2.1,7.9-6.2,8.6
			C1914.7,346.6,1914.3,346.6,1913.9,346.6z M899.9,340.4c-0.5,0-1,0-1.4-0.1c-4.1-0.8-6.7-4.7-5.9-8.8c0.8-4.1,1.7-8.1,2.7-12.1
			c1-4,5.1-6.5,9.1-5.5c4,1,6.5,5.1,5.5,9.1c-0.9,3.7-1.8,7.5-2.5,11.4C906.6,337.9,903.5,340.4,899.9,340.4z M1906.2,314.5
			c-3.2,0-6.1-2-7.1-5.2c-1.2-3.7-2.5-7.4-3.9-10.9c-1.5-3.9,0.4-8.2,4.3-9.7c3.9-1.5,8.2,0.4,9.7,4.3c1.5,3.8,2.9,7.8,4.1,11.7
			c1.3,3.9-0.9,8.2-4.8,9.4C1907.7,314.4,1906.9,314.5,1906.2,314.5z M908.6,308.5c-0.8,0-1.7-0.1-2.5-0.4c-3.9-1.4-5.9-5.7-4.6-9.6
			c1.4-3.9,2.9-7.8,4.5-11.6c1.6-3.8,6-5.6,9.8-4s5.6,6,4,9.8c-1.5,3.5-2.9,7.1-4.2,10.8C914.6,306.6,911.7,308.5,908.6,308.5z
			 M1893.6,284c-2.7,0-5.3-1.5-6.7-4c-1.8-3.4-3.7-6.8-5.6-10c-2.2-3.5-1-8.2,2.5-10.3c3.5-2.2,8.2-1,10.3,2.5
			c2.1,3.5,4.2,7.2,6.1,10.9c1.9,3.7,0.5,8.2-3.2,10.1C1895.9,283.7,1894.7,284,1893.6,284z M922.2,278.4c-1.2,0-2.5-0.3-3.7-1
			c-3.6-2-4.9-6.6-2.8-10.2c2.1-3.7,4.3-7.3,6.5-10.7c2.3-3.5,6.9-4.4,10.4-2.1c3.5,2.3,4.4,6.9,2.1,10.4c-2.1,3.1-4.1,6.4-6,9.8
			C927.3,277.1,924.8,278.4,922.2,278.4z M1875.7,256.3c-2.2,0-4.4-1-5.9-2.8c-2.4-3-4.9-5.9-7.5-8.6c-2.8-3-2.7-7.8,0.3-10.6
			c3-2.8,7.8-2.7,10.6,0.3c2.8,3,5.6,6.2,8.2,9.5c2.6,3.2,2.1,8-1.2,10.5C1879,255.8,1877.3,256.3,1875.7,256.3z M941.1,251.5
			c-1.7,0-3.5-0.6-4.9-1.8c-3.1-2.7-3.5-7.5-0.7-10.6c2.8-3.2,5.7-6.2,8.6-9.2c3-2.9,7.7-2.9,10.6,0.1c2.9,3,2.9,7.7-0.1,10.6
			c-2.7,2.6-5.3,5.4-7.8,8.3C945.3,250.6,943.2,251.5,941.1,251.5z M1852.4,233c-1.6,0-3.3-0.5-4.7-1.7c-2.9-2.4-6-4.6-9.1-6.8
			c-3.4-2.3-4.3-7-2-10.4c2.3-3.4,7-4.3,10.4-2c3.5,2.4,6.9,4.9,10.1,7.5c3.2,2.6,3.7,7.3,1.1,10.5
			C1856.8,232.1,1854.6,233,1852.4,233z M965.3,229.2c-2.3,0-4.6-1.1-6-3.1c-2.5-3.3-1.7-8,1.6-10.5c3.4-2.5,6.9-4.8,10.4-7
			c3.5-2.2,8.1-1.1,10.3,2.4c2.2,3.5,1.1,8.1-2.4,10.3c-3.2,2-6.4,4.1-9.4,6.4C968.4,228.7,966.8,229.2,965.3,229.2z M1824.7,215.4
			c-1.1,0-2.2-0.3-3.3-0.8c-3.4-1.7-6.9-3.2-10.4-4.7c-3.8-1.6-5.7-5.9-4.1-9.8c1.6-3.8,5.9-5.7,9.8-4.1c3.9,1.6,7.7,3.3,11.4,5.1
			c3.7,1.8,5.2,6.3,3.4,10C1830.1,213.8,1827.5,215.4,1824.7,215.4z M993.7,212.7c-2.9,0-5.6-1.7-6.9-4.4c-1.7-3.8,0-8.2,3.8-9.9
			c3.8-1.7,7.7-3.3,11.6-4.7c3.9-1.4,8.2,0.6,9.6,4.5c1.4,3.9-0.6,8.2-4.5,9.6c-3.6,1.3-7.2,2.7-10.6,4.3
			C995.8,212.5,994.8,212.7,993.7,212.7z M1793.9,203.8c-0.7,0-1.3-0.1-2-0.3c-3.6-1-7.4-1.9-11.2-2.7c-4.1-0.8-6.7-4.8-5.8-8.9
			c0.8-4.1,4.8-6.7,8.9-5.8c4.1,0.8,8.2,1.8,12.1,2.9c4,1.1,6.4,5.2,5.3,9.2C1800.3,201.6,1797.2,203.8,1793.9,203.8z M1024.9,202.3
			c-3.4,0-6.5-2.3-7.3-5.8c-1-4,1.5-8.1,5.6-9c4-0.9,8.1-1.8,12.2-2.5c4.1-0.7,8,2,8.7,6.1c0.7,4.1-2,8-6.1,8.7
			c-3.8,0.7-7.6,1.4-11.3,2.3C1026.1,202.2,1025.5,202.3,1024.9,202.3z M1761.6,197.8c-0.3,0-0.5,0-0.8,0c-3.8-0.4-7.7-0.7-11.6-0.9
			c-4.1-0.2-7.3-3.8-7.1-7.9c0.2-4.1,3.8-7.3,7.9-7.1c4.1,0.2,8.3,0.6,12.3,1c4.1,0.4,7.1,4.1,6.7,8.3
			C1768.6,195,1765.4,197.8,1761.6,197.8z M1057.4,197.2c-3.9,0-7.2-3-7.5-6.9c-0.3-4.1,2.7-7.7,6.9-8.1c4-0.3,8.2-0.6,12.3-0.7
			c4.1-0.2,7.6,3.1,7.7,7.2c0.1,4.1-3.1,7.6-7.2,7.7c-3.9,0.1-7.8,0.4-11.6,0.7C1057.8,197.2,1057.6,197.2,1057.4,197.2z
			 M1728.7,196.3c0,0-0.1,0-0.1,0l-12-0.2c-4.1-0.1-7.5-3.5-7.4-7.6c0.1-4.1,3.5-7.5,7.6-7.4l12,0.2c4.1,0.1,7.5,3.5,7.4,7.6
			C1736.1,193,1732.8,196.3,1728.7,196.3z M1090.4,196.2c-4.1,0-7.4-3.3-7.5-7.4c-0.1-4.1,3.2-7.5,7.4-7.6l12-0.2c0,0,0.1,0,0.1,0
			c4.1,0,7.4,3.3,7.5,7.4c0.1,4.1-3.3,7.5-7.4,7.6l-12,0.2C1090.5,196.2,1090.4,196.2,1090.4,196.2z M1695.7,195.8c0,0-0.1,0-0.1,0
			l-12-0.2c-4.1-0.1-7.5-3.5-7.4-7.6c0.1-4.1,3.4-7.4,7.5-7.4c0,0,0.1,0,0.1,0l12,0.2c4.1,0.1,7.5,3.5,7.4,7.6
			C1703.1,192.5,1699.8,195.8,1695.7,195.8z M1123.4,195.7c-4.1,0-7.4-3.3-7.5-7.4c-0.1-4.1,3.2-7.5,7.4-7.6l12-0.2c0,0,0.1,0,0.1,0
			c4.1,0,7.4,3.3,7.5,7.4c0.1,4.1-3.2,7.5-7.4,7.6l-12,0.2C1123.4,195.7,1123.4,195.7,1123.4,195.7z M1662.7,195.3c0,0-0.1,0-0.1,0
			l-12-0.2c-4.1-0.1-7.5-3.5-7.4-7.6c0.1-4.1,3.4-7.4,7.5-7.4c0,0,0.1,0,0.1,0l12,0.2c4.1,0.1,7.5,3.5,7.4,7.6
			C1670.2,192.1,1666.8,195.3,1662.7,195.3z M1156.3,195.2c-4.1,0-7.4-3.3-7.5-7.4c-0.1-4.1,3.2-7.5,7.4-7.6l12-0.2
			c4.2-0.1,7.5,3.2,7.6,7.4c0.1,4.1-3.3,7.5-7.4,7.6l-12,0.2C1156.4,195.2,1156.4,195.2,1156.3,195.2z M1629.8,194.9
			c0,0-0.1,0-0.1,0l-12-0.2c-4.1-0.1-7.5-3.5-7.4-7.6c0.1-4.1,3.5-7.5,7.6-7.4l12,0.2c4.1,0.1,7.5,3.5,7.4,7.6
			C1637.2,191.6,1633.9,194.9,1629.8,194.9z M1189.3,194.8c-4.1,0-7.4-3.3-7.5-7.4c-0.1-4.1,3.2-7.5,7.4-7.6l12-0.2
			c4.1-0.1,7.5,3.2,7.6,7.4c0.1,4.1-3.2,7.5-7.4,7.6l-12,0.2C1189.4,194.8,1189.3,194.8,1189.3,194.8z M1596.8,194.4
			c0,0-0.1,0-0.1,0l-12-0.2c-4.1-0.1-7.5-3.5-7.4-7.6c0.1-4.1,3.4-7.4,7.5-7.4c0,0,0.1,0,0.1,0l12,0.2c4.1,0.1,7.5,3.5,7.4,7.6
			C1604.3,191.1,1600.9,194.4,1596.8,194.4z M1222.2,194.3c-4.1,0-7.4-3.3-7.5-7.4c-0.1-4.1,3.2-7.5,7.4-7.6l12-0.2c0,0,0.1,0,0.1,0
			c4.1,0,7.4,3.3,7.5,7.4c0.1,4.1-3.2,7.5-7.4,7.6l-12,0.2C1222.3,194.3,1222.3,194.3,1222.2,194.3z"/>
		<path class="st6" d="M1204.8,147.8c0.3-1,0.8-2,1.6-2.8c2.7-3.1,7.5-3.4,10.6-0.7l46.2,40.9l-52.8,43.4c-3.2,2.6-7.9,2.2-10.6-1
			c-2.6-3.2-2.2-7.9,1-10.6l39.2-32.2l-33.1-29.2C1204.8,153.6,1204,150.5,1204.8,147.8z"/>
		<path class="st6" d="M2005.9,594.6c0.9-0.6,1.9-1,3-1.2c4.1-0.6,7.9,2.2,8.6,6.2l9.6,61l-68.3-0.2c-4.1,0-7.5-3.4-7.5-7.5
			c0-4.1,3.4-7.5,7.5-7.5l50.7,0.2l-6.9-43.6C2002.2,599.1,2003.6,596.2,2005.9,594.6z"/>
	</g>
	<rect x="49" y="749" class="st20" width="546" height="126"/>
	<text transform="matrix(1 0 0 1 48.9998 785.6237)"><tspan x="0" y="0" class="st7 st21 st22">¡Aquí viene </tspan><tspan x="0" y="57.6" class="st7 st21 st22">la ayuda!</tspan></text>
	<rect x="2191" y="749" class="st20" width="546" height="126"/>
	<text transform="matrix(1 0 0 1 2547.6907 785.6237)"><tspan x="0" y="0" class="st7 st21 st22">¡Muchas</tspan><tspan x="12.6" y="57.6" class="st7 st21 st22">gracias!</tspan></text>
</g>
<g id="Layer_2">
</g>
</svg>
