<?xml version="1.0" encoding="utf-8"?>
<!-- Generator: Adobe Illustrator 25.2.3, SVG Export Plug-In . SVG Version: 6.00 Build 0)  -->
<svg version="1.1" xmlns="http://www.w3.org/2000/svg" xmlns:xlink="http://www.w3.org/1999/xlink" x="0px" y="0px"
	 viewBox="0 0 2200 1400" style="enable-background:new 0 0 2200 1400;" xml:space="preserve">
<style type="text/css">
	.st0{fill:#D695C0;}
	.st1{fill:#E34D99;}
	.st2{fill:#76BF60;}
	.st3{fill:#EC8231;}
	.st4{fill:#489B91;}
	.st5{fill:none;stroke:#442856;stroke-linecap:round;stroke-miterlimit:10;}
	.st6{fill:#BEA3CC;}
	.st7{fill:#442856;}
	.st8{fill:#785089;}
	.st9{fill:none;stroke:#442856;stroke-width:15;stroke-miterlimit:10;}
	.st10{fill:none;stroke:#BEA3CC;stroke-width:15;stroke-linecap:round;stroke-miterlimit:10;stroke-dasharray:12,21;}
	.st11{clip-path:url(#SVGID_2_);}
	.st12{fill:none;stroke:#D695C0;stroke-width:16;stroke-miterlimit:10;}
	.st13{fill:none;stroke:#785089;stroke-width:15;stroke-linecap:round;stroke-miterlimit:10;}
	.st14{fill:#C7E2C0;}
	.st15{fill:#9BD2CA;}
	.st16{fill:#FBC089;}
	.st17{fill:#E9A6C9;}
	.st18{fill:#F0CEE2;}
	.st19{fill:none;stroke:#442856;stroke-width:15;stroke-linecap:round;stroke-miterlimit:10;}
</style>
<g id="Layer_1">
	<line class="st5" x1="1228" y1="151.5" x2="1228" y2="1264.5"/>
	<line class="st5" x1="1354" y1="151.5" x2="1354" y2="1264.5"/>
	<line class="st5" x1="1480" y1="151.5" x2="1480" y2="1264.5"/>
	<line class="st5" x1="1606" y1="151.5" x2="1606" y2="1264.5"/>
	<line class="st5" x1="1732" y1="151.5" x2="1732" y2="1264.5"/>
	<line class="st5" x1="1858" y1="151.5" x2="1858" y2="1264.5"/>
	<line class="st5" x1="1984" y1="151.5" x2="1984" y2="1264.5"/>
	<line class="st5" x1="2110" y1="151.5" x2="2110" y2="1264.5"/>
	<line class="st5" x1="220" y1="151.5" x2="220" y2="1264.5"/>
	<line class="st5" x1="346" y1="151.5" x2="346" y2="1264.5"/>
	<line class="st5" x1="472" y1="151.5" x2="472" y2="1264.5"/>
	<line class="st5" x1="598" y1="151.5" x2="598" y2="1264.5"/>
	<line class="st5" x1="724" y1="151.5" x2="724" y2="1264.5"/>
	<line class="st5" x1="850" y1="151.5" x2="850" y2="1264.5"/>
	<line class="st5" x1="976" y1="151.5" x2="976" y2="1264.5"/>
	<line class="st5" x1="94" y1="151.5" x2="94" y2="1264.5"/>
	<rect x="850" y="235.5" class="st1" width="630" height="168"/>
	<rect x="94" y="487.5" class="st2" width="1764" height="168"/>
	<rect x="724" y="739.5" class="st3" width="1008" height="168"/>
	<rect x="850" y="991.5" class="st4" width="1008" height="168"/>
	<line class="st19" x1="1100" y1="145" x2="1100" y2="1258"/>
	<line class="st19" x1="2129" y1="1264.5" x2="71" y2="1264.5"/>
	<line class="st5" x1="1102" y1="151.5" x2="1102" y2="1264.5"/>
	<g>
		<path class="st7" d="M75.6,1357.6V1322H83l12.5,19.9V1322h9.3v35.7h-7.4L85,1337.8v19.9H75.6z"/>
		<path class="st7" d="M121.2,1357.9c-2.9,0-5.3-0.4-7.1-1.1c-1.8-0.7-3.1-2.1-3.9-4c-0.8-1.9-1.2-4.6-1.2-8c0-3.6,0.4-6.3,1.1-8.2
			c0.7-1.9,2-3.3,3.7-4.1c1.7-0.8,4.1-1.2,7-1.2c2.8,0,4.9,0.3,6.5,0.8c1.6,0.5,2.7,1.4,3.4,2.8c0.7,1.3,1,3.2,1,5.6
			c0,1.9-0.4,3.4-1.1,4.4c-0.7,1.1-1.8,1.8-3.1,2.3c-1.3,0.4-2.9,0.7-4.8,0.7h-4.6c0.1,0.8,0.3,1.4,0.6,1.8c0.3,0.5,0.8,0.8,1.6,1
			s1.9,0.3,3.4,0.3h7.1v5.4c-1.1,0.3-2.5,0.6-4,1C125.2,1357.7,123.4,1357.9,121.2,1357.9z M118.1,1342.5h3.7c0.6,0,1.1-0.1,1.4-0.4
			c0.3-0.3,0.4-0.8,0.4-1.5c0-0.6-0.1-1.1-0.3-1.5c-0.2-0.4-0.5-0.7-0.9-0.8c-0.4-0.2-1-0.3-1.6-0.3c-0.6,0-1.1,0.1-1.5,0.4
			c-0.4,0.3-0.7,0.7-0.9,1.4C118.2,1340.4,118.1,1341.3,118.1,1342.5z"/>
		<path class="st7" d="M145.8,1357.9c-1.6,0-3.1-0.2-4.5-0.6c-1.4-0.4-2.6-1.1-3.6-2.1c-1-1-1.8-2.3-2.3-4c-0.5-1.7-0.8-3.8-0.8-6.3
			c0-2.6,0.2-4.8,0.7-6.6c0.5-1.7,1.2-3.1,2.2-4.2c1-1,2.2-1.8,3.6-2.2c1.4-0.4,3.1-0.6,4.9-0.6c1.7,0,3.3,0.1,4.7,0.3
			c1.4,0.2,2.9,0.6,4.6,1.2v5.3h-6.3c-1.4,0-2.4,0.2-3.2,0.6c-0.8,0.4-1.3,1-1.6,2s-0.4,2.3-0.4,4.1c0,1.8,0.1,3.1,0.4,4
			c0.3,0.9,0.8,1.5,1.5,1.8c0.8,0.3,1.9,0.4,3.3,0.4h6.5v5.2c-0.8,0.3-1.8,0.6-2.9,0.9c-1.1,0.3-2.3,0.5-3.5,0.6
			C148.1,1357.8,146.9,1357.9,145.8,1357.9z"/>
		<path class="st7" d="M170.4,1357.9c-2.9,0-5.3-0.4-7.1-1.1c-1.8-0.7-3.1-2.1-3.9-4c-0.8-1.9-1.2-4.6-1.2-8c0-3.6,0.4-6.3,1.1-8.2
			c0.7-1.9,2-3.3,3.7-4.1c1.7-0.8,4.1-1.2,7-1.2c2.8,0,4.9,0.3,6.5,0.8c1.6,0.5,2.7,1.4,3.4,2.8c0.7,1.3,1,3.2,1,5.6
			c0,1.9-0.4,3.4-1.1,4.4c-0.7,1.1-1.8,1.8-3.1,2.3c-1.3,0.4-2.9,0.7-4.8,0.7h-4.6c0.1,0.8,0.3,1.4,0.6,1.8c0.3,0.5,0.8,0.8,1.6,1
			s1.9,0.3,3.4,0.3h7.1v5.4c-1.1,0.3-2.5,0.6-4,1C174.4,1357.7,172.6,1357.9,170.4,1357.9z M167.3,1342.5h3.7c0.6,0,1.1-0.1,1.4-0.4
			c0.3-0.3,0.4-0.8,0.4-1.5c0-0.6-0.1-1.1-0.3-1.5c-0.2-0.4-0.5-0.7-0.9-0.8c-0.4-0.2-1-0.3-1.6-0.3c-0.6,0-1.1,0.1-1.5,0.4
			c-0.4,0.3-0.7,0.7-0.9,1.4C167.4,1340.4,167.3,1341.3,167.3,1342.5z"/>
		<path class="st7" d="M194.2,1357.9c-0.9,0-1.9,0-2.8-0.1c-0.9-0.1-1.8-0.2-2.7-0.3c-0.9-0.1-1.7-0.3-2.5-0.5
			c-0.8-0.2-1.5-0.4-2.1-0.7v-5.4h12c0.4,0,0.7,0,0.9-0.1c0.2-0.1,0.3-0.2,0.4-0.3c0.1-0.1,0.1-0.3,0.1-0.5v-0.6
			c0-0.3-0.1-0.6-0.3-0.7c-0.2-0.2-0.7-0.3-1.5-0.3h-4.3c-1.4,0-2.8-0.2-4-0.7c-1.2-0.5-2.2-1.3-2.9-2.4c-0.7-1.1-1.1-2.5-1.1-4.4
			v-1.6c0-1.7,0.3-3.1,1-4.2c0.6-1.2,1.8-2.1,3.4-2.7c1.6-0.6,3.9-0.9,6.9-0.9c1.2,0,2.4,0.1,3.6,0.2c1.2,0.1,2.3,0.3,3.4,0.6
			c1,0.2,1.8,0.5,2.4,0.7v5.4h-11.4c-0.5,0-0.8,0.1-1.1,0.2c-0.2,0.1-0.3,0.4-0.3,0.7v0.6c0,0.3,0.1,0.5,0.2,0.6
			c0.1,0.1,0.3,0.2,0.6,0.3c0.3,0.1,0.7,0.1,1.2,0.1h4.5c2.8,0,4.8,0.6,5.9,1.9c1.1,1.3,1.7,3,1.7,5.2v2.6c0,1.7-0.4,3.1-1.2,4.2
			c-0.8,1.1-2.1,1.8-3.7,2.3C198.9,1357.7,196.8,1357.9,194.2,1357.9z"/>
		<path class="st7" d="M209.9,1328.5c-0.8,0-1.2-0.4-1.2-1.1v-5.3c0-0.8,0.4-1.2,1.2-1.2h7.3c0.4,0,0.6,0.1,0.8,0.3
			c0.2,0.2,0.3,0.5,0.3,0.9v5.3c0,0.7-0.4,1.1-1.1,1.1H209.9z M208.9,1357.6v-25.9h9.3v25.9H208.9z"/>
		<path class="st7" d="M231,1357.9c-2,0-3.6-0.4-5-1.2c-1.4-0.8-2.4-2.2-3.1-4.1c-0.7-1.9-1.1-4.4-1.1-7.6s0.3-5.8,0.8-7.8
			c0.6-2,1.5-3.5,3-4.4c1.4-1,3.4-1.4,5.9-1.4c1,0,2,0.1,3,0.3c1,0.2,1.9,0.4,2.7,0.7V1321h9.3v36.6h-7.9l-1.4-2.4
			c-0.6,0.5-1.2,1-1.9,1.4s-1.4,0.7-2.1,0.9C232.5,1357.8,231.8,1357.9,231,1357.9z M234.4,1350.5c0.6,0,1.2-0.1,1.7-0.3
			c0.5-0.2,0.9-0.4,1.1-0.6V1339c-0.3-0.2-0.7-0.3-1.2-0.5c-0.5-0.2-1-0.3-1.4-0.3c-0.9,0-1.6,0.1-2.1,0.4c-0.5,0.3-0.9,0.9-1.1,1.8
			c-0.2,0.9-0.3,2.3-0.3,4.1c0,1.8,0.1,3.1,0.3,3.9c0.2,0.8,0.6,1.4,1.1,1.7C232.9,1350.3,233.6,1350.5,234.4,1350.5z"/>
		<path class="st7" d="M256.5,1357.9c-2,0-3.6-0.6-4.8-1.8c-1.2-1.2-1.8-2.8-1.8-4.8v-2.6c0-1.9,0.7-3.5,2.1-4.8
			c1.4-1.3,3.6-1.9,6.7-1.9h5.2v-0.8c0-0.6-0.1-1.1-0.3-1.5c-0.2-0.4-0.7-0.6-1.4-0.8c-0.7-0.1-1.8-0.2-3.2-0.2h-7.5v-5.3
			c1.3-0.5,2.9-1,4.6-1.3c1.7-0.4,3.9-0.5,6.4-0.5c2.2,0,4.1,0.2,5.7,0.7c1.6,0.5,2.9,1.4,3.7,2.7c0.9,1.3,1.3,3.2,1.3,5.6v17.1
			h-7.4l-1.4-2.6c-0.3,0.3-0.7,0.6-1.2,1c-0.5,0.3-1,0.6-1.7,0.9c-0.6,0.3-1.4,0.5-2.2,0.7C258.4,1357.8,257.5,1357.9,256.5,1357.9z
			 M261.3,1351.6c0.2,0,0.3,0,0.5,0c0.2,0,0.4-0.1,0.6-0.1s0.4-0.1,0.6-0.1c0.2,0,0.3-0.1,0.5-0.2c0.1-0.1,0.2-0.1,0.3-0.1v-4.7
			l-2,0.3c-0.9,0.1-1.6,0.4-2,0.7s-0.7,0.9-0.7,1.6v1c0,0.4,0.1,0.8,0.3,1c0.2,0.3,0.4,0.5,0.8,0.6
			C260.5,1351.5,260.9,1351.6,261.3,1351.6z"/>
		<path class="st7" d="M285.8,1357.9c-2,0-3.6-0.4-5-1.2c-1.4-0.8-2.4-2.2-3.1-4.1c-0.7-1.9-1.1-4.4-1.1-7.6s0.3-5.8,0.8-7.8
			c0.6-2,1.5-3.5,3-4.4c1.4-1,3.4-1.4,5.9-1.4c1,0,2,0.1,3,0.3c1,0.2,1.9,0.4,2.7,0.7V1321h9.3v36.6h-7.9l-1.4-2.4
			c-0.6,0.5-1.2,1-1.9,1.4s-1.4,0.7-2.1,0.9C287.3,1357.8,286.6,1357.9,285.8,1357.9z M289.2,1350.5c0.6,0,1.2-0.1,1.7-0.3
			c0.5-0.2,0.9-0.4,1.1-0.6V1339c-0.3-0.2-0.7-0.3-1.2-0.5c-0.5-0.2-1-0.3-1.4-0.3c-0.9,0-1.6,0.1-2.1,0.4c-0.5,0.3-0.9,0.9-1.1,1.8
			c-0.2,0.9-0.3,2.3-0.3,4.1c0,1.8,0.1,3.1,0.3,3.9c0.2,0.8,0.6,1.4,1.1,1.7C287.7,1350.3,288.4,1350.5,289.2,1350.5z"/>
		<path class="st7" d="M317,1357.9c-2.9,0-5.3-0.4-7.1-1.1c-1.8-0.7-3.1-2.1-3.9-4c-0.8-1.9-1.2-4.6-1.2-8c0-3.6,0.4-6.3,1.1-8.2
			c0.7-1.9,2-3.3,3.7-4.1c1.7-0.8,4.1-1.2,7-1.2c2.8,0,4.9,0.3,6.5,0.8c1.6,0.5,2.7,1.4,3.4,2.8c0.7,1.3,1,3.2,1,5.6
			c0,1.9-0.4,3.4-1.1,4.4c-0.7,1.1-1.8,1.8-3.1,2.3c-1.3,0.4-2.9,0.7-4.8,0.7H314c0.1,0.8,0.3,1.4,0.6,1.8c0.3,0.5,0.8,0.8,1.6,1
			s1.9,0.3,3.4,0.3h7.1v5.4c-1.1,0.3-2.5,0.6-4,1C321.1,1357.7,319.2,1357.9,317,1357.9z M313.9,1342.5h3.7c0.6,0,1.1-0.1,1.4-0.4
			c0.3-0.3,0.4-0.8,0.4-1.5c0-0.6-0.1-1.1-0.3-1.5c-0.2-0.4-0.5-0.7-0.9-0.8c-0.4-0.2-1-0.3-1.6-0.3c-0.6,0-1.1,0.1-1.5,0.4
			c-0.4,0.3-0.7,0.7-0.9,1.4C314,1340.4,313.9,1341.3,313.9,1342.5z"/>
		<path class="st7" d="M340.9,1357.9c-0.9,0-1.9,0-2.8-0.1c-0.9-0.1-1.8-0.2-2.7-0.3c-0.9-0.1-1.7-0.3-2.5-0.5
			c-0.8-0.2-1.5-0.4-2.1-0.7v-5.4h12c0.4,0,0.7,0,0.9-0.1c0.2-0.1,0.3-0.2,0.4-0.3c0.1-0.1,0.1-0.3,0.1-0.5v-0.6
			c0-0.3-0.1-0.6-0.3-0.7c-0.2-0.2-0.7-0.3-1.5-0.3h-4.3c-1.4,0-2.8-0.2-4-0.7c-1.2-0.5-2.2-1.3-2.9-2.4c-0.7-1.1-1.1-2.5-1.1-4.4
			v-1.6c0-1.7,0.3-3.1,1-4.2c0.6-1.2,1.8-2.1,3.4-2.7c1.6-0.6,3.9-0.9,6.9-0.9c1.2,0,2.4,0.1,3.6,0.2c1.2,0.1,2.3,0.3,3.4,0.6
			c1,0.2,1.8,0.5,2.4,0.7v5.4h-11.4c-0.5,0-0.8,0.1-1.1,0.2c-0.2,0.1-0.3,0.4-0.3,0.7v0.6c0,0.3,0.1,0.5,0.2,0.6
			c0.1,0.1,0.3,0.2,0.6,0.3c0.3,0.1,0.7,0.1,1.2,0.1h4.5c2.8,0,4.8,0.6,5.9,1.9c1.1,1.3,1.7,3,1.7,5.2v2.6c0,1.7-0.4,3.1-1.2,4.2
			c-0.8,1.1-2.1,1.8-3.7,2.3C345.5,1357.7,343.4,1357.9,340.9,1357.9z"/>
	</g>
	<g>
		<path class="st7" d="M1964.5,1357.6l10.6-35.7h11.6l10.6,35.7h-9.6l-1.4-5.7h-10.7l-1.4,5.7H1964.5z M1977.6,1343.6h6.4l-3.2-13.7
			L1977.6,1343.6z"/>
		<path class="st7" d="M2005.8,1369l2.5-11.4c-1.9,0-3.4-0.3-4.6-1c-1.2-0.7-2.2-1.5-2.9-2.7c-0.7-1.1-1.2-2.4-1.5-3.8l-4-18.4h9.6
			l2.9,16.5c0.1,0.4,0.2,0.7,0.3,0.9c0.1,0.2,0.3,0.4,0.5,0.6s0.4,0.2,0.6,0.3s0.4,0.1,0.6,0.1l3.3-18.4h9.5l-6.6,32.5l-2.4,4.8
			H2005.8z"/>
		<path class="st7" d="M2032.2,1357.9c-2.2,0-4-0.7-5.3-2.1c-1.3-1.4-1.9-3.3-1.9-5.6v-18.4h9.3v15.5c0,1,0.2,1.7,0.7,2
			c0.5,0.3,1.1,0.5,1.8,0.5c0.5,0,1.1-0.1,1.8-0.4c0.8-0.3,1.3-0.6,1.7-1.1v-16.5h9.3v25.9h-7.8l-1.5-2.5c-1.1,0.7-2.3,1.3-3.7,1.9
			C2035.3,1357.6,2033.8,1357.9,2032.2,1357.9z"/>
		<path class="st7" d="M2062.5,1357.9c-2,0-3.6-0.4-5-1.2c-1.4-0.8-2.4-2.2-3.1-4.1c-0.7-1.9-1.1-4.4-1.1-7.6s0.3-5.8,0.8-7.8
			s1.5-3.5,3-4.4c1.4-1,3.4-1.4,5.9-1.4c1,0,2,0.1,3,0.3c1,0.2,1.9,0.4,2.7,0.7V1321h9.3v36.6h-7.9l-1.4-2.4c-0.6,0.5-1.2,1-1.9,1.4
			s-1.4,0.7-2.1,0.9C2064,1357.8,2063.3,1357.9,2062.5,1357.9z M2065.9,1350.5c0.6,0,1.2-0.1,1.7-0.3s0.9-0.4,1.1-0.6V1339
			c-0.3-0.2-0.7-0.3-1.2-0.5c-0.5-0.2-1-0.3-1.4-0.3c-0.9,0-1.6,0.1-2.1,0.4s-0.9,0.9-1.1,1.8c-0.2,0.9-0.3,2.3-0.3,4.1
			c0,1.8,0.1,3.1,0.3,3.9s0.6,1.4,1.1,1.7C2064.4,1350.3,2065.1,1350.5,2065.9,1350.5z"/>
		<path class="st7" d="M2087.9,1357.9c-2,0-3.6-0.6-4.8-1.8c-1.2-1.2-1.8-2.8-1.8-4.8v-2.6c0-1.9,0.7-3.5,2.1-4.8
			c1.4-1.3,3.6-1.9,6.7-1.9h5.2v-0.8c0-0.6-0.1-1.1-0.3-1.5c-0.2-0.4-0.7-0.6-1.4-0.8c-0.7-0.1-1.8-0.2-3.2-0.2h-7.5v-5.3
			c1.3-0.5,2.9-1,4.6-1.3c1.7-0.4,3.9-0.5,6.4-0.5c2.2,0,4.1,0.2,5.7,0.7c1.6,0.5,2.9,1.4,3.7,2.7c0.9,1.3,1.3,3.2,1.3,5.6v17.1
			h-7.4l-1.4-2.6c-0.3,0.3-0.7,0.6-1.2,1c-0.5,0.3-1,0.6-1.7,0.9c-0.6,0.3-1.4,0.5-2.2,0.7C2089.9,1357.8,2089,1357.9,2087.9,1357.9
			z M2092.8,1351.6c0.2,0,0.3,0,0.5,0s0.4-0.1,0.6-0.1c0.2,0,0.4-0.1,0.6-0.1c0.2,0,0.3-0.1,0.5-0.2s0.2-0.1,0.3-0.1v-4.7l-2,0.3
			c-0.9,0.1-1.6,0.4-2,0.7s-0.7,0.9-0.7,1.6v1c0,0.4,0.1,0.8,0.3,1c0.2,0.3,0.4,0.5,0.8,0.6S2092.4,1351.6,2092.8,1351.6z"/>
		<path class="st7" d="M2118.5,1357.9c-0.9,0-1.9,0-2.8-0.1c-0.9-0.1-1.8-0.2-2.7-0.3c-0.9-0.1-1.7-0.3-2.5-0.5
			c-0.8-0.2-1.5-0.4-2.1-0.7v-5.4h12c0.4,0,0.7,0,0.9-0.1s0.3-0.2,0.4-0.3s0.1-0.3,0.1-0.5v-0.6c0-0.3-0.1-0.6-0.3-0.7
			c-0.2-0.2-0.7-0.3-1.5-0.3h-4.3c-1.4,0-2.8-0.2-4-0.7c-1.2-0.5-2.2-1.3-2.9-2.4c-0.7-1.1-1.1-2.5-1.1-4.4v-1.6
			c0-1.7,0.3-3.1,1-4.2c0.6-1.2,1.8-2.1,3.4-2.7s3.9-0.9,6.9-0.9c1.2,0,2.4,0.1,3.6,0.2c1.2,0.1,2.3,0.3,3.4,0.6
			c1,0.2,1.8,0.5,2.4,0.7v5.4h-11.4c-0.5,0-0.8,0.1-1.1,0.2c-0.2,0.1-0.3,0.4-0.3,0.7v0.6c0,0.3,0.1,0.5,0.2,0.6
			c0.1,0.1,0.3,0.2,0.6,0.3c0.3,0.1,0.7,0.1,1.2,0.1h4.5c2.8,0,4.8,0.6,5.9,1.9c1.1,1.3,1.7,3,1.7,5.2v2.6c0,1.7-0.4,3.1-1.2,4.2
			c-0.8,1.1-2.1,1.8-3.7,2.3C2123.1,1357.7,2121,1357.9,2118.5,1357.9z"/>
	</g>
	<line class="st19" x1="2131" y1="145" x2="73" y2="145"/>
	<g>
		<path class="st7" d="M1216.8,117.5V91l-6.2,2.1v-1l6.3-2.7h1.5v28.2H1216.8z"/>
		<path class="st7" d="M1232.3,117.5c-1.2,0-2.3-0.2-3.3-0.6c-1-0.4-1.8-1.1-2.4-2c-0.6-0.9-0.9-2.1-0.9-3.7V95.8
			c0-1.4,0.3-2.6,0.9-3.5s1.4-1.6,2.4-2.1c1-0.5,2.1-0.7,3.4-0.7h5.2c1.5,0,2.8,0.3,3.7,0.8c1,0.6,1.6,1.3,2.1,2.3
			c0.4,0.9,0.6,2,0.6,3.2v15.5c0,2.3-0.6,3.9-1.8,4.8c-1.2,1-2.8,1.5-4.7,1.5H1232.3z M1232.4,116.1h4.8c1.8,0,3.2-0.5,4-1.3
			c0.8-0.9,1.2-2.1,1.2-3.6V95.8c0-1.6-0.4-2.9-1.3-3.7c-0.8-0.8-2.1-1.3-3.8-1.3h-4.9c-1.6,0-2.9,0.4-3.8,1.3
			c-1,0.9-1.4,2.1-1.4,3.7v15.3c0,1.6,0.5,2.9,1.4,3.7S1230.8,116.1,1232.4,116.1z"/>
	</g>
	<g>
		<path class="st7" d="M1332.4,117.5v-1.3l10.9-10.2c1.2-1.2,2.2-2.2,2.9-3.2c0.7-1,1.2-2,1.5-3c0.3-1,0.4-2.1,0.4-3.3
			c0-1-0.2-2-0.6-2.8c-0.4-0.8-1.1-1.5-2.1-2s-2.5-0.7-4.4-0.7h-7.4v-1.1c1.1-0.1,2.4-0.1,3.7-0.2c1.4-0.1,2.7-0.1,4.1-0.1
			c2.1,0,3.7,0.3,4.9,0.9c1.2,0.6,2.1,1.4,2.6,2.5c0.5,1,0.8,2.2,0.8,3.6c0,1.3-0.2,2.6-0.5,3.7c-0.4,1.1-0.9,2.2-1.7,3.3
			c-0.8,1.1-1.8,2.2-3.1,3.4l-9.8,9.3h16.2v1.5H1332.4z"/>
		<path class="st7" d="M1362.8,117.5c-1.2,0-2.3-0.2-3.3-0.6c-1-0.4-1.8-1.1-2.4-2c-0.6-0.9-0.9-2.1-0.9-3.7V95.8
			c0-1.4,0.3-2.6,0.9-3.5s1.4-1.6,2.4-2.1c1-0.5,2.1-0.7,3.4-0.7h5.2c1.5,0,2.8,0.3,3.7,0.8c1,0.6,1.6,1.3,2.1,2.3
			c0.4,0.9,0.6,2,0.6,3.2v15.5c0,2.3-0.6,3.9-1.8,4.8c-1.2,1-2.8,1.5-4.7,1.5H1362.8z M1363,116.1h4.8c1.8,0,3.2-0.5,4-1.3
			c0.8-0.9,1.2-2.1,1.2-3.6V95.8c0-1.6-0.4-2.9-1.3-3.7c-0.8-0.8-2.1-1.3-3.8-1.3h-4.9c-1.6,0-2.9,0.4-3.8,1.3
			c-1,0.9-1.4,2.1-1.4,3.7v15.3c0,1.6,0.5,2.9,1.4,3.7S1361.4,116.1,1363,116.1z"/>
	</g>
	<g>
		<path class="st7" d="M1467.9,117.7c-2,0-3.9,0-5.5-0.1s-3.1-0.1-4.3-0.2v-1.1h9.4c1.1,0,2.2-0.1,3.1-0.4c0.9-0.3,1.7-0.8,2.3-1.5
			c0.6-0.7,0.9-1.8,0.9-3.2v-2.2c0-1.2-0.3-2.1-0.9-2.8s-1.3-1.2-2.1-1.4c-0.8-0.3-1.7-0.4-2.5-0.5l-7.3-0.3v-1l7.3-0.3
			c1.5-0.1,2.7-0.4,3.7-1c1-0.6,1.4-1.7,1.4-3.2V96c0-1.6-0.5-2.8-1.6-3.7c-1.1-0.9-2.6-1.3-4.6-1.3h-8.1v-1.1
			c1-0.1,2.2-0.2,3.6-0.2s3.1-0.1,4.9-0.1c1.7,0,3.1,0.3,4.1,0.8c1.1,0.6,1.8,1.3,2.4,2.3c0.5,1,0.8,2,0.8,3.2v2.5
			c0,1-0.2,1.8-0.5,2.4s-0.7,1.1-1.2,1.5c-0.5,0.4-1,0.7-1.4,0.9s-0.9,0.3-1.2,0.3c0.4,0.1,0.8,0.2,1.3,0.4c0.5,0.2,1.1,0.6,1.6,1
			s1,1,1.3,1.7c0.4,0.7,0.5,1.5,0.5,2.5v2.3c0,2.1-0.7,3.7-2,4.8S1470.3,117.7,1467.9,117.7z"/>
		<path class="st7" d="M1488.7,117.5c-1.2,0-2.3-0.2-3.3-0.6s-1.8-1.1-2.4-2c-0.6-0.9-0.9-2.1-0.9-3.7V95.8c0-1.4,0.3-2.6,0.9-3.5
			c0.6-0.9,1.4-1.6,2.4-2.1s2.1-0.7,3.4-0.7h5.2c1.5,0,2.8,0.3,3.7,0.8c1,0.6,1.6,1.3,2.1,2.3c0.4,0.9,0.6,2,0.6,3.2v15.5
			c0,2.3-0.6,3.9-1.8,4.8c-1.2,1-2.8,1.5-4.7,1.5H1488.7z M1488.8,116.1h4.8c1.8,0,3.2-0.5,4-1.3c0.8-0.9,1.2-2.1,1.2-3.6V95.8
			c0-1.6-0.4-2.9-1.3-3.7c-0.8-0.8-2.1-1.3-3.8-1.3h-4.9c-1.6,0-2.9,0.4-3.8,1.3c-1,0.9-1.4,2.1-1.4,3.7v15.3c0,1.6,0.5,2.9,1.4,3.7
			C1486,115.7,1487.2,116.1,1488.8,116.1z"/>
	</g>
	<g>
		<path class="st7" d="M1597.6,117.4v-7.7H1584l-0.5-1.1l11.3-19h1.6l-11.2,18.7h12.4v-8.5l0.4-2.2h1.1v10.8h4.3v1.1l-4.3,0.3v7.7
			H1597.6z"/>
		<path class="st7" d="M1614.5,117.5c-1.2,0-2.3-0.2-3.3-0.6c-1-0.4-1.8-1.1-2.4-2c-0.6-0.9-0.9-2.1-0.9-3.7V95.8
			c0-1.4,0.3-2.6,0.9-3.5s1.4-1.6,2.4-2.1c1-0.5,2.1-0.7,3.4-0.7h5.2c1.5,0,2.8,0.3,3.7,0.8c1,0.6,1.6,1.3,2.1,2.3
			c0.4,0.9,0.6,2,0.6,3.2v15.5c0,2.3-0.6,3.9-1.8,4.8c-1.2,1-2.8,1.5-4.7,1.5H1614.5z M1614.7,116.1h4.8c1.8,0,3.2-0.5,4-1.3
			c0.8-0.9,1.2-2.1,1.2-3.6V95.8c0-1.6-0.4-2.9-1.3-3.7c-0.8-0.8-2.1-1.3-3.8-1.3h-4.9c-1.6,0-2.9,0.4-3.8,1.3
			c-1,0.9-1.4,2.1-1.4,3.7v15.3c0,1.6,0.5,2.9,1.4,3.7S1613.1,116.1,1614.7,116.1z"/>
	</g>
	<g>
		<path class="st7" d="M1720.6,117.6c-1.8,0-3.5,0-5.2-0.1c-1.7,0-3.2-0.1-4.4-0.2v-1.1h9.6c1.2,0,2.4-0.2,3.4-0.6
			c1-0.4,1.8-1,2.5-1.8c0.6-0.8,0.9-1.8,0.9-2.9v-3.7c0-1.5-0.5-2.7-1.4-3.6c-1-0.9-2.4-1.3-4.2-1.3h-3.4c-1.3,0-2.4,0.3-3.2,0.9
			c-0.8,0.6-1.4,1.6-1.6,2.9h-1.4l0.8-16.4h15.3V91h-13.9l-0.6,12.3c0.3-0.6,0.8-1.1,1.6-1.7s1.9-0.8,3.3-0.8h3.5
			c1.5,0,2.7,0.3,3.7,0.8c1,0.5,1.8,1.2,2.4,2.2s0.8,2,0.8,3.1v4.1c0,1.4-0.4,2.6-1.1,3.6c-0.7,1-1.7,1.7-3,2.2
			C1723.6,117.4,1722.2,117.6,1720.6,117.6z"/>
		<path class="st7" d="M1741.7,117.5c-1.2,0-2.3-0.2-3.3-0.6s-1.8-1.1-2.4-2c-0.6-0.9-0.9-2.1-0.9-3.7V95.8c0-1.4,0.3-2.6,0.9-3.5
			c0.6-0.9,1.4-1.6,2.4-2.1s2.1-0.7,3.4-0.7h5.2c1.5,0,2.8,0.3,3.7,0.8c1,0.6,1.6,1.3,2.1,2.3c0.4,0.9,0.6,2,0.6,3.2v15.5
			c0,2.3-0.6,3.9-1.8,4.8c-1.2,1-2.8,1.5-4.7,1.5H1741.7z M1741.9,116.1h4.8c1.8,0,3.2-0.5,4-1.3c0.8-0.9,1.2-2.1,1.2-3.6V95.8
			c0-1.6-0.4-2.9-1.3-3.7c-0.8-0.8-2.1-1.3-3.8-1.3h-4.9c-1.6,0-2.9,0.4-3.8,1.3c-1,0.9-1.4,2.1-1.4,3.7v15.3c0,1.6,0.5,2.9,1.4,3.7
			C1739,115.7,1740.3,116.1,1741.9,116.1z"/>
	</g>
	<g>
		<path class="st7" d="M1843.9,117.5c-1.1,0-2.1-0.2-3-0.6c-0.9-0.4-1.7-1.1-2.3-2.2c-0.6-1-1.1-2.5-1.5-4.3
			c-0.4-1.8-0.5-4.2-0.5-7.1c0-2.4,0.2-4.4,0.6-6.2s1.1-3.2,1.9-4.4c0.8-1.2,1.8-2,3-2.6c1.2-0.6,2.5-0.8,4-0.8c1,0,2.1,0,3.4,0.1
			c1.3,0.1,2.5,0.1,3.4,0.2v1.1h-7.1c-2.3,0-4.2,1-5.6,2.9c-1.4,1.9-2.1,4.9-2.1,8.9c0.9-0.1,1.8-0.1,2.9-0.2c1.1,0,2.1-0.1,3.1-0.1
			c1,0,1.8,0,2.4,0c1.6,0,3,0.2,4.2,0.5c1.2,0.3,2.1,0.9,2.8,1.7c0.7,0.8,1,1.9,1,3.4v3.9c0,1.4-0.3,2.6-0.9,3.4
			c-0.6,0.8-1.3,1.5-2.3,1.8c-0.9,0.4-2,0.5-3.1,0.5H1843.9z M1844.1,116.1h4.1c0.9,0,1.7-0.1,2.4-0.3c0.7-0.2,1.3-0.7,1.8-1.3
			s0.7-1.6,0.7-2.8V108c0-1.2-0.3-2.1-0.8-2.8c-0.5-0.6-1.3-1-2.3-1.2c-1-0.2-2.2-0.3-3.6-0.3h-8.3c0,2.5,0.1,4.5,0.4,6.1
			c0.3,1.6,0.7,2.9,1.2,3.8c0.5,0.9,1.1,1.6,1.9,1.9C1842.3,115.9,1843.1,116.1,1844.1,116.1z"/>
		<path class="st7" d="M1867.5,117.5c-1.2,0-2.3-0.2-3.3-0.6s-1.8-1.1-2.4-2c-0.6-0.9-0.9-2.1-0.9-3.7V95.8c0-1.4,0.3-2.6,0.9-3.5
			c0.6-0.9,1.4-1.6,2.4-2.1s2.1-0.7,3.4-0.7h5.2c1.5,0,2.8,0.3,3.7,0.8c1,0.6,1.6,1.3,2.1,2.3c0.4,0.9,0.6,2,0.6,3.2v15.5
			c0,2.3-0.6,3.9-1.8,4.8c-1.2,1-2.8,1.5-4.7,1.5H1867.5z M1867.7,116.1h4.8c1.8,0,3.2-0.5,4-1.3c0.8-0.9,1.2-2.1,1.2-3.6V95.8
			c0-1.6-0.4-2.9-1.3-3.7c-0.8-0.8-2.1-1.3-3.8-1.3h-4.9c-1.6,0-2.9,0.4-3.8,1.3c-1,0.9-1.4,2.1-1.4,3.7v15.3c0,1.6,0.5,2.9,1.4,3.7
			C1864.8,115.7,1866.1,116.1,1867.7,116.1z"/>
	</g>
	<g>
		<path class="st7" d="M1967.4,117.5l10.6-26.3h-15.3v-1.6h16.5l0.7,1.1l-10.7,26.8H1967.4z"/>
		<path class="st7" d="M1991.7,117.5c-1.2,0-2.3-0.2-3.3-0.6s-1.8-1.1-2.4-2c-0.6-0.9-0.9-2.1-0.9-3.7V95.8c0-1.4,0.3-2.6,0.9-3.5
			c0.6-0.9,1.4-1.6,2.4-2.1s2.1-0.7,3.4-0.7h5.2c1.5,0,2.8,0.3,3.7,0.8c1,0.6,1.6,1.3,2.1,2.3c0.4,0.9,0.6,2,0.6,3.2v15.5
			c0,2.3-0.6,3.9-1.8,4.8c-1.2,1-2.8,1.5-4.7,1.5H1991.7z M1991.9,116.1h4.8c1.8,0,3.2-0.5,4-1.3c0.8-0.9,1.2-2.1,1.2-3.6V95.8
			c0-1.6-0.4-2.9-1.3-3.7c-0.8-0.8-2.1-1.3-3.8-1.3h-4.9c-1.6,0-2.9,0.4-3.8,1.3c-1,0.9-1.4,2.1-1.4,3.7v15.3c0,1.6,0.5,2.9,1.4,3.7
			C1989,115.7,1990.3,116.1,1991.9,116.1z"/>
	</g>
	<g>
		<path class="st7" d="M2095.2,117.5c-1,0-1.9-0.1-2.7-0.3c-0.8-0.2-1.5-0.5-2-1c-0.6-0.4-1-1-1.3-1.6c-0.3-0.7-0.4-1.4-0.4-2.3
			v-4.1c0-1,0.2-1.8,0.7-2.5s1-1.2,1.6-1.5c0.6-0.4,1.1-0.6,1.6-0.7c-0.8-0.3-1.5-0.8-1.9-1.3c-0.5-0.5-0.8-1.1-1-1.7
			c-0.2-0.6-0.3-1.3-0.3-1.9v-3.2c0-1.4,0.3-2.5,0.8-3.4c0.5-0.8,1.2-1.5,2.1-1.9c0.9-0.4,1.9-0.6,3-0.6h5.2c1.2,0,2.1,0.2,2.9,0.6
			c0.8,0.4,1.4,1,1.8,1.9c0.4,0.8,0.6,2,0.6,3.4v3.2c0,0.5-0.1,1-0.2,1.4s-0.3,0.9-0.6,1.3c-0.3,0.4-0.6,0.8-1,1.1
			c-0.4,0.3-0.8,0.6-1.3,0.7c0.8,0.2,1.5,0.5,2,0.9c0.5,0.5,0.9,1,1.2,1.7c0.3,0.7,0.4,1.4,0.4,2.2v4.4c0,1.2-0.2,2.2-0.7,2.9
			s-1.2,1.3-2.1,1.7c-0.9,0.4-2,0.6-3.2,0.6H2095.2z M2095.3,116.1h4.8c1.5,0,2.7-0.3,3.4-1c0.8-0.6,1.2-1.6,1.2-2.9v-4.1
			c0-1.5-0.4-2.6-1.1-3.2c-0.7-0.6-2-0.9-3.7-0.9h-4.6c-0.4,0-0.9,0.1-1.5,0.2s-1.1,0.4-1.7,0.7c-0.5,0.3-1,0.7-1.3,1.3
			c-0.4,0.5-0.5,1.2-0.5,2v4.1c0,1.4,0.5,2.4,1.5,3C2092.7,115.8,2093.9,116.1,2095.3,116.1z M2095.3,102.6h4.6c1,0,1.9-0.2,2.5-0.6
			c0.6-0.4,1.1-0.9,1.4-1.6c0.3-0.6,0.4-1.2,0.4-1.8v-3.1c0-1.7-0.3-2.9-1-3.6s-1.7-1.1-3.1-1.1h-4.8c-1.6,0-2.8,0.4-3.5,1.1
			c-0.7,0.8-1,2-1,3.6v3.1c0,1.1,0.4,2,1.1,2.8C2092.6,102.2,2093.7,102.6,2095.3,102.6z"/>
		<path class="st7" d="M2119.9,117.5c-1.2,0-2.3-0.2-3.3-0.6s-1.8-1.1-2.4-2c-0.6-0.9-0.9-2.1-0.9-3.7V95.8c0-1.4,0.3-2.6,0.9-3.5
			c0.6-0.9,1.4-1.6,2.4-2.1s2.1-0.7,3.4-0.7h5.2c1.5,0,2.8,0.3,3.7,0.8c1,0.6,1.6,1.3,2.1,2.3c0.4,0.9,0.6,2,0.6,3.2v15.5
			c0,2.3-0.6,3.9-1.8,4.8c-1.2,1-2.8,1.5-4.7,1.5H2119.9z M2120,116.1h4.8c1.8,0,3.2-0.5,4-1.3c0.8-0.9,1.2-2.1,1.2-3.6V95.8
			c0-1.6-0.4-2.9-1.3-3.7c-0.8-0.8-2.1-1.3-3.8-1.3h-4.9c-1.6,0-2.9,0.4-3.8,1.3c-1,0.9-1.4,2.1-1.4,3.7v15.3c0,1.6,0.5,2.9,1.4,3.7
			C2117.1,115.7,2118.4,116.1,2120,116.1z"/>
	</g>
	<g>
		<path class="st7" d="M79.2,117.5c-1,0-1.9-0.1-2.7-0.3c-0.8-0.2-1.5-0.5-2-1c-0.6-0.4-1-1-1.3-1.6c-0.3-0.7-0.4-1.4-0.4-2.3v-4.1
			c0-1,0.2-1.8,0.7-2.5c0.4-0.7,1-1.2,1.6-1.5c0.6-0.4,1.1-0.6,1.6-0.7c-0.8-0.3-1.5-0.8-1.9-1.3c-0.5-0.5-0.8-1.1-1-1.7
			c-0.2-0.6-0.3-1.3-0.3-1.9v-3.2c0-1.4,0.3-2.5,0.8-3.4c0.5-0.8,1.2-1.5,2.1-1.9c0.9-0.4,1.9-0.6,3-0.6h5.2c1.2,0,2.1,0.2,2.9,0.6
			c0.8,0.4,1.4,1,1.8,1.9c0.4,0.8,0.6,2,0.6,3.4v3.2c0,0.5-0.1,1-0.2,1.4c-0.1,0.5-0.3,0.9-0.6,1.3s-0.6,0.8-1,1.1
			c-0.4,0.3-0.8,0.6-1.3,0.7c0.8,0.2,1.5,0.5,2,0.9c0.5,0.5,0.9,1,1.2,1.7c0.3,0.7,0.4,1.4,0.4,2.2v4.4c0,1.2-0.2,2.2-0.7,2.9
			c-0.5,0.8-1.2,1.3-2.1,1.7c-0.9,0.4-2,0.6-3.2,0.6H79.2z M79.3,116.1h4.8c1.5,0,2.7-0.3,3.4-1c0.8-0.6,1.2-1.6,1.2-2.9v-4.1
			c0-1.5-0.4-2.6-1.1-3.2c-0.7-0.6-2-0.9-3.7-0.9h-4.6c-0.4,0-0.9,0.1-1.5,0.2c-0.6,0.1-1.1,0.4-1.7,0.7c-0.5,0.3-1,0.7-1.3,1.3
			c-0.4,0.5-0.5,1.2-0.5,2v4.1c0,1.4,0.5,2.4,1.5,3C76.7,115.8,77.9,116.1,79.3,116.1z M79.3,102.6h4.6c1,0,1.9-0.2,2.5-0.6
			c0.6-0.4,1.1-0.9,1.4-1.6c0.3-0.6,0.4-1.2,0.4-1.8v-3.1c0-1.7-0.3-2.9-1-3.6c-0.7-0.7-1.7-1.1-3.1-1.1h-4.8
			c-1.6,0-2.8,0.4-3.5,1.1c-0.7,0.8-1,2-1,3.6v3.1c0,1.1,0.4,2,1.1,2.8C76.6,102.2,77.7,102.6,79.3,102.6z"/>
		<path class="st7" d="M103.9,117.5c-1.2,0-2.3-0.2-3.3-0.6c-1-0.4-1.8-1.1-2.4-2s-0.9-2.1-0.9-3.7V95.8c0-1.4,0.3-2.6,0.9-3.5
			c0.6-0.9,1.4-1.6,2.4-2.1c1-0.5,2.1-0.7,3.4-0.7h5.2c1.5,0,2.8,0.3,3.7,0.8c1,0.6,1.6,1.3,2.1,2.3c0.4,0.9,0.6,2,0.6,3.2v15.5
			c0,2.3-0.6,3.9-1.8,4.8c-1.2,1-2.8,1.5-4.7,1.5H103.9z M104,116.1h4.8c1.8,0,3.2-0.5,4-1.3c0.8-0.9,1.2-2.1,1.2-3.6V95.8
			c0-1.6-0.4-2.9-1.3-3.7c-0.8-0.8-2.1-1.3-3.8-1.3H104c-1.6,0-2.9,0.4-3.8,1.3c-1,0.9-1.4,2.1-1.4,3.7v15.3c0,1.6,0.5,2.9,1.4,3.7
			C101.1,115.7,102.4,116.1,104,116.1z"/>
	</g>
	<g>
		<path class="st7" d="M203.4,117.5L214,91.2h-15.3v-1.6h16.5l0.7,1.1l-10.7,26.8H203.4z"/>
		<path class="st7" d="M227.7,117.5c-1.2,0-2.3-0.2-3.3-0.6c-1-0.4-1.8-1.1-2.4-2s-0.9-2.1-0.9-3.7V95.8c0-1.4,0.3-2.6,0.9-3.5
			c0.6-0.9,1.4-1.6,2.4-2.1c1-0.5,2.1-0.7,3.4-0.7h5.2c1.5,0,2.8,0.3,3.7,0.8c1,0.6,1.6,1.3,2.1,2.3c0.4,0.9,0.6,2,0.6,3.2v15.5
			c0,2.3-0.6,3.9-1.8,4.8c-1.2,1-2.8,1.5-4.7,1.5H227.7z M227.9,116.1h4.8c1.8,0,3.2-0.5,4-1.3c0.8-0.9,1.2-2.1,1.2-3.6V95.8
			c0-1.6-0.4-2.9-1.3-3.7c-0.8-0.8-2.1-1.3-3.8-1.3h-4.9c-1.6,0-2.9,0.4-3.8,1.3c-1,0.9-1.4,2.1-1.4,3.7v15.3c0,1.6,0.5,2.9,1.4,3.7
			C225,115.7,226.3,116.1,227.9,116.1z"/>
	</g>
	<g>
		<path class="st7" d="M331.9,117.5c-1.1,0-2.1-0.2-3-0.6c-0.9-0.4-1.7-1.1-2.3-2.2c-0.6-1-1.1-2.5-1.5-4.3
			c-0.4-1.8-0.5-4.2-0.5-7.1c0-2.4,0.2-4.4,0.6-6.2s1.1-3.2,1.9-4.4c0.8-1.2,1.8-2,3-2.6c1.2-0.6,2.5-0.8,4-0.8c1,0,2.1,0,3.4,0.1
			c1.3,0.1,2.5,0.1,3.4,0.2v1.1h-7.1c-2.3,0-4.2,1-5.6,2.9c-1.4,1.9-2.1,4.9-2.1,8.9c0.9-0.1,1.8-0.1,2.9-0.2c1.1,0,2.1-0.1,3.1-0.1
			c1,0,1.8,0,2.4,0c1.6,0,3,0.2,4.2,0.5c1.2,0.3,2.1,0.9,2.8,1.7c0.7,0.8,1,1.9,1,3.4v3.9c0,1.4-0.3,2.6-0.9,3.4
			c-0.6,0.8-1.3,1.5-2.3,1.8c-0.9,0.4-2,0.5-3.1,0.5H331.9z M332.1,116.1h4.1c0.9,0,1.7-0.1,2.4-0.3c0.7-0.2,1.3-0.7,1.8-1.3
			s0.7-1.6,0.7-2.8V108c0-1.2-0.3-2.1-0.8-2.8c-0.5-0.6-1.3-1-2.3-1.2c-1-0.2-2.2-0.3-3.6-0.3h-8.3c0,2.5,0.1,4.5,0.4,6.1
			c0.3,1.6,0.7,2.9,1.2,3.8c0.5,0.9,1.1,1.6,1.9,1.9C330.3,115.9,331.1,116.1,332.1,116.1z"/>
		<path class="st7" d="M355.5,117.5c-1.2,0-2.3-0.2-3.3-0.6c-1-0.4-1.8-1.1-2.4-2s-0.9-2.1-0.9-3.7V95.8c0-1.4,0.3-2.6,0.9-3.5
			c0.6-0.9,1.4-1.6,2.4-2.1c1-0.5,2.1-0.7,3.4-0.7h5.2c1.5,0,2.8,0.3,3.7,0.8c1,0.6,1.6,1.3,2.1,2.3c0.4,0.9,0.6,2,0.6,3.2v15.5
			c0,2.3-0.6,3.9-1.8,4.8c-1.2,1-2.8,1.5-4.7,1.5H355.5z M355.7,116.1h4.8c1.8,0,3.2-0.5,4-1.3c0.8-0.9,1.2-2.1,1.2-3.6V95.8
			c0-1.6-0.4-2.9-1.3-3.7c-0.8-0.8-2.1-1.3-3.8-1.3h-4.9c-1.6,0-2.9,0.4-3.8,1.3c-1,0.9-1.4,2.1-1.4,3.7v15.3c0,1.6,0.5,2.9,1.4,3.7
			C352.8,115.7,354.1,116.1,355.7,116.1z"/>
	</g>
	<g>
		<path class="st7" d="M460.6,117.6c-1.8,0-3.5,0-5.2-0.1c-1.7,0-3.2-0.1-4.4-0.2v-1.1h9.6c1.2,0,2.4-0.2,3.4-0.6
			c1-0.4,1.8-1,2.5-1.8c0.6-0.8,0.9-1.8,0.9-2.9v-3.7c0-1.5-0.5-2.7-1.4-3.6c-1-0.9-2.4-1.3-4.2-1.3h-3.4c-1.3,0-2.4,0.3-3.2,0.9
			c-0.8,0.6-1.4,1.6-1.6,2.9H452l0.8-16.4H468V91h-13.9l-0.6,12.3c0.3-0.6,0.8-1.1,1.6-1.7s1.9-0.8,3.3-0.8h3.5
			c1.5,0,2.7,0.3,3.7,0.8c1,0.5,1.8,1.2,2.4,2.2c0.5,0.9,0.8,2,0.8,3.1v4.1c0,1.4-0.4,2.6-1.1,3.6c-0.7,1-1.7,1.7-3,2.2
			C463.6,117.4,462.2,117.6,460.6,117.6z"/>
		<path class="st7" d="M481.7,117.5c-1.2,0-2.3-0.2-3.3-0.6c-1-0.4-1.8-1.1-2.4-2s-0.9-2.1-0.9-3.7V95.8c0-1.4,0.3-2.6,0.9-3.5
			c0.6-0.9,1.4-1.6,2.4-2.1c1-0.5,2.1-0.7,3.4-0.7h5.2c1.5,0,2.8,0.3,3.7,0.8c1,0.6,1.6,1.3,2.1,2.3c0.4,0.9,0.6,2,0.6,3.2v15.5
			c0,2.3-0.6,3.9-1.8,4.8c-1.2,1-2.8,1.5-4.7,1.5H481.7z M481.9,116.1h4.8c1.8,0,3.2-0.5,4-1.3c0.8-0.9,1.2-2.1,1.2-3.6V95.8
			c0-1.6-0.4-2.9-1.3-3.7c-0.8-0.8-2.1-1.3-3.8-1.3h-4.9c-1.6,0-2.9,0.4-3.8,1.3c-1,0.9-1.4,2.1-1.4,3.7v15.3c0,1.6,0.5,2.9,1.4,3.7
			C479,115.7,480.3,116.1,481.9,116.1z"/>
	</g>
	<g>
		<path class="st7" d="M589.6,117.4v-7.7H576l-0.5-1.1l11.3-19h1.6l-11.2,18.7h12.4v-8.5l0.4-2.2h1.1v10.8h4.3v1.1l-4.3,0.3v7.7
			H589.6z"/>
		<path class="st7" d="M606.5,117.5c-1.2,0-2.3-0.2-3.3-0.6c-1-0.4-1.8-1.1-2.4-2s-0.9-2.1-0.9-3.7V95.8c0-1.4,0.3-2.6,0.9-3.5
			c0.6-0.9,1.4-1.6,2.4-2.1c1-0.5,2.1-0.7,3.4-0.7h5.2c1.5,0,2.8,0.3,3.7,0.8c1,0.6,1.6,1.3,2.1,2.3c0.4,0.9,0.6,2,0.6,3.2v15.5
			c0,2.3-0.6,3.9-1.8,4.8c-1.2,1-2.8,1.5-4.7,1.5H606.5z M606.7,116.1h4.8c1.8,0,3.2-0.5,4-1.3c0.8-0.9,1.2-2.1,1.2-3.6V95.8
			c0-1.6-0.4-2.9-1.3-3.7c-0.8-0.8-2.1-1.3-3.8-1.3h-4.9c-1.6,0-2.9,0.4-3.8,1.3c-1,0.9-1.4,2.1-1.4,3.7v15.3c0,1.6,0.5,2.9,1.4,3.7
			C603.8,115.7,605.1,116.1,606.7,116.1z"/>
	</g>
	<g>
		<path class="st7" d="M711.9,117.7c-2,0-3.9,0-5.5-0.1s-3.1-0.1-4.3-0.2v-1.1h9.4c1.1,0,2.2-0.1,3.1-0.4c0.9-0.3,1.7-0.8,2.3-1.5
			c0.6-0.7,0.9-1.8,0.9-3.2v-2.2c0-1.2-0.3-2.1-0.9-2.8c-0.6-0.7-1.3-1.2-2.1-1.4c-0.8-0.3-1.7-0.4-2.5-0.5l-7.3-0.3v-1l7.3-0.3
			c1.5-0.1,2.7-0.4,3.7-1c1-0.6,1.4-1.7,1.4-3.2V96c0-1.6-0.5-2.8-1.6-3.7c-1.1-0.9-2.6-1.3-4.6-1.3h-8.1v-1.1
			c1-0.1,2.2-0.2,3.6-0.2c1.4-0.1,3.1-0.1,4.9-0.1c1.7,0,3.1,0.3,4.1,0.8c1.1,0.6,1.8,1.3,2.4,2.3c0.5,1,0.8,2,0.8,3.2v2.5
			c0,1-0.2,1.8-0.5,2.4c-0.3,0.6-0.7,1.1-1.2,1.5c-0.5,0.4-1,0.7-1.4,0.9c-0.5,0.2-0.9,0.3-1.2,0.3c0.4,0.1,0.8,0.2,1.3,0.4
			c0.5,0.2,1.1,0.6,1.6,1c0.5,0.4,1,1,1.3,1.7c0.4,0.7,0.5,1.5,0.5,2.5v2.3c0,2.1-0.7,3.7-2,4.8S714.3,117.7,711.9,117.7z"/>
		<path class="st7" d="M732.7,117.5c-1.2,0-2.3-0.2-3.3-0.6c-1-0.4-1.8-1.1-2.4-2s-0.9-2.1-0.9-3.7V95.8c0-1.4,0.3-2.6,0.9-3.5
			c0.6-0.9,1.4-1.6,2.4-2.1c1-0.5,2.1-0.7,3.4-0.7h5.2c1.5,0,2.8,0.3,3.7,0.8c1,0.6,1.6,1.3,2.1,2.3c0.4,0.9,0.6,2,0.6,3.2v15.5
			c0,2.3-0.6,3.9-1.8,4.8c-1.2,1-2.8,1.5-4.7,1.5H732.7z M732.8,116.1h4.8c1.8,0,3.2-0.5,4-1.3c0.8-0.9,1.2-2.1,1.2-3.6V95.8
			c0-1.6-0.4-2.9-1.3-3.7c-0.8-0.8-2.1-1.3-3.8-1.3h-4.9c-1.6,0-2.9,0.4-3.8,1.3c-1,0.9-1.4,2.1-1.4,3.7v15.3c0,1.6,0.5,2.9,1.4,3.7
			C730,115.7,731.2,116.1,732.8,116.1z"/>
	</g>
	<g>
		<path class="st7" d="M828.4,117.5v-1.3l10.9-10.2c1.2-1.2,2.2-2.2,2.9-3.2c0.7-1,1.2-2,1.5-3c0.3-1,0.4-2.1,0.4-3.3
			c0-1-0.2-2-0.6-2.8c-0.4-0.8-1.1-1.5-2.1-2c-1-0.5-2.5-0.7-4.4-0.7h-7.4v-1.1c1.1-0.1,2.4-0.1,3.7-0.2c1.4-0.1,2.7-0.1,4.1-0.1
			c2.1,0,3.7,0.3,4.9,0.9c1.2,0.6,2.1,1.4,2.6,2.5c0.5,1,0.8,2.2,0.8,3.6c0,1.3-0.2,2.6-0.5,3.7c-0.4,1.1-0.9,2.2-1.7,3.3
			c-0.8,1.1-1.8,2.2-3.1,3.4l-9.8,9.3h16.2v1.5H828.4z"/>
		<path class="st7" d="M858.8,117.5c-1.2,0-2.3-0.2-3.3-0.6c-1-0.4-1.8-1.1-2.4-2s-0.9-2.1-0.9-3.7V95.8c0-1.4,0.3-2.6,0.9-3.5
			c0.6-0.9,1.4-1.6,2.4-2.1c1-0.5,2.1-0.7,3.4-0.7h5.2c1.5,0,2.8,0.3,3.7,0.8c1,0.6,1.6,1.3,2.1,2.3c0.4,0.9,0.6,2,0.6,3.2v15.5
			c0,2.3-0.6,3.9-1.8,4.8c-1.2,1-2.8,1.5-4.7,1.5H858.8z M859,116.1h4.8c1.8,0,3.2-0.5,4-1.3c0.8-0.9,1.2-2.1,1.2-3.6V95.8
			c0-1.6-0.4-2.9-1.3-3.7c-0.8-0.8-2.1-1.3-3.8-1.3H859c-1.6,0-2.9,0.4-3.8,1.3c-1,0.9-1.4,2.1-1.4,3.7v15.3c0,1.6,0.5,2.9,1.4,3.7
			C856.1,115.7,857.4,116.1,859,116.1z"/>
	</g>
	<g>
		<path class="st7" d="M964.8,117.5V91l-6.2,2.1v-1l6.3-2.7h1.5v28.2H964.8z"/>
		<path class="st7" d="M980.3,117.5c-1.2,0-2.3-0.2-3.3-0.6c-1-0.4-1.8-1.1-2.4-2s-0.9-2.1-0.9-3.7V95.8c0-1.4,0.3-2.6,0.9-3.5
			c0.6-0.9,1.4-1.6,2.4-2.1c1-0.5,2.1-0.7,3.4-0.7h5.2c1.5,0,2.8,0.3,3.7,0.8c1,0.6,1.6,1.3,2.1,2.3c0.4,0.9,0.6,2,0.6,3.2v15.5
			c0,2.3-0.6,3.9-1.8,4.8c-1.2,1-2.8,1.5-4.7,1.5H980.3z M980.4,116.1h4.8c1.8,0,3.2-0.5,4-1.3c0.8-0.9,1.2-2.1,1.2-3.6V95.8
			c0-1.6-0.4-2.9-1.3-3.7c-0.8-0.8-2.1-1.3-3.8-1.3h-4.9c-1.6,0-2.9,0.4-3.8,1.3c-1,0.9-1.4,2.1-1.4,3.7v15.3c0,1.6,0.5,2.9,1.4,3.7
			C977.5,115.7,978.8,116.1,980.4,116.1z"/>
	</g>
</g>
<g id="Layer_2">
</g>
</svg>
