<?xml version="1.0" encoding="utf-8"?>
<!-- Generator: Adobe Illustrator 25.2.3, SVG Export Plug-In . SVG Version: 6.00 Build 0)  -->
<svg version="1.1" xmlns="http://www.w3.org/2000/svg" xmlns:xlink="http://www.w3.org/1999/xlink" x="0px" y="0px"
	 viewBox="0 0 1600 900" style="enable-background:new 0 0 1600 900;" xml:space="preserve">
<style type="text/css">
	.st0{fill:#D695C0;}
	.st1{fill:#E34D99;}
	.st2{fill:#76BF60;}
	.st3{fill:#EC8231;}
	.st4{fill:#489B91;}
	.st5{fill:none;stroke:#442856;stroke-linecap:round;stroke-miterlimit:10;}
	.st6{fill:#BEA3CC;}
	.st7{fill:#442856;}
	.st8{fill:#785089;}
	.st9{fill:none;stroke:#442856;stroke-width:15;stroke-miterlimit:10;}
	.st10{fill:none;stroke:#BEA3CC;stroke-width:15;stroke-linecap:round;stroke-miterlimit:10;stroke-dasharray:12,21;}
	.st11{clip-path:url(#SVGID_2_);}
	.st12{fill:none;stroke:#D695C0;stroke-width:16;stroke-miterlimit:10;}
	.st13{fill:none;stroke:#785089;stroke-width:15;stroke-linecap:round;stroke-miterlimit:10;}
	.st14{fill:#C7E2C0;}
	.st15{fill:#9BD2CA;}
	.st16{fill:#FBC089;}
	.st17{fill:#E9A6C9;}
	.st18{fill:#F0CEE2;}
	.st19{fill:none;stroke:#442856;stroke-width:15;stroke-linecap:round;stroke-miterlimit:10;}
</style>
<g id="Layer_1">
	<path class="st6" d="M417.6,711.2c-0.1,0-0.1,0-0.2,0c-4.1-0.1-8.2-0.3-12.3-0.6c-4.1-0.3-7.3-3.8-7-8s3.8-7.3,8-7
		c3.9,0.2,7.8,0.4,11.7,0.5c4.1,0.1,7.4,3.6,7.3,7.7C425,708,421.7,711.2,417.6,711.2z M438.6,711c-4,0-7.3-3.2-7.5-7.2
		c-0.2-4.1,3-7.6,7.2-7.8c3.9-0.2,7.8-0.4,11.7-0.7c4.1-0.3,7.7,2.7,8.1,6.9c0.3,4.1-2.7,7.7-6.9,8.1c-4,0.3-8.2,0.6-12.3,0.8
		C438.8,711,438.7,711,438.6,711z M384.7,708.6c-0.3,0-0.6,0-1-0.1c-4.1-0.5-8.2-1.1-12.1-1.8c-4.1-0.7-6.8-4.6-6.1-8.6
		c0.7-4.1,4.5-6.8,8.6-6.1c3.8,0.6,7.7,1.2,11.6,1.7c4.1,0.5,7,4.3,6.5,8.4C391.7,705.9,388.5,708.6,384.7,708.6z M471.5,707.8
		c-3.6,0-6.8-2.6-7.4-6.4c-0.6-4.1,2.2-7.9,6.3-8.6c3.9-0.6,7.7-1.3,11.5-2c4.1-0.8,8,1.8,8.8,5.9c0.8,4.1-1.8,8-5.9,8.8
		c-4,0.8-8.1,1.5-12.1,2.2C472.2,707.8,471.9,707.8,471.5,707.8z M352.3,702.7c-0.6,0-1.2-0.1-1.8-0.2c-4-1-8-2-11.9-3.1
		c-4-1.1-6.3-5.3-5.2-9.3s5.3-6.3,9.3-5.2c3.7,1.1,7.5,2,11.3,3c4,1,6.5,5,5.5,9C358.8,700.4,355.7,702.7,352.3,702.7z M503.7,700.8
		c-3.2,0-6.2-2.1-7.2-5.4c-1.2-4,1.1-8.1,5.1-9.3c3.7-1.1,7.5-2.3,11.1-3.5c3.9-1.4,8.2,0.7,9.6,4.6c1.4,3.9-0.7,8.2-4.6,9.6
		c-3.8,1.3-7.8,2.6-11.8,3.8C505.1,700.7,504.4,700.8,503.7,700.8z M320.7,693.1c-0.9,0-1.7-0.2-2.6-0.5c-3.9-1.4-7.8-3-11.5-4.6
		c-3.8-1.6-5.6-6-4-9.8c1.6-3.8,6-5.6,9.8-4c3.5,1.5,7.1,2.9,10.8,4.3c3.9,1.4,5.9,5.8,4.4,9.6C326.7,691.2,323.8,693.1,320.7,693.1
		z M534.6,689.2c-2.8,0-5.5-1.6-6.8-4.3c-1.8-3.8-0.1-8.2,3.6-10c3.5-1.6,7-3.4,10.3-5.2c3.6-2,8.2-0.7,10.2,3c2,3.6,0.7,8.2-3,10.2
		c-3.6,2-7.3,3.9-11.1,5.7C536.7,689,535.6,689.2,534.6,689.2z M290.7,679.5c-1.2,0-2.4-0.3-3.6-0.9c-3.7-2-7.3-4.1-10.8-6.3
		c-3.5-2.2-4.6-6.8-2.3-10.3c2.2-3.5,6.8-4.6,10.3-2.3c3.2,2,6.5,4,9.9,5.8c3.6,2,5,6.5,3,10.2C295.9,678.1,293.3,679.5,290.7,679.5
		z M563,672.5c-2.3,0-4.6-1.1-6.1-3.1c-2.4-3.4-1.7-8,1.7-10.5c3.1-2.3,6.1-4.6,9-7.1c3.1-2.7,7.9-2.3,10.6,0.8
		c2.7,3.1,2.3,7.9-0.8,10.6c-3.1,2.7-6.5,5.3-9.9,7.8C566.1,672.1,564.5,672.5,563,672.5z M263.3,661.2c-1.7,0-3.4-0.6-4.8-1.7
		c-3.3-2.7-6.5-5.6-9.4-8.5c-3-2.9-3-7.7-0.1-10.6s7.7-3,10.6-0.1c2.6,2.6,5.5,5.1,8.4,7.6c3.2,2.6,3.6,7.4,1,10.6
		C267.6,660.3,265.5,661.2,263.3,661.2z M240.8,637.2c-2.4,0-4.7-1.1-6.1-3.2c-1.5-2.1-2.9-4.3-4.2-6.5c-0.9-1.4-1.7-2.9-2.5-4.3
		c-2-3.6-0.8-8.2,2.8-10.2c3.6-2,8.2-0.8,10.2,2.8c0.7,1.3,1.5,2.6,2.3,4c1.1,1.9,2.4,3.8,3.6,5.6c2.4,3.4,1.6,8.1-1.8,10.4
		C243.8,636.8,242.3,637.2,240.8,637.2z M225.2,608.2c-2.9,0-5.7-1.7-6.9-4.6c-1.6-3.8-3.1-7.7-4.5-11.6c-1.4-3.9,0.6-8.2,4.6-9.6
		c3.9-1.4,8.2,0.6,9.6,4.6c1.3,3.7,2.7,7.3,4.2,10.8c1.6,3.8-0.2,8.2-4,9.8C227.2,608,226.2,608.2,225.2,608.2z M214.8,577
		c-3.4,0-6.4-2.3-7.3-5.7c-1-3.9-1.9-8-2.7-12c-0.8-4.1,1.8-8,5.9-8.8c4.1-0.8,8,1.8,8.8,5.9c0.8,3.9,1.7,7.7,2.6,11.4
		c1,4-1.4,8.1-5.4,9.1C216,576.9,215.4,577,214.8,577z M208.7,544.5c-3.7,0-6.9-2.8-7.4-6.5c-0.5-4-1-8.1-1.4-12.2
		c-0.4-4.1,2.6-7.8,6.8-8.2c4.1-0.4,7.8,2.6,8.2,6.8c0.4,4,0.8,7.9,1.3,11.7c0.5,4.1-2.4,7.9-6.5,8.4
		C209.3,544.5,209,544.5,208.7,544.5z M205.9,511.7c-4,0-7.3-3.1-7.5-7.2c-0.2-3.9-0.3-8-0.4-12.2c-0.1-4.1,3.2-7.6,7.3-7.7
		c0.1,0,0.1,0,0.2,0c4.1,0,7.4,3.3,7.5,7.3c0.1,4.1,0.2,8,0.4,11.8c0.2,4.1-3,7.6-7.2,7.8C206.1,511.7,206,511.7,205.9,511.7z
		 M205.4,478.7C205.4,478.7,205.4,478.7,205.4,478.7c-4.2,0-7.5-3.4-7.5-7.6c0-4.1,0.1-8.1,0.2-12.1c0.1-4.1,3.4-7.4,7.5-7.4
		c0,0,0.1,0,0.1,0c4.1,0.1,7.4,3.5,7.4,7.6c-0.1,3.9-0.1,7.9-0.1,11.9C212.9,475.4,209.5,478.7,205.4,478.7z M206,445.7
		c0,0-0.1,0-0.1,0c-4.1-0.1-7.4-3.5-7.4-7.6c0.1-4.1,0.1-8,0.2-11.9c0-4.1,3.4-7.4,7.5-7.4c0,0,0.1,0,0.1,0c4.1,0,7.5,3.4,7.4,7.6
		c0,3.9-0.1,8-0.2,12.1C213.4,442.4,210.1,445.7,206,445.7z"/>
	<path class="st6" d="M1403.8,429.9C1403.8,429.9,1403.8,429.9,1403.8,429.9c-4.2,0-7.5-3.4-7.5-7.6c0-3.9,0.1-8,0.2-12.1
		c0.1-4.1,3.5-7.5,7.6-7.4c4.1,0.1,7.4,3.5,7.4,7.6c-0.1,4.1-0.1,8-0.2,11.9C1411.3,426.6,1407.9,429.9,1403.8,429.9z M1404.4,396.9
		c0,0-0.1,0-0.1,0c-4.1-0.1-7.4-3.5-7.4-7.6c0.1-3.9,0.1-7.9,0.1-11.9c0-4.1,3.4-7.4,7.5-7.4c0,0,0,0,0.1,0c4.1,0,7.5,3.4,7.4,7.6
		c0,4.1-0.1,8.1-0.2,12.1C1411.9,393.6,1408.5,396.9,1404.4,396.9z M1404.5,363.9c-4.1,0-7.4-3.3-7.5-7.3c-0.1-4.1-0.2-8-0.4-11.8
		c-0.2-4.1,3-7.6,7.2-7.8c4.1-0.2,7.6,3,7.8,7.2c0.2,3.9,0.3,8,0.4,12.2c0.1,4.1-3.2,7.6-7.3,7.7
		C1404.6,363.9,1404.5,363.9,1404.5,363.9z M1402.6,331c-3.8,0-7.1-2.9-7.5-6.8c-0.4-4-0.8-7.9-1.3-11.7c-0.5-4.1,2.4-7.9,6.5-8.4
		c4.1-0.5,7.9,2.4,8.4,6.5c0.5,4,1,8.1,1.4,12.2c0.4,4.1-2.6,7.8-6.8,8.2C1403.1,331,1402.9,331,1402.6,331z M1397.9,298.3
		c-3.5,0-6.6-2.5-7.3-6c-0.8-3.9-1.7-7.7-2.6-11.4c-1-4,1.4-8.1,5.4-9.1c4-1,8.1,1.4,9.1,5.4c1,3.9,1.9,8,2.7,12
		c0.8,4.1-1.8,8-5.9,8.8C1398.9,298.3,1398.4,298.3,1397.9,298.3z M1389.2,266.6c-3.1,0-6-1.9-7.1-5c-1.3-3.7-2.7-7.3-4.2-10.8
		c-1.6-3.8,0.2-8.2,4-9.8c3.8-1.6,8.2,0.2,9.8,4c1.6,3.8,3.1,7.7,4.5,11.6c1.4,3.9-0.6,8.2-4.6,9.6
		C1390.8,266.4,1390,266.6,1389.2,266.6z M1375.6,236.6c-2.6,0-5.2-1.4-6.5-3.8c-0.8-1.3-1.5-2.6-2.3-4c-1.1-1.9-2.4-3.8-3.6-5.6
		c-2.4-3.4-1.6-8.1,1.8-10.4c3.4-2.4,8.1-1.6,10.4,1.8c1.5,2.1,2.9,4.3,4.2,6.5c0.9,1.4,1.7,2.9,2.5,4.3c2,3.6,0.8,8.2-2.8,10.2
		C1378.1,236.2,1376.8,236.6,1375.6,236.6z M1355.6,210.4c-1.9,0-3.8-0.7-5.3-2.2c-2.6-2.6-5.5-5.1-8.4-7.6c-3.2-2.6-3.6-7.4-1-10.6
		c2.6-3.2,7.4-3.6,10.6-1c3.3,2.7,6.5,5.6,9.4,8.5c3,2.9,3,7.7,0.1,10.6C1359.5,209.7,1357.5,210.4,1355.6,210.4z M1037.6,198.5
		c-2.1,0-4.2-0.9-5.7-2.6c-2.7-3.1-2.3-7.9,0.8-10.6c3.1-2.7,6.5-5.3,9.9-7.8c3.4-2.4,8-1.7,10.5,1.7c2.4,3.3,1.7,8-1.7,10.5
		c-3.1,2.3-6.1,4.6-9,7.1C1041,197.9,1039.3,198.5,1037.6,198.5z M1329.6,190.1c-1.4,0-2.8-0.4-4-1.2c-3.2-2-6.5-4-9.9-5.8
		c-3.6-2-5-6.5-3-10.2s6.5-5,10.2-3c3.7,2,7.3,4.1,10.8,6.3c3.5,2.2,4.6,6.8,2.3,10.3C1334.6,188.9,1332.1,190.1,1329.6,190.1z
		 M1064.7,179.8c-2.6,0-5.2-1.4-6.6-3.9c-2-3.6-0.7-8.2,3-10.2c3.6-2,7.3-3.9,11.1-5.7c3.7-1.8,8.2-0.1,10,3.6s0.1,8.2-3.6,10
		c-3.5,1.6-7,3.4-10.3,5.2C1067.2,179.5,1066,179.8,1064.7,179.8z M1300.4,174.9c-1,0-2-0.2-2.9-0.6c-3.5-1.5-7.1-2.9-10.8-4.3
		c-3.9-1.4-5.9-5.8-4.4-9.6c1.4-3.9,5.8-5.9,9.6-4.4c3.9,1.4,7.8,3,11.5,4.6c3.8,1.6,5.6,6,3.9,9.8
		C1306.1,173.2,1303.3,174.9,1300.4,174.9z M1094.9,166.5c-3.1,0-6-1.9-7.1-5c-1.4-3.9,0.7-8.2,4.6-9.6c3.8-1.3,7.8-2.6,11.8-3.8
		c4-1.2,8.1,1.1,9.3,5.1c1.2,4-1.1,8.1-5.1,9.3c-3.7,1.1-7.5,2.3-11.1,3.5C1096.5,166.4,1095.7,166.5,1094.9,166.5z M1269.3,164
		c-0.7,0-1.4-0.1-2.1-0.3c-3.7-1.1-7.5-2.1-11.3-3c-4-1-6.5-5-5.5-9c1-4,5-6.5,9-5.5c4,1,8,2,11.9,3.1c4,1.1,6.3,5.3,5.2,9.3
		C1275.6,161.8,1272.6,164,1269.3,164z M1126.7,157.9c-3.5,0-6.6-2.5-7.3-6c-0.8-4.1,1.8-8,5.9-8.8c4-0.8,8.1-1.5,12.1-2.2
		c4.1-0.6,7.9,2.2,8.6,6.3s-2.2,7.9-6.3,8.6c-3.9,0.6-7.7,1.3-11.5,2C1127.7,157.8,1127.2,157.9,1126.7,157.9z M1237.1,156.7
		c-0.4,0-0.8,0-1.3-0.1c-3.8-0.6-7.7-1.2-11.6-1.7c-4.1-0.5-7-4.3-6.5-8.4c0.5-4.1,4.3-7,8.4-6.5c4.1,0.5,8.1,1.1,12.1,1.8
		c4.1,0.7,6.8,4.6,6.1,8.6C1243.9,154.1,1240.7,156.7,1237.1,156.7z M1159.4,153.3c-3.9,0-7.2-3-7.5-6.9c-0.3-4.1,2.7-7.7,6.9-8.1
		c4.1-0.3,8.2-0.6,12.3-0.7c4.1-0.2,7.6,3,7.8,7.2c0.2,4.1-3,7.6-7.2,7.8c-3.9,0.2-7.8,0.4-11.7,0.7
		C1159.8,153.3,1159.6,153.3,1159.4,153.3z M1204.4,153c-0.2,0-0.3,0-0.5,0c-3.9-0.2-7.8-0.4-11.7-0.5c-4.1-0.1-7.4-3.6-7.3-7.7
		c0.1-4.1,3.5-7.4,7.7-7.3c4.1,0.1,8.2,0.3,12.3,0.5c4.1,0.3,7.3,3.8,7,8C1211.6,149.9,1208.3,153,1204.4,153z"/>
	<path class="st6" d="M1271,370.6h244.5c23.2,0,42,18.8,42,42v103.5c0,23.2-18.8,42-42,42H1271c-23.2,0-42-18.8-42-42V412.6
		C1229,389.4,1247.8,370.6,1271,370.6z"/>
	<g>
		<path class="st7" d="M1291.2,466.9l1.1,25.7h-9.3l1.3-25.7H1291.2z M1290.5,456.9c0.8,0,1.2,0.4,1.2,1.1v5.6
			c0,0.8-0.4,1.2-1.2,1.2h-5.4c-0.8,0-1.2-0.4-1.2-1.2V458c0-0.4,0.1-0.7,0.3-0.9c0.2-0.2,0.5-0.2,0.9-0.2H1290.5z"/>
		<path class="st7" d="M1304.8,482.9v-10.1l-10.3-25.5h9.6l5.5,16l5.5-16h9.3l-10.3,25.5v10.1H1304.8z"/>
		<path class="st7" d="M1335.1,483.1c-2.3,0-4.2-0.2-5.8-0.7s-2.9-1.2-3.8-2.3c-1-1.1-1.6-2.4-2.1-4.1c-0.4-1.7-0.6-3.7-0.6-6.1
			c0-2.6,0.2-4.7,0.6-6.5c0.4-1.7,1.1-3.1,2.1-4.1c1-1,2.2-1.7,3.8-2.1c1.6-0.4,3.5-0.6,5.8-0.6c2.3,0,4.2,0.2,5.8,0.7
			c1.6,0.4,2.8,1.2,3.8,2.2c0.9,1,1.6,2.4,2.1,4.1c0.4,1.7,0.6,3.8,0.6,6.4c0,2.5-0.2,4.6-0.6,6.3c-0.4,1.7-1.1,3.1-2,4.1
			c-0.9,1-2.2,1.8-3.8,2.2S1337.4,483.1,1335.1,483.1z M1335.1,475.7c0.6,0,1.1-0.1,1.5-0.2c0.4-0.1,0.7-0.4,0.9-0.7
			c0.2-0.4,0.4-1,0.5-1.8c0.1-0.8,0.1-1.9,0.1-3.2c0-1.3,0-2.4-0.1-3.2c-0.1-0.8-0.3-1.4-0.5-1.8c-0.2-0.4-0.5-0.6-0.9-0.7
			c-0.4-0.1-0.9-0.2-1.5-0.2s-1.1,0.1-1.5,0.2c-0.4,0.1-0.7,0.4-0.9,0.7s-0.4,1-0.5,1.8c-0.1,0.8-0.1,1.8-0.1,3.2
			c0,1.3,0,2.4,0.1,3.2c0.1,0.8,0.3,1.4,0.5,1.8c0.2,0.4,0.5,0.6,0.9,0.7C1334,475.7,1334.5,475.7,1335.1,475.7z"/>
		<path class="st7" d="M1373.7,482.9c-2.2,0-4-0.3-5.3-0.9c-1.3-0.6-2.3-1.6-2.8-3c-0.6-1.4-0.8-3.4-0.7-5.8l0.3-8.7h-4v-6l4.4-1.4
			l1.2-7.2h7.4v7.2h5.2v7.4h-5.2v8.7c0,0.4,0,0.8,0.1,1.1c0.1,0.3,0.2,0.6,0.3,0.8c0.1,0.2,0.3,0.4,0.6,0.5c0.2,0.1,0.5,0.2,0.8,0.2
			l3.3,0.3v6.9H1373.7z"/>
		<path class="st7" d="M1393.9,483.1c-2.9,0-5.3-0.4-7.1-1.1c-1.8-0.7-3.1-2.1-3.9-4c-0.8-1.9-1.2-4.6-1.2-8c0-3.6,0.4-6.3,1.1-8.2
			c0.7-1.9,2-3.3,3.7-4.1s4.1-1.2,7-1.2c2.8,0,4.9,0.3,6.5,0.8c1.6,0.5,2.7,1.4,3.4,2.8c0.7,1.3,1,3.2,1,5.6c0,1.9-0.4,3.4-1.1,4.4
			c-0.7,1.1-1.8,1.8-3.1,2.3c-1.3,0.4-2.9,0.7-4.8,0.7h-4.6c0.1,0.8,0.3,1.4,0.6,1.8c0.3,0.5,0.8,0.8,1.6,1c0.8,0.2,1.9,0.3,3.4,0.3
			h7.1v5.4c-1.1,0.3-2.5,0.6-4,1C1397.9,483,1396,483.1,1393.9,483.1z M1390.8,467.7h3.7c0.6,0,1.1-0.1,1.4-0.4
			c0.3-0.3,0.4-0.8,0.4-1.5c0-0.6-0.1-1.1-0.3-1.5c-0.2-0.4-0.5-0.7-0.9-0.8c-0.4-0.2-1-0.3-1.6-0.3c-0.6,0-1.1,0.1-1.5,0.4
			c-0.4,0.3-0.7,0.7-0.9,1.4C1390.8,465.6,1390.8,466.5,1390.8,467.7z"/>
		<path class="st7" d="M1408,482.9V457h7.8l1.5,2.5c0.8-0.7,1.9-1.4,3.2-2c1.3-0.6,2.7-0.9,4.1-0.9c2.2,0,3.9,0.4,5.1,1.3
			c1.2,0.8,1.9,2,2.4,3.5c0.4,1.5,0.6,3.1,0.6,4.9v16.7h-9.3v-15.5c0-0.7-0.1-1.2-0.3-1.5c-0.2-0.4-0.5-0.6-0.9-0.7
			s-0.8-0.2-1.3-0.2c-0.4,0-0.8,0.1-1.3,0.2c-0.4,0.1-0.9,0.3-1.2,0.5c-0.4,0.2-0.7,0.5-1,0.8v16.5H1408z"/>
		<path class="st7" d="M1443.7,494.9c-1.6,0-3-0.2-4.3-0.7c-1.3-0.5-2.3-1.2-3-2.1c-0.8-0.9-1.1-2-1.1-3.3v-0.5
			c0-1.3,0.4-2.4,1.2-3.4c0.8-1,1.8-1.7,3-2.2c1.2-0.5,2.6-0.8,4-0.8l2.9,2.7c-0.5,0-1,0.1-1.3,0.2c-0.4,0.2-0.6,0.4-0.8,0.6
			c-0.2,0.3-0.2,0.6-0.2,0.9v0.2c0,0.5,0.2,1,0.6,1.3c0.4,0.4,1,0.6,1.8,0.6h4.2c0.7,0,1.3-0.1,1.7-0.4c0.4-0.3,0.7-0.7,0.7-1.2
			v-0.6c0-0.4-0.1-0.7-0.3-0.9c-0.2-0.2-0.5-0.4-0.8-0.6c-0.4-0.1-0.8-0.2-1.2-0.2h-4.4c-3.5,0-6-0.6-7.6-1.8s-2.4-2.7-2.4-4.4
			c0-1.3,0.4-2.4,1.1-3.4c0.7-1,1.8-1.6,3.1-1.9c-0.9-0.6-1.6-1.2-2.2-2s-1-1.6-1.2-2.5c-0.3-0.9-0.4-1.8-0.4-2.8
			c0-1.9,0.4-3.4,1.2-4.7s2-2.2,3.6-2.9c1.6-0.7,3.8-1,6.5-1h14.1v5.1l-2.7,0.9c0.2,0.3,0.4,0.7,0.6,1.1c0.1,0.4,0.3,0.9,0.3,1.5
			c0.1,0.6,0.1,1.2,0.1,1.9c0,1.6-0.3,3-1,4.2c-0.7,1.2-1.7,2.1-3,2.8c-1.4,0.7-3.2,1-5.4,1h-4.9c-0.5,0-1,0.1-1.3,0.3
			c-0.4,0.2-0.6,0.5-0.6,0.9c0,0.4,0.2,0.7,0.6,0.8c0.4,0.1,0.8,0.2,1.3,0.2h6.2c2,0,3.6,0.3,5.1,0.8c1.4,0.5,2.6,1.4,3.4,2.6
			c0.8,1.2,1.2,2.8,1.2,4.9v0.4c0,2.7-0.8,4.8-2.4,6.3c-1.6,1.5-4.2,2.3-7.7,2.3H1443.7z M1447.2,468.5h2.6c0.5,0,1-0.1,1.3-0.2
			c0.3-0.2,0.5-0.4,0.7-0.8c0.1-0.4,0.2-0.8,0.2-1.3c0-0.5-0.1-1-0.2-1.3c-0.1-0.3-0.4-0.6-0.7-0.7c-0.3-0.1-0.8-0.2-1.3-0.2h-2.6
			c-0.8,0-1.4,0.2-1.7,0.5s-0.5,0.9-0.5,1.8c0,0.8,0.2,1.4,0.5,1.8C1445.8,468.3,1446.4,468.5,1447.2,468.5z"/>
		<path class="st7" d="M1476.6,483.1c-2.3,0-4.2-0.2-5.8-0.7s-2.9-1.2-3.8-2.3c-1-1.1-1.6-2.4-2.1-4.1c-0.4-1.7-0.6-3.7-0.6-6.1
			c0-2.6,0.2-4.7,0.6-6.5c0.4-1.7,1.1-3.1,2.1-4.1s2.2-1.7,3.8-2.1c1.6-0.4,3.5-0.6,5.8-0.6c2.3,0,4.2,0.2,5.8,0.7
			c1.6,0.4,2.8,1.2,3.8,2.2c0.9,1,1.6,2.4,2.1,4.1c0.4,1.7,0.6,3.8,0.6,6.4c0,2.5-0.2,4.6-0.6,6.3c-0.4,1.7-1.1,3.1-2,4.1
			c-0.9,1-2.2,1.8-3.8,2.2S1478.9,483.1,1476.6,483.1z M1476.6,475.7c0.6,0,1.1-0.1,1.5-0.2c0.4-0.1,0.7-0.4,0.9-0.7
			c0.2-0.4,0.4-1,0.5-1.8c0.1-0.8,0.1-1.9,0.1-3.2c0-1.3,0-2.4-0.1-3.2c-0.1-0.8-0.3-1.4-0.5-1.8s-0.5-0.6-0.9-0.7
			c-0.4-0.1-0.9-0.2-1.5-0.2c-0.6,0-1.1,0.1-1.5,0.2c-0.4,0.1-0.7,0.4-0.9,0.7c-0.2,0.4-0.4,1-0.5,1.8c-0.1,0.8-0.1,1.8-0.1,3.2
			c0,1.3,0,2.4,0.1,3.2c0.1,0.8,0.3,1.4,0.5,1.8c0.2,0.4,0.5,0.6,0.9,0.7C1475.5,475.7,1476,475.7,1476.6,475.7z"/>
		<path class="st7" d="M1493.4,473l-1.1-25.7h9.3l-1.3,25.7H1493.4z M1494.1,483c-0.8,0-1.2-0.4-1.2-1.1v-5.6c0-0.8,0.4-1.2,1.2-1.2
			h5.4c0.8,0,1.2,0.4,1.2,1.2v5.6c0,0.4-0.1,0.7-0.3,0.9c-0.2,0.2-0.5,0.2-0.9,0.2H1494.1z"/>
	</g>
	<path class="st6" d="M969,812.6H633c-23.2,0-42-18.8-42-42v-84h420v84C1011,793.8,992.2,812.6,969,812.6z"/>
	<circle class="st7" cx="800.6" cy="749.6" r="39.2"/>
	<g>
		<path class="st7" d="M801,163c-77.1,0-139.8,62.7-139.8,139.8c0,77.1,62.7,139.8,139.8,139.8s139.8-62.7,139.8-139.8
			C940.8,225.7,878.1,163,801,163z M801,422.7c-66.2,0-120-53.8-120-120s53.8-120,120-120s120,53.8,120,120S867.2,422.7,801,422.7z"
			/>
		
			<ellipse transform="matrix(0.7071 -0.7071 0.7071 0.7071 20.5233 655.0812)" class="st7" cx="801" cy="302.8" rx="96.1" ry="96.1"/>
	</g>
	<g>
		<path class="st0" d="M1198.4,525.3c-47.7,0-86.5,38.8-86.5,86.5c0,47.7,38.8,86.5,86.5,86.5c47.7,0,86.5-38.8,86.5-86.5
			C1284.9,564.1,1246.1,525.3,1198.4,525.3z M1198.4,689.1c-42.6,0-77.3-34.7-77.3-77.3s34.7-77.3,77.3-77.3s77.3,34.7,77.3,77.3
			S1241,689.1,1198.4,689.1z"/>
		<path class="st0" d="M1240.9,596.8l-23.8-3.6c-1.6-0.2-3-1.3-3.7-2.8l-10.6-22.6c-1.8-3.8-7-3.8-8.8,0l-10.6,22.6
			c-0.7,1.5-2.1,2.6-3.7,2.8l-23.8,3.6c-4,0.6-5.7,5.8-2.7,8.8l17.2,17.6c1.2,1.2,1.7,2.9,1.4,4.6l-4.1,24.8
			c-0.7,4.2,3.5,7.4,7.2,5.4l21.3-11.7c1.4-0.8,3.2-0.8,4.6,0l21.3,11.7c3.6,2,7.8-1.2,7.2-5.4l-4.1-24.8c-0.3-1.7,0.3-3.4,1.4-4.6
			l17.2-17.6C1246.6,602.6,1245,597.4,1240.9,596.8z"/>
	</g>
	<path class="st9" d="M969,814H633c-23.2,0-42-18.8-42-42V163c0-23.2,18.8-42,42-42h336c23.2,0,42,18.8,42,42v609
		C1011,795.2,992.2,814,969,814z"/>
	<g>
		<path class="st7" d="M693.1,535.6l10.6-35.7h11.6l10.6,35.7h-9.6l-1.4-5.7h-10.7l-1.4,5.7H693.1z M706.2,521.6h6.4l-3.2-13.7
			L706.2,521.6z"/>
		<path class="st7" d="M738,535.6c-2.1,0-3.9-0.3-5.3-1c-1.4-0.6-2.4-1.6-3-3c-0.6-1.4-1-3.1-1-5.3V500h9.3v24.8
			c0,0.5,0.1,1,0.3,1.4c0.2,0.4,0.5,0.7,0.8,0.8c0.4,0.2,0.8,0.3,1.4,0.3h10.4v8.4H738z"/>
		<path class="st7" d="M752.1,535.6l10.6-35.7h11.6l10.6,35.7h-9.6l-1.4-5.7h-10.7l-1.4,5.7H752.1z M765.2,521.6h6.4l-3.2-13.7
			L765.2,521.6z"/>
		<path class="st7" d="M799.4,535.9c-2,0-3.8-0.2-5.4-0.7c-1.6-0.5-3-1.4-4.1-2.6s-2-3.1-2.6-5.5c-0.6-2.4-0.9-5.5-0.9-9.4
			c0-3.7,0.3-6.8,1-9.1c0.6-2.4,1.5-4.2,2.7-5.5s2.6-2.2,4.2-2.7c1.6-0.5,3.4-0.7,5.3-0.7c2,0,3.7,0.1,5.3,0.3
			c1.5,0.2,2.8,0.5,3.9,0.7s1.9,0.6,2.6,0.9v7.2c-0.6-0.1-1.4-0.3-2.4-0.4c-1-0.1-2.1-0.2-3.3-0.3c-1.2-0.1-2.6-0.1-4-0.1
			c-1.1,0-2,0.1-2.8,0.3c-0.8,0.2-1.4,0.7-1.8,1.3c-0.4,0.7-0.8,1.7-1,3c-0.2,1.3-0.3,3-0.3,5.2c0,1.9,0.1,3.5,0.2,4.8
			c0.2,1.3,0.4,2.3,0.9,3c0.4,0.7,1,1.2,1.8,1.5c0.8,0.3,1.8,0.5,3,0.5c2.4,0,4.4,0,5.9-0.1c1.5-0.1,2.7-0.2,3.6-0.3v7.2
			c-0.8,0.3-1.7,0.6-2.8,0.8c-1.1,0.2-2.3,0.4-3.8,0.5C803.1,535.8,801.4,535.9,799.4,535.9z"/>
		<path class="st7" d="M824.4,535.9c-0.8,0-1.7-0.1-2.8-0.2s-2.1-0.5-3.1-1.1c-1-0.5-1.8-1.4-2.5-2.5c-0.7-1.1-1-2.7-1-4.7v-18.6
			c0-1.7,0.3-3.2,0.8-4.3c0.5-1.2,1.2-2.1,2.1-2.7c0.9-0.7,1.8-1.1,2.9-1.4c1.1-0.3,2.1-0.4,3.1-0.4c2.7,0,5,0,6.9,0.1
			c1.9,0.1,3.6,0.2,5,0.3c1.4,0.1,2.7,0.2,3.8,0.3v7.9h-12.9c-0.8,0-1.4,0.2-1.8,0.5c-0.4,0.4-0.6,0.9-0.6,1.6v3l12.9,0.5v7.4
			l-12.9,0.5v2.7c0,0.6,0.1,1,0.3,1.4c0.2,0.4,0.4,0.6,0.7,0.8c0.3,0.2,0.7,0.3,1.1,0.3h13.2v7.9c-1.4,0.2-2.9,0.4-4.7,0.5
			c-1.8,0.1-3.6,0.2-5.4,0.3C827.8,535.9,826,535.9,824.4,535.9z"/>
		<path class="st7" d="M844,535.6V500h7.4l12.5,19.9V500h9.3v35.7h-7.4l-12.5-19.9v19.9H844z"/>
		<path class="st7" d="M876.1,535.6l10.6-35.7h11.6l10.6,35.7h-9.6l-1.4-5.7h-10.7l-1.4,5.7H876.1z M889.2,521.6h6.4l-3.2-13.7
			L889.2,521.6z"/>
		<path class="st7" d="M691.2,593.5c-1.1,0-2.1,0-3.1-0.1c-1-0.1-2-0.2-3-0.3c-1-0.1-1.9-0.3-2.8-0.4c-0.9-0.2-1.8-0.4-2.6-0.6v-7.4
			c1.1,0.1,2.3,0.2,3.5,0.2c1.3,0.1,2.5,0.1,3.8,0.1c1.3,0,2.5,0,3.6,0c1.1,0,1.9-0.1,2.6-0.2c0.7-0.2,1.2-0.4,1.6-0.8
			c0.4-0.4,0.5-0.8,0.5-1.4v-0.6c0-0.7-0.2-1.2-0.7-1.6c-0.5-0.4-1.1-0.5-1.8-0.5h-2.5c-3.7,0-6.5-0.8-8.4-2.4s-2.9-4.4-2.9-8.2
			v-1.6c0-3.5,1.1-6.2,3.2-7.9c2.1-1.7,5.2-2.6,9.1-2.6c1.5,0,2.9,0.1,4.2,0.2c1.3,0.1,2.6,0.3,3.7,0.5c1.2,0.2,2.2,0.4,3.1,0.6v7.4
			c-1.5-0.1-3.1-0.2-5-0.3c-1.8-0.1-3.5-0.1-5-0.1c-0.9,0-1.7,0.1-2.4,0.2c-0.7,0.1-1.2,0.4-1.6,0.8c-0.4,0.4-0.6,0.9-0.6,1.7v0.5
			c0,0.8,0.3,1.4,0.8,1.8c0.5,0.4,1.3,0.6,2.4,0.6h3.2c2.2,0,4.1,0.4,5.6,1.3c1.5,0.8,2.6,2,3.4,3.5s1.1,3.1,1.1,5v1.6
			c0,3-0.5,5.4-1.6,7c-1.1,1.6-2.6,2.7-4.5,3.2S693.9,593.5,691.2,593.5z"/>
		<path class="st7" d="M723,593.5c-2.5,0-4.7-0.2-6.6-0.7c-1.9-0.5-3.5-1.4-4.8-2.7c-1.3-1.3-2.2-3.1-2.9-5.5c-0.6-2.4-1-5.5-1-9.2
			c0-3.8,0.3-6.9,1-9.2s1.6-4.2,2.9-5.5c1.3-1.3,2.9-2.2,4.8-2.7c1.9-0.5,4.1-0.7,6.6-0.7c2.5,0,4.7,0.2,6.6,0.7
			c1.9,0.5,3.5,1.4,4.8,2.7c1.3,1.3,2.2,3.1,2.9,5.5c0.6,2.4,1,5.5,1,9.2c0,3.8-0.3,6.9-1,9.2c-0.6,2.4-1.6,4.2-2.9,5.5
			c-1.3,1.3-2.9,2.2-4.8,2.7C727.7,593.3,725.5,593.5,723,593.5z M723,585.2c1.2,0,2.2-0.1,3-0.4c0.8-0.3,1.4-0.8,1.8-1.5
			c0.4-0.7,0.7-1.7,0.9-3c0.2-1.3,0.3-2.9,0.3-4.9c0-2.1-0.1-3.8-0.3-5c-0.2-1.3-0.5-2.3-0.9-3c-0.4-0.7-1-1.2-1.8-1.4
			c-0.8-0.3-1.8-0.4-3-0.4c-1.2,0-2.2,0.1-3,0.4c-0.8,0.3-1.4,0.7-1.8,1.4c-0.4,0.7-0.7,1.7-0.9,3c-0.2,1.3-0.3,3-0.3,5
			c0,2,0.1,3.6,0.3,4.9c0.2,1.3,0.5,2.3,0.9,3c0.4,0.7,1,1.2,1.8,1.5S721.8,585.2,723,585.2z"/>
		<path class="st7" d="M751.9,593.2c-2.1,0-3.9-0.3-5.3-1c-1.4-0.6-2.4-1.6-3-3c-0.6-1.4-1-3.1-1-5.3v-26.4h9.3v24.8
			c0,0.5,0.1,1,0.3,1.4c0.2,0.4,0.5,0.7,0.8,0.8c0.4,0.2,0.8,0.3,1.4,0.3h10.4v8.4H751.9z"/>
		<path class="st7" d="M768.4,593.2v-35.7h9.3v35.7H768.4z"/>
		<path class="st7" d="M783,593.2v-35.7h15.7c2.6,0,4.7,0.5,6.4,1.4c1.7,0.9,3,2.2,3.9,3.8c1,1.6,1.6,3.5,2,5.7
			c0.4,2.2,0.6,4.5,0.6,7c0,4.2-0.5,7.6-1.4,10.2c-0.9,2.6-2.4,4.5-4.3,5.8c-1.9,1.2-4.3,1.8-7.2,1.8H783z M792.3,584.9h5.5
			c1.2,0,2.1-0.3,2.8-1c0.7-0.6,1.1-1.7,1.4-3c0.3-1.4,0.4-3.2,0.4-5.4c0-2.1-0.1-3.8-0.3-5.1c-0.2-1.3-0.5-2.2-0.9-2.9
			c-0.4-0.6-0.9-1.1-1.4-1.3c-0.6-0.2-1.2-0.3-1.9-0.3h-5.5V584.9z"/>
		<path class="st7" d="M813.1,593.2l10.6-35.7h11.6l10.6,35.7h-9.6l-1.4-5.7h-10.7l-1.4,5.7H813.1z M826.2,579.2h6.4l-3.2-13.7
			L826.2,579.2z"/>
		<path class="st7" d="M848.8,593.2v-35.7H864c1.6,0,3,0.2,4.3,0.6s2.4,1,3.4,1.9s1.7,2.1,2.2,3.7c0.5,1.5,0.8,3.5,0.8,5.8
			c0,1.5-0.1,2.8-0.4,3.8c-0.3,1.1-0.6,2-1,2.8c-0.4,0.8-0.9,1.4-1.5,1.9c-0.6,0.5-1.2,1-1.9,1.3l6.2,13.8h-9.5l-5-12.3
			c-0.3,0-0.6,0-0.9,0c-0.3,0-0.6,0-0.9,0c-0.3,0-0.6,0-0.9,0c-0.3,0-0.6,0-0.9,0v12.3H848.8z M858.1,573.5h4.2c0.5,0,1-0.1,1.3-0.2
			c0.4-0.1,0.7-0.4,1-0.7c0.3-0.3,0.5-0.7,0.6-1.2s0.2-1.1,0.2-1.8c0-0.7-0.1-1.3-0.2-1.8c-0.1-0.5-0.3-0.9-0.6-1.1
			c-0.3-0.3-0.6-0.5-1-0.6c-0.4-0.1-0.8-0.2-1.3-0.2h-4.2V573.5z"/>
		<path class="st7" d="M879.5,593.2v-35.7h9.3v35.7H879.5z"/>
		<path class="st7" d="M891.7,593.2l10.6-35.7h11.6l10.6,35.7h-9.6l-1.4-5.7h-10.7l-1.4,5.7H891.7z M904.8,579.2h6.4l-3.2-13.7
			L904.8,579.2z"/>
	</g>
	<path class="st6" d="M339,478H94.5c-23.2,0-42-18.8-42-42V332.5c0-23.2,18.8-42,42-42H339c23.2,0,42,18.8,42,42V436
		C381,459.2,362.2,478,339,478z"/>
	<path class="st0" d="M409.6,148.7c-49.9,0-90.5,40.6-90.5,90.5c0,49.9,40.6,90.5,90.5,90.5c49.9,0,90.5-40.6,90.5-90.5
		C500.1,189.3,459.5,148.7,409.6,148.7z M437.5,255.9l4.3,25.9c0.7,4.4-3.7,7.8-7.5,5.7L412,275.2c-1.5-0.8-3.3-0.8-4.8,0
		l-22.3,12.2c-3.8,2.1-8.2-1.3-7.5-5.7l4.3-25.9c0.3-1.8-0.3-3.5-1.5-4.8l-18-18.4c-3.1-3.1-1.4-8.6,2.9-9.2l24.9-3.8
		c1.7-0.3,3.1-1.4,3.9-3l11.1-23.6c1.9-4,7.4-4,9.3,0l11.1,23.6c0.8,1.6,2.2,2.7,3.9,3l24.9,3.8c4.2,0.6,5.9,6.1,2.9,9.2l-18,18.4
		C437.8,252.3,437.2,254.1,437.5,255.9z"/>
	<g>
		<path class="st7" d="M104.7,402.3v-35.7h7.4l12.5,19.9v-19.9h9.3v35.7h-7.4L114,382.5v19.9H104.7z"/>
		<path class="st7" d="M150.3,402.6c-2.9,0-5.3-0.4-7.1-1.1c-1.8-0.7-3.1-2.1-3.9-4c-0.8-1.9-1.2-4.6-1.2-8c0-3.6,0.4-6.3,1.1-8.2
			c0.7-1.9,2-3.3,3.7-4.1s4.1-1.2,7-1.2c2.8,0,4.9,0.3,6.5,0.8c1.6,0.5,2.7,1.4,3.4,2.8c0.7,1.3,1,3.2,1,5.6c0,1.9-0.4,3.4-1.1,4.4
			c-0.7,1.1-1.8,1.8-3.1,2.3c-1.3,0.4-2.9,0.7-4.8,0.7h-4.6c0.1,0.8,0.3,1.4,0.6,1.8c0.3,0.5,0.8,0.8,1.6,1c0.8,0.2,1.9,0.3,3.4,0.3
			h7.1v5.4c-1.1,0.3-2.5,0.6-4,1C154.3,402.4,152.5,402.6,150.3,402.6z M147.2,387.2h3.7c0.6,0,1.1-0.1,1.4-0.4
			c0.3-0.3,0.4-0.8,0.4-1.5c0-0.6-0.1-1.1-0.3-1.5c-0.2-0.4-0.5-0.7-0.9-0.8c-0.4-0.2-1-0.3-1.6-0.3c-0.6,0-1.1,0.1-1.5,0.4
			c-0.4,0.3-0.7,0.7-0.9,1.4C147.3,385.1,147.2,386,147.2,387.2z"/>
		<path class="st7" d="M174.9,402.6c-1.6,0-3.1-0.2-4.5-0.6c-1.4-0.4-2.6-1.1-3.6-2.1c-1-1-1.8-2.3-2.3-4c-0.5-1.7-0.8-3.8-0.8-6.3
			c0-2.6,0.2-4.8,0.7-6.6s1.2-3.1,2.2-4.2c1-1,2.2-1.8,3.6-2.2c1.4-0.4,3.1-0.6,4.9-0.6c1.7,0,3.3,0.1,4.7,0.3
			c1.4,0.2,2.9,0.6,4.6,1.2v5.3h-6.3c-1.4,0-2.4,0.2-3.2,0.6c-0.8,0.4-1.3,1-1.6,2c-0.3,0.9-0.4,2.3-0.4,4.1c0,1.8,0.1,3.1,0.4,4
			c0.3,0.9,0.8,1.5,1.5,1.8s1.9,0.4,3.3,0.4h6.5v5.2c-0.8,0.3-1.8,0.6-2.9,0.9c-1.1,0.3-2.3,0.5-3.5,0.6
			C177.2,402.6,176,402.6,174.9,402.6z"/>
		<path class="st7" d="M199.5,402.6c-2.9,0-5.3-0.4-7.1-1.1c-1.8-0.7-3.1-2.1-3.9-4c-0.8-1.9-1.2-4.6-1.2-8c0-3.6,0.4-6.3,1.1-8.2
			c0.7-1.9,2-3.3,3.7-4.1s4.1-1.2,7-1.2c2.8,0,4.9,0.3,6.5,0.8c1.6,0.5,2.7,1.4,3.4,2.8c0.7,1.3,1,3.2,1,5.6c0,1.9-0.4,3.4-1.1,4.4
			c-0.7,1.1-1.8,1.8-3.1,2.3c-1.3,0.4-2.9,0.7-4.8,0.7h-4.6c0.1,0.8,0.3,1.4,0.6,1.8c0.3,0.5,0.8,0.8,1.6,1c0.8,0.2,1.9,0.3,3.4,0.3
			h7.1v5.4c-1.1,0.3-2.5,0.6-4,1C203.5,402.4,201.7,402.6,199.5,402.6z M196.4,387.2h3.7c0.6,0,1.1-0.1,1.4-0.4
			c0.3-0.3,0.4-0.8,0.4-1.5c0-0.6-0.1-1.1-0.3-1.5c-0.2-0.4-0.5-0.7-0.9-0.8c-0.4-0.2-1-0.3-1.6-0.3c-0.6,0-1.1,0.1-1.5,0.4
			c-0.4,0.3-0.7,0.7-0.9,1.4C196.5,385.1,196.4,386,196.4,387.2z"/>
		<path class="st7" d="M223.3,402.6c-0.9,0-1.9,0-2.8-0.1c-0.9-0.1-1.8-0.2-2.7-0.3c-0.9-0.1-1.7-0.3-2.5-0.5
			c-0.8-0.2-1.5-0.4-2.1-0.7v-5.4h12c0.4,0,0.7,0,0.9-0.1c0.2-0.1,0.3-0.2,0.4-0.3s0.1-0.3,0.1-0.5v-0.6c0-0.3-0.1-0.6-0.3-0.7
			c-0.2-0.2-0.7-0.3-1.5-0.3h-4.3c-1.4,0-2.8-0.2-4-0.7s-2.2-1.3-2.9-2.4c-0.7-1.1-1.1-2.5-1.1-4.4v-1.6c0-1.7,0.3-3.1,1-4.2
			c0.6-1.2,1.8-2.1,3.4-2.7s3.9-0.9,6.9-0.9c1.2,0,2.4,0.1,3.6,0.2c1.2,0.1,2.3,0.3,3.4,0.6c1,0.2,1.8,0.5,2.4,0.7v5.4H222
			c-0.5,0-0.8,0.1-1.1,0.2s-0.3,0.4-0.3,0.7v0.6c0,0.3,0.1,0.5,0.2,0.6s0.3,0.2,0.6,0.3c0.3,0.1,0.7,0.1,1.2,0.1h4.5
			c2.8,0,4.8,0.6,5.9,1.9c1.1,1.3,1.7,3,1.7,5.2v2.6c0,1.7-0.4,3.1-1.2,4.2c-0.8,1.1-2.1,1.8-3.7,2.3
			C228,402.4,225.9,402.6,223.3,402.6z"/>
		<path class="st7" d="M239,373.2c-0.8,0-1.2-0.4-1.2-1.1v-5.3c0-0.8,0.4-1.2,1.2-1.2h7.3c0.4,0,0.6,0.1,0.8,0.3
			c0.2,0.2,0.3,0.5,0.3,0.9v5.3c0,0.7-0.4,1.1-1.1,1.1H239z M238,402.3v-25.9h9.3v25.9H238z"/>
		<path class="st7" d="M262.2,402.3c-2.2,0-4-0.3-5.3-0.9c-1.3-0.6-2.3-1.6-2.8-3c-0.6-1.4-0.8-3.4-0.7-5.8l0.3-8.7h-4v-6l4.4-1.4
			l1.2-7.2h7.4v7.2h5.2v7.4h-5.2v8.7c0,0.4,0,0.8,0.1,1.1c0.1,0.3,0.2,0.6,0.3,0.8c0.1,0.2,0.3,0.4,0.6,0.5c0.2,0.1,0.5,0.2,0.8,0.2
			l3.3,0.3v6.9H262.2z"/>
		<path class="st7" d="M282.5,402.6c-2.3,0-4.2-0.2-5.8-0.7s-2.9-1.2-3.8-2.3c-1-1.1-1.6-2.4-2.1-4.1c-0.4-1.7-0.6-3.7-0.6-6.1
			c0-2.6,0.2-4.7,0.6-6.5c0.4-1.7,1.1-3.1,2.1-4.1c1-1,2.2-1.7,3.8-2.1c1.6-0.4,3.5-0.6,5.8-0.6c2.3,0,4.2,0.2,5.8,0.7
			c1.6,0.4,2.8,1.2,3.8,2.2c0.9,1,1.6,2.4,2.1,4.1c0.4,1.7,0.6,3.8,0.6,6.4c0,2.5-0.2,4.6-0.6,6.3c-0.4,1.7-1.1,3.1-2,4.1
			c-0.9,1-2.2,1.8-3.8,2.2S284.9,402.6,282.5,402.6z M282.5,395.2c0.6,0,1.1-0.1,1.5-0.2c0.4-0.1,0.7-0.4,0.9-0.7
			c0.2-0.4,0.4-1,0.5-1.8c0.1-0.8,0.1-1.9,0.1-3.2c0-1.3,0-2.4-0.1-3.2c-0.1-0.8-0.3-1.4-0.5-1.8c-0.2-0.4-0.5-0.6-0.9-0.7
			c-0.4-0.1-0.9-0.2-1.5-0.2s-1.1,0.1-1.5,0.2c-0.4,0.1-0.7,0.4-0.9,0.7s-0.4,1-0.5,1.8c-0.1,0.8-0.1,1.8-0.1,3.2
			c0,1.3,0,2.4,0.1,3.2c0.1,0.8,0.3,1.4,0.5,1.8c0.2,0.4,0.5,0.6,0.9,0.7C281.4,395.1,281.9,395.2,282.5,395.2z"/>
		<path class="st7" d="M299.8,402.4c-0.8,0-1.2-0.4-1.2-1.1v-5.6c0-0.8,0.4-1.2,1.2-1.2h5.4c0.8,0,1.2,0.4,1.2,1.2v5.6
			c0,0.4-0.1,0.7-0.3,0.9c-0.2,0.2-0.5,0.2-0.9,0.2H299.8z"/>
		<path class="st7" d="M312.1,402.4c-0.8,0-1.2-0.4-1.2-1.1v-5.6c0-0.8,0.4-1.2,1.2-1.2h5.4c0.8,0,1.2,0.4,1.2,1.2v5.6
			c0,0.4-0.1,0.7-0.3,0.9c-0.2,0.2-0.5,0.2-0.9,0.2H312.1z"/>
		<path class="st7" d="M324.4,402.4c-0.8,0-1.2-0.4-1.2-1.1v-5.6c0-0.8,0.4-1.2,1.2-1.2h5.4c0.8,0,1.2,0.4,1.2,1.2v5.6
			c0,0.4-0.1,0.7-0.3,0.9c-0.2,0.2-0.5,0.2-0.9,0.2H324.4z"/>
	</g>
</g>
<g id="Layer_2">
</g>
</svg>
